<?xml version="1.0" encoding="UTF-8"?>
<svg xmlns="http://www.w3.org/2000/svg" xmlns:xlink="http://www.w3.org/1999/xlink" viewBox="0 0 720.00 324.00">
  <defs>
    <style type="text/css"><![CDATA[
    line, polyline, path, rect, circle {
      fill: none;
      stroke: #000000;
      stroke-linecap: round;
      stroke-linejoin: round;
      stroke-miterlimit: 10.00;
    }
  ]]></style>
  </defs>
  <line x1="418.39" y1="271.82" x2="418.39" y2="280.44" style="stroke-width: 1.07; stroke: #0278DD;" clip-path="url(#cpNi45NzM4NXw3MTMuMDI2fDI4MC40NDV8Ni45NzM4NQ==)"/>
  <line x1="274.49" y1="253.29" x2="274.49" y2="280.44" style="stroke-width: 1.07; stroke: #0278DD;" clip-path="url(#cpNi45NzM4NXw3MTMuMDI2fDI4MC40NDV8Ni45NzM4NQ==)"/>
  <line x1="479.41" y1="220.95" x2="479.41" y2="280.44" style="stroke-width: 1.07; stroke: #7FBE00;" clip-path="url(#cpNi45NzM4NXw3MTMuMDI2fDI4MC40NDV8Ni45NzM4NQ==)"/>
  <line x1="508.41" y1="195.23" x2="508.41" y2="280.44" style="stroke-width: 1.07; stroke: #0278DD;" clip-path="url(#cpNi45NzM4NXw3MTMuMDI2fDI4MC40NDV8Ni45NzM4NQ==)"/>
  <line x1="468.11" y1="261.30" x2="468.11" y2="280.44" style="stroke-width: 1.07; stroke: #0278DD;" clip-path="url(#cpNi45NzM4NXw3MTMuMDI2fDI4MC40NDV8Ni45NzM4NQ==)"/>
  <line x1="570.19" y1="276.85" x2="570.19" y2="280.44" style="stroke-width: 1.07; stroke: #7FBE00;" clip-path="url(#cpNi45NzM4NXw3MTMuMDI2fDI4MC40NDV8Ni45NzM4NQ==)"/>
  <line x1="379.59" y1="223.34" x2="379.59" y2="280.44" style="stroke-width: 1.07; stroke: #0278DD;" clip-path="url(#cpNi45NzM4NXw3MTMuMDI2fDI4MC40NDV8Ni45NzM4NQ==)"/>
  <line x1="524.23" y1="209.78" x2="524.23" y2="280.44" style="stroke-width: 1.07; stroke: #0278DD;" clip-path="url(#cpNi45NzM4NXw3MTMuMDI2fDI4MC40NDV8Ni45NzM4NQ==)"/>
  <line x1="578.48" y1="238.04" x2="578.48" y2="280.44" style="stroke-width: 1.07; stroke: #7FBE00;" clip-path="url(#cpNi45NzM4NXw3MTMuMDI2fDI4MC40NDV8Ni45NzM4NQ==)"/>
  <line x1="596.93" y1="209.23" x2="596.93" y2="280.44" style="stroke-width: 1.07; stroke: #E0AB00;" clip-path="url(#cpNi45NzM4NXw3MTMuMDI2fDI4MC40NDV8Ni45NzM4NQ==)"/>
  <line x1="577.35" y1="191.95" x2="577.35" y2="280.44" style="stroke-width: 1.07; stroke: #0278DD;" clip-path="url(#cpNi45NzM4NXw3MTMuMDI2fDI4MC40NDV8Ni45NzM4NQ==)"/>
  <line x1="377.33" y1="180.80" x2="377.33" y2="280.44" style="stroke-width: 1.07; stroke: #0278DD;" clip-path="url(#cpNi45NzM4NXw3MTMuMDI2fDI4MC40NDV8Ni45NzM4NQ==)"/>
  <line x1="492.59" y1="133.15" x2="492.59" y2="280.44" style="stroke-width: 1.07; stroke: #E0AB00;" clip-path="url(#cpNi45NzM4NXw3MTMuMDI2fDI4MC40NDV8Ni45NzM4NQ==)"/>
  <line x1="497.11" y1="180.56" x2="497.11" y2="280.44" style="stroke-width: 1.07; stroke: #0278DD;" clip-path="url(#cpNi45NzM4NXw3MTMuMDI2fDI4MC40NDV8Ni45NzM4NQ==)"/>
  <line x1="236.07" y1="231.93" x2="236.07" y2="280.44" style="stroke-width: 1.07; stroke: #0278DD;" clip-path="url(#cpNi45NzM4NXw3MTMuMDI2fDI4MC40NDV8Ni45NzM4NQ==)"/>
  <line x1="482.80" y1="114.50" x2="482.80" y2="280.44" style="stroke-width: 1.07; stroke: #E0AB00;" clip-path="url(#cpNi45NzM4NXw3MTMuMDI2fDI4MC40NDV8Ni45NzM4NQ==)"/>
  <line x1="486.94" y1="159.35" x2="486.94" y2="280.44" style="stroke-width: 1.07; stroke: #E0AB00;" clip-path="url(#cpNi45NzM4NXw3MTMuMDI2fDI4MC40NDV8Ni45NzM4NQ==)"/>
  <line x1="602.58" y1="256.22" x2="602.58" y2="280.44" style="stroke-width: 1.07; stroke: #E0AB00;" clip-path="url(#cpNi45NzM4NXw3MTMuMDI2fDI4MC40NDV8Ni45NzM4NQ==)"/>
  <line x1="517.45" y1="245.65" x2="517.45" y2="280.44" style="stroke-width: 1.07; stroke: #0278DD;" clip-path="url(#cpNi45NzM4NXw3MTMuMDI2fDI4MC40NDV8Ni45NzM4NQ==)"/>
  <line x1="378.83" y1="203.16" x2="378.83" y2="280.44" style="stroke-width: 1.07; stroke: #E0AB00;" clip-path="url(#cpNi45NzM4NXw3MTMuMDI2fDI4MC40NDV8Ni45NzM4NQ==)"/>
  <line x1="428.18" y1="191.84" x2="428.18" y2="280.44" style="stroke-width: 1.07; stroke: #0278DD;" clip-path="url(#cpNi45NzM4NXw3MTMuMDI2fDI4MC40NDV8Ni45NzM4NQ==)"/>
  <line x1="175.80" y1="275.83" x2="175.80" y2="280.44" style="stroke-width: 1.07; stroke: #E0AB00;" clip-path="url(#cpNi45NzM4NXw3MTMuMDI2fDI4MC40NDV8Ni45NzM4NQ==)"/>
  <line x1="558.13" y1="173.27" x2="558.13" y2="280.44" style="stroke-width: 1.07; stroke: #FF4237;" clip-path="url(#cpNi45NzM4NXw3MTMuMDI2fDI4MC40NDV8Ni45NzM4NQ==)"/>
  <line x1="318.19" y1="275.34" x2="318.19" y2="280.44" style="stroke-width: 1.07; stroke: #E0AB00;" clip-path="url(#cpNi45NzM4NXw3MTMuMDI2fDI4MC40NDV8Ni45NzM4NQ==)"/>
  <line x1="487.32" y1="77.66" x2="487.32" y2="280.44" style="stroke-width: 1.07; stroke: #E0AB00;" clip-path="url(#cpNi45NzM4NXw3MTMuMDI2fDI4MC40NDV8Ni45NzM4NQ==)"/>
  <line x1="565.67" y1="223.08" x2="565.67" y2="280.44" style="stroke-width: 1.07; stroke: #0278DD;" clip-path="url(#cpNi45NzM4NXw3MTMuMDI2fDI4MC40NDV8Ni45NzM4NQ==)"/>
  <line x1="471.50" y1="42.40" x2="471.50" y2="280.44" style="stroke-width: 1.07; stroke: #E0AB00;" clip-path="url(#cpNi45NzM4NXw3MTMuMDI2fDI4MC40NDV8Ni45NzM4NQ==)"/>
  <line x1="382.22" y1="243.45" x2="382.22" y2="280.43" style="stroke-width: 1.07; stroke: #E0AB00;" clip-path="url(#cpNi45NzM4NXw3MTMuMDI2fDI4MC40NDV8Ni45NzM4NQ==)"/>
  <line x1="564.54" y1="130.49" x2="564.54" y2="280.43" style="stroke-width: 1.07; stroke: #CA0565;" clip-path="url(#cpNi45NzM4NXw3MTMuMDI2fDI4MC40NDV8Ni45NzM4NQ==)"/>
  <line x1="72.97" y1="275.94" x2="72.97" y2="280.43" style="stroke-width: 1.07; stroke: #E0AB00;" clip-path="url(#cpNi45NzM4NXw3MTMuMDI2fDI4MC40NDV8Ni45NzM4NQ==)"/>
  <line x1="328.36" y1="238.00" x2="328.36" y2="280.43" style="stroke-width: 1.07; stroke: #3AD1D1;" clip-path="url(#cpNi45NzM4NXw3MTMuMDI2fDI4MC40NDV8Ni45NzM4NQ==)"/>
  <line x1="531.77" y1="158.38" x2="531.77" y2="280.43" style="stroke-width: 1.07; stroke: #3AD1D1;" clip-path="url(#cpNi45NzM4NXw3MTMuMDI2fDI4MC40NDV8Ni45NzM4NQ==)"/>
  <line x1="445.51" y1="239.19" x2="445.51" y2="280.43" style="stroke-width: 1.07; stroke: #E0AB00;" clip-path="url(#cpNi45NzM4NXw3MTMuMDI2fDI4MC40NDV8Ni45NzM4NQ==)"/>
  <line x1="474.89" y1="25.65" x2="474.89" y2="280.43" style="stroke-width: 1.07; stroke: #7FBE00;" clip-path="url(#cpNi45NzM4NXw3MTMuMDI2fDI4MC40NDV8Ni45NzM4NQ==)"/>
  <line x1="571.70" y1="25.65" x2="571.70" y2="280.43" style="stroke-width: 1.07; stroke: #E0AB00;" clip-path="url(#cpNi45NzM4NXw3MTMuMDI2fDI4MC40NDV8Ni45NzM4NQ==)"/>
  <line x1="531.01" y1="111.81" x2="531.01" y2="280.43" style="stroke-width: 1.07; stroke: #7FBE00;" clip-path="url(#cpNi45NzM4NXw3MTMuMDI2fDI4MC40NDV8Ni45NzM4NQ==)"/>
  <line x1="349.83" y1="261.27" x2="349.83" y2="280.43" style="stroke-width: 1.07; stroke: #0278DD;" clip-path="url(#cpNi45NzM4NXw3MTMuMDI2fDI4MC40NDV8Ni45NzM4NQ==)"/>
  <line x1="515.95" y1="92.60" x2="515.95" y2="280.43" style="stroke-width: 1.07; stroke: #E0AB00;" clip-path="url(#cpNi45NzM4NXw3MTMuMDI2fDI4MC40NDV8Ni45NzM4NQ==)"/>
  <line x1="515.57" y1="56.34" x2="515.57" y2="280.43" style="stroke-width: 1.07; stroke: #003D76;" clip-path="url(#cpNi45NzM4NXw3MTMuMDI2fDI4MC40NDV8Ni45NzM4NQ==)"/>
  <line x1="364.14" y1="128.38" x2="364.14" y2="280.43" style="stroke-width: 1.07; stroke: #E0AB00;" clip-path="url(#cpNi45NzM4NXw3MTMuMDI2fDI4MC40NDV8Ni45NzM4NQ==)"/>
  <line x1="471.12" y1="59.31" x2="471.12" y2="280.43" style="stroke-width: 1.07; stroke: #E0AB00;" clip-path="url(#cpNi45NzM4NXw3MTMuMDI2fDI4MC40NDV8Ni45NzM4NQ==)"/>
  <line x1="398.80" y1="162.41" x2="398.80" y2="280.43" style="stroke-width: 1.07; stroke: #E0AB00;" clip-path="url(#cpNi45NzM4NXw3MTMuMDI2fDI4MC40NDV8Ni45NzM4NQ==)"/>
  <line x1="600.70" y1="111.24" x2="600.70" y2="280.43" style="stroke-width: 1.07; stroke: #E0AB00;" clip-path="url(#cpNi45NzM4NXw3MTMuMDI2fDI4MC40NDV8Ni45NzM4NQ==)"/>
  <line x1="543.44" y1="70.56" x2="543.44" y2="280.43" style="stroke-width: 1.07; stroke: #FF8821;" clip-path="url(#cpNi45NzM4NXw3MTMuMDI2fDI4MC40NDV8Ni45NzM4NQ==)"/>
  <line x1="521.97" y1="143.44" x2="521.97" y2="280.42" style="stroke-width: 1.07; stroke: #0278DD;" clip-path="url(#cpNi45NzM4NXw3MTMuMDI2fDI4MC40NDV8Ni45NzM4NQ==)"/>
  <line x1="447.01" y1="98.79" x2="447.01" y2="280.42" style="stroke-width: 1.07; stroke: #E0AB00;" clip-path="url(#cpNi45NzM4NXw3MTMuMDI2fDI4MC40NDV8Ni45NzM4NQ==)"/>
  <line x1="613.13" y1="83.21" x2="613.13" y2="280.42" style="stroke-width: 1.07; stroke: #E0AB00;" clip-path="url(#cpNi45NzM4NXw3MTMuMDI2fDI4MC40NDV8Ni45NzM4NQ==)"/>
  <line x1="186.35" y1="252.07" x2="186.35" y2="280.42" style="stroke-width: 1.07; stroke: #E0AB00;" clip-path="url(#cpNi45NzM4NXw3MTMuMDI2fDI4MC40NDV8Ni45NzM4NQ==)"/>
  <line x1="355.10" y1="108.95" x2="355.10" y2="280.42" style="stroke-width: 1.07; stroke: #0278DD;" clip-path="url(#cpNi45NzM4NXw3MTMuMDI2fDI4MC40NDV8Ni45NzM4NQ==)"/>
  <line x1="373.94" y1="90.71" x2="373.94" y2="280.42" style="stroke-width: 1.07; stroke: #7FBE00;" clip-path="url(#cpNi45NzM4NXw3MTMuMDI2fDI4MC40NDV8Ni45NzM4NQ==)"/>
  <line x1="81.63" y1="252.55" x2="81.63" y2="280.42" style="stroke-width: 1.07; stroke: #0278DD;" clip-path="url(#cpNi45NzM4NXw3MTMuMDI2fDI4MC40NDV8Ni45NzM4NQ==)"/>
  <line x1="351.34" y1="46.33" x2="351.34" y2="280.42" style="stroke-width: 1.07; stroke: #FF4237;" clip-path="url(#cpNi45NzM4NXw3MTMuMDI2fDI4MC40NDV8Ni45NzM4NQ==)"/>
  <line x1="379.59" y1="25.65" x2="379.59" y2="280.42" style="stroke-width: 1.07; stroke: #0278DD;" clip-path="url(#cpNi45NzM4NXw3MTMuMDI2fDI4MC40NDV8Ni45NzM4NQ==)"/>
  <line x1="529.51" y1="25.65" x2="529.51" y2="280.42" style="stroke-width: 1.07; stroke: #0278DD;" clip-path="url(#cpNi45NzM4NXw3MTMuMDI2fDI4MC40NDV8Ni45NzM4NQ==)"/>
  <line x1="553.24" y1="25.65" x2="553.24" y2="280.42" style="stroke-width: 1.07; stroke: #FF4237;" clip-path="url(#cpNi45NzM4NXw3MTMuMDI2fDI4MC40NDV8Ni45NzM4NQ==)"/>
  <line x1="419.52" y1="78.30" x2="419.52" y2="280.42" style="stroke-width: 1.07; stroke: #0278DD;" clip-path="url(#cpNi45NzM4NXw3MTMuMDI2fDI4MC40NDV8Ni45NzM4NQ==)"/>
  <line x1="542.69" y1="25.65" x2="542.69" y2="280.42" style="stroke-width: 1.07; stroke: #0278DD;" clip-path="url(#cpNi45NzM4NXw3MTMuMDI2fDI4MC40NDV8Ni45NzM4NQ==)"/>
  <line x1="360.00" y1="68.71" x2="360.00" y2="280.42" style="stroke-width: 1.07; stroke: #3AD1D1;" clip-path="url(#cpNi45NzM4NXw3MTMuMDI2fDI4MC40NDV8Ni45NzM4NQ==)"/>
  <line x1="268.84" y1="207.28" x2="268.84" y2="280.42" style="stroke-width: 1.07; stroke: #0278DD;" clip-path="url(#cpNi45NzM4NXw3MTMuMDI2fDI4MC40NDV8Ni45NzM4NQ==)"/>
  <line x1="611.62" y1="151.74" x2="611.62" y2="280.42" style="stroke-width: 1.07; stroke: #E0AB00;" clip-path="url(#cpNi45NzM4NXw3MTMuMDI2fDI4MC40NDV8Ni45NzM4NQ==)"/>
  <line x1="603.71" y1="25.65" x2="603.71" y2="280.42" style="stroke-width: 1.07; stroke: #E0AB00;" clip-path="url(#cpNi45NzM4NXw3MTMuMDI2fDI4MC40NDV8Ni45NzM4NQ==)"/>
  <line x1="273.36" y1="185.07" x2="273.36" y2="280.42" style="stroke-width: 1.07; stroke: #0278DD;" clip-path="url(#cpNi45NzM4NXw3MTMuMDI2fDI4MC40NDV8Ni45NzM4NQ==)"/>
  <line x1="400.30" y1="142.58" x2="400.30" y2="280.42" style="stroke-width: 1.07; stroke: #0278DD;" clip-path="url(#cpNi45NzM4NXw3MTMuMDI2fDI4MC40NDV8Ni45NzM4NQ==)"/>
  <defs>
    <clipPath id="cpNi45NzM4NXw3MTMuMDI2fDI4MC40NDV8Ni45NzM4NQ==">
      <rect x="6.97" y="6.97" width="706.05" height="273.47"/>
    </clipPath>
  </defs>
  <polyline points="371.55,142.58 429.06,142.58 428.97,142.58 429.32,142.56 429.66,142.49 429.99,142.37 430.29,142.20 430.56,141.98 430.79,141.72 430.97,141.42 431.11,141.10 431.19,140.76 431.22,140.42 431.22,140.42 431.22,129.66 431.22,129.66 431.19,129.32 431.11,128.98 430.97,128.66 430.79,128.37 430.56,128.10 430.29,127.89 429.99,127.71 429.66,127.59 429.32,127.52 429.06,127.50 371.55,127.50 371.81,127.52 371.46,127.50 371.12,127.55 370.78,127.64 370.47,127.79 370.18,127.99 369.93,128.23 369.72,128.51 369.56,128.82 369.45,129.15 369.40,129.49 369.39,129.66 369.39,140.42 369.40,140.24 369.40,140.59 369.45,140.93 369.56,141.26 369.72,141.57 369.93,141.85 370.18,142.09 370.47,142.29 370.78,142.44 371.12,142.53 371.46,142.58 " style="stroke-width: 0.53; stroke: #0278DD; fill: #0278DD;" clip-path="url(#cpNi45NzM4NXw3MTMuMDI2fDI4MC40NDV8Ni45NzM4NQ==)"/>
  <g clip-path="url(#cpNi45NzM4NXw3MTMuMDI2fDI4MC40NDV8Ni45NzM4NQ==)">
    <text x="372.99" y="138.98" style="font-size: 11.04px; fill: #FFF; font-family: Arial;" textLength="54.63px" lengthAdjust="spacingAndGlyphs">WaveCrest</text>
  </g>
  <polyline points="240.30,185.07 306.43,185.07 306.34,185.07 306.69,185.05 307.03,184.99 307.36,184.86 307.66,184.69 307.93,184.47 308.16,184.21 308.34,183.91 308.48,183.59 308.56,183.26 308.59,182.91 308.59,182.91 308.59,172.16 308.59,172.16 308.56,171.81 308.48,171.47 308.34,171.15 308.16,170.86 307.93,170.60 307.66,170.38 307.36,170.20 307.03,170.08 306.69,170.01 306.43,170.00 240.30,170.00 240.56,170.01 240.21,170.00 239.86,170.04 239.53,170.14 239.22,170.29 238.93,170.48 238.68,170.72 238.47,171.00 238.31,171.31 238.20,171.64 238.14,171.98 238.14,172.16 238.14,182.91 238.14,182.74 238.14,183.08 238.20,183.43 238.31,183.76 238.47,184.07 238.68,184.34 238.93,184.58 239.22,184.78 239.53,184.93 239.86,185.03 240.21,185.07 " style="stroke-width: 0.53; stroke: #0278DD; fill: #0278DD;" clip-path="url(#cpNi45NzM4NXw3MTMuMDI2fDI4MC40NDV8Ni45NzM4NQ==)"/>
  <g clip-path="url(#cpNi45NzM4NXw3MTMuMDI2fDI4MC40NDV8Ni45NzM4NQ==)">
    <text x="241.74" y="181.47" style="font-size: 11.04px; fill: #FFF; font-family: Arial;" textLength="63.26px" lengthAdjust="spacingAndGlyphs">gpseudotime</text>
  </g>
  <polyline points="580.48,25.65 626.94,25.65 626.86,25.65 627.21,25.63 627.55,25.56 627.87,25.44 628.17,25.27 628.44,25.05 628.67,24.79 628.86,24.49 628.99,24.17 629.08,23.84 629.10,23.49 629.10,23.49 629.10,12.73 629.10,12.73 629.08,12.39 628.99,12.05 628.86,11.73 628.67,11.44 628.44,11.18 628.17,10.96 627.87,10.78 627.55,10.66 627.21,10.59 626.94,10.57 580.48,10.57 580.74,10.59 580.39,10.58 580.05,10.62 579.72,10.71 579.40,10.86 579.12,11.06 578.86,11.30 578.66,11.58 578.49,11.89 578.38,12.22 578.33,12.56 578.32,12.73 578.32,23.49 578.33,23.32 578.33,23.66 578.38,24.01 578.49,24.34 578.66,24.64 578.86,24.92 579.12,25.16 579.40,25.36 579.72,25.51 580.05,25.61 580.39,25.65 " style="stroke-width: 0.53; stroke: #E0AB00; fill: #E0AB00;" clip-path="url(#cpNi45NzM4NXw3MTMuMDI2fDI4MC40NDV8Ni45NzM4NQ==)"/>
  <g clip-path="url(#cpNi45NzM4NXw3MTMuMDI2fDI4MC40NDV8Ni45NzM4NQ==)">
    <text x="581.92" y="22.05" style="font-size: 11.04px; fill: #FFF; font-family: Arial;" textLength="43.58px" lengthAdjust="spacingAndGlyphs">MERLoT</text>
  </g>
  <polyline points="584.09,151.74 639.16,151.74 639.07,151.74 639.42,151.73 639.76,151.66 640.08,151.54 640.38,151.36 640.65,151.14 640.88,150.88 641.07,150.59 641.21,150.27 641.29,149.93 641.32,149.58 641.32,149.58 641.32,138.83 641.32,138.83 641.29,138.48 641.21,138.14 641.07,137.82 640.88,137.53 640.65,137.27 640.38,137.05 640.08,136.88 639.76,136.75 639.42,136.68 639.16,136.67 584.09,136.67 584.35,136.68 584.00,136.67 583.66,136.71 583.32,136.81 583.01,136.96 582.72,137.16 582.47,137.40 582.26,137.67 582.10,137.98 581.99,138.31 581.94,138.65 581.93,138.83 581.93,149.58 581.94,149.41 581.94,149.76 581.99,150.10 582.10,150.43 582.26,150.74 582.47,151.02 582.72,151.26 583.01,151.45 583.32,151.60 583.66,151.70 584.00,151.74 " style="stroke-width: 0.53; stroke: #E0AB00; fill: #E0AB00;" clip-path="url(#cpNi45NzM4NXw3MTMuMDI2fDI4MC40NDV8Ni45NzM4NQ==)"/>
  <g clip-path="url(#cpNi45NzM4NXw3MTMuMDI2fDI4MC40NDV8Ni45NzM4NQ==)">
    <text x="585.53" y="148.14" style="font-size: 11.04px; fill: #FFF; font-family: Arial;" textLength="52.19px" lengthAdjust="spacingAndGlyphs">CellRouter</text>
  </g>
  <polyline points="245.61,207.28 292.07,207.28 291.99,207.28 292.34,207.26 292.68,207.19 293.00,207.07 293.30,206.90 293.57,206.68 293.80,206.42 293.99,206.12 294.12,205.80 294.21,205.47 294.23,205.12 294.23,205.12 294.23,194.36 294.23,194.36 294.21,194.02 294.12,193.68 293.99,193.36 293.80,193.07 293.57,192.81 293.30,192.59 293.00,192.41 292.68,192.29 292.34,192.22 292.07,192.20 245.61,192.20 245.87,192.22 245.52,192.21 245.18,192.25 244.85,192.34 244.53,192.49 244.25,192.69 243.99,192.93 243.79,193.21 243.62,193.52 243.51,193.85 243.46,194.19 243.45,194.36 243.45,205.12 243.46,204.95 243.46,205.29 243.51,205.64 243.62,205.97 243.79,206.27 243.99,206.55 244.25,206.79 244.53,206.99 244.85,207.14 245.18,207.24 245.52,207.28 " style="stroke-width: 0.53; stroke: #0278DD; fill: #0278DD;" clip-path="url(#cpNi45NzM4NXw3MTMuMDI2fDI4MC40NDV8Ni45NzM4NQ==)"/>
  <g clip-path="url(#cpNi45NzM4NXw3MTMuMDI2fDI4MC40NDV8Ni45NzM4NQ==)">
    <text x="247.05" y="203.68" style="font-size: 11.04px; fill: #FFF; font-family: Arial;" textLength="43.58px" lengthAdjust="spacingAndGlyphs">Waterfall</text>
  </g>
  <polyline points="334.00,68.71 386.00,68.71 385.91,68.71 386.26,68.69 386.60,68.62 386.93,68.50 387.23,68.32 387.50,68.10 387.73,67.84 387.91,67.55 388.05,67.23 388.13,66.89 388.16,66.55 388.16,66.55 388.16,55.79 388.16,55.79 388.13,55.45 388.05,55.11 387.91,54.79 387.73,54.49 387.50,54.23 387.23,54.01 386.93,53.84 386.60,53.72 386.26,53.65 386.00,53.63 334.00,53.63 334.26,53.65 333.91,53.63 333.57,53.68 333.23,53.77 332.92,53.92 332.63,54.12 332.38,54.36 332.17,54.64 332.01,54.95 331.90,55.28 331.85,55.62 331.84,55.79 331.84,66.55 331.85,66.37 331.85,66.72 331.90,67.06 332.01,67.39 332.17,67.70 332.38,67.98 332.63,68.22 332.92,68.42 333.23,68.57 333.57,68.66 333.91,68.71 " style="stroke-width: 0.53; stroke: #3AD1D1; fill: #3AD1D1;" clip-path="url(#cpNi45NzM4NXw3MTMuMDI2fDI4MC40NDV8Ni45NzM4NQ==)"/>
  <g clip-path="url(#cpNi45NzM4NXw3MTMuMDI2fDI4MC40NDV8Ni45NzM4NQ==)">
    <text x="335.44" y="65.11" style="font-size: 11.04px; fill: #FFF; font-family: Arial;" textLength="49.12px" lengthAdjust="spacingAndGlyphs">Wishbone</text>
  </g>
  <polyline points="494.29,25.65 591.09,25.65 591.01,25.65 591.35,25.63 591.69,25.56 592.02,25.44 592.32,25.27 592.59,25.05 592.82,24.79 593.01,24.49 593.14,24.17 593.23,23.84 593.25,23.49 593.25,23.49 593.25,12.73 593.25,12.73 593.23,12.39 593.14,12.05 593.01,11.73 592.82,11.44 592.59,11.18 592.32,10.96 592.02,10.78 591.69,10.66 591.35,10.59 591.09,10.57 494.29,10.57 494.55,10.59 494.20,10.58 493.86,10.62 493.52,10.71 493.21,10.86 492.92,11.06 492.67,11.30 492.46,11.58 492.30,11.89 492.19,12.22 492.13,12.56 492.13,12.73 492.13,23.49 492.13,23.32 492.13,23.66 492.19,24.01 492.30,24.34 492.46,24.64 492.67,24.92 492.92,25.16 493.21,25.36 493.52,25.51 493.86,25.61 494.20,25.65 " style="stroke-width: 0.53; stroke: #0278DD; fill: #0278DD;" clip-path="url(#cpNi45NzM4NXw3MTMuMDI2fDI4MC40NDV8Ni45NzM4NQ==)"/>
  <g clip-path="url(#cpNi45NzM4NXw3MTMuMDI2fDI4MC40NDV8Ni45NzM4NQ==)">
    <text x="495.73" y="22.05" style="font-size: 11.04px; fill: #FFF; font-family: Arial;" textLength="93.93px" lengthAdjust="spacingAndGlyphs">SCORPIUS sparse</text>
  </g>
  <polyline points="389.23,78.30 449.81,78.30 449.72,78.30 450.07,78.28 450.41,78.21 450.73,78.09 451.03,77.92 451.30,77.70 451.53,77.44 451.72,77.14 451.85,76.82 451.94,76.49 451.97,76.14 451.97,76.14 451.97,65.38 451.97,65.38 451.94,65.04 451.85,64.70 451.72,64.38 451.53,64.09 451.30,63.83 451.03,63.61 450.73,63.43 450.41,63.31 450.07,63.24 449.81,63.22 389.23,63.22 389.49,63.24 389.14,63.23 388.79,63.27 388.46,63.36 388.15,63.51 387.86,63.71 387.61,63.95 387.40,64.23 387.24,64.54 387.13,64.87 387.07,65.21 387.07,65.38 387.07,76.14 387.07,75.96 387.07,76.31 387.13,76.66 387.24,76.99 387.40,77.29 387.61,77.57 387.86,77.81 388.15,78.01 388.46,78.16 388.79,78.25 389.14,78.30 " style="stroke-width: 0.53; stroke: #0278DD; fill: #0278DD;" clip-path="url(#cpNi45NzM4NXw3MTMuMDI2fDI4MC40NDV8Ni45NzM4NQ==)"/>
  <g clip-path="url(#cpNi45NzM4NXw3MTMuMDI2fDI4MC40NDV8Ni45NzM4NQ==)">
    <text x="390.67" y="74.70" style="font-size: 11.04px; fill: #FFF; font-family: Arial;" textLength="57.70px" lengthAdjust="spacingAndGlyphs">SCORPIUS</text>
  </g>
  <polyline points="503.93,25.65 602.54,25.65 602.45,25.65 602.80,25.63 603.14,25.56 603.47,25.44 603.77,25.27 604.04,25.05 604.27,24.79 604.45,24.49 604.59,24.17 604.67,23.84 604.70,23.49 604.70,23.49 604.70,12.73 604.70,12.73 604.67,12.39 604.59,12.05 604.45,11.73 604.27,11.44 604.04,11.18 603.77,10.96 603.47,10.78 603.14,10.66 602.80,10.59 602.54,10.57 503.93,10.57 504.19,10.59 503.85,10.58 503.50,10.62 503.17,10.71 502.85,10.86 502.57,11.06 502.32,11.30 502.11,11.58 501.95,11.89 501.84,12.22 501.78,12.56 501.77,12.73 501.77,23.49 501.78,23.32 501.78,23.66 501.84,24.01 501.95,24.34 502.11,24.64 502.32,24.92 502.57,25.16 502.85,25.36 503.17,25.51 503.50,25.61 503.85,25.65 " style="stroke-width: 0.53; stroke: #FF4237; fill: #FF4237;" clip-path="url(#cpNi45NzM4NXw3MTMuMDI2fDI4MC40NDV8Ni45NzM4NQ==)"/>
  <g clip-path="url(#cpNi45NzM4NXw3MTMuMDI2fDI4MC40NDV8Ni45NzM4NQ==)">
    <text x="505.37" y="22.05" style="font-size: 11.04px; fill: #FFF; font-family: Arial;" textLength="95.73px" lengthAdjust="spacingAndGlyphs">WADDINGTON-OT</text>
  </g>
  <polyline points="509.03,25.65 549.98,25.65 549.90,25.65 550.24,25.63 550.58,25.56 550.91,25.44 551.21,25.27 551.48,25.05 551.71,24.79 551.89,24.49 552.03,24.17 552.11,23.84 552.14,23.49 552.14,23.49 552.14,12.73 552.14,12.73 552.11,12.39 552.03,12.05 551.89,11.73 551.71,11.44 551.48,11.18 551.21,10.96 550.91,10.78 550.58,10.66 550.24,10.59 549.98,10.57 509.03,10.57 509.29,10.59 508.94,10.58 508.60,10.62 508.27,10.71 507.95,10.86 507.67,11.06 507.41,11.30 507.21,11.58 507.04,11.89 506.93,12.22 506.88,12.56 506.87,12.73 506.87,23.49 506.88,23.32 506.88,23.66 506.93,24.01 507.04,24.34 507.21,24.64 507.41,24.92 507.67,25.16 507.95,25.36 508.27,25.51 508.60,25.61 508.94,25.65 " style="stroke-width: 0.53; stroke: #0278DD; fill: #0278DD;" clip-path="url(#cpNi45NzM4NXw3MTMuMDI2fDI4MC40NDV8Ni45NzM4NQ==)"/>
  <g clip-path="url(#cpNi45NzM4NXw3MTMuMDI2fDI4MC40NDV8Ni45NzM4NQ==)">
    <text x="510.47" y="22.05" style="font-size: 11.04px; fill: #FFF; font-family: Arial;" textLength="38.07px" lengthAdjust="spacingAndGlyphs">SoptSC</text>
  </g>
  <polyline points="365.25,25.65 393.92,25.65 393.83,25.65 394.18,25.63 394.52,25.56 394.85,25.44 395.15,25.27 395.42,25.05 395.65,24.79 395.83,24.49 395.97,24.17 396.05,23.84 396.08,23.49 396.08,23.49 396.08,12.73 396.08,12.73 396.05,12.39 395.97,12.05 395.83,11.73 395.65,11.44 395.42,11.18 395.15,10.96 394.85,10.78 394.52,10.66 394.18,10.59 393.92,10.57 365.25,10.57 365.51,10.59 365.17,10.58 364.82,10.62 364.49,10.71 364.17,10.86 363.89,11.06 363.64,11.30 363.43,11.58 363.27,11.89 363.16,12.22 363.10,12.56 363.09,12.73 363.09,23.49 363.10,23.32 363.10,23.66 363.16,24.01 363.27,24.34 363.43,24.64 363.64,24.92 363.89,25.16 364.17,25.36 364.49,25.51 364.82,25.61 365.17,25.65 " style="stroke-width: 0.53; stroke: #0278DD; fill: #0278DD;" clip-path="url(#cpNi45NzM4NXw3MTMuMDI2fDI4MC40NDV8Ni45NzM4NQ==)"/>
  <g clip-path="url(#cpNi45NzM4NXw3MTMuMDI2fDI4MC40NDV8Ni45NzM4NQ==)">
    <text x="366.69" y="22.05" style="font-size: 11.04px; fill: #FFF; font-family: Arial;" textLength="25.79px" lengthAdjust="spacingAndGlyphs">Ouija</text>
  </g>
  <polyline points="329.94,46.33 372.73,46.33 372.64,46.33 372.99,46.32 373.33,46.25 373.65,46.13 373.96,45.95 374.22,45.73 374.46,45.47 374.64,45.18 374.78,44.86 374.86,44.52 374.89,44.17 374.89,44.17 374.89,33.42 374.89,33.42 374.86,33.07 374.78,32.74 374.64,32.42 374.46,32.12 374.22,31.86 373.96,31.64 373.65,31.47 373.33,31.35 372.99,31.28 372.73,31.26 329.94,31.26 330.20,31.28 329.86,31.26 329.51,31.30 329.18,31.40 328.86,31.55 328.58,31.75 328.33,31.99 328.12,32.27 327.96,32.57 327.85,32.90 327.79,33.25 327.78,33.42 327.78,44.17 327.79,44.00 327.79,44.35 327.85,44.69 327.96,45.02 328.12,45.33 328.33,45.61 328.58,45.85 328.86,46.05 329.18,46.19 329.51,46.29 329.86,46.33 " style="stroke-width: 0.53; stroke: #FF4237; fill: #FF4237;" clip-path="url(#cpNi45NzM4NXw3MTMuMDI2fDI4MC40NDV8Ni45NzM4NQ==)"/>
  <g clip-path="url(#cpNi45NzM4NXw3MTMuMDI2fDI4MC40NDV8Ni45NzM4NQ==)">
    <text x="331.38" y="42.73" style="font-size: 11.04px; fill: #FFF; font-family: Arial;" textLength="39.90px" lengthAdjust="spacingAndGlyphs">SLICER</text>
  </g>
  <polyline points="52.26,252.55 111.01,252.55 110.92,252.55 111.27,252.53 111.61,252.46 111.93,252.34 112.23,252.17 112.50,251.95 112.73,251.69 112.92,251.39 113.06,251.07 113.14,250.73 113.17,250.39 113.17,250.39 113.17,239.63 113.17,239.63 113.14,239.29 113.06,238.95 112.92,238.63 112.73,238.34 112.50,238.08 112.23,237.86 111.93,237.68 111.61,237.56 111.27,237.49 111.01,237.47 52.26,237.47 52.52,237.49 52.17,237.47 51.82,237.52 51.49,237.61 51.18,237.76 50.89,237.96 50.64,238.20 50.43,238.48 50.27,238.79 50.16,239.12 50.10,239.46 50.10,239.63 50.10,250.39 50.10,250.21 50.10,250.56 50.16,250.91 50.27,251.23 50.43,251.54 50.64,251.82 50.89,252.06 51.18,252.26 51.49,252.41 51.82,252.50 52.17,252.55 " style="stroke-width: 0.53; stroke: #0278DD; fill: #0278DD;" clip-path="url(#cpNi45NzM4NXw3MTMuMDI2fDI4MC40NDV8Ni45NzM4NQ==)"/>
  <g clip-path="url(#cpNi45NzM4NXw3MTMuMDI2fDI4MC40NDV8Ni45NzM4NQ==)">
    <text x="53.70" y="248.95" style="font-size: 11.04px; fill: #FFF; font-family: Arial;" textLength="55.87px" lengthAdjust="spacingAndGlyphs">Wanderlust</text>
  </g>
  <polyline points="352.86,90.71 395.02,90.71 394.93,90.71 395.28,90.69 395.62,90.62 395.95,90.50 396.25,90.33 396.52,90.11 396.75,89.85 396.93,89.55 397.07,89.23 397.15,88.89 397.18,88.55 397.18,88.55 397.18,77.79 397.18,77.79 397.15,77.45 397.07,77.11 396.93,76.79 396.75,76.49 396.52,76.23 396.25,76.01 395.95,75.84 395.62,75.72 395.28,75.65 395.02,75.63 352.86,75.63 353.12,75.65 352.77,75.63 352.42,75.68 352.09,75.77 351.78,75.92 351.49,76.12 351.24,76.36 351.03,76.64 350.87,76.95 350.76,77.28 350.70,77.62 350.70,77.79 350.70,88.55 350.70,88.37 350.70,88.72 350.76,89.06 350.87,89.39 351.03,89.70 351.24,89.98 351.49,90.22 351.78,90.42 352.09,90.57 352.42,90.66 352.77,90.71 " style="stroke-width: 0.53; stroke: #7FBE00; fill: #7FBE00;" clip-path="url(#cpNi45NzM4NXw3MTMuMDI2fDI4MC40NDV8Ni45NzM4NQ==)"/>
  <g clip-path="url(#cpNi45NzM4NXw3MTMuMDI2fDI4MC40NDV8Ni45NzM4NQ==)">
    <text x="354.30" y="87.11" style="font-size: 11.04px; fill: #FFF; font-family: Arial;" textLength="39.28px" lengthAdjust="spacingAndGlyphs">SCOUP</text>
  </g>
  <polyline points="340.46,108.95 369.74,108.95 369.66,108.95 370.00,108.94 370.34,108.87 370.67,108.74 370.97,108.57 371.24,108.35 371.47,108.09 371.65,107.79 371.79,107.47 371.87,107.14 371.90,106.79 371.90,106.79 371.90,96.04 371.90,96.04 371.87,95.69 371.79,95.35 371.65,95.03 371.47,94.74 371.24,94.48 370.97,94.26 370.67,94.08 370.34,93.96 370.00,93.89 369.74,93.88 340.46,93.88 340.72,93.89 340.38,93.88 340.03,93.92 339.70,94.02 339.38,94.17 339.10,94.36 338.85,94.60 338.64,94.88 338.48,95.19 338.37,95.52 338.31,95.86 338.30,96.04 338.30,106.79 338.31,106.62 338.31,106.96 338.37,107.31 338.48,107.64 338.64,107.95 338.85,108.22 339.10,108.46 339.38,108.66 339.70,108.81 340.03,108.91 340.38,108.95 " style="stroke-width: 0.53; stroke: #0278DD; fill: #0278DD;" clip-path="url(#cpNi45NzM4NXw3MTMuMDI2fDI4MC40NDV8Ni45NzM4NQ==)"/>
  <g clip-path="url(#cpNi45NzM4NXw3MTMuMDI2fDI4MC40NDV8Ni45NzM4NQ==)">
    <text x="341.90" y="105.35" style="font-size: 11.04px; fill: #FFF; font-family: Arial;" textLength="26.40px" lengthAdjust="spacingAndGlyphs">SCell</text>
  </g>
  <polyline points="168.64,252.07 204.06,252.07 203.97,252.07 204.32,252.05 204.66,251.99 204.99,251.86 205.29,251.69 205.56,251.47 205.79,251.21 205.97,250.91 206.11,250.59 206.19,250.26 206.22,249.91 206.22,249.91 206.22,239.16 206.22,239.16 206.19,238.81 206.11,238.47 205.97,238.15 205.79,237.86 205.56,237.60 205.29,237.38 204.99,237.20 204.66,237.08 204.32,237.01 204.06,237.00 168.64,237.00 168.90,237.01 168.55,237.00 168.21,237.04 167.87,237.14 167.56,237.28 167.27,237.48 167.02,237.72 166.81,238.00 166.65,238.31 166.54,238.64 166.49,238.98 166.48,239.16 166.48,249.91 166.49,249.74 166.49,250.08 166.54,250.43 166.65,250.76 166.81,251.06 167.02,251.34 167.27,251.58 167.56,251.78 167.87,251.93 168.21,252.03 168.55,252.07 " style="stroke-width: 0.53; stroke: #E0AB00; fill: #E0AB00;" clip-path="url(#cpNi45NzM4NXw3MTMuMDI2fDI4MC40NDV8Ni45NzM4NQ==)"/>
  <g clip-path="url(#cpNi45NzM4NXw3MTMuMDI2fDI4MC40NDV8Ni45NzM4NQ==)">
    <text x="170.08" y="248.47" style="font-size: 11.04px; fill: #FFF; font-family: Arial;" textLength="32.54px" lengthAdjust="spacingAndGlyphs">Sincell</text>
  </g>
  <polyline points="581.91,83.21 644.35,83.21 644.26,83.21 644.61,83.20 644.95,83.13 645.28,83.00 645.58,82.83 645.85,82.61 646.08,82.35 646.26,82.06 646.40,81.74 646.48,81.40 646.51,81.05 646.51,81.05 646.51,70.30 646.51,70.30 646.48,69.95 646.40,69.61 646.26,69.29 646.08,69.00 645.85,68.74 645.58,68.52 645.28,68.35 644.95,68.22 644.61,68.15 644.35,68.14 581.91,68.14 582.17,68.15 581.82,68.14 581.48,68.18 581.14,68.28 580.83,68.43 580.54,68.62 580.29,68.87 580.08,69.14 579.92,69.45 579.81,69.78 579.76,70.12 579.75,70.30 579.75,81.05 579.76,80.88 579.76,81.23 579.81,81.57 579.92,81.90 580.08,82.21 580.29,82.49 580.54,82.73 580.83,82.92 581.14,83.07 581.48,83.17 581.82,83.21 " style="stroke-width: 0.53; stroke: #E0AB00; fill: #E0AB00;" clip-path="url(#cpNi45NzM4NXw3MTMuMDI2fDI4MC40NDV8Ni45NzM4NQ==)"/>
  <g clip-path="url(#cpNi45NzM4NXw3MTMuMDI2fDI4MC40NDV8Ni45NzM4NQ==)">
    <text x="583.35" y="79.61" style="font-size: 11.04px; fill: #FFF; font-family: Arial;" textLength="59.56px" lengthAdjust="spacingAndGlyphs">DensityPath</text>
  </g>
  <polyline points="429.61,98.79 464.42,98.79 464.33,98.79 464.68,98.78 465.02,98.71 465.34,98.59 465.64,98.41 465.91,98.19 466.14,97.93 466.33,97.64 466.47,97.32 466.55,96.98 466.58,96.63 466.58,96.63 466.58,85.88 466.58,85.88 466.55,85.53 466.47,85.20 466.33,84.88 466.14,84.58 465.91,84.32 465.64,84.10 465.34,83.93 465.02,83.80 464.68,83.74 464.42,83.72 429.61,83.72 429.87,83.74 429.52,83.72 429.18,83.76 428.84,83.86 428.53,84.01 428.24,84.21 427.99,84.45 427.78,84.72 427.62,85.03 427.51,85.36 427.46,85.71 427.45,85.88 427.45,96.63 427.46,96.46 427.46,96.81 427.51,97.15 427.62,97.48 427.78,97.79 427.99,98.07 428.24,98.31 428.53,98.51 428.84,98.65 429.18,98.75 429.52,98.79 " style="stroke-width: 0.53; stroke: #E0AB00; fill: #E0AB00;" clip-path="url(#cpNi45NzM4NXw3MTMuMDI2fDI4MC40NDV8Ni45NzM4NQ==)"/>
  <g clip-path="url(#cpNi45NzM4NXw3MTMuMDI2fDI4MC40NDV8Ni45NzM4NQ==)">
    <text x="431.05" y="95.19" style="font-size: 11.04px; fill: #FFF; font-family: Arial;" textLength="31.93px" lengthAdjust="spacingAndGlyphs">SLICE</text>
  </g>
  <polyline points="493.20,143.44 550.75,143.44 550.66,143.44 551.01,143.42 551.35,143.35 551.67,143.23 551.97,143.06 552.24,142.84 552.47,142.58 552.66,142.28 552.80,141.96 552.88,141.63 552.91,141.28 552.91,141.28 552.91,130.52 552.91,130.52 552.88,130.18 552.80,129.84 552.66,129.52 552.47,129.23 552.24,128.97 551.97,128.75 551.67,128.57 551.35,128.45 551.01,128.38 550.75,128.36 493.20,128.36 493.46,128.38 493.11,128.37 492.77,128.41 492.43,128.50 492.12,128.65 491.83,128.85 491.58,129.09 491.37,129.37 491.21,129.68 491.10,130.01 491.05,130.35 491.04,130.52 491.04,141.28 491.05,141.11 491.05,141.45 491.10,141.80 491.21,142.13 491.37,142.43 491.58,142.71 491.83,142.95 492.12,143.15 492.43,143.30 492.77,143.40 493.11,143.44 " style="stroke-width: 0.53; stroke: #0278DD; fill: #0278DD;" clip-path="url(#cpNi45NzM4NXw3MTMuMDI2fDI4MC40NDV8Ni45NzM4NQ==)"/>
  <g clip-path="url(#cpNi45NzM4NXw3MTMuMDI2fDI4MC40NDV8Ni45NzM4NQ==)">
    <text x="494.64" y="139.84" style="font-size: 11.04px; fill: #FFF; font-family: Arial;" textLength="54.67px" lengthAdjust="spacingAndGlyphs">PhenoPath</text>
  </g>
  <polyline points="521.75,70.56 565.14,70.56 565.05,70.56 565.40,70.54 565.74,70.47 566.06,70.35 566.37,70.18 566.63,69.96 566.87,69.70 567.05,69.40 567.19,69.08 567.27,68.75 567.30,68.40 567.30,68.40 567.30,57.64 567.30,57.64 567.27,57.30 567.19,56.96 567.05,56.64 566.87,56.35 566.63,56.09 566.37,55.87 566.06,55.69 565.74,55.57 565.40,55.50 565.14,55.48 521.75,55.48 522.01,55.50 521.66,55.49 521.32,55.53 520.98,55.62 520.67,55.77 520.38,55.97 520.13,56.21 519.92,56.49 519.76,56.80 519.65,57.13 519.60,57.47 519.59,57.64 519.59,68.40 519.60,68.23 519.60,68.57 519.65,68.92 519.76,69.25 519.92,69.55 520.13,69.83 520.38,70.07 520.67,70.27 520.98,70.42 521.32,70.52 521.66,70.56 " style="stroke-width: 0.53; stroke: #FF8821; fill: #FF8821;" clip-path="url(#cpNi45NzM4NXw3MTMuMDI2fDI4MC40NDV8Ni45NzM4NQ==)"/>
  <g clip-path="url(#cpNi45NzM4NXw3MTMuMDI2fDI4MC40NDV8Ni45NzM4NQ==)">
    <text x="523.19" y="66.96" style="font-size: 11.04px; fill: #FFF; font-family: Arial;" textLength="40.51px" lengthAdjust="spacingAndGlyphs">B-RGPs</text>
  </g>
  <polyline points="576.24,111.24 625.16,111.24 625.07,111.24 625.42,111.23 625.76,111.16 626.09,111.03 626.39,110.86 626.66,110.64 626.89,110.38 627.07,110.09 627.21,109.77 627.29,109.43 627.32,109.08 627.32,109.08 627.32,98.33 627.32,98.33 627.29,97.98 627.21,97.64 627.07,97.32 626.89,97.03 626.66,96.77 626.39,96.55 626.09,96.38 625.76,96.25 625.42,96.18 625.16,96.17 576.24,96.17 576.50,96.18 576.15,96.17 575.81,96.21 575.47,96.31 575.16,96.46 574.87,96.65 574.62,96.89 574.41,97.17 574.25,97.48 574.14,97.81 574.09,98.15 574.08,98.33 574.08,109.08 574.09,108.91 574.09,109.26 574.14,109.60 574.25,109.93 574.41,110.24 574.62,110.51 574.87,110.76 575.16,110.95 575.47,111.10 575.81,111.20 576.15,111.24 " style="stroke-width: 0.53; stroke: #E0AB00; fill: #E0AB00;" clip-path="url(#cpNi45NzM4NXw3MTMuMDI2fDI4MC40NDV8Ni45NzM4NQ==)"/>
  <g clip-path="url(#cpNi45NzM4NXw3MTMuMDI2fDI4MC40NDV8Ni45NzM4NQ==)">
    <text x="577.68" y="107.64" style="font-size: 11.04px; fill: #FFF; font-family: Arial;" textLength="46.04px" lengthAdjust="spacingAndGlyphs">CALISTA</text>
  </g>
  <polyline points="377.71,162.41 419.88,162.41 419.80,162.41 420.14,162.40 420.48,162.33 420.81,162.20 421.11,162.03 421.38,161.81 421.61,161.55 421.80,161.26 421.93,160.94 422.02,160.60 422.04,160.25 422.04,160.25 422.04,149.50 422.04,149.50 422.02,149.15 421.93,148.81 421.80,148.49 421.61,148.20 421.38,147.94 421.11,147.72 420.81,147.55 420.48,147.42 420.14,147.35 419.88,147.34 377.71,147.34 377.97,147.35 377.63,147.34 377.28,147.38 376.95,147.48 376.63,147.63 376.35,147.82 376.10,148.06 375.89,148.34 375.73,148.65 375.62,148.98 375.56,149.32 375.55,149.50 375.55,160.25 375.56,160.08 375.56,160.43 375.62,160.77 375.73,161.10 375.89,161.41 376.10,161.68 376.35,161.92 376.63,162.12 376.95,162.27 377.28,162.37 377.63,162.41 " style="stroke-width: 0.53; stroke: #E0AB00; fill: #E0AB00;" clip-path="url(#cpNi45NzM4NXw3MTMuMDI2fDI4MC40NDV8Ni45NzM4NQ==)"/>
  <g clip-path="url(#cpNi45NzM4NXw3MTMuMDI2fDI4MC40NDV8Ni45NzM4NQ==)">
    <text x="379.15" y="158.81" style="font-size: 11.04px; fill: #FFF; font-family: Arial;" textLength="39.29px" lengthAdjust="spacingAndGlyphs">cellTree</text>
  </g>
  <polyline points="423.95,59.31 518.30,59.31 518.21,59.31 518.56,59.30 518.90,59.23 519.22,59.10 519.52,58.93 519.79,58.71 520.02,58.45 520.21,58.15 520.35,57.84 520.43,57.50 520.46,57.15 520.46,57.15 520.46,46.40 520.46,46.40 520.43,46.05 520.35,45.71 520.21,45.39 520.02,45.10 519.79,44.84 519.52,44.62 519.22,44.44 518.90,44.32 518.56,44.25 518.30,44.24 423.95,44.24 424.21,44.25 423.86,44.24 423.51,44.28 423.18,44.38 422.87,44.53 422.58,44.72 422.33,44.96 422.12,45.24 421.96,45.55 421.85,45.88 421.79,46.22 421.79,46.40 421.79,57.15 421.79,56.98 421.79,57.32 421.85,57.67 421.96,58.00 422.12,58.31 422.33,58.58 422.58,58.82 422.87,59.02 423.18,59.17 423.51,59.27 423.86,59.31 " style="stroke-width: 0.53; stroke: #E0AB00; fill: #E0AB00;" clip-path="url(#cpNi45NzM4NXw3MTMuMDI2fDI4MC40NDV8Ni45NzM4NQ==)"/>
  <g clip-path="url(#cpNi45NzM4NXw3MTMuMDI2fDI4MC40NDV8Ni45NzM4NQ==)">
    <text x="425.39" y="55.71" style="font-size: 11.04px; fill: #FFF; font-family: Arial;" textLength="91.47px" lengthAdjust="spacingAndGlyphs">Monocle DDRTree</text>
  </g>
  <polyline points="343.98,128.38 384.30,128.38 384.22,128.38 384.56,128.36 384.90,128.29 385.23,128.17 385.53,128.00 385.80,127.78 386.03,127.52 386.22,127.22 386.35,126.90 386.44,126.57 386.46,126.22 386.46,126.22 386.46,115.46 386.46,115.46 386.44,115.12 386.35,114.78 386.22,114.46 386.03,114.17 385.80,113.91 385.53,113.69 385.23,113.51 384.90,113.39 384.56,113.32 384.30,113.30 343.98,113.30 344.24,113.32 343.90,113.31 343.55,113.35 343.22,113.44 342.90,113.59 342.62,113.79 342.37,114.03 342.16,114.31 342.00,114.62 341.89,114.95 341.83,115.29 341.82,115.46 341.82,126.22 341.83,126.05 341.83,126.39 341.89,126.74 342.00,127.07 342.16,127.37 342.37,127.65 342.62,127.89 342.90,128.09 343.22,128.24 343.55,128.34 343.90,128.38 " style="stroke-width: 0.53; stroke: #E0AB00; fill: #E0AB00;" clip-path="url(#cpNi45NzM4NXw3MTMuMDI2fDI4MC40NDV8Ni45NzM4NQ==)"/>
  <g clip-path="url(#cpNi45NzM4NXw3MTMuMDI2fDI4MC40NDV8Ni45NzM4NQ==)">
    <text x="345.42" y="124.78" style="font-size: 11.04px; fill: #FFF; font-family: Arial;" textLength="37.44px" lengthAdjust="spacingAndGlyphs">TSCAN</text>
  </g>
  <polyline points="498.17,56.34 532.97,56.34 532.88,56.34 533.23,56.33 533.57,56.26 533.89,56.13 534.19,55.96 534.46,55.74 534.69,55.48 534.88,55.19 535.02,54.87 535.10,54.53 535.13,54.18 535.13,54.18 535.13,43.43 535.13,43.43 535.10,43.08 535.02,42.74 534.88,42.42 534.69,42.13 534.46,41.87 534.19,41.65 533.89,41.48 533.57,41.35 533.23,41.28 532.97,41.27 498.17,41.27 498.43,41.28 498.08,41.27 497.74,41.31 497.41,41.41 497.09,41.56 496.81,41.75 496.55,42.00 496.35,42.27 496.18,42.58 496.07,42.91 496.02,43.25 496.01,43.43 496.01,54.18 496.02,54.01 496.02,54.36 496.07,54.70 496.18,55.03 496.35,55.34 496.55,55.62 496.81,55.86 497.09,56.05 497.41,56.20 497.74,56.30 498.08,56.34 " style="stroke-width: 0.53; stroke: #003D76; fill: #003D76;" clip-path="url(#cpNi45NzM4NXw3MTMuMDI2fDI4MC40NDV8Ni45NzM4NQ==)"/>
  <g clip-path="url(#cpNi45NzM4NXw3MTMuMDI2fDI4MC40NDV8Ni45NzM4NQ==)">
    <text x="499.61" y="52.74" style="font-size: 11.04px; fill: #FFF; font-family: Arial;" textLength="31.92px" lengthAdjust="spacingAndGlyphs">reCAT</text>
  </g>
  <polyline points="495.48,92.60 536.41,92.60 536.33,92.59 536.67,92.58 537.01,92.51 537.34,92.39 537.64,92.21 537.91,91.99 538.14,91.73 538.33,91.44 538.46,91.12 538.55,90.78 538.57,90.44 538.57,90.44 538.57,79.68 538.57,79.68 538.55,79.33 538.46,79.00 538.33,78.68 538.14,78.38 537.91,78.12 537.64,77.90 537.34,77.73 537.01,77.61 536.67,77.54 536.41,77.52 495.48,77.52 495.74,77.54 495.39,77.52 495.05,77.56 494.71,77.66 494.40,77.81 494.11,78.01 493.86,78.25 493.65,78.53 493.49,78.83 493.38,79.16 493.33,79.51 493.32,79.68 493.32,90.44 493.33,90.26 493.33,90.61 493.38,90.95 493.49,91.28 493.65,91.59 493.86,91.87 494.11,92.11 494.40,92.31 494.71,92.45 495.05,92.55 495.39,92.59 " style="stroke-width: 0.53; stroke: #E0AB00; fill: #E0AB00;" clip-path="url(#cpNi45NzM4NXw3MTMuMDI2fDI4MC40NDV8Ni45NzM4NQ==)"/>
  <g clip-path="url(#cpNi45NzM4NXw3MTMuMDI2fDI4MC40NDV8Ni45NzM4NQ==)">
    <text x="496.92" y="89.00" style="font-size: 11.04px; fill: #FFF; font-family: Arial;" textLength="38.05px" lengthAdjust="spacingAndGlyphs">FORKS</text>
  </g>
  <polyline points="323.51,261.27 376.15,261.27 376.06,261.27 376.41,261.25 376.75,261.18 377.07,261.06 377.37,260.89 377.64,260.67 377.87,260.41 378.06,260.11 378.20,259.79 378.28,259.46 378.31,259.11 378.31,259.11 378.31,248.35 378.31,248.35 378.28,248.01 378.20,247.67 378.06,247.35 377.87,247.06 377.64,246.80 377.37,246.58 377.07,246.40 376.75,246.28 376.41,246.21 376.15,246.19 323.51,246.19 323.77,246.21 323.43,246.20 323.08,246.24 322.75,246.33 322.43,246.48 322.15,246.68 321.90,246.92 321.69,247.20 321.53,247.51 321.42,247.84 321.36,248.18 321.35,248.35 321.35,259.11 321.36,258.94 321.36,259.28 321.42,259.63 321.53,259.96 321.69,260.26 321.90,260.54 322.15,260.78 322.43,260.98 322.75,261.13 323.08,261.23 323.43,261.27 " style="stroke-width: 0.53; stroke: #0278DD; fill: #0278DD;" clip-path="url(#cpNi45NzM4NXw3MTMuMDI2fDI4MC40NDV8Ni45NzM4NQ==)"/>
  <g clip-path="url(#cpNi45NzM4NXw3MTMuMDI2fDI4MC40NDV8Ni45NzM4NQ==)">
    <text x="324.95" y="257.67" style="font-size: 11.04px; fill: #FFF; font-family: Arial;" textLength="49.75px" lengthAdjust="spacingAndGlyphs">Pseudogp</text>
  </g>
  <polyline points="518.52,111.81 543.51,111.81 543.42,111.80 543.77,111.79 544.11,111.72 544.43,111.60 544.73,111.42 545.00,111.20 545.23,110.94 545.42,110.65 545.55,110.33 545.64,109.99 545.67,109.65 545.67,109.65 545.67,98.89 545.67,98.89 545.64,98.54 545.55,98.21 545.42,97.89 545.23,97.59 545.00,97.33 544.73,97.11 544.43,96.94 544.11,96.82 543.77,96.75 543.51,96.73 518.52,96.73 518.78,96.75 518.43,96.73 518.09,96.77 517.76,96.87 517.44,97.02 517.16,97.22 516.90,97.46 516.70,97.74 516.53,98.04 516.42,98.37 516.37,98.72 516.36,98.89 516.36,109.65 516.37,109.47 516.37,109.82 516.42,110.16 516.53,110.49 516.70,110.80 516.90,111.08 517.16,111.32 517.44,111.52 517.76,111.66 518.09,111.76 518.43,111.80 " style="stroke-width: 0.53; stroke: #7FBE00; fill: #7FBE00;" clip-path="url(#cpNi45NzM4NXw3MTMuMDI2fDI4MC40NDV8Ni45NzM4NQ==)"/>
  <g clip-path="url(#cpNi45NzM4NXw3MTMuMDI2fDI4MC40NDV8Ni45NzM4NQ==)">
    <text x="519.96" y="108.21" style="font-size: 11.04px; fill: #FFF; font-family: Arial;" textLength="22.10px" lengthAdjust="spacingAndGlyphs">PBA</text>
  </g>
  <polyline points="547.23,25.65 596.16,25.65 596.08,25.65 596.42,25.63 596.76,25.56 597.09,25.44 597.39,25.27 597.66,25.05 597.89,24.79 598.07,24.49 598.21,24.17 598.29,23.84 598.32,23.49 598.32,23.49 598.32,12.73 598.32,12.73 598.29,12.39 598.21,12.05 598.07,11.73 597.89,11.44 597.66,11.18 597.39,10.96 597.09,10.78 596.76,10.66 596.42,10.59 596.16,10.57 547.23,10.57 547.49,10.59 547.14,10.58 546.80,10.62 546.46,10.71 546.15,10.86 545.86,11.06 545.61,11.30 545.40,11.58 545.24,11.89 545.13,12.22 545.08,12.56 545.07,12.73 545.07,23.49 545.08,23.32 545.08,23.66 545.13,24.01 545.24,24.34 545.40,24.64 545.61,24.92 545.86,25.16 546.15,25.36 546.46,25.51 546.80,25.61 547.14,25.65 " style="stroke-width: 0.53; stroke: #E0AB00; fill: #E0AB00;" clip-path="url(#cpNi45NzM4NXw3MTMuMDI2fDI4MC40NDV8Ni45NzM4NQ==)"/>
  <g clip-path="url(#cpNi45NzM4NXw3MTMuMDI2fDI4MC40NDV8Ni45NzM4NQ==)">
    <text x="548.67" y="22.05" style="font-size: 11.04px; fill: #FFF; font-family: Arial;" textLength="46.05px" lengthAdjust="spacingAndGlyphs">p-Creode</text>
  </g>
  <polyline points="453.49,25.65 496.28,25.65 496.20,25.65 496.54,25.63 496.88,25.56 497.21,25.44 497.51,25.27 497.78,25.05 498.01,24.79 498.20,24.49 498.33,24.17 498.42,23.84 498.44,23.49 498.44,23.49 498.44,12.73 498.44,12.73 498.42,12.39 498.33,12.05 498.20,11.73 498.01,11.44 497.78,11.18 497.51,10.96 497.21,10.78 496.88,10.66 496.54,10.59 496.28,10.57 453.49,10.57 453.75,10.59 453.41,10.58 453.06,10.62 452.73,10.71 452.41,10.86 452.13,11.06 451.88,11.30 451.67,11.58 451.51,11.89 451.40,12.22 451.34,12.56 451.33,12.73 451.33,23.49 451.34,23.32 451.34,23.66 451.40,24.01 451.51,24.34 451.67,24.64 451.88,24.92 452.13,25.16 452.41,25.36 452.73,25.51 453.06,25.61 453.41,25.65 " style="stroke-width: 0.53; stroke: #7FBE00; fill: #7FBE00;" clip-path="url(#cpNi45NzM4NXw3MTMuMDI2fDI4MC40NDV8Ni45NzM4NQ==)"/>
  <g clip-path="url(#cpNi45NzM4NXw3MTMuMDI2fDI4MC40NDV8Ni45NzM4NQ==)">
    <text x="454.93" y="22.05" style="font-size: 11.04px; fill: #FFF; font-family: Arial;" textLength="39.91px" lengthAdjust="spacingAndGlyphs">GPfates</text>
  </g>
  <polyline points="416.74,239.19 474.27,239.19 474.18,239.19 474.53,239.18 474.87,239.11 475.20,238.98 475.50,238.81 475.77,238.59 476.00,238.33 476.18,238.04 476.32,237.72 476.40,237.38 476.43,237.03 476.43,237.03 476.43,226.28 476.43,226.28 476.40,225.93 476.32,225.59 476.18,225.27 476.00,224.98 475.77,224.72 475.50,224.50 475.20,224.33 474.87,224.20 474.53,224.13 474.27,224.12 416.74,224.12 417.00,224.13 416.66,224.12 416.31,224.16 415.98,224.26 415.66,224.41 415.38,224.60 415.13,224.85 414.92,225.12 414.76,225.43 414.65,225.76 414.59,226.10 414.58,226.28 414.58,237.03 414.59,236.86 414.59,237.21 414.65,237.55 414.76,237.88 414.92,238.19 415.13,238.47 415.38,238.71 415.66,238.90 415.98,239.05 416.31,239.15 416.66,239.19 " style="stroke-width: 0.53; stroke: #E0AB00; fill: #E0AB00;" clip-path="url(#cpNi45NzM4NXw3MTMuMDI2fDI4MC40NDV8Ni45NzM4NQ==)"/>
  <g clip-path="url(#cpNi45NzM4NXw3MTMuMDI2fDI4MC40NDV8Ni45NzM4NQ==)">
    <text x="418.18" y="235.59" style="font-size: 11.04px; fill: #FFF; font-family: Arial;" textLength="54.65px" lengthAdjust="spacingAndGlyphs">k-branches</text>
  </g>
  <polyline points="518.66,158.38 544.87,158.38 544.78,158.38 545.13,158.36 545.47,158.29 545.80,158.17 546.10,158.00 546.37,157.78 546.60,157.52 546.78,157.22 546.92,156.90 547.00,156.57 547.03,156.22 547.03,156.22 547.03,145.46 547.03,145.46 547.00,145.12 546.92,144.78 546.78,144.46 546.60,144.17 546.37,143.91 546.10,143.69 545.80,143.51 545.47,143.39 545.13,143.32 544.87,143.30 518.66,143.30 518.92,143.32 518.58,143.31 518.23,143.35 517.90,143.44 517.58,143.59 517.30,143.79 517.05,144.03 516.84,144.31 516.68,144.62 516.57,144.95 516.51,145.29 516.50,145.46 516.50,156.22 516.51,156.04 516.51,156.39 516.57,156.74 516.68,157.07 516.84,157.37 517.05,157.65 517.30,157.89 517.58,158.09 517.90,158.24 518.23,158.34 518.58,158.38 " style="stroke-width: 0.53; stroke: #3AD1D1; fill: #3AD1D1;" clip-path="url(#cpNi45NzM4NXw3MTMuMDI2fDI4MC40NDV8Ni45NzM4NQ==)"/>
  <g clip-path="url(#cpNi45NzM4NXw3MTMuMDI2fDI4MC40NDV8Ni45NzM4NQ==)">
    <text x="520.10" y="154.78" style="font-size: 11.04px; fill: #FFF; font-family: Arial;" textLength="23.33px" lengthAdjust="spacingAndGlyphs">BGP</text>
  </g>
  <polyline points="315.87,238.00 340.85,238.00 340.76,238.00 341.11,237.98 341.45,237.92 341.77,237.79 342.07,237.62 342.34,237.40 342.57,237.14 342.76,236.84 342.89,236.52 342.98,236.19 343.01,235.84 343.01,235.84 343.01,225.09 343.01,225.09 342.98,224.74 342.89,224.40 342.76,224.08 342.57,223.79 342.34,223.53 342.07,223.31 341.77,223.13 341.45,223.01 341.11,222.94 340.85,222.93 315.87,222.93 316.13,222.94 315.78,222.93 315.44,222.97 315.11,223.07 314.79,223.22 314.51,223.41 314.26,223.65 314.05,223.93 313.88,224.24 313.77,224.57 313.72,224.91 313.71,225.09 313.71,235.84 313.72,235.67 313.72,236.01 313.77,236.36 313.88,236.69 314.05,237.00 314.26,237.27 314.51,237.51 314.79,237.71 315.11,237.86 315.44,237.96 315.78,238.00 " style="stroke-width: 0.53; stroke: #3AD1D1; fill: #3AD1D1;" clip-path="url(#cpNi45NzM4NXw3MTMuMDI2fDI4MC40NDV8Ni45NzM4NQ==)"/>
  <g clip-path="url(#cpNi45NzM4NXw3MTMuMDI2fDI4MC40NDV8Ni45NzM4NQ==)">
    <text x="317.31" y="234.40" style="font-size: 11.04px; fill: #FFF; font-family: Arial;" textLength="22.09px" lengthAdjust="spacingAndGlyphs">DPT</text>
  </g>
  <polyline points="39.91,275.94 106.03,275.94 105.94,275.94 106.29,275.93 106.63,275.86 106.95,275.74 107.26,275.56 107.52,275.34 107.75,275.08 107.94,274.79 108.08,274.47 108.16,274.13 108.19,273.78 108.19,273.78 108.19,263.03 108.19,263.03 108.16,262.68 108.08,262.35 107.94,262.03 107.75,261.73 107.52,261.47 107.26,261.25 106.95,261.08 106.63,260.95 106.29,260.89 106.03,260.87 39.91,260.87 40.17,260.89 39.82,260.87 39.48,260.91 39.14,261.01 38.83,261.16 38.54,261.36 38.29,261.60 38.08,261.87 37.92,262.18 37.81,262.51 37.76,262.86 37.75,263.03 37.75,273.78 37.76,273.61 37.76,273.96 37.81,274.30 37.92,274.63 38.08,274.94 38.29,275.22 38.54,275.46 38.83,275.65 39.14,275.80 39.48,275.90 39.82,275.94 " style="stroke-width: 0.53; stroke: #E0AB00; fill: #E0AB00;" clip-path="url(#cpNi45NzM4NXw3MTMuMDI2fDI4MC40NDV8Ni45NzM4NQ==)"/>
  <g clip-path="url(#cpNi45NzM4NXw3MTMuMDI2fDI4MC40NDV8Ni45NzM4NQ==)">
    <text x="41.35" y="272.34" style="font-size: 11.04px; fill: #FFF; font-family: Arial;" textLength="63.24px" lengthAdjust="spacingAndGlyphs">Monocle ICA</text>
  </g>
  <polyline points="551.43,130.49 577.64,130.49 577.56,130.49 577.90,130.48 578.24,130.41 578.57,130.28 578.87,130.11 579.14,129.89 579.37,129.63 579.56,129.34 579.69,129.02 579.77,128.68 579.80,128.33 579.80,128.33 579.80,117.58 579.80,117.58 579.77,117.23 579.69,116.89 579.56,116.57 579.37,116.28 579.14,116.02 578.87,115.80 578.57,115.63 578.24,115.50 577.90,115.43 577.64,115.42 551.43,115.42 551.69,115.43 551.35,115.42 551.00,115.46 550.67,115.56 550.35,115.71 550.07,115.91 549.82,116.15 549.61,116.42 549.45,116.73 549.34,117.06 549.28,117.40 549.27,117.58 549.27,128.33 549.28,128.16 549.28,128.51 549.34,128.85 549.45,129.18 549.61,129.49 549.82,129.77 550.07,130.01 550.35,130.20 550.67,130.35 551.00,130.45 551.35,130.49 " style="stroke-width: 0.53; stroke: #CA0565; fill: #CA0565;" clip-path="url(#cpNi45NzM4NXw3MTMuMDI2fDI4MC40NDV8Ni45NzM4NQ==)"/>
  <g clip-path="url(#cpNi45NzM4NXw3MTMuMDI2fDI4MC40NDV8Ni45NzM4NQ==)">
    <text x="552.87" y="126.89" style="font-size: 11.04px; fill: #FFF; font-family: Arial;" textLength="23.33px" lengthAdjust="spacingAndGlyphs">AGA</text>
  </g>
  <polyline points="365.43,243.45 399.02,243.45 398.93,243.45 399.28,243.43 399.62,243.36 399.94,243.24 400.24,243.07 400.51,242.85 400.74,242.59 400.93,242.29 401.06,241.97 401.15,241.63 401.18,241.29 401.18,241.29 401.18,230.53 401.18,230.53 401.15,230.19 401.06,229.85 400.93,229.53 400.74,229.24 400.51,228.97 400.24,228.76 399.94,228.58 399.62,228.46 399.28,228.39 399.02,228.37 365.43,228.37 365.69,228.39 365.35,228.37 365.00,228.42 364.67,228.51 364.35,228.66 364.07,228.86 363.82,229.10 363.61,229.38 363.45,229.69 363.34,230.02 363.28,230.36 363.27,230.53 363.27,241.29 363.28,241.11 363.28,241.46 363.34,241.80 363.45,242.13 363.61,242.44 363.82,242.72 364.07,242.96 364.35,243.16 364.67,243.31 365.00,243.40 365.35,243.45 " style="stroke-width: 0.53; stroke: #E0AB00; fill: #E0AB00;" clip-path="url(#cpNi45NzM4NXw3MTMuMDI2fDI4MC40NDV8Ni45NzM4NQ==)"/>
  <g clip-path="url(#cpNi45NzM4NXw3MTMuMDI2fDI4MC40NDV8Ni45NzM4NQ==)">
    <text x="366.87" y="239.85" style="font-size: 11.04px; fill: #FFF; font-family: Arial;" textLength="30.70px" lengthAdjust="spacingAndGlyphs">Mpath</text>
  </g>
  <polyline points="445.50,42.40 497.50,42.40 497.41,42.39 497.76,42.38 498.10,42.31 498.42,42.19 498.72,42.01 498.99,41.79 499.22,41.53 499.41,41.24 499.55,40.92 499.63,40.58 499.66,40.24 499.66,40.24 499.66,29.48 499.66,29.48 499.63,29.14 499.55,28.80 499.41,28.48 499.22,28.18 498.99,27.92 498.72,27.70 498.42,27.53 498.10,27.41 497.76,27.34 497.50,27.32 445.50,27.32 445.76,27.34 445.41,27.32 445.07,27.37 444.73,27.46 444.42,27.61 444.13,27.81 443.88,28.05 443.67,28.33 443.51,28.63 443.40,28.96 443.35,29.31 443.34,29.48 443.34,40.24 443.35,40.06 443.35,40.41 443.40,40.75 443.51,41.08 443.67,41.39 443.88,41.67 444.13,41.91 444.42,42.11 444.73,42.26 445.07,42.35 445.41,42.39 " style="stroke-width: 0.53; stroke: #E0AB00; fill: #E0AB00;" clip-path="url(#cpNi45NzM4NXw3MTMuMDI2fDI4MC40NDV8Ni45NzM4NQ==)"/>
  <g clip-path="url(#cpNi45NzM4NXw3MTMuMDI2fDI4MC40NDV8Ni45NzM4NQ==)">
    <text x="446.94" y="38.80" style="font-size: 11.04px; fill: #FFF; font-family: Arial;" textLength="49.12px" lengthAdjust="spacingAndGlyphs">Granatum</text>
  </g>
  <polyline points="528.30,223.08 603.03,223.08 602.95,223.08 603.29,223.07 603.63,223.00 603.96,222.87 604.26,222.70 604.53,222.48 604.76,222.22 604.94,221.93 605.08,221.61 605.16,221.27 605.19,220.92 605.19,220.92 605.19,210.17 605.19,210.17 605.16,209.82 605.08,209.48 604.94,209.16 604.76,208.87 604.53,208.61 604.26,208.39 603.96,208.22 603.63,208.09 603.29,208.02 603.03,208.01 528.30,208.01 528.56,208.02 528.22,208.01 527.87,208.05 527.54,208.15 527.22,208.30 526.94,208.50 526.69,208.74 526.48,209.01 526.32,209.32 526.21,209.65 526.15,209.99 526.14,210.17 526.14,220.92 526.15,220.75 526.15,221.10 526.21,221.44 526.32,221.77 526.48,222.08 526.69,222.36 526.94,222.60 527.22,222.79 527.54,222.94 527.87,223.04 528.22,223.08 " style="stroke-width: 0.53; stroke: #0278DD; fill: #0278DD;" clip-path="url(#cpNi45NzM4NXw3MTMuMDI2fDI4MC40NDV8Ni45NzM4NQ==)"/>
  <g clip-path="url(#cpNi45NzM4NXw3MTMuMDI2fDI4MC40NDV8Ni45NzM4NQ==)">
    <text x="529.74" y="219.48" style="font-size: 11.04px; fill: #FFF; font-family: Arial;" textLength="71.85px" lengthAdjust="spacingAndGlyphs">GPseudoRank</text>
  </g>
  <polyline points="465.62,77.66 509.01,77.66 508.93,77.66 509.27,77.64 509.61,77.58 509.94,77.45 510.24,77.28 510.51,77.06 510.74,76.80 510.93,76.50 511.06,76.18 511.14,75.85 511.17,75.50 511.17,75.50 511.17,64.75 511.17,64.75 511.14,64.40 511.06,64.06 510.93,63.74 510.74,63.45 510.51,63.19 510.24,62.97 509.94,62.79 509.61,62.67 509.27,62.60 509.01,62.59 465.62,62.59 465.88,62.60 465.54,62.59 465.19,62.63 464.86,62.73 464.54,62.87 464.26,63.07 464.01,63.31 463.80,63.59 463.64,63.90 463.53,64.23 463.47,64.57 463.46,64.75 463.46,75.50 463.47,75.33 463.47,75.67 463.53,76.02 463.64,76.35 463.80,76.65 464.01,76.93 464.26,77.17 464.54,77.37 464.86,77.52 465.19,77.62 465.54,77.66 " style="stroke-width: 0.53; stroke: #E0AB00; fill: #E0AB00;" clip-path="url(#cpNi45NzM4NXw3MTMuMDI2fDI4MC40NDV8Ni45NzM4NQ==)"/>
  <g clip-path="url(#cpNi45NzM4NXw3MTMuMDI2fDI4MC40NDV8Ni45NzM4NQ==)">
    <text x="467.06" y="74.06" style="font-size: 11.04px; fill: #FFF; font-family: Arial;" textLength="40.51px" lengthAdjust="spacingAndGlyphs">SOMSC</text>
  </g>
  <polyline points="296.80,275.34 339.58,275.34 339.49,275.34 339.84,275.32 340.18,275.26 340.51,275.13 340.81,274.96 341.08,274.74 341.31,274.48 341.49,274.18 341.63,273.86 341.71,273.53 341.74,273.18 341.74,273.18 341.74,262.43 341.74,262.43 341.71,262.08 341.63,261.74 341.49,261.42 341.31,261.13 341.08,260.87 340.81,260.65 340.51,260.47 340.18,260.35 339.84,260.28 339.58,260.27 296.80,260.27 297.06,260.28 296.71,260.27 296.36,260.31 296.03,260.41 295.72,260.55 295.43,260.75 295.18,260.99 294.97,261.27 294.81,261.58 294.70,261.91 294.64,262.25 294.64,262.43 294.64,273.18 294.64,273.01 294.64,273.35 294.70,273.70 294.81,274.03 294.97,274.34 295.18,274.61 295.43,274.85 295.72,275.05 296.03,275.20 296.36,275.30 296.71,275.34 " style="stroke-width: 0.53; stroke: #E0AB00; fill: #E0AB00;" clip-path="url(#cpNi45NzM4NXw3MTMuMDI2fDI4MC40NDV8Ni45NzM4NQ==)"/>
  <g clip-path="url(#cpNi45NzM4NXw3MTMuMDI2fDI4MC40NDV8Ni45NzM4NQ==)">
    <text x="298.24" y="271.74" style="font-size: 11.04px; fill: #FFF; font-family: Arial;" textLength="39.90px" lengthAdjust="spacingAndGlyphs">ECLAIR</text>
  </g>
  <polyline points="535.82,173.27 580.45,173.27 580.36,173.27 580.71,173.25 581.05,173.18 581.38,173.06 581.68,172.89 581.95,172.67 582.18,172.41 582.36,172.11 582.50,171.79 582.58,171.45 582.61,171.11 582.61,171.11 582.61,160.35 582.61,160.35 582.58,160.01 582.50,159.67 582.36,159.35 582.18,159.06 581.95,158.80 581.68,158.58 581.38,158.40 581.05,158.28 580.71,158.21 580.45,158.19 535.82,158.19 536.08,158.21 535.73,158.20 535.39,158.24 535.05,158.33 534.74,158.48 534.45,158.68 534.20,158.92 533.99,159.20 533.83,159.51 533.72,159.84 533.67,160.18 533.66,160.35 533.66,171.11 533.67,170.93 533.67,171.28 533.72,171.63 533.83,171.96 533.99,172.26 534.20,172.54 534.45,172.78 534.74,172.98 535.05,173.13 535.39,173.22 535.73,173.27 " style="stroke-width: 0.53; stroke: #FF4237; fill: #FF4237;" clip-path="url(#cpNi45NzM4NXw3MTMuMDI2fDI4MC40NDV8Ni45NzM4NQ==)"/>
  <g clip-path="url(#cpNi45NzM4NXw3MTMuMDI2fDI4MC40NDV8Ni45NzM4NQ==)">
    <text x="537.26" y="169.67" style="font-size: 11.04px; fill: #FFF; font-family: Arial;" textLength="41.75px" lengthAdjust="spacingAndGlyphs">TreeTop</text>
  </g>
  <polyline points="155.33,275.83 196.27,275.83 196.19,275.83 196.53,275.82 196.87,275.75 197.20,275.63 197.50,275.45 197.77,275.23 198.00,274.97 198.19,274.68 198.32,274.36 198.40,274.02 198.43,273.67 198.43,273.67 198.43,262.92 198.43,262.92 198.40,262.57 198.32,262.24 198.19,261.92 198.00,261.62 197.77,261.36 197.50,261.14 197.20,260.97 196.87,260.84 196.53,260.78 196.27,260.76 155.33,260.76 155.59,260.78 155.25,260.76 154.90,260.80 154.57,260.90 154.25,261.05 153.97,261.25 153.72,261.49 153.51,261.77 153.35,262.07 153.24,262.40 153.18,262.75 153.17,262.92 153.17,273.67 153.18,273.50 153.18,273.85 153.24,274.19 153.35,274.52 153.51,274.83 153.72,275.11 153.97,275.35 154.25,275.55 154.57,275.69 154.90,275.79 155.25,275.83 " style="stroke-width: 0.53; stroke: #E0AB00; fill: #E0AB00;" clip-path="url(#cpNi45NzM4NXw3MTMuMDI2fDI4MC40NDV8Ni45NzM4NQ==)"/>
  <g clip-path="url(#cpNi45NzM4NXw3MTMuMDI2fDI4MC40NDV8Ni45NzM4NQ==)">
    <text x="156.77" y="272.23" style="font-size: 11.04px; fill: #FFF; font-family: Arial;" textLength="38.06px" lengthAdjust="spacingAndGlyphs">SCUBA</text>
  </g>
  <polyline points="408.02,191.84 448.34,191.84 448.25,191.83 448.60,191.82 448.94,191.75 449.27,191.63 449.57,191.45 449.84,191.23 450.07,190.97 450.25,190.68 450.39,190.36 450.47,190.02 450.50,189.68 450.50,189.68 450.50,178.92 450.50,178.92 450.47,178.57 450.39,178.24 450.25,177.92 450.07,177.62 449.84,177.36 449.57,177.14 449.27,176.97 448.94,176.85 448.60,176.78 448.34,176.76 408.02,176.76 408.28,176.78 407.93,176.76 407.59,176.80 407.25,176.90 406.94,177.05 406.65,177.25 406.40,177.49 406.19,177.77 406.03,178.07 405.92,178.40 405.87,178.75 405.86,178.92 405.86,189.68 405.87,189.50 405.87,189.85 405.92,190.19 406.03,190.52 406.19,190.83 406.40,191.11 406.65,191.35 406.94,191.55 407.25,191.70 407.59,191.79 407.93,191.83 " style="stroke-width: 0.53; stroke: #0278DD; fill: #0278DD;" clip-path="url(#cpNi45NzM4NXw3MTMuMDI2fDI4MC40NDV8Ni45NzM4NQ==)"/>
  <g clip-path="url(#cpNi45NzM4NXw3MTMuMDI2fDI4MC40NDV8Ni45NzM4NQ==)">
    <text x="409.46" y="188.24" style="font-size: 11.04px; fill: #FFF; font-family: Arial;" textLength="37.44px" lengthAdjust="spacingAndGlyphs">SCENT</text>
  </g>
  <polyline points="358.98,203.16 398.69,203.16 398.60,203.16 398.95,203.14 399.29,203.07 399.62,202.95 399.92,202.78 400.19,202.56 400.42,202.30 400.60,202.00 400.74,201.68 400.82,201.35 400.85,201.00 400.85,201.00 400.85,190.24 400.85,190.24 400.82,189.90 400.74,189.56 400.60,189.24 400.42,188.95 400.19,188.69 399.92,188.47 399.62,188.29 399.29,188.17 398.95,188.10 398.69,188.08 358.98,188.08 359.24,188.10 358.89,188.09 358.55,188.13 358.21,188.22 357.90,188.37 357.61,188.57 357.36,188.81 357.15,189.09 356.99,189.40 356.88,189.73 356.83,190.07 356.82,190.24 356.82,201.00 356.83,200.83 356.83,201.17 356.88,201.52 356.99,201.85 357.15,202.15 357.36,202.43 357.61,202.67 357.90,202.87 358.21,203.02 358.55,203.12 358.89,203.16 " style="stroke-width: 0.53; stroke: #E0AB00; fill: #E0AB00;" clip-path="url(#cpNi45NzM4NXw3MTMuMDI2fDI4MC40NDV8Ni45NzM4NQ==)"/>
  <g clip-path="url(#cpNi45NzM4NXw3MTMuMDI2fDI4MC40NDV8Ni45NzM4NQ==)">
    <text x="360.42" y="199.56" style="font-size: 11.04px; fill: #FFF; font-family: Arial;" textLength="36.83px" lengthAdjust="spacingAndGlyphs">StemID</text>
  </g>
  <polyline points="488.70,245.65 546.20,245.65 546.12,245.65 546.46,245.64 546.80,245.57 547.13,245.44 547.43,245.27 547.70,245.05 547.93,244.79 548.12,244.50 548.25,244.18 548.33,243.84 548.36,243.49 548.36,243.49 548.36,232.74 548.36,232.74 548.33,232.39 548.25,232.05 548.12,231.73 547.93,231.44 547.70,231.18 547.43,230.96 547.13,230.79 546.80,230.66 546.46,230.59 546.20,230.58 488.70,230.58 488.96,230.59 488.62,230.58 488.27,230.62 487.94,230.72 487.62,230.87 487.34,231.06 487.09,231.31 486.88,231.58 486.72,231.89 486.61,232.22 486.55,232.56 486.54,232.74 486.54,243.49 486.55,243.32 486.55,243.67 486.61,244.01 486.72,244.34 486.88,244.65 487.09,244.92 487.34,245.17 487.62,245.36 487.94,245.51 488.27,245.61 488.62,245.65 " style="stroke-width: 0.53; stroke: #0278DD; fill: #0278DD;" clip-path="url(#cpNi45NzM4NXw3MTMuMDI2fDI4MC40NDV8Ni45NzM4NQ==)"/>
  <g clip-path="url(#cpNi45NzM4NXw3MTMuMDI2fDI4MC40NDV8Ni45NzM4NQ==)">
    <text x="490.14" y="242.05" style="font-size: 11.04px; fill: #FFF; font-family: Arial;" textLength="54.62px" lengthAdjust="spacingAndGlyphs">MATCHER</text>
  </g>
  <polyline points="581.19,256.22 623.98,256.22 623.89,256.21 624.24,256.20 624.58,256.13 624.91,256.01 625.21,255.83 625.48,255.61 625.71,255.35 625.89,255.06 626.03,254.74 626.11,254.40 626.14,254.06 626.14,254.06 626.14,243.30 626.14,243.30 626.11,242.95 626.03,242.62 625.89,242.30 625.71,242.00 625.48,241.74 625.21,241.52 624.91,241.35 624.58,241.23 624.24,241.16 623.98,241.14 581.19,241.14 581.45,241.16 581.10,241.14 580.75,241.18 580.42,241.28 580.11,241.43 579.82,241.63 579.57,241.87 579.36,242.15 579.20,242.45 579.09,242.78 579.03,243.13 579.03,243.30 579.03,254.06 579.03,253.88 579.03,254.23 579.09,254.57 579.20,254.90 579.36,255.21 579.57,255.49 579.82,255.73 580.11,255.93 580.42,256.07 580.75,256.17 581.10,256.21 " style="stroke-width: 0.53; stroke: #E0AB00; fill: #E0AB00;" clip-path="url(#cpNi45NzM4NXw3MTMuMDI2fDI4MC40NDV8Ni45NzM4NQ==)"/>
  <g clip-path="url(#cpNi45NzM4NXw3MTMuMDI2fDI4MC40NDV8Ni45NzM4NQ==)">
    <text x="582.63" y="252.62" style="font-size: 11.04px; fill: #FFF; font-family: Arial;" textLength="39.92px" lengthAdjust="spacingAndGlyphs">scEpath</text>
  </g>
  <polyline points="469.24,159.35 504.65,159.35 504.56,159.35 504.91,159.33 505.25,159.26 505.57,159.14 505.87,158.97 506.14,158.75 506.37,158.49 506.56,158.19 506.70,157.87 506.78,157.54 506.81,157.19 506.81,157.19 506.81,146.43 506.81,146.43 506.78,146.09 506.70,145.75 506.56,145.43 506.37,145.14 506.14,144.88 505.87,144.66 505.57,144.48 505.25,144.36 504.91,144.29 504.65,144.27 469.24,144.27 469.50,144.29 469.15,144.28 468.80,144.32 468.47,144.41 468.16,144.56 467.87,144.76 467.62,145.00 467.41,145.28 467.25,145.59 467.14,145.92 467.08,146.26 467.08,146.43 467.08,157.19 467.08,157.02 467.08,157.36 467.14,157.71 467.25,158.04 467.41,158.34 467.62,158.62 467.87,158.86 468.16,159.06 468.47,159.21 468.80,159.31 469.15,159.35 " style="stroke-width: 0.53; stroke: #E0AB00; fill: #E0AB00;" clip-path="url(#cpNi45NzM4NXw3MTMuMDI2fDI4MC40NDV8Ni45NzM4NQ==)"/>
  <g clip-path="url(#cpNi45NzM4NXw3MTMuMDI2fDI4MC40NDV8Ni45NzM4NQ==)">
    <text x="470.68" y="155.75" style="font-size: 11.04px; fill: #FFF; font-family: Arial;" textLength="32.53px" lengthAdjust="spacingAndGlyphs">TASIC</text>
  </g>
  <polyline points="462.94,114.50 502.65,114.50 502.57,114.50 502.91,114.48 503.25,114.41 503.58,114.29 503.88,114.11 504.15,113.89 504.38,113.63 504.57,113.34 504.70,113.02 504.79,112.68 504.81,112.34 504.81,112.34 504.81,101.58 504.81,101.58 504.79,101.24 504.70,100.90 504.57,100.58 504.38,100.28 504.15,100.02 503.88,99.80 503.58,99.63 503.25,99.51 502.91,99.44 502.65,99.42 462.94,99.42 463.20,99.44 462.86,99.42 462.51,99.47 462.18,99.56 461.86,99.71 461.58,99.91 461.33,100.15 461.12,100.43 460.96,100.74 460.85,101.06 460.79,101.41 460.78,101.58 460.78,112.34 460.79,112.16 460.79,112.51 460.85,112.85 460.96,113.18 461.12,113.49 461.33,113.77 461.58,114.01 461.86,114.21 462.18,114.36 462.51,114.45 462.86,114.50 " style="stroke-width: 0.53; stroke: #E0AB00; fill: #E0AB00;" clip-path="url(#cpNi45NzM4NXw3MTMuMDI2fDI4MC40NDV8Ni45NzM4NQ==)"/>
  <g clip-path="url(#cpNi45NzM4NXw3MTMuMDI2fDI4MC40NDV8Ni45NzM4NQ==)">
    <text x="464.38" y="110.90" style="font-size: 11.04px; fill: #FFF; font-family: Arial;" textLength="36.83px" lengthAdjust="spacingAndGlyphs">PHATE</text>
  </g>
  <polyline points="218.67,231.93 253.47,231.93 253.38,231.93 253.73,231.92 254.07,231.85 254.40,231.72 254.70,231.55 254.97,231.33 255.20,231.07 255.38,230.78 255.52,230.46 255.60,230.12 255.63,229.77 255.63,229.77 255.63,219.02 255.63,219.02 255.60,218.67 255.52,218.33 255.38,218.01 255.20,217.72 254.97,217.46 254.70,217.24 254.40,217.07 254.07,216.94 253.73,216.87 253.47,216.86 218.67,216.86 218.93,216.87 218.59,216.86 218.24,216.90 217.91,217.00 217.59,217.15 217.31,217.34 217.06,217.58 216.85,217.86 216.69,218.17 216.58,218.50 216.52,218.84 216.51,219.02 216.51,229.77 216.52,229.60 216.52,229.95 216.58,230.29 216.69,230.62 216.85,230.93 217.06,231.20 217.31,231.44 217.59,231.64 217.91,231.79 218.24,231.89 218.59,231.93 " style="stroke-width: 0.53; stroke: #0278DD; fill: #0278DD;" clip-path="url(#cpNi45NzM4NXw3MTMuMDI2fDI4MC40NDV8Ni45NzM4NQ==)"/>
  <g clip-path="url(#cpNi45NzM4NXw3MTMuMDI2fDI4MC40NDV8Ni45NzM4NQ==)">
    <text x="220.11" y="228.33" style="font-size: 11.04px; fill: #FFF; font-family: Arial;" textLength="31.92px" lengthAdjust="spacingAndGlyphs">NBOR</text>
  </g>
  <polyline points="479.10,180.56 515.12,180.56 515.04,180.56 515.38,180.55 515.72,180.48 516.05,180.35 516.35,180.18 516.62,179.96 516.85,179.70 517.04,179.41 517.17,179.09 517.25,178.75 517.28,178.40 517.28,178.40 517.28,167.65 517.28,167.65 517.25,167.30 517.17,166.96 517.04,166.64 516.85,166.35 516.62,166.09 516.35,165.87 516.05,165.70 515.72,165.57 515.38,165.50 515.12,165.49 479.10,165.49 479.36,165.50 479.01,165.49 478.67,165.53 478.34,165.63 478.02,165.78 477.74,165.97 477.49,166.21 477.28,166.49 477.11,166.80 477.00,167.13 476.95,167.47 476.94,167.65 476.94,178.40 476.95,178.23 476.95,178.58 477.00,178.92 477.11,179.25 477.28,179.56 477.49,179.83 477.74,180.08 478.02,180.27 478.34,180.42 478.67,180.52 479.01,180.56 " style="stroke-width: 0.53; stroke: #0278DD; fill: #0278DD;" clip-path="url(#cpNi45NzM4NXw3MTMuMDI2fDI4MC40NDV8Ni45NzM4NQ==)"/>
  <g clip-path="url(#cpNi45NzM4NXw3MTMuMDI2fDI4MC40NDV8Ni45NzM4NQ==)">
    <text x="480.54" y="176.96" style="font-size: 11.04px; fill: #FFF; font-family: Arial;" textLength="33.14px" lengthAdjust="spacingAndGlyphs">scTDA</text>
  </g>
  <polyline points="469.35,133.15 515.83,133.15 515.74,133.15 516.09,133.14 516.43,133.07 516.76,132.94 517.06,132.77 517.33,132.55 517.56,132.29 517.74,132.00 517.88,131.68 517.96,131.34 517.99,130.99 517.99,130.99 517.99,120.24 517.99,120.24 517.96,119.89 517.88,119.55 517.74,119.23 517.56,118.94 517.33,118.68 517.06,118.46 516.76,118.29 516.43,118.16 516.09,118.09 515.83,118.08 469.35,118.08 469.61,118.09 469.27,118.08 468.92,118.12 468.59,118.22 468.27,118.37 467.99,118.56 467.74,118.81 467.53,119.08 467.37,119.39 467.25,119.72 467.20,120.06 467.19,120.24 467.19,130.99 467.20,130.82 467.20,131.17 467.25,131.51 467.37,131.84 467.53,132.15 467.74,132.43 467.99,132.67 468.27,132.86 468.59,133.01 468.92,133.11 469.27,133.15 " style="stroke-width: 0.53; stroke: #E0AB00; fill: #E0AB00;" clip-path="url(#cpNi45NzM4NXw3MTMuMDI2fDI4MC40NDV8Ni45NzM4NQ==)"/>
  <g clip-path="url(#cpNi45NzM4NXw3MTMuMDI2fDI4MC40NDV8Ni45NzM4NQ==)">
    <text x="470.79" y="129.55" style="font-size: 11.04px; fill: #FFF; font-family: Arial;" textLength="43.60px" lengthAdjust="spacingAndGlyphs">slingshot</text>
  </g>
  <polyline points="351.63,180.80 403.03,180.80 402.94,180.80 403.29,180.79 403.63,180.72 403.95,180.59 404.25,180.42 404.52,180.20 404.75,179.94 404.94,179.65 405.08,179.33 405.16,178.99 405.19,178.64 405.19,178.64 405.19,167.89 405.19,167.89 405.16,167.54 405.08,167.20 404.94,166.88 404.75,166.59 404.52,166.33 404.25,166.11 403.95,165.94 403.63,165.81 403.29,165.74 403.03,165.73 351.63,165.73 351.89,165.74 351.54,165.73 351.20,165.77 350.86,165.87 350.55,166.02 350.26,166.21 350.01,166.45 349.80,166.73 349.64,167.04 349.53,167.37 349.47,167.71 349.47,167.89 349.47,178.64 349.47,178.47 349.47,178.82 349.53,179.16 349.64,179.49 349.80,179.80 350.01,180.07 350.26,180.32 350.55,180.51 350.86,180.66 351.20,180.76 351.54,180.80 " style="stroke-width: 0.53; stroke: #0278DD; fill: #0278DD;" clip-path="url(#cpNi45NzM4NXw3MTMuMDI2fDI4MC40NDV8Ni45NzM4NQ==)"/>
  <g clip-path="url(#cpNi45NzM4NXw3MTMuMDI2fDI4MC40NDV8Ni45NzM4NQ==)">
    <text x="353.07" y="177.20" style="font-size: 11.04px; fill: #FFF; font-family: Arial;" textLength="48.52px" lengthAdjust="spacingAndGlyphs">DeLorean</text>
  </g>
  <polyline points="561.17,191.95 593.52,191.95 593.43,191.95 593.78,191.94 594.12,191.87 594.45,191.74 594.75,191.57 595.02,191.35 595.25,191.09 595.43,190.80 595.57,190.48 595.65,190.14 595.68,189.79 595.68,189.79 595.68,179.04 595.68,179.04 595.65,178.69 595.57,178.35 595.43,178.03 595.25,177.74 595.02,177.48 594.75,177.26 594.45,177.09 594.12,176.96 593.78,176.89 593.52,176.88 561.17,176.88 561.43,176.89 561.08,176.88 560.74,176.92 560.41,177.02 560.09,177.17 559.81,177.36 559.55,177.61 559.35,177.88 559.18,178.19 559.07,178.52 559.02,178.86 559.01,179.04 559.01,189.79 559.02,189.62 559.02,189.97 559.07,190.31 559.18,190.64 559.35,190.95 559.55,191.23 559.81,191.47 560.09,191.66 560.41,191.81 560.74,191.91 561.08,191.95 " style="stroke-width: 0.53; stroke: #0278DD; fill: #0278DD;" clip-path="url(#cpNi45NzM4NXw3MTMuMDI2fDI4MC40NDV8Ni45NzM4NQ==)"/>
  <g clip-path="url(#cpNi45NzM4NXw3MTMuMDI2fDI4MC40NDV8Ni45NzM4NQ==)">
    <text x="562.61" y="188.35" style="font-size: 11.04px; fill: #FFF; font-family: Arial;" textLength="29.47px" lengthAdjust="spacingAndGlyphs">iCpSc</text>
  </g>
  <polyline points="563.87,209.23 630.00,209.23 629.91,209.23 630.26,209.22 630.60,209.15 630.93,209.02 631.23,208.85 631.50,208.63 631.73,208.37 631.91,208.08 632.05,207.76 632.13,207.42 632.16,207.07 632.16,207.07 632.16,196.32 632.16,196.32 632.13,195.97 632.05,195.63 631.91,195.31 631.73,195.02 631.50,194.76 631.23,194.54 630.93,194.37 630.60,194.24 630.26,194.17 630.00,194.16 563.87,194.16 564.13,194.17 563.78,194.16 563.43,194.20 563.10,194.30 562.79,194.45 562.50,194.64 562.25,194.88 562.04,195.16 561.88,195.47 561.77,195.80 561.71,196.14 561.71,196.32 561.71,207.07 561.71,206.90 561.71,207.25 561.77,207.59 561.88,207.92 562.04,208.23 562.25,208.50 562.50,208.74 562.79,208.94 563.10,209.09 563.43,209.19 563.78,209.23 " style="stroke-width: 0.53; stroke: #E0AB00; fill: #E0AB00;" clip-path="url(#cpNi45NzM4NXw3MTMuMDI2fDI4MC40NDV8Ni45NzM4NQ==)"/>
  <g clip-path="url(#cpNi45NzM4NXw3MTMuMDI2fDI4MC40NDV8Ni45NzM4NQ==)">
    <text x="565.31" y="205.63" style="font-size: 11.04px; fill: #FFF; font-family: Arial;" textLength="63.26px" lengthAdjust="spacingAndGlyphs">Topographer</text>
  </g>
  <polyline points="552.17,238.04 604.78,238.04 604.69,238.04 605.04,238.03 605.38,237.96 605.70,237.83 606.01,237.66 606.28,237.44 606.51,237.18 606.69,236.89 606.83,236.57 606.91,236.23 606.94,235.88 606.94,235.88 606.94,225.13 606.94,225.13 606.91,224.78 606.83,224.44 606.69,224.12 606.51,223.83 606.28,223.57 606.01,223.35 605.70,223.17 605.38,223.05 605.04,222.98 604.78,222.97 552.17,222.97 552.43,222.98 552.08,222.97 551.74,223.01 551.41,223.11 551.09,223.26 550.81,223.45 550.56,223.69 550.35,223.97 550.18,224.28 550.07,224.61 550.02,224.95 550.01,225.13 550.01,235.88 550.02,235.71 550.02,236.06 550.07,236.40 550.18,236.73 550.35,237.04 550.56,237.31 550.81,237.55 551.09,237.75 551.41,237.90 551.74,238.00 552.08,238.04 " style="stroke-width: 0.53; stroke: #7FBE00; fill: #7FBE00;" clip-path="url(#cpNi45NzM4NXw3MTMuMDI2fDI4MC40NDV8Ni45NzM4NQ==)"/>
  <g clip-path="url(#cpNi45NzM4NXw3MTMuMDI2fDI4MC40NDV8Ni45NzM4NQ==)">
    <text x="553.61" y="234.44" style="font-size: 11.04px; fill: #FFF; font-family: Arial;" textLength="49.73px" lengthAdjust="spacingAndGlyphs">GrandPrix</text>
  </g>
  <polyline points="500.37,209.78 548.09,209.78 548.01,209.78 548.35,209.76 548.69,209.69 549.02,209.57 549.32,209.40 549.59,209.18 549.82,208.92 550.01,208.62 550.14,208.30 550.23,207.97 550.25,207.62 550.25,207.62 550.25,196.86 550.25,196.86 550.23,196.52 550.14,196.18 550.01,195.86 549.82,195.57 549.59,195.31 549.32,195.09 549.02,194.91 548.69,194.79 548.35,194.72 548.09,194.70 500.37,194.70 500.63,194.72 500.29,194.71 499.94,194.75 499.61,194.84 499.29,194.99 499.01,195.19 498.76,195.43 498.55,195.71 498.39,196.02 498.28,196.35 498.22,196.69 498.21,196.86 498.21,207.62 498.22,207.45 498.22,207.79 498.28,208.14 498.39,208.47 498.55,208.77 498.76,209.05 499.01,209.29 499.29,209.49 499.61,209.64 499.94,209.74 500.29,209.78 " style="stroke-width: 0.53; stroke: #0278DD; fill: #0278DD;" clip-path="url(#cpNi45NzM4NXw3MTMuMDI2fDI4MC40NDV8Ni45NzM4NQ==)"/>
  <g clip-path="url(#cpNi45NzM4NXw3MTMuMDI2fDI4MC40NDV8Ni45NzM4NQ==)">
    <text x="501.81" y="206.18" style="font-size: 11.04px; fill: #FFF; font-family: Arial;" textLength="44.84px" lengthAdjust="spacingAndGlyphs">HopLand</text>
  </g>
  <polyline points="355.43,223.34 403.74,223.34 403.66,223.34 404.00,223.33 404.35,223.26 404.67,223.13 404.97,222.96 405.24,222.74 405.47,222.48 405.66,222.19 405.79,221.87 405.88,221.53 405.90,221.18 405.90,221.18 405.90,210.43 405.90,210.43 405.88,210.08 405.79,209.74 405.66,209.42 405.47,209.13 405.24,208.87 404.97,208.65 404.67,208.48 404.35,208.35 404.00,208.28 403.74,208.27 355.43,208.27 355.69,208.28 355.34,208.27 355.00,208.31 354.66,208.41 354.35,208.56 354.06,208.76 353.81,209.00 353.61,209.27 353.44,209.58 353.33,209.91 353.28,210.25 353.27,210.43 353.27,221.18 353.28,221.01 353.28,221.36 353.33,221.70 353.44,222.03 353.61,222.34 353.81,222.62 354.06,222.86 354.35,223.05 354.66,223.20 355.00,223.30 355.34,223.34 " style="stroke-width: 0.53; stroke: #0278DD; fill: #0278DD;" clip-path="url(#cpNi45NzM4NXw3MTMuMDI2fDI4MC40NDV8Ni45NzM4NQ==)"/>
  <g clip-path="url(#cpNi45NzM4NXw3MTMuMDI2fDI4MC40NDV8Ni45NzM4NQ==)">
    <text x="356.87" y="219.74" style="font-size: 11.04px; fill: #FFF; font-family: Arial;" textLength="45.43px" lengthAdjust="spacingAndGlyphs">Ouijaflow</text>
  </g>
  <polyline points="552.17,276.85 588.20,276.85 588.12,276.84 588.46,276.83 588.81,276.76 589.13,276.64 589.43,276.46 589.70,276.24 589.93,275.98 590.12,275.69 590.25,275.37 590.34,275.03 590.36,274.69 590.36,274.69 590.36,263.93 590.36,263.93 590.34,263.58 590.25,263.25 590.12,262.93 589.93,262.63 589.70,262.37 589.43,262.15 589.13,261.98 588.81,261.86 588.46,261.79 588.20,261.77 552.17,261.77 552.43,261.79 552.09,261.77 551.74,261.81 551.41,261.91 551.09,262.06 550.81,262.26 550.56,262.50 550.35,262.78 550.19,263.08 550.08,263.41 550.02,263.76 550.01,263.93 550.01,274.69 550.02,274.51 550.02,274.86 550.08,275.20 550.19,275.53 550.35,275.84 550.56,276.12 550.81,276.36 551.09,276.56 551.41,276.71 551.74,276.80 552.09,276.84 " style="stroke-width: 0.53; stroke: #7FBE00; fill: #7FBE00;" clip-path="url(#cpNi45NzM4NXw3MTMuMDI2fDI4MC40NDV8Ni45NzM4NQ==)"/>
  <g clip-path="url(#cpNi45NzM4NXw3MTMuMDI2fDI4MC40NDV8Ni45NzM4NQ==)">
    <text x="553.61" y="273.25" style="font-size: 11.04px; fill: #FFF; font-family: Arial;" textLength="33.15px" lengthAdjust="spacingAndGlyphs">FateID</text>
  </g>
  <polyline points="445.49,261.30 490.73,261.30 490.64,261.29 490.99,261.28 491.33,261.21 491.65,261.09 491.95,260.91 492.22,260.69 492.45,260.43 492.64,260.14 492.78,259.82 492.86,259.48 492.89,259.14 492.89,259.14 492.89,248.38 492.89,248.38 492.86,248.03 492.78,247.70 492.64,247.38 492.45,247.08 492.22,246.82 491.95,246.60 491.65,246.43 491.33,246.31 490.99,246.24 490.73,246.22 445.49,246.22 445.75,246.24 445.40,246.22 445.06,246.26 444.72,246.36 444.41,246.51 444.12,246.71 443.87,246.95 443.66,247.23 443.50,247.53 443.39,247.86 443.34,248.21 443.33,248.38 443.33,259.14 443.34,258.96 443.34,259.31 443.39,259.65 443.50,259.98 443.66,260.29 443.87,260.57 444.12,260.81 444.41,261.01 444.72,261.16 445.06,261.25 445.40,261.29 " style="stroke-width: 0.53; stroke: #0278DD; fill: #0278DD;" clip-path="url(#cpNi45NzM4NXw3MTMuMDI2fDI4MC40NDV8Ni45NzM4NQ==)"/>
  <g clip-path="url(#cpNi45NzM4NXw3MTMuMDI2fDI4MC40NDV8Ni45NzM4NQ==)">
    <text x="446.93" y="257.70" style="font-size: 11.04px; fill: #FFF; font-family: Arial;" textLength="42.36px" lengthAdjust="spacingAndGlyphs">Topslam</text>
  </g>
  <polyline points="483.96,195.23 532.87,195.23 532.78,195.23 533.13,195.22 533.47,195.15 533.79,195.02 534.10,194.85 534.37,194.63 534.60,194.37 534.78,194.08 534.92,193.76 535.00,193.42 535.03,193.07 535.03,193.07 535.03,182.32 535.03,182.32 535.00,181.97 534.92,181.63 534.78,181.31 534.60,181.02 534.37,180.76 534.10,180.54 533.79,180.37 533.47,180.24 533.13,180.17 532.87,180.16 483.96,180.16 484.22,180.17 483.87,180.16 483.52,180.20 483.19,180.30 482.88,180.45 482.59,180.65 482.34,180.89 482.13,181.16 481.97,181.47 481.86,181.80 481.80,182.14 481.80,182.32 481.80,193.07 481.80,192.90 481.80,193.25 481.86,193.59 481.97,193.92 482.13,194.23 482.34,194.51 482.59,194.75 482.88,194.94 483.19,195.09 483.52,195.19 483.87,195.23 " style="stroke-width: 0.53; stroke: #0278DD; fill: #0278DD;" clip-path="url(#cpNi45NzM4NXw3MTMuMDI2fDI4MC40NDV8Ni45NzM4NQ==)"/>
  <g clip-path="url(#cpNi45NzM4NXw3MTMuMDI2fDI4MC40NDV8Ni45NzM4NQ==)">
    <text x="485.40" y="191.63" style="font-size: 11.04px; fill: #FFF; font-family: Arial;" textLength="46.03px" lengthAdjust="spacingAndGlyphs">UNCURL</text>
  </g>
  <polyline points="466.31,220.95 492.51,220.95 492.42,220.95 492.77,220.93 493.11,220.86 493.43,220.74 493.73,220.57 494.00,220.35 494.23,220.09 494.42,219.79 494.56,219.47 494.64,219.14 494.67,218.79 494.67,218.79 494.67,208.03 494.67,208.03 494.64,207.69 494.56,207.35 494.42,207.03 494.23,206.74 494.00,206.48 493.73,206.26 493.43,206.08 493.11,205.96 492.77,205.89 492.51,205.87 466.31,205.87 466.57,205.89 466.22,205.88 465.88,205.92 465.54,206.01 465.23,206.16 464.94,206.36 464.69,206.60 464.48,206.88 464.32,207.19 464.21,207.52 464.16,207.86 464.15,208.03 464.15,218.79 464.16,218.61 464.16,218.96 464.21,219.31 464.32,219.64 464.48,219.94 464.69,220.22 464.94,220.46 465.23,220.66 465.54,220.81 465.88,220.91 466.22,220.95 " style="stroke-width: 0.53; stroke: #7FBE00; fill: #7FBE00;" clip-path="url(#cpNi45NzM4NXw3MTMuMDI2fDI4MC40NDV8Ni45NzM4NQ==)"/>
  <g clip-path="url(#cpNi45NzM4NXw3MTMuMDI2fDI4MC40NDV8Ni45NzM4NQ==)">
    <text x="467.75" y="217.35" style="font-size: 11.04px; fill: #FFF; font-family: Arial;" textLength="23.32px" lengthAdjust="spacingAndGlyphs">MFA</text>
  </g>
  <polyline points="250.64,253.29 298.35,253.29 298.26,253.29 298.61,253.28 298.95,253.21 299.27,253.08 299.57,252.91 299.84,252.69 300.07,252.43 300.26,252.14 300.39,251.82 300.48,251.48 300.51,251.13 300.51,251.13 300.51,240.38 300.51,240.38 300.48,240.03 300.39,239.69 300.26,239.37 300.07,239.08 299.84,238.82 299.57,238.60 299.27,238.43 298.95,238.30 298.61,238.23 298.35,238.22 250.64,238.22 250.90,238.23 250.55,238.22 250.21,238.26 249.88,238.36 249.56,238.51 249.28,238.71 249.02,238.95 248.82,239.22 248.65,239.53 248.54,239.86 248.49,240.20 248.48,240.38 248.48,251.13 248.49,250.96 248.49,251.31 248.54,251.65 248.65,251.98 248.82,252.29 249.02,252.57 249.28,252.81 249.56,253.00 249.88,253.15 250.21,253.25 250.55,253.29 " style="stroke-width: 0.53; stroke: #0278DD; fill: #0278DD;" clip-path="url(#cpNi45NzM4NXw3MTMuMDI2fDI4MC40NDV8Ni45NzM4NQ==)"/>
  <g clip-path="url(#cpNi45NzM4NXw3MTMuMDI2fDI4MC40NDV8Ni45NzM4NQ==)">
    <text x="252.08" y="249.69" style="font-size: 11.04px; fill: #FFF; font-family: Arial;" textLength="44.82px" lengthAdjust="spacingAndGlyphs">Embeddr</text>
  </g>
  <polyline points="390.56,271.82 446.22,271.82 446.13,271.82 446.48,271.80 446.82,271.73 447.14,271.61 447.44,271.44 447.71,271.22 447.94,270.96 448.13,270.66 448.26,270.34 448.35,270.00 448.38,269.66 448.38,269.66 448.38,258.90 448.38,258.90 448.35,258.56 448.26,258.22 448.13,257.90 447.94,257.61 447.71,257.34 447.44,257.13 447.14,256.95 446.82,256.83 446.48,256.76 446.22,256.74 390.56,256.74 390.82,256.76 390.47,256.74 390.12,256.79 389.79,256.88 389.48,257.03 389.19,257.23 388.94,257.47 388.73,257.75 388.57,258.06 388.46,258.39 388.40,258.73 388.40,258.90 388.40,269.66 388.40,269.48 388.40,269.83 388.46,270.17 388.57,270.50 388.73,270.81 388.94,271.09 389.19,271.33 389.48,271.53 389.79,271.68 390.12,271.77 390.47,271.82 " style="stroke-width: 0.53; stroke: #0278DD; fill: #0278DD;" clip-path="url(#cpNi45NzM4NXw3MTMuMDI2fDI4MC40NDV8Ni45NzM4NQ==)"/>
  <g clip-path="url(#cpNi45NzM4NXw3MTMuMDI2fDI4MC40NDV8Ni45NzM4NQ==)">
    <text x="392.00" y="268.22" style="font-size: 11.04px; fill: #FFF; font-family: Arial;" textLength="52.78px" lengthAdjust="spacingAndGlyphs">SCIMITAR</text>
  </g>
  <defs>
    <clipPath id="cpMHw3MjB8MzI0fDA=">
      <rect x="0.00" y="0.00" width="720.00" height="324.00"/>
    </clipPath>
  </defs>
  <polyline points="6.97,280.45 713.03,280.45 " style="stroke-width: 1.07; stroke-linecap: square;" clip-path="url(#cpMHw3MjB8MzI0fDA=)"/>
  <polyline points="39.07,283.93 39.07,280.45 " style="stroke-width: 1.07; stroke-linecap: butt;" clip-path="url(#cpMHw3MjB8MzI0fDA=)"/>
  <polyline points="176.56,283.93 176.56,280.45 " style="stroke-width: 1.07; stroke-linecap: butt;" clip-path="url(#cpMHw3MjB8MzI0fDA=)"/>
  <polyline points="314.04,283.93 314.04,280.45 " style="stroke-width: 1.07; stroke-linecap: butt;" clip-path="url(#cpMHw3MjB8MzI0fDA=)"/>
  <polyline points="451.91,283.93 451.91,280.45 " style="stroke-width: 1.07; stroke-linecap: butt;" clip-path="url(#cpMHw3MjB8MzI0fDA=)"/>
  <polyline points="589.40,283.93 589.40,280.45 " style="stroke-width: 1.07; stroke-linecap: butt;" clip-path="url(#cpMHw3MjB8MzI0fDA=)"/>
  <g clip-path="url(#cpMHw3MjB8MzI0fDA=)">
    <text x="25.72" y="295.51" style="font-size: 12.00px; font-family: Arial;" textLength="26.70px" lengthAdjust="spacingAndGlyphs">2014</text>
  </g>
  <g clip-path="url(#cpMHw3MjB8MzI0fDA=)">
    <text x="163.21" y="295.51" style="font-size: 12.00px; font-family: Arial;" textLength="26.70px" lengthAdjust="spacingAndGlyphs">2015</text>
  </g>
  <g clip-path="url(#cpMHw3MjB8MzI0fDA=)">
    <text x="300.70" y="295.51" style="font-size: 12.00px; font-family: Arial;" textLength="26.70px" lengthAdjust="spacingAndGlyphs">2016</text>
  </g>
  <g clip-path="url(#cpMHw3MjB8MzI0fDA=)">
    <text x="438.56" y="295.51" style="font-size: 12.00px; font-family: Arial;" textLength="26.70px" lengthAdjust="spacingAndGlyphs">2017</text>
  </g>
  <g clip-path="url(#cpMHw3MjB8MzI0fDA=)">
    <text x="576.05" y="295.51" style="font-size: 12.00px; font-family: Arial;" textLength="26.70px" lengthAdjust="spacingAndGlyphs">2018</text>
  </g>
  <g clip-path="url(#cpMHw3MjB8MzI0fDA=)">
    <text x="312.13" y="312.77" style="font-size: 14.00px; font-family: Arial;" textLength="95.74px" lengthAdjust="spacingAndGlyphs">Publishing date</text>
  </g>
</svg>
