<?xml version="1.0" encoding="UTF-8"?>
<svg xmlns="http://www.w3.org/2000/svg" xmlns:xlink="http://www.w3.org/1999/xlink" viewBox="0 0 720.00 324.00">
  <defs>
    <style type="text/css"><![CDATA[
    line, polyline, path, rect, circle {
      fill: none;
      stroke: #000000;
      stroke-linecap: round;
      stroke-linejoin: round;
      stroke-miterlimit: 10.00;
    }
  ]]></style>
  </defs>
  <line x1="410.70" y1="224.17" x2="410.70" y2="280.44" style="stroke-width: 1.07; stroke: #0278DD;" clip-path="url(#cpNi45NzM4NXw3MTMuMDI2fDI4MC40NDV8Ni45NzM4NQ==)"/>
  <line x1="457.05" y1="250.83" x2="457.05" y2="280.44" style="stroke-width: 1.07; stroke: #0278DD;" clip-path="url(#cpNi45NzM4NXw3MTMuMDI2fDI4MC40NDV8Ni45NzM4NQ==)"/>
  <line x1="297.72" y1="247.69" x2="297.72" y2="280.44" style="stroke-width: 1.07; stroke: #0278DD;" clip-path="url(#cpNi45NzM4NXw3MTMuMDI2fDI4MC40NDV8Ni45NzM4NQ==)"/>
  <line x1="412.35" y1="88.39" x2="412.35" y2="280.44" style="stroke-width: 1.07; stroke: #E0AB00;" clip-path="url(#cpNi45NzM4NXw3MTMuMDI2fDI4MC40NDV8Ni45NzM4NQ==)"/>
  <line x1="487.26" y1="276.69" x2="487.26" y2="280.44" style="stroke-width: 1.07; stroke: #E0AB00;" clip-path="url(#cpNi45NzM4NXw3MTMuMDI2fDI4MC40NDV8Ni45NzM4NQ==)"/>
  <line x1="510.43" y1="149.82" x2="510.43" y2="280.44" style="stroke-width: 1.07; stroke: #0278DD;" clip-path="url(#cpNi45NzM4NXw3MTMuMDI2fDI4MC40NDV8Ni45NzM4NQ==)"/>
  <line x1="659.41" y1="237.23" x2="659.41" y2="280.44" style="stroke-width: 1.07; stroke: #E0AB00;" clip-path="url(#cpNi45NzM4NXw3MTMuMDI2fDI4MC40NDV8Ni45NzM4NQ==)"/>
  <line x1="386.28" y1="253.61" x2="386.28" y2="280.44" style="stroke-width: 1.07; stroke: #0278DD;" clip-path="url(#cpNi45NzM4NXw3MTMuMDI2fDI4MC40NDV8Ni45NzM4NQ==)"/>
  <line x1="593.20" y1="131.08" x2="593.20" y2="280.44" style="stroke-width: 1.07; stroke: #FF8821;" clip-path="url(#cpNi45NzM4NXw3MTMuMDI2fDI4MC40NDV8Ni45NzM4NQ==)"/>
  <line x1="434.28" y1="268.97" x2="434.28" y2="280.44" style="stroke-width: 1.07; stroke: #E0AB00;" clip-path="url(#cpNi45NzM4NXw3MTMuMDI2fDI4MC40NDV8Ni45NzM4NQ==)"/>
  <line x1="517.88" y1="106.73" x2="517.88" y2="280.44" style="stroke-width: 1.07; stroke: #7FBE00;" clip-path="url(#cpNi45NzM4NXw3MTMuMDI2fDI4MC40NDV8Ni45NzM4NQ==)"/>
  <line x1="522.85" y1="253.50" x2="522.85" y2="280.44" style="stroke-width: 1.07; stroke: #7FBE00;" clip-path="url(#cpNi45NzM4NXw3MTMuMDI2fDI4MC40NDV8Ni45NzM4NQ==)"/>
  <line x1="296.48" y1="224.90" x2="296.48" y2="280.44" style="stroke-width: 1.07; stroke: #0278DD;" clip-path="url(#cpNi45NzM4NXw3MTMuMDI2fDI4MC40NDV8Ni45NzM4NQ==)"/>
  <line x1="514.16" y1="128.06" x2="514.16" y2="280.44" style="stroke-width: 1.07; stroke: #E0AB00;" clip-path="url(#cpNi45NzM4NXw3MTMuMDI2fDI4MC40NDV8Ni45NzM4NQ==)"/>
  <line x1="631.69" y1="214.47" x2="631.69" y2="280.44" style="stroke-width: 1.07; stroke: #7FBE00;" clip-path="url(#cpNi45NzM4NXw3MTMuMDI2fDI4MC40NDV8Ni45NzM4NQ==)"/>
  <line x1="603.96" y1="189.54" x2="603.96" y2="280.44" style="stroke-width: 1.07; stroke: #FF4237;" clip-path="url(#cpNi45NzM4NXw3MTMuMDI2fDI4MC40NDV8Ni45NzM4NQ==)"/>
  <line x1="382.14" y1="67.94" x2="382.14" y2="280.44" style="stroke-width: 1.07; stroke: #FF4237;" clip-path="url(#cpNi45NzM4NXw3MTMuMDI2fDI4MC40NDV8Ni45NzM4NQ==)"/>
  <line x1="617.62" y1="266.21" x2="617.62" y2="280.44" style="stroke-width: 1.07; stroke: #0278DD;" clip-path="url(#cpNi45NzM4NXw3MTMuMDI2fDI4MC40NDV8Ni45NzM4NQ==)"/>
  <line x1="466.56" y1="229.89" x2="466.56" y2="280.44" style="stroke-width: 1.07; stroke: #0278DD;" clip-path="url(#cpNi45NzM4NXw3MTMuMDI2fDI4MC40NDV8Ni45NzM4NQ==)"/>
  <line x1="531.12" y1="171.53" x2="531.12" y2="280.44" style="stroke-width: 1.07; stroke: #E0AB00;" clip-path="url(#cpNi45NzM4NXw3MTMuMDI2fDI4MC40NDV8Ni45NzM4NQ==)"/>
  <line x1="554.71" y1="230.42" x2="554.71" y2="280.44" style="stroke-width: 1.07; stroke: #0278DD;" clip-path="url(#cpNi45NzM4NXw3MTMuMDI2fDI4MC40NDV8Ni45NzM4NQ==)"/>
  <line x1="391.66" y1="179.24" x2="391.66" y2="280.44" style="stroke-width: 1.07; stroke: #3AD1D1;" clip-path="url(#cpNi45NzM4NXw3MTMuMDI2fDI4MC40NDV8Ni45NzM4NQ==)"/>
  <line x1="651.96" y1="158.71" x2="651.96" y2="280.44" style="stroke-width: 1.07; stroke: #E0AB00;" clip-path="url(#cpNi45NzM4NXw3MTMuMDI2fDI4MC40NDV8Ni45NzM4NQ==)"/>
  <line x1="579.54" y1="109.89" x2="579.54" y2="280.43" style="stroke-width: 1.07; stroke: #7FBE00;" clip-path="url(#cpNi45NzM4NXw3MTMuMDI2fDI4MC40NDV8Ni45NzM4NQ==)"/>
  <line x1="513.74" y1="212.54" x2="513.74" y2="280.43" style="stroke-width: 1.07; stroke: #E0AB00;" clip-path="url(#cpNi45NzM4NXw3MTMuMDI2fDI4MC40NDV8Ni45NzM4NQ==)"/>
  <line x1="85.83" y1="270.33" x2="85.83" y2="280.43" style="stroke-width: 1.07; stroke: #0278DD;" clip-path="url(#cpNi45NzM4NXw3MTMuMDI2fDI4MC40NDV8Ni45NzM4NQ==)"/>
  <line x1="542.30" y1="274.23" x2="542.30" y2="280.43" style="stroke-width: 1.07; stroke: #0278DD;" clip-path="url(#cpNi45NzM4NXw3MTMuMDI2fDI4MC40NDV8Ni45NzM4NQ==)"/>
  <line x1="76.31" y1="248.09" x2="76.31" y2="280.43" style="stroke-width: 1.07; stroke: #E0AB00;" clip-path="url(#cpNi45NzM4NXw3MTMuMDI2fDI4MC40NDV8Ni45NzM4NQ==)"/>
  <line x1="531.54" y1="48.78" x2="531.54" y2="280.43" style="stroke-width: 1.07; stroke: #E0AB00;" clip-path="url(#cpNi45NzM4NXw3MTMuMDI2fDI4MC40NDV8Ni45NzM4NQ==)"/>
  <line x1="658.17" y1="259.56" x2="658.17" y2="280.43" style="stroke-width: 1.07; stroke: #E0AB00;" clip-path="url(#cpNi45NzM4NXw3MTMuMDI2fDI4MC40NDV8Ni45NzM4NQ==)"/>
  <line x1="413.18" y1="45.66" x2="413.18" y2="280.43" style="stroke-width: 1.07; stroke: #0278DD;" clip-path="url(#cpNi45NzM4NXw3MTMuMDI2fDI4MC40NDV8Ni45NzM4NQ==)"/>
  <line x1="485.60" y1="192.92" x2="485.60" y2="280.43" style="stroke-width: 1.07; stroke: #E0AB00;" clip-path="url(#cpNi45NzM4NXw3MTMuMDI2fDI4MC40NDV8Ni45NzM4NQ==)"/>
  <line x1="380.49" y1="24.93" x2="380.49" y2="280.43" style="stroke-width: 1.07; stroke: #0278DD;" clip-path="url(#cpNi45NzM4NXw3MTMuMDI2fDI4MC40NDV8Ni45NzM4NQ==)"/>
  <line x1="583.68" y1="248.47" x2="583.68" y2="280.43" style="stroke-width: 1.07; stroke: #3AD1D1;" clip-path="url(#cpNi45NzM4NXw3MTMuMDI2fDI4MC40NDV8Ni45NzM4NQ==)"/>
  <line x1="569.61" y1="61.87" x2="569.61" y2="280.43" style="stroke-width: 1.07; stroke: #0278DD;" clip-path="url(#cpNi45NzM4NXw3MTMuMDI2fDI4MC40NDV8Ni45NzM4NQ==)"/>
  <line x1="572.09" y1="44.86" x2="572.09" y2="280.43" style="stroke-width: 1.07; stroke: #0278DD;" clip-path="url(#cpNi45NzM4NXw3MTMuMDI2fDI4MC40NDV8Ni45NzM4NQ==)"/>
  <line x1="200.88" y1="273.22" x2="200.88" y2="280.43" style="stroke-width: 1.07; stroke: #E0AB00;" clip-path="url(#cpNi45NzM4NXw3MTMuMDI2fDI4MC40NDV8Ni45NzM4NQ==)"/>
  <line x1="345.72" y1="276.51" x2="345.72" y2="280.43" style="stroke-width: 1.07; stroke: #E0AB00;" clip-path="url(#cpNi45NzM4NXw3MTMuMDI2fDI4MC40NDV8Ni45NzM4NQ==)"/>
  <line x1="564.64" y1="24.93" x2="564.64" y2="280.43" style="stroke-width: 1.07; stroke: #0278DD;" clip-path="url(#cpNi45NzM4NXw3MTMuMDI2fDI4MC40NDV8Ni45NzM4NQ==)"/>
  <line x1="577.89" y1="170.18" x2="577.89" y2="280.43" style="stroke-width: 1.07; stroke: #0278DD;" clip-path="url(#cpNi45NzM4NXw3MTMuMDI2fDI4MC40NDV8Ni45NzM4NQ==)"/>
  <line x1="291.51" y1="201.57" x2="291.51" y2="280.43" style="stroke-width: 1.07; stroke: #0278DD;" clip-path="url(#cpNi45NzM4NXw3MTMuMDI2fDI4MC40NDV8Ni45NzM4NQ==)"/>
  <line x1="624.24" y1="85.71" x2="624.24" y2="280.43" style="stroke-width: 1.07; stroke: #E0AB00;" clip-path="url(#cpNi45NzM4NXw3MTMuMDI2fDI4MC40NDV8Ni45NzM4NQ==)"/>
  <line x1="255.51" y1="274.69" x2="255.51" y2="280.42" style="stroke-width: 1.07; stroke: #0278DD;" clip-path="url(#cpNi45NzM4NXw3MTMuMDI2fDI4MC40NDV8Ni45NzM4NQ==)"/>
  <line x1="526.57" y1="24.93" x2="526.57" y2="280.42" style="stroke-width: 1.07; stroke: #E0AB00;" clip-path="url(#cpNi45NzM4NXw3MTMuMDI2fDI4MC40NDV8Ni45NzM4NQ==)"/>
  <line x1="406.97" y1="153.68" x2="406.97" y2="280.42" style="stroke-width: 1.07; stroke: #7FBE00;" clip-path="url(#cpNi45NzM4NXw3MTMuMDI2fDI4MC40NDV8Ni45NzM4NQ==)"/>
  <line x1="189.29" y1="249.90" x2="189.29" y2="280.42" style="stroke-width: 1.07; stroke: #E0AB00;" clip-path="url(#cpNi45NzM4NXw3MTMuMDI2fDI4MC40NDV8Ni45NzM4NQ==)"/>
  <line x1="656.10" y1="136.94" x2="656.10" y2="280.42" style="stroke-width: 1.07; stroke: #FF4237;" clip-path="url(#cpNi45NzM4NXw3MTMuMDI2fDI4MC40NDV8Ni45NzM4NQ==)"/>
  <line x1="616.37" y1="108.72" x2="616.37" y2="280.42" style="stroke-width: 1.07; stroke: #CA0565;" clip-path="url(#cpNi45NzM4NXw3MTMuMDI2fDI4MC40NDV8Ni45NzM4NQ==)"/>
  <line x1="562.57" y1="89.37" x2="562.57" y2="280.42" style="stroke-width: 1.07; stroke: #003D76;" clip-path="url(#cpNi45NzM4NXw3MTMuMDI2fDI4MC40NDV8Ni45NzM4NQ==)"/>
  <line x1="630.44" y1="56.10" x2="630.44" y2="280.42" style="stroke-width: 1.07; stroke: #0278DD;" clip-path="url(#cpNi45NzM4NXw3MTMuMDI2fDI4MC40NDV8Ni45NzM4NQ==)"/>
  <line x1="537.33" y1="74.02" x2="537.33" y2="280.42" style="stroke-width: 1.07; stroke: #E0AB00;" clip-path="url(#cpNi45NzM4NXw3MTMuMDI2fDI4MC40NDV8Ni45NzM4NQ==)"/>
  <line x1="580.37" y1="211.69" x2="580.37" y2="280.42" style="stroke-width: 1.07; stroke: #3AD1D1;" clip-path="url(#cpNi45NzM4NXw3MTMuMDI2fDI4MC40NDV8Ni45NzM4NQ==)"/>
  <line x1="416.08" y1="201.24" x2="416.08" y2="280.42" style="stroke-width: 1.07; stroke: #E0AB00;" clip-path="url(#cpNi45NzM4NXw3MTMuMDI2fDI4MC40NDV8Ni45NzM4NQ==)"/>
  <line x1="562.99" y1="148.99" x2="562.99" y2="280.42" style="stroke-width: 1.07; stroke: #E0AB00;" clip-path="url(#cpNi45NzM4NXw3MTMuMDI2fDI4MC40NDV8Ni45NzM4NQ==)"/>
  <line x1="455.80" y1="173.43" x2="455.80" y2="280.42" style="stroke-width: 1.07; stroke: #0278DD;" clip-path="url(#cpNi45NzM4NXw3MTMuMDI2fDI4MC40NDV8Ni45NzM4NQ==)"/>
  <line x1="356.90" y1="230.28" x2="356.90" y2="280.42" style="stroke-width: 1.07; stroke: #3AD1D1;" clip-path="url(#cpNi45NzM4NXw3MTMuMDI2fDI4MC40NDV8Ni45NzM4NQ==)"/>
  <line x1="396.21" y1="109.49" x2="396.21" y2="280.42" style="stroke-width: 1.07; stroke: #E0AB00;" clip-path="url(#cpNi45NzM4NXw3MTMuMDI2fDI4MC40NDV8Ni45NzM4NQ==)"/>
  <line x1="435.94" y1="131.97" x2="435.94" y2="280.42" style="stroke-width: 1.07; stroke: #0278DD;" clip-path="url(#cpNi45NzM4NXw3MTMuMDI2fDI4MC40NDV8Ni45NzM4NQ==)"/>
  <defs>
    <clipPath id="cpNi45NzM4NXw3MTMuMDI2fDI4MC40NDV8Ni45NzM4NQ==">
      <rect x="6.97" y="6.97" width="706.05" height="273.47"/>
    </clipPath>
  </defs>
  <polyline points="409.89,131.97 461.99,131.97 461.90,131.97 462.25,131.95 462.59,131.88 462.92,131.76 463.22,131.59 463.49,131.37 463.72,131.11 463.90,130.81 464.04,130.49 464.12,130.16 464.15,129.81 464.15,129.81 464.15,119.77 464.15,119.77 464.12,119.43 464.04,119.09 463.90,118.77 463.72,118.48 463.49,118.22 463.22,118.00 462.92,117.82 462.59,117.70 462.25,117.63 461.99,117.61 409.89,117.61 410.15,117.63 409.80,117.61 409.46,117.66 409.12,117.75 408.81,117.90 408.52,118.10 408.27,118.34 408.06,118.62 407.90,118.93 407.79,119.26 407.74,119.60 407.73,119.77 407.73,129.81 407.74,129.64 407.74,129.98 407.79,130.33 407.90,130.66 408.06,130.96 408.27,131.24 408.52,131.48 408.81,131.68 409.12,131.83 409.46,131.93 409.80,131.97 " style="stroke-width: 0.53; stroke: #0278DD; fill: #0278DD;" clip-path="url(#cpNi45NzM4NXw3MTMuMDI2fDI4MC40NDV8Ni45NzM4NQ==)"/>
  <g clip-path="url(#cpNi45NzM4NXw3MTMuMDI2fDI4MC40NDV8Ni45NzM4NQ==)">
    <text x="411.33" y="128.37" style="font-size: 9.96px; fill: #FFF; font-family: Arial;" textLength="49.22px" lengthAdjust="spacingAndGlyphs">WaveCrest</text>
  </g>
  <polyline points="377.90,109.49 414.52,109.49 414.43,109.49 414.78,109.47 415.12,109.40 415.44,109.28 415.74,109.11 416.01,108.89 416.24,108.63 416.43,108.33 416.57,108.01 416.65,107.68 416.68,107.33 416.68,107.33 416.68,97.29 416.68,97.29 416.65,96.95 416.57,96.61 416.43,96.29 416.24,96.00 416.01,95.74 415.74,95.52 415.44,95.34 415.12,95.22 414.78,95.15 414.52,95.13 377.90,95.13 378.16,95.15 377.82,95.14 377.47,95.18 377.14,95.27 376.82,95.42 376.54,95.62 376.29,95.86 376.08,96.14 375.92,96.45 375.81,96.78 375.75,97.12 375.74,97.29 375.74,107.33 375.75,107.16 375.75,107.50 375.81,107.85 375.92,108.18 376.08,108.48 376.29,108.76 376.54,109.00 376.82,109.20 377.14,109.35 377.47,109.45 377.82,109.49 " style="stroke-width: 0.53; stroke: #E0AB00; fill: #E0AB00;" clip-path="url(#cpNi45NzM4NXw3MTMuMDI2fDI4MC40NDV8Ni45NzM4NQ==)"/>
  <g clip-path="url(#cpNi45NzM4NXw3MTMuMDI2fDI4MC40NDV8Ni45NzM4NQ==)">
    <text x="379.34" y="105.89" style="font-size: 9.96px; fill: #FFF; font-family: Arial;" textLength="33.73px" lengthAdjust="spacingAndGlyphs">TSCAN</text>
  </g>
  <polyline points="345.50,230.28 368.29,230.28 368.20,230.28 368.55,230.26 368.89,230.19 369.22,230.07 369.52,229.90 369.79,229.68 370.02,229.42 370.20,229.12 370.34,228.80 370.42,228.46 370.45,228.12 370.45,228.12 370.45,218.08 370.45,218.08 370.42,217.74 370.34,217.40 370.20,217.08 370.02,216.78 369.79,216.52 369.52,216.30 369.22,216.13 368.89,216.01 368.55,215.94 368.29,215.92 345.50,215.92 345.76,215.94 345.42,215.92 345.07,215.97 344.74,216.06 344.42,216.21 344.14,216.41 343.89,216.65 343.68,216.93 343.52,217.23 343.41,217.56 343.35,217.91 343.34,218.08 343.34,228.12 343.35,227.94 343.35,228.29 343.41,228.63 343.52,228.96 343.68,229.27 343.89,229.55 344.14,229.79 344.42,229.99 344.74,230.14 345.07,230.23 345.42,230.28 " style="stroke-width: 0.53; stroke: #3AD1D1; fill: #3AD1D1;" clip-path="url(#cpNi45NzM4NXw3MTMuMDI2fDI4MC40NDV8Ni45NzM4NQ==)"/>
  <g clip-path="url(#cpNi45NzM4NXw3MTMuMDI2fDI4MC40NDV8Ni45NzM4NQ==)">
    <text x="346.94" y="226.68" style="font-size: 9.96px; fill: #FFF; font-family: Arial;" textLength="19.91px" lengthAdjust="spacingAndGlyphs">DPT</text>
  </g>
  <polyline points="430.59,173.43 481.02,173.43 480.93,173.43 481.28,173.41 481.62,173.34 481.95,173.22 482.25,173.05 482.52,172.83 482.75,172.57 482.93,172.27 483.07,171.95 483.15,171.62 483.18,171.27 483.18,171.27 483.18,161.23 483.18,161.23 483.15,160.89 483.07,160.55 482.93,160.23 482.75,159.93 482.52,159.67 482.25,159.45 481.95,159.28 481.62,159.16 481.28,159.09 481.02,159.07 430.59,159.07 430.85,159.09 430.50,159.07 430.15,159.12 429.82,159.21 429.51,159.36 429.22,159.56 428.97,159.80 428.76,160.08 428.60,160.39 428.49,160.72 428.43,161.06 428.43,161.23 428.43,171.27 428.43,171.09 428.43,171.44 428.49,171.79 428.60,172.12 428.76,172.42 428.97,172.70 429.22,172.94 429.51,173.14 429.82,173.29 430.15,173.39 430.50,173.43 " style="stroke-width: 0.53; stroke: #0278DD; fill: #0278DD;" clip-path="url(#cpNi45NzM4NXw3MTMuMDI2fDI4MC40NDV8Ni45NzM4NQ==)"/>
  <g clip-path="url(#cpNi45NzM4NXw3MTMuMDI2fDI4MC40NDV8Ni45NzM4NQ==)">
    <text x="432.03" y="169.83" style="font-size: 9.96px; fill: #FFF; font-family: Arial;" textLength="47.55px" lengthAdjust="spacingAndGlyphs">SCIMITAR</text>
  </g>
  <polyline points="544.41,148.99 581.57,148.99 581.48,148.99 581.83,148.98 582.17,148.91 582.50,148.79 582.80,148.61 583.07,148.39 583.30,148.13 583.48,147.84 583.62,147.52 583.70,147.18 583.73,146.83 583.73,146.83 583.73,136.80 583.73,136.80 583.70,136.45 583.62,136.11 583.48,135.79 583.30,135.50 583.07,135.24 582.80,135.02 582.50,134.85 582.17,134.72 581.83,134.65 581.57,134.64 544.41,134.64 544.67,134.65 544.32,134.64 543.97,134.68 543.64,134.78 543.33,134.93 543.04,135.13 542.79,135.37 542.58,135.64 542.42,135.95 542.31,136.28 542.25,136.62 542.25,136.80 542.25,146.83 542.25,146.66 542.25,147.01 542.31,147.35 542.42,147.68 542.58,147.99 542.79,148.27 543.04,148.51 543.33,148.71 543.64,148.85 543.97,148.95 544.32,148.99 " style="stroke-width: 0.53; stroke: #E0AB00; fill: #E0AB00;" clip-path="url(#cpNi45NzM4NXw3MTMuMDI2fDI4MC40NDV8Ni45NzM4NQ==)"/>
  <g clip-path="url(#cpNi45NzM4NXw3MTMuMDI2fDI4MC40NDV8Ni45NzM4NQ==)">
    <text x="545.85" y="145.39" style="font-size: 9.96px; fill: #FFF; font-family: Arial;" textLength="34.29px" lengthAdjust="spacingAndGlyphs">FORKS</text>
  </g>
  <polyline points="400.80,201.24 431.35,201.24 431.26,201.24 431.61,201.23 431.95,201.16 432.27,201.04 432.57,200.86 432.84,200.64 433.07,200.38 433.26,200.09 433.40,199.77 433.48,199.43 433.51,199.08 433.51,199.08 433.51,189.05 433.51,189.05 433.48,188.70 433.40,188.36 433.26,188.04 433.07,187.75 432.84,187.49 432.57,187.27 432.27,187.10 431.95,186.97 431.61,186.90 431.35,186.89 400.80,186.89 401.06,186.90 400.72,186.89 400.37,186.93 400.04,187.03 399.72,187.18 399.44,187.37 399.19,187.62 398.98,187.89 398.82,188.20 398.71,188.53 398.65,188.87 398.64,189.05 398.64,199.08 398.65,198.91 398.65,199.26 398.71,199.60 398.82,199.93 398.98,200.24 399.19,200.52 399.44,200.76 399.72,200.95 400.04,201.10 400.37,201.20 400.72,201.24 " style="stroke-width: 0.53; stroke: #E0AB00; fill: #E0AB00;" clip-path="url(#cpNi45NzM4NXw3MTMuMDI2fDI4MC40NDV8Ni45NzM4NQ==)"/>
  <g clip-path="url(#cpNi45NzM4NXw3MTMuMDI2fDI4MC40NDV8Ni45NzM4NQ==)">
    <text x="402.24" y="197.64" style="font-size: 9.96px; fill: #FFF; font-family: Arial;" textLength="27.66px" lengthAdjust="spacingAndGlyphs">Mpath</text>
  </g>
  <polyline points="568.42,211.69 592.32,211.69 592.23,211.69 592.58,211.68 592.92,211.61 593.25,211.48 593.55,211.31 593.82,211.09 594.05,210.83 594.23,210.54 594.37,210.22 594.45,209.88 594.48,209.53 594.48,209.53 594.48,199.50 594.48,199.50 594.45,199.15 594.37,198.81 594.23,198.49 594.05,198.20 593.82,197.94 593.55,197.72 593.25,197.55 592.92,197.42 592.58,197.35 592.32,197.34 568.42,197.34 568.68,197.35 568.33,197.34 567.99,197.38 567.65,197.48 567.34,197.63 567.05,197.82 566.80,198.06 566.59,198.34 566.43,198.65 566.32,198.98 566.27,199.32 566.26,199.50 566.26,209.53 566.27,209.36 566.27,209.71 566.32,210.05 566.43,210.38 566.59,210.69 566.80,210.97 567.05,211.21 567.34,211.40 567.65,211.55 567.99,211.65 568.33,211.69 " style="stroke-width: 0.53; stroke: #3AD1D1; fill: #3AD1D1;" clip-path="url(#cpNi45NzM4NXw3MTMuMDI2fDI4MC40NDV8Ni45NzM4NQ==)"/>
  <g clip-path="url(#cpNi45NzM4NXw3MTMuMDI2fDI4MC40NDV8Ni45NzM4NQ==)">
    <text x="569.86" y="208.09" style="font-size: 9.96px; fill: #FFF; font-family: Arial;" textLength="21.02px" lengthAdjust="spacingAndGlyphs">BGP</text>
  </g>
  <polyline points="516.25,74.02 558.41,74.02 558.32,74.02 558.67,74.01 559.01,73.94 559.34,73.81 559.64,73.64 559.91,73.42 560.14,73.16 560.32,72.87 560.46,72.55 560.54,72.21 560.57,71.86 560.57,71.86 560.57,61.83 560.57,61.83 560.54,61.48 560.46,61.14 560.32,60.82 560.14,60.53 559.91,60.27 559.64,60.05 559.34,59.87 559.01,59.75 558.67,59.68 558.41,59.67 516.25,59.67 516.51,59.68 516.16,59.67 515.82,59.71 515.48,59.81 515.17,59.95 514.88,60.15 514.63,60.39 514.42,60.67 514.26,60.98 514.15,61.31 514.10,61.65 514.09,61.83 514.09,71.86 514.10,71.69 514.10,72.04 514.15,72.38 514.26,72.71 514.42,73.02 514.63,73.29 514.88,73.53 515.17,73.73 515.48,73.88 515.82,73.98 516.16,74.02 " style="stroke-width: 0.53; stroke: #E0AB00; fill: #E0AB00;" clip-path="url(#cpNi45NzM4NXw3MTMuMDI2fDI4MC40NDV8Ni45NzM4NQ==)"/>
  <g clip-path="url(#cpNi45NzM4NXw3MTMuMDI2fDI4MC40NDV8Ni45NzM4NQ==)">
    <text x="517.69" y="70.42" style="font-size: 9.96px; fill: #FFF; font-family: Arial;" textLength="39.28px" lengthAdjust="spacingAndGlyphs">slingshot</text>
  </g>
  <polyline points="615.73,56.10 645.16,56.10 645.07,56.10 645.42,56.09 645.76,56.02 646.09,55.89 646.39,55.72 646.66,55.50 646.89,55.24 647.07,54.95 647.21,54.63 647.29,54.29 647.32,53.94 647.32,53.94 647.32,43.91 647.32,43.91 647.29,43.56 647.21,43.22 647.07,42.90 646.89,42.61 646.66,42.35 646.39,42.13 646.09,41.96 645.76,41.83 645.42,41.76 645.16,41.75 615.73,41.75 615.99,41.76 615.64,41.75 615.30,41.79 614.96,41.89 614.65,42.04 614.36,42.23 614.11,42.47 613.90,42.75 613.74,43.06 613.63,43.39 613.58,43.73 613.57,43.91 613.57,53.94 613.58,53.77 613.58,54.12 613.63,54.46 613.74,54.79 613.90,55.10 614.11,55.38 614.36,55.62 614.65,55.81 614.96,55.96 615.30,56.06 615.64,56.10 " style="stroke-width: 0.53; stroke: #0278DD; fill: #0278DD;" clip-path="url(#cpNi45NzM4NXw3MTMuMDI2fDI4MC40NDV8Ni45NzM4NQ==)"/>
  <g clip-path="url(#cpNi45NzM4NXw3MTMuMDI2fDI4MC40NDV8Ni45NzM4NQ==)">
    <text x="617.17" y="52.50" style="font-size: 9.96px; fill: #FFF; font-family: Arial;" textLength="26.55px" lengthAdjust="spacingAndGlyphs">iCpSc</text>
  </g>
  <polyline points="546.76,89.37 578.39,89.37 578.31,89.37 578.65,89.35 578.99,89.28 579.32,89.16 579.62,88.98 579.89,88.76 580.12,88.50 580.31,88.21 580.44,87.89 580.52,87.55 580.55,87.21 580.55,87.21 580.55,77.17 580.55,77.17 580.52,76.82 580.44,76.49 580.31,76.17 580.12,75.87 579.89,75.61 579.62,75.39 579.32,75.22 578.99,75.10 578.65,75.03 578.39,75.01 546.76,75.01 547.02,75.03 546.67,75.01 546.32,75.05 545.99,75.15 545.68,75.30 545.39,75.50 545.14,75.74 544.93,76.02 544.77,76.32 544.66,76.65 544.60,77.00 544.60,77.17 544.60,87.21 544.60,87.03 544.60,87.38 544.66,87.72 544.77,88.05 544.93,88.36 545.14,88.64 545.39,88.88 545.68,89.08 545.99,89.23 546.32,89.32 546.67,89.37 " style="stroke-width: 0.53; stroke: #003D76; fill: #003D76;" clip-path="url(#cpNi45NzM4NXw3MTMuMDI2fDI4MC40NDV8Ni45NzM4NQ==)"/>
  <g clip-path="url(#cpNi45NzM4NXw3MTMuMDI2fDI4MC40NDV8Ni45NzM4NQ==)">
    <text x="548.20" y="85.77" style="font-size: 9.96px; fill: #FFF; font-family: Arial;" textLength="28.76px" lengthAdjust="spacingAndGlyphs">reCAT</text>
  </g>
  <polyline points="604.42,108.72 628.32,108.72 628.24,108.71 628.58,108.70 628.92,108.63 629.25,108.51 629.55,108.33 629.82,108.11 630.05,107.85 630.24,107.56 630.37,107.24 630.46,106.90 630.48,106.56 630.48,106.56 630.48,96.52 630.48,96.52 630.46,96.17 630.37,95.84 630.24,95.52 630.05,95.22 629.82,94.96 629.55,94.74 629.25,94.57 628.92,94.45 628.58,94.38 628.32,94.36 604.42,94.36 604.68,94.38 604.34,94.36 603.99,94.40 603.66,94.50 603.34,94.65 603.06,94.85 602.81,95.09 602.60,95.37 602.44,95.67 602.33,96.00 602.27,96.35 602.26,96.52 602.26,106.56 602.27,106.38 602.27,106.73 602.33,107.07 602.44,107.40 602.60,107.71 602.81,107.99 603.06,108.23 603.34,108.43 603.66,108.58 603.99,108.67 604.34,108.71 " style="stroke-width: 0.53; stroke: #CA0565; fill: #CA0565;" clip-path="url(#cpNi45NzM4NXw3MTMuMDI2fDI4MC40NDV8Ni45NzM4NQ==)"/>
  <g clip-path="url(#cpNi45NzM4NXw3MTMuMDI2fDI4MC40NDV8Ni45NzM4NQ==)">
    <text x="605.86" y="105.12" style="font-size: 9.96px; fill: #FFF; font-family: Arial;" textLength="21.02px" lengthAdjust="spacingAndGlyphs">AGA</text>
  </g>
  <polyline points="633.92,136.94 678.28,136.94 678.20,136.94 678.55,136.92 678.89,136.85 679.21,136.73 679.51,136.56 679.78,136.34 680.01,136.08 680.20,135.78 680.33,135.46 680.42,135.13 680.44,134.78 680.44,134.78 680.44,124.74 680.44,124.74 680.42,124.40 680.33,124.06 680.20,123.74 680.01,123.44 679.78,123.18 679.51,122.96 679.21,122.79 678.89,122.67 678.55,122.60 678.28,122.58 633.92,122.58 634.18,122.60 633.83,122.58 633.49,122.63 633.15,122.72 632.84,122.87 632.55,123.07 632.30,123.31 632.09,123.59 631.93,123.90 631.82,124.23 631.77,124.57 631.76,124.74 631.76,134.78 631.77,134.60 631.77,134.95 631.82,135.30 631.93,135.63 632.09,135.93 632.30,136.21 632.55,136.45 632.84,136.65 633.15,136.80 633.49,136.90 633.83,136.94 " style="stroke-width: 0.53; stroke: #FF4237; fill: #FF4237;" clip-path="url(#cpNi45NzM4NXw3MTMuMDI2fDI4MC40NDV8Ni45NzM4NQ==)"/>
  <g clip-path="url(#cpNi45NzM4NXw3MTMuMDI2fDI4MC40NDV8Ni45NzM4NQ==)">
    <text x="635.36" y="133.34" style="font-size: 9.96px; fill: #FFF; font-family: Arial;" textLength="41.48px" lengthAdjust="spacingAndGlyphs">CALISTA</text>
  </g>
  <polyline points="170.71,249.90 207.88,249.90 207.79,249.90 208.14,249.88 208.48,249.81 208.80,249.69 209.10,249.51 209.37,249.30 209.60,249.03 209.79,248.74 209.93,248.42 210.01,248.08 210.04,247.74 210.04,247.74 210.04,237.70 210.04,237.70 210.01,237.35 209.93,237.02 209.79,236.70 209.60,236.40 209.37,236.14 209.10,235.92 208.80,235.75 208.48,235.63 208.14,235.56 207.88,235.54 170.71,235.54 170.97,235.56 170.62,235.54 170.27,235.58 169.94,235.68 169.63,235.83 169.34,236.03 169.09,236.27 168.88,236.55 168.72,236.85 168.61,237.18 168.55,237.53 168.55,237.70 168.55,247.74 168.55,247.56 168.55,247.91 168.61,248.25 168.72,248.58 168.88,248.89 169.09,249.17 169.34,249.41 169.63,249.61 169.94,249.76 170.27,249.85 170.62,249.90 " style="stroke-width: 0.53; stroke: #E0AB00; fill: #E0AB00;" clip-path="url(#cpNi45NzM4NXw3MTMuMDI2fDI4MC40NDV8Ni45NzM4NQ==)"/>
  <g clip-path="url(#cpNi45NzM4NXw3MTMuMDI2fDI4MC40NDV8Ni45NzM4NQ==)">
    <text x="172.15" y="246.30" style="font-size: 9.96px; fill: #FFF; font-family: Arial;" textLength="34.29px" lengthAdjust="spacingAndGlyphs">SCUBA</text>
  </g>
  <polyline points="387.83,153.68 426.11,153.68 426.02,153.67 426.37,153.66 426.71,153.59 427.03,153.47 427.34,153.29 427.60,153.07 427.84,152.81 428.02,152.52 428.16,152.20 428.24,151.86 428.27,151.52 428.27,151.52 428.27,141.48 428.27,141.48 428.24,141.13 428.16,140.80 428.02,140.48 427.84,140.18 427.60,139.92 427.34,139.70 427.03,139.53 426.71,139.40 426.37,139.34 426.11,139.32 387.83,139.32 388.09,139.34 387.75,139.32 387.40,139.36 387.07,139.46 386.75,139.61 386.47,139.81 386.22,140.05 386.01,140.32 385.85,140.63 385.74,140.96 385.68,141.31 385.67,141.48 385.67,151.52 385.68,151.34 385.68,151.69 385.74,152.03 385.85,152.36 386.01,152.67 386.22,152.95 386.47,153.19 386.75,153.39 387.07,153.54 387.40,153.63 387.75,153.67 " style="stroke-width: 0.53; stroke: #7FBE00; fill: #7FBE00;" clip-path="url(#cpNi45NzM4NXw3MTMuMDI2fDI4MC40NDV8Ni45NzM4NQ==)"/>
  <g clip-path="url(#cpNi45NzM4NXw3MTMuMDI2fDI4MC40NDV8Ni45NzM4NQ==)">
    <text x="389.27" y="150.08" style="font-size: 9.96px; fill: #FFF; font-family: Arial;" textLength="35.39px" lengthAdjust="spacingAndGlyphs">SCOUP</text>
  </g>
  <polyline points="508.54,24.93 544.60,24.93 544.52,24.93 544.86,24.91 545.20,24.84 545.53,24.72 545.83,24.55 546.10,24.33 546.33,24.07 546.51,23.77 546.65,23.45 546.73,23.12 546.76,22.77 546.76,22.77 546.76,12.73 546.76,12.73 546.73,12.39 546.65,12.05 546.51,11.73 546.33,11.44 546.10,11.18 545.83,10.96 545.53,10.78 545.20,10.66 544.86,10.59 544.60,10.57 508.54,10.57 508.80,10.59 508.45,10.58 508.11,10.62 507.77,10.71 507.46,10.86 507.17,11.06 506.92,11.30 506.71,11.58 506.55,11.89 506.44,12.22 506.39,12.56 506.38,12.73 506.38,22.77 506.39,22.60 506.39,22.94 506.44,23.29 506.55,23.62 506.71,23.92 506.92,24.20 507.17,24.44 507.46,24.64 507.77,24.79 508.11,24.89 508.45,24.93 " style="stroke-width: 0.53; stroke: #E0AB00; fill: #E0AB00;" clip-path="url(#cpNi45NzM4NXw3MTMuMDI2fDI4MC40NDV8Ni45NzM4NQ==)"/>
  <g clip-path="url(#cpNi45NzM4NXw3MTMuMDI2fDI4MC40NDV8Ni45NzM4NQ==)">
    <text x="509.98" y="21.33" style="font-size: 9.96px; fill: #FFF; font-family: Arial;" textLength="33.18px" lengthAdjust="spacingAndGlyphs">PHATE</text>
  </g>
  <polyline points="239.69,274.69 271.32,274.69 271.24,274.68 271.58,274.67 271.92,274.60 272.25,274.48 272.55,274.30 272.82,274.08 273.05,273.82 273.24,273.53 273.37,273.21 273.46,272.87 273.48,272.53 273.48,272.53 273.48,262.49 273.48,262.49 273.46,262.14 273.37,261.81 273.24,261.49 273.05,261.19 272.82,260.93 272.55,260.71 272.25,260.54 271.92,260.42 271.58,260.35 271.32,260.33 239.69,260.33 239.95,260.35 239.60,260.33 239.26,260.37 238.92,260.47 238.61,260.62 238.32,260.82 238.07,261.06 237.86,261.34 237.70,261.64 237.59,261.97 237.53,262.32 237.53,262.49 237.53,272.53 237.53,272.35 237.53,272.70 237.59,273.04 237.70,273.37 237.86,273.68 238.07,273.96 238.32,274.20 238.61,274.40 238.92,274.55 239.26,274.64 239.60,274.68 " style="stroke-width: 0.53; stroke: #0278DD; fill: #0278DD;" clip-path="url(#cpNi45NzM4NXw3MTMuMDI2fDI4MC40NDV8Ni45NzM4NQ==)"/>
  <g clip-path="url(#cpNi45NzM4NXw3MTMuMDI2fDI4MC40NDV8Ni45NzM4NQ==)">
    <text x="241.13" y="271.09" style="font-size: 9.96px; fill: #FFF; font-family: Arial;" textLength="28.76px" lengthAdjust="spacingAndGlyphs">NBOR</text>
  </g>
  <polyline points="602.05,85.71 646.42,85.71 646.34,85.71 646.68,85.69 647.02,85.62 647.35,85.50 647.65,85.33 647.92,85.11 648.15,84.85 648.34,84.55 648.47,84.23 648.56,83.89 648.58,83.55 648.58,83.55 648.58,73.51 648.58,73.51 648.56,73.17 648.47,72.83 648.34,72.51 648.15,72.21 647.92,71.95 647.65,71.73 647.35,71.56 647.02,71.44 646.68,71.37 646.42,71.35 602.05,71.35 602.31,71.37 601.96,71.35 601.62,71.40 601.28,71.49 600.97,71.64 600.68,71.84 600.43,72.08 600.22,72.36 600.06,72.67 599.95,72.99 599.90,73.34 599.89,73.51 599.89,83.55 599.90,83.37 599.90,83.72 599.95,84.07 600.06,84.39 600.22,84.70 600.43,84.98 600.68,85.22 600.97,85.42 601.28,85.57 601.62,85.66 601.96,85.71 " style="stroke-width: 0.53; stroke: #E0AB00; fill: #E0AB00;" clip-path="url(#cpNi45NzM4NXw3MTMuMDI2fDI4MC40NDV8Ni45NzM4NQ==)"/>
  <g clip-path="url(#cpNi45NzM4NXw3MTMuMDI2fDI4MC40NDV8Ni45NzM4NQ==)">
    <text x="603.49" y="82.11" style="font-size: 9.96px; fill: #FFF; font-family: Arial;" textLength="41.49px" lengthAdjust="spacingAndGlyphs">p-Creode</text>
  </g>
  <polyline points="270.44,201.57 312.58,201.57 312.50,201.57 312.84,201.56 313.18,201.49 313.51,201.36 313.81,201.19 314.08,200.97 314.31,200.71 314.50,200.41 314.63,200.09 314.72,199.76 314.74,199.41 314.74,199.41 314.74,189.37 314.74,189.37 314.72,189.03 314.63,188.69 314.50,188.37 314.31,188.08 314.08,187.82 313.81,187.60 313.51,187.42 313.18,187.30 312.84,187.23 312.58,187.21 270.44,187.21 270.70,187.23 270.35,187.22 270.00,187.26 269.67,187.36 269.36,187.50 269.07,187.70 268.82,187.94 268.61,188.22 268.45,188.53 268.34,188.86 268.28,189.20 268.28,189.37 268.28,199.41 268.28,199.24 268.28,199.58 268.34,199.93 268.45,200.26 268.61,200.57 268.82,200.84 269.07,201.08 269.36,201.28 269.67,201.43 270.00,201.53 270.35,201.57 " style="stroke-width: 0.53; stroke: #0278DD; fill: #0278DD;" clip-path="url(#cpNi45NzM4NXw3MTMuMDI2fDI4MC40NDV8Ni45NzM4NQ==)"/>
  <g clip-path="url(#cpNi45NzM4NXw3MTMuMDI2fDI4MC40NDV8Ni45NzM4NQ==)">
    <text x="271.88" y="197.97" style="font-size: 9.96px; fill: #FFF; font-family: Arial;" textLength="39.27px" lengthAdjust="spacingAndGlyphs">Waterfall</text>
  </g>
  <polyline points="559.30,170.18 596.48,170.18 596.39,170.18 596.74,170.17 597.08,170.10 597.40,169.97 597.70,169.80 597.97,169.58 598.20,169.32 598.39,169.03 598.53,168.71 598.61,168.37 598.64,168.02 598.64,168.02 598.64,157.99 598.64,157.99 598.61,157.64 598.53,157.30 598.39,156.98 598.20,156.69 597.97,156.43 597.70,156.21 597.40,156.03 597.08,155.91 596.74,155.84 596.48,155.83 559.30,155.83 559.56,155.84 559.21,155.83 558.86,155.87 558.53,155.97 558.22,156.12 557.93,156.31 557.68,156.55 557.47,156.83 557.31,157.14 557.20,157.47 557.14,157.81 557.14,157.99 557.14,168.02 557.14,167.85 557.14,168.20 557.20,168.54 557.31,168.87 557.47,169.18 557.68,169.45 557.93,169.70 558.22,169.89 558.53,170.04 558.86,170.14 559.21,170.18 " style="stroke-width: 0.53; stroke: #0278DD; fill: #0278DD;" clip-path="url(#cpNi45NzM4NXw3MTMuMDI2fDI4MC40NDV8Ni45NzM4NQ==)"/>
  <g clip-path="url(#cpNi45NzM4NXw3MTMuMDI2fDI4MC40NDV8Ni45NzM4NQ==)">
    <text x="560.74" y="166.58" style="font-size: 9.96px; fill: #FFF; font-family: Arial;" textLength="34.30px" lengthAdjust="spacingAndGlyphs">SoptSC</text>
  </g>
  <polyline points="538.60,24.93 590.69,24.93 590.60,24.93 590.95,24.91 591.29,24.84 591.62,24.72 591.92,24.55 592.19,24.33 592.42,24.07 592.60,23.77 592.74,23.45 592.82,23.12 592.85,22.77 592.85,22.77 592.85,12.73 592.85,12.73 592.82,12.39 592.74,12.05 592.60,11.73 592.42,11.44 592.19,11.18 591.92,10.96 591.62,10.78 591.29,10.66 590.95,10.59 590.69,10.57 538.60,10.57 538.86,10.59 538.51,10.58 538.17,10.62 537.83,10.71 537.52,10.86 537.23,11.06 536.98,11.30 536.77,11.58 536.61,11.89 536.50,12.22 536.45,12.56 536.44,12.73 536.44,22.77 536.45,22.60 536.45,22.94 536.50,23.29 536.61,23.62 536.77,23.92 536.98,24.20 537.23,24.44 537.52,24.64 537.83,24.79 538.17,24.89 538.51,24.93 " style="stroke-width: 0.53; stroke: #0278DD; fill: #0278DD;" clip-path="url(#cpNi45NzM4NXw3MTMuMDI2fDI4MC40NDV8Ni45NzM4NQ==)"/>
  <g clip-path="url(#cpNi45NzM4NXw3MTMuMDI2fDI4MC40NDV8Ni45NzM4NQ==)">
    <text x="540.04" y="21.33" style="font-size: 9.96px; fill: #FFF; font-family: Arial;" textLength="49.21px" lengthAdjust="spacingAndGlyphs">MATCHER</text>
  </g>
  <polyline points="326.31,276.51 365.14,276.51 365.05,276.51 365.40,276.49 365.74,276.43 366.07,276.30 366.37,276.13 366.64,275.91 366.87,275.65 367.05,275.35 367.19,275.03 367.27,274.70 367.30,274.35 367.30,274.35 367.30,264.31 367.30,264.31 367.27,263.97 367.19,263.63 367.05,263.31 366.87,263.02 366.64,262.76 366.37,262.54 366.07,262.36 365.74,262.24 365.40,262.17 365.14,262.15 326.31,262.15 326.57,262.17 326.22,262.16 325.87,262.20 325.54,262.29 325.23,262.44 324.94,262.64 324.69,262.88 324.48,263.16 324.32,263.47 324.21,263.80 324.15,264.14 324.15,264.31 324.15,274.35 324.15,274.18 324.15,274.52 324.21,274.87 324.32,275.20 324.48,275.50 324.69,275.78 324.94,276.02 325.23,276.22 325.54,276.37 325.87,276.47 326.22,276.51 " style="stroke-width: 0.53; stroke: #E0AB00; fill: #E0AB00;" clip-path="url(#cpNi45NzM4NXw3MTMuMDI2fDI4MC40NDV8Ni45NzM4NQ==)"/>
  <g clip-path="url(#cpNi45NzM4NXw3MTMuMDI2fDI4MC40NDV8Ni45NzM4NQ==)">
    <text x="327.75" y="272.91" style="font-size: 9.96px; fill: #FFF; font-family: Arial;" textLength="35.95px" lengthAdjust="spacingAndGlyphs">ECLAIR</text>
  </g>
  <polyline points="185.61,273.22 216.15,273.22 216.06,273.22 216.41,273.21 216.75,273.14 217.07,273.02 217.37,272.84 217.64,272.62 217.87,272.36 218.06,272.07 218.20,271.75 218.28,271.41 218.31,271.06 218.31,271.06 218.31,261.03 218.31,261.03 218.28,260.68 218.20,260.34 218.06,260.02 217.87,259.73 217.64,259.47 217.37,259.25 217.07,259.08 216.75,258.95 216.41,258.88 216.15,258.87 185.61,258.87 185.87,258.88 185.52,258.87 185.18,258.91 184.84,259.01 184.53,259.16 184.24,259.35 183.99,259.60 183.78,259.87 183.62,260.18 183.51,260.51 183.46,260.85 183.45,261.03 183.45,271.06 183.46,270.89 183.46,271.24 183.51,271.58 183.62,271.91 183.78,272.22 183.99,272.50 184.24,272.74 184.53,272.93 184.84,273.08 185.18,273.18 185.52,273.22 " style="stroke-width: 0.53; stroke: #E0AB00; fill: #E0AB00;" clip-path="url(#cpNi45NzM4NXw3MTMuMDI2fDI4MC40NDV8Ni45NzM4NQ==)"/>
  <g clip-path="url(#cpNi45NzM4NXw3MTMuMDI2fDI4MC40NDV8Ni45NzM4NQ==)">
    <text x="187.05" y="269.62" style="font-size: 9.96px; fill: #FFF; font-family: Arial;" textLength="27.66px" lengthAdjust="spacingAndGlyphs">sincell</text>
  </g>
  <polyline points="550.45,44.86 593.73,44.86 593.65,44.86 593.99,44.84 594.33,44.77 594.66,44.65 594.96,44.48 595.23,44.26 595.46,44.00 595.65,43.70 595.78,43.38 595.87,43.05 595.89,42.70 595.89,42.70 595.89,32.66 595.89,32.66 595.87,32.32 595.78,31.98 595.65,31.66 595.46,31.37 595.23,31.11 594.96,30.89 594.66,30.71 594.33,30.59 593.99,30.52 593.73,30.50 550.45,30.50 550.71,30.52 550.37,30.50 550.02,30.55 549.69,30.64 549.37,30.79 549.09,30.99 548.84,31.23 548.63,31.51 548.47,31.82 548.36,32.15 548.30,32.49 548.29,32.66 548.29,42.70 548.30,42.53 548.30,42.87 548.36,43.22 548.47,43.55 548.63,43.85 548.84,44.13 549.09,44.37 549.37,44.57 549.69,44.72 550.02,44.82 550.37,44.86 " style="stroke-width: 0.53; stroke: #0278DD; fill: #0278DD;" clip-path="url(#cpNi45NzM4NXw3MTMuMDI2fDI4MC40NDV8Ni45NzM4NQ==)"/>
  <g clip-path="url(#cpNi45NzM4NXw3MTMuMDI2fDI4MC40NDV8Ni45NzM4NQ==)">
    <text x="551.89" y="41.26" style="font-size: 9.96px; fill: #FFF; font-family: Arial;" textLength="40.40px" lengthAdjust="spacingAndGlyphs">HopLand</text>
  </g>
  <polyline points="543.54,61.87 595.68,61.87 595.59,61.87 595.94,61.85 596.28,61.79 596.60,61.66 596.90,61.49 597.17,61.27 597.40,61.01 597.59,60.71 597.73,60.39 597.81,60.06 597.84,59.71 597.84,59.71 597.84,49.67 597.84,49.67 597.81,49.33 597.73,48.99 597.59,48.67 597.40,48.38 597.17,48.12 596.90,47.90 596.60,47.72 596.28,47.60 595.94,47.53 595.68,47.51 543.54,47.51 543.80,47.53 543.46,47.52 543.11,47.56 542.78,47.65 542.46,47.80 542.18,48.00 541.93,48.24 541.72,48.52 541.56,48.83 541.44,49.16 541.39,49.50 541.38,49.67 541.38,59.71 541.39,59.54 541.39,59.88 541.44,60.23 541.56,60.56 541.72,60.87 541.93,61.14 542.18,61.38 542.46,61.58 542.78,61.73 543.11,61.83 543.46,61.87 " style="stroke-width: 0.53; stroke: #0278DD; fill: #0278DD;" clip-path="url(#cpNi45NzM4NXw3MTMuMDI2fDI4MC40NDV8Ni45NzM4NQ==)"/>
  <g clip-path="url(#cpNi45NzM4NXw3MTMuMDI2fDI4MC40NDV8Ni45NzM4NQ==)">
    <text x="544.98" y="58.27" style="font-size: 9.96px; fill: #FFF; font-family: Arial;" textLength="49.26px" lengthAdjust="spacingAndGlyphs">PhenoPath</text>
  </g>
  <polyline points="566.47,248.47 600.89,248.47 600.80,248.46 601.15,248.45 601.49,248.38 601.81,248.26 602.12,248.08 602.38,247.86 602.62,247.60 602.80,247.31 602.94,246.99 603.02,246.65 603.05,246.31 603.05,246.31 603.05,236.27 603.05,236.27 603.02,235.92 602.94,235.59 602.80,235.27 602.62,234.97 602.38,234.71 602.12,234.49 601.81,234.32 601.49,234.20 601.15,234.13 600.89,234.11 566.47,234.11 566.73,234.13 566.39,234.11 566.04,234.15 565.71,234.25 565.39,234.40 565.11,234.60 564.86,234.84 564.65,235.12 564.49,235.42 564.38,235.75 564.32,236.10 564.31,236.27 564.31,246.31 564.32,246.13 564.32,246.48 564.38,246.82 564.49,247.15 564.65,247.46 564.86,247.74 565.11,247.98 565.39,248.18 565.71,248.33 566.04,248.42 566.39,248.46 " style="stroke-width: 0.53; stroke: #3AD1D1; fill: #3AD1D1;" clip-path="url(#cpNi45NzM4NXw3MTMuMDI2fDI4MC40NDV8Ni45NzM4NQ==)"/>
  <g clip-path="url(#cpNi45NzM4NXw3MTMuMDI2fDI4MC40NDV8Ni45NzM4NQ==)">
    <text x="567.91" y="244.87" style="font-size: 9.96px; fill: #FFF; font-family: Arial;" textLength="31.54px" lengthAdjust="spacingAndGlyphs">scanpy</text>
  </g>
  <polyline points="357.18,24.93 403.79,24.93 403.70,24.93 404.05,24.91 404.39,24.84 404.71,24.72 405.01,24.55 405.28,24.33 405.51,24.07 405.70,23.77 405.84,23.45 405.92,23.12 405.95,22.77 405.95,22.77 405.95,12.73 405.95,12.73 405.92,12.39 405.84,12.05 405.70,11.73 405.51,11.44 405.28,11.18 405.01,10.96 404.71,10.78 404.39,10.66 404.05,10.59 403.79,10.57 357.18,10.57 357.44,10.59 357.10,10.58 356.75,10.62 356.42,10.71 356.10,10.86 355.82,11.06 355.57,11.30 355.36,11.58 355.20,11.89 355.09,12.22 355.03,12.56 355.02,12.73 355.02,22.77 355.03,22.60 355.03,22.94 355.09,23.29 355.20,23.62 355.36,23.92 355.57,24.20 355.82,24.44 356.10,24.64 356.42,24.79 356.75,24.89 357.10,24.93 " style="stroke-width: 0.53; stroke: #0278DD; fill: #0278DD;" clip-path="url(#cpNi45NzM4NXw3MTMuMDI2fDI4MC40NDV8Ni45NzM4NQ==)"/>
  <g clip-path="url(#cpNi45NzM4NXw3MTMuMDI2fDI4MC40NDV8Ni45NzM4NQ==)">
    <text x="358.62" y="21.33" style="font-size: 9.96px; fill: #FFF; font-family: Arial;" textLength="43.72px" lengthAdjust="spacingAndGlyphs">pseudogp</text>
  </g>
  <polyline points="459.54,192.92 511.66,192.92 511.57,192.92 511.92,192.90 512.26,192.83 512.58,192.71 512.89,192.54 513.15,192.32 513.39,192.06 513.57,191.76 513.71,191.44 513.79,191.11 513.82,190.76 513.82,190.76 513.82,180.72 513.82,180.72 513.79,180.38 513.71,180.04 513.57,179.72 513.39,179.43 513.15,179.17 512.89,178.95 512.58,178.77 512.26,178.65 511.92,178.58 511.66,178.56 459.54,178.56 459.80,178.58 459.46,178.57 459.11,178.61 458.78,178.70 458.46,178.85 458.18,179.05 457.93,179.29 457.72,179.57 457.56,179.88 457.45,180.21 457.39,180.55 457.38,180.72 457.38,190.76 457.39,190.59 457.39,190.93 457.45,191.28 457.56,191.61 457.72,191.91 457.93,192.19 458.18,192.43 458.46,192.63 458.78,192.78 459.11,192.88 459.46,192.92 " style="stroke-width: 0.53; stroke: #E0AB00; fill: #E0AB00;" clip-path="url(#cpNi45NzM4NXw3MTMuMDI2fDI4MC40NDV8Ni45NzM4NQ==)"/>
  <g clip-path="url(#cpNi45NzM4NXw3MTMuMDI2fDI4MC40NDV8Ni45NzM4NQ==)">
    <text x="460.98" y="189.32" style="font-size: 9.96px; fill: #FFF; font-family: Arial;" textLength="49.24px" lengthAdjust="spacingAndGlyphs">k-branches</text>
  </g>
  <polyline points="400.12,45.66 426.24,45.66 426.15,45.66 426.50,45.64 426.84,45.57 427.16,45.45 427.46,45.28 427.73,45.06 427.96,44.80 428.15,44.50 428.28,44.18 428.37,43.85 428.40,43.50 428.40,43.50 428.40,33.46 428.40,33.46 428.37,33.12 428.28,32.78 428.15,32.46 427.96,32.17 427.73,31.91 427.46,31.69 427.16,31.51 426.84,31.39 426.50,31.32 426.24,31.30 400.12,31.30 400.38,31.32 400.03,31.30 399.69,31.35 399.35,31.44 399.04,31.59 398.75,31.79 398.50,32.03 398.30,32.31 398.13,32.62 398.02,32.95 397.97,33.29 397.96,33.46 397.96,43.50 397.97,43.33 397.97,43.67 398.02,44.02 398.13,44.35 398.30,44.65 398.50,44.93 398.75,45.17 399.04,45.37 399.35,45.52 399.69,45.62 400.03,45.66 " style="stroke-width: 0.53; stroke: #0278DD; fill: #0278DD;" clip-path="url(#cpNi45NzM4NXw3MTMuMDI2fDI4MC40NDV8Ni45NzM4NQ==)"/>
  <g clip-path="url(#cpNi45NzM4NXw3MTMuMDI2fDI4MC40NDV8Ni45NzM4NQ==)">
    <text x="401.56" y="42.06" style="font-size: 9.96px; fill: #FFF; font-family: Arial;" textLength="23.24px" lengthAdjust="spacingAndGlyphs">Ouija</text>
  </g>
  <polyline points="638.75,259.56 677.59,259.56 677.51,259.56 677.85,259.55 678.19,259.48 678.52,259.35 678.82,259.18 679.09,258.96 679.32,258.70 679.51,258.41 679.64,258.09 679.73,257.75 679.75,257.40 679.75,257.40 679.75,247.37 679.75,247.37 679.73,247.02 679.64,246.68 679.51,246.36 679.32,246.07 679.09,245.81 678.82,245.59 678.52,245.41 678.19,245.29 677.85,245.22 677.59,245.21 638.75,245.21 639.01,245.22 638.66,245.21 638.32,245.25 637.98,245.35 637.67,245.49 637.38,245.69 637.13,245.93 636.92,246.21 636.76,246.52 636.65,246.85 636.60,247.19 636.59,247.37 636.59,257.40 636.60,257.23 636.60,257.58 636.65,257.92 636.76,258.25 636.92,258.56 637.13,258.83 637.38,259.07 637.67,259.27 637.98,259.42 638.32,259.52 638.66,259.56 " style="stroke-width: 0.53; stroke: #E0AB00; fill: #E0AB00;" clip-path="url(#cpNi45NzM4NXw3MTMuMDI2fDI4MC40NDV8Ni45NzM4NQ==)"/>
  <g clip-path="url(#cpNi45NzM4NXw3MTMuMDI2fDI4MC40NDV8Ni45NzM4NQ==)">
    <text x="640.19" y="255.96" style="font-size: 9.96px; fill: #FFF; font-family: Arial;" textLength="35.96px" lengthAdjust="spacingAndGlyphs">scEpath</text>
  </g>
  <polyline points="511.85,48.78 551.23,48.78 551.14,48.78 551.49,48.76 551.83,48.69 552.15,48.57 552.45,48.40 552.72,48.18 552.95,47.92 553.14,47.62 553.27,47.30 553.36,46.96 553.39,46.62 553.39,46.62 553.39,36.58 553.39,36.58 553.36,36.24 553.27,35.90 553.14,35.58 552.95,35.28 552.72,35.02 552.45,34.80 552.15,34.63 551.83,34.51 551.49,34.44 551.23,34.42 511.85,34.42 512.11,34.44 511.76,34.42 511.42,34.47 511.08,34.56 510.77,34.71 510.48,34.91 510.23,35.15 510.02,35.43 509.86,35.73 509.75,36.06 509.69,36.41 509.69,36.58 509.69,46.62 509.69,46.44 509.69,46.79 509.75,47.13 509.86,47.46 510.02,47.77 510.23,48.05 510.48,48.29 510.77,48.49 511.08,48.64 511.42,48.73 511.76,48.78 " style="stroke-width: 0.53; stroke: #E0AB00; fill: #E0AB00;" clip-path="url(#cpNi45NzM4NXw3MTMuMDI2fDI4MC40NDV8Ni45NzM4NQ==)"/>
  <g clip-path="url(#cpNi45NzM4NXw3MTMuMDI2fDI4MC40NDV8Ni45NzM4NQ==)">
    <text x="513.29" y="45.18" style="font-size: 9.96px; fill: #FFF; font-family: Arial;" textLength="36.50px" lengthAdjust="spacingAndGlyphs">SOMSC</text>
  </g>
  <polyline points="51.91,248.09 100.71,248.09 100.63,248.08 100.97,248.07 101.31,248.00 101.64,247.88 101.94,247.70 102.21,247.48 102.44,247.22 102.63,246.93 102.76,246.61 102.85,246.27 102.87,245.93 102.87,245.93 102.87,235.89 102.87,235.89 102.85,235.54 102.76,235.21 102.63,234.89 102.44,234.59 102.21,234.33 101.94,234.11 101.64,233.94 101.31,233.82 100.97,233.75 100.71,233.73 51.91,233.73 52.17,233.75 51.83,233.73 51.48,233.77 51.15,233.87 50.83,234.02 50.55,234.22 50.30,234.46 50.09,234.74 49.92,235.04 49.81,235.37 49.76,235.72 49.75,235.89 49.75,245.93 49.76,245.75 49.76,246.10 49.81,246.44 49.92,246.77 50.09,247.08 50.30,247.36 50.55,247.60 50.83,247.80 51.15,247.95 51.48,248.04 51.83,248.08 " style="stroke-width: 0.53; stroke: #E0AB00; fill: #E0AB00;" clip-path="url(#cpNi45NzM4NXw3MTMuMDI2fDI4MC40NDV8Ni45NzM4NQ==)"/>
  <g clip-path="url(#cpNi45NzM4NXw3MTMuMDI2fDI4MC40NDV8Ni45NzM4NQ==)">
    <text x="53.35" y="244.49" style="font-size: 9.96px; fill: #FFF; font-family: Arial;" textLength="45.92px" lengthAdjust="spacingAndGlyphs">Monocle 1</text>
  </g>
  <polyline points="525.93,274.23 558.67,274.23 558.58,274.23 558.93,274.22 559.27,274.15 559.59,274.02 559.89,273.85 560.16,273.63 560.39,273.37 560.58,273.08 560.72,272.76 560.80,272.42 560.83,272.07 560.83,272.07 560.83,262.04 560.83,262.04 560.80,261.69 560.72,261.35 560.58,261.03 560.39,260.74 560.16,260.48 559.89,260.26 559.59,260.09 559.27,259.96 558.93,259.89 558.67,259.88 525.93,259.88 526.19,259.89 525.84,259.88 525.49,259.92 525.16,260.02 524.85,260.17 524.56,260.36 524.31,260.60 524.10,260.88 523.94,261.19 523.83,261.52 523.77,261.86 523.77,262.04 523.77,272.07 523.77,271.90 523.77,272.25 523.83,272.59 523.94,272.92 524.10,273.23 524.31,273.51 524.56,273.75 524.85,273.94 525.16,274.09 525.49,274.19 525.84,274.23 " style="stroke-width: 0.53; stroke: #0278DD; fill: #0278DD;" clip-path="url(#cpNi45NzM4NXw3MTMuMDI2fDI4MC40NDV8Ni45NzM4NQ==)"/>
  <g clip-path="url(#cpNi45NzM4NXw3MTMuMDI2fDI4MC40NDV8Ni45NzM4NQ==)">
    <text x="527.37" y="270.63" style="font-size: 9.96px; fill: #FFF; font-family: Arial;" textLength="29.86px" lengthAdjust="spacingAndGlyphs">scTDA</text>
  </g>
  <polyline points="59.22,270.33 112.44,270.33 112.35,270.33 112.70,270.32 113.04,270.25 113.37,270.13 113.67,269.95 113.94,269.73 114.17,269.47 114.35,269.18 114.49,268.86 114.57,268.52 114.60,268.17 114.60,268.17 114.60,258.14 114.60,258.14 114.57,257.79 114.49,257.45 114.35,257.13 114.17,256.84 113.94,256.58 113.67,256.36 113.37,256.19 113.04,256.06 112.70,255.99 112.44,255.98 59.22,255.98 59.48,255.99 59.13,255.98 58.79,256.02 58.46,256.12 58.14,256.27 57.86,256.46 57.60,256.71 57.40,256.98 57.23,257.29 57.12,257.62 57.07,257.96 57.06,258.14 57.06,268.17 57.07,268.00 57.07,268.35 57.12,268.69 57.23,269.02 57.40,269.33 57.60,269.61 57.86,269.85 58.14,270.04 58.46,270.19 58.79,270.29 59.13,270.33 " style="stroke-width: 0.53; stroke: #0278DD; fill: #0278DD;" clip-path="url(#cpNi45NzM4NXw3MTMuMDI2fDI4MC40NDV8Ni45NzM4NQ==)"/>
  <g clip-path="url(#cpNi45NzM4NXw3MTMuMDI2fDI4MC40NDV8Ni45NzM4NQ==)">
    <text x="60.66" y="266.73" style="font-size: 9.96px; fill: #FFF; font-family: Arial;" textLength="50.34px" lengthAdjust="spacingAndGlyphs">Wanderlust</text>
  </g>
  <polyline points="489.34,212.54 538.14,212.54 538.06,212.54 538.40,212.53 538.74,212.46 539.07,212.33 539.37,212.16 539.64,211.94 539.87,211.68 540.05,211.39 540.19,211.07 540.27,210.73 540.30,210.38 540.30,210.38 540.30,200.35 540.30,200.35 540.27,200.00 540.19,199.66 540.05,199.34 539.87,199.05 539.64,198.79 539.37,198.57 539.07,198.39 538.74,198.27 538.40,198.20 538.14,198.19 489.34,198.19 489.60,198.20 489.25,198.19 488.91,198.23 488.57,198.33 488.26,198.48 487.97,198.67 487.72,198.91 487.52,199.19 487.35,199.50 487.24,199.83 487.19,200.17 487.18,200.35 487.18,210.38 487.19,210.21 487.19,210.56 487.24,210.90 487.35,211.23 487.52,211.54 487.72,211.81 487.97,212.06 488.26,212.25 488.57,212.40 488.91,212.50 489.25,212.54 " style="stroke-width: 0.53; stroke: #E0AB00; fill: #E0AB00;" clip-path="url(#cpNi45NzM4NXw3MTMuMDI2fDI4MC40NDV8Ni45NzM4NQ==)"/>
  <g clip-path="url(#cpNi45NzM4NXw3MTMuMDI2fDI4MC40NDV8Ni45NzM4NQ==)">
    <text x="490.78" y="208.94" style="font-size: 9.96px; fill: #FFF; font-family: Arial;" textLength="45.92px" lengthAdjust="spacingAndGlyphs">Monocle 2</text>
  </g>
  <polyline points="568.14,109.89 590.94,109.89 590.85,109.89 591.20,109.87 591.54,109.80 591.87,109.68 592.17,109.51 592.44,109.29 592.67,109.03 592.85,108.73 592.99,108.41 593.07,108.08 593.10,107.73 593.10,107.73 593.10,97.69 593.10,97.69 593.07,97.35 592.99,97.01 592.85,96.69 592.67,96.40 592.44,96.14 592.17,95.92 591.87,95.74 591.54,95.62 591.20,95.55 590.94,95.53 568.14,95.53 568.40,95.55 568.06,95.53 567.71,95.58 567.38,95.67 567.06,95.82 566.78,96.02 566.53,96.26 566.32,96.54 566.16,96.85 566.05,97.18 565.99,97.52 565.98,97.69 565.98,107.73 565.99,107.56 565.99,107.90 566.05,108.25 566.16,108.58 566.32,108.88 566.53,109.16 566.78,109.40 567.06,109.60 567.38,109.75 567.71,109.85 568.06,109.89 " style="stroke-width: 0.53; stroke: #7FBE00; fill: #7FBE00;" clip-path="url(#cpNi45NzM4NXw3MTMuMDI2fDI4MC40NDV8Ni45NzM4NQ==)"/>
  <g clip-path="url(#cpNi45NzM4NXw3MTMuMDI2fDI4MC40NDV8Ni45NzM4NQ==)">
    <text x="569.58" y="106.29" style="font-size: 9.96px; fill: #FFF; font-family: Arial;" textLength="19.92px" lengthAdjust="spacingAndGlyphs">PBA</text>
  </g>
  <polyline points="622.03,158.71 681.90,158.71 681.81,158.71 682.16,158.70 682.50,158.63 682.83,158.50 683.13,158.33 683.40,158.11 683.63,157.85 683.81,157.56 683.95,157.24 684.03,156.90 684.06,156.55 684.06,156.55 684.06,146.52 684.06,146.52 684.03,146.17 683.95,145.83 683.81,145.51 683.63,145.22 683.40,144.96 683.13,144.74 682.83,144.56 682.50,144.44 682.16,144.37 681.90,144.36 622.03,144.36 622.29,144.37 621.94,144.36 621.60,144.40 621.26,144.50 620.95,144.65 620.66,144.84 620.41,145.08 620.20,145.36 620.04,145.67 619.93,146.00 619.87,146.34 619.87,146.52 619.87,156.55 619.87,156.38 619.87,156.73 619.93,157.07 620.04,157.40 620.20,157.71 620.41,157.98 620.66,158.23 620.95,158.42 621.26,158.57 621.60,158.67 621.94,158.71 " style="stroke-width: 0.53; stroke: #E0AB00; fill: #E0AB00;" clip-path="url(#cpNi45NzM4NXw3MTMuMDI2fDI4MC40NDV8Ni45NzM4NQ==)"/>
  <g clip-path="url(#cpNi45NzM4NXw3MTMuMDI2fDI4MC40NDV8Ni45NzM4NQ==)">
    <text x="623.47" y="155.11" style="font-size: 9.96px; fill: #FFF; font-family: Arial;" textLength="56.99px" lengthAdjust="spacingAndGlyphs">Topographer</text>
  </g>
  <polyline points="368.09,179.24 415.23,179.24 415.14,179.24 415.49,179.22 415.83,179.15 416.15,179.03 416.46,178.86 416.72,178.64 416.96,178.38 417.14,178.08 417.28,177.76 417.36,177.43 417.39,177.08 417.39,177.08 417.39,167.04 417.39,167.04 417.36,166.70 417.28,166.36 417.14,166.04 416.96,165.74 416.72,165.48 416.46,165.26 416.15,165.09 415.83,164.97 415.49,164.90 415.23,164.88 368.09,164.88 368.35,164.90 368.00,164.88 367.66,164.93 367.32,165.02 367.01,165.17 366.72,165.37 366.47,165.61 366.26,165.89 366.10,166.20 365.99,166.53 365.94,166.87 365.93,167.04 365.93,177.08 365.94,176.90 365.94,177.25 365.99,177.60 366.10,177.93 366.26,178.23 366.47,178.51 366.72,178.75 367.01,178.95 367.32,179.10 367.66,179.19 368.00,179.24 " style="stroke-width: 0.53; stroke: #3AD1D1; fill: #3AD1D1;" clip-path="url(#cpNi45NzM4NXw3MTMuMDI2fDI4MC40NDV8Ni45NzM4NQ==)"/>
  <g clip-path="url(#cpNi45NzM4NXw3MTMuMDI2fDI4MC40NDV8Ni45NzM4NQ==)">
    <text x="369.53" y="175.64" style="font-size: 9.96px; fill: #FFF; font-family: Arial;" textLength="44.26px" lengthAdjust="spacingAndGlyphs">Wishbone</text>
  </g>
  <polyline points="532.53,230.42 576.89,230.42 576.80,230.42 577.15,230.40 577.49,230.33 577.81,230.21 578.12,230.04 578.39,229.82 578.62,229.56 578.80,229.26 578.94,228.94 579.02,228.61 579.05,228.26 579.05,228.26 579.05,218.22 579.05,218.22 579.02,217.88 578.94,217.54 578.80,217.22 578.62,216.92 578.39,216.66 578.12,216.44 577.81,216.27 577.49,216.15 577.15,216.08 576.89,216.06 532.53,216.06 532.79,216.08 532.45,216.06 532.10,216.11 531.77,216.20 531.45,216.35 531.17,216.55 530.92,216.79 530.71,217.07 530.55,217.38 530.44,217.71 530.38,218.05 530.37,218.22 530.37,228.26 530.38,228.08 530.38,228.43 530.44,228.78 530.55,229.11 530.71,229.41 530.92,229.69 531.17,229.93 531.45,230.13 531.77,230.28 532.10,230.37 532.45,230.42 " style="stroke-width: 0.53; stroke: #0278DD; fill: #0278DD;" clip-path="url(#cpNi45NzM4NXw3MTMuMDI2fDI4MC40NDV8Ni45NzM4NQ==)"/>
  <g clip-path="url(#cpNi45NzM4NXw3MTMuMDI2fDI4MC40NDV8Ni45NzM4NQ==)">
    <text x="533.97" y="226.82" style="font-size: 9.96px; fill: #FFF; font-family: Arial;" textLength="41.47px" lengthAdjust="spacingAndGlyphs">UNCURL</text>
  </g>
  <polyline points="515.03,171.53 547.22,171.53 547.13,171.52 547.48,171.51 547.82,171.44 548.14,171.32 548.44,171.14 548.71,170.92 548.94,170.66 549.13,170.37 549.27,170.05 549.35,169.71 549.38,169.37 549.38,169.37 549.38,159.33 549.38,159.33 549.35,158.98 549.27,158.65 549.13,158.33 548.94,158.03 548.71,157.77 548.44,157.55 548.14,157.38 547.82,157.25 547.48,157.19 547.22,157.17 515.03,157.17 515.29,157.19 514.94,157.17 514.60,157.21 514.26,157.31 513.95,157.46 513.66,157.66 513.41,157.90 513.20,158.18 513.04,158.48 512.93,158.81 512.87,159.16 512.87,159.33 512.87,169.37 512.87,169.19 512.87,169.54 512.93,169.88 513.04,170.21 513.20,170.52 513.41,170.80 513.66,171.04 513.95,171.24 514.26,171.39 514.60,171.48 514.94,171.52 " style="stroke-width: 0.53; stroke: #E0AB00; fill: #E0AB00;" clip-path="url(#cpNi45NzM4NXw3MTMuMDI2fDI4MC40NDV8Ni45NzM4NQ==)"/>
  <g clip-path="url(#cpNi45NzM4NXw3MTMuMDI2fDI4MC40NDV8Ni45NzM4NQ==)">
    <text x="516.47" y="167.93" style="font-size: 9.96px; fill: #FFF; font-family: Arial;" textLength="29.31px" lengthAdjust="spacingAndGlyphs">TASIC</text>
  </g>
  <polyline points="448.26,229.89 484.87,229.89 484.78,229.89 485.13,229.87 485.47,229.80 485.80,229.68 486.10,229.51 486.37,229.29 486.60,229.03 486.78,228.73 486.92,228.41 487.00,228.07 487.03,227.73 487.03,227.73 487.03,217.69 487.03,217.69 487.00,217.35 486.92,217.01 486.78,216.69 486.60,216.39 486.37,216.13 486.10,215.91 485.80,215.74 485.47,215.62 485.13,215.55 484.87,215.53 448.26,215.53 448.52,215.55 448.17,215.53 447.83,215.58 447.49,215.67 447.18,215.82 446.89,216.02 446.64,216.26 446.43,216.54 446.27,216.85 446.16,217.18 446.10,217.52 446.10,217.69 446.10,227.73 446.10,227.55 446.10,227.90 446.16,228.25 446.27,228.57 446.43,228.88 446.64,229.16 446.89,229.40 447.18,229.60 447.49,229.75 447.83,229.84 448.17,229.89 " style="stroke-width: 0.53; stroke: #0278DD; fill: #0278DD;" clip-path="url(#cpNi45NzM4NXw3MTMuMDI2fDI4MC40NDV8Ni45NzM4NQ==)"/>
  <g clip-path="url(#cpNi45NzM4NXw3MTMuMDI2fDI4MC40NDV8Ni45NzM4NQ==)">
    <text x="449.70" y="226.29" style="font-size: 9.96px; fill: #FFF; font-family: Arial;" textLength="33.73px" lengthAdjust="spacingAndGlyphs">SCENT</text>
  </g>
  <polyline points="583.81,266.21 651.42,266.21 651.34,266.21 651.68,266.20 652.02,266.13 652.35,266.01 652.65,265.83 652.92,265.61 653.15,265.35 653.34,265.06 653.47,264.74 653.55,264.40 653.58,264.05 653.58,264.05 653.58,254.02 653.58,254.02 653.55,253.67 653.47,253.33 653.34,253.01 653.15,252.72 652.92,252.46 652.65,252.24 652.35,252.07 652.02,251.94 651.68,251.87 651.42,251.86 583.81,251.86 584.07,251.87 583.72,251.86 583.38,251.90 583.04,252.00 582.73,252.15 582.44,252.35 582.19,252.59 581.98,252.86 581.82,253.17 581.71,253.50 581.66,253.84 581.65,254.02 581.65,264.05 581.66,263.88 581.66,264.23 581.71,264.57 581.82,264.90 581.98,265.21 582.19,265.49 582.44,265.73 582.73,265.93 583.04,266.07 583.38,266.17 583.72,266.21 " style="stroke-width: 0.53; stroke: #0278DD; fill: #0278DD;" clip-path="url(#cpNi45NzM4NXw3MTMuMDI2fDI4MC40NDV8Ni45NzM4NQ==)"/>
  <g clip-path="url(#cpNi45NzM4NXw3MTMuMDI2fDI4MC40NDV8Ni45NzM4NQ==)">
    <text x="585.25" y="262.61" style="font-size: 9.96px; fill: #FFF; font-family: Arial;" textLength="64.73px" lengthAdjust="spacingAndGlyphs">GPseudoRank</text>
  </g>
  <polyline points="362.72,67.94 401.56,67.94 401.47,67.94 401.82,67.93 402.16,67.86 402.48,67.73 402.78,67.56 403.05,67.34 403.28,67.08 403.47,66.79 403.61,66.47 403.69,66.13 403.72,65.78 403.72,65.78 403.72,55.75 403.72,55.75 403.69,55.40 403.61,55.06 403.47,54.74 403.28,54.45 403.05,54.19 402.78,53.97 402.48,53.79 402.16,53.67 401.82,53.60 401.56,53.59 362.72,53.59 362.98,53.60 362.64,53.59 362.29,53.63 361.96,53.73 361.64,53.87 361.36,54.07 361.11,54.31 360.90,54.59 360.74,54.90 360.63,55.23 360.57,55.57 360.56,55.75 360.56,65.78 360.57,65.61 360.57,65.96 360.63,66.30 360.74,66.63 360.90,66.94 361.11,67.21 361.36,67.45 361.64,67.65 361.96,67.80 362.29,67.90 362.64,67.94 " style="stroke-width: 0.53; stroke: #FF4237; fill: #FF4237;" clip-path="url(#cpNi45NzM4NXw3MTMuMDI2fDI4MC40NDV8Ni45NzM4NQ==)"/>
  <g clip-path="url(#cpNi45NzM4NXw3MTMuMDI2fDI4MC40NDV8Ni45NzM4NQ==)">
    <text x="364.16" y="64.34" style="font-size: 9.96px; fill: #FFF; font-family: Arial;" textLength="35.95px" lengthAdjust="spacingAndGlyphs">SLICER</text>
  </g>
  <polyline points="559.39,189.54 648.52,189.54 648.44,189.53 648.78,189.52 649.12,189.45 649.45,189.33 649.75,189.15 650.02,188.93 650.25,188.67 650.44,188.38 650.57,188.06 650.66,187.72 650.68,187.38 650.68,187.38 650.68,177.34 650.68,177.34 650.66,176.99 650.57,176.66 650.44,176.34 650.25,176.04 650.02,175.78 649.75,175.56 649.45,175.39 649.12,175.26 648.78,175.20 648.52,175.18 559.39,175.18 559.65,175.20 559.31,175.18 558.96,175.22 558.63,175.32 558.31,175.47 558.03,175.67 557.78,175.91 557.57,176.18 557.41,176.49 557.30,176.82 557.24,177.17 557.23,177.34 557.23,187.38 557.24,187.20 557.24,187.55 557.30,187.89 557.41,188.22 557.57,188.53 557.78,188.81 558.03,189.05 558.31,189.25 558.63,189.40 558.96,189.49 559.31,189.53 " style="stroke-width: 0.53; stroke: #FF4237; fill: #FF4237;" clip-path="url(#cpNi45NzM4NXw3MTMuMDI2fDI4MC40NDV8Ni45NzM4NQ==)"/>
  <g clip-path="url(#cpNi45NzM4NXw3MTMuMDI2fDI4MC40NDV8Ni45NzM4NQ==)">
    <text x="560.83" y="185.94" style="font-size: 9.96px; fill: #FFF; font-family: Arial;" textLength="86.25px" lengthAdjust="spacingAndGlyphs">WADDINGTON-OT</text>
  </g>
  <polyline points="607.84,214.47 655.53,214.47 655.44,214.46 655.79,214.45 656.13,214.38 656.45,214.26 656.75,214.08 657.02,213.86 657.25,213.60 657.44,213.31 657.58,212.99 657.66,212.65 657.69,212.31 657.69,212.31 657.69,202.27 657.69,202.27 657.66,201.92 657.58,201.59 657.44,201.27 657.25,200.97 657.02,200.71 656.75,200.49 656.45,200.32 656.13,200.20 655.79,200.13 655.53,200.11 607.84,200.11 608.10,200.13 607.76,200.11 607.41,200.15 607.08,200.25 606.76,200.40 606.48,200.60 606.23,200.84 606.02,201.12 605.86,201.42 605.75,201.75 605.69,202.10 605.68,202.27 605.68,212.31 605.69,212.13 605.69,212.48 605.75,212.82 605.86,213.15 606.02,213.46 606.23,213.74 606.48,213.98 606.76,214.18 607.08,214.33 607.41,214.42 607.76,214.46 " style="stroke-width: 0.53; stroke: #7FBE00; fill: #7FBE00;" clip-path="url(#cpNi45NzM4NXw3MTMuMDI2fDI4MC40NDV8Ni45NzM4NQ==)"/>
  <g clip-path="url(#cpNi45NzM4NXw3MTMuMDI2fDI4MC40NDV8Ni45NzM4NQ==)">
    <text x="609.28" y="210.87" style="font-size: 9.96px; fill: #FFF; font-family: Arial;" textLength="44.80px" lengthAdjust="spacingAndGlyphs">GrandPrix</text>
  </g>
  <polyline points="490.59,128.06 537.72,128.06 537.64,128.05 537.98,128.04 538.32,127.97 538.65,127.85 538.95,127.67 539.22,127.45 539.45,127.19 539.64,126.90 539.77,126.58 539.85,126.24 539.88,125.90 539.88,125.90 539.88,115.86 539.88,115.86 539.85,115.51 539.77,115.18 539.64,114.86 539.45,114.56 539.22,114.30 538.95,114.08 538.65,113.91 538.32,113.78 537.98,113.72 537.72,113.70 490.59,113.70 490.85,113.72 490.50,113.70 490.16,113.74 489.82,113.84 489.51,113.99 489.22,114.19 488.97,114.43 488.76,114.71 488.60,115.01 488.49,115.34 488.44,115.69 488.43,115.86 488.43,125.90 488.44,125.72 488.44,126.07 488.49,126.41 488.60,126.74 488.76,127.05 488.97,127.33 489.22,127.57 489.51,127.77 489.82,127.92 490.16,128.01 490.50,128.05 " style="stroke-width: 0.53; stroke: #E0AB00; fill: #E0AB00;" clip-path="url(#cpNi45NzM4NXw3MTMuMDI2fDI4MC40NDV8Ni45NzM4NQ==)"/>
  <g clip-path="url(#cpNi45NzM4NXw3MTMuMDI2fDI4MC40NDV8Ni45NzM4NQ==)">
    <text x="492.03" y="124.46" style="font-size: 9.96px; fill: #FFF; font-family: Arial;" textLength="44.25px" lengthAdjust="spacingAndGlyphs">Granatum</text>
  </g>
  <polyline points="266.54,224.90 326.41,224.90 326.32,224.90 326.67,224.88 327.01,224.81 327.34,224.69 327.64,224.52 327.91,224.30 328.14,224.04 328.32,223.74 328.46,223.42 328.54,223.09 328.57,222.74 328.57,222.74 328.57,212.70 328.57,212.70 328.54,212.36 328.46,212.02 328.32,211.70 328.14,211.40 327.91,211.14 327.64,210.92 327.34,210.75 327.01,210.63 326.67,210.56 326.41,210.54 266.54,210.54 266.80,210.56 266.45,210.54 266.11,210.59 265.77,210.68 265.46,210.83 265.17,211.03 264.92,211.27 264.71,211.55 264.55,211.86 264.44,212.19 264.39,212.53 264.38,212.70 264.38,222.74 264.39,222.56 264.39,222.91 264.44,223.26 264.55,223.59 264.71,223.89 264.92,224.17 265.17,224.41 265.46,224.61 265.77,224.76 266.11,224.85 266.45,224.90 " style="stroke-width: 0.53; stroke: #0278DD; fill: #0278DD;" clip-path="url(#cpNi45NzM4NXw3MTMuMDI2fDI4MC40NDV8Ni45NzM4NQ==)"/>
  <g clip-path="url(#cpNi45NzM4NXw3MTMuMDI2fDI4MC40NDV8Ni45NzM4NQ==)">
    <text x="267.98" y="221.30" style="font-size: 9.96px; fill: #FFF; font-family: Arial;" textLength="56.99px" lengthAdjust="spacingAndGlyphs">gpseudotime</text>
  </g>
  <polyline points="510.90,253.50 534.79,253.50 534.70,253.50 535.05,253.49 535.39,253.42 535.72,253.30 536.02,253.12 536.29,252.90 536.52,252.64 536.70,252.35 536.84,252.03 536.92,251.69 536.95,251.34 536.95,251.34 536.95,241.31 536.95,241.31 536.92,240.96 536.84,240.62 536.70,240.30 536.52,240.01 536.29,239.75 536.02,239.53 535.72,239.36 535.39,239.23 535.05,239.16 534.79,239.15 510.90,239.15 511.16,239.16 510.81,239.15 510.47,239.19 510.14,239.29 509.82,239.44 509.54,239.63 509.28,239.88 509.08,240.15 508.91,240.46 508.80,240.79 508.75,241.13 508.74,241.31 508.74,251.34 508.75,251.17 508.75,251.52 508.80,251.86 508.91,252.19 509.08,252.50 509.28,252.78 509.54,253.02 509.82,253.21 510.14,253.36 510.47,253.46 510.81,253.50 " style="stroke-width: 0.53; stroke: #7FBE00; fill: #7FBE00;" clip-path="url(#cpNi45NzM4NXw3MTMuMDI2fDI4MC40NDV8Ni45NzM4NQ==)"/>
  <g clip-path="url(#cpNi45NzM4NXw3MTMuMDI2fDI4MC40NDV8Ni45NzM4NQ==)">
    <text x="512.34" y="249.90" style="font-size: 9.96px; fill: #FFF; font-family: Arial;" textLength="21.01px" lengthAdjust="spacingAndGlyphs">MFA</text>
  </g>
  <polyline points="498.46,106.73 537.30,106.73 537.21,106.72 537.56,106.71 537.90,106.64 538.23,106.52 538.53,106.34 538.80,106.12 539.03,105.86 539.21,105.57 539.35,105.25 539.43,104.91 539.46,104.57 539.46,104.57 539.46,94.53 539.46,94.53 539.43,94.18 539.35,93.85 539.21,93.53 539.03,93.23 538.80,92.97 538.53,92.75 538.23,92.58 537.90,92.46 537.56,92.39 537.30,92.37 498.46,92.37 498.72,92.39 498.37,92.37 498.03,92.41 497.69,92.51 497.38,92.66 497.09,92.86 496.84,93.10 496.64,93.38 496.47,93.68 496.36,94.01 496.31,94.36 496.30,94.53 496.30,104.57 496.31,104.39 496.31,104.74 496.36,105.08 496.47,105.41 496.64,105.72 496.84,106.00 497.09,106.24 497.38,106.44 497.69,106.59 498.03,106.68 498.37,106.72 " style="stroke-width: 0.53; stroke: #7FBE00; fill: #7FBE00;" clip-path="url(#cpNi45NzM4NXw3MTMuMDI2fDI4MC40NDV8Ni45NzM4NQ==)"/>
  <g clip-path="url(#cpNi45NzM4NXw3MTMuMDI2fDI4MC40NDV8Ni45NzM4NQ==)">
    <text x="499.90" y="103.13" style="font-size: 9.96px; fill: #FFF; font-family: Arial;" textLength="35.96px" lengthAdjust="spacingAndGlyphs">GPfates</text>
  </g>
  <polyline points="415.14,268.97 453.42,268.97 453.34,268.97 453.68,268.96 454.03,268.89 454.35,268.77 454.65,268.59 454.92,268.37 455.15,268.11 455.34,267.82 455.47,267.50 455.56,267.16 455.58,266.81 455.58,266.81 455.58,256.78 455.58,256.78 455.56,256.43 455.47,256.09 455.34,255.77 455.15,255.48 454.92,255.22 454.65,255.00 454.35,254.83 454.03,254.70 453.68,254.63 453.42,254.62 415.14,254.62 415.40,254.63 415.06,254.62 414.71,254.66 414.38,254.76 414.06,254.91 413.78,255.11 413.53,255.35 413.32,255.62 413.16,255.93 413.05,256.26 412.99,256.60 412.98,256.78 412.98,266.81 412.99,266.64 412.99,266.99 413.05,267.33 413.16,267.66 413.32,267.97 413.53,268.25 413.78,268.49 414.06,268.69 414.38,268.83 414.71,268.93 415.06,268.97 " style="stroke-width: 0.53; stroke: #E0AB00; fill: #E0AB00;" clip-path="url(#cpNi45NzM4NXw3MTMuMDI2fDI4MC40NDV8Ni45NzM4NQ==)"/>
  <g clip-path="url(#cpNi45NzM4NXw3MTMuMDI2fDI4MC40NDV8Ni45NzM4NQ==)">
    <text x="416.58" y="265.37" style="font-size: 9.96px; fill: #FFF; font-family: Arial;" textLength="35.40px" lengthAdjust="spacingAndGlyphs">cellTree</text>
  </g>
  <polyline points="573.51,131.08 612.89,131.08 612.80,131.07 613.15,131.06 613.49,130.99 613.81,130.87 614.11,130.69 614.38,130.47 614.61,130.21 614.80,129.92 614.94,129.60 615.02,129.26 615.05,128.92 615.05,128.92 615.05,118.88 615.05,118.88 615.02,118.53 614.94,118.20 614.80,117.88 614.61,117.58 614.38,117.32 614.11,117.10 613.81,116.93 613.49,116.81 613.15,116.74 612.89,116.72 573.51,116.72 573.77,116.74 573.42,116.72 573.08,116.76 572.74,116.86 572.43,117.01 572.14,117.21 571.89,117.45 571.68,117.73 571.52,118.03 571.41,118.36 571.36,118.71 571.35,118.88 571.35,128.92 571.36,128.74 571.36,129.09 571.41,129.43 571.52,129.76 571.68,130.07 571.89,130.35 572.14,130.59 572.43,130.79 572.74,130.94 573.08,131.03 573.42,131.07 " style="stroke-width: 0.53; stroke: #FF8821; fill: #FF8821;" clip-path="url(#cpNi45NzM4NXw3MTMuMDI2fDI4MC40NDV8Ni45NzM4NQ==)"/>
  <g clip-path="url(#cpNi45NzM4NXw3MTMuMDI2fDI4MC40NDV8Ni45NzM4NQ==)">
    <text x="574.95" y="127.48" style="font-size: 9.96px; fill: #FFF; font-family: Arial;" textLength="36.50px" lengthAdjust="spacingAndGlyphs">B-RGPs</text>
  </g>
  <polyline points="372.95,253.61 399.61,253.61 399.52,253.60 399.87,253.59 400.21,253.52 400.54,253.40 400.84,253.22 401.11,253.00 401.34,252.74 401.52,252.45 401.66,252.13 401.74,251.79 401.77,251.45 401.77,251.45 401.77,241.41 401.77,241.41 401.74,241.06 401.66,240.73 401.52,240.41 401.34,240.11 401.11,239.85 400.84,239.63 400.54,239.46 400.21,239.34 399.87,239.27 399.61,239.25 372.95,239.25 373.21,239.27 372.86,239.25 372.51,239.29 372.18,239.39 371.87,239.54 371.58,239.74 371.33,239.98 371.12,240.26 370.96,240.56 370.85,240.89 370.79,241.24 370.79,241.41 370.79,251.45 370.79,251.27 370.79,251.62 370.85,251.96 370.96,252.29 371.12,252.60 371.33,252.88 371.58,253.12 371.87,253.32 372.18,253.47 372.51,253.56 372.86,253.60 " style="stroke-width: 0.53; stroke: #0278DD; fill: #0278DD;" clip-path="url(#cpNi45NzM4NXw3MTMuMDI2fDI4MC40NDV8Ni45NzM4NQ==)"/>
  <g clip-path="url(#cpNi45NzM4NXw3MTMuMDI2fDI4MC40NDV8Ni45NzM4NQ==)">
    <text x="374.39" y="250.01" style="font-size: 9.96px; fill: #FFF; font-family: Arial;" textLength="23.78px" lengthAdjust="spacingAndGlyphs">SCell</text>
  </g>
  <polyline points="638.34,237.23 680.49,237.23 680.40,237.23 680.75,237.22 681.09,237.15 681.41,237.02 681.71,236.85 681.98,236.63 682.21,236.37 682.40,236.07 682.54,235.75 682.62,235.42 682.65,235.07 682.65,235.07 682.65,225.03 682.65,225.03 682.62,224.69 682.54,224.35 682.40,224.03 682.21,223.74 681.98,223.48 681.71,223.26 681.41,223.08 681.09,222.96 680.75,222.89 680.49,222.87 638.34,222.87 638.60,222.89 638.25,222.88 637.91,222.92 637.57,223.02 637.26,223.16 636.97,223.36 636.72,223.60 636.51,223.88 636.35,224.19 636.24,224.52 636.19,224.86 636.18,225.03 636.18,235.07 636.19,234.90 636.19,235.24 636.24,235.59 636.35,235.92 636.51,236.23 636.72,236.50 636.97,236.74 637.26,236.94 637.57,237.09 637.91,237.19 638.25,237.23 " style="stroke-width: 0.53; stroke: #E0AB00; fill: #E0AB00;" clip-path="url(#cpNi45NzM4NXw3MTMuMDI2fDI4MC40NDV8Ni45NzM4NQ==)"/>
  <g clip-path="url(#cpNi45NzM4NXw3MTMuMDI2fDI4MC40NDV8Ni45NzM4NQ==)">
    <text x="639.78" y="233.63" style="font-size: 9.96px; fill: #FFF; font-family: Arial;" textLength="39.27px" lengthAdjust="spacingAndGlyphs">MERLoT</text>
  </g>
  <polyline points="491.57,149.82 529.30,149.82 529.21,149.82 529.56,149.81 529.90,149.74 530.22,149.61 530.52,149.44 530.79,149.22 531.02,148.96 531.21,148.67 531.34,148.35 531.43,148.01 531.46,147.66 531.46,147.66 531.46,137.63 531.46,137.63 531.43,137.28 531.34,136.94 531.21,136.62 531.02,136.33 530.79,136.07 530.52,135.85 530.22,135.67 529.90,135.55 529.56,135.48 529.30,135.47 491.57,135.47 491.83,135.48 491.48,135.47 491.13,135.51 490.80,135.61 490.49,135.75 490.20,135.95 489.95,136.19 489.74,136.47 489.58,136.78 489.47,137.11 489.41,137.45 489.41,137.63 489.41,147.66 489.41,147.49 489.41,147.84 489.47,148.18 489.58,148.51 489.74,148.82 489.95,149.09 490.20,149.33 490.49,149.53 490.80,149.68 491.13,149.78 491.48,149.82 " style="stroke-width: 0.53; stroke: #0278DD; fill: #0278DD;" clip-path="url(#cpNi45NzM4NXw3MTMuMDI2fDI4MC40NDV8Ni45NzM4NQ==)"/>
  <g clip-path="url(#cpNi45NzM4NXw3MTMuMDI2fDI4MC40NDV8Ni45NzM4NQ==)">
    <text x="493.01" y="146.22" style="font-size: 9.96px; fill: #FFF; font-family: Arial;" textLength="34.85px" lengthAdjust="spacingAndGlyphs">topslam</text>
  </g>
  <polyline points="471.43,276.69 503.08,276.69 502.99,276.68 503.34,276.67 503.68,276.60 504.00,276.48 504.31,276.30 504.58,276.08 504.81,275.82 504.99,275.53 505.13,275.21 505.21,274.87 505.24,274.53 505.24,274.53 505.24,264.49 505.24,264.49 505.21,264.14 505.13,263.81 504.99,263.49 504.81,263.19 504.58,262.93 504.31,262.71 504.00,262.54 503.68,262.42 503.34,262.35 503.08,262.33 471.43,262.33 471.69,262.35 471.35,262.33 471.00,262.37 470.67,262.47 470.35,262.62 470.07,262.82 469.82,263.06 469.61,263.34 469.45,263.64 469.34,263.97 469.28,264.32 469.27,264.49 469.27,274.53 469.28,274.35 469.28,274.70 469.34,275.04 469.45,275.37 469.61,275.68 469.82,275.96 470.07,276.20 470.35,276.40 470.67,276.55 471.00,276.64 471.35,276.68 " style="stroke-width: 0.53; stroke: #E0AB00; fill: #E0AB00;" clip-path="url(#cpNi45NzM4NXw3MTMuMDI2fDI4MC40NDV8Ni45NzM4NQ==)"/>
  <g clip-path="url(#cpNi45NzM4NXw3MTMuMDI2fDI4MC40NDV8Ni45NzM4NQ==)">
    <text x="472.87" y="273.09" style="font-size: 9.96px; fill: #FFF; font-family: Arial;" textLength="28.77px" lengthAdjust="spacingAndGlyphs">SLICE</text>
  </g>
  <polyline points="394.32,88.39 430.38,88.39 430.30,88.39 430.64,88.38 430.98,88.31 431.31,88.18 431.61,88.01 431.88,87.79 432.11,87.53 432.30,87.24 432.43,86.92 432.51,86.58 432.54,86.23 432.54,86.23 432.54,76.20 432.54,76.20 432.51,75.85 432.43,75.51 432.30,75.19 432.11,74.90 431.88,74.64 431.61,74.42 431.31,74.25 430.98,74.12 430.64,74.05 430.38,74.04 394.32,74.04 394.58,74.05 394.23,74.04 393.89,74.08 393.55,74.18 393.24,74.33 392.95,74.52 392.70,74.76 392.49,75.04 392.33,75.35 392.22,75.68 392.17,76.02 392.16,76.20 392.16,86.23 392.17,86.06 392.17,86.41 392.22,86.75 392.33,87.08 392.49,87.39 392.70,87.67 392.95,87.91 393.24,88.10 393.55,88.25 393.89,88.35 394.23,88.39 " style="stroke-width: 0.53; stroke: #E0AB00; fill: #E0AB00;" clip-path="url(#cpNi45NzM4NXw3MTMuMDI2fDI4MC40NDV8Ni45NzM4NQ==)"/>
  <g clip-path="url(#cpNi45NzM4NXw3MTMuMDI2fDI4MC40NDV8Ni45NzM4NQ==)">
    <text x="395.76" y="84.79" style="font-size: 9.96px; fill: #FFF; font-family: Arial;" textLength="33.18px" lengthAdjust="spacingAndGlyphs">StemID</text>
  </g>
  <polyline points="276.64,247.69 318.80,247.69 318.71,247.69 319.06,247.67 319.40,247.60 319.72,247.48 320.03,247.31 320.29,247.09 320.53,246.83 320.71,246.53 320.85,246.21 320.93,245.88 320.96,245.53 320.96,245.53 320.96,235.49 320.96,235.49 320.93,235.15 320.85,234.81 320.71,234.49 320.53,234.20 320.29,233.94 320.03,233.72 319.72,233.54 319.40,233.42 319.06,233.35 318.80,233.33 276.64,233.33 276.90,233.35 276.55,233.34 276.20,233.38 275.87,233.47 275.56,233.62 275.27,233.82 275.02,234.06 274.81,234.34 274.65,234.65 274.54,234.98 274.48,235.32 274.48,235.49 274.48,245.53 274.48,245.36 274.48,245.70 274.54,246.05 274.65,246.38 274.81,246.68 275.02,246.96 275.27,247.20 275.56,247.40 275.87,247.55 276.20,247.65 276.55,247.69 " style="stroke-width: 0.53; stroke: #0278DD; fill: #0278DD;" clip-path="url(#cpNi45NzM4NXw3MTMuMDI2fDI4MC40NDV8Ni45NzM4NQ==)"/>
  <g clip-path="url(#cpNi45NzM4NXw3MTMuMDI2fDI4MC40NDV8Ni45NzM4NQ==)">
    <text x="278.08" y="244.09" style="font-size: 9.96px; fill: #FFF; font-family: Arial;" textLength="39.28px" lengthAdjust="spacingAndGlyphs">embeddr</text>
  </g>
  <polyline points="429.61,250.83 484.48,250.83 484.39,250.83 484.74,250.82 485.08,250.75 485.40,250.62 485.71,250.45 485.98,250.23 486.21,249.97 486.39,249.68 486.53,249.36 486.61,249.02 486.64,248.67 486.64,248.67 486.64,238.64 486.64,238.64 486.61,238.29 486.53,237.95 486.39,237.63 486.21,237.34 485.98,237.08 485.71,236.86 485.40,236.68 485.08,236.56 484.74,236.49 484.48,236.48 429.61,236.48 429.87,236.49 429.53,236.48 429.18,236.52 428.85,236.62 428.53,236.77 428.25,236.96 428.00,237.20 427.79,237.48 427.62,237.79 427.51,238.12 427.46,238.46 427.45,238.64 427.45,248.67 427.46,248.50 427.46,248.85 427.51,249.19 427.62,249.52 427.79,249.83 428.00,250.10 428.25,250.35 428.53,250.54 428.85,250.69 429.18,250.79 429.53,250.83 " style="stroke-width: 0.53; stroke: #0278DD; fill: #0278DD;" clip-path="url(#cpNi45NzM4NXw3MTMuMDI2fDI4MC40NDV8Ni45NzM4NQ==)"/>
  <g clip-path="url(#cpNi45NzM4NXw3MTMuMDI2fDI4MC40NDV8Ni45NzM4NQ==)">
    <text x="431.05" y="247.23" style="font-size: 9.96px; fill: #FFF; font-family: Arial;" textLength="51.99px" lengthAdjust="spacingAndGlyphs">SCORPIUS</text>
  </g>
  <polyline points="387.40,224.17 433.99,224.17 433.91,224.17 434.25,224.15 434.59,224.08 434.92,223.96 435.22,223.78 435.49,223.56 435.72,223.30 435.91,223.01 436.04,222.69 436.12,222.35 436.15,222.01 436.15,222.01 436.15,211.97 436.15,211.97 436.12,211.62 436.04,211.29 435.91,210.97 435.72,210.67 435.49,210.41 435.22,210.19 434.92,210.02 434.59,209.90 434.25,209.83 433.99,209.81 387.40,209.81 387.66,209.83 387.31,209.81 386.97,209.85 386.63,209.95 386.32,210.10 386.03,210.30 385.78,210.54 385.57,210.82 385.41,211.12 385.30,211.45 385.24,211.80 385.24,211.97 385.24,222.01 385.24,221.83 385.24,222.18 385.30,222.52 385.41,222.85 385.57,223.16 385.78,223.44 386.03,223.68 386.32,223.88 386.63,224.03 386.97,224.12 387.31,224.17 " style="stroke-width: 0.53; stroke: #0278DD; fill: #0278DD;" clip-path="url(#cpNi45NzM4NXw3MTMuMDI2fDI4MC40NDV8Ni45NzM4NQ==)"/>
  <g clip-path="url(#cpNi45NzM4NXw3MTMuMDI2fDI4MC40NDV8Ni45NzM4NQ==)">
    <text x="388.84" y="220.57" style="font-size: 9.96px; fill: #FFF; font-family: Arial;" textLength="43.72px" lengthAdjust="spacingAndGlyphs">DeLorean</text>
  </g>
  <defs>
    <clipPath id="cpMHw3MjB8MzI0fDA=">
      <rect x="0.00" y="0.00" width="720.00" height="324.00"/>
    </clipPath>
  </defs>
  <polyline points="6.97,280.45 713.03,280.45 " style="stroke-width: 1.07; stroke-linecap: square;" clip-path="url(#cpMHw3MjB8MzI0fDA=)"/>
  <polyline points="39.07,283.93 39.07,280.45 " style="stroke-width: 1.07; stroke-linecap: butt;" clip-path="url(#cpMHw3MjB8MzI0fDA=)"/>
  <polyline points="190.12,283.93 190.12,280.45 " style="stroke-width: 1.07; stroke-linecap: butt;" clip-path="url(#cpMHw3MjB8MzI0fDA=)"/>
  <polyline points="341.17,283.93 341.17,280.45 " style="stroke-width: 1.07; stroke-linecap: butt;" clip-path="url(#cpMHw3MjB8MzI0fDA=)"/>
  <polyline points="492.64,283.93 492.64,280.45 " style="stroke-width: 1.07; stroke-linecap: butt;" clip-path="url(#cpMHw3MjB8MzI0fDA=)"/>
  <polyline points="643.69,283.93 643.69,280.45 " style="stroke-width: 1.07; stroke-linecap: butt;" clip-path="url(#cpMHw3MjB8MzI0fDA=)"/>
  <g clip-path="url(#cpMHw3MjB8MzI0fDA=)">
    <text x="25.72" y="295.51" style="font-size: 12.00px; font-family: Arial;" textLength="26.70px" lengthAdjust="spacingAndGlyphs">2014</text>
  </g>
  <g clip-path="url(#cpMHw3MjB8MzI0fDA=)">
    <text x="176.77" y="295.51" style="font-size: 12.00px; font-family: Arial;" textLength="26.70px" lengthAdjust="spacingAndGlyphs">2015</text>
  </g>
  <g clip-path="url(#cpMHw3MjB8MzI0fDA=)">
    <text x="327.82" y="295.51" style="font-size: 12.00px; font-family: Arial;" textLength="26.70px" lengthAdjust="spacingAndGlyphs">2016</text>
  </g>
  <g clip-path="url(#cpMHw3MjB8MzI0fDA=)">
    <text x="479.29" y="295.51" style="font-size: 12.00px; font-family: Arial;" textLength="26.70px" lengthAdjust="spacingAndGlyphs">2017</text>
  </g>
  <g clip-path="url(#cpMHw3MjB8MzI0fDA=)">
    <text x="630.34" y="295.51" style="font-size: 12.00px; font-family: Arial;" textLength="26.70px" lengthAdjust="spacingAndGlyphs">2018</text>
  </g>
  <g clip-path="url(#cpMHw3MjB8MzI0fDA=)">
    <text x="312.13" y="312.77" style="font-size: 14.00px; font-family: Arial;" textLength="95.74px" lengthAdjust="spacingAndGlyphs">Publishing date</text>
  </g>
</svg>
