<?xml version="1.0" encoding="UTF-8"?>
<svg xmlns="http://www.w3.org/2000/svg" xmlns:xlink="http://www.w3.org/1999/xlink" viewBox="0 0 720.00 324.00">
  <defs>
    <style type="text/css"><![CDATA[
    line, polyline, path, rect, circle {
      fill: none;
      stroke: #000000;
      stroke-linecap: round;
      stroke-linejoin: round;
      stroke-miterlimit: 10.00;
    }
  ]]></style>
  </defs>
  <line x1="447.01" y1="275.74" x2="447.01" y2="280.45" style="stroke-width: 1.07; stroke: #E0AB00;" clip-path="url(#cpNi45NzM4NXw3MTMuMDI2fDI4MC40NDV8Ni45NzM4NQ==)"/>
  <line x1="471.12" y1="126.32" x2="471.12" y2="280.44" style="stroke-width: 1.07; stroke: #E0AB00;" clip-path="url(#cpNi45NzM4NXw3MTMuMDI2fDI4MC40NDV8Ni45NzM4NQ==)"/>
  <line x1="398.80" y1="195.67" x2="398.80" y2="280.44" style="stroke-width: 1.07; stroke: #E0AB00;" clip-path="url(#cpNi45NzM4NXw3MTMuMDI2fDI4MC40NDV8Ni45NzM4NQ==)"/>
  <line x1="398.80" y1="230.55" x2="398.80" y2="280.44" style="stroke-width: 1.07; stroke: #E0AB00;" clip-path="url(#cpNi45NzM4NXw3MTMuMDI2fDI4MC40NDV8Ni45NzM4NQ==)"/>
  <line x1="377.33" y1="111.73" x2="377.33" y2="280.44" style="stroke-width: 1.07; stroke: #0278DD;" clip-path="url(#cpNi45NzM4NXw3MTMuMDI2fDI4MC40NDV8Ni45NzM4NQ==)"/>
  <line x1="175.80" y1="273.17" x2="175.80" y2="280.44" style="stroke-width: 1.07; stroke: #E0AB00;" clip-path="url(#cpNi45NzM4NXw3MTMuMDI2fDI4MC40NDV8Ni45NzM4NQ==)"/>
  <line x1="468.11" y1="203.48" x2="468.11" y2="280.44" style="stroke-width: 1.07; stroke: #0278DD;" clip-path="url(#cpNi45NzM4NXw3MTMuMDI2fDI4MC40NDV8Ni45NzM4NQ==)"/>
  <line x1="364.14" y1="214.16" x2="364.14" y2="280.44" style="stroke-width: 1.07; stroke: #E0AB00;" clip-path="url(#cpNi45NzM4NXw3MTMuMDI2fDI4MC40NDV8Ni45NzM4NQ==)"/>
  <line x1="479.41" y1="102.85" x2="479.41" y2="280.44" style="stroke-width: 1.07; stroke: #7FBE00;" clip-path="url(#cpNi45NzM4NXw3MTMuMDI2fDI4MC40NDV8Ni45NzM4NQ==)"/>
  <line x1="379.59" y1="270.45" x2="379.59" y2="280.44" style="stroke-width: 1.07; stroke: #0278DD;" clip-path="url(#cpNi45NzM4NXw3MTMuMDI2fDI4MC40NDV8Ni45NzM4NQ==)"/>
  <line x1="81.63" y1="270.65" x2="81.63" y2="280.44" style="stroke-width: 1.07; stroke: #0278DD;" clip-path="url(#cpNi45NzM4NXw3MTMuMDI2fDI4MC40NDV8Ni45NzM4NQ==)"/>
  <line x1="382.22" y1="174.71" x2="382.22" y2="280.44" style="stroke-width: 1.07; stroke: #E0AB00;" clip-path="url(#cpNi45NzM4NXw3MTMuMDI2fDI4MC40NDV8Ni45NzM4NQ==)"/>
  <line x1="474.89" y1="226.90" x2="474.89" y2="280.43" style="stroke-width: 1.07; stroke: #7FBE00;" clip-path="url(#cpNi45NzM4NXw3MTMuMDI2fDI4MC40NDV8Ni45NzM4NQ==)"/>
  <line x1="268.84" y1="270.42" x2="268.84" y2="280.43" style="stroke-width: 1.07; stroke: #0278DD;" clip-path="url(#cpNi45NzM4NXw3MTMuMDI2fDI4MC40NDV8Ni45NzM4NQ==)"/>
  <line x1="373.94" y1="67.15" x2="373.94" y2="280.43" style="stroke-width: 1.07; stroke: #7FBE00;" clip-path="url(#cpNi45NzM4NXw3MTMuMDI2fDI4MC40NDV8Ni45NzM4NQ==)"/>
  <line x1="379.59" y1="25.65" x2="379.59" y2="280.43" style="stroke-width: 1.07; stroke: #0278DD;" clip-path="url(#cpNi45NzM4NXw3MTMuMDI2fDI4MC40NDV8Ni45NzM4NQ==)"/>
  <line x1="72.97" y1="246.43" x2="72.97" y2="280.43" style="stroke-width: 1.07; stroke: #E0AB00;" clip-path="url(#cpNi45NzM4NXw3MTMuMDI2fDI4MC40NDV8Ni45NzM4NQ==)"/>
  <line x1="398.80" y1="49.07" x2="398.80" y2="280.43" style="stroke-width: 1.07; stroke: #E0AB00;" clip-path="url(#cpNi45NzM4NXw3MTMuMDI2fDI4MC40NDV8Ni45NzM4NQ==)"/>
  <line x1="328.36" y1="273.54" x2="328.36" y2="280.43" style="stroke-width: 1.07; stroke: #3AD1D1;" clip-path="url(#cpNi45NzM4NXw3MTMuMDI2fDI4MC40NDV8Ni45NzM4NQ==)"/>
  <line x1="360.00" y1="90.49" x2="360.00" y2="280.43" style="stroke-width: 1.07; stroke: #3AD1D1;" clip-path="url(#cpNi45NzM4NXw3MTMuMDI2fDI4MC40NDV8Ni45NzM4NQ==)"/>
  <line x1="419.52" y1="252.26" x2="419.52" y2="280.43" style="stroke-width: 1.07; stroke: #0278DD;" clip-path="url(#cpNi45NzM4NXw3MTMuMDI2fDI4MC40NDV8Ni45NzM4NQ==)"/>
  <line x1="349.83" y1="153.63" x2="349.83" y2="280.43" style="stroke-width: 1.07; stroke: #0278DD;" clip-path="url(#cpNi45NzM4NXw3MTMuMDI2fDI4MC40NDV8Ni45NzM4NQ==)"/>
  <line x1="564.54" y1="251.55" x2="564.54" y2="280.43" style="stroke-width: 1.07; stroke: #CA0565;" clip-path="url(#cpNi45NzM4NXw3MTMuMDI2fDI4MC40NDV8Ni45NzM4NQ==)"/>
  <line x1="419.52" y1="154.45" x2="419.52" y2="280.43" style="stroke-width: 1.07; stroke: #0278DD;" clip-path="url(#cpNi45NzM4NXw3MTMuMDI2fDI4MC40NDV8Ni45NzM4NQ==)"/>
  <line x1="492.59" y1="79.04" x2="492.59" y2="280.43" style="stroke-width: 1.07; stroke: #E0AB00;" clip-path="url(#cpNi45NzM4NXw3MTMuMDI2fDI4MC40NDV8Ni45NzM4NQ==)"/>
  <line x1="351.34" y1="47.45" x2="351.34" y2="280.43" style="stroke-width: 1.07; stroke: #FF4237;" clip-path="url(#cpNi45NzM4NXw3MTMuMDI2fDI4MC40NDV8Ni45NzM4NQ==)"/>
  <line x1="553.24" y1="204.27" x2="553.24" y2="280.43" style="stroke-width: 1.07; stroke: #FF4237;" clip-path="url(#cpNi45NzM4NXw3MTMuMDI2fDI4MC40NDV8Ni45NzM4NQ==)"/>
  <line x1="521.97" y1="274.42" x2="521.97" y2="280.43" style="stroke-width: 1.07; stroke: #0278DD;" clip-path="url(#cpNi45NzM4NXw3MTMuMDI2fDI4MC40NDV8Ni45NzM4NQ==)"/>
  <line x1="274.49" y1="245.23" x2="274.49" y2="280.42" style="stroke-width: 1.07; stroke: #0278DD;" clip-path="url(#cpNi45NzM4NXw3MTMuMDI2fDI4MC40NDV8Ni45NzM4NQ==)"/>
  <line x1="378.83" y1="131.54" x2="378.83" y2="280.42" style="stroke-width: 1.07; stroke: #E0AB00;" clip-path="url(#cpNi45NzM4NXw3MTMuMDI2fDI4MC40NDV8Ni45NzM4NQ==)"/>
  <line x1="186.35" y1="248.56" x2="186.35" y2="280.42" style="stroke-width: 1.07; stroke: #E0AB00;" clip-path="url(#cpNi45NzM4NXw3MTMuMDI2fDI4MC40NDV8Ni45NzM4NQ==)"/>
  <line x1="543.44" y1="158.69" x2="543.44" y2="280.42" style="stroke-width: 1.07; stroke: #FF8821;" clip-path="url(#cpNi45NzM4NXw3MTMuMDI2fDI4MC40NDV8Ni45NzM4NQ==)"/>
  <line x1="564.54" y1="135.51" x2="564.54" y2="280.42" style="stroke-width: 1.07; stroke: #CA0565;" clip-path="url(#cpNi45NzM4NXw3MTMuMDI2fDI4MC40NDV8Ni45NzM4NQ==)"/>
  <line x1="515.57" y1="181.17" x2="515.57" y2="280.42" style="stroke-width: 1.07; stroke: #003D76;" clip-path="url(#cpNi45NzM4NXw3MTMuMDI2fDI4MC40NDV8Ni45NzM4NQ==)"/>
  <line x1="418.39" y1="90.05" x2="418.39" y2="280.42" style="stroke-width: 1.07; stroke: #0278DD;" clip-path="url(#cpNi45NzM4NXw3MTMuMDI2fDI4MC40NDV8Ni45NzM4NQ==)"/>
  <defs>
    <clipPath id="cpNi45NzM4NXw3MTMuMDI2fDI4MC40NDV8Ni45NzM4NQ==">
      <rect x="6.97" y="6.97" width="706.05" height="273.47"/>
    </clipPath>
  </defs>
  <polyline points="390.56,90.05 446.22,90.05 446.13,90.04 446.48,90.03 446.82,89.96 447.14,89.84 447.44,89.66 447.71,89.44 447.94,89.18 448.13,88.89 448.26,88.57 448.35,88.23 448.38,87.89 448.38,87.89 448.38,77.13 448.38,77.13 448.35,76.79 448.26,76.45 448.13,76.13 447.94,75.83 447.71,75.57 447.44,75.35 447.14,75.18 446.82,75.06 446.48,74.99 446.22,74.97 390.56,74.97 390.82,74.99 390.47,74.97 390.12,75.02 389.79,75.11 389.48,75.26 389.19,75.46 388.94,75.70 388.73,75.98 388.57,76.28 388.46,76.61 388.40,76.96 388.40,77.13 388.40,87.89 388.40,87.71 388.40,88.06 388.46,88.40 388.57,88.73 388.73,89.04 388.94,89.32 389.19,89.56 389.48,89.76 389.79,89.91 390.12,90.00 390.47,90.04 " style="stroke-width: 0.53; stroke: #0278DD; fill: #0278DD;" clip-path="url(#cpNi45NzM4NXw3MTMuMDI2fDI4MC40NDV8Ni45NzM4NQ==)"/>
  <g clip-path="url(#cpNi45NzM4NXw3MTMuMDI2fDI4MC40NDV8Ni45NzM4NQ==)">
    <text x="392.00" y="86.45" style="font-size: 11.04px; fill: #FFF; font-family: Arial;" textLength="52.78px" lengthAdjust="spacingAndGlyphs">SCIMITAR</text>
  </g>
  <polyline points="498.17,181.17 532.97,181.17 532.88,181.17 533.23,181.16 533.57,181.09 533.89,180.96 534.19,180.79 534.46,180.57 534.69,180.31 534.88,180.02 535.02,179.70 535.10,179.36 535.13,179.01 535.13,179.01 535.13,168.26 535.13,168.26 535.10,167.91 535.02,167.57 534.88,167.25 534.69,166.96 534.46,166.70 534.19,166.48 533.89,166.31 533.57,166.18 533.23,166.11 532.97,166.10 498.17,166.10 498.43,166.11 498.08,166.10 497.74,166.14 497.41,166.24 497.09,166.39 496.81,166.59 496.55,166.83 496.35,167.10 496.18,167.41 496.07,167.74 496.02,168.08 496.01,168.26 496.01,179.01 496.02,178.84 496.02,179.19 496.07,179.53 496.18,179.86 496.35,180.17 496.55,180.45 496.81,180.69 497.09,180.88 497.41,181.03 497.74,181.13 498.08,181.17 " style="stroke-width: 0.53; stroke: #003D76; fill: #003D76;" clip-path="url(#cpNi45NzM4NXw3MTMuMDI2fDI4MC40NDV8Ni45NzM4NQ==)"/>
  <g clip-path="url(#cpNi45NzM4NXw3MTMuMDI2fDI4MC40NDV8Ni45NzM4NQ==)">
    <text x="499.61" y="177.57" style="font-size: 11.04px; fill: #FFF; font-family: Arial;" textLength="31.92px" lengthAdjust="spacingAndGlyphs">reCAT</text>
  </g>
  <polyline points="551.43,135.51 577.64,135.51 577.56,135.51 577.90,135.50 578.24,135.43 578.57,135.30 578.87,135.13 579.14,134.91 579.37,134.65 579.56,134.36 579.69,134.04 579.77,133.70 579.80,133.35 579.80,133.35 579.80,122.60 579.80,122.60 579.77,122.25 579.69,121.91 579.56,121.59 579.37,121.30 579.14,121.04 578.87,120.82 578.57,120.65 578.24,120.52 577.90,120.45 577.64,120.44 551.43,120.44 551.69,120.45 551.35,120.44 551.00,120.48 550.67,120.58 550.35,120.73 550.07,120.92 549.82,121.17 549.61,121.44 549.45,121.75 549.34,122.08 549.28,122.42 549.27,122.60 549.27,133.35 549.28,133.18 549.28,133.53 549.34,133.87 549.45,134.20 549.61,134.51 549.82,134.78 550.07,135.03 550.35,135.22 550.67,135.37 551.00,135.47 551.35,135.51 " style="stroke-width: 0.53; stroke: #CA0565; fill: #CA0565;" clip-path="url(#cpNi45NzM4NXw3MTMuMDI2fDI4MC40NDV8Ni45NzM4NQ==)"/>
  <g clip-path="url(#cpNi45NzM4NXw3MTMuMDI2fDI4MC40NDV8Ni45NzM4NQ==)">
    <text x="552.87" y="131.91" style="font-size: 11.04px; fill: #FFF; font-family: Arial;" textLength="23.33px" lengthAdjust="spacingAndGlyphs">AGA</text>
  </g>
  <polyline points="521.75,158.69 565.14,158.69 565.05,158.69 565.40,158.68 565.74,158.61 566.06,158.48 566.37,158.31 566.63,158.09 566.87,157.83 567.05,157.54 567.19,157.22 567.27,156.88 567.30,156.53 567.30,156.53 567.30,145.78 567.30,145.78 567.27,145.43 567.19,145.09 567.05,144.77 566.87,144.48 566.63,144.22 566.37,144.00 566.06,143.83 565.74,143.70 565.40,143.63 565.14,143.62 521.75,143.62 522.01,143.63 521.66,143.62 521.32,143.66 520.98,143.76 520.67,143.91 520.38,144.10 520.13,144.34 519.92,144.62 519.76,144.93 519.65,145.26 519.60,145.60 519.59,145.78 519.59,156.53 519.60,156.36 519.60,156.71 519.65,157.05 519.76,157.38 519.92,157.69 520.13,157.96 520.38,158.21 520.67,158.40 520.98,158.55 521.32,158.65 521.66,158.69 " style="stroke-width: 0.53; stroke: #FF8821; fill: #FF8821;" clip-path="url(#cpNi45NzM4NXw3MTMuMDI2fDI4MC40NDV8Ni45NzM4NQ==)"/>
  <g clip-path="url(#cpNi45NzM4NXw3MTMuMDI2fDI4MC40NDV8Ni45NzM4NQ==)">
    <text x="523.19" y="155.09" style="font-size: 11.04px; fill: #FFF; font-family: Arial;" textLength="40.51px" lengthAdjust="spacingAndGlyphs">B-RGPs</text>
  </g>
  <polyline points="168.64,248.56 204.06,248.56 203.97,248.56 204.32,248.54 204.66,248.47 204.99,248.35 205.29,248.18 205.56,247.96 205.79,247.70 205.97,247.40 206.11,247.08 206.19,246.74 206.22,246.40 206.22,246.40 206.22,235.64 206.22,235.64 206.19,235.30 206.11,234.96 205.97,234.64 205.79,234.35 205.56,234.09 205.29,233.87 204.99,233.69 204.66,233.57 204.32,233.50 204.06,233.48 168.64,233.48 168.90,233.50 168.55,233.48 168.21,233.53 167.87,233.62 167.56,233.77 167.27,233.97 167.02,234.21 166.81,234.49 166.65,234.80 166.54,235.13 166.49,235.47 166.48,235.64 166.48,246.40 166.49,246.22 166.49,246.57 166.54,246.92 166.65,247.24 166.81,247.55 167.02,247.83 167.27,248.07 167.56,248.27 167.87,248.42 168.21,248.51 168.55,248.56 " style="stroke-width: 0.53; stroke: #E0AB00; fill: #E0AB00;" clip-path="url(#cpNi45NzM4NXw3MTMuMDI2fDI4MC40NDV8Ni45NzM4NQ==)"/>
  <g clip-path="url(#cpNi45NzM4NXw3MTMuMDI2fDI4MC40NDV8Ni45NzM4NQ==)">
    <text x="170.08" y="244.96" style="font-size: 11.04px; fill: #FFF; font-family: Arial;" textLength="32.54px" lengthAdjust="spacingAndGlyphs">Sincell</text>
  </g>
  <polyline points="358.98,131.54 398.69,131.54 398.60,131.54 398.95,131.52 399.29,131.45 399.62,131.33 399.92,131.16 400.19,130.94 400.42,130.68 400.60,130.38 400.74,130.06 400.82,129.73 400.85,129.38 400.85,129.38 400.85,118.62 400.85,118.62 400.82,118.28 400.74,117.94 400.60,117.62 400.42,117.33 400.19,117.07 399.92,116.85 399.62,116.67 399.29,116.55 398.95,116.48 398.69,116.46 358.98,116.46 359.24,116.48 358.89,116.47 358.55,116.51 358.21,116.60 357.90,116.75 357.61,116.95 357.36,117.19 357.15,117.47 356.99,117.78 356.88,118.11 356.83,118.45 356.82,118.62 356.82,129.38 356.83,129.21 356.83,129.55 356.88,129.90 356.99,130.23 357.15,130.53 357.36,130.81 357.61,131.05 357.90,131.25 358.21,131.40 358.55,131.50 358.89,131.54 " style="stroke-width: 0.53; stroke: #E0AB00; fill: #E0AB00;" clip-path="url(#cpNi45NzM4NXw3MTMuMDI2fDI4MC40NDV8Ni45NzM4NQ==)"/>
  <g clip-path="url(#cpNi45NzM4NXw3MTMuMDI2fDI4MC40NDV8Ni45NzM4NQ==)">
    <text x="360.42" y="127.94" style="font-size: 11.04px; fill: #FFF; font-family: Arial;" textLength="36.83px" lengthAdjust="spacingAndGlyphs">StemID</text>
  </g>
  <polyline points="250.64,245.23 298.35,245.23 298.26,245.23 298.61,245.21 298.95,245.14 299.27,245.02 299.57,244.85 299.84,244.63 300.07,244.37 300.26,244.07 300.39,243.75 300.48,243.42 300.51,243.07 300.51,243.07 300.51,232.31 300.51,232.31 300.48,231.97 300.39,231.63 300.26,231.31 300.07,231.02 299.84,230.76 299.57,230.54 299.27,230.36 298.95,230.24 298.61,230.17 298.35,230.15 250.64,230.15 250.90,230.17 250.55,230.16 250.21,230.20 249.88,230.30 249.56,230.44 249.28,230.64 249.02,230.88 248.82,231.16 248.65,231.47 248.54,231.80 248.49,232.14 248.48,232.31 248.48,243.07 248.49,242.90 248.49,243.24 248.54,243.59 248.65,243.92 248.82,244.22 249.02,244.50 249.28,244.74 249.56,244.94 249.88,245.09 250.21,245.19 250.55,245.23 " style="stroke-width: 0.53; stroke: #0278DD; fill: #0278DD;" clip-path="url(#cpNi45NzM4NXw3MTMuMDI2fDI4MC40NDV8Ni45NzM4NQ==)"/>
  <g clip-path="url(#cpNi45NzM4NXw3MTMuMDI2fDI4MC40NDV8Ni45NzM4NQ==)">
    <text x="252.08" y="241.63" style="font-size: 11.04px; fill: #FFF; font-family: Arial;" textLength="44.82px" lengthAdjust="spacingAndGlyphs">Embeddr</text>
  </g>
  <polyline points="493.20,274.42 550.75,274.42 550.66,274.42 551.01,274.40 551.35,274.33 551.67,274.21 551.97,274.04 552.24,273.82 552.47,273.56 552.66,273.26 552.80,272.94 552.88,272.60 552.91,272.26 552.91,272.26 552.91,261.50 552.91,261.50 552.88,261.16 552.80,260.82 552.66,260.50 552.47,260.21 552.24,259.94 551.97,259.73 551.67,259.55 551.35,259.43 551.01,259.36 550.75,259.34 493.20,259.34 493.46,259.36 493.11,259.34 492.77,259.39 492.43,259.48 492.12,259.63 491.83,259.83 491.58,260.07 491.37,260.35 491.21,260.66 491.10,260.99 491.05,261.33 491.04,261.50 491.04,272.26 491.05,272.08 491.05,272.43 491.10,272.77 491.21,273.10 491.37,273.41 491.58,273.69 491.83,273.93 492.12,274.13 492.43,274.28 492.77,274.37 493.11,274.42 " style="stroke-width: 0.53; stroke: #0278DD; fill: #0278DD;" clip-path="url(#cpNi45NzM4NXw3MTMuMDI2fDI4MC40NDV8Ni45NzM4NQ==)"/>
  <g clip-path="url(#cpNi45NzM4NXw3MTMuMDI2fDI4MC40NDV8Ni45NzM4NQ==)">
    <text x="494.64" y="270.82" style="font-size: 11.04px; fill: #FFF; font-family: Arial;" textLength="54.67px" lengthAdjust="spacingAndGlyphs">PhenoPath</text>
  </g>
  <polyline points="503.93,204.27 602.54,204.27 602.45,204.27 602.80,204.26 603.14,204.19 603.47,204.06 603.77,203.89 604.04,203.67 604.27,203.41 604.45,203.12 604.59,202.80 604.67,202.46 604.70,202.11 604.70,202.11 604.70,191.36 604.70,191.36 604.67,191.01 604.59,190.67 604.45,190.35 604.27,190.06 604.04,189.80 603.77,189.58 603.47,189.41 603.14,189.28 602.80,189.21 602.54,189.20 503.93,189.20 504.19,189.21 503.85,189.20 503.50,189.24 503.17,189.34 502.85,189.49 502.57,189.68 502.32,189.92 502.11,190.20 501.95,190.51 501.84,190.84 501.78,191.18 501.77,191.36 501.77,202.11 501.78,201.94 501.78,202.29 501.84,202.63 501.95,202.96 502.11,203.27 502.32,203.54 502.57,203.79 502.85,203.98 503.17,204.13 503.50,204.23 503.85,204.27 " style="stroke-width: 0.53; stroke: #FF4237; fill: #FF4237;" clip-path="url(#cpNi45NzM4NXw3MTMuMDI2fDI4MC40NDV8Ni45NzM4NQ==)"/>
  <g clip-path="url(#cpNi45NzM4NXw3MTMuMDI2fDI4MC40NDV8Ni45NzM4NQ==)">
    <text x="505.37" y="200.67" style="font-size: 11.04px; fill: #FFF; font-family: Arial;" textLength="95.73px" lengthAdjust="spacingAndGlyphs">WADDINGTON-OT</text>
  </g>
  <polyline points="329.94,47.45 372.73,47.45 372.64,47.45 372.99,47.43 373.33,47.36 373.65,47.24 373.96,47.06 374.22,46.85 374.46,46.58 374.64,46.29 374.78,45.97 374.86,45.63 374.89,45.29 374.89,45.29 374.89,34.53 374.89,34.53 374.86,34.19 374.78,33.85 374.64,33.53 374.46,33.23 374.22,32.97 373.96,32.75 373.65,32.58 373.33,32.46 372.99,32.39 372.73,32.37 329.94,32.37 330.20,32.39 329.86,32.37 329.51,32.42 329.18,32.51 328.86,32.66 328.58,32.86 328.33,33.10 328.12,33.38 327.96,33.69 327.85,34.02 327.79,34.36 327.78,34.53 327.78,45.29 327.79,45.11 327.79,45.46 327.85,45.80 327.96,46.13 328.12,46.44 328.33,46.72 328.58,46.96 328.86,47.16 329.18,47.31 329.51,47.40 329.86,47.45 " style="stroke-width: 0.53; stroke: #FF4237; fill: #FF4237;" clip-path="url(#cpNi45NzM4NXw3MTMuMDI2fDI4MC40NDV8Ni45NzM4NQ==)"/>
  <g clip-path="url(#cpNi45NzM4NXw3MTMuMDI2fDI4MC40NDV8Ni45NzM4NQ==)">
    <text x="331.38" y="43.85" style="font-size: 11.04px; fill: #FFF; font-family: Arial;" textLength="39.90px" lengthAdjust="spacingAndGlyphs">SLICER</text>
  </g>
  <polyline points="469.35,79.04 515.83,79.04 515.74,79.04 516.09,79.02 516.43,78.95 516.76,78.83 517.06,78.66 517.33,78.44 517.56,78.18 517.74,77.88 517.88,77.56 517.96,77.23 517.99,76.88 517.99,76.88 517.99,66.12 517.99,66.12 517.96,65.78 517.88,65.44 517.74,65.12 517.56,64.83 517.33,64.57 517.06,64.35 516.76,64.17 516.43,64.05 516.09,63.98 515.83,63.96 469.35,63.96 469.61,63.98 469.27,63.97 468.92,64.01 468.59,64.11 468.27,64.25 467.99,64.45 467.74,64.69 467.53,64.97 467.37,65.28 467.25,65.61 467.20,65.95 467.19,66.12 467.19,76.88 467.20,76.71 467.20,77.05 467.25,77.40 467.37,77.73 467.53,78.03 467.74,78.31 467.99,78.55 468.27,78.75 468.59,78.90 468.92,79.00 469.27,79.04 " style="stroke-width: 0.53; stroke: #E0AB00; fill: #E0AB00;" clip-path="url(#cpNi45NzM4NXw3MTMuMDI2fDI4MC40NDV8Ni45NzM4NQ==)"/>
  <g clip-path="url(#cpNi45NzM4NXw3MTMuMDI2fDI4MC40NDV8Ni45NzM4NQ==)">
    <text x="470.79" y="75.44" style="font-size: 11.04px; fill: #FFF; font-family: Arial;" textLength="43.60px" lengthAdjust="spacingAndGlyphs">slingshot</text>
  </g>
  <polyline points="389.23,154.45 449.81,154.45 449.72,154.45 450.07,154.44 450.41,154.37 450.73,154.24 451.03,154.07 451.30,153.85 451.53,153.59 451.72,153.30 451.85,152.98 451.94,152.64 451.97,152.29 451.97,152.29 451.97,141.54 451.97,141.54 451.94,141.19 451.85,140.85 451.72,140.53 451.53,140.24 451.30,139.98 451.03,139.76 450.73,139.59 450.41,139.46 450.07,139.39 449.81,139.38 389.23,139.38 389.49,139.39 389.14,139.38 388.79,139.42 388.46,139.52 388.15,139.67 387.86,139.86 387.61,140.10 387.40,140.38 387.24,140.69 387.13,141.02 387.07,141.36 387.07,141.54 387.07,152.29 387.07,152.12 387.07,152.47 387.13,152.81 387.24,153.14 387.40,153.45 387.61,153.72 387.86,153.96 388.15,154.16 388.46,154.31 388.79,154.41 389.14,154.45 " style="stroke-width: 0.53; stroke: #0278DD; fill: #0278DD;" clip-path="url(#cpNi45NzM4NXw3MTMuMDI2fDI4MC40NDV8Ni45NzM4NQ==)"/>
  <g clip-path="url(#cpNi45NzM4NXw3MTMuMDI2fDI4MC40NDV8Ni45NzM4NQ==)">
    <text x="390.67" y="150.85" style="font-size: 11.04px; fill: #FFF; font-family: Arial;" textLength="57.70px" lengthAdjust="spacingAndGlyphs">SCORPIUS</text>
  </g>
  <polyline points="551.43,251.55 577.64,251.55 577.56,251.55 577.90,251.54 578.24,251.47 578.57,251.34 578.87,251.17 579.14,250.95 579.37,250.69 579.56,250.40 579.69,250.08 579.77,249.74 579.80,249.39 579.80,249.39 579.80,238.64 579.80,238.64 579.77,238.29 579.69,237.95 579.56,237.63 579.37,237.34 579.14,237.08 578.87,236.86 578.57,236.68 578.24,236.56 577.90,236.49 577.64,236.48 551.43,236.48 551.69,236.49 551.35,236.48 551.00,236.52 550.67,236.62 550.35,236.77 550.07,236.96 549.82,237.20 549.61,237.48 549.45,237.79 549.34,238.12 549.28,238.46 549.27,238.64 549.27,249.39 549.28,249.22 549.28,249.57 549.34,249.91 549.45,250.24 549.61,250.55 549.82,250.82 550.07,251.06 550.35,251.26 550.67,251.41 551.00,251.51 551.35,251.55 " style="stroke-width: 0.53; stroke: #CA0565; fill: #CA0565;" clip-path="url(#cpNi45NzM4NXw3MTMuMDI2fDI4MC40NDV8Ni45NzM4NQ==)"/>
  <g clip-path="url(#cpNi45NzM4NXw3MTMuMDI2fDI4MC40NDV8Ni45NzM4NQ==)">
    <text x="552.87" y="247.95" style="font-size: 11.04px; fill: #FFF; font-family: Arial;" textLength="23.33px" lengthAdjust="spacingAndGlyphs">AGA</text>
  </g>
  <polyline points="323.51,153.63 376.15,153.63 376.06,153.63 376.41,153.61 376.75,153.54 377.07,153.42 377.37,153.25 377.64,153.03 377.87,152.77 378.06,152.47 378.20,152.15 378.28,151.82 378.31,151.47 378.31,151.47 378.31,140.72 378.31,140.72 378.28,140.37 378.20,140.03 378.06,139.71 377.87,139.42 377.64,139.16 377.37,138.94 377.07,138.76 376.75,138.64 376.41,138.57 376.15,138.56 323.51,138.56 323.77,138.57 323.43,138.56 323.08,138.60 322.75,138.70 322.43,138.84 322.15,139.04 321.90,139.28 321.69,139.56 321.53,139.87 321.42,140.20 321.36,140.54 321.35,140.72 321.35,151.47 321.36,151.30 321.36,151.64 321.42,151.99 321.53,152.32 321.69,152.62 321.90,152.90 322.15,153.14 322.43,153.34 322.75,153.49 323.08,153.59 323.43,153.63 " style="stroke-width: 0.53; stroke: #0278DD; fill: #0278DD;" clip-path="url(#cpNi45NzM4NXw3MTMuMDI2fDI4MC40NDV8Ni45NzM4NQ==)"/>
  <g clip-path="url(#cpNi45NzM4NXw3MTMuMDI2fDI4MC40NDV8Ni45NzM4NQ==)">
    <text x="324.95" y="150.03" style="font-size: 11.04px; fill: #FFF; font-family: Arial;" textLength="49.75px" lengthAdjust="spacingAndGlyphs">Pseudogp</text>
  </g>
  <polyline points="389.23,252.26 449.81,252.26 449.72,252.26 450.07,252.25 450.41,252.18 450.73,252.05 451.03,251.88 451.30,251.66 451.53,251.40 451.72,251.11 451.85,250.79 451.94,250.45 451.97,250.10 451.97,250.10 451.97,239.35 451.97,239.35 451.94,239.00 451.85,238.66 451.72,238.34 451.53,238.05 451.30,237.79 451.03,237.57 450.73,237.40 450.41,237.27 450.07,237.20 449.81,237.19 389.23,237.19 389.49,237.20 389.14,237.19 388.79,237.23 388.46,237.33 388.15,237.48 387.86,237.68 387.61,237.92 387.40,238.19 387.24,238.50 387.13,238.83 387.07,239.17 387.07,239.35 387.07,250.10 387.07,249.93 387.07,250.28 387.13,250.62 387.24,250.95 387.40,251.26 387.61,251.54 387.86,251.78 388.15,251.97 388.46,252.12 388.79,252.22 389.14,252.26 " style="stroke-width: 0.53; stroke: #0278DD; fill: #0278DD;" clip-path="url(#cpNi45NzM4NXw3MTMuMDI2fDI4MC40NDV8Ni45NzM4NQ==)"/>
  <g clip-path="url(#cpNi45NzM4NXw3MTMuMDI2fDI4MC40NDV8Ni45NzM4NQ==)">
    <text x="390.67" y="248.66" style="font-size: 11.04px; fill: #FFF; font-family: Arial;" textLength="57.70px" lengthAdjust="spacingAndGlyphs">SCORPIUS</text>
  </g>
  <polyline points="334.00,90.49 386.00,90.49 385.91,90.49 386.26,90.47 386.60,90.40 386.93,90.28 387.23,90.11 387.50,89.89 387.73,89.63 387.91,89.33 388.05,89.01 388.13,88.68 388.16,88.33 388.16,88.33 388.16,77.57 388.16,77.57 388.13,77.23 388.05,76.89 387.91,76.57 387.73,76.28 387.50,76.02 387.23,75.80 386.93,75.62 386.60,75.50 386.26,75.43 386.00,75.41 334.00,75.41 334.26,75.43 333.91,75.42 333.57,75.46 333.23,75.55 332.92,75.70 332.63,75.90 332.38,76.14 332.17,76.42 332.01,76.73 331.90,77.06 331.85,77.40 331.84,77.57 331.84,88.33 331.85,88.16 331.85,88.50 331.90,88.85 332.01,89.18 332.17,89.48 332.38,89.76 332.63,90.00 332.92,90.20 333.23,90.35 333.57,90.45 333.91,90.49 " style="stroke-width: 0.53; stroke: #3AD1D1; fill: #3AD1D1;" clip-path="url(#cpNi45NzM4NXw3MTMuMDI2fDI4MC40NDV8Ni45NzM4NQ==)"/>
  <g clip-path="url(#cpNi45NzM4NXw3MTMuMDI2fDI4MC40NDV8Ni45NzM4NQ==)">
    <text x="335.44" y="86.89" style="font-size: 11.04px; fill: #FFF; font-family: Arial;" textLength="49.12px" lengthAdjust="spacingAndGlyphs">Wishbone</text>
  </g>
  <polyline points="315.87,273.54 340.85,273.54 340.76,273.54 341.11,273.53 341.45,273.46 341.77,273.33 342.07,273.16 342.34,272.94 342.57,272.68 342.76,272.39 342.89,272.07 342.98,271.73 343.01,271.38 343.01,271.38 343.01,260.63 343.01,260.63 342.98,260.28 342.89,259.94 342.76,259.62 342.57,259.33 342.34,259.07 342.07,258.85 341.77,258.68 341.45,258.55 341.11,258.48 340.85,258.47 315.87,258.47 316.13,258.48 315.78,258.47 315.44,258.51 315.11,258.61 314.79,258.76 314.51,258.95 314.26,259.20 314.05,259.47 313.88,259.78 313.77,260.11 313.72,260.45 313.71,260.63 313.71,271.38 313.72,271.21 313.72,271.56 313.77,271.90 313.88,272.23 314.05,272.54 314.26,272.81 314.51,273.06 314.79,273.25 315.11,273.40 315.44,273.50 315.78,273.54 " style="stroke-width: 0.53; stroke: #3AD1D1; fill: #3AD1D1;" clip-path="url(#cpNi45NzM4NXw3MTMuMDI2fDI4MC40NDV8Ni45NzM4NQ==)"/>
  <g clip-path="url(#cpNi45NzM4NXw3MTMuMDI2fDI4MC40NDV8Ni45NzM4NQ==)">
    <text x="317.31" y="269.94" style="font-size: 11.04px; fill: #FFF; font-family: Arial;" textLength="22.09px" lengthAdjust="spacingAndGlyphs">DPT</text>
  </g>
  <polyline points="377.71,49.07 419.88,49.07 419.80,49.07 420.14,49.05 420.48,48.98 420.81,48.86 421.11,48.69 421.38,48.47 421.61,48.21 421.80,47.91 421.93,47.59 422.02,47.26 422.04,46.91 422.04,46.91 422.04,36.15 422.04,36.15 422.02,35.81 421.93,35.47 421.80,35.15 421.61,34.86 421.38,34.60 421.11,34.38 420.81,34.20 420.48,34.08 420.14,34.01 419.88,33.99 377.71,33.99 377.97,34.01 377.63,34.00 377.28,34.04 376.95,34.13 376.63,34.28 376.35,34.48 376.10,34.72 375.89,35.00 375.73,35.31 375.62,35.64 375.56,35.98 375.55,36.15 375.55,46.91 375.56,46.74 375.56,47.08 375.62,47.43 375.73,47.76 375.89,48.06 376.10,48.34 376.35,48.58 376.63,48.78 376.95,48.93 377.28,49.03 377.63,49.07 " style="stroke-width: 0.53; stroke: #E0AB00; fill: #E0AB00;" clip-path="url(#cpNi45NzM4NXw3MTMuMDI2fDI4MC40NDV8Ni45NzM4NQ==)"/>
  <g clip-path="url(#cpNi45NzM4NXw3MTMuMDI2fDI4MC40NDV8Ni45NzM4NQ==)">
    <text x="379.15" y="45.47" style="font-size: 11.04px; fill: #FFF; font-family: Arial;" textLength="39.29px" lengthAdjust="spacingAndGlyphs">cellTree</text>
  </g>
  <polyline points="39.91,246.43 106.03,246.43 105.94,246.43 106.29,246.42 106.63,246.35 106.95,246.22 107.26,246.05 107.52,245.83 107.75,245.57 107.94,245.28 108.08,244.96 108.16,244.62 108.19,244.27 108.19,244.27 108.19,233.52 108.19,233.52 108.16,233.17 108.08,232.83 107.94,232.51 107.75,232.22 107.52,231.96 107.26,231.74 106.95,231.57 106.63,231.44 106.29,231.37 106.03,231.36 39.91,231.36 40.17,231.37 39.82,231.36 39.48,231.40 39.14,231.50 38.83,231.65 38.54,231.84 38.29,232.09 38.08,232.36 37.92,232.67 37.81,233.00 37.76,233.34 37.75,233.52 37.75,244.27 37.76,244.10 37.76,244.45 37.81,244.79 37.92,245.12 38.08,245.43 38.29,245.71 38.54,245.95 38.83,246.14 39.14,246.29 39.48,246.39 39.82,246.43 " style="stroke-width: 0.53; stroke: #E0AB00; fill: #E0AB00;" clip-path="url(#cpNi45NzM4NXw3MTMuMDI2fDI4MC40NDV8Ni45NzM4NQ==)"/>
  <g clip-path="url(#cpNi45NzM4NXw3MTMuMDI2fDI4MC40NDV8Ni45NzM4NQ==)">
    <text x="41.35" y="242.83" style="font-size: 11.04px; fill: #FFF; font-family: Arial;" textLength="63.24px" lengthAdjust="spacingAndGlyphs">Monocle ICA</text>
  </g>
  <polyline points="365.25,25.65 393.92,25.65 393.83,25.65 394.18,25.63 394.52,25.56 394.85,25.44 395.15,25.27 395.42,25.05 395.65,24.79 395.83,24.49 395.97,24.17 396.05,23.84 396.08,23.49 396.08,23.49 396.08,12.73 396.08,12.73 396.05,12.39 395.97,12.05 395.83,11.73 395.65,11.44 395.42,11.18 395.15,10.96 394.85,10.78 394.52,10.66 394.18,10.59 393.92,10.57 365.25,10.57 365.51,10.59 365.17,10.58 364.82,10.62 364.49,10.71 364.17,10.86 363.89,11.06 363.64,11.30 363.43,11.58 363.27,11.89 363.16,12.22 363.10,12.56 363.09,12.73 363.09,23.49 363.10,23.32 363.10,23.66 363.16,24.01 363.27,24.34 363.43,24.64 363.64,24.92 363.89,25.16 364.17,25.36 364.49,25.51 364.82,25.61 365.17,25.65 " style="stroke-width: 0.53; stroke: #0278DD; fill: #0278DD;" clip-path="url(#cpNi45NzM4NXw3MTMuMDI2fDI4MC40NDV8Ni45NzM4NQ==)"/>
  <g clip-path="url(#cpNi45NzM4NXw3MTMuMDI2fDI4MC40NDV8Ni45NzM4NQ==)">
    <text x="366.69" y="22.05" style="font-size: 11.04px; fill: #FFF; font-family: Arial;" textLength="25.79px" lengthAdjust="spacingAndGlyphs">Ouija</text>
  </g>
  <polyline points="352.86,67.15 395.02,67.15 394.93,67.15 395.28,67.14 395.62,67.07 395.95,66.94 396.25,66.77 396.52,66.55 396.75,66.29 396.93,66.00 397.07,65.68 397.15,65.34 397.18,64.99 397.18,64.99 397.18,54.24 397.18,54.24 397.15,53.89 397.07,53.55 396.93,53.23 396.75,52.94 396.52,52.68 396.25,52.46 395.95,52.29 395.62,52.16 395.28,52.09 395.02,52.08 352.86,52.08 353.12,52.09 352.77,52.08 352.42,52.12 352.09,52.22 351.78,52.37 351.49,52.56 351.24,52.81 351.03,53.08 350.87,53.39 350.76,53.72 350.70,54.06 350.70,54.24 350.70,64.99 350.70,64.82 350.70,65.17 350.76,65.51 350.87,65.84 351.03,66.15 351.24,66.43 351.49,66.67 351.78,66.86 352.09,67.01 352.42,67.11 352.77,67.15 " style="stroke-width: 0.53; stroke: #7FBE00; fill: #7FBE00;" clip-path="url(#cpNi45NzM4NXw3MTMuMDI2fDI4MC40NDV8Ni45NzM4NQ==)"/>
  <g clip-path="url(#cpNi45NzM4NXw3MTMuMDI2fDI4MC40NDV8Ni45NzM4NQ==)">
    <text x="354.30" y="63.55" style="font-size: 11.04px; fill: #FFF; font-family: Arial;" textLength="39.28px" lengthAdjust="spacingAndGlyphs">SCOUP</text>
  </g>
  <polyline points="245.61,270.42 292.07,270.42 291.99,270.42 292.34,270.41 292.68,270.34 293.00,270.21 293.30,270.04 293.57,269.82 293.80,269.56 293.99,269.27 294.12,268.95 294.21,268.61 294.23,268.26 294.23,268.26 294.23,257.51 294.23,257.51 294.21,257.16 294.12,256.82 293.99,256.50 293.80,256.21 293.57,255.95 293.30,255.73 293.00,255.55 292.68,255.43 292.34,255.36 292.07,255.35 245.61,255.35 245.87,255.36 245.52,255.35 245.18,255.39 244.85,255.49 244.53,255.64 244.25,255.83 243.99,256.07 243.79,256.35 243.62,256.66 243.51,256.99 243.46,257.33 243.45,257.51 243.45,268.26 243.46,268.09 243.46,268.44 243.51,268.78 243.62,269.11 243.79,269.42 243.99,269.69 244.25,269.93 244.53,270.13 244.85,270.28 245.18,270.38 245.52,270.42 " style="stroke-width: 0.53; stroke: #0278DD; fill: #0278DD;" clip-path="url(#cpNi45NzM4NXw3MTMuMDI2fDI4MC40NDV8Ni45NzM4NQ==)"/>
  <g clip-path="url(#cpNi45NzM4NXw3MTMuMDI2fDI4MC40NDV8Ni45NzM4NQ==)">
    <text x="247.05" y="266.82" style="font-size: 11.04px; fill: #FFF; font-family: Arial;" textLength="43.58px" lengthAdjust="spacingAndGlyphs">Waterfall</text>
  </g>
  <polyline points="453.49,226.90 496.28,226.90 496.20,226.90 496.54,226.88 496.88,226.81 497.21,226.69 497.51,226.52 497.78,226.30 498.01,226.04 498.20,225.74 498.33,225.42 498.42,225.08 498.44,224.74 498.44,224.74 498.44,213.98 498.44,213.98 498.42,213.64 498.33,213.30 498.20,212.98 498.01,212.69 497.78,212.42 497.51,212.21 497.21,212.03 496.88,211.91 496.54,211.84 496.28,211.82 453.49,211.82 453.75,211.84 453.41,211.82 453.06,211.87 452.73,211.96 452.41,212.11 452.13,212.31 451.88,212.55 451.67,212.83 451.51,213.14 451.40,213.47 451.34,213.81 451.33,213.98 451.33,224.74 451.34,224.56 451.34,224.91 451.40,225.25 451.51,225.58 451.67,225.89 451.88,226.17 452.13,226.41 452.41,226.61 452.73,226.76 453.06,226.85 453.41,226.90 " style="stroke-width: 0.53; stroke: #7FBE00; fill: #7FBE00;" clip-path="url(#cpNi45NzM4NXw3MTMuMDI2fDI4MC40NDV8Ni45NzM4NQ==)"/>
  <g clip-path="url(#cpNi45NzM4NXw3MTMuMDI2fDI4MC40NDV8Ni45NzM4NQ==)">
    <text x="454.93" y="223.30" style="font-size: 11.04px; fill: #FFF; font-family: Arial;" textLength="39.91px" lengthAdjust="spacingAndGlyphs">GPfates</text>
  </g>
  <polyline points="365.43,174.71 399.02,174.71 398.93,174.71 399.28,174.70 399.62,174.63 399.94,174.50 400.24,174.33 400.51,174.11 400.74,173.85 400.93,173.56 401.06,173.24 401.15,172.90 401.18,172.55 401.18,172.55 401.18,161.80 401.18,161.80 401.15,161.45 401.06,161.11 400.93,160.79 400.74,160.50 400.51,160.24 400.24,160.02 399.94,159.85 399.62,159.72 399.28,159.65 399.02,159.64 365.43,159.64 365.69,159.65 365.35,159.64 365.00,159.68 364.67,159.78 364.35,159.93 364.07,160.12 363.82,160.37 363.61,160.64 363.45,160.95 363.34,161.28 363.28,161.62 363.27,161.80 363.27,172.55 363.28,172.38 363.28,172.73 363.34,173.07 363.45,173.40 363.61,173.71 363.82,173.99 364.07,174.23 364.35,174.42 364.67,174.57 365.00,174.67 365.35,174.71 " style="stroke-width: 0.53; stroke: #E0AB00; fill: #E0AB00;" clip-path="url(#cpNi45NzM4NXw3MTMuMDI2fDI4MC40NDV8Ni45NzM4NQ==)"/>
  <g clip-path="url(#cpNi45NzM4NXw3MTMuMDI2fDI4MC40NDV8Ni45NzM4NQ==)">
    <text x="366.87" y="171.11" style="font-size: 11.04px; fill: #FFF; font-family: Arial;" textLength="30.70px" lengthAdjust="spacingAndGlyphs">Mpath</text>
  </g>
  <polyline points="52.26,270.65 111.01,270.65 110.92,270.65 111.27,270.63 111.61,270.56 111.93,270.44 112.23,270.27 112.50,270.05 112.73,269.79 112.92,269.49 113.06,269.17 113.14,268.83 113.17,268.49 113.17,268.49 113.17,257.73 113.17,257.73 113.14,257.39 113.06,257.05 112.92,256.73 112.73,256.44 112.50,256.18 112.23,255.96 111.93,255.78 111.61,255.66 111.27,255.59 111.01,255.57 52.26,255.57 52.52,255.59 52.17,255.58 51.82,255.62 51.49,255.71 51.18,255.86 50.89,256.06 50.64,256.30 50.43,256.58 50.27,256.89 50.16,257.22 50.10,257.56 50.10,257.73 50.10,268.49 50.10,268.31 50.10,268.66 50.16,269.01 50.27,269.34 50.43,269.64 50.64,269.92 50.89,270.16 51.18,270.36 51.49,270.51 51.82,270.60 52.17,270.65 " style="stroke-width: 0.53; stroke: #0278DD; fill: #0278DD;" clip-path="url(#cpNi45NzM4NXw3MTMuMDI2fDI4MC40NDV8Ni45NzM4NQ==)"/>
  <g clip-path="url(#cpNi45NzM4NXw3MTMuMDI2fDI4MC40NDV8Ni45NzM4NQ==)">
    <text x="53.70" y="267.05" style="font-size: 11.04px; fill: #FFF; font-family: Arial;" textLength="55.87px" lengthAdjust="spacingAndGlyphs">Wanderlust</text>
  </g>
  <polyline points="365.25,270.45 393.92,270.45 393.83,270.45 394.18,270.44 394.52,270.37 394.85,270.25 395.15,270.07 395.42,269.85 395.65,269.59 395.83,269.30 395.97,268.98 396.05,268.64 396.08,268.29 396.08,268.29 396.08,257.54 396.08,257.54 396.05,257.19 395.97,256.86 395.83,256.54 395.65,256.24 395.42,255.98 395.15,255.76 394.85,255.59 394.52,255.46 394.18,255.40 393.92,255.38 365.25,255.38 365.51,255.40 365.17,255.38 364.82,255.42 364.49,255.52 364.17,255.67 363.89,255.87 363.64,256.11 363.43,256.38 363.27,256.69 363.16,257.02 363.10,257.37 363.09,257.54 363.09,268.29 363.10,268.12 363.10,268.47 363.16,268.81 363.27,269.14 363.43,269.45 363.64,269.73 363.89,269.97 364.17,270.16 364.49,270.31 364.82,270.41 365.17,270.45 " style="stroke-width: 0.53; stroke: #0278DD; fill: #0278DD;" clip-path="url(#cpNi45NzM4NXw3MTMuMDI2fDI4MC40NDV8Ni45NzM4NQ==)"/>
  <g clip-path="url(#cpNi45NzM4NXw3MTMuMDI2fDI4MC40NDV8Ni45NzM4NQ==)">
    <text x="366.69" y="266.85" style="font-size: 11.04px; fill: #FFF; font-family: Arial;" textLength="25.79px" lengthAdjust="spacingAndGlyphs">Ouija</text>
  </g>
  <polyline points="466.31,102.85 492.51,102.85 492.42,102.85 492.77,102.84 493.11,102.77 493.43,102.65 493.73,102.47 494.00,102.25 494.23,101.99 494.42,101.70 494.56,101.38 494.64,101.04 494.67,100.69 494.67,100.69 494.67,89.94 494.67,89.94 494.64,89.59 494.56,89.26 494.42,88.94 494.23,88.64 494.00,88.38 493.73,88.16 493.43,87.99 493.11,87.86 492.77,87.79 492.51,87.78 466.31,87.78 466.57,87.79 466.22,87.78 465.88,87.82 465.54,87.92 465.23,88.07 464.94,88.27 464.69,88.51 464.48,88.78 464.32,89.09 464.21,89.42 464.16,89.77 464.15,89.94 464.15,100.69 464.16,100.52 464.16,100.87 464.21,101.21 464.32,101.54 464.48,101.85 464.69,102.13 464.94,102.37 465.23,102.56 465.54,102.71 465.88,102.81 466.22,102.85 " style="stroke-width: 0.53; stroke: #7FBE00; fill: #7FBE00;" clip-path="url(#cpNi45NzM4NXw3MTMuMDI2fDI4MC40NDV8Ni45NzM4NQ==)"/>
  <g clip-path="url(#cpNi45NzM4NXw3MTMuMDI2fDI4MC40NDV8Ni45NzM4NQ==)">
    <text x="467.75" y="99.25" style="font-size: 11.04px; fill: #FFF; font-family: Arial;" textLength="23.32px" lengthAdjust="spacingAndGlyphs">MFA</text>
  </g>
  <polyline points="343.98,214.16 384.30,214.16 384.22,214.15 384.56,214.14 384.90,214.07 385.23,213.95 385.53,213.77 385.80,213.55 386.03,213.29 386.22,213.00 386.35,212.68 386.44,212.34 386.46,212.00 386.46,212.00 386.46,201.24 386.46,201.24 386.44,200.89 386.35,200.56 386.22,200.24 386.03,199.94 385.80,199.68 385.53,199.46 385.23,199.29 384.90,199.17 384.56,199.10 384.30,199.08 343.98,199.08 344.24,199.10 343.90,199.08 343.55,199.12 343.22,199.22 342.90,199.37 342.62,199.57 342.37,199.81 342.16,200.09 342.00,200.39 341.89,200.72 341.83,201.07 341.82,201.24 341.82,212.00 341.83,211.82 341.83,212.17 341.89,212.51 342.00,212.84 342.16,213.15 342.37,213.43 342.62,213.67 342.90,213.87 343.22,214.01 343.55,214.11 343.90,214.15 " style="stroke-width: 0.53; stroke: #E0AB00; fill: #E0AB00;" clip-path="url(#cpNi45NzM4NXw3MTMuMDI2fDI4MC40NDV8Ni45NzM4NQ==)"/>
  <g clip-path="url(#cpNi45NzM4NXw3MTMuMDI2fDI4MC40NDV8Ni45NzM4NQ==)">
    <text x="345.42" y="210.56" style="font-size: 11.04px; fill: #FFF; font-family: Arial;" textLength="37.44px" lengthAdjust="spacingAndGlyphs">TSCAN</text>
  </g>
  <polyline points="445.49,203.48 490.73,203.48 490.64,203.48 490.99,203.46 491.33,203.39 491.65,203.27 491.95,203.10 492.22,202.88 492.45,202.62 492.64,202.32 492.78,202.00 492.86,201.66 492.89,201.32 492.89,201.32 492.89,190.56 492.89,190.56 492.86,190.22 492.78,189.88 492.64,189.56 492.45,189.27 492.22,189.01 491.95,188.79 491.65,188.61 491.33,188.49 490.99,188.42 490.73,188.40 445.49,188.40 445.75,188.42 445.40,188.40 445.06,188.45 444.72,188.54 444.41,188.69 444.12,188.89 443.87,189.13 443.66,189.41 443.50,189.72 443.39,190.05 443.34,190.39 443.33,190.56 443.33,201.32 443.34,201.14 443.34,201.49 443.39,201.84 443.50,202.16 443.66,202.47 443.87,202.75 444.12,202.99 444.41,203.19 444.72,203.34 445.06,203.43 445.40,203.48 " style="stroke-width: 0.53; stroke: #0278DD; fill: #0278DD;" clip-path="url(#cpNi45NzM4NXw3MTMuMDI2fDI4MC40NDV8Ni45NzM4NQ==)"/>
  <g clip-path="url(#cpNi45NzM4NXw3MTMuMDI2fDI4MC40NDV8Ni45NzM4NQ==)">
    <text x="446.93" y="199.88" style="font-size: 11.04px; fill: #FFF; font-family: Arial;" textLength="42.36px" lengthAdjust="spacingAndGlyphs">Topslam</text>
  </g>
  <polyline points="155.33,273.17 196.27,273.17 196.19,273.17 196.53,273.15 196.87,273.08 197.20,272.96 197.50,272.79 197.77,272.57 198.00,272.31 198.19,272.01 198.32,271.69 198.40,271.36 198.43,271.01 198.43,271.01 198.43,260.25 198.43,260.25 198.40,259.91 198.32,259.57 198.19,259.25 198.00,258.96 197.77,258.70 197.50,258.48 197.20,258.30 196.87,258.18 196.53,258.11 196.27,258.09 155.33,258.09 155.59,258.11 155.25,258.10 154.90,258.14 154.57,258.23 154.25,258.38 153.97,258.58 153.72,258.82 153.51,259.10 153.35,259.41 153.24,259.74 153.18,260.08 153.17,260.25 153.17,271.01 153.18,270.84 153.18,271.18 153.24,271.53 153.35,271.86 153.51,272.16 153.72,272.44 153.97,272.68 154.25,272.88 154.57,273.03 154.90,273.13 155.25,273.17 " style="stroke-width: 0.53; stroke: #E0AB00; fill: #E0AB00;" clip-path="url(#cpNi45NzM4NXw3MTMuMDI2fDI4MC40NDV8Ni45NzM4NQ==)"/>
  <g clip-path="url(#cpNi45NzM4NXw3MTMuMDI2fDI4MC40NDV8Ni45NzM4NQ==)">
    <text x="156.77" y="269.57" style="font-size: 11.04px; fill: #FFF; font-family: Arial;" textLength="38.06px" lengthAdjust="spacingAndGlyphs">SCUBA</text>
  </g>
  <polyline points="351.63,111.73 403.03,111.73 402.94,111.73 403.29,111.72 403.63,111.65 403.95,111.53 404.25,111.35 404.52,111.13 404.75,110.87 404.94,110.58 405.08,110.26 405.16,109.92 405.19,109.57 405.19,109.57 405.19,98.82 405.19,98.82 405.16,98.47 405.08,98.14 404.94,97.82 404.75,97.52 404.52,97.26 404.25,97.04 403.95,96.87 403.63,96.74 403.29,96.68 403.03,96.66 351.63,96.66 351.89,96.68 351.54,96.66 351.20,96.70 350.86,96.80 350.55,96.95 350.26,97.15 350.01,97.39 349.80,97.67 349.64,97.97 349.53,98.30 349.47,98.65 349.47,98.82 349.47,109.57 349.47,109.40 349.47,109.75 349.53,110.09 349.64,110.42 349.80,110.73 350.01,111.01 350.26,111.25 350.55,111.45 350.86,111.59 351.20,111.69 351.54,111.73 " style="stroke-width: 0.53; stroke: #0278DD; fill: #0278DD;" clip-path="url(#cpNi45NzM4NXw3MTMuMDI2fDI4MC40NDV8Ni45NzM4NQ==)"/>
  <g clip-path="url(#cpNi45NzM4NXw3MTMuMDI2fDI4MC40NDV8Ni45NzM4NQ==)">
    <text x="353.07" y="108.13" style="font-size: 11.04px; fill: #FFF; font-family: Arial;" textLength="48.52px" lengthAdjust="spacingAndGlyphs">DeLorean</text>
  </g>
  <polyline points="377.71,230.55 419.88,230.55 419.80,230.55 420.14,230.54 420.48,230.47 420.81,230.34 421.11,230.17 421.38,229.95 421.61,229.69 421.80,229.40 421.93,229.08 422.02,228.74 422.04,228.39 422.04,228.39 422.04,217.64 422.04,217.64 422.02,217.29 421.93,216.95 421.80,216.63 421.61,216.34 421.38,216.08 421.11,215.86 420.81,215.69 420.48,215.56 420.14,215.49 419.88,215.48 377.71,215.48 377.97,215.49 377.63,215.48 377.28,215.52 376.95,215.62 376.63,215.77 376.35,215.97 376.10,216.21 375.89,216.48 375.73,216.79 375.62,217.12 375.56,217.46 375.55,217.64 375.55,228.39 375.56,228.22 375.56,228.57 375.62,228.91 375.73,229.24 375.89,229.55 376.10,229.83 376.35,230.07 376.63,230.26 376.95,230.41 377.28,230.51 377.63,230.55 " style="stroke-width: 0.53; stroke: #E0AB00; fill: #E0AB00;" clip-path="url(#cpNi45NzM4NXw3MTMuMDI2fDI4MC40NDV8Ni45NzM4NQ==)"/>
  <g clip-path="url(#cpNi45NzM4NXw3MTMuMDI2fDI4MC40NDV8Ni45NzM4NQ==)">
    <text x="379.15" y="226.95" style="font-size: 11.04px; fill: #FFF; font-family: Arial;" textLength="39.29px" lengthAdjust="spacingAndGlyphs">cellTree</text>
  </g>
  <polyline points="377.71,195.67 419.88,195.67 419.80,195.67 420.14,195.65 420.48,195.58 420.81,195.46 421.11,195.29 421.38,195.07 421.61,194.81 421.80,194.51 421.93,194.19 422.02,193.86 422.04,193.51 422.04,193.51 422.04,182.75 422.04,182.75 422.02,182.41 421.93,182.07 421.80,181.75 421.61,181.46 421.38,181.20 421.11,180.98 420.81,180.80 420.48,180.68 420.14,180.61 419.88,180.59 377.71,180.59 377.97,180.61 377.63,180.60 377.28,180.64 376.95,180.74 376.63,180.88 376.35,181.08 376.10,181.32 375.89,181.60 375.73,181.91 375.62,182.24 375.56,182.58 375.55,182.75 375.55,193.51 375.56,193.34 375.56,193.68 375.62,194.03 375.73,194.36 375.89,194.66 376.10,194.94 376.35,195.18 376.63,195.38 376.95,195.53 377.28,195.63 377.63,195.67 " style="stroke-width: 0.53; stroke: #E0AB00; fill: #E0AB00;" clip-path="url(#cpNi45NzM4NXw3MTMuMDI2fDI4MC40NDV8Ni45NzM4NQ==)"/>
  <g clip-path="url(#cpNi45NzM4NXw3MTMuMDI2fDI4MC40NDV8Ni45NzM4NQ==)">
    <text x="379.15" y="192.07" style="font-size: 11.04px; fill: #FFF; font-family: Arial;" textLength="39.29px" lengthAdjust="spacingAndGlyphs">cellTree</text>
  </g>
  <polyline points="423.95,126.32 518.30,126.32 518.21,126.32 518.56,126.31 518.90,126.24 519.22,126.12 519.52,125.94 519.79,125.72 520.02,125.46 520.21,125.17 520.35,124.85 520.43,124.51 520.46,124.16 520.46,124.16 520.46,113.41 520.46,113.41 520.43,113.06 520.35,112.73 520.21,112.41 520.02,112.11 519.79,111.85 519.52,111.63 519.22,111.46 518.90,111.34 518.56,111.27 518.30,111.25 423.95,111.25 424.21,111.27 423.86,111.25 423.51,111.29 423.18,111.39 422.87,111.54 422.58,111.74 422.33,111.98 422.12,112.26 421.96,112.56 421.85,112.89 421.79,113.24 421.79,113.41 421.79,124.16 421.79,123.99 421.79,124.34 421.85,124.68 421.96,125.01 422.12,125.32 422.33,125.60 422.58,125.84 422.87,126.04 423.18,126.18 423.51,126.28 423.86,126.32 " style="stroke-width: 0.53; stroke: #E0AB00; fill: #E0AB00;" clip-path="url(#cpNi45NzM4NXw3MTMuMDI2fDI4MC40NDV8Ni45NzM4NQ==)"/>
  <g clip-path="url(#cpNi45NzM4NXw3MTMuMDI2fDI4MC40NDV8Ni45NzM4NQ==)">
    <text x="425.39" y="122.72" style="font-size: 11.04px; fill: #FFF; font-family: Arial;" textLength="91.47px" lengthAdjust="spacingAndGlyphs">Monocle DDRTree</text>
  </g>
  <polyline points="429.61,275.74 464.42,275.74 464.33,275.74 464.68,275.72 465.02,275.65 465.34,275.53 465.64,275.36 465.91,275.14 466.14,274.88 466.33,274.58 466.47,274.26 466.55,273.93 466.58,273.58 466.58,273.58 466.58,262.82 466.58,262.82 466.55,262.48 466.47,262.14 466.33,261.82 466.14,261.53 465.91,261.27 465.64,261.05 465.34,260.87 465.02,260.75 464.68,260.68 464.42,260.66 429.61,260.66 429.87,260.68 429.52,260.67 429.18,260.71 428.84,260.81 428.53,260.95 428.24,261.15 427.99,261.39 427.78,261.67 427.62,261.98 427.51,262.31 427.46,262.65 427.45,262.82 427.45,273.58 427.46,273.41 427.46,273.75 427.51,274.10 427.62,274.43 427.78,274.73 427.99,275.01 428.24,275.25 428.53,275.45 428.84,275.60 429.18,275.70 429.52,275.74 " style="stroke-width: 0.53; stroke: #E0AB00; fill: #E0AB00;" clip-path="url(#cpNi45NzM4NXw3MTMuMDI2fDI4MC40NDV8Ni45NzM4NQ==)"/>
  <g clip-path="url(#cpNi45NzM4NXw3MTMuMDI2fDI4MC40NDV8Ni45NzM4NQ==)">
    <text x="431.05" y="272.14" style="font-size: 11.04px; fill: #FFF; font-family: Arial;" textLength="31.93px" lengthAdjust="spacingAndGlyphs">SLICE</text>
  </g>
  <defs>
    <clipPath id="cpMHw3MjB8MzI0fDA=">
      <rect x="0.00" y="0.00" width="720.00" height="324.00"/>
    </clipPath>
  </defs>
  <polyline points="6.97,280.45 713.03,280.45 " style="stroke-width: 1.07; stroke-linecap: square;" clip-path="url(#cpMHw3MjB8MzI0fDA=)"/>
  <polyline points="39.07,283.93 39.07,280.45 " style="stroke-width: 1.07; stroke-linecap: butt;" clip-path="url(#cpMHw3MjB8MzI0fDA=)"/>
  <polyline points="176.56,283.93 176.56,280.45 " style="stroke-width: 1.07; stroke-linecap: butt;" clip-path="url(#cpMHw3MjB8MzI0fDA=)"/>
  <polyline points="314.04,283.93 314.04,280.45 " style="stroke-width: 1.07; stroke-linecap: butt;" clip-path="url(#cpMHw3MjB8MzI0fDA=)"/>
  <polyline points="451.91,283.93 451.91,280.45 " style="stroke-width: 1.07; stroke-linecap: butt;" clip-path="url(#cpMHw3MjB8MzI0fDA=)"/>
  <polyline points="589.40,283.93 589.40,280.45 " style="stroke-width: 1.07; stroke-linecap: butt;" clip-path="url(#cpMHw3MjB8MzI0fDA=)"/>
  <g clip-path="url(#cpMHw3MjB8MzI0fDA=)">
    <text x="25.72" y="295.51" style="font-size: 12.00px; font-family: Arial;" textLength="26.70px" lengthAdjust="spacingAndGlyphs">2014</text>
  </g>
  <g clip-path="url(#cpMHw3MjB8MzI0fDA=)">
    <text x="163.21" y="295.51" style="font-size: 12.00px; font-family: Arial;" textLength="26.70px" lengthAdjust="spacingAndGlyphs">2015</text>
  </g>
  <g clip-path="url(#cpMHw3MjB8MzI0fDA=)">
    <text x="300.70" y="295.51" style="font-size: 12.00px; font-family: Arial;" textLength="26.70px" lengthAdjust="spacingAndGlyphs">2016</text>
  </g>
  <g clip-path="url(#cpMHw3MjB8MzI0fDA=)">
    <text x="438.56" y="295.51" style="font-size: 12.00px; font-family: Arial;" textLength="26.70px" lengthAdjust="spacingAndGlyphs">2017</text>
  </g>
  <g clip-path="url(#cpMHw3MjB8MzI0fDA=)">
    <text x="576.05" y="295.51" style="font-size: 12.00px; font-family: Arial;" textLength="26.70px" lengthAdjust="spacingAndGlyphs">2018</text>
  </g>
  <g clip-path="url(#cpMHw3MjB8MzI0fDA=)">
    <text x="312.13" y="312.77" style="font-size: 14.00px; font-family: Arial;" textLength="95.74px" lengthAdjust="spacingAndGlyphs">Publishing date</text>
  </g>
</svg>
