<?xml version="1.0" encoding="UTF-8"?>
<svg xmlns="http://www.w3.org/2000/svg" xmlns:xlink="http://www.w3.org/1999/xlink" viewBox="0 0 720.00 324.00">
  <defs>
    <style type="text/css"><![CDATA[
    line, polyline, path, rect, circle {
      fill: none;
      stroke: #000000;
      stroke-linecap: round;
      stroke-linejoin: round;
      stroke-miterlimit: 10.00;
    }
  ]]></style>
  </defs>
  <line x1="296.48" y1="252.26" x2="296.48" y2="280.45" style="stroke-width: 1.07; stroke: #0278DD;" clip-path="url(#cpNi45NzM4NXw3MTMuMDI2fDI4MC40NDV8Ni45NzM4NQ==)"/>
  <line x1="413.18" y1="275.96" x2="413.18" y2="280.45" style="stroke-width: 1.07; stroke: #0278DD;" clip-path="url(#cpNi45NzM4NXw3MTMuMDI2fDI4MC40NDV8Ni45NzM4NQ==)"/>
  <line x1="406.97" y1="150.09" x2="406.97" y2="280.45" style="stroke-width: 1.07; stroke: #7FBE00;" clip-path="url(#cpNi45NzM4NXw3MTMuMDI2fDI4MC40NDV8Ni45NzM4NQ==)"/>
  <line x1="412.35" y1="194.16" x2="412.35" y2="280.44" style="stroke-width: 1.07; stroke: #E0AB00;" clip-path="url(#cpNi45NzM4NXw3MTMuMDI2fDI4MC40NDV8Ni45NzM4NQ==)"/>
  <line x1="510.43" y1="261.31" x2="510.43" y2="280.44" style="stroke-width: 1.07; stroke: #0278DD;" clip-path="url(#cpNi45NzM4NXw3MTMuMDI2fDI4MC40NDV8Ni45NzM4NQ==)"/>
  <line x1="435.94" y1="227.34" x2="435.94" y2="280.44" style="stroke-width: 1.07; stroke: #0278DD;" clip-path="url(#cpNi45NzM4NXw3MTMuMDI2fDI4MC40NDV8Ni45NzM4NQ==)"/>
  <line x1="656.10" y1="183.60" x2="656.10" y2="280.44" style="stroke-width: 1.07; stroke: #FF4237;" clip-path="url(#cpNi45NzM4NXw3MTMuMDI2fDI4MC40NDV8Ni45NzM4NQ==)"/>
  <line x1="542.30" y1="246.91" x2="542.30" y2="280.44" style="stroke-width: 1.07; stroke: #0278DD;" clip-path="url(#cpNi45NzM4NXw3MTMuMDI2fDI4MC40NDV8Ni45NzM4NQ==)"/>
  <line x1="624.24" y1="261.34" x2="624.24" y2="280.44" style="stroke-width: 1.07; stroke: #E0AB00;" clip-path="url(#cpNi45NzM4NXw3MTMuMDI2fDI4MC40NDV8Ni45NzM4NQ==)"/>
  <line x1="522.85" y1="223.79" x2="522.85" y2="280.44" style="stroke-width: 1.07; stroke: #7FBE00;" clip-path="url(#cpNi45NzM4NXw3MTMuMDI2fDI4MC40NDV8Ni45NzM4NQ==)"/>
  <line x1="466.56" y1="249.04" x2="466.56" y2="280.44" style="stroke-width: 1.07; stroke: #0278DD;" clip-path="url(#cpNi45NzM4NXw3MTMuMDI2fDI4MC40NDV8Ni45NzM4NQ==)"/>
  <line x1="85.83" y1="272.98" x2="85.83" y2="280.44" style="stroke-width: 1.07; stroke: #0278DD;" clip-path="url(#cpNi45NzM4NXw3MTMuMDI2fDI4MC40NDV8Ni45NzM4NQ==)"/>
  <line x1="569.61" y1="80.51" x2="569.61" y2="280.44" style="stroke-width: 1.07; stroke: #0278DD;" clip-path="url(#cpNi45NzM4NXw3MTMuMDI2fDI4MC40NDV8Ni45NzM4NQ==)"/>
  <line x1="579.54" y1="266.83" x2="579.54" y2="280.44" style="stroke-width: 1.07; stroke: #7FBE00;" clip-path="url(#cpNi45NzM4NXw3MTMuMDI2fDI4MC40NDV8Ni45NzM4NQ==)"/>
  <line x1="562.57" y1="224.98" x2="562.57" y2="280.44" style="stroke-width: 1.07; stroke: #003D76;" clip-path="url(#cpNi45NzM4NXw3MTMuMDI2fDI4MC40NDV8Ni45NzM4NQ==)"/>
  <line x1="572.09" y1="202.94" x2="572.09" y2="280.44" style="stroke-width: 1.07; stroke: #0278DD;" clip-path="url(#cpNi45NzM4NXw3MTMuMDI2fDI4MC40NDV8Ni45NzM4NQ==)"/>
  <line x1="380.49" y1="252.38" x2="380.49" y2="280.44" style="stroke-width: 1.07; stroke: #0278DD;" clip-path="url(#cpNi45NzM4NXw3MTMuMDI2fDI4MC40NDV8Ni45NzM4NQ==)"/>
  <line x1="189.29" y1="273.23" x2="189.29" y2="280.44" style="stroke-width: 1.07; stroke: #E0AB00;" clip-path="url(#cpNi45NzM4NXw3MTMuMDI2fDI4MC40NDV8Ni45NzM4NQ==)"/>
  <line x1="487.26" y1="275.98" x2="487.26" y2="280.44" style="stroke-width: 1.07; stroke: #E0AB00;" clip-path="url(#cpNi45NzM4NXw3MTMuMDI2fDI4MC40NDV8Ni45NzM4NQ==)"/>
  <line x1="659.41" y1="246.24" x2="659.41" y2="280.44" style="stroke-width: 1.07; stroke: #E0AB00;" clip-path="url(#cpNi45NzM4NXw3MTMuMDI2fDI4MC40NDV8Ni45NzM4NQ==)"/>
  <line x1="457.05" y1="168.00" x2="457.05" y2="280.44" style="stroke-width: 1.07; stroke: #0278DD;" clip-path="url(#cpNi45NzM4NXw3MTMuMDI2fDI4MC40NDV8Ni45NzM4NQ==)"/>
  <line x1="577.89" y1="139.36" x2="577.89" y2="280.43" style="stroke-width: 1.07; stroke: #0278DD;" clip-path="url(#cpNi45NzM4NXw3MTMuMDI2fDI4MC40NDV8Ni45NzM4NQ==)"/>
  <line x1="562.99" y1="119.54" x2="562.99" y2="280.43" style="stroke-width: 1.07; stroke: #E0AB00;" clip-path="url(#cpNi45NzM4NXw3MTMuMDI2fDI4MC40NDV8Ni45NzM4NQ==)"/>
  <line x1="593.20" y1="181.98" x2="593.20" y2="280.43" style="stroke-width: 1.07; stroke: #FF8821;" clip-path="url(#cpNi45NzM4NXw3MTMuMDI2fDI4MC40NDV8Ni45NzM4NQ==)"/>
  <line x1="526.57" y1="166.28" x2="526.57" y2="280.43" style="stroke-width: 1.07; stroke: #E0AB00;" clip-path="url(#cpNi45NzM4NXw3MTMuMDI2fDI4MC40NDV8Ni45NzM4NQ==)"/>
  <line x1="513.74" y1="185.48" x2="513.74" y2="280.43" style="stroke-width: 1.07; stroke: #E0AB00;" clip-path="url(#cpNi45NzM4NXw3MTMuMDI2fDI4MC40NDV8Ni45NzM4NQ==)"/>
  <line x1="356.90" y1="274.89" x2="356.90" y2="280.43" style="stroke-width: 1.07; stroke: #3AD1D1;" clip-path="url(#cpNi45NzM4NXw3MTMuMDI2fDI4MC40NDV8Ni45NzM4NQ==)"/>
  <line x1="485.60" y1="203.94" x2="485.60" y2="280.43" style="stroke-width: 1.07; stroke: #E0AB00;" clip-path="url(#cpNi45NzM4NXw3MTMuMDI2fDI4MC40NDV8Ni45NzM4NQ==)"/>
  <line x1="514.16" y1="78.07" x2="514.16" y2="280.43" style="stroke-width: 1.07; stroke: #E0AB00;" clip-path="url(#cpNi45NzM4NXw3MTMuMDI2fDI4MC40NDV8Ni45NzM4NQ==)"/>
  <line x1="580.37" y1="60.17" x2="580.37" y2="280.43" style="stroke-width: 1.07; stroke: #3AD1D1;" clip-path="url(#cpNi45NzM4NXw3MTMuMDI2fDI4MC40NDV8Ni45NzM4NQ==)"/>
  <line x1="517.88" y1="56.11" x2="517.88" y2="280.43" style="stroke-width: 1.07; stroke: #7FBE00;" clip-path="url(#cpNi45NzM4NXw3MTMuMDI2fDI4MC40NDV8Ni45NzM4NQ==)"/>
  <line x1="291.51" y1="229.62" x2="291.51" y2="280.43" style="stroke-width: 1.07; stroke: #0278DD;" clip-path="url(#cpNi45NzM4NXw3MTMuMDI2fDI4MC40NDV8Ni45NzM4NQ==)"/>
  <line x1="631.69" y1="119.18" x2="631.69" y2="280.43" style="stroke-width: 1.07; stroke: #7FBE00;" clip-path="url(#cpNi45NzM4NXw3MTMuMDI2fDI4MC40NDV8Ni45NzM4NQ==)"/>
  <line x1="583.68" y1="101.14" x2="583.68" y2="280.43" style="stroke-width: 1.07; stroke: #3AD1D1;" clip-path="url(#cpNi45NzM4NXw3MTMuMDI2fDI4MC40NDV8Ni45NzM4NQ==)"/>
  <line x1="554.71" y1="44.91" x2="554.71" y2="280.43" style="stroke-width: 1.07; stroke: #0278DD;" clip-path="url(#cpNi45NzM4NXw3MTMuMDI2fDI4MC40NDV8Ni45NzM4NQ==)"/>
  <line x1="396.21" y1="130.46" x2="396.21" y2="280.43" style="stroke-width: 1.07; stroke: #E0AB00;" clip-path="url(#cpNi45NzM4NXw3MTMuMDI2fDI4MC40NDV8Ni45NzM4NQ==)"/>
  <line x1="255.51" y1="274.81" x2="255.51" y2="280.43" style="stroke-width: 1.07; stroke: #0278DD;" clip-path="url(#cpNi45NzM4NXw3MTMuMDI2fDI4MC40NDV8Ni45NzM4NQ==)"/>
  <line x1="386.28" y1="79.27" x2="386.28" y2="280.43" style="stroke-width: 1.07; stroke: #0278DD;" clip-path="url(#cpNi45NzM4NXw3MTMuMDI2fDI4MC40NDV8Ni45NzM4NQ==)"/>
  <line x1="616.37" y1="41.46" x2="616.37" y2="280.43" style="stroke-width: 1.07; stroke: #CA0565;" clip-path="url(#cpNi45NzM4NXw3MTMuMDI2fDI4MC40NDV8Ni45NzM4NQ==)"/>
  <line x1="651.96" y1="225.85" x2="651.96" y2="280.43" style="stroke-width: 1.07; stroke: #E0AB00;" clip-path="url(#cpNi45NzM4NXw3MTMuMDI2fDI4MC40NDV8Ni45NzM4NQ==)"/>
  <line x1="537.33" y1="99.83" x2="537.33" y2="280.42" style="stroke-width: 1.07; stroke: #E0AB00;" clip-path="url(#cpNi45NzM4NXw3MTMuMDI2fDI4MC40NDV8Ni45NzM4NQ==)"/>
  <line x1="617.62" y1="205.55" x2="617.62" y2="280.42" style="stroke-width: 1.07; stroke: #0278DD;" clip-path="url(#cpNi45NzM4NXw3MTMuMDI2fDI4MC40NDV8Ni45NzM4NQ==)"/>
  <line x1="410.70" y1="57.11" x2="410.70" y2="280.42" style="stroke-width: 1.07; stroke: #0278DD;" clip-path="url(#cpNi45NzM4NXw3MTMuMDI2fDI4MC40NDV8Ni45NzM4NQ==)"/>
  <line x1="603.96" y1="161.82" x2="603.96" y2="280.42" style="stroke-width: 1.07; stroke: #FF4237;" clip-path="url(#cpNi45NzM4NXw3MTMuMDI2fDI4MC40NDV8Ni45NzM4NQ==)"/>
  <line x1="564.64" y1="24.93" x2="564.64" y2="280.42" style="stroke-width: 1.07; stroke: #0278DD;" clip-path="url(#cpNi45NzM4NXw3MTMuMDI2fDI4MC40NDV8Ni45NzM4NQ==)"/>
  <line x1="658.17" y1="64.17" x2="658.17" y2="280.42" style="stroke-width: 1.07; stroke: #E0AB00;" clip-path="url(#cpNi45NzM4NXw3MTMuMDI2fDI4MC40NDV8Ni45NzM4NQ==)"/>
  <line x1="391.66" y1="215.05" x2="391.66" y2="280.42" style="stroke-width: 1.07; stroke: #3AD1D1;" clip-path="url(#cpNi45NzM4NXw3MTMuMDI2fDI4MC40NDV8Ni45NzM4NQ==)"/>
  <line x1="345.72" y1="194.80" x2="345.72" y2="280.42" style="stroke-width: 1.07; stroke: #E0AB00;" clip-path="url(#cpNi45NzM4NXw3MTMuMDI2fDI4MC40NDV8Ni45NzM4NQ==)"/>
  <line x1="455.80" y1="131.86" x2="455.80" y2="280.42" style="stroke-width: 1.07; stroke: #0278DD;" clip-path="url(#cpNi45NzM4NXw3MTMuMDI2fDI4MC40NDV8Ni45NzM4NQ==)"/>
  <line x1="531.54" y1="24.93" x2="531.54" y2="280.42" style="stroke-width: 1.07; stroke: #E0AB00;" clip-path="url(#cpNi45NzM4NXw3MTMuMDI2fDI4MC40NDV8Ni45NzM4NQ==)"/>
  <line x1="200.88" y1="251.03" x2="200.88" y2="280.42" style="stroke-width: 1.07; stroke: #E0AB00;" clip-path="url(#cpNi45NzM4NXw3MTMuMDI2fDI4MC40NDV8Ni45NzM4NQ==)"/>
  <line x1="76.31" y1="249.28" x2="76.31" y2="280.42" style="stroke-width: 1.07; stroke: #E0AB00;" clip-path="url(#cpNi45NzM4NXw3MTMuMDI2fDI4MC40NDV8Ni45NzM4NQ==)"/>
  <line x1="416.08" y1="33.65" x2="416.08" y2="280.42" style="stroke-width: 1.07; stroke: #E0AB00;" clip-path="url(#cpNi45NzM4NXw3MTMuMDI2fDI4MC40NDV8Ni45NzM4NQ==)"/>
  <line x1="382.14" y1="173.38" x2="382.14" y2="280.42" style="stroke-width: 1.07; stroke: #FF4237;" clip-path="url(#cpNi45NzM4NXw3MTMuMDI2fDI4MC40NDV8Ni45NzM4NQ==)"/>
  <line x1="668.52" y1="141.82" x2="668.52" y2="280.42" style="stroke-width: 1.07; stroke: #FF4237;" clip-path="url(#cpNi45NzM4NXw3MTMuMDI2fDI4MC40NDV8Ni45NzM4NQ==)"/>
  <line x1="630.44" y1="94.99" x2="630.44" y2="280.42" style="stroke-width: 1.07; stroke: #0278DD;" clip-path="url(#cpNi45NzM4NXw3MTMuMDI2fDI4MC40NDV8Ni45NzM4NQ==)"/>
  <line x1="297.72" y1="162.97" x2="297.72" y2="280.42" style="stroke-width: 1.07; stroke: #0278DD;" clip-path="url(#cpNi45NzM4NXw3MTMuMDI2fDI4MC40NDV8Ni45NzM4NQ==)"/>
  <line x1="531.12" y1="142.13" x2="531.12" y2="280.42" style="stroke-width: 1.07; stroke: #E0AB00;" clip-path="url(#cpNi45NzM4NXw3MTMuMDI2fDI4MC40NDV8Ni45NzM4NQ==)"/>
  <line x1="434.28" y1="107.96" x2="434.28" y2="280.42" style="stroke-width: 1.07; stroke: #E0AB00;" clip-path="url(#cpNi45NzM4NXw3MTMuMDI2fDI4MC40NDV8Ni45NzM4NQ==)"/>
  <defs>
    <clipPath id="cpNi45NzM4NXw3MTMuMDI2fDI4MC40NDV8Ni45NzM4NQ==">
      <rect x="6.97" y="6.97" width="706.05" height="273.47"/>
    </clipPath>
  </defs>
  <polyline points="415.14,107.96 453.42,107.96 453.34,107.96 453.68,107.95 454.03,107.88 454.35,107.75 454.65,107.58 454.92,107.36 455.15,107.10 455.34,106.80 455.47,106.48 455.56,106.15 455.58,105.80 455.58,105.80 455.58,95.76 455.58,95.76 455.56,95.42 455.47,95.08 455.34,94.76 455.15,94.47 454.92,94.21 454.65,93.99 454.35,93.81 454.03,93.69 453.68,93.62 453.42,93.60 415.14,93.60 415.40,93.62 415.06,93.61 414.71,93.65 414.38,93.74 414.06,93.89 413.78,94.09 413.53,94.33 413.32,94.61 413.16,94.92 413.05,95.25 412.99,95.59 412.98,95.76 412.98,105.80 412.99,105.63 412.99,105.97 413.05,106.32 413.16,106.65 413.32,106.96 413.53,107.23 413.78,107.47 414.06,107.67 414.38,107.82 414.71,107.92 415.06,107.96 " style="stroke-width: 0.53; stroke: #E0AB00; fill: #E0AB00;" clip-path="url(#cpNi45NzM4NXw3MTMuMDI2fDI4MC40NDV8Ni45NzM4NQ==)"/>
  <g clip-path="url(#cpNi45NzM4NXw3MTMuMDI2fDI4MC40NDV8Ni45NzM4NQ==)">
    <text x="416.58" y="104.36" style="font-size: 9.96px; fill: #FFF; font-family: Arial;" textLength="35.40px" lengthAdjust="spacingAndGlyphs">cellTree</text>
  </g>
  <polyline points="515.03,142.13 547.22,142.13 547.13,142.12 547.48,142.11 547.82,142.04 548.14,141.92 548.44,141.74 548.71,141.52 548.94,141.26 549.13,140.97 549.27,140.65 549.35,140.31 549.38,139.97 549.38,139.97 549.38,129.93 549.38,129.93 549.35,129.58 549.27,129.25 549.13,128.93 548.94,128.63 548.71,128.37 548.44,128.15 548.14,127.98 547.82,127.85 547.48,127.78 547.22,127.77 515.03,127.77 515.29,127.78 514.94,127.77 514.60,127.81 514.26,127.91 513.95,128.06 513.66,128.26 513.41,128.50 513.20,128.77 513.04,129.08 512.93,129.41 512.87,129.76 512.87,129.93 512.87,139.97 512.87,139.79 512.87,140.14 512.93,140.48 513.04,140.81 513.20,141.12 513.41,141.40 513.66,141.64 513.95,141.84 514.26,141.99 514.60,142.08 514.94,142.12 " style="stroke-width: 0.53; stroke: #E0AB00; fill: #E0AB00;" clip-path="url(#cpNi45NzM4NXw3MTMuMDI2fDI4MC40NDV8Ni45NzM4NQ==)"/>
  <g clip-path="url(#cpNi45NzM4NXw3MTMuMDI2fDI4MC40NDV8Ni45NzM4NQ==)">
    <text x="516.47" y="138.53" style="font-size: 9.96px; fill: #FFF; font-family: Arial;" textLength="29.31px" lengthAdjust="spacingAndGlyphs">TASIC</text>
  </g>
  <polyline points="276.64,162.97 318.80,162.97 318.71,162.97 319.06,162.96 319.40,162.89 319.72,162.76 320.03,162.59 320.29,162.37 320.53,162.11 320.71,161.81 320.85,161.50 320.93,161.16 320.96,160.81 320.96,160.81 320.96,150.77 320.96,150.77 320.93,150.43 320.85,150.09 320.71,149.77 320.53,149.48 320.29,149.22 320.03,149.00 319.72,148.82 319.40,148.70 319.06,148.63 318.80,148.61 276.64,148.61 276.90,148.63 276.55,148.62 276.20,148.66 275.87,148.76 275.56,148.90 275.27,149.10 275.02,149.34 274.81,149.62 274.65,149.93 274.54,150.26 274.48,150.60 274.48,150.77 274.48,160.81 274.48,160.64 274.48,160.98 274.54,161.33 274.65,161.66 274.81,161.97 275.02,162.24 275.27,162.48 275.56,162.68 275.87,162.83 276.20,162.93 276.55,162.97 " style="stroke-width: 0.53; stroke: #0278DD; fill: #0278DD;" clip-path="url(#cpNi45NzM4NXw3MTMuMDI2fDI4MC40NDV8Ni45NzM4NQ==)"/>
  <g clip-path="url(#cpNi45NzM4NXw3MTMuMDI2fDI4MC40NDV8Ni45NzM4NQ==)">
    <text x="278.08" y="159.37" style="font-size: 9.96px; fill: #FFF; font-family: Arial;" textLength="39.28px" lengthAdjust="spacingAndGlyphs">embeddr</text>
  </g>
  <polyline points="615.73,94.99 645.16,94.99 645.07,94.98 645.42,94.97 645.76,94.90 646.09,94.78 646.39,94.60 646.66,94.38 646.89,94.12 647.07,93.83 647.21,93.51 647.29,93.17 647.32,92.83 647.32,92.83 647.32,82.79 647.32,82.79 647.29,82.44 647.21,82.11 647.07,81.79 646.89,81.49 646.66,81.23 646.39,81.01 646.09,80.84 645.76,80.71 645.42,80.64 645.16,80.63 615.73,80.63 615.99,80.64 615.64,80.63 615.30,80.67 614.96,80.77 614.65,80.92 614.36,81.12 614.11,81.36 613.90,81.63 613.74,81.94 613.63,82.27 613.58,82.62 613.57,82.79 613.57,92.83 613.58,92.65 613.58,93.00 613.63,93.34 613.74,93.67 613.90,93.98 614.11,94.26 614.36,94.50 614.65,94.70 614.96,94.84 615.30,94.94 615.64,94.98 " style="stroke-width: 0.53; stroke: #0278DD; fill: #0278DD;" clip-path="url(#cpNi45NzM4NXw3MTMuMDI2fDI4MC40NDV8Ni45NzM4NQ==)"/>
  <g clip-path="url(#cpNi45NzM4NXw3MTMuMDI2fDI4MC40NDV8Ni45NzM4NQ==)">
    <text x="617.17" y="91.39" style="font-size: 9.96px; fill: #FFF; font-family: Arial;" textLength="26.55px" lengthAdjust="spacingAndGlyphs">iCpSc</text>
  </g>
  <polyline points="639.42,141.82 697.62,141.82 697.53,141.82 697.88,141.81 698.22,141.74 698.54,141.61 698.84,141.44 699.11,141.22 699.34,140.96 699.53,140.67 699.66,140.35 699.75,140.01 699.78,139.66 699.78,139.66 699.78,129.63 699.78,129.63 699.75,129.28 699.66,128.94 699.53,128.62 699.34,128.33 699.11,128.07 698.84,127.85 698.54,127.68 698.22,127.55 697.88,127.48 697.62,127.47 639.42,127.47 639.68,127.48 639.33,127.47 638.99,127.51 638.65,127.61 638.34,127.76 638.05,127.95 637.80,128.19 637.59,128.47 637.43,128.78 637.32,129.11 637.27,129.45 637.26,129.63 637.26,139.66 637.27,139.49 637.27,139.84 637.32,140.18 637.43,140.51 637.59,140.82 637.80,141.10 638.05,141.34 638.34,141.53 638.65,141.68 638.99,141.78 639.33,141.82 " style="stroke-width: 0.53; stroke: #FF4237; fill: #FF4237;" clip-path="url(#cpNi45NzM4NXw3MTMuMDI2fDI4MC40NDV8Ni45NzM4NQ==)"/>
  <g clip-path="url(#cpNi45NzM4NXw3MTMuMDI2fDI4MC40NDV8Ni45NzM4NQ==)">
    <text x="640.86" y="138.22" style="font-size: 9.96px; fill: #FFF; font-family: Arial;" textLength="55.32px" lengthAdjust="spacingAndGlyphs">ElPiGraph.R</text>
  </g>
  <polyline points="362.72,173.38 401.56,173.38 401.47,173.38 401.82,173.36 402.16,173.29 402.48,173.17 402.78,173.00 403.05,172.78 403.28,172.52 403.47,172.22 403.61,171.90 403.69,171.56 403.72,171.22 403.72,171.22 403.72,161.18 403.72,161.18 403.69,160.84 403.61,160.50 403.47,160.18 403.28,159.88 403.05,159.62 402.78,159.40 402.48,159.23 402.16,159.11 401.82,159.04 401.56,159.02 362.72,159.02 362.98,159.04 362.64,159.02 362.29,159.07 361.96,159.16 361.64,159.31 361.36,159.51 361.11,159.75 360.90,160.03 360.74,160.34 360.63,160.67 360.57,161.01 360.56,161.18 360.56,171.22 360.57,171.04 360.57,171.39 360.63,171.74 360.74,172.07 360.90,172.37 361.11,172.65 361.36,172.89 361.64,173.09 361.96,173.24 362.29,173.33 362.64,173.38 " style="stroke-width: 0.53; stroke: #FF4237; fill: #FF4237;" clip-path="url(#cpNi45NzM4NXw3MTMuMDI2fDI4MC40NDV8Ni45NzM4NQ==)"/>
  <g clip-path="url(#cpNi45NzM4NXw3MTMuMDI2fDI4MC40NDV8Ni45NzM4NQ==)">
    <text x="364.16" y="169.78" style="font-size: 9.96px; fill: #FFF; font-family: Arial;" textLength="35.95px" lengthAdjust="spacingAndGlyphs">SLICER</text>
  </g>
  <polyline points="400.80,33.65 431.35,33.65 431.26,33.65 431.61,33.64 431.95,33.57 432.27,33.44 432.57,33.27 432.84,33.05 433.07,32.79 433.26,32.50 433.40,32.18 433.48,31.84 433.51,31.49 433.51,31.49 433.51,21.46 433.51,21.46 433.48,21.11 433.40,20.77 433.26,20.45 433.07,20.16 432.84,19.90 432.57,19.68 432.27,19.51 431.95,19.38 431.61,19.31 431.35,19.30 400.80,19.30 401.06,19.31 400.72,19.30 400.37,19.34 400.04,19.44 399.72,19.59 399.44,19.78 399.19,20.02 398.98,20.30 398.82,20.61 398.71,20.94 398.65,21.28 398.64,21.46 398.64,31.49 398.65,31.32 398.65,31.67 398.71,32.01 398.82,32.34 398.98,32.65 399.19,32.93 399.44,33.17 399.72,33.36 400.04,33.51 400.37,33.61 400.72,33.65 " style="stroke-width: 0.53; stroke: #E0AB00; fill: #E0AB00;" clip-path="url(#cpNi45NzM4NXw3MTMuMDI2fDI4MC40NDV8Ni45NzM4NQ==)"/>
  <g clip-path="url(#cpNi45NzM4NXw3MTMuMDI2fDI4MC40NDV8Ni45NzM4NQ==)">
    <text x="402.24" y="30.05" style="font-size: 9.96px; fill: #FFF; font-family: Arial;" textLength="27.66px" lengthAdjust="spacingAndGlyphs">Mpath</text>
  </g>
  <polyline points="51.91,249.28 100.71,249.28 100.63,249.28 100.97,249.26 101.31,249.19 101.64,249.07 101.94,248.90 102.21,248.68 102.44,248.42 102.63,248.12 102.76,247.80 102.85,247.46 102.87,247.12 102.87,247.12 102.87,237.08 102.87,237.08 102.85,236.74 102.76,236.40 102.63,236.08 102.44,235.78 102.21,235.52 101.94,235.30 101.64,235.13 101.31,235.01 100.97,234.94 100.71,234.92 51.91,234.92 52.17,234.94 51.83,234.92 51.48,234.97 51.15,235.06 50.83,235.21 50.55,235.41 50.30,235.65 50.09,235.93 49.92,236.23 49.81,236.56 49.76,236.91 49.75,237.08 49.75,247.12 49.76,246.94 49.76,247.29 49.81,247.63 49.92,247.96 50.09,248.27 50.30,248.55 50.55,248.79 50.83,248.99 51.15,249.14 51.48,249.23 51.83,249.28 " style="stroke-width: 0.53; stroke: #E0AB00; fill: #E0AB00;" clip-path="url(#cpNi45NzM4NXw3MTMuMDI2fDI4MC40NDV8Ni45NzM4NQ==)"/>
  <g clip-path="url(#cpNi45NzM4NXw3MTMuMDI2fDI4MC40NDV8Ni45NzM4NQ==)">
    <text x="53.35" y="245.68" style="font-size: 9.96px; fill: #FFF; font-family: Arial;" textLength="45.92px" lengthAdjust="spacingAndGlyphs">Monocle 1</text>
  </g>
  <polyline points="185.61,251.03 216.15,251.03 216.06,251.03 216.41,251.01 216.75,250.94 217.07,250.82 217.37,250.65 217.64,250.43 217.87,250.17 218.06,249.87 218.20,249.55 218.28,249.21 218.31,248.87 218.31,248.87 218.31,238.83 218.31,238.83 218.28,238.49 218.20,238.15 218.06,237.83 217.87,237.53 217.64,237.27 217.37,237.05 217.07,236.88 216.75,236.76 216.41,236.69 216.15,236.67 185.61,236.67 185.87,236.69 185.52,236.67 185.18,236.72 184.84,236.81 184.53,236.96 184.24,237.16 183.99,237.40 183.78,237.68 183.62,237.99 183.51,238.31 183.46,238.66 183.45,238.83 183.45,248.87 183.46,248.69 183.46,249.04 183.51,249.39 183.62,249.71 183.78,250.02 183.99,250.30 184.24,250.54 184.53,250.74 184.84,250.89 185.18,250.98 185.52,251.03 " style="stroke-width: 0.53; stroke: #E0AB00; fill: #E0AB00;" clip-path="url(#cpNi45NzM4NXw3MTMuMDI2fDI4MC40NDV8Ni45NzM4NQ==)"/>
  <g clip-path="url(#cpNi45NzM4NXw3MTMuMDI2fDI4MC40NDV8Ni45NzM4NQ==)">
    <text x="187.05" y="247.43" style="font-size: 9.96px; fill: #FFF; font-family: Arial;" textLength="27.66px" lengthAdjust="spacingAndGlyphs">sincell</text>
  </g>
  <polyline points="511.85,24.93 551.23,24.93 551.14,24.93 551.49,24.91 551.83,24.84 552.15,24.72 552.45,24.55 552.72,24.33 552.95,24.07 553.14,23.77 553.27,23.45 553.36,23.12 553.39,22.77 553.39,22.77 553.39,12.73 553.39,12.73 553.36,12.39 553.27,12.05 553.14,11.73 552.95,11.44 552.72,11.18 552.45,10.96 552.15,10.78 551.83,10.66 551.49,10.59 551.23,10.57 511.85,10.57 512.11,10.59 511.76,10.58 511.42,10.62 511.08,10.71 510.77,10.86 510.48,11.06 510.23,11.30 510.02,11.58 509.86,11.89 509.75,12.22 509.69,12.56 509.69,12.73 509.69,22.77 509.69,22.60 509.69,22.94 509.75,23.29 509.86,23.62 510.02,23.92 510.23,24.20 510.48,24.44 510.77,24.64 511.08,24.79 511.42,24.89 511.76,24.93 " style="stroke-width: 0.53; stroke: #E0AB00; fill: #E0AB00;" clip-path="url(#cpNi45NzM4NXw3MTMuMDI2fDI4MC40NDV8Ni45NzM4NQ==)"/>
  <g clip-path="url(#cpNi45NzM4NXw3MTMuMDI2fDI4MC40NDV8Ni45NzM4NQ==)">
    <text x="513.29" y="21.33" style="font-size: 9.96px; fill: #FFF; font-family: Arial;" textLength="36.50px" lengthAdjust="spacingAndGlyphs">SOMSC</text>
  </g>
  <polyline points="430.59,131.86 481.02,131.86 480.93,131.86 481.28,131.84 481.62,131.77 481.95,131.65 482.25,131.48 482.52,131.26 482.75,131.00 482.93,130.70 483.07,130.38 483.15,130.05 483.18,129.70 483.18,129.70 483.18,119.66 483.18,119.66 483.15,119.32 483.07,118.98 482.93,118.66 482.75,118.37 482.52,118.11 482.25,117.89 481.95,117.71 481.62,117.59 481.28,117.52 481.02,117.50 430.59,117.50 430.85,117.52 430.50,117.50 430.15,117.55 429.82,117.64 429.51,117.79 429.22,117.99 428.97,118.23 428.76,118.51 428.60,118.82 428.49,119.15 428.43,119.49 428.43,119.66 428.43,129.70 428.43,129.53 428.43,129.87 428.49,130.22 428.60,130.55 428.76,130.85 428.97,131.13 429.22,131.37 429.51,131.57 429.82,131.72 430.15,131.82 430.50,131.86 " style="stroke-width: 0.53; stroke: #0278DD; fill: #0278DD;" clip-path="url(#cpNi45NzM4NXw3MTMuMDI2fDI4MC40NDV8Ni45NzM4NQ==)"/>
  <g clip-path="url(#cpNi45NzM4NXw3MTMuMDI2fDI4MC40NDV8Ni45NzM4NQ==)">
    <text x="432.03" y="128.26" style="font-size: 9.96px; fill: #FFF; font-family: Arial;" textLength="47.55px" lengthAdjust="spacingAndGlyphs">SCIMITAR</text>
  </g>
  <polyline points="326.31,194.80 365.14,194.80 365.05,194.80 365.40,194.78 365.74,194.71 366.07,194.59 366.37,194.42 366.64,194.20 366.87,193.94 367.05,193.64 367.19,193.32 367.27,192.99 367.30,192.64 367.30,192.64 367.30,182.60 367.30,182.60 367.27,182.26 367.19,181.92 367.05,181.60 366.87,181.31 366.64,181.05 366.37,180.83 366.07,180.65 365.74,180.53 365.40,180.46 365.14,180.44 326.31,180.44 326.57,180.46 326.22,180.45 325.87,180.49 325.54,180.58 325.23,180.73 324.94,180.93 324.69,181.17 324.48,181.45 324.32,181.76 324.21,182.09 324.15,182.43 324.15,182.60 324.15,192.64 324.15,192.47 324.15,192.81 324.21,193.16 324.32,193.49 324.48,193.79 324.69,194.07 324.94,194.31 325.23,194.51 325.54,194.66 325.87,194.76 326.22,194.80 " style="stroke-width: 0.53; stroke: #E0AB00; fill: #E0AB00;" clip-path="url(#cpNi45NzM4NXw3MTMuMDI2fDI4MC40NDV8Ni45NzM4NQ==)"/>
  <g clip-path="url(#cpNi45NzM4NXw3MTMuMDI2fDI4MC40NDV8Ni45NzM4NQ==)">
    <text x="327.75" y="191.20" style="font-size: 9.96px; fill: #FFF; font-family: Arial;" textLength="35.95px" lengthAdjust="spacingAndGlyphs">ECLAIR</text>
  </g>
  <polyline points="368.09,215.05 415.23,215.05 415.14,215.05 415.49,215.03 415.83,214.96 416.15,214.84 416.46,214.67 416.72,214.45 416.96,214.19 417.14,213.89 417.28,213.57 417.36,213.23 417.39,212.89 417.39,212.89 417.39,202.85 417.39,202.85 417.36,202.51 417.28,202.17 417.14,201.85 416.96,201.55 416.72,201.29 416.46,201.07 416.15,200.90 415.83,200.78 415.49,200.71 415.23,200.69 368.09,200.69 368.35,200.71 368.00,200.69 367.66,200.74 367.32,200.83 367.01,200.98 366.72,201.18 366.47,201.42 366.26,201.70 366.10,202.01 365.99,202.33 365.94,202.68 365.93,202.85 365.93,212.89 365.94,212.71 365.94,213.06 365.99,213.41 366.10,213.73 366.26,214.04 366.47,214.32 366.72,214.56 367.01,214.76 367.32,214.91 367.66,215.00 368.00,215.05 " style="stroke-width: 0.53; stroke: #3AD1D1; fill: #3AD1D1;" clip-path="url(#cpNi45NzM4NXw3MTMuMDI2fDI4MC40NDV8Ni45NzM4NQ==)"/>
  <g clip-path="url(#cpNi45NzM4NXw3MTMuMDI2fDI4MC40NDV8Ni45NzM4NQ==)">
    <text x="369.53" y="211.45" style="font-size: 9.96px; fill: #FFF; font-family: Arial;" textLength="44.26px" lengthAdjust="spacingAndGlyphs">Wishbone</text>
  </g>
  <polyline points="638.75,64.17 677.59,64.17 677.51,64.17 677.85,64.15 678.19,64.08 678.52,63.96 678.82,63.78 679.09,63.57 679.32,63.30 679.51,63.01 679.64,62.69 679.73,62.35 679.75,62.01 679.75,62.01 679.75,51.97 679.75,51.97 679.73,51.62 679.64,51.29 679.51,50.97 679.32,50.67 679.09,50.41 678.82,50.19 678.52,50.02 678.19,49.90 677.85,49.83 677.59,49.81 638.75,49.81 639.01,49.83 638.66,49.81 638.32,49.85 637.98,49.95 637.67,50.10 637.38,50.30 637.13,50.54 636.92,50.82 636.76,51.12 636.65,51.45 636.60,51.80 636.59,51.97 636.59,62.01 636.60,61.83 636.60,62.18 636.65,62.52 636.76,62.85 636.92,63.16 637.13,63.44 637.38,63.68 637.67,63.88 637.98,64.03 638.32,64.12 638.66,64.17 " style="stroke-width: 0.53; stroke: #E0AB00; fill: #E0AB00;" clip-path="url(#cpNi45NzM4NXw3MTMuMDI2fDI4MC40NDV8Ni45NzM4NQ==)"/>
  <g clip-path="url(#cpNi45NzM4NXw3MTMuMDI2fDI4MC40NDV8Ni45NzM4NQ==)">
    <text x="640.19" y="60.57" style="font-size: 9.96px; fill: #FFF; font-family: Arial;" textLength="35.96px" lengthAdjust="spacingAndGlyphs">scEpath</text>
  </g>
  <polyline points="538.60,24.93 590.69,24.93 590.60,24.93 590.95,24.91 591.29,24.84 591.62,24.72 591.92,24.55 592.19,24.33 592.42,24.07 592.60,23.77 592.74,23.45 592.82,23.12 592.85,22.77 592.85,22.77 592.85,12.73 592.85,12.73 592.82,12.39 592.74,12.05 592.60,11.73 592.42,11.44 592.19,11.18 591.92,10.96 591.62,10.78 591.29,10.66 590.95,10.59 590.69,10.57 538.60,10.57 538.86,10.59 538.51,10.58 538.17,10.62 537.83,10.71 537.52,10.86 537.23,11.06 536.98,11.30 536.77,11.58 536.61,11.89 536.50,12.22 536.45,12.56 536.44,12.73 536.44,22.77 536.45,22.60 536.45,22.94 536.50,23.29 536.61,23.62 536.77,23.92 536.98,24.20 537.23,24.44 537.52,24.64 537.83,24.79 538.17,24.89 538.51,24.93 " style="stroke-width: 0.53; stroke: #0278DD; fill: #0278DD;" clip-path="url(#cpNi45NzM4NXw3MTMuMDI2fDI4MC40NDV8Ni45NzM4NQ==)"/>
  <g clip-path="url(#cpNi45NzM4NXw3MTMuMDI2fDI4MC40NDV8Ni45NzM4NQ==)">
    <text x="540.04" y="21.33" style="font-size: 9.96px; fill: #FFF; font-family: Arial;" textLength="49.21px" lengthAdjust="spacingAndGlyphs">MATCHER</text>
  </g>
  <polyline points="559.39,161.82 648.52,161.82 648.44,161.82 648.78,161.80 649.12,161.73 649.45,161.61 649.75,161.44 650.02,161.22 650.25,160.96 650.44,160.66 650.57,160.34 650.66,160.01 650.68,159.66 650.68,159.66 650.68,149.62 650.68,149.62 650.66,149.28 650.57,148.94 650.44,148.62 650.25,148.33 650.02,148.07 649.75,147.85 649.45,147.67 649.12,147.55 648.78,147.48 648.52,147.46 559.39,147.46 559.65,147.48 559.31,147.47 558.96,147.51 558.63,147.60 558.31,147.75 558.03,147.95 557.78,148.19 557.57,148.47 557.41,148.78 557.30,149.11 557.24,149.45 557.23,149.62 557.23,159.66 557.24,159.49 557.24,159.83 557.30,160.18 557.41,160.51 557.57,160.81 557.78,161.09 558.03,161.33 558.31,161.53 558.63,161.68 558.96,161.78 559.31,161.82 " style="stroke-width: 0.53; stroke: #FF4237; fill: #FF4237;" clip-path="url(#cpNi45NzM4NXw3MTMuMDI2fDI4MC40NDV8Ni45NzM4NQ==)"/>
  <g clip-path="url(#cpNi45NzM4NXw3MTMuMDI2fDI4MC40NDV8Ni45NzM4NQ==)">
    <text x="560.83" y="158.22" style="font-size: 9.96px; fill: #FFF; font-family: Arial;" textLength="86.25px" lengthAdjust="spacingAndGlyphs">WADDINGTON-OT</text>
  </g>
  <polyline points="387.40,57.11 433.99,57.11 433.91,57.11 434.25,57.10 434.59,57.03 434.92,56.90 435.22,56.73 435.49,56.51 435.72,56.25 435.91,55.96 436.04,55.64 436.12,55.30 436.15,54.95 436.15,54.95 436.15,44.92 436.15,44.92 436.12,44.57 436.04,44.23 435.91,43.91 435.72,43.62 435.49,43.36 435.22,43.14 434.92,42.96 434.59,42.84 434.25,42.77 433.99,42.76 387.40,42.76 387.66,42.77 387.31,42.76 386.97,42.80 386.63,42.90 386.32,43.04 386.03,43.24 385.78,43.48 385.57,43.76 385.41,44.07 385.30,44.40 385.24,44.74 385.24,44.92 385.24,54.95 385.24,54.78 385.24,55.13 385.30,55.47 385.41,55.80 385.57,56.11 385.78,56.38 386.03,56.62 386.32,56.82 386.63,56.97 386.97,57.07 387.31,57.11 " style="stroke-width: 0.53; stroke: #0278DD; fill: #0278DD;" clip-path="url(#cpNi45NzM4NXw3MTMuMDI2fDI4MC40NDV8Ni45NzM4NQ==)"/>
  <g clip-path="url(#cpNi45NzM4NXw3MTMuMDI2fDI4MC40NDV8Ni45NzM4NQ==)">
    <text x="388.84" y="53.51" style="font-size: 9.96px; fill: #FFF; font-family: Arial;" textLength="43.72px" lengthAdjust="spacingAndGlyphs">DeLorean</text>
  </g>
  <polyline points="583.81,205.55 651.42,205.55 651.34,205.55 651.68,205.54 652.02,205.47 652.35,205.34 652.65,205.17 652.92,204.95 653.15,204.69 653.34,204.40 653.47,204.08 653.55,203.74 653.58,203.39 653.58,203.39 653.58,193.36 653.58,193.36 653.55,193.01 653.47,192.67 653.34,192.35 653.15,192.06 652.92,191.80 652.65,191.58 652.35,191.40 652.02,191.28 651.68,191.21 651.42,191.20 583.81,191.20 584.07,191.21 583.72,191.20 583.38,191.24 583.04,191.34 582.73,191.48 582.44,191.68 582.19,191.92 581.98,192.20 581.82,192.51 581.71,192.84 581.66,193.18 581.65,193.36 581.65,203.39 581.66,203.22 581.66,203.57 581.71,203.91 581.82,204.24 581.98,204.55 582.19,204.82 582.44,205.06 582.73,205.26 583.04,205.41 583.38,205.51 583.72,205.55 " style="stroke-width: 0.53; stroke: #0278DD; fill: #0278DD;" clip-path="url(#cpNi45NzM4NXw3MTMuMDI2fDI4MC40NDV8Ni45NzM4NQ==)"/>
  <g clip-path="url(#cpNi45NzM4NXw3MTMuMDI2fDI4MC40NDV8Ni45NzM4NQ==)">
    <text x="585.25" y="201.95" style="font-size: 9.96px; fill: #FFF; font-family: Arial;" textLength="64.73px" lengthAdjust="spacingAndGlyphs">GPseudoRank</text>
  </g>
  <polyline points="516.25,99.83 558.41,99.83 558.32,99.83 558.67,99.82 559.01,99.75 559.34,99.62 559.64,99.45 559.91,99.23 560.14,98.97 560.32,98.68 560.46,98.36 560.54,98.02 560.57,97.67 560.57,97.67 560.57,87.64 560.57,87.64 560.54,87.29 560.46,86.95 560.32,86.63 560.14,86.34 559.91,86.08 559.64,85.86 559.34,85.68 559.01,85.56 558.67,85.49 558.41,85.48 516.25,85.48 516.51,85.49 516.16,85.48 515.82,85.52 515.48,85.62 515.17,85.77 514.88,85.96 514.63,86.20 514.42,86.48 514.26,86.79 514.15,87.12 514.10,87.46 514.09,87.64 514.09,97.67 514.10,97.50 514.10,97.85 514.15,98.19 514.26,98.52 514.42,98.83 514.63,99.10 514.88,99.35 515.17,99.54 515.48,99.69 515.82,99.79 516.16,99.83 " style="stroke-width: 0.53; stroke: #E0AB00; fill: #E0AB00;" clip-path="url(#cpNi45NzM4NXw3MTMuMDI2fDI4MC40NDV8Ni45NzM4NQ==)"/>
  <g clip-path="url(#cpNi45NzM4NXw3MTMuMDI2fDI4MC40NDV8Ni45NzM4NQ==)">
    <text x="517.69" y="96.23" style="font-size: 9.96px; fill: #FFF; font-family: Arial;" textLength="39.28px" lengthAdjust="spacingAndGlyphs">slingshot</text>
  </g>
  <polyline points="622.03,225.85 681.90,225.85 681.81,225.84 682.16,225.83 682.50,225.76 682.83,225.64 683.13,225.46 683.40,225.24 683.63,224.98 683.81,224.69 683.95,224.37 684.03,224.03 684.06,223.69 684.06,223.69 684.06,213.65 684.06,213.65 684.03,213.30 683.95,212.97 683.81,212.65 683.63,212.35 683.40,212.09 683.13,211.87 682.83,211.70 682.50,211.57 682.16,211.50 681.90,211.49 622.03,211.49 622.29,211.50 621.94,211.49 621.60,211.53 621.26,211.63 620.95,211.78 620.66,211.98 620.41,212.22 620.20,212.49 620.04,212.80 619.93,213.13 619.87,213.48 619.87,213.65 619.87,223.69 619.87,223.51 619.87,223.86 619.93,224.20 620.04,224.53 620.20,224.84 620.41,225.12 620.66,225.36 620.95,225.56 621.26,225.71 621.60,225.80 621.94,225.84 " style="stroke-width: 0.53; stroke: #E0AB00; fill: #E0AB00;" clip-path="url(#cpNi45NzM4NXw3MTMuMDI2fDI4MC40NDV8Ni45NzM4NQ==)"/>
  <g clip-path="url(#cpNi45NzM4NXw3MTMuMDI2fDI4MC40NDV8Ni45NzM4NQ==)">
    <text x="623.47" y="222.25" style="font-size: 9.96px; fill: #FFF; font-family: Arial;" textLength="56.99px" lengthAdjust="spacingAndGlyphs">Topographer</text>
  </g>
  <polyline points="604.42,41.46 628.32,41.46 628.24,41.45 628.58,41.44 628.92,41.37 629.25,41.25 629.55,41.07 629.82,40.85 630.05,40.59 630.24,40.30 630.37,39.98 630.46,39.64 630.48,39.30 630.48,39.30 630.48,29.26 630.48,29.26 630.46,28.91 630.37,28.58 630.24,28.26 630.05,27.96 629.82,27.70 629.55,27.48 629.25,27.31 628.92,27.19 628.58,27.12 628.32,27.10 604.42,27.10 604.68,27.12 604.34,27.10 603.99,27.14 603.66,27.24 603.34,27.39 603.06,27.59 602.81,27.83 602.60,28.11 602.44,28.41 602.33,28.74 602.27,29.09 602.26,29.26 602.26,39.30 602.27,39.12 602.27,39.47 602.33,39.81 602.44,40.14 602.60,40.45 602.81,40.73 603.06,40.97 603.34,41.17 603.66,41.32 603.99,41.41 604.34,41.45 " style="stroke-width: 0.53; stroke: #CA0565; fill: #CA0565;" clip-path="url(#cpNi45NzM4NXw3MTMuMDI2fDI4MC40NDV8Ni45NzM4NQ==)"/>
  <g clip-path="url(#cpNi45NzM4NXw3MTMuMDI2fDI4MC40NDV8Ni45NzM4NQ==)">
    <text x="605.86" y="37.86" style="font-size: 9.96px; fill: #FFF; font-family: Arial;" textLength="21.02px" lengthAdjust="spacingAndGlyphs">AGA</text>
  </g>
  <polyline points="372.95,79.27 399.61,79.27 399.52,79.27 399.87,79.26 400.21,79.19 400.54,79.06 400.84,78.89 401.11,78.67 401.34,78.41 401.52,78.12 401.66,77.80 401.74,77.46 401.77,77.11 401.77,77.11 401.77,67.07 401.77,67.07 401.74,66.73 401.66,66.39 401.52,66.07 401.34,65.78 401.11,65.52 400.84,65.30 400.54,65.12 400.21,65.00 399.87,64.93 399.61,64.91 372.95,64.91 373.21,64.93 372.86,64.92 372.51,64.96 372.18,65.06 371.87,65.20 371.58,65.40 371.33,65.64 371.12,65.92 370.96,66.23 370.85,66.56 370.79,66.90 370.79,67.07 370.79,77.11 370.79,76.94 370.79,77.29 370.85,77.63 370.96,77.96 371.12,78.27 371.33,78.54 371.58,78.78 371.87,78.98 372.18,79.13 372.51,79.23 372.86,79.27 " style="stroke-width: 0.53; stroke: #0278DD; fill: #0278DD;" clip-path="url(#cpNi45NzM4NXw3MTMuMDI2fDI4MC40NDV8Ni45NzM4NQ==)"/>
  <g clip-path="url(#cpNi45NzM4NXw3MTMuMDI2fDI4MC40NDV8Ni45NzM4NQ==)">
    <text x="374.39" y="75.67" style="font-size: 9.96px; fill: #FFF; font-family: Arial;" textLength="23.78px" lengthAdjust="spacingAndGlyphs">SCell</text>
  </g>
  <polyline points="239.69,274.81 271.32,274.81 271.24,274.81 271.58,274.79 271.92,274.72 272.25,274.60 272.55,274.43 272.82,274.21 273.05,273.95 273.24,273.65 273.37,273.33 273.46,273.00 273.48,272.65 273.48,272.65 273.48,262.61 273.48,262.61 273.46,262.27 273.37,261.93 273.24,261.61 273.05,261.32 272.82,261.06 272.55,260.84 272.25,260.66 271.92,260.54 271.58,260.47 271.32,260.45 239.69,260.45 239.95,260.47 239.60,260.46 239.26,260.50 238.92,260.59 238.61,260.74 238.32,260.94 238.07,261.18 237.86,261.46 237.70,261.77 237.59,262.10 237.53,262.44 237.53,262.61 237.53,272.65 237.53,272.48 237.53,272.82 237.59,273.17 237.70,273.50 237.86,273.80 238.07,274.08 238.32,274.32 238.61,274.52 238.92,274.67 239.26,274.77 239.60,274.81 " style="stroke-width: 0.53; stroke: #0278DD; fill: #0278DD;" clip-path="url(#cpNi45NzM4NXw3MTMuMDI2fDI4MC40NDV8Ni45NzM4NQ==)"/>
  <g clip-path="url(#cpNi45NzM4NXw3MTMuMDI2fDI4MC40NDV8Ni45NzM4NQ==)">
    <text x="241.13" y="271.21" style="font-size: 9.96px; fill: #FFF; font-family: Arial;" textLength="28.76px" lengthAdjust="spacingAndGlyphs">NBOR</text>
  </g>
  <polyline points="377.90,130.46 414.52,130.46 414.43,130.46 414.78,130.45 415.12,130.38 415.44,130.26 415.74,130.08 416.01,129.86 416.24,129.60 416.43,129.31 416.57,128.99 416.65,128.65 416.68,128.30 416.68,128.30 416.68,118.27 416.68,118.27 416.65,117.92 416.57,117.58 416.43,117.26 416.24,116.97 416.01,116.71 415.74,116.49 415.44,116.32 415.12,116.19 414.78,116.12 414.52,116.11 377.90,116.11 378.16,116.12 377.82,116.11 377.47,116.15 377.14,116.25 376.82,116.40 376.54,116.60 376.29,116.84 376.08,117.11 375.92,117.42 375.81,117.75 375.75,118.09 375.74,118.27 375.74,128.30 375.75,128.13 375.75,128.48 375.81,128.82 375.92,129.15 376.08,129.46 376.29,129.74 376.54,129.98 376.82,130.18 377.14,130.32 377.47,130.42 377.82,130.46 " style="stroke-width: 0.53; stroke: #E0AB00; fill: #E0AB00;" clip-path="url(#cpNi45NzM4NXw3MTMuMDI2fDI4MC40NDV8Ni45NzM4NQ==)"/>
  <g clip-path="url(#cpNi45NzM4NXw3MTMuMDI2fDI4MC40NDV8Ni45NzM4NQ==)">
    <text x="379.34" y="126.86" style="font-size: 9.96px; fill: #FFF; font-family: Arial;" textLength="33.73px" lengthAdjust="spacingAndGlyphs">TSCAN</text>
  </g>
  <polyline points="532.53,44.91 576.89,44.91 576.80,44.91 577.15,44.89 577.49,44.83 577.81,44.70 578.12,44.53 578.39,44.31 578.62,44.05 578.80,43.75 578.94,43.43 579.02,43.10 579.05,42.75 579.05,42.75 579.05,32.71 579.05,32.71 579.02,32.37 578.94,32.03 578.80,31.71 578.62,31.42 578.39,31.16 578.12,30.94 577.81,30.76 577.49,30.64 577.15,30.57 576.89,30.55 532.53,30.55 532.79,30.57 532.45,30.56 532.10,30.60 531.77,30.69 531.45,30.84 531.17,31.04 530.92,31.28 530.71,31.56 530.55,31.87 530.44,32.20 530.38,32.54 530.37,32.71 530.37,42.75 530.38,42.58 530.38,42.92 530.44,43.27 530.55,43.60 530.71,43.90 530.92,44.18 531.17,44.42 531.45,44.62 531.77,44.77 532.10,44.87 532.45,44.91 " style="stroke-width: 0.53; stroke: #0278DD; fill: #0278DD;" clip-path="url(#cpNi45NzM4NXw3MTMuMDI2fDI4MC40NDV8Ni45NzM4NQ==)"/>
  <g clip-path="url(#cpNi45NzM4NXw3MTMuMDI2fDI4MC40NDV8Ni45NzM4NQ==)">
    <text x="533.97" y="41.31" style="font-size: 9.96px; fill: #FFF; font-family: Arial;" textLength="41.47px" lengthAdjust="spacingAndGlyphs">UNCURL</text>
  </g>
  <polyline points="566.47,101.14 600.89,101.14 600.80,101.14 601.15,101.13 601.49,101.06 601.81,100.93 602.12,100.76 602.38,100.54 602.62,100.28 602.80,99.98 602.94,99.67 603.02,99.33 603.05,98.98 603.05,98.98 603.05,88.94 603.05,88.94 603.02,88.60 602.94,88.26 602.80,87.94 602.62,87.65 602.38,87.39 602.12,87.17 601.81,86.99 601.49,86.87 601.15,86.80 600.89,86.78 566.47,86.78 566.73,86.80 566.39,86.79 566.04,86.83 565.71,86.93 565.39,87.07 565.11,87.27 564.86,87.51 564.65,87.79 564.49,88.10 564.38,88.43 564.32,88.77 564.31,88.94 564.31,98.98 564.32,98.81 564.32,99.15 564.38,99.50 564.49,99.83 564.65,100.14 564.86,100.41 565.11,100.65 565.39,100.85 565.71,101.00 566.04,101.10 566.39,101.14 " style="stroke-width: 0.53; stroke: #3AD1D1; fill: #3AD1D1;" clip-path="url(#cpNi45NzM4NXw3MTMuMDI2fDI4MC40NDV8Ni45NzM4NQ==)"/>
  <g clip-path="url(#cpNi45NzM4NXw3MTMuMDI2fDI4MC40NDV8Ni45NzM4NQ==)">
    <text x="567.91" y="97.54" style="font-size: 9.96px; fill: #FFF; font-family: Arial;" textLength="31.54px" lengthAdjust="spacingAndGlyphs">scanpy</text>
  </g>
  <polyline points="607.84,119.18 655.53,119.18 655.44,119.17 655.79,119.16 656.13,119.09 656.45,118.97 656.75,118.79 657.02,118.57 657.25,118.31 657.44,118.02 657.58,117.70 657.66,117.36 657.69,117.02 657.69,117.02 657.69,106.98 657.69,106.98 657.66,106.63 657.58,106.30 657.44,105.98 657.25,105.68 657.02,105.42 656.75,105.20 656.45,105.03 656.13,104.90 655.79,104.84 655.53,104.82 607.84,104.82 608.10,104.84 607.76,104.82 607.41,104.86 607.08,104.96 606.76,105.11 606.48,105.31 606.23,105.55 606.02,105.82 605.86,106.13 605.75,106.46 605.69,106.81 605.68,106.98 605.68,117.02 605.69,116.84 605.69,117.19 605.75,117.53 605.86,117.86 606.02,118.17 606.23,118.45 606.48,118.69 606.76,118.89 607.08,119.04 607.41,119.13 607.76,119.17 " style="stroke-width: 0.53; stroke: #7FBE00; fill: #7FBE00;" clip-path="url(#cpNi45NzM4NXw3MTMuMDI2fDI4MC40NDV8Ni45NzM4NQ==)"/>
  <g clip-path="url(#cpNi45NzM4NXw3MTMuMDI2fDI4MC40NDV8Ni45NzM4NQ==)">
    <text x="609.28" y="115.58" style="font-size: 9.96px; fill: #FFF; font-family: Arial;" textLength="44.80px" lengthAdjust="spacingAndGlyphs">GrandPrix</text>
  </g>
  <polyline points="270.44,229.62 312.58,229.62 312.50,229.62 312.84,229.60 313.18,229.53 313.51,229.41 313.81,229.24 314.08,229.02 314.31,228.76 314.50,228.46 314.63,228.14 314.72,227.81 314.74,227.46 314.74,227.46 314.74,217.42 314.74,217.42 314.72,217.08 314.63,216.74 314.50,216.42 314.31,216.13 314.08,215.87 313.81,215.65 313.51,215.47 313.18,215.35 312.84,215.28 312.58,215.26 270.44,215.26 270.70,215.28 270.35,215.26 270.00,215.31 269.67,215.40 269.36,215.55 269.07,215.75 268.82,215.99 268.61,216.27 268.45,216.58 268.34,216.91 268.28,217.25 268.28,217.42 268.28,227.46 268.28,227.29 268.28,227.63 268.34,227.98 268.45,228.31 268.61,228.61 268.82,228.89 269.07,229.13 269.36,229.33 269.67,229.48 270.00,229.58 270.35,229.62 " style="stroke-width: 0.53; stroke: #0278DD; fill: #0278DD;" clip-path="url(#cpNi45NzM4NXw3MTMuMDI2fDI4MC40NDV8Ni45NzM4NQ==)"/>
  <g clip-path="url(#cpNi45NzM4NXw3MTMuMDI2fDI4MC40NDV8Ni45NzM4NQ==)">
    <text x="271.88" y="226.02" style="font-size: 9.96px; fill: #FFF; font-family: Arial;" textLength="39.27px" lengthAdjust="spacingAndGlyphs">Waterfall</text>
  </g>
  <polyline points="498.46,56.11 537.30,56.11 537.21,56.11 537.56,56.10 537.90,56.03 538.23,55.91 538.53,55.73 538.80,55.51 539.03,55.25 539.21,54.96 539.35,54.64 539.43,54.30 539.46,53.95 539.46,53.95 539.46,43.92 539.46,43.92 539.43,43.57 539.35,43.23 539.21,42.91 539.03,42.62 538.80,42.36 538.53,42.14 538.23,41.97 537.90,41.84 537.56,41.77 537.30,41.76 498.46,41.76 498.72,41.77 498.37,41.76 498.03,41.80 497.69,41.90 497.38,42.05 497.09,42.25 496.84,42.49 496.64,42.76 496.47,43.07 496.36,43.40 496.31,43.74 496.30,43.92 496.30,53.95 496.31,53.78 496.31,54.13 496.36,54.47 496.47,54.80 496.64,55.11 496.84,55.39 497.09,55.63 497.38,55.83 497.69,55.97 498.03,56.07 498.37,56.11 " style="stroke-width: 0.53; stroke: #7FBE00; fill: #7FBE00;" clip-path="url(#cpNi45NzM4NXw3MTMuMDI2fDI4MC40NDV8Ni45NzM4NQ==)"/>
  <g clip-path="url(#cpNi45NzM4NXw3MTMuMDI2fDI4MC40NDV8Ni45NzM4NQ==)">
    <text x="499.90" y="52.51" style="font-size: 9.96px; fill: #FFF; font-family: Arial;" textLength="35.96px" lengthAdjust="spacingAndGlyphs">GPfates</text>
  </g>
  <polyline points="568.42,60.17 592.32,60.17 592.23,60.17 592.58,60.15 592.92,60.08 593.25,59.96 593.55,59.78 593.82,59.57 594.05,59.30 594.23,59.01 594.37,58.69 594.45,58.35 594.48,58.01 594.48,58.01 594.48,47.97 594.48,47.97 594.45,47.62 594.37,47.29 594.23,46.97 594.05,46.67 593.82,46.41 593.55,46.19 593.25,46.02 592.92,45.90 592.58,45.83 592.32,45.81 568.42,45.81 568.68,45.83 568.33,45.81 567.99,45.85 567.65,45.95 567.34,46.10 567.05,46.30 566.80,46.54 566.59,46.82 566.43,47.12 566.32,47.45 566.27,47.80 566.26,47.97 566.26,58.01 566.27,57.83 566.27,58.18 566.32,58.52 566.43,58.85 566.59,59.16 566.80,59.44 567.05,59.68 567.34,59.88 567.65,60.03 567.99,60.12 568.33,60.17 " style="stroke-width: 0.53; stroke: #3AD1D1; fill: #3AD1D1;" clip-path="url(#cpNi45NzM4NXw3MTMuMDI2fDI4MC40NDV8Ni45NzM4NQ==)"/>
  <g clip-path="url(#cpNi45NzM4NXw3MTMuMDI2fDI4MC40NDV8Ni45NzM4NQ==)">
    <text x="569.86" y="56.57" style="font-size: 9.96px; fill: #FFF; font-family: Arial;" textLength="21.02px" lengthAdjust="spacingAndGlyphs">BGP</text>
  </g>
  <polyline points="490.59,78.07 537.72,78.07 537.64,78.06 537.98,78.05 538.32,77.98 538.65,77.86 538.95,77.68 539.22,77.46 539.45,77.20 539.64,76.91 539.77,76.59 539.85,76.25 539.88,75.91 539.88,75.91 539.88,65.87 539.88,65.87 539.85,65.52 539.77,65.19 539.64,64.87 539.45,64.57 539.22,64.31 538.95,64.09 538.65,63.92 538.32,63.79 537.98,63.72 537.72,63.71 490.59,63.71 490.85,63.72 490.50,63.71 490.16,63.75 489.82,63.85 489.51,64.00 489.22,64.20 488.97,64.44 488.76,64.71 488.60,65.02 488.49,65.35 488.44,65.70 488.43,65.87 488.43,75.91 488.44,75.73 488.44,76.08 488.49,76.42 488.60,76.75 488.76,77.06 488.97,77.34 489.22,77.58 489.51,77.78 489.82,77.92 490.16,78.02 490.50,78.06 " style="stroke-width: 0.53; stroke: #E0AB00; fill: #E0AB00;" clip-path="url(#cpNi45NzM4NXw3MTMuMDI2fDI4MC40NDV8Ni45NzM4NQ==)"/>
  <g clip-path="url(#cpNi45NzM4NXw3MTMuMDI2fDI4MC40NDV8Ni45NzM4NQ==)">
    <text x="492.03" y="74.47" style="font-size: 9.96px; fill: #FFF; font-family: Arial;" textLength="44.25px" lengthAdjust="spacingAndGlyphs">Granatum</text>
  </g>
  <polyline points="459.54,203.94 511.66,203.94 511.57,203.94 511.92,203.92 512.26,203.85 512.58,203.73 512.89,203.56 513.15,203.34 513.39,203.08 513.57,202.78 513.71,202.46 513.79,202.12 513.82,201.78 513.82,201.78 513.82,191.74 513.82,191.74 513.79,191.39 513.71,191.06 513.57,190.74 513.39,190.44 513.15,190.18 512.89,189.96 512.58,189.79 512.26,189.67 511.92,189.60 511.66,189.58 459.54,189.58 459.80,189.60 459.46,189.58 459.11,189.62 458.78,189.72 458.46,189.87 458.18,190.07 457.93,190.31 457.72,190.59 457.56,190.89 457.45,191.22 457.39,191.57 457.38,191.74 457.38,201.78 457.39,201.60 457.39,201.95 457.45,202.29 457.56,202.62 457.72,202.93 457.93,203.21 458.18,203.45 458.46,203.65 458.78,203.80 459.11,203.89 459.46,203.94 " style="stroke-width: 0.53; stroke: #E0AB00; fill: #E0AB00;" clip-path="url(#cpNi45NzM4NXw3MTMuMDI2fDI4MC40NDV8Ni45NzM4NQ==)"/>
  <g clip-path="url(#cpNi45NzM4NXw3MTMuMDI2fDI4MC40NDV8Ni45NzM4NQ==)">
    <text x="460.98" y="200.34" style="font-size: 9.96px; fill: #FFF; font-family: Arial;" textLength="49.24px" lengthAdjust="spacingAndGlyphs">k-branches</text>
  </g>
  <polyline points="345.50,274.89 368.29,274.89 368.20,274.89 368.55,274.88 368.89,274.81 369.22,274.68 369.52,274.51 369.79,274.29 370.02,274.03 370.20,273.74 370.34,273.42 370.42,273.08 370.45,272.73 370.45,272.73 370.45,262.70 370.45,262.70 370.42,262.35 370.34,262.01 370.20,261.69 370.02,261.40 369.79,261.14 369.52,260.92 369.22,260.74 368.89,260.62 368.55,260.55 368.29,260.54 345.50,260.54 345.76,260.55 345.42,260.54 345.07,260.58 344.74,260.68 344.42,260.83 344.14,261.02 343.89,261.26 343.68,261.54 343.52,261.85 343.41,262.18 343.35,262.52 343.34,262.70 343.34,272.73 343.35,272.56 343.35,272.91 343.41,273.25 343.52,273.58 343.68,273.89 343.89,274.16 344.14,274.41 344.42,274.60 344.74,274.75 345.07,274.85 345.42,274.89 " style="stroke-width: 0.53; stroke: #3AD1D1; fill: #3AD1D1;" clip-path="url(#cpNi45NzM4NXw3MTMuMDI2fDI4MC40NDV8Ni45NzM4NQ==)"/>
  <g clip-path="url(#cpNi45NzM4NXw3MTMuMDI2fDI4MC40NDV8Ni45NzM4NQ==)">
    <text x="346.94" y="271.29" style="font-size: 9.96px; fill: #FFF; font-family: Arial;" textLength="19.91px" lengthAdjust="spacingAndGlyphs">DPT</text>
  </g>
  <polyline points="489.34,185.48 538.14,185.48 538.06,185.48 538.40,185.47 538.74,185.40 539.07,185.27 539.37,185.10 539.64,184.88 539.87,184.62 540.05,184.33 540.19,184.01 540.27,183.67 540.30,183.32 540.30,183.32 540.30,173.29 540.30,173.29 540.27,172.94 540.19,172.60 540.05,172.28 539.87,171.99 539.64,171.73 539.37,171.51 539.07,171.33 538.74,171.21 538.40,171.14 538.14,171.13 489.34,171.13 489.60,171.14 489.25,171.13 488.91,171.17 488.57,171.27 488.26,171.41 487.97,171.61 487.72,171.85 487.52,172.13 487.35,172.44 487.24,172.77 487.19,173.11 487.18,173.29 487.18,183.32 487.19,183.15 487.19,183.50 487.24,183.84 487.35,184.17 487.52,184.48 487.72,184.75 487.97,184.99 488.26,185.19 488.57,185.34 488.91,185.44 489.25,185.48 " style="stroke-width: 0.53; stroke: #E0AB00; fill: #E0AB00;" clip-path="url(#cpNi45NzM4NXw3MTMuMDI2fDI4MC40NDV8Ni45NzM4NQ==)"/>
  <g clip-path="url(#cpNi45NzM4NXw3MTMuMDI2fDI4MC40NDV8Ni45NzM4NQ==)">
    <text x="490.78" y="181.88" style="font-size: 9.96px; fill: #FFF; font-family: Arial;" textLength="45.92px" lengthAdjust="spacingAndGlyphs">Monocle 2</text>
  </g>
  <polyline points="508.54,166.28 544.60,166.28 544.52,166.28 544.86,166.26 545.20,166.19 545.53,166.07 545.83,165.90 546.10,165.68 546.33,165.42 546.51,165.12 546.65,164.80 546.73,164.47 546.76,164.12 546.76,164.12 546.76,154.08 546.76,154.08 546.73,153.74 546.65,153.40 546.51,153.08 546.33,152.79 546.10,152.53 545.83,152.31 545.53,152.13 545.20,152.01 544.86,151.94 544.60,151.92 508.54,151.92 508.80,151.94 508.45,151.92 508.11,151.97 507.77,152.06 507.46,152.21 507.17,152.41 506.92,152.65 506.71,152.93 506.55,153.24 506.44,153.57 506.39,153.91 506.38,154.08 506.38,164.12 506.39,163.95 506.39,164.29 506.44,164.64 506.55,164.97 506.71,165.27 506.92,165.55 507.17,165.79 507.46,165.99 507.77,166.14 508.11,166.24 508.45,166.28 " style="stroke-width: 0.53; stroke: #E0AB00; fill: #E0AB00;" clip-path="url(#cpNi45NzM4NXw3MTMuMDI2fDI4MC40NDV8Ni45NzM4NQ==)"/>
  <g clip-path="url(#cpNi45NzM4NXw3MTMuMDI2fDI4MC40NDV8Ni45NzM4NQ==)">
    <text x="509.98" y="162.68" style="font-size: 9.96px; fill: #FFF; font-family: Arial;" textLength="33.18px" lengthAdjust="spacingAndGlyphs">PHATE</text>
  </g>
  <polyline points="573.51,181.98 612.89,181.98 612.80,181.98 613.15,181.96 613.49,181.89 613.81,181.77 614.11,181.60 614.38,181.38 614.61,181.12 614.80,180.82 614.94,180.50 615.02,180.17 615.05,179.82 615.05,179.82 615.05,169.78 615.05,169.78 615.02,169.44 614.94,169.10 614.80,168.78 614.61,168.49 614.38,168.23 614.11,168.01 613.81,167.83 613.49,167.71 613.15,167.64 612.89,167.62 573.51,167.62 573.77,167.64 573.42,167.63 573.08,167.67 572.74,167.76 572.43,167.91 572.14,168.11 571.89,168.35 571.68,168.63 571.52,168.94 571.41,169.27 571.36,169.61 571.35,169.78 571.35,179.82 571.36,179.65 571.36,179.99 571.41,180.34 571.52,180.67 571.68,180.97 571.89,181.25 572.14,181.49 572.43,181.69 572.74,181.84 573.08,181.94 573.42,181.98 " style="stroke-width: 0.53; stroke: #FF8821; fill: #FF8821;" clip-path="url(#cpNi45NzM4NXw3MTMuMDI2fDI4MC40NDV8Ni45NzM4NQ==)"/>
  <g clip-path="url(#cpNi45NzM4NXw3MTMuMDI2fDI4MC40NDV8Ni45NzM4NQ==)">
    <text x="574.95" y="178.38" style="font-size: 9.96px; fill: #FFF; font-family: Arial;" textLength="36.50px" lengthAdjust="spacingAndGlyphs">B-RGPs</text>
  </g>
  <polyline points="544.41,119.54 581.57,119.54 581.48,119.54 581.83,119.53 582.17,119.46 582.50,119.34 582.80,119.16 583.07,118.94 583.30,118.68 583.48,118.39 583.62,118.07 583.70,117.73 583.73,117.38 583.73,117.38 583.73,107.35 583.73,107.35 583.70,107.00 583.62,106.66 583.48,106.34 583.30,106.05 583.07,105.79 582.80,105.57 582.50,105.40 582.17,105.27 581.83,105.20 581.57,105.19 544.41,105.19 544.67,105.20 544.32,105.19 543.97,105.23 543.64,105.33 543.33,105.48 543.04,105.67 542.79,105.92 542.58,106.19 542.42,106.50 542.31,106.83 542.25,107.17 542.25,107.35 542.25,117.38 542.25,117.21 542.25,117.56 542.31,117.90 542.42,118.23 542.58,118.54 542.79,118.82 543.04,119.06 543.33,119.25 543.64,119.40 543.97,119.50 544.32,119.54 " style="stroke-width: 0.53; stroke: #E0AB00; fill: #E0AB00;" clip-path="url(#cpNi45NzM4NXw3MTMuMDI2fDI4MC40NDV8Ni45NzM4NQ==)"/>
  <g clip-path="url(#cpNi45NzM4NXw3MTMuMDI2fDI4MC40NDV8Ni45NzM4NQ==)">
    <text x="545.85" y="115.94" style="font-size: 9.96px; fill: #FFF; font-family: Arial;" textLength="34.29px" lengthAdjust="spacingAndGlyphs">FORKS</text>
  </g>
  <polyline points="559.30,139.36 596.48,139.36 596.39,139.36 596.74,139.35 597.08,139.28 597.40,139.16 597.70,138.98 597.97,138.76 598.20,138.50 598.39,138.21 598.53,137.89 598.61,137.55 598.64,137.20 598.64,137.20 598.64,127.17 598.64,127.17 598.61,126.82 598.53,126.48 598.39,126.16 598.20,125.87 597.97,125.61 597.70,125.39 597.40,125.22 597.08,125.09 596.74,125.02 596.48,125.01 559.30,125.01 559.56,125.02 559.21,125.01 558.86,125.05 558.53,125.15 558.22,125.30 557.93,125.50 557.68,125.74 557.47,126.01 557.31,126.32 557.20,126.65 557.14,126.99 557.14,127.17 557.14,137.20 557.14,137.03 557.14,137.38 557.20,137.72 557.31,138.05 557.47,138.36 557.68,138.64 557.93,138.88 558.22,139.08 558.53,139.22 558.86,139.32 559.21,139.36 " style="stroke-width: 0.53; stroke: #0278DD; fill: #0278DD;" clip-path="url(#cpNi45NzM4NXw3MTMuMDI2fDI4MC40NDV8Ni45NzM4NQ==)"/>
  <g clip-path="url(#cpNi45NzM4NXw3MTMuMDI2fDI4MC40NDV8Ni45NzM4NQ==)">
    <text x="560.74" y="135.76" style="font-size: 9.96px; fill: #FFF; font-family: Arial;" textLength="34.30px" lengthAdjust="spacingAndGlyphs">SoptSC</text>
  </g>
  <polyline points="429.61,168.00 484.48,168.00 484.39,168.00 484.74,167.98 485.08,167.91 485.40,167.79 485.71,167.62 485.98,167.40 486.21,167.14 486.39,166.84 486.53,166.52 486.61,166.19 486.64,165.84 486.64,165.84 486.64,155.80 486.64,155.80 486.61,155.46 486.53,155.12 486.39,154.80 486.21,154.51 485.98,154.25 485.71,154.03 485.40,153.85 485.08,153.73 484.74,153.66 484.48,153.64 429.61,153.64 429.87,153.66 429.53,153.65 429.18,153.69 428.85,153.78 428.53,153.93 428.25,154.13 428.00,154.37 427.79,154.65 427.62,154.96 427.51,155.29 427.46,155.63 427.45,155.80 427.45,165.84 427.46,165.67 427.46,166.01 427.51,166.36 427.62,166.69 427.79,166.99 428.00,167.27 428.25,167.51 428.53,167.71 428.85,167.86 429.18,167.96 429.53,168.00 " style="stroke-width: 0.53; stroke: #0278DD; fill: #0278DD;" clip-path="url(#cpNi45NzM4NXw3MTMuMDI2fDI4MC40NDV8Ni45NzM4NQ==)"/>
  <g clip-path="url(#cpNi45NzM4NXw3MTMuMDI2fDI4MC40NDV8Ni45NzM4NQ==)">
    <text x="431.05" y="164.40" style="font-size: 9.96px; fill: #FFF; font-family: Arial;" textLength="51.99px" lengthAdjust="spacingAndGlyphs">SCORPIUS</text>
  </g>
  <polyline points="638.34,246.24 680.49,246.24 680.40,246.24 680.75,246.22 681.09,246.16 681.41,246.03 681.71,245.86 681.98,245.64 682.21,245.38 682.40,245.08 682.54,244.76 682.62,244.43 682.65,244.08 682.65,244.08 682.65,234.04 682.65,234.04 682.62,233.70 682.54,233.36 682.40,233.04 682.21,232.75 681.98,232.49 681.71,232.27 681.41,232.09 681.09,231.97 680.75,231.90 680.49,231.88 638.34,231.88 638.60,231.90 638.25,231.89 637.91,231.93 637.57,232.02 637.26,232.17 636.97,232.37 636.72,232.61 636.51,232.89 636.35,233.20 636.24,233.53 636.19,233.87 636.18,234.04 636.18,244.08 636.19,243.91 636.19,244.25 636.24,244.60 636.35,244.93 636.51,245.24 636.72,245.51 636.97,245.75 637.26,245.95 637.57,246.10 637.91,246.20 638.25,246.24 " style="stroke-width: 0.53; stroke: #E0AB00; fill: #E0AB00;" clip-path="url(#cpNi45NzM4NXw3MTMuMDI2fDI4MC40NDV8Ni45NzM4NQ==)"/>
  <g clip-path="url(#cpNi45NzM4NXw3MTMuMDI2fDI4MC40NDV8Ni45NzM4NQ==)">
    <text x="639.78" y="242.64" style="font-size: 9.96px; fill: #FFF; font-family: Arial;" textLength="39.27px" lengthAdjust="spacingAndGlyphs">MERLoT</text>
  </g>
  <polyline points="471.43,275.98 503.08,275.98 502.99,275.98 503.34,275.96 503.68,275.89 504.00,275.77 504.31,275.60 504.58,275.38 504.81,275.12 504.99,274.82 505.13,274.50 505.21,274.17 505.24,273.82 505.24,273.82 505.24,263.78 505.24,263.78 505.21,263.44 505.13,263.10 504.99,262.78 504.81,262.48 504.58,262.22 504.31,262.00 504.00,261.83 503.68,261.71 503.34,261.64 503.08,261.62 471.43,261.62 471.69,261.64 471.35,261.62 471.00,261.67 470.67,261.76 470.35,261.91 470.07,262.11 469.82,262.35 469.61,262.63 469.45,262.94 469.34,263.27 469.28,263.61 469.27,263.78 469.27,273.82 469.28,273.64 469.28,273.99 469.34,274.34 469.45,274.67 469.61,274.97 469.82,275.25 470.07,275.49 470.35,275.69 470.67,275.84 471.00,275.93 471.35,275.98 " style="stroke-width: 0.53; stroke: #E0AB00; fill: #E0AB00;" clip-path="url(#cpNi45NzM4NXw3MTMuMDI2fDI4MC40NDV8Ni45NzM4NQ==)"/>
  <g clip-path="url(#cpNi45NzM4NXw3MTMuMDI2fDI4MC40NDV8Ni45NzM4NQ==)">
    <text x="472.87" y="272.38" style="font-size: 9.96px; fill: #FFF; font-family: Arial;" textLength="28.77px" lengthAdjust="spacingAndGlyphs">SLICE</text>
  </g>
  <polyline points="170.71,273.23 207.88,273.23 207.79,273.23 208.14,273.21 208.48,273.14 208.80,273.02 209.10,272.85 209.37,272.63 209.60,272.37 209.79,272.07 209.93,271.75 210.01,271.42 210.04,271.07 210.04,271.07 210.04,261.03 210.04,261.03 210.01,260.69 209.93,260.35 209.79,260.03 209.60,259.73 209.37,259.47 209.10,259.25 208.80,259.08 208.48,258.96 208.14,258.89 207.88,258.87 170.71,258.87 170.97,258.89 170.62,258.87 170.27,258.92 169.94,259.01 169.63,259.16 169.34,259.36 169.09,259.60 168.88,259.88 168.72,260.19 168.61,260.52 168.55,260.86 168.55,261.03 168.55,271.07 168.55,270.89 168.55,271.24 168.61,271.59 168.72,271.92 168.88,272.22 169.09,272.50 169.34,272.74 169.63,272.94 169.94,273.09 170.27,273.18 170.62,273.23 " style="stroke-width: 0.53; stroke: #E0AB00; fill: #E0AB00;" clip-path="url(#cpNi45NzM4NXw3MTMuMDI2fDI4MC40NDV8Ni45NzM4NQ==)"/>
  <g clip-path="url(#cpNi45NzM4NXw3MTMuMDI2fDI4MC40NDV8Ni45NzM4NQ==)">
    <text x="172.15" y="269.63" style="font-size: 9.96px; fill: #FFF; font-family: Arial;" textLength="34.29px" lengthAdjust="spacingAndGlyphs">SCUBA</text>
  </g>
  <polyline points="357.18,252.38 403.79,252.38 403.70,252.38 404.05,252.37 404.39,252.30 404.71,252.17 405.01,252.00 405.28,251.78 405.51,251.52 405.70,251.23 405.84,250.91 405.92,250.57 405.95,250.22 405.95,250.22 405.95,240.19 405.95,240.19 405.92,239.84 405.84,239.50 405.70,239.18 405.51,238.89 405.28,238.63 405.01,238.41 404.71,238.23 404.39,238.11 404.05,238.04 403.79,238.03 357.18,238.03 357.44,238.04 357.10,238.03 356.75,238.07 356.42,238.17 356.10,238.31 355.82,238.51 355.57,238.75 355.36,239.03 355.20,239.34 355.09,239.67 355.03,240.01 355.02,240.19 355.02,250.22 355.03,250.05 355.03,250.40 355.09,250.74 355.20,251.07 355.36,251.38 355.57,251.65 355.82,251.89 356.10,252.09 356.42,252.24 356.75,252.34 357.10,252.38 " style="stroke-width: 0.53; stroke: #0278DD; fill: #0278DD;" clip-path="url(#cpNi45NzM4NXw3MTMuMDI2fDI4MC40NDV8Ni45NzM4NQ==)"/>
  <g clip-path="url(#cpNi45NzM4NXw3MTMuMDI2fDI4MC40NDV8Ni45NzM4NQ==)">
    <text x="358.62" y="248.78" style="font-size: 9.96px; fill: #FFF; font-family: Arial;" textLength="43.72px" lengthAdjust="spacingAndGlyphs">pseudogp</text>
  </g>
  <polyline points="550.45,202.94 593.73,202.94 593.65,202.93 593.99,202.92 594.33,202.85 594.66,202.73 594.96,202.55 595.23,202.33 595.46,202.07 595.65,201.78 595.78,201.46 595.87,201.12 595.89,200.78 595.89,200.78 595.89,190.74 595.89,190.74 595.87,190.39 595.78,190.06 595.65,189.74 595.46,189.44 595.23,189.18 594.96,188.96 594.66,188.79 594.33,188.66 593.99,188.60 593.73,188.58 550.45,188.58 550.71,188.60 550.37,188.58 550.02,188.62 549.69,188.72 549.37,188.87 549.09,189.07 548.84,189.31 548.63,189.58 548.47,189.89 548.36,190.22 548.30,190.57 548.29,190.74 548.29,200.78 548.30,200.60 548.30,200.95 548.36,201.29 548.47,201.62 548.63,201.93 548.84,202.21 549.09,202.45 549.37,202.65 549.69,202.80 550.02,202.89 550.37,202.93 " style="stroke-width: 0.53; stroke: #0278DD; fill: #0278DD;" clip-path="url(#cpNi45NzM4NXw3MTMuMDI2fDI4MC40NDV8Ni45NzM4NQ==)"/>
  <g clip-path="url(#cpNi45NzM4NXw3MTMuMDI2fDI4MC40NDV8Ni45NzM4NQ==)">
    <text x="551.89" y="199.34" style="font-size: 9.96px; fill: #FFF; font-family: Arial;" textLength="40.40px" lengthAdjust="spacingAndGlyphs">HopLand</text>
  </g>
  <polyline points="546.76,224.98 578.39,224.98 578.31,224.97 578.65,224.96 578.99,224.89 579.32,224.77 579.62,224.59 579.89,224.37 580.12,224.11 580.31,223.82 580.44,223.50 580.52,223.16 580.55,222.82 580.55,222.82 580.55,212.78 580.55,212.78 580.52,212.43 580.44,212.10 580.31,211.78 580.12,211.48 579.89,211.22 579.62,211.00 579.32,210.83 578.99,210.71 578.65,210.64 578.39,210.62 546.76,210.62 547.02,210.64 546.67,210.62 546.32,210.66 545.99,210.76 545.68,210.91 545.39,211.11 545.14,211.35 544.93,211.63 544.77,211.93 544.66,212.26 544.60,212.61 544.60,212.78 544.60,222.82 544.60,222.64 544.60,222.99 544.66,223.33 544.77,223.66 544.93,223.97 545.14,224.25 545.39,224.49 545.68,224.69 545.99,224.84 546.32,224.93 546.67,224.97 " style="stroke-width: 0.53; stroke: #003D76; fill: #003D76;" clip-path="url(#cpNi45NzM4NXw3MTMuMDI2fDI4MC40NDV8Ni45NzM4NQ==)"/>
  <g clip-path="url(#cpNi45NzM4NXw3MTMuMDI2fDI4MC40NDV8Ni45NzM4NQ==)">
    <text x="548.20" y="221.38" style="font-size: 9.96px; fill: #FFF; font-family: Arial;" textLength="28.76px" lengthAdjust="spacingAndGlyphs">reCAT</text>
  </g>
  <polyline points="568.14,266.83 590.94,266.83 590.85,266.83 591.20,266.81 591.54,266.74 591.87,266.62 592.17,266.44 592.44,266.23 592.67,265.96 592.85,265.67 592.99,265.35 593.07,265.01 593.10,264.67 593.10,264.67 593.10,254.63 593.10,254.63 593.07,254.28 592.99,253.95 592.85,253.63 592.67,253.33 592.44,253.07 592.17,252.85 591.87,252.68 591.54,252.56 591.20,252.49 590.94,252.47 568.14,252.47 568.40,252.49 568.06,252.47 567.71,252.51 567.38,252.61 567.06,252.76 566.78,252.96 566.53,253.20 566.32,253.48 566.16,253.78 566.05,254.11 565.99,254.46 565.98,254.63 565.98,264.67 565.99,264.49 565.99,264.84 566.05,265.18 566.16,265.51 566.32,265.82 566.53,266.10 566.78,266.34 567.06,266.54 567.38,266.69 567.71,266.78 568.06,266.83 " style="stroke-width: 0.53; stroke: #7FBE00; fill: #7FBE00;" clip-path="url(#cpNi45NzM4NXw3MTMuMDI2fDI4MC40NDV8Ni45NzM4NQ==)"/>
  <g clip-path="url(#cpNi45NzM4NXw3MTMuMDI2fDI4MC40NDV8Ni45NzM4NQ==)">
    <text x="569.58" y="263.23" style="font-size: 9.96px; fill: #FFF; font-family: Arial;" textLength="19.92px" lengthAdjust="spacingAndGlyphs">PBA</text>
  </g>
  <polyline points="543.54,80.51 595.68,80.51 595.59,80.51 595.94,80.50 596.28,80.43 596.60,80.30 596.90,80.13 597.17,79.91 597.40,79.65 597.59,79.36 597.73,79.04 597.81,78.70 597.84,78.35 597.84,78.35 597.84,68.32 597.84,68.32 597.81,67.97 597.73,67.63 597.59,67.31 597.40,67.02 597.17,66.76 596.90,66.54 596.60,66.37 596.28,66.24 595.94,66.17 595.68,66.16 543.54,66.16 543.80,66.17 543.46,66.16 543.11,66.20 542.78,66.30 542.46,66.45 542.18,66.64 541.93,66.88 541.72,67.16 541.56,67.47 541.44,67.80 541.39,68.14 541.38,68.32 541.38,78.35 541.39,78.18 541.39,78.53 541.44,78.87 541.56,79.20 541.72,79.51 541.93,79.79 542.18,80.03 542.46,80.22 542.78,80.37 543.11,80.47 543.46,80.51 " style="stroke-width: 0.53; stroke: #0278DD; fill: #0278DD;" clip-path="url(#cpNi45NzM4NXw3MTMuMDI2fDI4MC40NDV8Ni45NzM4NQ==)"/>
  <g clip-path="url(#cpNi45NzM4NXw3MTMuMDI2fDI4MC40NDV8Ni45NzM4NQ==)">
    <text x="544.98" y="76.91" style="font-size: 9.96px; fill: #FFF; font-family: Arial;" textLength="49.26px" lengthAdjust="spacingAndGlyphs">PhenoPath</text>
  </g>
  <polyline points="59.22,272.98 112.44,272.98 112.35,272.97 112.70,272.96 113.04,272.89 113.37,272.77 113.67,272.59 113.94,272.37 114.17,272.11 114.35,271.82 114.49,271.50 114.57,271.16 114.60,270.82 114.60,270.82 114.60,260.78 114.60,260.78 114.57,260.43 114.49,260.10 114.35,259.78 114.17,259.48 113.94,259.22 113.67,259.00 113.37,258.83 113.04,258.70 112.70,258.64 112.44,258.62 59.22,258.62 59.48,258.64 59.13,258.62 58.79,258.66 58.46,258.76 58.14,258.91 57.86,259.11 57.60,259.35 57.40,259.63 57.23,259.93 57.12,260.26 57.07,260.61 57.06,260.78 57.06,270.82 57.07,270.64 57.07,270.99 57.12,271.33 57.23,271.66 57.40,271.97 57.60,272.25 57.86,272.49 58.14,272.69 58.46,272.84 58.79,272.93 59.13,272.97 " style="stroke-width: 0.53; stroke: #0278DD; fill: #0278DD;" clip-path="url(#cpNi45NzM4NXw3MTMuMDI2fDI4MC40NDV8Ni45NzM4NQ==)"/>
  <g clip-path="url(#cpNi45NzM4NXw3MTMuMDI2fDI4MC40NDV8Ni45NzM4NQ==)">
    <text x="60.66" y="269.38" style="font-size: 9.96px; fill: #FFF; font-family: Arial;" textLength="50.34px" lengthAdjust="spacingAndGlyphs">Wanderlust</text>
  </g>
  <polyline points="448.26,249.04 484.87,249.04 484.78,249.04 485.13,249.02 485.47,248.95 485.80,248.83 486.10,248.66 486.37,248.44 486.60,248.18 486.78,247.88 486.92,247.56 487.00,247.23 487.03,246.88 487.03,246.88 487.03,236.84 487.03,236.84 487.00,236.50 486.92,236.16 486.78,235.84 486.60,235.54 486.37,235.28 486.10,235.06 485.80,234.89 485.47,234.77 485.13,234.70 484.87,234.68 448.26,234.68 448.52,234.70 448.17,234.68 447.83,234.73 447.49,234.82 447.18,234.97 446.89,235.17 446.64,235.41 446.43,235.69 446.27,236.00 446.16,236.33 446.10,236.67 446.10,236.84 446.10,246.88 446.10,246.70 446.10,247.05 446.16,247.40 446.27,247.73 446.43,248.03 446.64,248.31 446.89,248.55 447.18,248.75 447.49,248.90 447.83,248.99 448.17,249.04 " style="stroke-width: 0.53; stroke: #0278DD; fill: #0278DD;" clip-path="url(#cpNi45NzM4NXw3MTMuMDI2fDI4MC40NDV8Ni45NzM4NQ==)"/>
  <g clip-path="url(#cpNi45NzM4NXw3MTMuMDI2fDI4MC40NDV8Ni45NzM4NQ==)">
    <text x="449.70" y="245.44" style="font-size: 9.96px; fill: #FFF; font-family: Arial;" textLength="33.73px" lengthAdjust="spacingAndGlyphs">SCENT</text>
  </g>
  <polyline points="510.90,223.79 534.79,223.79 534.70,223.79 535.05,223.78 535.39,223.71 535.72,223.59 536.02,223.41 536.29,223.19 536.52,222.93 536.70,222.64 536.84,222.32 536.92,221.98 536.95,221.63 536.95,221.63 536.95,211.60 536.95,211.60 536.92,211.25 536.84,210.91 536.70,210.59 536.52,210.30 536.29,210.04 536.02,209.82 535.72,209.65 535.39,209.52 535.05,209.45 534.79,209.44 510.90,209.44 511.16,209.45 510.81,209.44 510.47,209.48 510.14,209.58 509.82,209.73 509.54,209.93 509.28,210.17 509.08,210.44 508.91,210.75 508.80,211.08 508.75,211.42 508.74,211.60 508.74,221.63 508.75,221.46 508.75,221.81 508.80,222.15 508.91,222.48 509.08,222.79 509.28,223.07 509.54,223.31 509.82,223.51 510.14,223.65 510.47,223.75 510.81,223.79 " style="stroke-width: 0.53; stroke: #7FBE00; fill: #7FBE00;" clip-path="url(#cpNi45NzM4NXw3MTMuMDI2fDI4MC40NDV8Ni45NzM4NQ==)"/>
  <g clip-path="url(#cpNi45NzM4NXw3MTMuMDI2fDI4MC40NDV8Ni45NzM4NQ==)">
    <text x="512.34" y="220.19" style="font-size: 9.96px; fill: #FFF; font-family: Arial;" textLength="21.01px" lengthAdjust="spacingAndGlyphs">MFA</text>
  </g>
  <polyline points="602.05,261.34 646.42,261.34 646.34,261.34 646.68,261.32 647.02,261.25 647.35,261.13 647.65,260.96 647.92,260.74 648.15,260.48 648.34,260.18 648.47,259.86 648.56,259.53 648.58,259.18 648.58,259.18 648.58,249.14 648.58,249.14 648.56,248.80 648.47,248.46 648.34,248.14 648.15,247.85 647.92,247.59 647.65,247.37 647.35,247.19 647.02,247.07 646.68,247.00 646.42,246.98 602.05,246.98 602.31,247.00 601.96,246.98 601.62,247.03 601.28,247.12 600.97,247.27 600.68,247.47 600.43,247.71 600.22,247.99 600.06,248.30 599.95,248.63 599.90,248.97 599.89,249.14 599.89,259.18 599.90,259.01 599.90,259.35 599.95,259.70 600.06,260.03 600.22,260.33 600.43,260.61 600.68,260.85 600.97,261.05 601.28,261.20 601.62,261.30 601.96,261.34 " style="stroke-width: 0.53; stroke: #E0AB00; fill: #E0AB00;" clip-path="url(#cpNi45NzM4NXw3MTMuMDI2fDI4MC40NDV8Ni45NzM4NQ==)"/>
  <g clip-path="url(#cpNi45NzM4NXw3MTMuMDI2fDI4MC40NDV8Ni45NzM4NQ==)">
    <text x="603.49" y="257.74" style="font-size: 9.96px; fill: #FFF; font-family: Arial;" textLength="41.49px" lengthAdjust="spacingAndGlyphs">p-Creode</text>
  </g>
  <polyline points="525.93,246.91 558.67,246.91 558.58,246.91 558.93,246.89 559.27,246.82 559.59,246.70 559.89,246.53 560.16,246.31 560.39,246.05 560.58,245.75 560.72,245.43 560.80,245.10 560.83,244.75 560.83,244.75 560.83,234.71 560.83,234.71 560.80,234.37 560.72,234.03 560.58,233.71 560.39,233.42 560.16,233.16 559.89,232.94 559.59,232.76 559.27,232.64 558.93,232.57 558.67,232.55 525.93,232.55 526.19,232.57 525.84,232.55 525.49,232.60 525.16,232.69 524.85,232.84 524.56,233.04 524.31,233.28 524.10,233.56 523.94,233.87 523.83,234.20 523.77,234.54 523.77,234.71 523.77,244.75 523.77,244.58 523.77,244.92 523.83,245.27 523.94,245.60 524.10,245.90 524.31,246.18 524.56,246.42 524.85,246.62 525.16,246.77 525.49,246.87 525.84,246.91 " style="stroke-width: 0.53; stroke: #0278DD; fill: #0278DD;" clip-path="url(#cpNi45NzM4NXw3MTMuMDI2fDI4MC40NDV8Ni45NzM4NQ==)"/>
  <g clip-path="url(#cpNi45NzM4NXw3MTMuMDI2fDI4MC40NDV8Ni45NzM4NQ==)">
    <text x="527.37" y="243.31" style="font-size: 9.96px; fill: #FFF; font-family: Arial;" textLength="29.86px" lengthAdjust="spacingAndGlyphs">scTDA</text>
  </g>
  <polyline points="633.92,183.60 678.28,183.60 678.20,183.60 678.55,183.58 678.89,183.51 679.21,183.39 679.51,183.21 679.78,182.99 680.01,182.73 680.20,182.44 680.33,182.12 680.42,181.78 680.44,181.44 680.44,181.44 680.44,171.40 680.44,171.40 680.42,171.05 680.33,170.72 680.20,170.40 680.01,170.10 679.78,169.84 679.51,169.62 679.21,169.45 678.89,169.33 678.55,169.26 678.28,169.24 633.92,169.24 634.18,169.26 633.83,169.24 633.49,169.28 633.15,169.38 632.84,169.53 632.55,169.73 632.30,169.97 632.09,170.25 631.93,170.55 631.82,170.88 631.77,171.23 631.76,171.40 631.76,181.44 631.77,181.26 631.77,181.61 631.82,181.95 631.93,182.28 632.09,182.59 632.30,182.87 632.55,183.11 632.84,183.31 633.15,183.46 633.49,183.55 633.83,183.60 " style="stroke-width: 0.53; stroke: #FF4237; fill: #FF4237;" clip-path="url(#cpNi45NzM4NXw3MTMuMDI2fDI4MC40NDV8Ni45NzM4NQ==)"/>
  <g clip-path="url(#cpNi45NzM4NXw3MTMuMDI2fDI4MC40NDV8Ni45NzM4NQ==)">
    <text x="635.36" y="180.00" style="font-size: 9.96px; fill: #FFF; font-family: Arial;" textLength="41.48px" lengthAdjust="spacingAndGlyphs">CALISTA</text>
  </g>
  <polyline points="409.89,227.34 461.99,227.34 461.90,227.34 462.25,227.32 462.59,227.25 462.92,227.13 463.22,226.96 463.49,226.74 463.72,226.48 463.90,226.18 464.04,225.86 464.12,225.53 464.15,225.18 464.15,225.18 464.15,215.14 464.15,215.14 464.12,214.80 464.04,214.46 463.90,214.14 463.72,213.85 463.49,213.59 463.22,213.37 462.92,213.19 462.59,213.07 462.25,213.00 461.99,212.98 409.89,212.98 410.15,213.00 409.80,212.99 409.46,213.03 409.12,213.12 408.81,213.27 408.52,213.47 408.27,213.71 408.06,213.99 407.90,214.30 407.79,214.63 407.74,214.97 407.73,215.14 407.73,225.18 407.74,225.01 407.74,225.35 407.79,225.70 407.90,226.03 408.06,226.33 408.27,226.61 408.52,226.85 408.81,227.05 409.12,227.20 409.46,227.30 409.80,227.34 " style="stroke-width: 0.53; stroke: #0278DD; fill: #0278DD;" clip-path="url(#cpNi45NzM4NXw3MTMuMDI2fDI4MC40NDV8Ni45NzM4NQ==)"/>
  <g clip-path="url(#cpNi45NzM4NXw3MTMuMDI2fDI4MC40NDV8Ni45NzM4NQ==)">
    <text x="411.33" y="223.74" style="font-size: 9.96px; fill: #FFF; font-family: Arial;" textLength="49.22px" lengthAdjust="spacingAndGlyphs">WaveCrest</text>
  </g>
  <polyline points="491.57,261.31 529.30,261.31 529.21,261.31 529.56,261.29 529.90,261.22 530.22,261.10 530.52,260.93 530.79,260.71 531.02,260.45 531.21,260.15 531.34,259.83 531.43,259.50 531.46,259.15 531.46,259.15 531.46,249.11 531.46,249.11 531.43,248.77 531.34,248.43 531.21,248.11 531.02,247.82 530.79,247.56 530.52,247.34 530.22,247.16 529.90,247.04 529.56,246.97 529.30,246.95 491.57,246.95 491.83,246.97 491.48,246.96 491.13,247.00 490.80,247.09 490.49,247.24 490.20,247.44 489.95,247.68 489.74,247.96 489.58,248.27 489.47,248.60 489.41,248.94 489.41,249.11 489.41,259.15 489.41,258.98 489.41,259.32 489.47,259.67 489.58,260.00 489.74,260.30 489.95,260.58 490.20,260.82 490.49,261.02 490.80,261.17 491.13,261.27 491.48,261.31 " style="stroke-width: 0.53; stroke: #0278DD; fill: #0278DD;" clip-path="url(#cpNi45NzM4NXw3MTMuMDI2fDI4MC40NDV8Ni45NzM4NQ==)"/>
  <g clip-path="url(#cpNi45NzM4NXw3MTMuMDI2fDI4MC40NDV8Ni45NzM4NQ==)">
    <text x="493.01" y="257.71" style="font-size: 9.96px; fill: #FFF; font-family: Arial;" textLength="34.85px" lengthAdjust="spacingAndGlyphs">topslam</text>
  </g>
  <polyline points="394.32,194.16 430.38,194.16 430.30,194.16 430.64,194.14 430.98,194.07 431.31,193.95 431.61,193.78 431.88,193.56 432.11,193.30 432.30,193.00 432.43,192.68 432.51,192.35 432.54,192.00 432.54,192.00 432.54,181.96 432.54,181.96 432.51,181.62 432.43,181.28 432.30,180.96 432.11,180.67 431.88,180.41 431.61,180.19 431.31,180.01 430.98,179.89 430.64,179.82 430.38,179.80 394.32,179.80 394.58,179.82 394.23,179.81 393.89,179.85 393.55,179.94 393.24,180.09 392.95,180.29 392.70,180.53 392.49,180.81 392.33,181.12 392.22,181.45 392.17,181.79 392.16,181.96 392.16,192.00 392.17,191.83 392.17,192.17 392.22,192.52 392.33,192.85 392.49,193.15 392.70,193.43 392.95,193.67 393.24,193.87 393.55,194.02 393.89,194.12 394.23,194.16 " style="stroke-width: 0.53; stroke: #E0AB00; fill: #E0AB00;" clip-path="url(#cpNi45NzM4NXw3MTMuMDI2fDI4MC40NDV8Ni45NzM4NQ==)"/>
  <g clip-path="url(#cpNi45NzM4NXw3MTMuMDI2fDI4MC40NDV8Ni45NzM4NQ==)">
    <text x="395.76" y="190.56" style="font-size: 9.96px; fill: #FFF; font-family: Arial;" textLength="33.18px" lengthAdjust="spacingAndGlyphs">StemID</text>
  </g>
  <polyline points="387.83,150.09 426.11,150.09 426.02,150.09 426.37,150.07 426.71,150.00 427.03,149.88 427.34,149.71 427.60,149.49 427.84,149.23 428.02,148.93 428.16,148.61 428.24,148.28 428.27,147.93 428.27,147.93 428.27,137.89 428.27,137.89 428.24,137.55 428.16,137.21 428.02,136.89 427.84,136.60 427.60,136.34 427.34,136.12 427.03,135.94 426.71,135.82 426.37,135.75 426.11,135.73 387.83,135.73 388.09,135.75 387.75,135.74 387.40,135.78 387.07,135.87 386.75,136.02 386.47,136.22 386.22,136.46 386.01,136.74 385.85,137.05 385.74,137.38 385.68,137.72 385.67,137.89 385.67,147.93 385.68,147.76 385.68,148.10 385.74,148.45 385.85,148.78 386.01,149.08 386.22,149.36 386.47,149.60 386.75,149.80 387.07,149.95 387.40,150.05 387.75,150.09 " style="stroke-width: 0.53; stroke: #7FBE00; fill: #7FBE00;" clip-path="url(#cpNi45NzM4NXw3MTMuMDI2fDI4MC40NDV8Ni45NzM4NQ==)"/>
  <g clip-path="url(#cpNi45NzM4NXw3MTMuMDI2fDI4MC40NDV8Ni45NzM4NQ==)">
    <text x="389.27" y="146.49" style="font-size: 9.96px; fill: #FFF; font-family: Arial;" textLength="35.39px" lengthAdjust="spacingAndGlyphs">SCOUP</text>
  </g>
  <polyline points="400.12,275.96 426.24,275.96 426.15,275.96 426.50,275.94 426.84,275.87 427.16,275.75 427.46,275.58 427.73,275.36 427.96,275.10 428.15,274.80 428.28,274.48 428.37,274.15 428.40,273.80 428.40,273.80 428.40,263.76 428.40,263.76 428.37,263.42 428.28,263.08 428.15,262.76 427.96,262.47 427.73,262.21 427.46,261.99 427.16,261.81 426.84,261.69 426.50,261.62 426.24,261.60 400.12,261.60 400.38,261.62 400.03,261.60 399.69,261.65 399.35,261.74 399.04,261.89 398.75,262.09 398.50,262.33 398.30,262.61 398.13,262.92 398.02,263.25 397.97,263.59 397.96,263.76 397.96,273.80 397.97,273.63 397.97,273.97 398.02,274.32 398.13,274.65 398.30,274.95 398.50,275.23 398.75,275.47 399.04,275.67 399.35,275.82 399.69,275.92 400.03,275.96 " style="stroke-width: 0.53; stroke: #0278DD; fill: #0278DD;" clip-path="url(#cpNi45NzM4NXw3MTMuMDI2fDI4MC40NDV8Ni45NzM4NQ==)"/>
  <g clip-path="url(#cpNi45NzM4NXw3MTMuMDI2fDI4MC40NDV8Ni45NzM4NQ==)">
    <text x="401.56" y="272.36" style="font-size: 9.96px; fill: #FFF; font-family: Arial;" textLength="23.24px" lengthAdjust="spacingAndGlyphs">Ouija</text>
  </g>
  <polyline points="266.54,252.26 326.41,252.26 326.32,252.25 326.67,252.24 327.01,252.17 327.34,252.05 327.64,251.87 327.91,251.65 328.14,251.39 328.32,251.10 328.46,250.78 328.54,250.44 328.57,250.10 328.57,250.10 328.57,240.06 328.57,240.06 328.54,239.71 328.46,239.37 328.32,239.06 328.14,238.76 327.91,238.50 327.64,238.28 327.34,238.11 327.01,237.98 326.67,237.91 326.41,237.90 266.54,237.90 266.80,237.91 266.45,237.90 266.11,237.94 265.77,238.04 265.46,238.19 265.17,238.39 264.92,238.63 264.71,238.90 264.55,239.21 264.44,239.54 264.39,239.89 264.38,240.06 264.38,250.10 264.39,249.92 264.39,250.27 264.44,250.61 264.55,250.94 264.71,251.25 264.92,251.53 265.17,251.77 265.46,251.97 265.77,252.11 266.11,252.21 266.45,252.25 " style="stroke-width: 0.53; stroke: #0278DD; fill: #0278DD;" clip-path="url(#cpNi45NzM4NXw3MTMuMDI2fDI4MC40NDV8Ni45NzM4NQ==)"/>
  <g clip-path="url(#cpNi45NzM4NXw3MTMuMDI2fDI4MC40NDV8Ni45NzM4NQ==)">
    <text x="267.98" y="248.66" style="font-size: 9.96px; fill: #FFF; font-family: Arial;" textLength="56.99px" lengthAdjust="spacingAndGlyphs">gpseudotime</text>
  </g>
  <defs>
    <clipPath id="cpMHw3MjB8MzI0fDA=">
      <rect x="0.00" y="0.00" width="720.00" height="324.00"/>
    </clipPath>
  </defs>
  <polyline points="6.97,280.45 713.03,280.45 " style="stroke-width: 1.07; stroke-linecap: square;" clip-path="url(#cpMHw3MjB8MzI0fDA=)"/>
  <polyline points="39.07,283.93 39.07,280.45 " style="stroke-width: 1.07; stroke-linecap: butt;" clip-path="url(#cpMHw3MjB8MzI0fDA=)"/>
  <polyline points="190.12,283.93 190.12,280.45 " style="stroke-width: 1.07; stroke-linecap: butt;" clip-path="url(#cpMHw3MjB8MzI0fDA=)"/>
  <polyline points="341.17,283.93 341.17,280.45 " style="stroke-width: 1.07; stroke-linecap: butt;" clip-path="url(#cpMHw3MjB8MzI0fDA=)"/>
  <polyline points="492.64,283.93 492.64,280.45 " style="stroke-width: 1.07; stroke-linecap: butt;" clip-path="url(#cpMHw3MjB8MzI0fDA=)"/>
  <polyline points="643.69,283.93 643.69,280.45 " style="stroke-width: 1.07; stroke-linecap: butt;" clip-path="url(#cpMHw3MjB8MzI0fDA=)"/>
  <g clip-path="url(#cpMHw3MjB8MzI0fDA=)">
    <text x="25.72" y="295.51" style="font-size: 12.00px; font-family: Arial;" textLength="26.70px" lengthAdjust="spacingAndGlyphs">2014</text>
  </g>
  <g clip-path="url(#cpMHw3MjB8MzI0fDA=)">
    <text x="176.77" y="295.51" style="font-size: 12.00px; font-family: Arial;" textLength="26.70px" lengthAdjust="spacingAndGlyphs">2015</text>
  </g>
  <g clip-path="url(#cpMHw3MjB8MzI0fDA=)">
    <text x="327.82" y="295.51" style="font-size: 12.00px; font-family: Arial;" textLength="26.70px" lengthAdjust="spacingAndGlyphs">2016</text>
  </g>
  <g clip-path="url(#cpMHw3MjB8MzI0fDA=)">
    <text x="479.29" y="295.51" style="font-size: 12.00px; font-family: Arial;" textLength="26.70px" lengthAdjust="spacingAndGlyphs">2017</text>
  </g>
  <g clip-path="url(#cpMHw3MjB8MzI0fDA=)">
    <text x="630.34" y="295.51" style="font-size: 12.00px; font-family: Arial;" textLength="26.70px" lengthAdjust="spacingAndGlyphs">2018</text>
  </g>
  <g clip-path="url(#cpMHw3MjB8MzI0fDA=)">
    <text x="312.13" y="312.77" style="font-size: 14.00px; font-family: Arial;" textLength="95.74px" lengthAdjust="spacingAndGlyphs">Publishing date</text>
  </g>
</svg>
