<?xml version="1.0" encoding="UTF-8"?>
<svg xmlns="http://www.w3.org/2000/svg" xmlns:xlink="http://www.w3.org/1999/xlink" viewBox="0 0 720.00 324.00">
  <defs>
    <style type="text/css"><![CDATA[
    line, polyline, path, rect, circle {
      fill: none;
      stroke: #000000;
      stroke-linecap: round;
      stroke-linejoin: round;
      stroke-miterlimit: 10.00;
    }
  ]]></style>
  </defs>
  <line x1="651.96" y1="266.21" x2="651.96" y2="281.23" style="stroke-width: 1.07; stroke: #E8EF04;" clip-path="url(#cpNi45NzM4NXw3MTMuMDI2fDI4MS4yMjd8Ni45NzM4NQ==)"/>
  <line x1="396.21" y1="256.17" x2="396.21" y2="281.23" style="stroke-width: 1.07; stroke: #E8EF04;" clip-path="url(#cpNi45NzM4NXw3MTMuMDI2fDI4MS4yMjd8Ni45NzM4NQ==)"/>
  <line x1="296.48" y1="254.22" x2="296.48" y2="281.22" style="stroke-width: 1.07; stroke: #0278DD;" clip-path="url(#cpNi45NzM4NXw3MTMuMDI2fDI4MS4yMjd8Ni45NzM4NQ==)"/>
  <line x1="413.18" y1="89.33" x2="413.18" y2="281.22" style="stroke-width: 1.07; stroke: #0278DD;" clip-path="url(#cpNi45NzM4NXw3MTMuMDI2fDI4MS4yMjd8Ni45NzM4NQ==)"/>
  <line x1="345.72" y1="276.12" x2="345.72" y2="281.22" style="stroke-width: 1.07; stroke: #E8EF04;" clip-path="url(#cpNi45NzM4NXw3MTMuMDI2fDI4MS4yMjd8Ni45NzM4NQ==)"/>
  <line x1="380.49" y1="211.05" x2="380.49" y2="281.22" style="stroke-width: 1.07; stroke: #0278DD;" clip-path="url(#cpNi45NzM4NXw3MTMuMDI2fDI4MS4yMjd8Ni45NzM4NQ==)"/>
  <line x1="617.62" y1="250.12" x2="617.62" y2="281.22" style="stroke-width: 1.07; stroke: #0278DD;" clip-path="url(#cpNi45NzM4NXw3MTMuMDI2fDI4MS4yMjd8Ni45NzM4NQ==)"/>
  <line x1="658.17" y1="232.61" x2="658.17" y2="281.22" style="stroke-width: 1.07; stroke: #E8EF04;" clip-path="url(#cpNi45NzM4NXw3MTMuMDI2fDI4MS4yMjd8Ni45NzM4NQ==)"/>
  <line x1="603.96" y1="232.25" x2="603.96" y2="281.22" style="stroke-width: 1.07; stroke: #FF4237;" clip-path="url(#cpNi45NzM4NXw3MTMuMDI2fDI4MS4yMjd8Ni45NzM4NQ==)"/>
  <line x1="579.54" y1="104.57" x2="579.54" y2="281.22" style="stroke-width: 1.07; stroke: #7FBE00;" clip-path="url(#cpNi45NzM4NXw3MTMuMDI2fDI4MS4yMjd8Ni45NzM4NQ==)"/>
  <line x1="526.57" y1="237.59" x2="526.57" y2="281.22" style="stroke-width: 1.07; stroke: #E8EF04;" clip-path="url(#cpNi45NzM4NXw3MTMuMDI2fDI4MS4yMjd8Ni45NzM4NQ==)"/>
  <line x1="659.41" y1="166.04" x2="659.41" y2="281.22" style="stroke-width: 1.07; stroke: #E8EF04;" clip-path="url(#cpNi45NzM4NXw3MTMuMDI2fDI4MS4yMjd8Ni45NzM4NQ==)"/>
  <line x1="485.60" y1="191.43" x2="485.60" y2="281.22" style="stroke-width: 1.07; stroke: #E8EF04;" clip-path="url(#cpNi45NzM4NXw3MTMuMDI2fDI4MS4yMjd8Ni45NzM4NQ==)"/>
  <line x1="297.72" y1="231.97" x2="297.72" y2="281.22" style="stroke-width: 1.07; stroke: #0278DD;" clip-path="url(#cpNi45NzM4NXw3MTMuMDI2fDI4MS4yMjd8Ni45NzM4NQ==)"/>
  <line x1="562.99" y1="214.89" x2="562.99" y2="281.22" style="stroke-width: 1.07; stroke: #E8EF04;" clip-path="url(#cpNi45NzM4NXw3MTMuMDI2fDI4MS4yMjd8Ni45NzM4NQ==)"/>
  <line x1="406.97" y1="189.83" x2="406.97" y2="281.22" style="stroke-width: 1.07; stroke: #7FBE00;" clip-path="url(#cpNi45NzM4NXw3MTMuMDI2fDI4MS4yMjd8Ni45NzM4NQ==)"/>
  <line x1="631.69" y1="211.52" x2="631.69" y2="281.22" style="stroke-width: 1.07; stroke: #7FBE00;" clip-path="url(#cpNi45NzM4NXw3MTMuMDI2fDI4MS4yMjd8Ni45NzM4NQ==)"/>
  <line x1="630.44" y1="124.48" x2="630.44" y2="281.22" style="stroke-width: 1.07; stroke: #0278DD;" clip-path="url(#cpNi45NzM4NXw3MTMuMDI2fDI4MS4yMjd8Ni45NzM4NQ==)"/>
  <line x1="580.37" y1="256.89" x2="580.37" y2="281.22" style="stroke-width: 1.07; stroke: #3AD1D1;" clip-path="url(#cpNi45NzM4NXw3MTMuMDI2fDI4MS4yMjd8Ni45NzM4NQ==)"/>
  <line x1="583.68" y1="193.77" x2="583.68" y2="281.22" style="stroke-width: 1.07; stroke: #3AD1D1;" clip-path="url(#cpNi45NzM4NXw3MTMuMDI2fDI4MS4yMjd8Ni45NzM4NQ==)"/>
  <line x1="85.83" y1="270.90" x2="85.83" y2="281.22" style="stroke-width: 1.07; stroke: #0278DD;" clip-path="url(#cpNi45NzM4NXw3MTMuMDI2fDI4MS4yMjd8Ni45NzM4NQ==)"/>
  <line x1="189.29" y1="276.80" x2="189.29" y2="281.22" style="stroke-width: 1.07; stroke: #E8EF04;" clip-path="url(#cpNi45NzM4NXw3MTMuMDI2fDI4MS4yMjd8Ni45NzM4NQ==)"/>
  <line x1="593.20" y1="169.90" x2="593.20" y2="281.22" style="stroke-width: 1.07; stroke: #FF8821;" clip-path="url(#cpNi45NzM4NXw3MTMuMDI2fDI4MS4yMjd8Ni45NzM4NQ==)"/>
  <line x1="569.61" y1="64.65" x2="569.61" y2="281.22" style="stroke-width: 1.07; stroke: #0278DD;" clip-path="url(#cpNi45NzM4NXw3MTMuMDI2fDI4MS4yMjd8Ni45NzM4NQ==)"/>
  <line x1="386.28" y1="132.88" x2="386.28" y2="281.22" style="stroke-width: 1.07; stroke: #0278DD;" clip-path="url(#cpNi45NzM4NXw3MTMuMDI2fDI4MS4yMjd8Ni45NzM4NQ==)"/>
  <line x1="522.85" y1="149.04" x2="522.85" y2="281.22" style="stroke-width: 1.07; stroke: #7FBE00;" clip-path="url(#cpNi45NzM4NXw3MTMuMDI2fDI4MS4yMjd8Ni45NzM4NQ==)"/>
  <line x1="416.08" y1="231.30" x2="416.08" y2="281.22" style="stroke-width: 1.07; stroke: #E8EF04;" clip-path="url(#cpNi45NzM4NXw3MTMuMDI2fDI4MS4yMjd8Ni45NzM4NQ==)"/>
  <line x1="76.31" y1="249.06" x2="76.31" y2="281.22" style="stroke-width: 1.07; stroke: #E8EF04;" clip-path="url(#cpNi45NzM4NXw3MTMuMDI2fDI4MS4yMjd8Ni45NzM4NQ==)"/>
  <line x1="624.24" y1="147.85" x2="624.24" y2="281.22" style="stroke-width: 1.07; stroke: #E8EF04;" clip-path="url(#cpNi45NzM4NXw3MTMuMDI2fDI4MS4yMjd8Ni45NzM4NQ==)"/>
  <line x1="572.09" y1="45.56" x2="572.09" y2="281.22" style="stroke-width: 1.07; stroke: #0278DD;" clip-path="url(#cpNi45NzM4NXw3MTMuMDI2fDI4MS4yMjd8Ni45NzM4NQ==)"/>
  <line x1="537.33" y1="171.76" x2="537.33" y2="281.21" style="stroke-width: 1.07; stroke: #E8EF04;" clip-path="url(#cpNi45NzM4NXw3MTMuMDI2fDI4MS4yMjd8Ni45NzM4NQ==)"/>
  <line x1="564.64" y1="24.65" x2="564.64" y2="281.21" style="stroke-width: 1.07; stroke: #0278DD;" clip-path="url(#cpNi45NzM4NXw3MTMuMDI2fDI4MS4yMjd8Ni45NzM4NQ==)"/>
  <line x1="382.14" y1="44.70" x2="382.14" y2="281.21" style="stroke-width: 1.07; stroke: #FF4237;" clip-path="url(#cpNi45NzM4NXw3MTMuMDI2fDI4MS4yMjd8Ni45NzM4NQ==)"/>
  <line x1="562.57" y1="146.68" x2="562.57" y2="281.21" style="stroke-width: 1.07; stroke: #003D76;" clip-path="url(#cpNi45NzM4NXw3MTMuMDI2fDI4MS4yMjd8Ni45NzM4NQ==)"/>
  <line x1="356.90" y1="175.47" x2="356.90" y2="281.21" style="stroke-width: 1.07; stroke: #3AD1D1;" clip-path="url(#cpNi45NzM4NXw3MTMuMDI2fDI4MS4yMjd8Ni45NzM4NQ==)"/>
  <line x1="616.37" y1="103.05" x2="616.37" y2="281.21" style="stroke-width: 1.07; stroke: #CA0565;" clip-path="url(#cpNi45NzM4NXw3MTMuMDI2fDI4MS4yMjd8Ni45NzM4NQ==)"/>
  <line x1="513.74" y1="125.03" x2="513.74" y2="281.21" style="stroke-width: 1.07; stroke: #E8EF04;" clip-path="url(#cpNi45NzM4NXw3MTMuMDI2fDI4MS4yMjd8Ni45NzM4NQ==)"/>
  <line x1="514.16" y1="47.91" x2="514.16" y2="281.21" style="stroke-width: 1.07; stroke: #E8EF04;" clip-path="url(#cpNi45NzM4NXw3MTMuMDI2fDI4MS4yMjd8Ni45NzM4NQ==)"/>
  <line x1="412.35" y1="67.34" x2="412.35" y2="281.21" style="stroke-width: 1.07; stroke: #E8EF04;" clip-path="url(#cpNi45NzM4NXw3MTMuMDI2fDI4MS4yMjd8Ni45NzM4NQ==)"/>
  <line x1="517.88" y1="107.00" x2="517.88" y2="281.21" style="stroke-width: 1.07; stroke: #7FBE00;" clip-path="url(#cpNi45NzM4NXw3MTMuMDI2fDI4MS4yMjd8Ni45NzM4NQ==)"/>
  <line x1="510.43" y1="213.25" x2="510.43" y2="281.21" style="stroke-width: 1.07; stroke: #0278DD;" clip-path="url(#cpNi45NzM4NXw3MTMuMDI2fDI4MS4yMjd8Ni45NzM4NQ==)"/>
  <line x1="255.51" y1="277.31" x2="255.51" y2="281.21" style="stroke-width: 1.07; stroke: #0278DD;" clip-path="url(#cpNi45NzM4NXw3MTMuMDI2fDI4MS4yMjd8Ni45NzM4NQ==)"/>
  <line x1="487.26" y1="271.04" x2="487.26" y2="281.21" style="stroke-width: 1.07; stroke: #E8EF04;" clip-path="url(#cpNi45NzM4NXw3MTMuMDI2fDI4MS4yMjd8Ni45NzM4NQ==)"/>
  <line x1="531.54" y1="24.65" x2="531.54" y2="281.21" style="stroke-width: 1.07; stroke: #E8EF04;" clip-path="url(#cpNi45NzM4NXw3MTMuMDI2fDI4MS4yMjd8Ni45NzM4NQ==)"/>
  <line x1="577.89" y1="83.40" x2="577.89" y2="281.21" style="stroke-width: 1.07; stroke: #0278DD;" clip-path="url(#cpNi45NzM4NXw3MTMuMDI2fDI4MS4yMjd8Ni45NzM4NQ==)"/>
  <line x1="542.30" y1="277.63" x2="542.30" y2="281.21" style="stroke-width: 1.07; stroke: #0278DD;" clip-path="url(#cpNi45NzM4NXw3MTMuMDI2fDI4MS4yMjd8Ni45NzM4NQ==)"/>
  <line x1="531.12" y1="86.34" x2="531.12" y2="281.20" style="stroke-width: 1.07; stroke: #E8EF04;" clip-path="url(#cpNi45NzM4NXw3MTMuMDI2fDI4MS4yMjd8Ni45NzM4NQ==)"/>
  <line x1="410.70" y1="277.63" x2="410.70" y2="281.20" style="stroke-width: 1.07; stroke: #0278DD;" clip-path="url(#cpNi45NzM4NXw3MTMuMDI2fDI4MS4yMjd8Ni45NzM4NQ==)"/>
  <line x1="291.51" y1="209.12" x2="291.51" y2="281.20" style="stroke-width: 1.07; stroke: #0278DD;" clip-path="url(#cpNi45NzM4NXw3MTMuMDI2fDI4MS4yMjd8Ni45NzM4NQ==)"/>
  <line x1="455.80" y1="253.37" x2="455.80" y2="281.20" style="stroke-width: 1.07; stroke: #0278DD;" clip-path="url(#cpNi45NzM4NXw3MTMuMDI2fDI4MS4yMjd8Ni45NzM4NQ==)"/>
  <line x1="391.66" y1="110.65" x2="391.66" y2="281.20" style="stroke-width: 1.07; stroke: #3AD1D1;" clip-path="url(#cpNi45NzM4NXw3MTMuMDI2fDI4MS4yMjd8Ni45NzM4NQ==)"/>
  <line x1="434.28" y1="211.65" x2="434.28" y2="281.20" style="stroke-width: 1.07; stroke: #E8EF04;" clip-path="url(#cpNi45NzM4NXw3MTMuMDI2fDI4MS4yMjd8Ni45NzM4NQ==)"/>
  <line x1="435.94" y1="166.77" x2="435.94" y2="281.20" style="stroke-width: 1.07; stroke: #0278DD;" clip-path="url(#cpNi45NzM4NXw3MTMuMDI2fDI4MS4yMjd8Ni45NzM4NQ==)"/>
  <line x1="554.71" y1="123.83" x2="554.71" y2="281.20" style="stroke-width: 1.07; stroke: #0278DD;" clip-path="url(#cpNi45NzM4NXw3MTMuMDI2fDI4MS4yMjd8Ni45NzM4NQ==)"/>
  <line x1="466.56" y1="233.68" x2="466.56" y2="281.20" style="stroke-width: 1.07; stroke: #0278DD;" clip-path="url(#cpNi45NzM4NXw3MTMuMDI2fDI4MS4yMjd8Ni45NzM4NQ==)"/>
  <line x1="656.10" y1="188.76" x2="656.10" y2="281.20" style="stroke-width: 1.07; stroke: #FF4237;" clip-path="url(#cpNi45NzM4NXw3MTMuMDI2fDI4MS4yMjd8Ni45NzM4NQ==)"/>
  <line x1="200.88" y1="253.55" x2="200.88" y2="281.20" style="stroke-width: 1.07; stroke: #E8EF04;" clip-path="url(#cpNi45NzM4NXw3MTMuMDI2fDI4MS4yMjd8Ni45NzM4NQ==)"/>
  <line x1="457.05" y1="147.61" x2="457.05" y2="281.20" style="stroke-width: 1.07; stroke: #0278DD;" clip-path="url(#cpNi45NzM4NXw3MTMuMDI2fDI4MS4yMjd8Ni45NzM4NQ==)"/>
  <defs>
    <clipPath id="cpNi45NzM4NXw3MTMuMDI2fDI4MS4yMjd8Ni45NzM4NQ==">
      <rect x="6.97" y="6.97" width="706.05" height="274.25"/>
    </clipPath>
  </defs>
  <polyline points="429.61,147.61 484.48,147.61 484.39,147.61 484.74,147.60 485.08,147.53 485.40,147.40 485.71,147.23 485.98,147.01 486.21,146.75 486.39,146.46 486.53,146.14 486.61,145.80 486.64,145.45 486.64,145.45 486.64,135.70 486.64,135.70 486.61,135.35 486.53,135.01 486.39,134.69 486.21,134.40 485.98,134.14 485.71,133.92 485.40,133.75 485.08,133.62 484.74,133.55 484.48,133.54 429.61,133.54 429.87,133.55 429.53,133.54 429.18,133.58 428.85,133.68 428.53,133.83 428.25,134.02 428.00,134.26 427.79,134.54 427.62,134.85 427.51,135.18 427.46,135.52 427.45,135.70 427.45,145.45 427.46,145.28 427.46,145.63 427.51,145.97 427.62,146.30 427.79,146.61 428.00,146.88 428.25,147.13 428.53,147.32 428.85,147.47 429.18,147.57 429.53,147.61 " style="stroke-width: 0.53; stroke: #0278DD; fill: #A1C6E6;" clip-path="url(#cpNi45NzM4NXw3MTMuMDI2fDI4MS4yMjd8Ni45NzM4NQ==)"/>
  <g clip-path="url(#cpNi45NzM4NXw3MTMuMDI2fDI4MS4yMjd8Ni45NzM4NQ==)">
    <text x="431.05" y="144.01" style="font-size: 9.96px; fill: #000; font-family: Liberation Sans;" textLength="51.99px" lengthAdjust="spacingAndGlyphs">SCORPIUS</text>
  </g>
  <polyline points="185.61,253.55 216.15,253.55 216.06,253.54 216.41,253.53 216.75,253.46 217.07,253.34 217.37,253.16 217.64,252.94 217.87,252.68 218.06,252.39 218.20,252.07 218.28,251.73 218.31,251.39 218.31,251.39 218.31,241.63 218.31,241.63 218.28,241.28 218.20,240.95 218.06,240.63 217.87,240.33 217.64,240.07 217.37,239.85 217.07,239.68 216.75,239.56 216.41,239.49 216.15,239.47 185.61,239.47 185.87,239.49 185.52,239.47 185.18,239.51 184.84,239.61 184.53,239.76 184.24,239.96 183.99,240.20 183.78,240.48 183.62,240.78 183.51,241.11 183.46,241.46 183.45,241.63 183.45,251.39 183.46,251.21 183.46,251.56 183.51,251.90 183.62,252.23 183.78,252.54 183.99,252.82 184.24,253.06 184.53,253.26 184.84,253.41 185.18,253.50 185.52,253.54 " style="stroke-width: 0.53; stroke: #E8EF04; fill: #E3E6A1;" clip-path="url(#cpNi45NzM4NXw3MTMuMDI2fDI4MS4yMjd8Ni45NzM4NQ==)"/>
  <g clip-path="url(#cpNi45NzM4NXw3MTMuMDI2fDI4MS4yMjd8Ni45NzM4NQ==)">
    <text x="187.05" y="249.95" style="font-size: 9.96px; fill: #000; font-family: Liberation Sans;" textLength="27.66px" lengthAdjust="spacingAndGlyphs">sincell</text>
  </g>
  <polyline points="633.92,188.76 678.28,188.76 678.20,188.75 678.55,188.74 678.89,188.67 679.21,188.55 679.51,188.37 679.78,188.15 680.01,187.89 680.20,187.60 680.33,187.28 680.42,186.94 680.44,186.60 680.44,186.60 680.44,176.84 680.44,176.84 680.42,176.49 680.33,176.16 680.20,175.84 680.01,175.54 679.78,175.28 679.51,175.06 679.21,174.89 678.89,174.77 678.55,174.70 678.28,174.68 633.92,174.68 634.18,174.70 633.83,174.68 633.49,174.72 633.15,174.82 632.84,174.97 632.55,175.17 632.30,175.41 632.09,175.69 631.93,175.99 631.82,176.32 631.77,176.67 631.76,176.84 631.76,186.60 631.77,186.42 631.77,186.77 631.82,187.11 631.93,187.44 632.09,187.75 632.30,188.03 632.55,188.27 632.84,188.47 633.15,188.62 633.49,188.71 633.83,188.75 " style="stroke-width: 0.53; stroke: #FF4237; fill: #E6A4A1;" clip-path="url(#cpNi45NzM4NXw3MTMuMDI2fDI4MS4yMjd8Ni45NzM4NQ==)"/>
  <g clip-path="url(#cpNi45NzM4NXw3MTMuMDI2fDI4MS4yMjd8Ni45NzM4NQ==)">
    <text x="635.36" y="185.16" style="font-size: 9.96px; fill: #000; font-family: Liberation Sans;" textLength="41.48px" lengthAdjust="spacingAndGlyphs">CALISTA</text>
  </g>
  <polyline points="448.26,233.68 484.87,233.68 484.78,233.67 485.13,233.66 485.47,233.59 485.80,233.47 486.10,233.29 486.37,233.07 486.60,232.81 486.78,232.52 486.92,232.20 487.00,231.86 487.03,231.52 487.03,231.52 487.03,221.76 487.03,221.76 487.00,221.41 486.92,221.08 486.78,220.76 486.60,220.46 486.37,220.20 486.10,219.98 485.80,219.81 485.47,219.69 485.13,219.62 484.87,219.60 448.26,219.60 448.52,219.62 448.17,219.60 447.83,219.64 447.49,219.74 447.18,219.89 446.89,220.09 446.64,220.33 446.43,220.61 446.27,220.91 446.16,221.24 446.10,221.59 446.10,221.76 446.10,231.52 446.10,231.34 446.10,231.69 446.16,232.03 446.27,232.36 446.43,232.67 446.64,232.95 446.89,233.19 447.18,233.39 447.49,233.53 447.83,233.63 448.17,233.67 " style="stroke-width: 0.53; stroke: #0278DD; fill: #A1C6E6;" clip-path="url(#cpNi45NzM4NXw3MTMuMDI2fDI4MS4yMjd8Ni45NzM4NQ==)"/>
  <g clip-path="url(#cpNi45NzM4NXw3MTMuMDI2fDI4MS4yMjd8Ni45NzM4NQ==)">
    <text x="449.70" y="230.08" style="font-size: 9.96px; fill: #000; font-family: Liberation Sans;" textLength="33.73px" lengthAdjust="spacingAndGlyphs">SCENT</text>
  </g>
  <polyline points="532.53,123.83 576.89,123.83 576.80,123.83 577.15,123.82 577.49,123.75 577.81,123.62 578.12,123.45 578.39,123.23 578.62,122.97 578.80,122.68 578.94,122.36 579.02,122.02 579.05,121.67 579.05,121.67 579.05,111.92 579.05,111.92 579.02,111.57 578.94,111.23 578.80,110.91 578.62,110.62 578.39,110.36 578.12,110.14 577.81,109.96 577.49,109.84 577.15,109.77 576.89,109.76 532.53,109.76 532.79,109.77 532.45,109.76 532.10,109.80 531.77,109.90 531.45,110.05 531.17,110.24 530.92,110.48 530.71,110.76 530.55,111.07 530.44,111.40 530.38,111.74 530.37,111.92 530.37,121.67 530.38,121.50 530.38,121.85 530.44,122.19 530.55,122.52 530.71,122.83 530.92,123.10 531.17,123.34 531.45,123.54 531.77,123.69 532.10,123.79 532.45,123.83 " style="stroke-width: 0.53; stroke: #0278DD; fill: #A1C6E6;" clip-path="url(#cpNi45NzM4NXw3MTMuMDI2fDI4MS4yMjd8Ni45NzM4NQ==)"/>
  <g clip-path="url(#cpNi45NzM4NXw3MTMuMDI2fDI4MS4yMjd8Ni45NzM4NQ==)">
    <text x="533.97" y="120.23" style="font-size: 9.96px; fill: #000; font-family: Liberation Sans;" textLength="41.47px" lengthAdjust="spacingAndGlyphs">UNCURL</text>
  </g>
  <polyline points="409.89,166.77 461.99,166.77 461.90,166.77 462.25,166.76 462.59,166.69 462.92,166.56 463.22,166.39 463.49,166.17 463.72,165.91 463.90,165.62 464.04,165.30 464.12,164.96 464.15,164.61 464.15,164.61 464.15,154.86 464.15,154.86 464.12,154.51 464.04,154.17 463.90,153.85 463.72,153.56 463.49,153.30 463.22,153.08 462.92,152.91 462.59,152.78 462.25,152.71 461.99,152.70 409.89,152.70 410.15,152.71 409.80,152.70 409.46,152.74 409.12,152.84 408.81,152.99 408.52,153.18 408.27,153.43 408.06,153.70 407.90,154.01 407.79,154.34 407.74,154.68 407.73,154.86 407.73,164.61 407.74,164.44 407.74,164.79 407.79,165.13 407.90,165.46 408.06,165.77 408.27,166.05 408.52,166.29 408.81,166.48 409.12,166.63 409.46,166.73 409.80,166.77 " style="stroke-width: 0.53; stroke: #0278DD; fill: #A1C6E6;" clip-path="url(#cpNi45NzM4NXw3MTMuMDI2fDI4MS4yMjd8Ni45NzM4NQ==)"/>
  <g clip-path="url(#cpNi45NzM4NXw3MTMuMDI2fDI4MS4yMjd8Ni45NzM4NQ==)">
    <text x="411.33" y="163.17" style="font-size: 9.96px; fill: #000; font-family: Liberation Sans;" textLength="49.22px" lengthAdjust="spacingAndGlyphs">WaveCrest</text>
  </g>
  <polyline points="415.14,211.65 453.42,211.65 453.34,211.65 453.68,211.64 454.03,211.57 454.35,211.44 454.65,211.27 454.92,211.05 455.15,210.79 455.34,210.50 455.47,210.18 455.56,209.84 455.58,209.49 455.58,209.49 455.58,199.74 455.58,199.74 455.56,199.39 455.47,199.05 455.34,198.73 455.15,198.44 454.92,198.18 454.65,197.96 454.35,197.79 454.03,197.66 453.68,197.59 453.42,197.58 415.14,197.58 415.40,197.59 415.06,197.58 414.71,197.62 414.38,197.72 414.06,197.87 413.78,198.06 413.53,198.30 413.32,198.58 413.16,198.89 413.05,199.22 412.99,199.56 412.98,199.74 412.98,209.49 412.99,209.32 412.99,209.67 413.05,210.01 413.16,210.34 413.32,210.65 413.53,210.92 413.78,211.16 414.06,211.36 414.38,211.51 414.71,211.61 415.06,211.65 " style="stroke-width: 0.53; stroke: #E8EF04; fill: #E3E6A1;" clip-path="url(#cpNi45NzM4NXw3MTMuMDI2fDI4MS4yMjd8Ni45NzM4NQ==)"/>
  <g clip-path="url(#cpNi45NzM4NXw3MTMuMDI2fDI4MS4yMjd8Ni45NzM4NQ==)">
    <text x="416.58" y="208.05" style="font-size: 9.96px; fill: #000; font-family: Liberation Sans;" textLength="35.40px" lengthAdjust="spacingAndGlyphs">cellTree</text>
  </g>
  <polyline points="368.09,110.65 415.23,110.65 415.14,110.64 415.49,110.63 415.83,110.56 416.15,110.44 416.46,110.26 416.72,110.04 416.96,109.78 417.14,109.49 417.28,109.17 417.36,108.83 417.39,108.49 417.39,108.49 417.39,98.73 417.39,98.73 417.36,98.38 417.28,98.05 417.14,97.73 416.96,97.43 416.72,97.17 416.46,96.95 416.15,96.78 415.83,96.66 415.49,96.59 415.23,96.57 368.09,96.57 368.35,96.59 368.00,96.57 367.66,96.61 367.32,96.71 367.01,96.86 366.72,97.06 366.47,97.30 366.26,97.58 366.10,97.88 365.99,98.21 365.94,98.56 365.93,98.73 365.93,108.49 365.94,108.31 365.94,108.66 365.99,109.00 366.10,109.33 366.26,109.64 366.47,109.92 366.72,110.16 367.01,110.36 367.32,110.51 367.66,110.60 368.00,110.64 " style="stroke-width: 0.53; stroke: #3AD1D1; fill: #A1E6E6;" clip-path="url(#cpNi45NzM4NXw3MTMuMDI2fDI4MS4yMjd8Ni45NzM4NQ==)"/>
  <g clip-path="url(#cpNi45NzM4NXw3MTMuMDI2fDI4MS4yMjd8Ni45NzM4NQ==)">
    <text x="369.53" y="107.05" style="font-size: 9.96px; fill: #000; font-family: Liberation Sans;" textLength="44.26px" lengthAdjust="spacingAndGlyphs">Wishbone</text>
  </g>
  <polyline points="430.59,253.37 481.02,253.37 480.93,253.37 481.28,253.36 481.62,253.29 481.95,253.17 482.25,252.99 482.52,252.77 482.75,252.51 482.93,252.22 483.07,251.90 483.15,251.56 483.18,251.21 483.18,251.21 483.18,241.46 483.18,241.46 483.15,241.11 483.07,240.77 482.93,240.45 482.75,240.16 482.52,239.90 482.25,239.68 481.95,239.51 481.62,239.38 481.28,239.31 481.02,239.30 430.59,239.30 430.85,239.31 430.50,239.30 430.15,239.34 429.82,239.44 429.51,239.59 429.22,239.79 428.97,240.03 428.76,240.30 428.60,240.61 428.49,240.94 428.43,241.28 428.43,241.46 428.43,251.21 428.43,251.04 428.43,251.39 428.49,251.73 428.60,252.06 428.76,252.37 428.97,252.65 429.22,252.89 429.51,253.08 429.82,253.23 430.15,253.33 430.50,253.37 " style="stroke-width: 0.53; stroke: #0278DD; fill: #A1C6E6;" clip-path="url(#cpNi45NzM4NXw3MTMuMDI2fDI4MS4yMjd8Ni45NzM4NQ==)"/>
  <g clip-path="url(#cpNi45NzM4NXw3MTMuMDI2fDI4MS4yMjd8Ni45NzM4NQ==)">
    <text x="432.03" y="249.77" style="font-size: 9.96px; fill: #000; font-family: Liberation Sans;" textLength="47.55px" lengthAdjust="spacingAndGlyphs">SCIMITAR</text>
  </g>
  <polyline points="270.44,209.12 312.58,209.12 312.50,209.12 312.84,209.11 313.18,209.04 313.51,208.92 313.81,208.74 314.08,208.52 314.31,208.26 314.50,207.97 314.63,207.65 314.72,207.31 314.74,206.96 314.74,206.96 314.74,197.21 314.74,197.21 314.72,196.86 314.63,196.52 314.50,196.20 314.31,195.91 314.08,195.65 313.81,195.43 313.51,195.26 313.18,195.13 312.84,195.06 312.58,195.05 270.44,195.05 270.70,195.06 270.35,195.05 270.00,195.09 269.67,195.19 269.36,195.34 269.07,195.54 268.82,195.78 268.61,196.05 268.45,196.36 268.34,196.69 268.28,197.03 268.28,197.21 268.28,206.96 268.28,206.79 268.28,207.14 268.34,207.48 268.45,207.81 268.61,208.12 268.82,208.40 269.07,208.64 269.36,208.83 269.67,208.98 270.00,209.08 270.35,209.12 " style="stroke-width: 0.53; stroke: #0278DD; fill: #A1C6E6;" clip-path="url(#cpNi45NzM4NXw3MTMuMDI2fDI4MS4yMjd8Ni45NzM4NQ==)"/>
  <g clip-path="url(#cpNi45NzM4NXw3MTMuMDI2fDI4MS4yMjd8Ni45NzM4NQ==)">
    <text x="271.88" y="205.52" style="font-size: 9.96px; fill: #000; font-family: Liberation Sans;" textLength="39.27px" lengthAdjust="spacingAndGlyphs">Waterfall</text>
  </g>
  <polyline points="387.40,277.63 433.99,277.63 433.91,277.62 434.25,277.61 434.59,277.54 434.92,277.42 435.22,277.24 435.49,277.02 435.72,276.76 435.91,276.47 436.04,276.15 436.12,275.81 436.15,275.47 436.15,275.47 436.15,265.71 436.15,265.71 436.12,265.37 436.04,265.03 435.91,264.71 435.72,264.41 435.49,264.15 435.22,263.93 434.92,263.76 434.59,263.64 434.25,263.57 433.99,263.55 387.40,263.55 387.66,263.57 387.31,263.55 386.97,263.60 386.63,263.69 386.32,263.84 386.03,264.04 385.78,264.28 385.57,264.56 385.41,264.87 385.30,265.19 385.24,265.54 385.24,265.71 385.24,275.47 385.24,275.29 385.24,275.64 385.30,275.98 385.41,276.31 385.57,276.62 385.78,276.90 386.03,277.14 386.32,277.34 386.63,277.49 386.97,277.58 387.31,277.62 " style="stroke-width: 0.53; stroke: #0278DD; fill: #A1C6E6;" clip-path="url(#cpNi45NzM4NXw3MTMuMDI2fDI4MS4yMjd8Ni45NzM4NQ==)"/>
  <g clip-path="url(#cpNi45NzM4NXw3MTMuMDI2fDI4MS4yMjd8Ni45NzM4NQ==)">
    <text x="388.84" y="274.03" style="font-size: 9.96px; fill: #000; font-family: Liberation Sans;" textLength="43.72px" lengthAdjust="spacingAndGlyphs">DeLorean</text>
  </g>
  <polyline points="515.03,86.34 547.22,86.34 547.13,86.34 547.48,86.32 547.82,86.25 548.14,86.13 548.44,85.95 548.71,85.73 548.94,85.47 549.13,85.18 549.27,84.86 549.35,84.52 549.38,84.18 549.38,84.18 549.38,74.42 549.38,74.42 549.35,74.08 549.27,73.74 549.13,73.42 548.94,73.12 548.71,72.86 548.44,72.64 548.14,72.47 547.82,72.35 547.48,72.28 547.22,72.26 515.03,72.26 515.29,72.28 514.94,72.26 514.60,72.31 514.26,72.40 513.95,72.55 513.66,72.75 513.41,72.99 513.20,73.27 513.04,73.58 512.93,73.91 512.87,74.25 512.87,74.42 512.87,84.18 512.87,84.00 512.87,84.35 512.93,84.69 513.04,85.02 513.20,85.33 513.41,85.61 513.66,85.85 513.95,86.05 514.26,86.20 514.60,86.29 514.94,86.34 " style="stroke-width: 0.53; stroke: #E8EF04; fill: #E3E6A1;" clip-path="url(#cpNi45NzM4NXw3MTMuMDI2fDI4MS4yMjd8Ni45NzM4NQ==)"/>
  <g clip-path="url(#cpNi45NzM4NXw3MTMuMDI2fDI4MS4yMjd8Ni45NzM4NQ==)">
    <text x="516.47" y="82.74" style="font-size: 9.96px; fill: #000; font-family: Liberation Sans;" textLength="29.31px" lengthAdjust="spacingAndGlyphs">TASIC</text>
  </g>
  <polyline points="525.93,277.63 558.67,277.63 558.58,277.62 558.93,277.61 559.27,277.54 559.59,277.42 559.89,277.24 560.16,277.02 560.39,276.76 560.58,276.47 560.72,276.15 560.80,275.81 560.83,275.47 560.83,275.47 560.83,265.71 560.83,265.71 560.80,265.37 560.72,265.03 560.58,264.71 560.39,264.41 560.16,264.15 559.89,263.93 559.59,263.76 559.27,263.64 558.93,263.57 558.67,263.55 525.93,263.55 526.19,263.57 525.84,263.55 525.49,263.60 525.16,263.69 524.85,263.84 524.56,264.04 524.31,264.28 524.10,264.56 523.94,264.87 523.83,265.19 523.77,265.54 523.77,265.71 523.77,275.47 523.77,275.29 523.77,275.64 523.83,275.98 523.94,276.31 524.10,276.62 524.31,276.90 524.56,277.14 524.85,277.34 525.16,277.49 525.49,277.58 525.84,277.62 " style="stroke-width: 0.53; stroke: #0278DD; fill: #A1C6E6;" clip-path="url(#cpNi45NzM4NXw3MTMuMDI2fDI4MS4yMjd8Ni45NzM4NQ==)"/>
  <g clip-path="url(#cpNi45NzM4NXw3MTMuMDI2fDI4MS4yMjd8Ni45NzM4NQ==)">
    <text x="527.37" y="274.03" style="font-size: 9.96px; fill: #000; font-family: Liberation Sans;" textLength="29.86px" lengthAdjust="spacingAndGlyphs">scTDA</text>
  </g>
  <polyline points="559.30,83.40 596.48,83.40 596.39,83.40 596.74,83.39 597.08,83.32 597.40,83.20 597.70,83.02 597.97,82.80 598.20,82.54 598.39,82.25 598.53,81.93 598.61,81.59 598.64,81.24 598.64,81.24 598.64,71.49 598.64,71.49 598.61,71.14 598.53,70.80 598.39,70.48 598.20,70.19 597.97,69.93 597.70,69.71 597.40,69.54 597.08,69.41 596.74,69.34 596.48,69.33 559.30,69.33 559.56,69.34 559.21,69.33 558.86,69.37 558.53,69.47 558.22,69.62 557.93,69.82 557.68,70.06 557.47,70.33 557.31,70.64 557.20,70.97 557.14,71.31 557.14,71.49 557.14,81.24 557.14,81.07 557.14,81.42 557.20,81.76 557.31,82.09 557.47,82.40 557.68,82.68 557.93,82.92 558.22,83.11 558.53,83.26 558.86,83.36 559.21,83.40 " style="stroke-width: 0.53; stroke: #0278DD; fill: #A1C6E6;" clip-path="url(#cpNi45NzM4NXw3MTMuMDI2fDI4MS4yMjd8Ni45NzM4NQ==)"/>
  <g clip-path="url(#cpNi45NzM4NXw3MTMuMDI2fDI4MS4yMjd8Ni45NzM4NQ==)">
    <text x="560.74" y="79.80" style="font-size: 9.96px; fill: #000; font-family: Liberation Sans;" textLength="34.30px" lengthAdjust="spacingAndGlyphs">SoptSC</text>
  </g>
  <polyline points="511.85,24.65 551.23,24.65 551.14,24.65 551.49,24.63 551.83,24.56 552.15,24.44 552.45,24.27 552.72,24.05 552.95,23.79 553.14,23.49 553.27,23.17 553.36,22.84 553.39,22.49 553.39,22.49 553.39,12.73 553.39,12.73 553.36,12.39 553.27,12.05 553.14,11.73 552.95,11.44 552.72,11.18 552.45,10.96 552.15,10.78 551.83,10.66 551.49,10.59 551.23,10.57 511.85,10.57 512.11,10.59 511.76,10.58 511.42,10.62 511.08,10.71 510.77,10.86 510.48,11.06 510.23,11.30 510.02,11.58 509.86,11.89 509.75,12.22 509.69,12.56 509.69,12.73 509.69,22.49 509.69,22.32 509.69,22.66 509.75,23.01 509.86,23.34 510.02,23.64 510.23,23.92 510.48,24.16 510.77,24.36 511.08,24.51 511.42,24.61 511.76,24.65 " style="stroke-width: 0.53; stroke: #E8EF04; fill: #E3E6A1;" clip-path="url(#cpNi45NzM4NXw3MTMuMDI2fDI4MS4yMjd8Ni45NzM4NQ==)"/>
  <g clip-path="url(#cpNi45NzM4NXw3MTMuMDI2fDI4MS4yMjd8Ni45NzM4NQ==)">
    <text x="513.29" y="21.05" style="font-size: 9.96px; fill: #000; font-family: Liberation Sans;" textLength="36.50px" lengthAdjust="spacingAndGlyphs">SOMSC</text>
  </g>
  <polyline points="471.43,271.04 503.08,271.04 502.99,271.04 503.34,271.02 503.68,270.95 504.00,270.83 504.31,270.66 504.58,270.44 504.81,270.18 504.99,269.88 505.13,269.56 505.21,269.22 505.24,268.88 505.24,268.88 505.24,259.12 505.24,259.12 505.21,258.78 505.13,258.44 504.99,258.12 504.81,257.82 504.58,257.56 504.31,257.34 504.00,257.17 503.68,257.05 503.34,256.98 503.08,256.96 471.43,256.96 471.69,256.98 471.35,256.96 471.00,257.01 470.67,257.10 470.35,257.25 470.07,257.45 469.82,257.69 469.61,257.97 469.45,258.28 469.34,258.61 469.28,258.95 469.27,259.12 469.27,268.88 469.28,268.70 469.28,269.05 469.34,269.39 469.45,269.72 469.61,270.03 469.82,270.31 470.07,270.55 470.35,270.75 470.67,270.90 471.00,270.99 471.35,271.04 " style="stroke-width: 0.53; stroke: #E8EF04; fill: #E3E6A1;" clip-path="url(#cpNi45NzM4NXw3MTMuMDI2fDI4MS4yMjd8Ni45NzM4NQ==)"/>
  <g clip-path="url(#cpNi45NzM4NXw3MTMuMDI2fDI4MS4yMjd8Ni45NzM4NQ==)">
    <text x="472.87" y="267.44" style="font-size: 9.96px; fill: #000; font-family: Liberation Sans;" textLength="28.77px" lengthAdjust="spacingAndGlyphs">SLICE</text>
  </g>
  <polyline points="239.69,277.31 271.32,277.31 271.24,277.30 271.58,277.29 271.92,277.22 272.25,277.10 272.55,276.92 272.82,276.70 273.05,276.44 273.24,276.15 273.37,275.83 273.46,275.49 273.48,275.15 273.48,275.15 273.48,265.39 273.48,265.39 273.46,265.05 273.37,264.71 273.24,264.39 273.05,264.09 272.82,263.83 272.55,263.61 272.25,263.44 271.92,263.32 271.58,263.25 271.32,263.23 239.69,263.23 239.95,263.25 239.60,263.23 239.26,263.28 238.92,263.37 238.61,263.52 238.32,263.72 238.07,263.96 237.86,264.24 237.70,264.54 237.59,264.87 237.53,265.22 237.53,265.39 237.53,275.15 237.53,274.97 237.53,275.32 237.59,275.66 237.70,275.99 237.86,276.30 238.07,276.58 238.32,276.82 238.61,277.02 238.92,277.17 239.26,277.26 239.60,277.30 " style="stroke-width: 0.53; stroke: #0278DD; fill: #A1C6E6;" clip-path="url(#cpNi45NzM4NXw3MTMuMDI2fDI4MS4yMjd8Ni45NzM4NQ==)"/>
  <g clip-path="url(#cpNi45NzM4NXw3MTMuMDI2fDI4MS4yMjd8Ni45NzM4NQ==)">
    <text x="241.13" y="273.71" style="font-size: 9.96px; fill: #000; font-family: Liberation Sans;" textLength="28.76px" lengthAdjust="spacingAndGlyphs">NBOR</text>
  </g>
  <polyline points="491.57,213.25 529.30,213.25 529.21,213.25 529.56,213.24 529.90,213.17 530.22,213.05 530.52,212.87 530.79,212.65 531.02,212.39 531.21,212.10 531.34,211.78 531.43,211.44 531.46,211.09 531.46,211.09 531.46,201.34 531.46,201.34 531.43,200.99 531.34,200.66 531.21,200.34 531.02,200.04 530.79,199.78 530.52,199.56 530.22,199.39 529.90,199.27 529.56,199.20 529.30,199.18 491.57,199.18 491.83,199.20 491.48,199.18 491.13,199.22 490.80,199.32 490.49,199.47 490.20,199.67 489.95,199.91 489.74,200.19 489.58,200.49 489.47,200.82 489.41,201.17 489.41,201.34 489.41,211.09 489.41,210.92 489.41,211.27 489.47,211.61 489.58,211.94 489.74,212.25 489.95,212.53 490.20,212.77 490.49,212.97 490.80,213.11 491.13,213.21 491.48,213.25 " style="stroke-width: 0.53; stroke: #0278DD; fill: #A1C6E6;" clip-path="url(#cpNi45NzM4NXw3MTMuMDI2fDI4MS4yMjd8Ni45NzM4NQ==)"/>
  <g clip-path="url(#cpNi45NzM4NXw3MTMuMDI2fDI4MS4yMjd8Ni45NzM4NQ==)">
    <text x="493.01" y="209.65" style="font-size: 9.96px; fill: #000; font-family: Liberation Sans;" textLength="34.85px" lengthAdjust="spacingAndGlyphs">topslam</text>
  </g>
  <polyline points="498.46,107.00 537.30,107.00 537.21,106.99 537.56,106.98 537.90,106.91 538.23,106.79 538.53,106.61 538.80,106.39 539.03,106.13 539.21,105.84 539.35,105.52 539.43,105.18 539.46,104.84 539.46,104.84 539.46,95.08 539.46,95.08 539.43,94.73 539.35,94.40 539.21,94.08 539.03,93.78 538.80,93.52 538.53,93.30 538.23,93.13 537.90,93.01 537.56,92.94 537.30,92.92 498.46,92.92 498.72,92.94 498.37,92.92 498.03,92.96 497.69,93.06 497.38,93.21 497.09,93.41 496.84,93.65 496.64,93.93 496.47,94.23 496.36,94.56 496.31,94.91 496.30,95.08 496.30,104.84 496.31,104.66 496.31,105.01 496.36,105.35 496.47,105.68 496.64,105.99 496.84,106.27 497.09,106.51 497.38,106.71 497.69,106.86 498.03,106.95 498.37,106.99 " style="stroke-width: 0.53; stroke: #7FBE00; fill: #CFE6A1;" clip-path="url(#cpNi45NzM4NXw3MTMuMDI2fDI4MS4yMjd8Ni45NzM4NQ==)"/>
  <g clip-path="url(#cpNi45NzM4NXw3MTMuMDI2fDI4MS4yMjd8Ni45NzM4NQ==)">
    <text x="499.90" y="103.40" style="font-size: 9.96px; fill: #000; font-family: Liberation Sans;" textLength="35.96px" lengthAdjust="spacingAndGlyphs">GPfates</text>
  </g>
  <polyline points="394.32,67.34 430.38,67.34 430.30,67.34 430.64,67.32 430.98,67.26 431.31,67.13 431.61,66.96 431.88,66.74 432.11,66.48 432.30,66.18 432.43,65.86 432.51,65.53 432.54,65.18 432.54,65.18 432.54,55.43 432.54,55.43 432.51,55.08 432.43,54.74 432.30,54.42 432.11,54.13 431.88,53.87 431.61,53.65 431.31,53.47 430.98,53.35 430.64,53.28 430.38,53.27 394.32,53.27 394.58,53.28 394.23,53.27 393.89,53.31 393.55,53.41 393.24,53.55 392.95,53.75 392.70,53.99 392.49,54.27 392.33,54.58 392.22,54.91 392.17,55.25 392.16,55.43 392.16,65.18 392.17,65.01 392.17,65.35 392.22,65.70 392.33,66.03 392.49,66.33 392.70,66.61 392.95,66.85 393.24,67.05 393.55,67.20 393.89,67.30 394.23,67.34 " style="stroke-width: 0.53; stroke: #E8EF04; fill: #E3E6A1;" clip-path="url(#cpNi45NzM4NXw3MTMuMDI2fDI4MS4yMjd8Ni45NzM4NQ==)"/>
  <g clip-path="url(#cpNi45NzM4NXw3MTMuMDI2fDI4MS4yMjd8Ni45NzM4NQ==)">
    <text x="395.76" y="63.74" style="font-size: 9.96px; fill: #000; font-family: Liberation Sans;" textLength="33.18px" lengthAdjust="spacingAndGlyphs">StemID</text>
  </g>
  <polyline points="490.59,47.91 537.72,47.91 537.64,47.90 537.98,47.89 538.32,47.82 538.65,47.70 538.95,47.52 539.22,47.30 539.45,47.04 539.64,46.75 539.77,46.43 539.85,46.09 539.88,45.75 539.88,45.75 539.88,35.99 539.88,35.99 539.85,35.64 539.77,35.31 539.64,34.99 539.45,34.69 539.22,34.43 538.95,34.21 538.65,34.04 538.32,33.92 537.98,33.85 537.72,33.83 490.59,33.83 490.85,33.85 490.50,33.83 490.16,33.87 489.82,33.97 489.51,34.12 489.22,34.32 488.97,34.56 488.76,34.84 488.60,35.14 488.49,35.47 488.44,35.82 488.43,35.99 488.43,45.75 488.44,45.57 488.44,45.92 488.49,46.26 488.60,46.59 488.76,46.90 488.97,47.18 489.22,47.42 489.51,47.62 489.82,47.77 490.16,47.86 490.50,47.90 " style="stroke-width: 0.53; stroke: #E8EF04; fill: #E3E6A1;" clip-path="url(#cpNi45NzM4NXw3MTMuMDI2fDI4MS4yMjd8Ni45NzM4NQ==)"/>
  <g clip-path="url(#cpNi45NzM4NXw3MTMuMDI2fDI4MS4yMjd8Ni45NzM4NQ==)">
    <text x="492.03" y="44.31" style="font-size: 9.96px; fill: #000; font-family: Liberation Sans;" textLength="44.25px" lengthAdjust="spacingAndGlyphs">Granatum</text>
  </g>
  <polyline points="489.34,125.03 538.14,125.03 538.06,125.03 538.40,125.02 538.74,124.95 539.07,124.82 539.37,124.65 539.64,124.43 539.87,124.17 540.05,123.88 540.19,123.56 540.27,123.22 540.30,122.87 540.30,122.87 540.30,113.12 540.30,113.12 540.27,112.77 540.19,112.43 540.05,112.11 539.87,111.82 539.64,111.56 539.37,111.34 539.07,111.17 538.74,111.04 538.40,110.97 538.14,110.96 489.34,110.96 489.60,110.97 489.25,110.96 488.91,111.00 488.57,111.10 488.26,111.25 487.97,111.44 487.72,111.68 487.52,111.96 487.35,112.27 487.24,112.60 487.19,112.94 487.18,113.12 487.18,122.87 487.19,122.70 487.19,123.05 487.24,123.39 487.35,123.72 487.52,124.03 487.72,124.30 487.97,124.54 488.26,124.74 488.57,124.89 488.91,124.99 489.25,125.03 " style="stroke-width: 0.53; stroke: #E8EF04; fill: #E3E6A1;" clip-path="url(#cpNi45NzM4NXw3MTMuMDI2fDI4MS4yMjd8Ni45NzM4NQ==)"/>
  <g clip-path="url(#cpNi45NzM4NXw3MTMuMDI2fDI4MS4yMjd8Ni45NzM4NQ==)">
    <text x="490.78" y="121.43" style="font-size: 9.96px; fill: #000; font-family: Liberation Sans;" textLength="45.92px" lengthAdjust="spacingAndGlyphs">Monocle 2</text>
  </g>
  <polyline points="604.42,103.05 628.32,103.05 628.24,103.05 628.58,103.04 628.92,102.97 629.25,102.85 629.55,102.67 629.82,102.45 630.05,102.19 630.24,101.90 630.37,101.58 630.46,101.24 630.48,100.89 630.48,100.89 630.48,91.14 630.48,91.14 630.46,90.79 630.37,90.46 630.24,90.14 630.05,89.84 629.82,89.58 629.55,89.36 629.25,89.19 628.92,89.07 628.58,89.00 628.32,88.98 604.42,88.98 604.68,89.00 604.34,88.98 603.99,89.02 603.66,89.12 603.34,89.27 603.06,89.47 602.81,89.71 602.60,89.99 602.44,90.29 602.33,90.62 602.27,90.97 602.26,91.14 602.26,100.89 602.27,100.72 602.27,101.07 602.33,101.41 602.44,101.74 602.60,102.05 602.81,102.33 603.06,102.57 603.34,102.77 603.66,102.91 603.99,103.01 604.34,103.05 " style="stroke-width: 0.53; stroke: #CA0565; fill: #E6A1C2;" clip-path="url(#cpNi45NzM4NXw3MTMuMDI2fDI4MS4yMjd8Ni45NzM4NQ==)"/>
  <g clip-path="url(#cpNi45NzM4NXw3MTMuMDI2fDI4MS4yMjd8Ni45NzM4NQ==)">
    <text x="605.86" y="99.45" style="font-size: 9.96px; fill: #000; font-family: Liberation Sans;" textLength="21.02px" lengthAdjust="spacingAndGlyphs">AGA</text>
  </g>
  <polyline points="345.50,175.47 368.29,175.47 368.20,175.47 368.55,175.45 368.89,175.39 369.22,175.26 369.52,175.09 369.79,174.87 370.02,174.61 370.20,174.31 370.34,173.99 370.42,173.66 370.45,173.31 370.45,173.31 370.45,163.56 370.45,163.56 370.42,163.21 370.34,162.87 370.20,162.55 370.02,162.26 369.79,162.00 369.52,161.78 369.22,161.60 368.89,161.48 368.55,161.41 368.29,161.40 345.50,161.40 345.76,161.41 345.42,161.40 345.07,161.44 344.74,161.54 344.42,161.69 344.14,161.88 343.89,162.12 343.68,162.40 343.52,162.71 343.41,163.04 343.35,163.38 343.34,163.56 343.34,173.31 343.35,173.14 343.35,173.48 343.41,173.83 343.52,174.16 343.68,174.47 343.89,174.74 344.14,174.98 344.42,175.18 344.74,175.33 345.07,175.43 345.42,175.47 " style="stroke-width: 0.53; stroke: #3AD1D1; fill: #A1E6E6;" clip-path="url(#cpNi45NzM4NXw3MTMuMDI2fDI4MS4yMjd8Ni45NzM4NQ==)"/>
  <g clip-path="url(#cpNi45NzM4NXw3MTMuMDI2fDI4MS4yMjd8Ni45NzM4NQ==)">
    <text x="346.94" y="171.87" style="font-size: 9.96px; fill: #000; font-family: Liberation Sans;" textLength="19.91px" lengthAdjust="spacingAndGlyphs">DPT</text>
  </g>
  <polyline points="546.76,146.68 578.39,146.68 578.31,146.68 578.65,146.66 578.99,146.59 579.32,146.47 579.62,146.30 579.89,146.08 580.12,145.81 580.31,145.52 580.44,145.20 580.52,144.86 580.55,144.52 580.55,144.52 580.55,134.76 580.55,134.76 580.52,134.42 580.44,134.08 580.31,133.76 580.12,133.46 579.89,133.20 579.62,132.98 579.32,132.81 578.99,132.69 578.65,132.62 578.39,132.60 546.76,132.60 547.02,132.62 546.67,132.60 546.32,132.65 545.99,132.74 545.68,132.89 545.39,133.09 545.14,133.33 544.93,133.61 544.77,133.92 544.66,134.25 544.60,134.59 544.60,134.76 544.60,144.52 544.60,144.34 544.60,144.69 544.66,145.03 544.77,145.36 544.93,145.67 545.14,145.95 545.39,146.19 545.68,146.39 545.99,146.54 546.32,146.63 546.67,146.68 " style="stroke-width: 0.53; stroke: #003D76; fill: #A1C4E6;" clip-path="url(#cpNi45NzM4NXw3MTMuMDI2fDI4MS4yMjd8Ni45NzM4NQ==)"/>
  <g clip-path="url(#cpNi45NzM4NXw3MTMuMDI2fDI4MS4yMjd8Ni45NzM4NQ==)">
    <text x="548.20" y="143.08" style="font-size: 9.96px; fill: #000; font-family: Liberation Sans;" textLength="28.76px" lengthAdjust="spacingAndGlyphs">reCAT</text>
  </g>
  <polyline points="362.72,44.70 401.56,44.70 401.47,44.69 401.82,44.68 402.16,44.61 402.48,44.49 402.78,44.31 403.05,44.09 403.28,43.83 403.47,43.54 403.61,43.22 403.69,42.88 403.72,42.54 403.72,42.54 403.72,32.78 403.72,32.78 403.69,32.43 403.61,32.10 403.47,31.78 403.28,31.48 403.05,31.22 402.78,31.00 402.48,30.83 402.16,30.71 401.82,30.64 401.56,30.62 362.72,30.62 362.98,30.64 362.64,30.62 362.29,30.66 361.96,30.76 361.64,30.91 361.36,31.11 361.11,31.35 360.90,31.63 360.74,31.93 360.63,32.26 360.57,32.61 360.56,32.78 360.56,42.54 360.57,42.36 360.57,42.71 360.63,43.05 360.74,43.38 360.90,43.69 361.11,43.97 361.36,44.21 361.64,44.41 361.96,44.55 362.29,44.65 362.64,44.69 " style="stroke-width: 0.53; stroke: #FF4237; fill: #E6A4A1;" clip-path="url(#cpNi45NzM4NXw3MTMuMDI2fDI4MS4yMjd8Ni45NzM4NQ==)"/>
  <g clip-path="url(#cpNi45NzM4NXw3MTMuMDI2fDI4MS4yMjd8Ni45NzM4NQ==)">
    <text x="364.16" y="41.10" style="font-size: 9.96px; fill: #000; font-family: Liberation Sans;" textLength="35.95px" lengthAdjust="spacingAndGlyphs">SLICER</text>
  </g>
  <polyline points="538.60,24.65 590.69,24.65 590.60,24.65 590.95,24.63 591.29,24.56 591.62,24.44 591.92,24.27 592.19,24.05 592.42,23.79 592.60,23.49 592.74,23.17 592.82,22.84 592.85,22.49 592.85,22.49 592.85,12.73 592.85,12.73 592.82,12.39 592.74,12.05 592.60,11.73 592.42,11.44 592.19,11.18 591.92,10.96 591.62,10.78 591.29,10.66 590.95,10.59 590.69,10.57 538.60,10.57 538.86,10.59 538.51,10.58 538.17,10.62 537.83,10.71 537.52,10.86 537.23,11.06 536.98,11.30 536.77,11.58 536.61,11.89 536.50,12.22 536.45,12.56 536.44,12.73 536.44,22.49 536.45,22.32 536.45,22.66 536.50,23.01 536.61,23.34 536.77,23.64 536.98,23.92 537.23,24.16 537.52,24.36 537.83,24.51 538.17,24.61 538.51,24.65 " style="stroke-width: 0.53; stroke: #0278DD; fill: #A1C6E6;" clip-path="url(#cpNi45NzM4NXw3MTMuMDI2fDI4MS4yMjd8Ni45NzM4NQ==)"/>
  <g clip-path="url(#cpNi45NzM4NXw3MTMuMDI2fDI4MS4yMjd8Ni45NzM4NQ==)">
    <text x="540.04" y="21.05" style="font-size: 9.96px; fill: #000; font-family: Liberation Sans;" textLength="49.21px" lengthAdjust="spacingAndGlyphs">MATCHER</text>
  </g>
  <polyline points="516.25,171.76 558.41,171.76 558.32,171.76 558.67,171.74 559.01,171.67 559.34,171.55 559.64,171.38 559.91,171.16 560.14,170.90 560.32,170.60 560.46,170.28 560.54,169.95 560.57,169.60 560.57,169.60 560.57,159.84 560.57,159.84 560.54,159.50 560.46,159.16 560.32,158.84 560.14,158.55 559.91,158.29 559.64,158.07 559.34,157.89 559.01,157.77 558.67,157.70 558.41,157.68 516.25,157.68 516.51,157.70 516.16,157.69 515.82,157.73 515.48,157.82 515.17,157.97 514.88,158.17 514.63,158.41 514.42,158.69 514.26,159.00 514.15,159.33 514.10,159.67 514.09,159.84 514.09,169.60 514.10,169.43 514.10,169.77 514.15,170.12 514.26,170.45 514.42,170.75 514.63,171.03 514.88,171.27 515.17,171.47 515.48,171.62 515.82,171.72 516.16,171.76 " style="stroke-width: 0.53; stroke: #E8EF04; fill: #E3E6A1;" clip-path="url(#cpNi45NzM4NXw3MTMuMDI2fDI4MS4yMjd8Ni45NzM4NQ==)"/>
  <g clip-path="url(#cpNi45NzM4NXw3MTMuMDI2fDI4MS4yMjd8Ni45NzM4NQ==)">
    <text x="517.69" y="168.16" style="font-size: 9.96px; fill: #000; font-family: Liberation Sans;" textLength="39.28px" lengthAdjust="spacingAndGlyphs">slingshot</text>
  </g>
  <polyline points="550.45,45.56 593.73,45.56 593.65,45.56 593.99,45.55 594.33,45.48 594.66,45.35 594.96,45.18 595.23,44.96 595.46,44.70 595.65,44.41 595.78,44.09 595.87,43.75 595.89,43.40 595.89,43.40 595.89,33.65 595.89,33.65 595.87,33.30 595.78,32.96 595.65,32.64 595.46,32.35 595.23,32.09 594.96,31.87 594.66,31.70 594.33,31.57 593.99,31.50 593.73,31.49 550.45,31.49 550.71,31.50 550.37,31.49 550.02,31.53 549.69,31.63 549.37,31.78 549.09,31.97 548.84,32.21 548.63,32.49 548.47,32.80 548.36,33.13 548.30,33.47 548.29,33.65 548.29,43.40 548.30,43.23 548.30,43.58 548.36,43.92 548.47,44.25 548.63,44.56 548.84,44.83 549.09,45.08 549.37,45.27 549.69,45.42 550.02,45.52 550.37,45.56 " style="stroke-width: 0.53; stroke: #0278DD; fill: #A1C6E6;" clip-path="url(#cpNi45NzM4NXw3MTMuMDI2fDI4MS4yMjd8Ni45NzM4NQ==)"/>
  <g clip-path="url(#cpNi45NzM4NXw3MTMuMDI2fDI4MS4yMjd8Ni45NzM4NQ==)">
    <text x="551.89" y="41.96" style="font-size: 9.96px; fill: #000; font-family: Liberation Sans;" textLength="40.40px" lengthAdjust="spacingAndGlyphs">HopLand</text>
  </g>
  <polyline points="602.05,147.85 646.42,147.85 646.34,147.84 646.68,147.83 647.02,147.76 647.35,147.64 647.65,147.46 647.92,147.24 648.15,146.98 648.34,146.69 648.47,146.37 648.56,146.03 648.58,145.69 648.58,145.69 648.58,135.93 648.58,135.93 648.56,135.58 648.47,135.25 648.34,134.93 648.15,134.63 647.92,134.37 647.65,134.15 647.35,133.98 647.02,133.86 646.68,133.79 646.42,133.77 602.05,133.77 602.31,133.79 601.96,133.77 601.62,133.81 601.28,133.91 600.97,134.06 600.68,134.26 600.43,134.50 600.22,134.78 600.06,135.08 599.95,135.41 599.90,135.76 599.89,135.93 599.89,145.69 599.90,145.51 599.90,145.86 599.95,146.20 600.06,146.53 600.22,146.84 600.43,147.12 600.68,147.36 600.97,147.56 601.28,147.70 601.62,147.80 601.96,147.84 " style="stroke-width: 0.53; stroke: #E8EF04; fill: #E3E6A1;" clip-path="url(#cpNi45NzM4NXw3MTMuMDI2fDI4MS4yMjd8Ni45NzM4NQ==)"/>
  <g clip-path="url(#cpNi45NzM4NXw3MTMuMDI2fDI4MS4yMjd8Ni45NzM4NQ==)">
    <text x="603.49" y="144.25" style="font-size: 9.96px; fill: #000; font-family: Liberation Sans;" textLength="41.49px" lengthAdjust="spacingAndGlyphs">p-Creode</text>
  </g>
  <polyline points="51.91,249.06 100.71,249.06 100.63,249.06 100.97,249.05 101.31,248.98 101.64,248.85 101.94,248.68 102.21,248.46 102.44,248.20 102.63,247.90 102.76,247.59 102.85,247.25 102.87,246.90 102.87,246.90 102.87,237.15 102.87,237.15 102.85,236.80 102.76,236.46 102.63,236.14 102.44,235.85 102.21,235.59 101.94,235.37 101.64,235.19 101.31,235.07 100.97,235.00 100.71,234.99 51.91,234.99 52.17,235.00 51.83,234.99 51.48,235.03 51.15,235.13 50.83,235.28 50.55,235.47 50.30,235.71 50.09,235.99 49.92,236.30 49.81,236.63 49.76,236.97 49.75,237.15 49.75,246.90 49.76,246.73 49.76,247.07 49.81,247.42 49.92,247.75 50.09,248.06 50.30,248.33 50.55,248.57 50.83,248.77 51.15,248.92 51.48,249.02 51.83,249.06 " style="stroke-width: 0.53; stroke: #E8EF04; fill: #E3E6A1;" clip-path="url(#cpNi45NzM4NXw3MTMuMDI2fDI4MS4yMjd8Ni45NzM4NQ==)"/>
  <g clip-path="url(#cpNi45NzM4NXw3MTMuMDI2fDI4MS4yMjd8Ni45NzM4NQ==)">
    <text x="53.35" y="245.46" style="font-size: 9.96px; fill: #000; font-family: Liberation Sans;" textLength="45.92px" lengthAdjust="spacingAndGlyphs">Monocle 1</text>
  </g>
  <polyline points="400.80,231.30 431.35,231.30 431.26,231.30 431.61,231.29 431.95,231.22 432.27,231.09 432.57,230.92 432.84,230.70 433.07,230.44 433.26,230.15 433.40,229.83 433.48,229.49 433.51,229.14 433.51,229.14 433.51,219.39 433.51,219.39 433.48,219.04 433.40,218.70 433.26,218.38 433.07,218.09 432.84,217.83 432.57,217.61 432.27,217.44 431.95,217.31 431.61,217.24 431.35,217.23 400.80,217.23 401.06,217.24 400.72,217.23 400.37,217.27 400.04,217.37 399.72,217.52 399.44,217.71 399.19,217.95 398.98,218.23 398.82,218.54 398.71,218.87 398.65,219.21 398.64,219.39 398.64,229.14 398.65,228.97 398.65,229.32 398.71,229.66 398.82,229.99 398.98,230.30 399.19,230.57 399.44,230.82 399.72,231.01 400.04,231.16 400.37,231.26 400.72,231.30 " style="stroke-width: 0.53; stroke: #E8EF04; fill: #E3E6A1;" clip-path="url(#cpNi45NzM4NXw3MTMuMDI2fDI4MS4yMjd8Ni45NzM4NQ==)"/>
  <g clip-path="url(#cpNi45NzM4NXw3MTMuMDI2fDI4MS4yMjd8Ni45NzM4NQ==)">
    <text x="402.24" y="227.70" style="font-size: 9.96px; fill: #000; font-family: Liberation Sans;" textLength="27.66px" lengthAdjust="spacingAndGlyphs">Mpath</text>
  </g>
  <polyline points="510.90,149.04 534.79,149.04 534.70,149.04 535.05,149.03 535.39,148.96 535.72,148.84 536.02,148.66 536.29,148.44 536.52,148.18 536.70,147.89 536.84,147.57 536.92,147.23 536.95,146.88 536.95,146.88 536.95,137.13 536.95,137.13 536.92,136.78 536.84,136.45 536.70,136.13 536.52,135.83 536.29,135.57 536.02,135.35 535.72,135.18 535.39,135.05 535.05,134.99 534.79,134.97 510.90,134.97 511.16,134.99 510.81,134.97 510.47,135.01 510.14,135.11 509.82,135.26 509.54,135.46 509.28,135.70 509.08,135.98 508.91,136.28 508.80,136.61 508.75,136.96 508.74,137.13 508.74,146.88 508.75,146.71 508.75,147.06 508.80,147.40 508.91,147.73 509.08,148.04 509.28,148.32 509.54,148.56 509.82,148.76 510.14,148.90 510.47,149.00 510.81,149.04 " style="stroke-width: 0.53; stroke: #7FBE00; fill: #CFE6A1;" clip-path="url(#cpNi45NzM4NXw3MTMuMDI2fDI4MS4yMjd8Ni45NzM4NQ==)"/>
  <g clip-path="url(#cpNi45NzM4NXw3MTMuMDI2fDI4MS4yMjd8Ni45NzM4NQ==)">
    <text x="512.34" y="145.44" style="font-size: 9.96px; fill: #000; font-family: Liberation Sans;" textLength="21.01px" lengthAdjust="spacingAndGlyphs">MFA</text>
  </g>
  <polyline points="372.95,132.88 399.61,132.88 399.52,132.88 399.87,132.86 400.21,132.79 400.54,132.67 400.84,132.50 401.11,132.28 401.34,132.02 401.52,131.72 401.66,131.40 401.74,131.06 401.77,130.72 401.77,130.72 401.77,120.96 401.77,120.96 401.74,120.62 401.66,120.28 401.52,119.96 401.34,119.67 401.11,119.41 400.84,119.19 400.54,119.01 400.21,118.89 399.87,118.82 399.61,118.80 372.95,118.80 373.21,118.82 372.86,118.81 372.51,118.85 372.18,118.94 371.87,119.09 371.58,119.29 371.33,119.53 371.12,119.81 370.96,120.12 370.85,120.45 370.79,120.79 370.79,120.96 370.79,130.72 370.79,130.54 370.79,130.89 370.85,131.24 370.96,131.56 371.12,131.87 371.33,132.15 371.58,132.39 371.87,132.59 372.18,132.74 372.51,132.83 372.86,132.88 " style="stroke-width: 0.53; stroke: #0278DD; fill: #A1C6E6;" clip-path="url(#cpNi45NzM4NXw3MTMuMDI2fDI4MS4yMjd8Ni45NzM4NQ==)"/>
  <g clip-path="url(#cpNi45NzM4NXw3MTMuMDI2fDI4MS4yMjd8Ni45NzM4NQ==)">
    <text x="374.39" y="129.28" style="font-size: 9.96px; fill: #000; font-family: Liberation Sans;" textLength="23.78px" lengthAdjust="spacingAndGlyphs">SCell</text>
  </g>
  <polyline points="543.54,64.65 595.68,64.65 595.59,64.65 595.94,64.63 596.28,64.56 596.60,64.44 596.90,64.27 597.17,64.05 597.40,63.79 597.59,63.49 597.73,63.17 597.81,62.83 597.84,62.49 597.84,62.49 597.84,52.73 597.84,52.73 597.81,52.39 597.73,52.05 597.59,51.73 597.40,51.44 597.17,51.18 596.90,50.96 596.60,50.78 596.28,50.66 595.94,50.59 595.68,50.57 543.54,50.57 543.80,50.59 543.46,50.57 543.11,50.62 542.78,50.71 542.46,50.86 542.18,51.06 541.93,51.30 541.72,51.58 541.56,51.89 541.44,52.22 541.39,52.56 541.38,52.73 541.38,62.49 541.39,62.31 541.39,62.66 541.44,63.00 541.56,63.33 541.72,63.64 541.93,63.92 542.18,64.16 542.46,64.36 542.78,64.51 543.11,64.60 543.46,64.65 " style="stroke-width: 0.53; stroke: #0278DD; fill: #A1C6E6;" clip-path="url(#cpNi45NzM4NXw3MTMuMDI2fDI4MS4yMjd8Ni45NzM4NQ==)"/>
  <g clip-path="url(#cpNi45NzM4NXw3MTMuMDI2fDI4MS4yMjd8Ni45NzM4NQ==)">
    <text x="544.98" y="61.05" style="font-size: 9.96px; fill: #000; font-family: Liberation Sans;" textLength="49.26px" lengthAdjust="spacingAndGlyphs">PhenoPath</text>
  </g>
  <polyline points="573.51,169.90 612.89,169.90 612.80,169.89 613.15,169.88 613.49,169.81 613.81,169.69 614.11,169.51 614.38,169.29 614.61,169.03 614.80,168.74 614.94,168.42 615.02,168.08 615.05,167.74 615.05,167.74 615.05,157.98 615.05,157.98 615.02,157.63 614.94,157.30 614.80,156.98 614.61,156.68 614.38,156.42 614.11,156.20 613.81,156.03 613.49,155.91 613.15,155.84 612.89,155.82 573.51,155.82 573.77,155.84 573.42,155.82 573.08,155.87 572.74,155.96 572.43,156.11 572.14,156.31 571.89,156.55 571.68,156.83 571.52,157.13 571.41,157.46 571.36,157.81 571.35,157.98 571.35,167.74 571.36,167.56 571.36,167.91 571.41,168.25 571.52,168.58 571.68,168.89 571.89,169.17 572.14,169.41 572.43,169.61 572.74,169.76 573.08,169.85 573.42,169.89 " style="stroke-width: 0.53; stroke: #FF8821; fill: #E6C1A1;" clip-path="url(#cpNi45NzM4NXw3MTMuMDI2fDI4MS4yMjd8Ni45NzM4NQ==)"/>
  <g clip-path="url(#cpNi45NzM4NXw3MTMuMDI2fDI4MS4yMjd8Ni45NzM4NQ==)">
    <text x="574.95" y="166.30" style="font-size: 9.96px; fill: #000; font-family: Liberation Sans;" textLength="36.50px" lengthAdjust="spacingAndGlyphs">B-RGPs</text>
  </g>
  <polyline points="170.71,276.80 207.88,276.80 207.79,276.80 208.14,276.78 208.48,276.71 208.80,276.59 209.10,276.41 209.37,276.19 209.60,275.93 209.79,275.64 209.93,275.32 210.01,274.98 210.04,274.64 210.04,274.64 210.04,264.88 210.04,264.88 210.01,264.54 209.93,264.20 209.79,263.88 209.60,263.58 209.37,263.32 209.10,263.10 208.80,262.93 208.48,262.81 208.14,262.74 207.88,262.72 170.71,262.72 170.97,262.74 170.62,262.72 170.27,262.77 169.94,262.86 169.63,263.01 169.34,263.21 169.09,263.45 168.88,263.73 168.72,264.04 168.61,264.37 168.55,264.71 168.55,264.88 168.55,274.64 168.55,274.46 168.55,274.81 168.61,275.15 168.72,275.48 168.88,275.79 169.09,276.07 169.34,276.31 169.63,276.51 169.94,276.66 170.27,276.75 170.62,276.80 " style="stroke-width: 0.53; stroke: #E8EF04; fill: #E3E6A1;" clip-path="url(#cpNi45NzM4NXw3MTMuMDI2fDI4MS4yMjd8Ni45NzM4NQ==)"/>
  <g clip-path="url(#cpNi45NzM4NXw3MTMuMDI2fDI4MS4yMjd8Ni45NzM4NQ==)">
    <text x="172.15" y="273.20" style="font-size: 9.96px; fill: #000; font-family: Liberation Sans;" textLength="34.29px" lengthAdjust="spacingAndGlyphs">SCUBA</text>
  </g>
  <polyline points="59.22,270.90 112.44,270.90 112.35,270.90 112.70,270.89 113.04,270.82 113.37,270.69 113.67,270.52 113.94,270.30 114.17,270.04 114.35,269.75 114.49,269.43 114.57,269.09 114.60,268.74 114.60,268.74 114.60,258.99 114.60,258.99 114.57,258.64 114.49,258.30 114.35,257.98 114.17,257.69 113.94,257.43 113.67,257.21 113.37,257.04 113.04,256.91 112.70,256.84 112.44,256.83 59.22,256.83 59.48,256.84 59.13,256.83 58.79,256.87 58.46,256.97 58.14,257.12 57.86,257.31 57.60,257.56 57.40,257.83 57.23,258.14 57.12,258.47 57.07,258.81 57.06,258.99 57.06,268.74 57.07,268.57 57.07,268.92 57.12,269.26 57.23,269.59 57.40,269.90 57.60,270.18 57.86,270.42 58.14,270.61 58.46,270.76 58.79,270.86 59.13,270.90 " style="stroke-width: 0.53; stroke: #0278DD; fill: #A1C6E6;" clip-path="url(#cpNi45NzM4NXw3MTMuMDI2fDI4MS4yMjd8Ni45NzM4NQ==)"/>
  <g clip-path="url(#cpNi45NzM4NXw3MTMuMDI2fDI4MS4yMjd8Ni45NzM4NQ==)">
    <text x="60.66" y="267.30" style="font-size: 9.96px; fill: #000; font-family: Liberation Sans;" textLength="50.34px" lengthAdjust="spacingAndGlyphs">Wanderlust</text>
  </g>
  <polyline points="566.47,193.77 600.89,193.77 600.80,193.77 601.15,193.75 601.49,193.68 601.81,193.56 602.12,193.39 602.38,193.17 602.62,192.91 602.80,192.61 602.94,192.29 603.02,191.95 603.05,191.61 603.05,191.61 603.05,181.85 603.05,181.85 603.02,181.51 602.94,181.17 602.80,180.85 602.62,180.56 602.38,180.30 602.12,180.08 601.81,179.90 601.49,179.78 601.15,179.71 600.89,179.69 566.47,179.69 566.73,179.71 566.39,179.69 566.04,179.74 565.71,179.83 565.39,179.98 565.11,180.18 564.86,180.42 564.65,180.70 564.49,181.01 564.38,181.34 564.32,181.68 564.31,181.85 564.31,191.61 564.32,191.43 564.32,191.78 564.38,192.12 564.49,192.45 564.65,192.76 564.86,193.04 565.11,193.28 565.39,193.48 565.71,193.63 566.04,193.72 566.39,193.77 " style="stroke-width: 0.53; stroke: #3AD1D1; fill: #A1E6E6;" clip-path="url(#cpNi45NzM4NXw3MTMuMDI2fDI4MS4yMjd8Ni45NzM4NQ==)"/>
  <g clip-path="url(#cpNi45NzM4NXw3MTMuMDI2fDI4MS4yMjd8Ni45NzM4NQ==)">
    <text x="567.91" y="190.17" style="font-size: 9.96px; fill: #000; font-family: Liberation Sans;" textLength="31.54px" lengthAdjust="spacingAndGlyphs">scanpy</text>
  </g>
  <polyline points="568.42,256.89 592.32,256.89 592.23,256.89 592.58,256.87 592.92,256.80 593.25,256.68 593.55,256.51 593.82,256.29 594.05,256.03 594.23,255.73 594.37,255.41 594.45,255.08 594.48,254.73 594.48,254.73 594.48,244.97 594.48,244.97 594.45,244.63 594.37,244.29 594.23,243.97 594.05,243.68 593.82,243.42 593.55,243.20 593.25,243.02 592.92,242.90 592.58,242.83 592.32,242.81 568.42,242.81 568.68,242.83 568.33,242.82 567.99,242.86 567.65,242.95 567.34,243.10 567.05,243.30 566.80,243.54 566.59,243.82 566.43,244.13 566.32,244.46 566.27,244.80 566.26,244.97 566.26,254.73 566.27,254.56 566.27,254.90 566.32,255.25 566.43,255.58 566.59,255.88 566.80,256.16 567.05,256.40 567.34,256.60 567.65,256.75 567.99,256.85 568.33,256.89 " style="stroke-width: 0.53; stroke: #3AD1D1; fill: #A1E6E6;" clip-path="url(#cpNi45NzM4NXw3MTMuMDI2fDI4MS4yMjd8Ni45NzM4NQ==)"/>
  <g clip-path="url(#cpNi45NzM4NXw3MTMuMDI2fDI4MS4yMjd8Ni45NzM4NQ==)">
    <text x="569.86" y="253.29" style="font-size: 9.96px; fill: #000; font-family: Liberation Sans;" textLength="21.02px" lengthAdjust="spacingAndGlyphs">BGP</text>
  </g>
  <polyline points="615.73,124.48 645.16,124.48 645.07,124.48 645.42,124.46 645.76,124.39 646.09,124.27 646.39,124.10 646.66,123.88 646.89,123.62 647.07,123.32 647.21,123.00 647.29,122.67 647.32,122.32 647.32,122.32 647.32,112.56 647.32,112.56 647.29,112.22 647.21,111.88 647.07,111.56 646.89,111.27 646.66,111.01 646.39,110.79 646.09,110.61 645.76,110.49 645.42,110.42 645.16,110.40 615.73,110.40 615.99,110.42 615.64,110.41 615.30,110.45 614.96,110.55 614.65,110.69 614.36,110.89 614.11,111.13 613.90,111.41 613.74,111.72 613.63,112.05 613.58,112.39 613.57,112.56 613.57,122.32 613.58,122.15 613.58,122.49 613.63,122.84 613.74,123.17 613.90,123.47 614.11,123.75 614.36,123.99 614.65,124.19 614.96,124.34 615.30,124.44 615.64,124.48 " style="stroke-width: 0.53; stroke: #0278DD; fill: #A1C6E6;" clip-path="url(#cpNi45NzM4NXw3MTMuMDI2fDI4MS4yMjd8Ni45NzM4NQ==)"/>
  <g clip-path="url(#cpNi45NzM4NXw3MTMuMDI2fDI4MS4yMjd8Ni45NzM4NQ==)">
    <text x="617.17" y="120.88" style="font-size: 9.96px; fill: #000; font-family: Liberation Sans;" textLength="26.55px" lengthAdjust="spacingAndGlyphs">iCpSc</text>
  </g>
  <polyline points="607.84,211.52 655.53,211.52 655.44,211.52 655.79,211.51 656.13,211.44 656.45,211.31 656.75,211.14 657.02,210.92 657.25,210.66 657.44,210.37 657.58,210.05 657.66,209.71 657.69,209.36 657.69,209.36 657.69,199.61 657.69,199.61 657.66,199.26 657.58,198.92 657.44,198.60 657.25,198.31 657.02,198.05 656.75,197.83 656.45,197.66 656.13,197.53 655.79,197.46 655.53,197.45 607.84,197.45 608.10,197.46 607.76,197.45 607.41,197.49 607.08,197.59 606.76,197.74 606.48,197.94 606.23,198.18 606.02,198.45 605.86,198.76 605.75,199.09 605.69,199.43 605.68,199.61 605.68,209.36 605.69,209.19 605.69,209.54 605.75,209.88 605.86,210.21 606.02,210.52 606.23,210.80 606.48,211.04 606.76,211.23 607.08,211.38 607.41,211.48 607.76,211.52 " style="stroke-width: 0.53; stroke: #7FBE00; fill: #CFE6A1;" clip-path="url(#cpNi45NzM4NXw3MTMuMDI2fDI4MS4yMjd8Ni45NzM4NQ==)"/>
  <g clip-path="url(#cpNi45NzM4NXw3MTMuMDI2fDI4MS4yMjd8Ni45NzM4NQ==)">
    <text x="609.28" y="207.92" style="font-size: 9.96px; fill: #000; font-family: Liberation Sans;" textLength="44.80px" lengthAdjust="spacingAndGlyphs">GrandPrix</text>
  </g>
  <polyline points="387.83,189.83 426.11,189.83 426.02,189.83 426.37,189.82 426.71,189.75 427.03,189.63 427.34,189.45 427.60,189.23 427.84,188.97 428.02,188.68 428.16,188.36 428.24,188.02 428.27,187.67 428.27,187.67 428.27,177.92 428.27,177.92 428.24,177.57 428.16,177.24 428.02,176.92 427.84,176.62 427.60,176.36 427.34,176.14 427.03,175.97 426.71,175.85 426.37,175.78 426.11,175.76 387.83,175.76 388.09,175.78 387.75,175.76 387.40,175.80 387.07,175.90 386.75,176.05 386.47,176.25 386.22,176.49 386.01,176.77 385.85,177.07 385.74,177.40 385.68,177.75 385.67,177.92 385.67,187.67 385.68,187.50 385.68,187.85 385.74,188.19 385.85,188.52 386.01,188.83 386.22,189.11 386.47,189.35 386.75,189.55 387.07,189.69 387.40,189.79 387.75,189.83 " style="stroke-width: 0.53; stroke: #7FBE00; fill: #CFE6A1;" clip-path="url(#cpNi45NzM4NXw3MTMuMDI2fDI4MS4yMjd8Ni45NzM4NQ==)"/>
  <g clip-path="url(#cpNi45NzM4NXw3MTMuMDI2fDI4MS4yMjd8Ni45NzM4NQ==)">
    <text x="389.27" y="186.23" style="font-size: 9.96px; fill: #000; font-family: Liberation Sans;" textLength="35.39px" lengthAdjust="spacingAndGlyphs">SCOUP</text>
  </g>
  <polyline points="544.41,214.89 581.57,214.89 581.48,214.89 581.83,214.88 582.17,214.81 582.50,214.69 582.80,214.51 583.07,214.29 583.30,214.03 583.48,213.74 583.62,213.42 583.70,213.08 583.73,212.73 583.73,212.73 583.73,202.98 583.73,202.98 583.70,202.63 583.62,202.30 583.48,201.98 583.30,201.68 583.07,201.42 582.80,201.20 582.50,201.03 582.17,200.90 581.83,200.83 581.57,200.82 544.41,200.82 544.67,200.83 544.32,200.82 543.97,200.86 543.64,200.96 543.33,201.11 543.04,201.31 542.79,201.55 542.58,201.82 542.42,202.13 542.31,202.46 542.25,202.81 542.25,202.98 542.25,212.73 542.25,212.56 542.25,212.91 542.31,213.25 542.42,213.58 542.58,213.89 542.79,214.17 543.04,214.41 543.33,214.60 543.64,214.75 543.97,214.85 544.32,214.89 " style="stroke-width: 0.53; stroke: #E8EF04; fill: #E3E6A1;" clip-path="url(#cpNi45NzM4NXw3MTMuMDI2fDI4MS4yMjd8Ni45NzM4NQ==)"/>
  <g clip-path="url(#cpNi45NzM4NXw3MTMuMDI2fDI4MS4yMjd8Ni45NzM4NQ==)">
    <text x="545.85" y="211.29" style="font-size: 9.96px; fill: #000; font-family: Liberation Sans;" textLength="34.29px" lengthAdjust="spacingAndGlyphs">FORKS</text>
  </g>
  <polyline points="276.64,231.97 318.80,231.97 318.71,231.97 319.06,231.95 319.40,231.88 319.72,231.76 320.03,231.58 320.29,231.36 320.53,231.10 320.71,230.81 320.85,230.49 320.93,230.15 320.96,229.81 320.96,229.81 320.96,220.05 320.96,220.05 320.93,219.71 320.85,219.37 320.71,219.05 320.53,218.75 320.29,218.49 320.03,218.27 319.72,218.10 319.40,217.98 319.06,217.91 318.80,217.89 276.64,217.89 276.90,217.91 276.55,217.89 276.20,217.94 275.87,218.03 275.56,218.18 275.27,218.38 275.02,218.62 274.81,218.90 274.65,219.21 274.54,219.54 274.48,219.88 274.48,220.05 274.48,229.81 274.48,229.63 274.48,229.98 274.54,230.32 274.65,230.65 274.81,230.96 275.02,231.24 275.27,231.48 275.56,231.68 275.87,231.83 276.20,231.92 276.55,231.97 " style="stroke-width: 0.53; stroke: #0278DD; fill: #A1C6E6;" clip-path="url(#cpNi45NzM4NXw3MTMuMDI2fDI4MS4yMjd8Ni45NzM4NQ==)"/>
  <g clip-path="url(#cpNi45NzM4NXw3MTMuMDI2fDI4MS4yMjd8Ni45NzM4NQ==)">
    <text x="278.08" y="228.37" style="font-size: 9.96px; fill: #000; font-family: Liberation Sans;" textLength="39.28px" lengthAdjust="spacingAndGlyphs">embeddr</text>
  </g>
  <polyline points="459.54,191.43 511.66,191.43 511.57,191.43 511.92,191.41 512.26,191.34 512.58,191.22 512.89,191.05 513.15,190.83 513.39,190.57 513.57,190.27 513.71,189.95 513.79,189.62 513.82,189.27 513.82,189.27 513.82,179.51 513.82,179.51 513.79,179.17 513.71,178.83 513.57,178.51 513.39,178.22 513.15,177.96 512.89,177.74 512.58,177.56 512.26,177.44 511.92,177.37 511.66,177.35 459.54,177.35 459.80,177.37 459.46,177.36 459.11,177.40 458.78,177.49 458.46,177.64 458.18,177.84 457.93,178.08 457.72,178.36 457.56,178.67 457.45,179.00 457.39,179.34 457.38,179.51 457.38,189.27 457.39,189.09 457.39,189.44 457.45,189.79 457.56,190.12 457.72,190.42 457.93,190.70 458.18,190.94 458.46,191.14 458.78,191.29 459.11,191.38 459.46,191.43 " style="stroke-width: 0.53; stroke: #E8EF04; fill: #E3E6A1;" clip-path="url(#cpNi45NzM4NXw3MTMuMDI2fDI4MS4yMjd8Ni45NzM4NQ==)"/>
  <g clip-path="url(#cpNi45NzM4NXw3MTMuMDI2fDI4MS4yMjd8Ni45NzM4NQ==)">
    <text x="460.98" y="187.83" style="font-size: 9.96px; fill: #000; font-family: Liberation Sans;" textLength="49.24px" lengthAdjust="spacingAndGlyphs">k-branches</text>
  </g>
  <polyline points="638.34,166.04 680.49,166.04 680.40,166.04 680.75,166.02 681.09,165.95 681.41,165.83 681.71,165.66 681.98,165.44 682.21,165.18 682.40,164.88 682.54,164.56 682.62,164.23 682.65,163.88 682.65,163.88 682.65,154.12 682.65,154.12 682.62,153.78 682.54,153.44 682.40,153.12 682.21,152.83 681.98,152.57 681.71,152.35 681.41,152.17 681.09,152.05 680.75,151.98 680.49,151.96 638.34,151.96 638.60,151.98 638.25,151.97 637.91,152.01 637.57,152.10 637.26,152.25 636.97,152.45 636.72,152.69 636.51,152.97 636.35,153.28 636.24,153.61 636.19,153.95 636.18,154.12 636.18,163.88 636.19,163.70 636.19,164.05 636.24,164.40 636.35,164.73 636.51,165.03 636.72,165.31 636.97,165.55 637.26,165.75 637.57,165.90 637.91,165.99 638.25,166.04 " style="stroke-width: 0.53; stroke: #E8EF04; fill: #E3E6A1;" clip-path="url(#cpNi45NzM4NXw3MTMuMDI2fDI4MS4yMjd8Ni45NzM4NQ==)"/>
  <g clip-path="url(#cpNi45NzM4NXw3MTMuMDI2fDI4MS4yMjd8Ni45NzM4NQ==)">
    <text x="639.78" y="162.44" style="font-size: 9.96px; fill: #000; font-family: Liberation Sans;" textLength="39.27px" lengthAdjust="spacingAndGlyphs">MERLoT</text>
  </g>
  <polyline points="508.54,237.59 544.60,237.59 544.52,237.59 544.86,237.57 545.20,237.50 545.53,237.38 545.83,237.21 546.10,236.99 546.33,236.73 546.51,236.43 546.65,236.11 546.73,235.77 546.76,235.43 546.76,235.43 546.76,225.67 546.76,225.67 546.73,225.33 546.65,224.99 546.51,224.67 546.33,224.38 546.10,224.12 545.83,223.90 545.53,223.72 545.20,223.60 544.86,223.53 544.60,223.51 508.54,223.51 508.80,223.53 508.45,223.51 508.11,223.56 507.77,223.65 507.46,223.80 507.17,224.00 506.92,224.24 506.71,224.52 506.55,224.83 506.44,225.16 506.39,225.50 506.38,225.67 506.38,235.43 506.39,235.25 506.39,235.60 506.44,235.95 506.55,236.27 506.71,236.58 506.92,236.86 507.17,237.10 507.46,237.30 507.77,237.45 508.11,237.54 508.45,237.59 " style="stroke-width: 0.53; stroke: #E8EF04; fill: #E3E6A1;" clip-path="url(#cpNi45NzM4NXw3MTMuMDI2fDI4MS4yMjd8Ni45NzM4NQ==)"/>
  <g clip-path="url(#cpNi45NzM4NXw3MTMuMDI2fDI4MS4yMjd8Ni45NzM4NQ==)">
    <text x="509.98" y="233.99" style="font-size: 9.96px; fill: #000; font-family: Liberation Sans;" textLength="33.18px" lengthAdjust="spacingAndGlyphs">PHATE</text>
  </g>
  <polyline points="568.14,104.57 590.94,104.57 590.85,104.57 591.20,104.56 591.54,104.49 591.87,104.37 592.17,104.19 592.44,103.97 592.67,103.71 592.85,103.42 592.99,103.10 593.07,102.76 593.10,102.41 593.10,102.41 593.10,92.66 593.10,92.66 593.07,92.31 592.99,91.97 592.85,91.66 592.67,91.36 592.44,91.10 592.17,90.88 591.87,90.71 591.54,90.58 591.20,90.51 590.94,90.50 568.14,90.50 568.40,90.51 568.06,90.50 567.71,90.54 567.38,90.64 567.06,90.79 566.78,90.99 566.53,91.23 566.32,91.50 566.16,91.81 566.05,92.14 565.99,92.49 565.98,92.66 565.98,102.41 565.99,102.24 565.99,102.59 566.05,102.93 566.16,103.26 566.32,103.57 566.53,103.85 566.78,104.09 567.06,104.28 567.38,104.43 567.71,104.53 568.06,104.57 " style="stroke-width: 0.53; stroke: #7FBE00; fill: #CFE6A1;" clip-path="url(#cpNi45NzM4NXw3MTMuMDI2fDI4MS4yMjd8Ni45NzM4NQ==)"/>
  <g clip-path="url(#cpNi45NzM4NXw3MTMuMDI2fDI4MS4yMjd8Ni45NzM4NQ==)">
    <text x="569.58" y="100.97" style="font-size: 9.96px; fill: #000; font-family: Liberation Sans;" textLength="19.92px" lengthAdjust="spacingAndGlyphs">PBA</text>
  </g>
  <polyline points="559.39,232.25 648.52,232.25 648.44,232.25 648.78,232.23 649.12,232.16 649.45,232.04 649.75,231.87 650.02,231.65 650.25,231.39 650.44,231.09 650.57,230.77 650.66,230.44 650.68,230.09 650.68,230.09 650.68,220.33 650.68,220.33 650.66,219.99 650.57,219.65 650.44,219.33 650.25,219.04 650.02,218.78 649.75,218.56 649.45,218.38 649.12,218.26 648.78,218.19 648.52,218.17 559.39,218.17 559.65,218.19 559.31,218.18 558.96,218.22 558.63,218.32 558.31,218.46 558.03,218.66 557.78,218.90 557.57,219.18 557.41,219.49 557.30,219.82 557.24,220.16 557.23,220.33 557.23,230.09 557.24,229.92 557.24,230.26 557.30,230.61 557.41,230.94 557.57,231.24 557.78,231.52 558.03,231.76 558.31,231.96 558.63,232.11 558.96,232.21 559.31,232.25 " style="stroke-width: 0.53; stroke: #FF4237; fill: #E6A4A1;" clip-path="url(#cpNi45NzM4NXw3MTMuMDI2fDI4MS4yMjd8Ni45NzM4NQ==)"/>
  <g clip-path="url(#cpNi45NzM4NXw3MTMuMDI2fDI4MS4yMjd8Ni45NzM4NQ==)">
    <text x="560.83" y="228.65" style="font-size: 9.96px; fill: #000; font-family: Liberation Sans;" textLength="86.25px" lengthAdjust="spacingAndGlyphs">WADDINGTON-OT</text>
  </g>
  <polyline points="638.75,232.61 677.59,232.61 677.51,232.61 677.85,232.59 678.19,232.52 678.52,232.40 678.82,232.23 679.09,232.01 679.32,231.75 679.51,231.45 679.64,231.13 679.73,230.80 679.75,230.45 679.75,230.45 679.75,220.69 679.75,220.69 679.73,220.35 679.64,220.01 679.51,219.69 679.32,219.40 679.09,219.14 678.82,218.92 678.52,218.74 678.19,218.62 677.85,218.55 677.59,218.53 638.75,218.53 639.01,218.55 638.66,218.54 638.32,218.58 637.98,218.67 637.67,218.82 637.38,219.02 637.13,219.26 636.92,219.54 636.76,219.85 636.65,220.18 636.60,220.52 636.59,220.69 636.59,230.45 636.60,230.28 636.60,230.62 636.65,230.97 636.76,231.30 636.92,231.60 637.13,231.88 637.38,232.12 637.67,232.32 637.98,232.47 638.32,232.57 638.66,232.61 " style="stroke-width: 0.53; stroke: #E8EF04; fill: #E3E6A1;" clip-path="url(#cpNi45NzM4NXw3MTMuMDI2fDI4MS4yMjd8Ni45NzM4NQ==)"/>
  <g clip-path="url(#cpNi45NzM4NXw3MTMuMDI2fDI4MS4yMjd8Ni45NzM4NQ==)">
    <text x="640.19" y="229.01" style="font-size: 9.96px; fill: #000; font-family: Liberation Sans;" textLength="35.96px" lengthAdjust="spacingAndGlyphs">scEpath</text>
  </g>
  <polyline points="583.81,250.12 651.42,250.12 651.34,250.12 651.68,250.11 652.02,250.04 652.35,249.91 652.65,249.74 652.92,249.52 653.15,249.26 653.34,248.97 653.47,248.65 653.55,248.31 653.58,247.96 653.58,247.96 653.58,238.21 653.58,238.21 653.55,237.86 653.47,237.52 653.34,237.20 653.15,236.91 652.92,236.65 652.65,236.43 652.35,236.25 652.02,236.13 651.68,236.06 651.42,236.05 583.81,236.05 584.07,236.06 583.72,236.05 583.38,236.09 583.04,236.19 582.73,236.34 582.44,236.53 582.19,236.77 581.98,237.05 581.82,237.36 581.71,237.69 581.66,238.03 581.65,238.21 581.65,247.96 581.66,247.79 581.66,248.14 581.71,248.48 581.82,248.81 581.98,249.12 582.19,249.39 582.44,249.63 582.73,249.83 583.04,249.98 583.38,250.08 583.72,250.12 " style="stroke-width: 0.53; stroke: #0278DD; fill: #A1C6E6;" clip-path="url(#cpNi45NzM4NXw3MTMuMDI2fDI4MS4yMjd8Ni45NzM4NQ==)"/>
  <g clip-path="url(#cpNi45NzM4NXw3MTMuMDI2fDI4MS4yMjd8Ni45NzM4NQ==)">
    <text x="585.25" y="246.52" style="font-size: 9.96px; fill: #000; font-family: Liberation Sans;" textLength="64.73px" lengthAdjust="spacingAndGlyphs">GPseudoRank</text>
  </g>
  <polyline points="357.18,211.05 403.79,211.05 403.70,211.05 404.05,211.03 404.39,210.96 404.71,210.84 405.01,210.67 405.28,210.45 405.51,210.19 405.70,209.89 405.84,209.57 405.92,209.24 405.95,208.89 405.95,208.89 405.95,199.13 405.95,199.13 405.92,198.79 405.84,198.45 405.70,198.13 405.51,197.84 405.28,197.58 405.01,197.36 404.71,197.18 404.39,197.06 404.05,196.99 403.79,196.97 357.18,196.97 357.44,196.99 357.10,196.98 356.75,197.02 356.42,197.11 356.10,197.26 355.82,197.46 355.57,197.70 355.36,197.98 355.20,198.29 355.09,198.62 355.03,198.96 355.02,199.13 355.02,208.89 355.03,208.72 355.03,209.06 355.09,209.41 355.20,209.74 355.36,210.04 355.57,210.32 355.82,210.56 356.10,210.76 356.42,210.91 356.75,211.01 357.10,211.05 " style="stroke-width: 0.53; stroke: #0278DD; fill: #A1C6E6;" clip-path="url(#cpNi45NzM4NXw3MTMuMDI2fDI4MS4yMjd8Ni45NzM4NQ==)"/>
  <g clip-path="url(#cpNi45NzM4NXw3MTMuMDI2fDI4MS4yMjd8Ni45NzM4NQ==)">
    <text x="358.62" y="207.45" style="font-size: 9.96px; fill: #000; font-family: Liberation Sans;" textLength="43.72px" lengthAdjust="spacingAndGlyphs">pseudogp</text>
  </g>
  <polyline points="326.31,276.12 365.14,276.12 365.05,276.12 365.40,276.11 365.74,276.04 366.07,275.91 366.37,275.74 366.64,275.52 366.87,275.26 367.05,274.96 367.19,274.64 367.27,274.31 367.30,273.96 367.30,273.96 367.30,264.21 367.30,264.21 367.27,263.86 367.19,263.52 367.05,263.20 366.87,262.91 366.64,262.65 366.37,262.43 366.07,262.25 365.74,262.13 365.40,262.06 365.14,262.05 326.31,262.05 326.57,262.06 326.22,262.05 325.87,262.09 325.54,262.19 325.23,262.34 324.94,262.53 324.69,262.77 324.48,263.05 324.32,263.36 324.21,263.69 324.15,264.03 324.15,264.21 324.15,273.96 324.15,273.79 324.15,274.13 324.21,274.48 324.32,274.81 324.48,275.12 324.69,275.39 324.94,275.63 325.23,275.83 325.54,275.98 325.87,276.08 326.22,276.12 " style="stroke-width: 0.53; stroke: #E8EF04; fill: #E3E6A1;" clip-path="url(#cpNi45NzM4NXw3MTMuMDI2fDI4MS4yMjd8Ni45NzM4NQ==)"/>
  <g clip-path="url(#cpNi45NzM4NXw3MTMuMDI2fDI4MS4yMjd8Ni45NzM4NQ==)">
    <text x="327.75" y="272.52" style="font-size: 9.96px; fill: #000; font-family: Liberation Sans;" textLength="35.95px" lengthAdjust="spacingAndGlyphs">ECLAIR</text>
  </g>
  <polyline points="400.12,89.33 426.24,89.33 426.15,89.32 426.50,89.31 426.84,89.24 427.16,89.12 427.46,88.94 427.73,88.72 427.96,88.46 428.15,88.17 428.28,87.85 428.37,87.51 428.40,87.17 428.40,87.17 428.40,77.41 428.40,77.41 428.37,77.06 428.28,76.73 428.15,76.41 427.96,76.11 427.73,75.85 427.46,75.63 427.16,75.46 426.84,75.34 426.50,75.27 426.24,75.25 400.12,75.25 400.38,75.27 400.03,75.25 399.69,75.29 399.35,75.39 399.04,75.54 398.75,75.74 398.50,75.98 398.30,76.26 398.13,76.56 398.02,76.89 397.97,77.24 397.96,77.41 397.96,87.17 397.97,86.99 397.97,87.34 398.02,87.68 398.13,88.01 398.30,88.32 398.50,88.60 398.75,88.84 399.04,89.04 399.35,89.19 399.69,89.28 400.03,89.32 " style="stroke-width: 0.53; stroke: #0278DD; fill: #A1C6E6;" clip-path="url(#cpNi45NzM4NXw3MTMuMDI2fDI4MS4yMjd8Ni45NzM4NQ==)"/>
  <g clip-path="url(#cpNi45NzM4NXw3MTMuMDI2fDI4MS4yMjd8Ni45NzM4NQ==)">
    <text x="401.56" y="85.73" style="font-size: 9.96px; fill: #000; font-family: Liberation Sans;" textLength="23.24px" lengthAdjust="spacingAndGlyphs">Ouija</text>
  </g>
  <polyline points="266.54,254.22 326.41,254.22 326.32,254.22 326.67,254.21 327.01,254.14 327.34,254.02 327.64,253.84 327.91,253.62 328.14,253.36 328.32,253.07 328.46,252.75 328.54,252.41 328.57,252.06 328.57,252.06 328.57,242.31 328.57,242.31 328.54,241.96 328.46,241.63 328.32,241.31 328.14,241.01 327.91,240.75 327.64,240.53 327.34,240.36 327.01,240.23 326.67,240.17 326.41,240.15 266.54,240.15 266.80,240.17 266.45,240.15 266.11,240.19 265.77,240.29 265.46,240.44 265.17,240.64 264.92,240.88 264.71,241.16 264.55,241.46 264.44,241.79 264.39,242.14 264.38,242.31 264.38,252.06 264.39,251.89 264.39,252.24 264.44,252.58 264.55,252.91 264.71,253.22 264.92,253.50 265.17,253.74 265.46,253.94 265.77,254.08 266.11,254.18 266.45,254.22 " style="stroke-width: 0.53; stroke: #0278DD; fill: #A1C6E6;" clip-path="url(#cpNi45NzM4NXw3MTMuMDI2fDI4MS4yMjd8Ni45NzM4NQ==)"/>
  <g clip-path="url(#cpNi45NzM4NXw3MTMuMDI2fDI4MS4yMjd8Ni45NzM4NQ==)">
    <text x="267.98" y="250.62" style="font-size: 9.96px; fill: #000; font-family: Liberation Sans;" textLength="56.99px" lengthAdjust="spacingAndGlyphs">gpseudotime</text>
  </g>
  <polyline points="377.90,256.17 414.52,256.17 414.43,256.17 414.78,256.16 415.12,256.09 415.44,255.96 415.74,255.79 416.01,255.57 416.24,255.31 416.43,255.02 416.57,254.70 416.65,254.36 416.68,254.01 416.68,254.01 416.68,244.26 416.68,244.26 416.65,243.91 416.57,243.57 416.43,243.25 416.24,242.96 416.01,242.70 415.74,242.48 415.44,242.31 415.12,242.18 414.78,242.11 414.52,242.10 377.90,242.10 378.16,242.11 377.82,242.10 377.47,242.14 377.14,242.24 376.82,242.39 376.54,242.58 376.29,242.82 376.08,243.10 375.92,243.41 375.81,243.74 375.75,244.08 375.74,244.26 375.74,254.01 375.75,253.84 375.75,254.19 375.81,254.53 375.92,254.86 376.08,255.17 376.29,255.44 376.54,255.68 376.82,255.88 377.14,256.03 377.47,256.13 377.82,256.17 " style="stroke-width: 0.53; stroke: #E8EF04; fill: #E3E6A1;" clip-path="url(#cpNi45NzM4NXw3MTMuMDI2fDI4MS4yMjd8Ni45NzM4NQ==)"/>
  <g clip-path="url(#cpNi45NzM4NXw3MTMuMDI2fDI4MS4yMjd8Ni45NzM4NQ==)">
    <text x="379.34" y="252.57" style="font-size: 9.96px; fill: #000; font-family: Liberation Sans;" textLength="33.73px" lengthAdjust="spacingAndGlyphs">TSCAN</text>
  </g>
  <polyline points="622.03,266.21 681.90,266.21 681.81,266.21 682.16,266.20 682.50,266.13 682.83,266.00 683.13,265.83 683.40,265.61 683.63,265.35 683.81,265.06 683.95,264.74 684.03,264.40 684.06,264.05 684.06,264.05 684.06,254.30 684.06,254.30 684.03,253.95 683.95,253.61 683.81,253.29 683.63,253.00 683.40,252.74 683.13,252.52 682.83,252.35 682.50,252.22 682.16,252.15 681.90,252.14 622.03,252.14 622.29,252.15 621.94,252.14 621.60,252.18 621.26,252.28 620.95,252.43 620.66,252.62 620.41,252.86 620.20,253.14 620.04,253.45 619.93,253.78 619.87,254.12 619.87,254.30 619.87,264.05 619.87,263.88 619.87,264.23 619.93,264.57 620.04,264.90 620.20,265.21 620.41,265.48 620.66,265.73 620.95,265.92 621.26,266.07 621.60,266.17 621.94,266.21 " style="stroke-width: 0.53; stroke: #E8EF04; fill: #E3E6A1;" clip-path="url(#cpNi45NzM4NXw3MTMuMDI2fDI4MS4yMjd8Ni45NzM4NQ==)"/>
  <g clip-path="url(#cpNi45NzM4NXw3MTMuMDI2fDI4MS4yMjd8Ni45NzM4NQ==)">
    <text x="623.47" y="262.61" style="font-size: 9.96px; fill: #000; font-family: Liberation Sans;" textLength="56.99px" lengthAdjust="spacingAndGlyphs">Topographer</text>
  </g>
  <defs>
    <clipPath id="cpMHw3MjB8MzI0fDA=">
      <rect x="0.00" y="0.00" width="720.00" height="324.00"/>
    </clipPath>
  </defs>
  <polyline points="6.97,281.23 713.03,281.23 " style="stroke-width: 1.07; stroke-linecap: square;" clip-path="url(#cpMHw3MjB8MzI0fDA=)"/>
  <polyline points="39.07,284.71 39.07,281.23 " style="stroke-width: 1.07; stroke-linecap: butt;" clip-path="url(#cpMHw3MjB8MzI0fDA=)"/>
  <polyline points="190.12,284.71 190.12,281.23 " style="stroke-width: 1.07; stroke-linecap: butt;" clip-path="url(#cpMHw3MjB8MzI0fDA=)"/>
  <polyline points="341.17,284.71 341.17,281.23 " style="stroke-width: 1.07; stroke-linecap: butt;" clip-path="url(#cpMHw3MjB8MzI0fDA=)"/>
  <polyline points="492.64,284.71 492.64,281.23 " style="stroke-width: 1.07; stroke-linecap: butt;" clip-path="url(#cpMHw3MjB8MzI0fDA=)"/>
  <polyline points="643.69,284.71 643.69,281.23 " style="stroke-width: 1.07; stroke-linecap: butt;" clip-path="url(#cpMHw3MjB8MzI0fDA=)"/>
  <g clip-path="url(#cpMHw3MjB8MzI0fDA=)">
    <text x="25.72" y="295.95" style="font-size: 12.00px; font-family: Liberation Sans;" textLength="26.70px" lengthAdjust="spacingAndGlyphs">2014</text>
  </g>
  <g clip-path="url(#cpMHw3MjB8MzI0fDA=)">
    <text x="176.77" y="295.95" style="font-size: 12.00px; font-family: Liberation Sans;" textLength="26.70px" lengthAdjust="spacingAndGlyphs">2015</text>
  </g>
  <g clip-path="url(#cpMHw3MjB8MzI0fDA=)">
    <text x="327.82" y="295.95" style="font-size: 12.00px; font-family: Liberation Sans;" textLength="26.70px" lengthAdjust="spacingAndGlyphs">2016</text>
  </g>
  <g clip-path="url(#cpMHw3MjB8MzI0fDA=)">
    <text x="479.29" y="295.95" style="font-size: 12.00px; font-family: Liberation Sans;" textLength="26.70px" lengthAdjust="spacingAndGlyphs">2017</text>
  </g>
  <g clip-path="url(#cpMHw3MjB8MzI0fDA=)">
    <text x="630.34" y="295.95" style="font-size: 12.00px; font-family: Liberation Sans;" textLength="26.70px" lengthAdjust="spacingAndGlyphs">2018</text>
  </g>
  <g clip-path="url(#cpMHw3MjB8MzI0fDA=)">
    <text x="312.13" y="312.80" style="font-size: 14.00px; font-family: Liberation Sans;" textLength="95.74px" lengthAdjust="spacingAndGlyphs">Publishing date</text>
  </g>
</svg>
