<?xml version="1.0" encoding="UTF-8"?>
<svg xmlns="http://www.w3.org/2000/svg" xmlns:xlink="http://www.w3.org/1999/xlink" viewBox="0 0 720.00 324.00">
  <defs>
    <style type="text/css"><![CDATA[
    line, polyline, path, rect, circle {
      fill: none;
      stroke: #000000;
      stroke-linecap: round;
      stroke-linejoin: round;
      stroke-miterlimit: 10.00;
    }
  ]]></style>
  </defs>
  <line x1="593.20" y1="214.84" x2="593.20" y2="281.21" style="stroke-width: 1.07; stroke: #FF8821;" clip-path="url(#cpNi45NzM4NXw3MTMuMDI2fDI4MS4yMDl8Ni45NzM4NQ==)"/>
  <line x1="85.83" y1="270.87" x2="85.83" y2="281.21" style="stroke-width: 1.07; stroke: #0278DD;" clip-path="url(#cpNi45NzM4NXw3MTMuMDI2fDI4MS4yMDl8Ni45NzM4NQ==)"/>
  <line x1="537.33" y1="190.41" x2="537.33" y2="281.21" style="stroke-width: 1.07; stroke: #E0AB00;" clip-path="url(#cpNi45NzM4NXw3MTMuMDI2fDI4MS4yMDl8Ni45NzM4NQ==)"/>
  <line x1="356.90" y1="275.59" x2="356.90" y2="281.21" style="stroke-width: 1.07; stroke: #3AD1D1;" clip-path="url(#cpNi45NzM4NXw3MTMuMDI2fDI4MS4yMDl8Ni45NzM4NQ==)"/>
  <line x1="200.88" y1="273.86" x2="200.88" y2="281.20" style="stroke-width: 1.07; stroke: #E0AB00;" clip-path="url(#cpNi45NzM4NXw3MTMuMDI2fDI4MS4yMDl8Ni45NzM4NQ==)"/>
  <line x1="487.26" y1="270.78" x2="487.26" y2="281.20" style="stroke-width: 1.07; stroke: #E0AB00;" clip-path="url(#cpNi45NzM4NXw3MTMuMDI2fDI4MS4yMDl8Ni45NzM4NQ==)"/>
  <line x1="413.18" y1="258.47" x2="413.18" y2="281.20" style="stroke-width: 1.07; stroke: #0278DD;" clip-path="url(#cpNi45NzM4NXw3MTMuMDI2fDI4MS4yMDl8Ni45NzM4NQ==)"/>
  <line x1="659.41" y1="253.25" x2="659.41" y2="281.20" style="stroke-width: 1.07; stroke: #E0AB00;" clip-path="url(#cpNi45NzM4NXw3MTMuMDI2fDI4MS4yMDl8Ni45NzM4NQ==)"/>
  <line x1="577.89" y1="150.70" x2="577.89" y2="281.20" style="stroke-width: 1.07; stroke: #0278DD;" clip-path="url(#cpNi45NzM4NXw3MTMuMDI2fDI4MS4yMDl8Ni45NzM4NQ==)"/>
  <line x1="562.57" y1="62.32" x2="562.57" y2="281.20" style="stroke-width: 1.07; stroke: #003D76;" clip-path="url(#cpNi45NzM4NXw3MTMuMDI2fDI4MS4yMDl8Ni45NzM4NQ==)"/>
  <line x1="416.08" y1="143.42" x2="416.08" y2="281.20" style="stroke-width: 1.07; stroke: #E0AB00;" clip-path="url(#cpNi45NzM4NXw3MTMuMDI2fDI4MS4yMDl8Ni45NzM4NQ==)"/>
  <line x1="410.70" y1="120.97" x2="410.70" y2="281.20" style="stroke-width: 1.07; stroke: #0278DD;" clip-path="url(#cpNi45NzM4NXw3MTMuMDI2fDI4MS4yMDl8Ni45NzM4NQ==)"/>
  <line x1="485.60" y1="139.97" x2="485.60" y2="281.20" style="stroke-width: 1.07; stroke: #E0AB00;" clip-path="url(#cpNi45NzM4NXw3MTMuMDI2fDI4MS4yMDl8Ni45NzM4NQ==)"/>
  <line x1="396.21" y1="238.19" x2="396.21" y2="281.20" style="stroke-width: 1.07; stroke: #E0AB00;" clip-path="url(#cpNi45NzM4NXw3MTMuMDI2fDI4MS4yMDl8Ni45NzM4NQ==)"/>
  <line x1="651.96" y1="136.10" x2="651.96" y2="281.20" style="stroke-width: 1.07; stroke: #E0AB00;" clip-path="url(#cpNi45NzM4NXw3MTMuMDI2fDI4MS4yMDl8Ni45NzM4NQ==)"/>
  <line x1="513.74" y1="212.00" x2="513.74" y2="281.20" style="stroke-width: 1.07; stroke: #E0AB00;" clip-path="url(#cpNi45NzM4NXw3MTMuMDI2fDI4MS4yMDl8Ni45NzM4NQ==)"/>
  <line x1="391.66" y1="193.13" x2="391.66" y2="281.20" style="stroke-width: 1.07; stroke: #3AD1D1;" clip-path="url(#cpNi45NzM4NXw3MTMuMDI2fDI4MS4yMDl8Ni45NzM4NQ==)"/>
  <line x1="406.97" y1="215.56" x2="406.97" y2="281.20" style="stroke-width: 1.07; stroke: #7FBE00;" clip-path="url(#cpNi45NzM4NXw3MTMuMDI2fDI4MS4yMDl8Ni45NzM4NQ==)"/>
  <line x1="522.85" y1="169.74" x2="522.85" y2="281.20" style="stroke-width: 1.07; stroke: #7FBE00;" clip-path="url(#cpNi45NzM4NXw3MTMuMDI2fDI4MS4yMDl8Ni45NzM4NQ==)"/>
  <line x1="517.88" y1="119.51" x2="517.88" y2="281.20" style="stroke-width: 1.07; stroke: #7FBE00;" clip-path="url(#cpNi45NzM4NXw3MTMuMDI2fDI4MS4yMDl8Ni45NzM4NQ==)"/>
  <line x1="291.51" y1="254.17" x2="291.51" y2="281.19" style="stroke-width: 1.07; stroke: #0278DD;" clip-path="url(#cpNi45NzM4NXw3MTMuMDI2fDI4MS4yMDl8Ni45NzM4NQ==)"/>
  <line x1="297.72" y1="230.28" x2="297.72" y2="281.19" style="stroke-width: 1.07; stroke: #0278DD;" clip-path="url(#cpNi45NzM4NXw3MTMuMDI2fDI4MS4yMDl8Ni45NzM4NQ==)"/>
  <line x1="564.64" y1="84.26" x2="564.64" y2="281.19" style="stroke-width: 1.07; stroke: #0278DD;" clip-path="url(#cpNi45NzM4NXw3MTMuMDI2fDI4MS4yMDl8Ni45NzM4NQ==)"/>
  <line x1="412.35" y1="65.78" x2="412.35" y2="281.19" style="stroke-width: 1.07; stroke: #E0AB00;" clip-path="url(#cpNi45NzM4NXw3MTMuMDI2fDI4MS4yMDl8Ni45NzM4NQ==)"/>
  <line x1="345.72" y1="251.68" x2="345.72" y2="281.19" style="stroke-width: 1.07; stroke: #E0AB00;" clip-path="url(#cpNi45NzM4NXw3MTMuMDI2fDI4MS4yMDl8Ni45NzM4NQ==)"/>
  <line x1="630.44" y1="263.57" x2="630.44" y2="281.19" style="stroke-width: 1.07; stroke: #0278DD;" clip-path="url(#cpNi45NzM4NXw3MTMuMDI2fDI4MS4yMDl8Ni45NzM4NQ==)"/>
  <line x1="514.16" y1="231.76" x2="514.16" y2="281.19" style="stroke-width: 1.07; stroke: #E0AB00;" clip-path="url(#cpNi45NzM4NXw3MTMuMDI2fDI4MS4yMDl8Ni45NzM4NQ==)"/>
  <line x1="583.68" y1="276.78" x2="583.68" y2="281.19" style="stroke-width: 1.07; stroke: #3AD1D1;" clip-path="url(#cpNi45NzM4NXw3MTMuMDI2fDI4MS4yMDl8Ni45NzM4NQ==)"/>
  <line x1="554.71" y1="234.13" x2="554.71" y2="281.19" style="stroke-width: 1.07; stroke: #0278DD;" clip-path="url(#cpNi45NzM4NXw3MTMuMDI2fDI4MS4yMDl8Ni45NzM4NQ==)"/>
  <line x1="255.51" y1="275.67" x2="255.51" y2="281.19" style="stroke-width: 1.07; stroke: #0278DD;" clip-path="url(#cpNi45NzM4NXw3MTMuMDI2fDI4MS4yMDl8Ni45NzM4NQ==)"/>
  <line x1="435.94" y1="277.61" x2="435.94" y2="281.19" style="stroke-width: 1.07; stroke: #0278DD;" clip-path="url(#cpNi45NzM4NXw3MTMuMDI2fDI4MS4yMDl8Ni45NzM4NQ==)"/>
  <line x1="531.54" y1="98.38" x2="531.54" y2="281.19" style="stroke-width: 1.07; stroke: #E0AB00;" clip-path="url(#cpNi45NzM4NXw3MTMuMDI2fDI4MS4yMDl8Ni45NzM4NQ==)"/>
  <line x1="656.10" y1="157.71" x2="656.10" y2="281.19" style="stroke-width: 1.07; stroke: #FF4237;" clip-path="url(#cpNi45NzM4NXw3MTMuMDI2fDI4MS4yMDl8Ni45NzM4NQ==)"/>
  <line x1="189.29" y1="250.67" x2="189.29" y2="281.19" style="stroke-width: 1.07; stroke: #E0AB00;" clip-path="url(#cpNi45NzM4NXw3MTMuMDI2fDI4MS4yMDl8Ni45NzM4NQ==)"/>
  <line x1="631.69" y1="113.26" x2="631.69" y2="281.19" style="stroke-width: 1.07; stroke: #7FBE00;" clip-path="url(#cpNi45NzM4NXw3MTMuMDI2fDI4MS4yMDl8Ni45NzM4NQ==)"/>
  <line x1="386.28" y1="44.52" x2="386.28" y2="281.19" style="stroke-width: 1.07; stroke: #0278DD;" clip-path="url(#cpNi45NzM4NXw3MTMuMDI2fDI4MS4yMDl8Ni45NzM4NQ==)"/>
  <line x1="542.30" y1="254.67" x2="542.30" y2="281.19" style="stroke-width: 1.07; stroke: #0278DD;" clip-path="url(#cpNi45NzM4NXw3MTMuMDI2fDI4MS4yMDl8Ni45NzM4NQ==)"/>
  <line x1="455.80" y1="234.33" x2="455.80" y2="281.19" style="stroke-width: 1.07; stroke: #0278DD;" clip-path="url(#cpNi45NzM4NXw3MTMuMDI2fDI4MS4yMDl8Ni45NzM4NQ==)"/>
  <line x1="603.96" y1="191.62" x2="603.96" y2="281.19" style="stroke-width: 1.07; stroke: #FF4237;" clip-path="url(#cpNi45NzM4NXw3MTMuMDI2fDI4MS4yMDl8Ni45NzM4NQ==)"/>
  <line x1="562.99" y1="127.50" x2="562.99" y2="281.19" style="stroke-width: 1.07; stroke: #E0AB00;" clip-path="url(#cpNi45NzM4NXw3MTMuMDI2fDI4MS4yMDl8Ni45NzM4NQ==)"/>
  <line x1="624.24" y1="235.54" x2="624.24" y2="281.19" style="stroke-width: 1.07; stroke: #E0AB00;" clip-path="url(#cpNi45NzM4NXw3MTMuMDI2fDI4MS4yMDl8Ni45NzM4NQ==)"/>
  <line x1="616.37" y1="90.68" x2="616.37" y2="281.19" style="stroke-width: 1.07; stroke: #CA0565;" clip-path="url(#cpNi45NzM4NXw3MTMuMDI2fDI4MS4yMDl8Ni45NzM4NQ==)"/>
  <line x1="531.12" y1="150.37" x2="531.12" y2="281.19" style="stroke-width: 1.07; stroke: #E0AB00;" clip-path="url(#cpNi45NzM4NXw3MTMuMDI2fDI4MS4yMDl8Ni45NzM4NQ==)"/>
  <line x1="76.31" y1="249.07" x2="76.31" y2="281.19" style="stroke-width: 1.07; stroke: #E0AB00;" clip-path="url(#cpNi45NzM4NXw3MTMuMDI2fDI4MS4yMDl8Ni45NzM4NQ==)"/>
  <line x1="526.57" y1="75.12" x2="526.57" y2="281.19" style="stroke-width: 1.07; stroke: #E0AB00;" clip-path="url(#cpNi45NzM4NXw3MTMuMDI2fDI4MS4yMDl8Ni45NzM4NQ==)"/>
  <line x1="457.05" y1="88.94" x2="457.05" y2="281.19" style="stroke-width: 1.07; stroke: #0278DD;" clip-path="url(#cpNi45NzM4NXw3MTMuMDI2fDI4MS4yMDl8Ni45NzM4NQ==)"/>
  <line x1="296.48" y1="207.53" x2="296.48" y2="281.19" style="stroke-width: 1.07; stroke: #0278DD;" clip-path="url(#cpNi45NzM4NXw3MTMuMDI2fDI4MS4yMDl8Ni45NzM4NQ==)"/>
  <line x1="510.43" y1="257.43" x2="510.43" y2="281.19" style="stroke-width: 1.07; stroke: #0278DD;" clip-path="url(#cpNi45NzM4NXw3MTMuMDI2fDI4MS4yMDl8Ni45NzM4NQ==)"/>
  <line x1="569.61" y1="24.63" x2="569.61" y2="281.19" style="stroke-width: 1.07; stroke: #0278DD;" clip-path="url(#cpNi45NzM4NXw3MTMuMDI2fDI4MS4yMDl8Ni45NzM4NQ==)"/>
  <line x1="572.09" y1="43.12" x2="572.09" y2="281.19" style="stroke-width: 1.07; stroke: #0278DD;" clip-path="url(#cpNi45NzM4NXw3MTMuMDI2fDI4MS4yMDl8Ni45NzM4NQ==)"/>
  <line x1="580.37" y1="169.40" x2="580.37" y2="281.18" style="stroke-width: 1.07; stroke: #3AD1D1;" clip-path="url(#cpNi45NzM4NXw3MTMuMDI2fDI4MS4yMDl8Ni45NzM4NQ==)"/>
  <line x1="617.62" y1="64.07" x2="617.62" y2="281.18" style="stroke-width: 1.07; stroke: #0278DD;" clip-path="url(#cpNi45NzM4NXw3MTMuMDI2fDI4MS4yMDl8Ni45NzM4NQ==)"/>
  <line x1="579.54" y1="105.02" x2="579.54" y2="281.18" style="stroke-width: 1.07; stroke: #7FBE00;" clip-path="url(#cpNi45NzM4NXw3MTMuMDI2fDI4MS4yMDl8Ni45NzM4NQ==)"/>
  <line x1="466.56" y1="190.01" x2="466.56" y2="281.18" style="stroke-width: 1.07; stroke: #0278DD;" clip-path="url(#cpNi45NzM4NXw3MTMuMDI2fDI4MS4yMDl8Ni45NzM4NQ==)"/>
  <line x1="380.49" y1="99.53" x2="380.49" y2="281.18" style="stroke-width: 1.07; stroke: #0278DD;" clip-path="url(#cpNi45NzM4NXw3MTMuMDI2fDI4MS4yMDl8Ni45NzM4NQ==)"/>
  <line x1="382.14" y1="171.16" x2="382.14" y2="281.18" style="stroke-width: 1.07; stroke: #FF4237;" clip-path="url(#cpNi45NzM4NXw3MTMuMDI2fDI4MS4yMDl8Ni45NzM4NQ==)"/>
  <line x1="658.17" y1="214.03" x2="658.17" y2="281.18" style="stroke-width: 1.07; stroke: #E0AB00;" clip-path="url(#cpNi45NzM4NXw3MTMuMDI2fDI4MS4yMDl8Ni45NzM4NQ==)"/>
  <line x1="434.28" y1="169.47" x2="434.28" y2="281.18" style="stroke-width: 1.07; stroke: #E0AB00;" clip-path="url(#cpNi45NzM4NXw3MTMuMDI2fDI4MS4yMDl8Ni45NzM4NQ==)"/>
  <defs>
    <clipPath id="cpNi45NzM4NXw3MTMuMDI2fDI4MS4yMDl8Ni45NzM4NQ==">
      <rect x="6.97" y="6.97" width="706.05" height="274.24"/>
    </clipPath>
  </defs>
  <polyline points="415.13,169.47 453.43,169.47 453.35,169.47 453.69,169.46 454.03,169.39 454.36,169.27 454.66,169.09 454.93,168.87 455.16,168.61 455.35,168.32 455.48,168.00 455.57,167.66 455.59,167.31 455.59,167.31 455.59,157.58 455.59,157.58 455.57,157.24 455.48,156.90 455.35,156.58 455.16,156.29 454.93,156.02 454.66,155.81 454.36,155.63 454.03,155.51 453.69,155.44 453.43,155.42 415.13,155.42 415.40,155.44 415.05,155.42 414.70,155.47 414.37,155.56 414.05,155.71 413.77,155.91 413.52,156.15 413.31,156.43 413.15,156.74 413.04,157.07 412.98,157.41 412.97,157.58 412.97,167.31 412.98,167.14 412.98,167.49 413.04,167.83 413.15,168.16 413.31,168.47 413.52,168.75 413.77,168.99 414.05,169.18 414.37,169.33 414.70,169.43 415.05,169.47 " style="stroke-width: 0.53; stroke: #E0AB00; fill: #E0AB00;" clip-path="url(#cpNi45NzM4NXw3MTMuMDI2fDI4MS4yMDl8Ni45NzM4NQ==)"/>
  <g clip-path="url(#cpNi45NzM4NXw3MTMuMDI2fDI4MS4yMDl8Ni45NzM4NQ==)">
    <text x="416.57" y="165.87" style="font-size: 9.96px; fill: #FFF; font-family: Liberation Sans;" textLength="35.42px" lengthAdjust="spacingAndGlyphs">cellTree</text>
  </g>
  <polyline points="638.74,214.03 677.60,214.03 677.52,214.03 677.86,214.01 678.20,213.94 678.53,213.82 678.83,213.65 679.10,213.43 679.33,213.17 679.52,212.87 679.65,212.55 679.74,212.21 679.76,211.87 679.76,211.87 679.76,202.14 679.76,202.14 679.74,201.79 679.65,201.45 679.52,201.13 679.33,200.84 679.10,200.58 678.83,200.36 678.53,200.18 678.20,200.06 677.86,199.99 677.60,199.98 638.74,199.98 639.00,199.99 638.65,199.98 638.31,200.02 637.97,200.12 637.66,200.27 637.37,200.46 637.12,200.70 636.91,200.98 636.75,201.29 636.64,201.62 636.59,201.96 636.58,202.14 636.58,211.87 636.59,211.69 636.59,212.04 636.64,212.38 636.75,212.71 636.91,213.02 637.12,213.30 637.37,213.54 637.66,213.74 637.97,213.89 638.31,213.98 638.65,214.03 " style="stroke-width: 0.53; stroke: #E0AB00; fill: #E0AB00;" clip-path="url(#cpNi45NzM4NXw3MTMuMDI2fDI4MS4yMDl8Ni45NzM4NQ==)"/>
  <g clip-path="url(#cpNi45NzM4NXw3MTMuMDI2fDI4MS4yMDl8Ni45NzM4NQ==)">
    <text x="640.18" y="210.43" style="font-size: 9.96px; fill: #FFF; font-family: Liberation Sans;" textLength="35.98px" lengthAdjust="spacingAndGlyphs">scEpath</text>
  </g>
  <polyline points="362.71,171.16 401.57,171.16 401.48,171.16 401.83,171.14 402.17,171.07 402.49,170.95 402.79,170.77 403.06,170.55 403.29,170.29 403.48,170.00 403.62,169.68 403.70,169.34 403.73,169.00 403.73,169.00 403.73,159.27 403.73,159.27 403.70,158.92 403.62,158.58 403.48,158.26 403.29,157.97 403.06,157.71 402.79,157.49 402.49,157.31 402.17,157.19 401.83,157.12 401.57,157.11 362.71,157.11 362.97,157.12 362.63,157.11 362.28,157.15 361.95,157.25 361.63,157.40 361.35,157.59 361.10,157.83 360.89,158.11 360.73,158.42 360.62,158.75 360.56,159.09 360.55,159.27 360.55,169.00 360.56,168.82 360.56,169.17 360.62,169.51 360.73,169.84 360.89,170.15 361.10,170.43 361.35,170.67 361.63,170.87 361.95,171.02 362.28,171.11 362.63,171.16 " style="stroke-width: 0.53; stroke: #FF4237; fill: #FF4237;" clip-path="url(#cpNi45NzM4NXw3MTMuMDI2fDI4MS4yMDl8Ni45NzM4NQ==)"/>
  <g clip-path="url(#cpNi45NzM4NXw3MTMuMDI2fDI4MS4yMDl8Ni45NzM4NQ==)">
    <text x="364.15" y="167.56" style="font-size: 9.96px; fill: #FFF; font-family: Liberation Sans;" textLength="35.97px" lengthAdjust="spacingAndGlyphs">SLICER</text>
  </g>
  <polyline points="357.17,99.53 403.80,99.53 403.71,99.53 404.06,99.52 404.40,99.45 404.73,99.33 405.03,99.15 405.30,98.93 405.53,98.67 405.71,98.38 405.85,98.06 405.93,97.72 405.96,97.37 405.96,97.37 405.96,87.64 405.96,87.64 405.93,87.30 405.85,86.96 405.71,86.64 405.53,86.35 405.30,86.09 405.03,85.87 404.73,85.69 404.40,85.57 404.06,85.50 403.80,85.48 357.17,85.48 357.43,85.50 357.08,85.49 356.74,85.53 356.41,85.62 356.09,85.77 355.80,85.97 355.55,86.21 355.35,86.49 355.18,86.80 355.07,87.13 355.02,87.47 355.01,87.64 355.01,97.37 355.02,97.20 355.02,97.55 355.07,97.89 355.18,98.22 355.35,98.53 355.55,98.81 355.80,99.05 356.09,99.25 356.41,99.39 356.74,99.49 357.08,99.53 " style="stroke-width: 0.53; stroke: #0278DD; fill: #0278DD;" clip-path="url(#cpNi45NzM4NXw3MTMuMDI2fDI4MS4yMDl8Ni45NzM4NQ==)"/>
  <g clip-path="url(#cpNi45NzM4NXw3MTMuMDI2fDI4MS4yMDl8Ni45NzM4NQ==)">
    <text x="358.61" y="95.93" style="font-size: 9.96px; fill: #FFF; font-family: Liberation Sans;" textLength="43.75px" lengthAdjust="spacingAndGlyphs">pseudogp</text>
  </g>
  <polyline points="448.25,190.01 484.88,190.01 484.79,190.01 485.14,189.99 485.48,189.92 485.81,189.80 486.11,189.62 486.38,189.40 486.61,189.14 486.79,188.85 486.93,188.53 487.01,188.19 487.04,187.85 487.04,187.85 487.04,178.12 487.04,178.12 487.01,177.77 486.93,177.43 486.79,177.11 486.61,176.82 486.38,176.56 486.11,176.34 485.81,176.16 485.48,176.04 485.14,175.97 484.88,175.96 448.25,175.96 448.51,175.97 448.16,175.96 447.82,176.00 447.48,176.10 447.17,176.24 446.88,176.44 446.63,176.68 446.42,176.96 446.26,177.27 446.15,177.60 446.10,177.94 446.09,178.12 446.09,187.85 446.10,187.67 446.10,188.02 446.15,188.36 446.26,188.69 446.42,189.00 446.63,189.28 446.88,189.52 447.17,189.72 447.48,189.87 447.82,189.96 448.16,190.01 " style="stroke-width: 0.53; stroke: #0278DD; fill: #0278DD;" clip-path="url(#cpNi45NzM4NXw3MTMuMDI2fDI4MS4yMDl8Ni45NzM4NQ==)"/>
  <g clip-path="url(#cpNi45NzM4NXw3MTMuMDI2fDI4MS4yMDl8Ni45NzM4NQ==)">
    <text x="449.69" y="186.41" style="font-size: 9.96px; fill: #FFF; font-family: Liberation Sans;" textLength="33.75px" lengthAdjust="spacingAndGlyphs">SCENT</text>
  </g>
  <polyline points="568.14,105.02 590.95,105.02 590.86,105.01 591.21,105.00 591.55,104.93 591.87,104.81 592.17,104.63 592.44,104.41 592.67,104.15 592.86,103.86 592.99,103.54 593.08,103.20 593.11,102.86 593.11,102.86 593.11,93.12 593.11,93.12 593.08,92.78 592.99,92.44 592.86,92.12 592.67,91.83 592.44,91.57 592.17,91.35 591.87,91.17 591.55,91.05 591.21,90.98 590.95,90.96 568.14,90.96 568.40,90.98 568.05,90.97 567.71,91.01 567.37,91.10 567.06,91.25 566.77,91.45 566.52,91.69 566.31,91.97 566.15,92.28 566.04,92.61 565.99,92.95 565.98,93.12 565.98,102.86 565.99,102.68 565.99,103.03 566.04,103.37 566.15,103.70 566.31,104.01 566.52,104.29 566.77,104.53 567.06,104.73 567.37,104.88 567.71,104.97 568.05,105.01 " style="stroke-width: 0.53; stroke: #7FBE00; fill: #7FBE00;" clip-path="url(#cpNi45NzM4NXw3MTMuMDI2fDI4MS4yMDl8Ni45NzM4NQ==)"/>
  <g clip-path="url(#cpNi45NzM4NXw3MTMuMDI2fDI4MS4yMDl8Ni45NzM4NQ==)">
    <text x="569.58" y="101.42" style="font-size: 9.96px; fill: #FFF; font-family: Liberation Sans;" textLength="19.93px" lengthAdjust="spacingAndGlyphs">PBA</text>
  </g>
  <polyline points="583.79,64.07 651.44,64.07 651.35,64.07 651.70,64.05 652.04,63.98 652.37,63.86 652.67,63.69 652.94,63.47 653.17,63.21 653.35,62.91 653.49,62.59 653.57,62.25 653.60,61.91 653.60,61.91 653.60,52.18 653.60,52.18 653.57,51.83 653.49,51.49 653.35,51.17 653.17,50.88 652.94,50.62 652.67,50.40 652.37,50.23 652.04,50.10 651.70,50.03 651.44,50.02 583.79,50.02 584.05,50.03 583.70,50.02 583.36,50.06 583.02,50.16 582.71,50.31 582.42,50.50 582.17,50.74 581.97,51.02 581.80,51.33 581.69,51.66 581.64,52.00 581.63,52.18 581.63,61.91 581.64,61.73 581.64,62.08 581.69,62.43 581.80,62.75 581.97,63.06 582.17,63.34 582.42,63.58 582.71,63.78 583.02,63.93 583.36,64.02 583.70,64.07 " style="stroke-width: 0.53; stroke: #0278DD; fill: #0278DD;" clip-path="url(#cpNi45NzM4NXw3MTMuMDI2fDI4MS4yMDl8Ni45NzM4NQ==)"/>
  <g clip-path="url(#cpNi45NzM4NXw3MTMuMDI2fDI4MS4yMDl8Ni45NzM4NQ==)">
    <text x="585.23" y="60.47" style="font-size: 9.96px; fill: #FFF; font-family: Liberation Sans;" textLength="64.77px" lengthAdjust="spacingAndGlyphs">GPseudoRank</text>
  </g>
  <polyline points="568.41,169.40 592.32,169.40 592.24,169.40 592.59,169.39 592.93,169.32 593.25,169.19 593.55,169.02 593.82,168.80 594.05,168.54 594.24,168.25 594.37,167.93 594.46,167.59 594.48,167.24 594.48,167.24 594.48,157.51 594.48,157.51 594.46,157.17 594.37,156.83 594.24,156.51 594.05,156.21 593.82,155.95 593.55,155.73 593.25,155.56 592.93,155.44 592.59,155.37 592.32,155.35 568.41,155.35 568.67,155.37 568.33,155.35 567.98,155.40 567.65,155.49 567.33,155.64 567.05,155.84 566.80,156.08 566.59,156.36 566.43,156.67 566.32,156.99 566.26,157.34 566.25,157.51 566.25,167.24 566.26,167.07 566.26,167.42 566.32,167.76 566.43,168.09 566.59,168.40 566.80,168.68 567.05,168.92 567.33,169.11 567.65,169.26 567.98,169.36 568.33,169.40 " style="stroke-width: 0.53; stroke: #3AD1D1; fill: #3AD1D1;" clip-path="url(#cpNi45NzM4NXw3MTMuMDI2fDI4MS4yMDl8Ni45NzM4NQ==)"/>
  <g clip-path="url(#cpNi45NzM4NXw3MTMuMDI2fDI4MS4yMDl8Ni45NzM4NQ==)">
    <text x="569.85" y="165.80" style="font-size: 9.96px; fill: #FFF; font-family: Liberation Sans;" textLength="21.03px" lengthAdjust="spacingAndGlyphs">BGP</text>
  </g>
  <polyline points="550.44,43.12 593.74,43.12 593.66,43.11 594.00,43.10 594.35,43.03 594.67,42.91 594.97,42.73 595.24,42.51 595.47,42.25 595.66,41.96 595.79,41.64 595.88,41.30 595.90,40.96 595.90,40.96 595.90,31.22 595.90,31.22 595.88,30.88 595.79,30.54 595.66,30.22 595.47,29.93 595.24,29.67 594.97,29.45 594.67,29.27 594.35,29.15 594.00,29.08 593.74,29.06 550.44,29.06 550.70,29.08 550.35,29.07 550.01,29.11 549.68,29.21 549.36,29.35 549.08,29.55 548.83,29.79 548.62,30.07 548.45,30.38 548.34,30.71 548.29,31.05 548.28,31.22 548.28,40.96 548.29,40.78 548.29,41.13 548.34,41.47 548.45,41.80 548.62,42.11 548.83,42.39 549.08,42.63 549.36,42.83 549.68,42.98 550.01,43.07 550.35,43.11 " style="stroke-width: 0.53; stroke: #0278DD; fill: #0278DD;" clip-path="url(#cpNi45NzM4NXw3MTMuMDI2fDI4MS4yMDl8Ni45NzM4NQ==)"/>
  <g clip-path="url(#cpNi45NzM4NXw3MTMuMDI2fDI4MS4yMDl8Ni45NzM4NQ==)">
    <text x="551.88" y="39.52" style="font-size: 9.96px; fill: #FFF; font-family: Liberation Sans;" textLength="40.42px" lengthAdjust="spacingAndGlyphs">HopLand</text>
  </g>
  <polyline points="543.53,24.63 595.69,24.63 595.60,24.62 595.95,24.61 596.29,24.54 596.62,24.42 596.92,24.24 597.19,24.02 597.42,23.76 597.60,23.47 597.74,23.15 597.82,22.81 597.85,22.47 597.85,22.47 597.85,12.73 597.85,12.73 597.82,12.39 597.74,12.05 597.60,11.73 597.42,11.44 597.19,11.18 596.92,10.96 596.62,10.78 596.29,10.66 595.95,10.59 595.69,10.57 543.53,10.57 543.79,10.59 543.44,10.58 543.10,10.62 542.76,10.71 542.45,10.86 542.16,11.06 541.91,11.30 541.70,11.58 541.54,11.89 541.43,12.22 541.38,12.56 541.37,12.73 541.37,22.47 541.38,22.29 541.38,22.64 541.43,22.98 541.54,23.31 541.70,23.62 541.91,23.90 542.16,24.14 542.45,24.34 542.76,24.48 543.10,24.58 543.44,24.62 " style="stroke-width: 0.53; stroke: #0278DD; fill: #0278DD;" clip-path="url(#cpNi45NzM4NXw3MTMuMDI2fDI4MS4yMDl8Ni45NzM4NQ==)"/>
  <g clip-path="url(#cpNi45NzM4NXw3MTMuMDI2fDI4MS4yMDl8Ni45NzM4NQ==)">
    <text x="544.97" y="21.03" style="font-size: 9.96px; fill: #FFF; font-family: Liberation Sans;" textLength="49.28px" lengthAdjust="spacingAndGlyphs">PhenoPath</text>
  </g>
  <polyline points="491.56,257.43 529.31,257.43 529.22,257.43 529.57,257.41 529.91,257.34 530.23,257.22 530.53,257.05 530.80,256.83 531.03,256.57 531.22,256.27 531.35,255.95 531.44,255.62 531.47,255.27 531.47,255.27 531.47,245.54 531.47,245.54 531.44,245.19 531.35,244.85 531.22,244.53 531.03,244.24 530.80,243.98 530.53,243.76 530.23,243.59 529.91,243.46 529.57,243.39 529.31,243.38 491.56,243.38 491.82,243.39 491.47,243.38 491.12,243.42 490.79,243.52 490.48,243.67 490.19,243.86 489.94,244.11 489.73,244.38 489.57,244.69 489.46,245.02 489.40,245.36 489.40,245.54 489.40,255.27 489.40,255.10 489.40,255.44 489.46,255.79 489.57,256.12 489.73,256.42 489.94,256.70 490.19,256.94 490.48,257.14 490.79,257.29 491.12,257.39 491.47,257.43 " style="stroke-width: 0.53; stroke: #0278DD; fill: #0278DD;" clip-path="url(#cpNi45NzM4NXw3MTMuMDI2fDI4MS4yMDl8Ni45NzM4NQ==)"/>
  <g clip-path="url(#cpNi45NzM4NXw3MTMuMDI2fDI4MS4yMDl8Ni45NzM4NQ==)">
    <text x="493.00" y="253.83" style="font-size: 9.96px; fill: #FFF; font-family: Liberation Sans;" textLength="34.87px" lengthAdjust="spacingAndGlyphs">topslam</text>
  </g>
  <polyline points="266.52,207.53 326.43,207.53 326.34,207.52 326.69,207.51 327.03,207.44 327.35,207.32 327.65,207.14 327.92,206.92 328.15,206.66 328.34,206.37 328.48,206.05 328.56,205.71 328.59,205.37 328.59,205.37 328.59,195.64 328.59,195.64 328.56,195.29 328.48,194.95 328.34,194.63 328.15,194.34 327.92,194.08 327.65,193.86 327.35,193.68 327.03,193.56 326.69,193.49 326.43,193.48 266.52,193.48 266.78,193.49 266.44,193.48 266.09,193.52 265.76,193.62 265.44,193.76 265.16,193.96 264.91,194.20 264.70,194.48 264.54,194.79 264.43,195.12 264.37,195.46 264.36,195.64 264.36,205.37 264.37,205.19 264.37,205.54 264.43,205.88 264.54,206.21 264.70,206.52 264.91,206.80 265.16,207.04 265.44,207.24 265.76,207.39 266.09,207.48 266.44,207.52 " style="stroke-width: 0.53; stroke: #0278DD; fill: #0278DD;" clip-path="url(#cpNi45NzM4NXw3MTMuMDI2fDI4MS4yMDl8Ni45NzM4NQ==)"/>
  <g clip-path="url(#cpNi45NzM4NXw3MTMuMDI2fDI4MS4yMDl8Ni45NzM4NQ==)">
    <text x="267.96" y="203.93" style="font-size: 9.96px; fill: #FFF; font-family: Liberation Sans;" textLength="57.02px" lengthAdjust="spacingAndGlyphs">gpseudotime</text>
  </g>
  <polyline points="429.60,88.94 484.49,88.94 484.41,88.94 484.75,88.93 485.09,88.86 485.42,88.73 485.72,88.56 485.99,88.34 486.22,88.08 486.41,87.79 486.54,87.47 486.62,87.13 486.65,86.78 486.65,86.78 486.65,77.05 486.65,77.05 486.62,76.71 486.54,76.37 486.41,76.05 486.22,75.75 485.99,75.49 485.72,75.27 485.42,75.10 485.09,74.98 484.75,74.91 484.49,74.89 429.60,74.89 429.86,74.91 429.51,74.89 429.17,74.94 428.83,75.03 428.52,75.18 428.23,75.38 427.98,75.62 427.77,75.90 427.61,76.21 427.50,76.53 427.45,76.88 427.44,77.05 427.44,86.78 427.45,86.61 427.45,86.96 427.50,87.30 427.61,87.63 427.77,87.94 427.98,88.22 428.23,88.46 428.52,88.65 428.83,88.80 429.17,88.90 429.51,88.94 " style="stroke-width: 0.53; stroke: #0278DD; fill: #0278DD;" clip-path="url(#cpNi45NzM4NXw3MTMuMDI2fDI4MS4yMDl8Ni45NzM4NQ==)"/>
  <g clip-path="url(#cpNi45NzM4NXw3MTMuMDI2fDI4MS4yMDl8Ni45NzM4NQ==)">
    <text x="431.04" y="85.34" style="font-size: 9.96px; fill: #FFF; font-family: Liberation Sans;" textLength="52.01px" lengthAdjust="spacingAndGlyphs">SCORPIUS</text>
  </g>
  <polyline points="508.53,75.12 544.61,75.12 544.52,75.11 544.87,75.10 545.21,75.03 545.54,74.91 545.84,74.73 546.11,74.51 546.34,74.25 546.52,73.96 546.66,73.64 546.74,73.30 546.77,72.96 546.77,72.96 546.77,63.22 546.77,63.22 546.74,62.88 546.66,62.54 546.52,62.22 546.34,61.93 546.11,61.67 545.84,61.45 545.54,61.27 545.21,61.15 544.87,61.08 544.61,61.06 508.53,61.06 508.79,61.08 508.44,61.07 508.10,61.11 507.76,61.20 507.45,61.35 507.16,61.55 506.91,61.79 506.70,62.07 506.54,62.38 506.43,62.71 506.38,63.05 506.37,63.22 506.37,72.96 506.38,72.78 506.38,73.13 506.43,73.47 506.54,73.80 506.70,74.11 506.91,74.39 507.16,74.63 507.45,74.83 507.76,74.98 508.10,75.07 508.44,75.11 " style="stroke-width: 0.53; stroke: #E0AB00; fill: #E0AB00;" clip-path="url(#cpNi45NzM4NXw3MTMuMDI2fDI4MS4yMDl8Ni45NzM4NQ==)"/>
  <g clip-path="url(#cpNi45NzM4NXw3MTMuMDI2fDI4MS4yMDl8Ni45NzM4NQ==)">
    <text x="509.97" y="71.52" style="font-size: 9.96px; fill: #FFF; font-family: Liberation Sans;" textLength="33.20px" lengthAdjust="spacingAndGlyphs">PHATE</text>
  </g>
  <polyline points="51.90,249.07 100.73,249.07 100.64,249.07 100.99,249.05 101.33,248.98 101.65,248.86 101.95,248.69 102.22,248.47 102.45,248.21 102.64,247.91 102.77,247.59 102.86,247.26 102.89,246.91 102.89,246.91 102.89,237.18 102.89,237.18 102.86,236.83 102.77,236.49 102.64,236.17 102.45,235.88 102.22,235.62 101.95,235.40 101.65,235.23 101.33,235.10 100.99,235.03 100.73,235.02 51.90,235.02 52.16,235.03 51.81,235.02 51.47,235.06 51.13,235.16 50.82,235.31 50.53,235.50 50.28,235.74 50.07,236.02 49.91,236.33 49.80,236.66 49.75,237.00 49.74,237.18 49.74,246.91 49.75,246.73 49.75,247.08 49.80,247.43 49.91,247.76 50.07,248.06 50.28,248.34 50.53,248.58 50.82,248.78 51.13,248.93 51.47,249.02 51.81,249.07 " style="stroke-width: 0.53; stroke: #E0AB00; fill: #E0AB00;" clip-path="url(#cpNi45NzM4NXw3MTMuMDI2fDI4MS4yMDl8Ni45NzM4NQ==)"/>
  <g clip-path="url(#cpNi45NzM4NXw3MTMuMDI2fDI4MS4yMDl8Ni45NzM4NQ==)">
    <text x="53.34" y="245.47" style="font-size: 9.96px; fill: #FFF; font-family: Liberation Sans;" textLength="45.95px" lengthAdjust="spacingAndGlyphs">Monocle 1</text>
  </g>
  <polyline points="515.02,150.37 547.23,150.37 547.14,150.36 547.49,150.35 547.83,150.28 548.15,150.16 548.45,149.98 548.72,149.76 548.95,149.50 549.14,149.21 549.27,148.89 549.36,148.55 549.39,148.21 549.39,148.21 549.39,138.48 549.39,138.48 549.36,138.13 549.27,137.79 549.14,137.47 548.95,137.18 548.72,136.92 548.45,136.70 548.15,136.52 547.83,136.40 547.49,136.33 547.23,136.32 515.02,136.32 515.28,136.33 514.93,136.32 514.59,136.36 514.25,136.46 513.94,136.60 513.65,136.80 513.40,137.04 513.19,137.32 513.03,137.63 512.92,137.96 512.87,138.30 512.86,138.48 512.86,148.21 512.87,148.03 512.87,148.38 512.92,148.72 513.03,149.05 513.19,149.36 513.40,149.64 513.65,149.88 513.94,150.08 514.25,150.23 514.59,150.32 514.93,150.36 " style="stroke-width: 0.53; stroke: #E0AB00; fill: #E0AB00;" clip-path="url(#cpNi45NzM4NXw3MTMuMDI2fDI4MS4yMDl8Ni45NzM4NQ==)"/>
  <g clip-path="url(#cpNi45NzM4NXw3MTMuMDI2fDI4MS4yMDl8Ni45NzM4NQ==)">
    <text x="516.46" y="146.77" style="font-size: 9.96px; fill: #FFF; font-family: Liberation Sans;" textLength="29.33px" lengthAdjust="spacingAndGlyphs">TASIC</text>
  </g>
  <polyline points="604.42,90.68 628.33,90.68 628.24,90.68 628.59,90.67 628.93,90.60 629.26,90.47 629.56,90.30 629.83,90.08 630.06,89.82 630.24,89.53 630.38,89.21 630.46,88.87 630.49,88.52 630.49,88.52 630.49,78.79 630.49,78.79 630.46,78.45 630.38,78.11 630.24,77.79 630.06,77.49 629.83,77.23 629.56,77.01 629.26,76.84 628.93,76.72 628.59,76.65 628.33,76.63 604.42,76.63 604.68,76.65 604.33,76.63 603.99,76.68 603.65,76.77 603.34,76.92 603.05,77.12 602.80,77.36 602.59,77.64 602.43,77.95 602.32,78.27 602.27,78.62 602.26,78.79 602.26,88.52 602.27,88.35 602.27,88.70 602.32,89.04 602.43,89.37 602.59,89.68 602.80,89.96 603.05,90.20 603.34,90.39 603.65,90.54 603.99,90.64 604.33,90.68 " style="stroke-width: 0.53; stroke: #CA0565; fill: #CA0565;" clip-path="url(#cpNi45NzM4NXw3MTMuMDI2fDI4MS4yMDl8Ni45NzM4NQ==)"/>
  <g clip-path="url(#cpNi45NzM4NXw3MTMuMDI2fDI4MS4yMDl8Ni45NzM4NQ==)">
    <text x="605.86" y="87.08" style="font-size: 9.96px; fill: #FFF; font-family: Liberation Sans;" textLength="21.03px" lengthAdjust="spacingAndGlyphs">AGA</text>
  </g>
  <polyline points="602.04,235.54 646.43,235.54 646.35,235.54 646.70,235.52 647.04,235.45 647.36,235.33 647.66,235.16 647.93,234.94 648.16,234.68 648.35,234.38 648.48,234.06 648.57,233.72 648.59,233.38 648.59,233.38 648.59,223.65 648.59,223.65 648.57,223.30 648.48,222.96 648.35,222.64 648.16,222.35 647.93,222.09 647.66,221.87 647.36,221.70 647.04,221.57 646.70,221.50 646.43,221.49 602.04,221.49 602.30,221.50 601.95,221.49 601.61,221.53 601.27,221.63 600.96,221.78 600.67,221.97 600.42,222.21 600.21,222.49 600.05,222.80 599.94,223.13 599.89,223.47 599.88,223.65 599.88,233.38 599.89,233.20 599.89,233.55 599.94,233.89 600.05,234.22 600.21,234.53 600.42,234.81 600.67,235.05 600.96,235.25 601.27,235.40 601.61,235.49 601.95,235.54 " style="stroke-width: 0.53; stroke: #E0AB00; fill: #E0AB00;" clip-path="url(#cpNi45NzM4NXw3MTMuMDI2fDI4MS4yMDl8Ni45NzM4NQ==)"/>
  <g clip-path="url(#cpNi45NzM4NXw3MTMuMDI2fDI4MS4yMDl8Ni45NzM4NQ==)">
    <text x="603.48" y="231.94" style="font-size: 9.96px; fill: #FFF; font-family: Liberation Sans;" textLength="41.52px" lengthAdjust="spacingAndGlyphs">p-Creode</text>
  </g>
  <polyline points="544.40,127.50 581.58,127.50 581.49,127.50 581.84,127.48 582.18,127.41 582.51,127.29 582.81,127.12 583.08,126.90 583.31,126.64 583.49,126.34 583.63,126.02 583.71,125.69 583.74,125.34 583.74,125.34 583.74,115.61 583.74,115.61 583.71,115.26 583.63,114.92 583.49,114.60 583.31,114.31 583.08,114.05 582.81,113.83 582.51,113.66 582.18,113.53 581.84,113.46 581.58,113.45 544.40,113.45 544.66,113.46 544.31,113.45 543.96,113.49 543.63,113.59 543.32,113.74 543.03,113.93 542.78,114.18 542.57,114.45 542.41,114.76 542.30,115.09 542.24,115.43 542.24,115.61 542.24,125.34 542.24,125.17 542.24,125.51 542.30,125.86 542.41,126.19 542.57,126.49 542.78,126.77 543.03,127.01 543.32,127.21 543.63,127.36 543.96,127.46 544.31,127.50 " style="stroke-width: 0.53; stroke: #E0AB00; fill: #E0AB00;" clip-path="url(#cpNi45NzM4NXw3MTMuMDI2fDI4MS4yMDl8Ni45NzM4NQ==)"/>
  <g clip-path="url(#cpNi45NzM4NXw3MTMuMDI2fDI4MS4yMDl8Ni45NzM4NQ==)">
    <text x="545.84" y="123.90" style="font-size: 9.96px; fill: #FFF; font-family: Liberation Sans;" textLength="34.31px" lengthAdjust="spacingAndGlyphs">FORKS</text>
  </g>
  <polyline points="559.37,191.62 648.55,191.62 648.46,191.62 648.81,191.60 649.15,191.53 649.47,191.41 649.77,191.23 650.04,191.02 650.27,190.75 650.46,190.46 650.60,190.14 650.68,189.80 650.71,189.46 650.71,189.46 650.71,179.73 650.71,179.73 650.68,179.38 650.60,179.04 650.46,178.72 650.27,178.43 650.04,178.17 649.77,177.95 649.47,177.77 649.15,177.65 648.81,177.58 648.55,177.57 559.37,177.57 559.63,177.58 559.28,177.57 558.94,177.61 558.61,177.71 558.29,177.86 558.00,178.05 557.75,178.29 557.55,178.57 557.38,178.88 557.27,179.21 557.22,179.55 557.21,179.73 557.21,189.46 557.22,189.28 557.22,189.63 557.27,189.97 557.38,190.30 557.55,190.61 557.75,190.89 558.00,191.13 558.29,191.33 558.61,191.48 558.94,191.57 559.28,191.62 " style="stroke-width: 0.53; stroke: #FF4237; fill: #FF4237;" clip-path="url(#cpNi45NzM4NXw3MTMuMDI2fDI4MS4yMDl8Ni45NzM4NQ==)"/>
  <g clip-path="url(#cpNi45NzM4NXw3MTMuMDI2fDI4MS4yMDl8Ni45NzM4NQ==)">
    <text x="560.81" y="188.02" style="font-size: 9.96px; fill: #FFF; font-family: Liberation Sans;" textLength="86.30px" lengthAdjust="spacingAndGlyphs">WADDINGTON-OT</text>
  </g>
  <polyline points="430.57,234.33 481.03,234.33 480.95,234.33 481.29,234.31 481.63,234.24 481.96,234.12 482.26,233.95 482.53,233.73 482.76,233.47 482.95,233.17 483.08,232.85 483.17,232.51 483.19,232.17 483.19,232.17 483.19,222.44 483.19,222.44 483.17,222.09 483.08,221.75 482.95,221.43 482.76,221.14 482.53,220.88 482.26,220.66 481.96,220.49 481.63,220.36 481.29,220.29 481.03,220.28 430.57,220.28 430.83,220.29 430.49,220.28 430.14,220.32 429.81,220.42 429.49,220.57 429.21,220.76 428.96,221.00 428.75,221.28 428.59,221.59 428.48,221.92 428.42,222.26 428.41,222.44 428.41,232.17 428.42,231.99 428.42,232.34 428.48,232.69 428.59,233.01 428.75,233.32 428.96,233.60 429.21,233.84 429.49,234.04 429.81,234.19 430.14,234.28 430.49,234.33 " style="stroke-width: 0.53; stroke: #0278DD; fill: #0278DD;" clip-path="url(#cpNi45NzM4NXw3MTMuMDI2fDI4MS4yMDl8Ni45NzM4NQ==)"/>
  <g clip-path="url(#cpNi45NzM4NXw3MTMuMDI2fDI4MS4yMDl8Ni45NzM4NQ==)">
    <text x="432.01" y="230.73" style="font-size: 9.96px; fill: #FFF; font-family: Liberation Sans;" textLength="47.58px" lengthAdjust="spacingAndGlyphs">SCIMITAR</text>
  </g>
  <polyline points="525.92,254.67 558.67,254.67 558.59,254.67 558.93,254.66 559.28,254.59 559.60,254.46 559.90,254.29 560.17,254.07 560.40,253.81 560.59,253.52 560.72,253.20 560.81,252.86 560.83,252.51 560.83,252.51 560.83,242.78 560.83,242.78 560.81,242.43 560.72,242.10 560.59,241.78 560.40,241.48 560.17,241.22 559.90,241.00 559.60,240.83 559.28,240.71 558.93,240.64 558.67,240.62 525.92,240.62 526.18,240.64 525.83,240.62 525.49,240.66 525.15,240.76 524.84,240.91 524.55,241.11 524.30,241.35 524.09,241.63 523.93,241.93 523.82,242.26 523.77,242.61 523.76,242.78 523.76,252.51 523.77,252.34 523.77,252.69 523.82,253.03 523.93,253.36 524.09,253.67 524.30,253.94 524.55,254.18 524.84,254.38 525.15,254.53 525.49,254.63 525.83,254.67 " style="stroke-width: 0.53; stroke: #0278DD; fill: #0278DD;" clip-path="url(#cpNi45NzM4NXw3MTMuMDI2fDI4MS4yMDl8Ni45NzM4NQ==)"/>
  <g clip-path="url(#cpNi45NzM4NXw3MTMuMDI2fDI4MS4yMDl8Ni45NzM4NQ==)">
    <text x="527.36" y="251.07" style="font-size: 9.96px; fill: #FFF; font-family: Liberation Sans;" textLength="29.88px" lengthAdjust="spacingAndGlyphs">scTDA</text>
  </g>
  <polyline points="372.94,44.52 399.62,44.52 399.53,44.52 399.88,44.51 400.22,44.44 400.54,44.31 400.84,44.14 401.11,43.92 401.34,43.66 401.53,43.37 401.67,43.05 401.75,42.71 401.78,42.36 401.78,42.36 401.78,32.63 401.78,32.63 401.75,32.28 401.67,31.95 401.53,31.63 401.34,31.33 401.11,31.07 400.84,30.85 400.54,30.68 400.22,30.56 399.88,30.49 399.62,30.47 372.94,30.47 373.20,30.49 372.85,30.47 372.51,30.51 372.17,30.61 371.86,30.76 371.57,30.96 371.32,31.20 371.11,31.48 370.95,31.78 370.84,32.11 370.79,32.46 370.78,32.63 370.78,42.36 370.79,42.19 370.79,42.54 370.84,42.88 370.95,43.21 371.11,43.52 371.32,43.79 371.57,44.03 371.86,44.23 372.17,44.38 372.51,44.48 372.85,44.52 " style="stroke-width: 0.53; stroke: #0278DD; fill: #0278DD;" clip-path="url(#cpNi45NzM4NXw3MTMuMDI2fDI4MS4yMDl8Ni45NzM4NQ==)"/>
  <g clip-path="url(#cpNi45NzM4NXw3MTMuMDI2fDI4MS4yMDl8Ni45NzM4NQ==)">
    <text x="374.38" y="40.92" style="font-size: 9.96px; fill: #FFF; font-family: Liberation Sans;" textLength="23.80px" lengthAdjust="spacingAndGlyphs">SCell</text>
  </g>
  <polyline points="607.83,113.26 655.54,113.26 655.45,113.26 655.80,113.25 656.14,113.18 656.47,113.06 656.77,112.88 657.04,112.66 657.27,112.40 657.45,112.11 657.59,111.79 657.67,111.45 657.70,111.10 657.70,111.10 657.70,101.37 657.70,101.37 657.67,101.03 657.59,100.69 657.45,100.37 657.27,100.08 657.04,99.82 656.77,99.60 656.47,99.42 656.14,99.30 655.80,99.23 655.54,99.21 607.83,99.21 608.09,99.23 607.75,99.21 607.40,99.26 607.07,99.35 606.75,99.50 606.47,99.70 606.22,99.94 606.01,100.22 605.84,100.53 605.73,100.86 605.68,101.20 605.67,101.37 605.67,111.10 605.68,110.93 605.68,111.28 605.73,111.62 605.84,111.95 606.01,112.26 606.22,112.54 606.47,112.78 606.75,112.97 607.07,113.12 607.40,113.22 607.75,113.26 " style="stroke-width: 0.53; stroke: #7FBE00; fill: #7FBE00;" clip-path="url(#cpNi45NzM4NXw3MTMuMDI2fDI4MS4yMDl8Ni45NzM4NQ==)"/>
  <g clip-path="url(#cpNi45NzM4NXw3MTMuMDI2fDI4MS4yMDl8Ni45NzM4NQ==)">
    <text x="609.27" y="109.66" style="font-size: 9.96px; fill: #FFF; font-family: Liberation Sans;" textLength="44.83px" lengthAdjust="spacingAndGlyphs">GrandPrix</text>
  </g>
  <polyline points="170.70,250.67 207.89,250.67 207.80,250.67 208.15,250.66 208.49,250.59 208.81,250.46 209.11,250.29 209.38,250.07 209.61,249.81 209.80,249.51 209.93,249.19 210.02,248.86 210.05,248.51 210.05,248.51 210.05,238.78 210.05,238.78 210.02,238.43 209.93,238.10 209.80,237.78 209.61,237.48 209.38,237.22 209.11,237.00 208.81,236.83 208.49,236.70 208.15,236.64 207.89,236.62 170.70,236.62 170.96,236.64 170.61,236.62 170.26,236.66 169.93,236.76 169.62,236.91 169.33,237.11 169.08,237.35 168.87,237.63 168.71,237.93 168.60,238.26 168.54,238.61 168.54,238.78 168.54,248.51 168.54,248.34 168.54,248.68 168.60,249.03 168.71,249.36 168.87,249.67 169.08,249.94 169.33,250.18 169.62,250.38 169.93,250.53 170.26,250.63 170.61,250.67 " style="stroke-width: 0.53; stroke: #E0AB00; fill: #E0AB00;" clip-path="url(#cpNi45NzM4NXw3MTMuMDI2fDI4MS4yMDl8Ni45NzM4NQ==)"/>
  <g clip-path="url(#cpNi45NzM4NXw3MTMuMDI2fDI4MS4yMDl8Ni45NzM4NQ==)">
    <text x="172.14" y="247.07" style="font-size: 9.96px; fill: #FFF; font-family: Liberation Sans;" textLength="34.31px" lengthAdjust="spacingAndGlyphs">SCUBA</text>
  </g>
  <polyline points="633.91,157.71 678.30,157.71 678.21,157.71 678.56,157.69 678.90,157.63 679.22,157.50 679.52,157.33 679.79,157.11 680.02,156.85 680.21,156.55 680.34,156.23 680.43,155.90 680.46,155.55 680.46,155.55 680.46,145.82 680.46,145.82 680.43,145.47 680.34,145.14 680.21,144.82 680.02,144.52 679.79,144.26 679.52,144.04 679.22,143.87 678.90,143.74 678.56,143.68 678.30,143.66 633.91,143.66 634.17,143.68 633.82,143.66 633.48,143.70 633.14,143.80 632.83,143.95 632.54,144.15 632.29,144.39 632.08,144.66 631.92,144.97 631.81,145.30 631.76,145.65 631.75,145.82 631.75,155.55 631.76,155.38 631.76,155.72 631.81,156.07 631.92,156.40 632.08,156.71 632.29,156.98 632.54,157.22 632.83,157.42 633.14,157.57 633.48,157.67 633.82,157.71 " style="stroke-width: 0.53; stroke: #FF4237; fill: #FF4237;" clip-path="url(#cpNi45NzM4NXw3MTMuMDI2fDI4MS4yMDl8Ni45NzM4NQ==)"/>
  <g clip-path="url(#cpNi45NzM4NXw3MTMuMDI2fDI4MS4yMDl8Ni45NzM4NQ==)">
    <text x="635.35" y="154.11" style="font-size: 9.96px; fill: #FFF; font-family: Liberation Sans;" textLength="41.51px" lengthAdjust="spacingAndGlyphs">CALISTA</text>
  </g>
  <polyline points="511.84,98.38 551.24,98.38 551.15,98.37 551.50,98.36 551.84,98.29 552.16,98.17 552.46,97.99 552.73,97.77 552.96,97.51 553.15,97.22 553.28,96.90 553.37,96.56 553.40,96.22 553.40,96.22 553.40,86.48 553.40,86.48 553.37,86.14 553.28,85.80 553.15,85.48 552.96,85.19 552.73,84.93 552.46,84.71 552.16,84.53 551.84,84.41 551.50,84.34 551.24,84.32 511.84,84.32 512.10,84.34 511.75,84.33 511.41,84.37 511.07,84.46 510.76,84.61 510.47,84.81 510.22,85.05 510.01,85.33 509.85,85.64 509.74,85.97 509.68,86.31 509.68,86.48 509.68,96.22 509.68,96.04 509.68,96.39 509.74,96.73 509.85,97.06 510.01,97.37 510.22,97.65 510.47,97.89 510.76,98.09 511.07,98.24 511.41,98.33 511.75,98.37 " style="stroke-width: 0.53; stroke: #E0AB00; fill: #E0AB00;" clip-path="url(#cpNi45NzM4NXw3MTMuMDI2fDI4MS4yMDl8Ni45NzM4NQ==)"/>
  <g clip-path="url(#cpNi45NzM4NXw3MTMuMDI2fDI4MS4yMDl8Ni45NzM4NQ==)">
    <text x="513.28" y="94.78" style="font-size: 9.96px; fill: #FFF; font-family: Liberation Sans;" textLength="36.52px" lengthAdjust="spacingAndGlyphs">SOMSC</text>
  </g>
  <polyline points="409.88,277.61 462.00,277.61 461.92,277.61 462.26,277.59 462.60,277.52 462.93,277.40 463.23,277.23 463.50,277.01 463.73,276.75 463.92,276.45 464.05,276.13 464.14,275.80 464.16,275.45 464.16,275.45 464.16,265.72 464.16,265.72 464.14,265.37 464.05,265.03 463.92,264.71 463.73,264.42 463.50,264.16 463.23,263.94 462.93,263.77 462.60,263.64 462.26,263.57 462.00,263.56 409.88,263.56 410.14,263.57 409.79,263.56 409.44,263.60 409.11,263.70 408.80,263.85 408.51,264.05 408.26,264.29 408.05,264.56 407.89,264.87 407.78,265.20 407.72,265.54 407.72,265.72 407.72,275.45 407.72,275.28 407.72,275.62 407.78,275.97 407.89,276.30 408.05,276.60 408.26,276.88 408.51,277.12 408.80,277.32 409.11,277.47 409.44,277.57 409.79,277.61 " style="stroke-width: 0.53; stroke: #0278DD; fill: #0278DD;" clip-path="url(#cpNi45NzM4NXw3MTMuMDI2fDI4MS4yMDl8Ni45NzM4NQ==)"/>
  <g clip-path="url(#cpNi45NzM4NXw3MTMuMDI2fDI4MS4yMDl8Ni45NzM4NQ==)">
    <text x="411.32" y="274.01" style="font-size: 9.96px; fill: #FFF; font-family: Liberation Sans;" textLength="49.25px" lengthAdjust="spacingAndGlyphs">WaveCrest</text>
  </g>
  <polyline points="239.68,275.67 271.33,275.67 271.24,275.67 271.59,275.65 271.93,275.58 272.26,275.46 272.56,275.29 272.83,275.07 273.06,274.81 273.24,274.51 273.38,274.19 273.46,273.86 273.49,273.51 273.49,273.51 273.49,263.78 273.49,263.78 273.46,263.43 273.38,263.09 273.24,262.77 273.06,262.48 272.83,262.22 272.56,262.00 272.26,261.83 271.93,261.70 271.59,261.63 271.33,261.62 239.68,261.62 239.94,261.63 239.59,261.62 239.25,261.66 238.91,261.76 238.60,261.91 238.31,262.10 238.06,262.35 237.85,262.62 237.69,262.93 237.58,263.26 237.53,263.60 237.52,263.78 237.52,273.51 237.53,273.34 237.53,273.68 237.58,274.03 237.69,274.36 237.85,274.66 238.06,274.94 238.31,275.18 238.60,275.38 238.91,275.53 239.25,275.63 239.59,275.67 " style="stroke-width: 0.53; stroke: #0278DD; fill: #0278DD;" clip-path="url(#cpNi45NzM4NXw3MTMuMDI2fDI4MS4yMDl8Ni45NzM4NQ==)"/>
  <g clip-path="url(#cpNi45NzM4NXw3MTMuMDI2fDI4MS4yMDl8Ni45NzM4NQ==)">
    <text x="241.12" y="272.07" style="font-size: 9.96px; fill: #FFF; font-family: Liberation Sans;" textLength="28.77px" lengthAdjust="spacingAndGlyphs">NBOR</text>
  </g>
  <polyline points="532.52,234.13 576.90,234.13 576.81,234.12 577.16,234.11 577.50,234.04 577.83,233.92 578.13,233.74 578.40,233.52 578.63,233.26 578.81,232.97 578.95,232.65 579.03,232.31 579.06,231.97 579.06,231.97 579.06,222.24 579.06,222.24 579.03,221.89 578.95,221.55 578.81,221.23 578.63,220.94 578.40,220.68 578.13,220.46 577.83,220.28 577.50,220.16 577.16,220.09 576.90,220.08 532.52,220.08 532.78,220.09 532.44,220.08 532.09,220.12 531.76,220.22 531.44,220.36 531.16,220.56 530.91,220.80 530.70,221.08 530.54,221.39 530.43,221.72 530.37,222.06 530.36,222.24 530.36,231.97 530.37,231.79 530.37,232.14 530.43,232.48 530.54,232.81 530.70,233.12 530.91,233.40 531.16,233.64 531.44,233.84 531.76,233.99 532.09,234.08 532.44,234.12 " style="stroke-width: 0.53; stroke: #0278DD; fill: #0278DD;" clip-path="url(#cpNi45NzM4NXw3MTMuMDI2fDI4MS4yMDl8Ni45NzM4NQ==)"/>
  <g clip-path="url(#cpNi45NzM4NXw3MTMuMDI2fDI4MS4yMDl8Ni45NzM4NQ==)">
    <text x="533.96" y="230.53" style="font-size: 9.96px; fill: #FFF; font-family: Liberation Sans;" textLength="41.50px" lengthAdjust="spacingAndGlyphs">UNCURL</text>
  </g>
  <polyline points="566.46,276.78 600.90,276.78 600.81,276.78 601.16,276.76 601.50,276.69 601.82,276.57 602.12,276.40 602.39,276.18 602.62,275.92 602.81,275.62 602.95,275.30 603.03,274.97 603.06,274.62 603.06,274.62 603.06,264.89 603.06,264.89 603.03,264.54 602.95,264.20 602.81,263.88 602.62,263.59 602.39,263.33 602.12,263.11 601.82,262.94 601.50,262.81 601.16,262.74 600.90,262.73 566.46,262.73 566.72,262.74 566.38,262.73 566.03,262.77 565.70,262.87 565.38,263.02 565.10,263.21 564.85,263.46 564.64,263.73 564.48,264.04 564.37,264.37 564.31,264.71 564.30,264.89 564.30,274.62 564.31,274.45 564.31,274.79 564.37,275.14 564.48,275.47 564.64,275.77 564.85,276.05 565.10,276.29 565.38,276.49 565.70,276.64 566.03,276.74 566.38,276.78 " style="stroke-width: 0.53; stroke: #3AD1D1; fill: #3AD1D1;" clip-path="url(#cpNi45NzM4NXw3MTMuMDI2fDI4MS4yMDl8Ni45NzM4NQ==)"/>
  <g clip-path="url(#cpNi45NzM4NXw3MTMuMDI2fDI4MS4yMDl8Ni45NzM4NQ==)">
    <text x="567.90" y="273.18" style="font-size: 9.96px; fill: #FFF; font-family: Liberation Sans;" textLength="31.55px" lengthAdjust="spacingAndGlyphs">scanpy</text>
  </g>
  <polyline points="490.58,231.76 537.73,231.76 537.65,231.76 537.99,231.75 538.34,231.68 538.66,231.55 538.96,231.38 539.23,231.16 539.46,230.90 539.65,230.61 539.78,230.29 539.87,229.95 539.89,229.60 539.89,229.60 539.89,219.87 539.89,219.87 539.87,219.53 539.78,219.19 539.65,218.87 539.46,218.57 539.23,218.31 538.96,218.09 538.66,217.92 538.34,217.80 537.99,217.73 537.73,217.71 490.58,217.71 490.84,217.73 490.49,217.71 490.14,217.76 489.81,217.85 489.50,218.00 489.21,218.20 488.96,218.44 488.75,218.72 488.59,219.03 488.48,219.36 488.42,219.70 488.42,219.87 488.42,229.60 488.42,229.43 488.42,229.78 488.48,230.12 488.59,230.45 488.75,230.76 488.96,231.04 489.21,231.28 489.50,231.47 489.81,231.62 490.14,231.72 490.49,231.76 " style="stroke-width: 0.53; stroke: #E0AB00; fill: #E0AB00;" clip-path="url(#cpNi45NzM4NXw3MTMuMDI2fDI4MS4yMDl8Ni45NzM4NQ==)"/>
  <g clip-path="url(#cpNi45NzM4NXw3MTMuMDI2fDI4MS4yMDl8Ni45NzM4NQ==)">
    <text x="492.02" y="228.16" style="font-size: 9.96px; fill: #FFF; font-family: Liberation Sans;" textLength="44.28px" lengthAdjust="spacingAndGlyphs">Granatum</text>
  </g>
  <polyline points="615.72,263.57 645.17,263.57 645.08,263.57 645.43,263.55 645.77,263.48 646.09,263.36 646.39,263.19 646.66,262.97 646.89,262.71 647.08,262.41 647.22,262.09 647.30,261.76 647.33,261.41 647.33,261.41 647.33,251.68 647.33,251.68 647.30,251.33 647.22,250.99 647.08,250.67 646.89,250.38 646.66,250.12 646.39,249.90 646.09,249.73 645.77,249.60 645.43,249.53 645.17,249.52 615.72,249.52 615.98,249.53 615.64,249.52 615.29,249.56 614.96,249.66 614.64,249.81 614.36,250.01 614.11,250.25 613.90,250.52 613.74,250.83 613.63,251.16 613.57,251.50 613.56,251.68 613.56,261.41 613.57,261.24 613.57,261.58 613.63,261.93 613.74,262.26 613.90,262.56 614.11,262.84 614.36,263.08 614.64,263.28 614.96,263.43 615.29,263.53 615.64,263.57 " style="stroke-width: 0.53; stroke: #0278DD; fill: #0278DD;" clip-path="url(#cpNi45NzM4NXw3MTMuMDI2fDI4MS4yMDl8Ni45NzM4NQ==)"/>
  <g clip-path="url(#cpNi45NzM4NXw3MTMuMDI2fDI4MS4yMDl8Ni45NzM4NQ==)">
    <text x="617.16" y="259.97" style="font-size: 9.96px; fill: #FFF; font-family: Liberation Sans;" textLength="26.56px" lengthAdjust="spacingAndGlyphs">iCpSc</text>
  </g>
  <polyline points="326.30,251.68 365.15,251.68 365.06,251.68 365.41,251.67 365.75,251.60 366.08,251.47 366.38,251.30 366.65,251.08 366.88,250.82 367.06,250.53 367.20,250.21 367.28,249.87 367.31,249.52 367.31,249.52 367.31,239.79 367.31,239.79 367.28,239.44 367.20,239.11 367.06,238.79 366.88,238.49 366.65,238.23 366.38,238.01 366.08,237.84 365.75,237.72 365.41,237.65 365.15,237.63 326.30,237.63 326.56,237.65 326.21,237.63 325.86,237.67 325.53,237.77 325.22,237.92 324.93,238.12 324.68,238.36 324.47,238.64 324.31,238.94 324.20,239.27 324.14,239.62 324.14,239.79 324.14,249.52 324.14,249.35 324.14,249.70 324.20,250.04 324.31,250.37 324.47,250.68 324.68,250.95 324.93,251.19 325.22,251.39 325.53,251.54 325.86,251.64 326.21,251.68 " style="stroke-width: 0.53; stroke: #E0AB00; fill: #E0AB00;" clip-path="url(#cpNi45NzM4NXw3MTMuMDI2fDI4MS4yMDl8Ni45NzM4NQ==)"/>
  <g clip-path="url(#cpNi45NzM4NXw3MTMuMDI2fDI4MS4yMDl8Ni45NzM4NQ==)">
    <text x="327.74" y="248.08" style="font-size: 9.96px; fill: #FFF; font-family: Liberation Sans;" textLength="35.97px" lengthAdjust="spacingAndGlyphs">ECLAIR</text>
  </g>
  <polyline points="394.31,65.78 430.39,65.78 430.30,65.78 430.65,65.76 430.99,65.69 431.32,65.57 431.62,65.40 431.89,65.18 432.12,64.92 432.30,64.62 432.44,64.30 432.52,63.96 432.55,63.62 432.55,63.62 432.55,53.89 432.55,53.89 432.52,53.54 432.44,53.20 432.30,52.88 432.12,52.59 431.89,52.33 431.62,52.11 431.32,51.94 430.99,51.81 430.65,51.74 430.39,51.73 394.31,51.73 394.57,51.74 394.22,51.73 393.88,51.77 393.54,51.87 393.23,52.02 392.94,52.21 392.69,52.45 392.48,52.73 392.32,53.04 392.21,53.37 392.16,53.71 392.15,53.89 392.15,63.62 392.16,63.44 392.16,63.79 392.21,64.14 392.32,64.46 392.48,64.77 392.69,65.05 392.94,65.29 393.23,65.49 393.54,65.64 393.88,65.73 394.22,65.78 " style="stroke-width: 0.53; stroke: #E0AB00; fill: #E0AB00;" clip-path="url(#cpNi45NzM4NXw3MTMuMDI2fDI4MS4yMDl8Ni45NzM4NQ==)"/>
  <g clip-path="url(#cpNi45NzM4NXw3MTMuMDI2fDI4MS4yMDl8Ni45NzM4NQ==)">
    <text x="395.75" y="62.18" style="font-size: 9.96px; fill: #FFF; font-family: Liberation Sans;" textLength="33.20px" lengthAdjust="spacingAndGlyphs">StemID</text>
  </g>
  <polyline points="538.58,84.26 590.70,84.26 590.62,84.26 590.96,84.24 591.30,84.17 591.63,84.05 591.93,83.88 592.20,83.66 592.43,83.40 592.62,83.10 592.75,82.78 592.83,82.45 592.86,82.10 592.86,82.10 592.86,72.37 592.86,72.37 592.83,72.02 592.75,71.68 592.62,71.36 592.43,71.07 592.20,70.81 591.93,70.59 591.63,70.42 591.30,70.29 590.96,70.22 590.70,70.21 538.58,70.21 538.85,70.22 538.50,70.21 538.15,70.25 537.82,70.35 537.50,70.50 537.22,70.69 536.97,70.94 536.76,71.21 536.60,71.52 536.49,71.85 536.43,72.19 536.42,72.37 536.42,82.10 536.43,81.92 536.43,82.27 536.49,82.62 536.60,82.95 536.76,83.25 536.97,83.53 537.22,83.77 537.50,83.97 537.82,84.12 538.15,84.22 538.50,84.26 " style="stroke-width: 0.53; stroke: #0278DD; fill: #0278DD;" clip-path="url(#cpNi45NzM4NXw3MTMuMDI2fDI4MS4yMDl8Ni45NzM4NQ==)"/>
  <g clip-path="url(#cpNi45NzM4NXw3MTMuMDI2fDI4MS4yMDl8Ni45NzM4NQ==)">
    <text x="540.02" y="80.66" style="font-size: 9.96px; fill: #FFF; font-family: Liberation Sans;" textLength="49.24px" lengthAdjust="spacingAndGlyphs">MATCHER</text>
  </g>
  <polyline points="276.63,230.28 318.81,230.28 318.72,230.28 319.07,230.27 319.41,230.20 319.73,230.07 320.04,229.90 320.31,229.68 320.54,229.42 320.72,229.13 320.86,228.81 320.94,228.47 320.97,228.12 320.97,228.12 320.97,218.39 320.97,218.39 320.94,218.04 320.86,217.71 320.72,217.39 320.54,217.09 320.31,216.83 320.04,216.61 319.73,216.44 319.41,216.32 319.07,216.25 318.81,216.23 276.63,216.23 276.89,216.25 276.54,216.23 276.19,216.27 275.86,216.37 275.55,216.52 275.26,216.72 275.01,216.96 274.80,217.24 274.64,217.54 274.53,217.87 274.47,218.22 274.47,218.39 274.47,228.12 274.47,227.95 274.47,228.30 274.53,228.64 274.64,228.97 274.80,229.28 275.01,229.55 275.26,229.80 275.55,229.99 275.86,230.14 276.19,230.24 276.54,230.28 " style="stroke-width: 0.53; stroke: #0278DD; fill: #0278DD;" clip-path="url(#cpNi45NzM4NXw3MTMuMDI2fDI4MS4yMDl8Ni45NzM4NQ==)"/>
  <g clip-path="url(#cpNi45NzM4NXw3MTMuMDI2fDI4MS4yMDl8Ni45NzM4NQ==)">
    <text x="278.07" y="226.68" style="font-size: 9.96px; fill: #FFF; font-family: Liberation Sans;" textLength="39.30px" lengthAdjust="spacingAndGlyphs">embeddr</text>
  </g>
  <polyline points="270.42,254.17 312.59,254.17 312.51,254.17 312.85,254.16 313.20,254.09 313.52,253.96 313.82,253.79 314.09,253.57 314.32,253.31 314.51,253.02 314.64,252.70 314.73,252.36 314.75,252.01 314.75,252.01 314.75,242.28 314.75,242.28 314.73,241.93 314.64,241.60 314.51,241.28 314.32,240.98 314.09,240.72 313.82,240.50 313.52,240.33 313.20,240.21 312.85,240.14 312.59,240.12 270.42,240.12 270.69,240.14 270.34,240.12 269.99,240.16 269.66,240.26 269.34,240.41 269.06,240.61 268.81,240.85 268.60,241.13 268.44,241.43 268.33,241.76 268.27,242.11 268.26,242.28 268.26,252.01 268.27,251.84 268.27,252.19 268.33,252.53 268.44,252.86 268.60,253.17 268.81,253.44 269.06,253.69 269.34,253.88 269.66,254.03 269.99,254.13 270.34,254.17 " style="stroke-width: 0.53; stroke: #0278DD; fill: #0278DD;" clip-path="url(#cpNi45NzM4NXw3MTMuMDI2fDI4MS4yMDl8Ni45NzM4NQ==)"/>
  <g clip-path="url(#cpNi45NzM4NXw3MTMuMDI2fDI4MS4yMDl8Ni45NzM4NQ==)">
    <text x="271.86" y="250.57" style="font-size: 9.96px; fill: #FFF; font-family: Liberation Sans;" textLength="39.29px" lengthAdjust="spacingAndGlyphs">Waterfall</text>
  </g>
  <polyline points="498.45,119.51 537.31,119.51 537.22,119.51 537.57,119.49 537.91,119.43 538.23,119.30 538.54,119.13 538.81,118.91 539.04,118.65 539.22,118.35 539.36,118.03 539.44,117.70 539.47,117.35 539.47,117.35 539.47,107.62 539.47,107.62 539.44,107.27 539.36,106.94 539.22,106.62 539.04,106.32 538.81,106.06 538.54,105.84 538.23,105.67 537.91,105.54 537.57,105.48 537.31,105.46 498.45,105.46 498.71,105.48 498.36,105.46 498.02,105.50 497.69,105.60 497.37,105.75 497.08,105.95 496.83,106.19 496.63,106.46 496.46,106.77 496.35,107.10 496.30,107.45 496.29,107.62 496.29,117.35 496.30,117.18 496.30,117.52 496.35,117.87 496.46,118.20 496.63,118.51 496.83,118.78 497.08,119.02 497.37,119.22 497.69,119.37 498.02,119.47 498.36,119.51 " style="stroke-width: 0.53; stroke: #7FBE00; fill: #7FBE00;" clip-path="url(#cpNi45NzM4NXw3MTMuMDI2fDI4MS4yMDl8Ni45NzM4NQ==)"/>
  <g clip-path="url(#cpNi45NzM4NXw3MTMuMDI2fDI4MS4yMDl8Ni45NzM4NQ==)">
    <text x="499.89" y="115.91" style="font-size: 9.96px; fill: #FFF; font-family: Liberation Sans;" textLength="35.98px" lengthAdjust="spacingAndGlyphs">GPfates</text>
  </g>
  <polyline points="510.90,169.74 534.80,169.74 534.71,169.74 535.06,169.72 535.40,169.65 535.72,169.53 536.02,169.36 536.29,169.14 536.52,168.88 536.71,168.58 536.85,168.26 536.93,167.93 536.96,167.58 536.96,167.58 536.96,157.85 536.96,157.85 536.93,157.50 536.85,157.16 536.71,156.84 536.52,156.55 536.29,156.29 536.02,156.07 535.72,155.90 535.40,155.77 535.06,155.70 534.80,155.69 510.90,155.69 511.16,155.70 510.81,155.69 510.46,155.73 510.13,155.83 509.82,155.98 509.53,156.18 509.28,156.42 509.07,156.69 508.91,157.00 508.80,157.33 508.74,157.67 508.74,157.85 508.74,167.58 508.74,167.41 508.74,167.75 508.80,168.10 508.91,168.43 509.07,168.73 509.28,169.01 509.53,169.25 509.82,169.45 510.13,169.60 510.46,169.70 510.81,169.74 " style="stroke-width: 0.53; stroke: #7FBE00; fill: #7FBE00;" clip-path="url(#cpNi45NzM4NXw3MTMuMDI2fDI4MS4yMDl8Ni45NzM4NQ==)"/>
  <g clip-path="url(#cpNi45NzM4NXw3MTMuMDI2fDI4MS4yMDl8Ni45NzM4NQ==)">
    <text x="512.34" y="166.14" style="font-size: 9.96px; fill: #FFF; font-family: Liberation Sans;" textLength="21.02px" lengthAdjust="spacingAndGlyphs">MFA</text>
  </g>
  <polyline points="387.82,215.56 426.12,215.56 426.03,215.56 426.38,215.55 426.72,215.48 427.04,215.35 427.34,215.18 427.61,214.96 427.84,214.70 428.03,214.41 428.17,214.09 428.25,213.75 428.28,213.40 428.28,213.40 428.28,203.67 428.28,203.67 428.25,203.32 428.17,202.99 428.03,202.67 427.84,202.37 427.61,202.11 427.34,201.89 427.04,201.72 426.72,201.60 426.38,201.53 426.12,201.51 387.82,201.51 388.08,201.53 387.74,201.51 387.39,201.55 387.06,201.65 386.74,201.80 386.46,202.00 386.21,202.24 386.00,202.52 385.84,202.82 385.73,203.15 385.67,203.50 385.66,203.67 385.66,213.40 385.67,213.23 385.67,213.58 385.73,213.92 385.84,214.25 386.00,214.56 386.21,214.83 386.46,215.07 386.74,215.27 387.06,215.42 387.39,215.52 387.74,215.56 " style="stroke-width: 0.53; stroke: #7FBE00; fill: #7FBE00;" clip-path="url(#cpNi45NzM4NXw3MTMuMDI2fDI4MS4yMDl8Ni45NzM4NQ==)"/>
  <g clip-path="url(#cpNi45NzM4NXw3MTMuMDI2fDI4MS4yMDl8Ni45NzM4NQ==)">
    <text x="389.26" y="211.96" style="font-size: 9.96px; fill: #FFF; font-family: Liberation Sans;" textLength="35.41px" lengthAdjust="spacingAndGlyphs">SCOUP</text>
  </g>
  <polyline points="368.08,193.13 415.24,193.13 415.15,193.13 415.50,193.11 415.84,193.04 416.17,192.92 416.47,192.75 416.74,192.53 416.97,192.27 417.15,191.97 417.29,191.65 417.37,191.32 417.40,190.97 417.40,190.97 417.40,181.24 417.40,181.24 417.37,180.89 417.29,180.55 417.15,180.23 416.97,179.94 416.74,179.68 416.47,179.46 416.17,179.29 415.84,179.16 415.50,179.09 415.24,179.08 368.08,179.08 368.34,179.09 367.99,179.08 367.65,179.12 367.31,179.22 367.00,179.37 366.71,179.56 366.46,179.81 366.25,180.08 366.09,180.39 365.98,180.72 365.92,181.06 365.92,181.24 365.92,190.97 365.92,190.80 365.92,191.14 365.98,191.49 366.09,191.82 366.25,192.12 366.46,192.40 366.71,192.64 367.00,192.84 367.31,192.99 367.65,193.09 367.99,193.13 " style="stroke-width: 0.53; stroke: #3AD1D1; fill: #3AD1D1;" clip-path="url(#cpNi45NzM4NXw3MTMuMDI2fDI4MS4yMDl8Ni45NzM4NQ==)"/>
  <g clip-path="url(#cpNi45NzM4NXw3MTMuMDI2fDI4MS4yMDl8Ni45NzM4NQ==)">
    <text x="369.52" y="189.53" style="font-size: 9.96px; fill: #FFF; font-family: Liberation Sans;" textLength="44.28px" lengthAdjust="spacingAndGlyphs">Wishbone</text>
  </g>
  <polyline points="489.33,212.00 538.15,212.00 538.07,212.00 538.41,211.98 538.76,211.92 539.08,211.79 539.38,211.62 539.65,211.40 539.88,211.14 540.07,210.84 540.20,210.52 540.29,210.19 540.31,209.84 540.31,209.84 540.31,200.11 540.31,200.11 540.29,199.76 540.20,199.43 540.07,199.11 539.88,198.81 539.65,198.55 539.38,198.33 539.08,198.16 538.76,198.03 538.41,197.96 538.15,197.95 489.33,197.95 489.59,197.96 489.24,197.95 488.90,197.99 488.56,198.09 488.25,198.24 487.96,198.44 487.71,198.68 487.50,198.95 487.34,199.26 487.23,199.59 487.18,199.94 487.17,200.11 487.17,209.84 487.18,209.67 487.18,210.01 487.23,210.36 487.34,210.69 487.50,210.99 487.71,211.27 487.96,211.51 488.25,211.71 488.56,211.86 488.90,211.96 489.24,212.00 " style="stroke-width: 0.53; stroke: #E0AB00; fill: #E0AB00;" clip-path="url(#cpNi45NzM4NXw3MTMuMDI2fDI4MS4yMDl8Ni45NzM4NQ==)"/>
  <g clip-path="url(#cpNi45NzM4NXw3MTMuMDI2fDI4MS4yMDl8Ni45NzM4NQ==)">
    <text x="490.77" y="208.40" style="font-size: 9.96px; fill: #FFF; font-family: Liberation Sans;" textLength="45.95px" lengthAdjust="spacingAndGlyphs">Monocle 2</text>
  </g>
  <polyline points="622.01,136.10 681.92,136.10 681.83,136.09 682.18,136.08 682.52,136.01 682.84,135.89 683.14,135.71 683.41,135.49 683.64,135.23 683.83,134.94 683.96,134.62 684.05,134.28 684.08,133.94 684.08,133.94 684.08,124.21 684.08,124.21 684.05,123.86 683.96,123.52 683.83,123.20 683.64,122.91 683.41,122.65 683.14,122.43 682.84,122.25 682.52,122.13 682.18,122.06 681.92,122.05 622.01,122.05 622.27,122.06 621.93,122.05 621.58,122.09 621.25,122.19 620.93,122.33 620.65,122.53 620.40,122.77 620.19,123.05 620.03,123.36 619.92,123.69 619.86,124.03 619.85,124.21 619.85,133.94 619.86,133.76 619.86,134.11 619.92,134.45 620.03,134.78 620.19,135.09 620.40,135.37 620.65,135.61 620.93,135.81 621.25,135.96 621.58,136.05 621.93,136.09 " style="stroke-width: 0.53; stroke: #E0AB00; fill: #E0AB00;" clip-path="url(#cpNi45NzM4NXw3MTMuMDI2fDI4MS4yMDl8Ni45NzM4NQ==)"/>
  <g clip-path="url(#cpNi45NzM4NXw3MTMuMDI2fDI4MS4yMDl8Ni45NzM4NQ==)">
    <text x="623.45" y="132.50" style="font-size: 9.96px; fill: #FFF; font-family: Liberation Sans;" textLength="57.02px" lengthAdjust="spacingAndGlyphs">Topographer</text>
  </g>
  <polyline points="377.90,238.19 414.53,238.19 414.44,238.19 414.79,238.18 415.13,238.11 415.45,237.98 415.75,237.81 416.02,237.59 416.25,237.33 416.44,237.04 416.58,236.72 416.66,236.38 416.69,236.03 416.69,236.03 416.69,226.30 416.69,226.30 416.66,225.96 416.58,225.62 416.44,225.30 416.25,225.00 416.02,224.74 415.75,224.52 415.45,224.35 415.13,224.23 414.79,224.16 414.53,224.14 377.90,224.14 378.16,224.16 377.81,224.14 377.46,224.19 377.13,224.28 376.82,224.43 376.53,224.63 376.28,224.87 376.07,225.15 375.91,225.46 375.80,225.79 375.74,226.13 375.74,226.30 375.74,236.03 375.74,235.86 375.74,236.21 375.80,236.55 375.91,236.88 376.07,237.19 376.28,237.47 376.53,237.71 376.82,237.90 377.13,238.05 377.46,238.15 377.81,238.19 " style="stroke-width: 0.53; stroke: #E0AB00; fill: #E0AB00;" clip-path="url(#cpNi45NzM4NXw3MTMuMDI2fDI4MS4yMDl8Ni45NzM4NQ==)"/>
  <g clip-path="url(#cpNi45NzM4NXw3MTMuMDI2fDI4MS4yMDl8Ni45NzM4NQ==)">
    <text x="379.34" y="234.59" style="font-size: 9.96px; fill: #FFF; font-family: Liberation Sans;" textLength="33.75px" lengthAdjust="spacingAndGlyphs">TSCAN</text>
  </g>
  <polyline points="459.53,139.97 511.67,139.97 511.58,139.97 511.93,139.95 512.27,139.88 512.60,139.76 512.90,139.58 513.17,139.36 513.40,139.10 513.58,138.81 513.72,138.49 513.80,138.15 513.83,137.81 513.83,137.81 513.83,128.08 513.83,128.08 513.80,127.73 513.72,127.39 513.58,127.07 513.40,126.78 513.17,126.52 512.90,126.30 512.60,126.12 512.27,126.00 511.93,125.93 511.67,125.92 459.53,125.92 459.79,125.93 459.44,125.92 459.10,125.96 458.76,126.06 458.45,126.21 458.16,126.40 457.91,126.64 457.70,126.92 457.54,127.23 457.43,127.56 457.38,127.90 457.37,128.08 457.37,137.81 457.38,137.63 457.38,137.98 457.43,138.32 457.54,138.65 457.70,138.96 457.91,139.24 458.16,139.48 458.45,139.68 458.76,139.83 459.10,139.92 459.44,139.97 " style="stroke-width: 0.53; stroke: #E0AB00; fill: #E0AB00;" clip-path="url(#cpNi45NzM4NXw3MTMuMDI2fDI4MS4yMDl8Ni45NzM4NQ==)"/>
  <g clip-path="url(#cpNi45NzM4NXw3MTMuMDI2fDI4MS4yMDl8Ni45NzM4NQ==)">
    <text x="460.97" y="136.37" style="font-size: 9.96px; fill: #FFF; font-family: Liberation Sans;" textLength="49.26px" lengthAdjust="spacingAndGlyphs">k-branches</text>
  </g>
  <polyline points="387.39,120.97 434.00,120.97 433.92,120.97 434.26,120.96 434.61,120.89 434.93,120.77 435.23,120.59 435.50,120.37 435.73,120.11 435.92,119.82 436.05,119.50 436.14,119.16 436.16,118.81 436.16,118.81 436.16,109.08 436.16,109.08 436.14,108.74 436.05,108.40 435.92,108.08 435.73,107.79 435.50,107.53 435.23,107.31 434.93,107.13 434.61,107.01 434.26,106.94 434.00,106.92 387.39,106.92 387.65,106.94 387.30,106.93 386.95,106.97 386.62,107.06 386.31,107.21 386.02,107.41 385.77,107.65 385.56,107.93 385.40,108.24 385.29,108.57 385.23,108.91 385.23,109.08 385.23,118.81 385.23,118.64 385.23,118.99 385.29,119.33 385.40,119.66 385.56,119.97 385.77,120.25 386.02,120.49 386.31,120.69 386.62,120.83 386.95,120.93 387.30,120.97 " style="stroke-width: 0.53; stroke: #0278DD; fill: #0278DD;" clip-path="url(#cpNi45NzM4NXw3MTMuMDI2fDI4MS4yMDl8Ni45NzM4NQ==)"/>
  <g clip-path="url(#cpNi45NzM4NXw3MTMuMDI2fDI4MS4yMDl8Ni45NzM4NQ==)">
    <text x="388.83" y="117.37" style="font-size: 9.96px; fill: #FFF; font-family: Liberation Sans;" textLength="43.74px" lengthAdjust="spacingAndGlyphs">DeLorean</text>
  </g>
  <polyline points="400.80,143.42 431.35,143.42 431.27,143.42 431.61,143.40 431.96,143.33 432.28,143.21 432.58,143.04 432.85,142.82 433.08,142.56 433.27,142.26 433.40,141.94 433.49,141.60 433.51,141.26 433.51,141.26 433.51,131.53 433.51,131.53 433.49,131.18 433.40,130.84 433.27,130.52 433.08,130.23 432.85,129.97 432.58,129.75 432.28,129.57 431.96,129.45 431.61,129.38 431.35,129.37 400.80,129.37 401.06,129.38 400.71,129.37 400.36,129.41 400.03,129.51 399.72,129.66 399.43,129.85 399.18,130.09 398.97,130.37 398.81,130.68 398.70,131.01 398.64,131.35 398.64,131.53 398.64,141.26 398.64,141.08 398.64,141.43 398.70,141.77 398.81,142.10 398.97,142.41 399.18,142.69 399.43,142.93 399.72,143.13 400.03,143.28 400.36,143.37 400.71,143.42 " style="stroke-width: 0.53; stroke: #E0AB00; fill: #E0AB00;" clip-path="url(#cpNi45NzM4NXw3MTMuMDI2fDI4MS4yMDl8Ni45NzM4NQ==)"/>
  <g clip-path="url(#cpNi45NzM4NXw3MTMuMDI2fDI4MS4yMDl8Ni45NzM4NQ==)">
    <text x="402.24" y="139.82" style="font-size: 9.96px; fill: #FFF; font-family: Liberation Sans;" textLength="27.68px" lengthAdjust="spacingAndGlyphs">Mpath</text>
  </g>
  <polyline points="546.75,62.32 578.40,62.32 578.31,62.32 578.66,62.30 579.00,62.23 579.33,62.11 579.63,61.94 579.90,61.72 580.13,61.46 580.31,61.16 580.45,60.84 580.53,60.51 580.56,60.16 580.56,60.16 580.56,50.43 580.56,50.43 580.53,50.08 580.45,49.74 580.31,49.42 580.13,49.13 579.90,48.87 579.63,48.65 579.33,48.48 579.00,48.35 578.66,48.28 578.40,48.27 546.75,48.27 547.01,48.28 546.66,48.27 546.32,48.31 545.98,48.41 545.67,48.56 545.38,48.75 545.13,49.00 544.92,49.27 544.76,49.58 544.65,49.91 544.60,50.25 544.59,50.43 544.59,60.16 544.60,59.99 544.60,60.33 544.65,60.68 544.76,61.01 544.92,61.31 545.13,61.59 545.38,61.83 545.67,62.03 545.98,62.18 546.32,62.28 546.66,62.32 " style="stroke-width: 0.53; stroke: #003D76; fill: #003D76;" clip-path="url(#cpNi45NzM4NXw3MTMuMDI2fDI4MS4yMDl8Ni45NzM4NQ==)"/>
  <g clip-path="url(#cpNi45NzM4NXw3MTMuMDI2fDI4MS4yMDl8Ni45NzM4NQ==)">
    <text x="548.19" y="58.72" style="font-size: 9.96px; fill: #FFF; font-family: Liberation Sans;" textLength="28.77px" lengthAdjust="spacingAndGlyphs">reCAT</text>
  </g>
  <polyline points="559.29,150.70 596.49,150.70 596.40,150.70 596.75,150.69 597.09,150.62 597.41,150.50 597.71,150.32 597.98,150.10 598.21,149.84 598.40,149.55 598.54,149.23 598.62,148.89 598.65,148.54 598.65,148.54 598.65,138.81 598.65,138.81 598.62,138.47 598.54,138.13 598.40,137.81 598.21,137.52 597.98,137.25 597.71,137.04 597.41,136.86 597.09,136.74 596.75,136.67 596.49,136.65 559.29,136.65 559.55,136.67 559.20,136.65 558.85,136.70 558.52,136.79 558.21,136.94 557.92,137.14 557.67,137.38 557.46,137.66 557.30,137.97 557.19,138.30 557.13,138.64 557.13,138.81 557.13,148.54 557.13,148.37 557.13,148.72 557.19,149.06 557.30,149.39 557.46,149.70 557.67,149.98 557.92,150.22 558.21,150.41 558.52,150.56 558.85,150.66 559.20,150.70 " style="stroke-width: 0.53; stroke: #0278DD; fill: #0278DD;" clip-path="url(#cpNi45NzM4NXw3MTMuMDI2fDI4MS4yMDl8Ni45NzM4NQ==)"/>
  <g clip-path="url(#cpNi45NzM4NXw3MTMuMDI2fDI4MS4yMDl8Ni45NzM4NQ==)">
    <text x="560.73" y="147.10" style="font-size: 9.96px; fill: #FFF; font-family: Liberation Sans;" textLength="34.32px" lengthAdjust="spacingAndGlyphs">SoptSC</text>
  </g>
  <polyline points="638.33,253.25 680.50,253.25 680.41,253.25 680.76,253.24 681.10,253.17 681.42,253.04 681.72,252.87 681.99,252.65 682.22,252.39 682.41,252.10 682.55,251.78 682.63,251.44 682.66,251.09 682.66,251.09 682.66,241.36 682.66,241.36 682.63,241.02 682.55,240.68 682.41,240.36 682.22,240.06 681.99,239.80 681.72,239.58 681.42,239.41 681.10,239.29 680.76,239.22 680.50,239.20 638.33,239.20 638.59,239.22 638.24,239.20 637.90,239.25 637.56,239.34 637.25,239.49 636.96,239.69 636.71,239.93 636.50,240.21 636.34,240.52 636.23,240.84 636.18,241.19 636.17,241.36 636.17,251.09 636.18,250.92 636.18,251.27 636.23,251.61 636.34,251.94 636.50,252.25 636.71,252.53 636.96,252.77 637.25,252.96 637.56,253.11 637.90,253.21 638.24,253.25 " style="stroke-width: 0.53; stroke: #E0AB00; fill: #E0AB00;" clip-path="url(#cpNi45NzM4NXw3MTMuMDI2fDI4MS4yMDl8Ni45NzM4NQ==)"/>
  <g clip-path="url(#cpNi45NzM4NXw3MTMuMDI2fDI4MS4yMDl8Ni45NzM4NQ==)">
    <text x="639.77" y="249.65" style="font-size: 9.96px; fill: #FFF; font-family: Liberation Sans;" textLength="39.29px" lengthAdjust="spacingAndGlyphs">MERLoT</text>
  </g>
  <polyline points="400.11,258.47 426.24,258.47 426.16,258.47 426.50,258.45 426.84,258.38 427.17,258.26 427.47,258.09 427.74,257.87 427.97,257.61 428.15,257.31 428.29,256.99 428.37,256.66 428.40,256.31 428.40,256.31 428.40,246.58 428.40,246.58 428.37,246.23 428.29,245.89 428.15,245.58 427.97,245.28 427.74,245.02 427.47,244.80 427.17,244.63 426.84,244.50 426.50,244.43 426.24,244.42 400.11,244.42 400.37,244.43 400.03,244.42 399.68,244.46 399.35,244.56 399.03,244.71 398.75,244.91 398.50,245.15 398.29,245.42 398.13,245.73 398.02,246.06 397.96,246.41 397.95,246.58 397.95,256.31 397.96,256.14 397.96,256.48 398.02,256.83 398.13,257.16 398.29,257.46 398.50,257.74 398.75,257.98 399.03,258.18 399.35,258.33 399.68,258.43 400.03,258.47 " style="stroke-width: 0.53; stroke: #0278DD; fill: #0278DD;" clip-path="url(#cpNi45NzM4NXw3MTMuMDI2fDI4MS4yMDl8Ni45NzM4NQ==)"/>
  <g clip-path="url(#cpNi45NzM4NXw3MTMuMDI2fDI4MS4yMDl8Ni45NzM4NQ==)">
    <text x="401.55" y="254.87" style="font-size: 9.96px; fill: #FFF; font-family: Liberation Sans;" textLength="23.25px" lengthAdjust="spacingAndGlyphs">Ouija</text>
  </g>
  <polyline points="471.43,270.78 503.09,270.78 503.00,270.78 503.35,270.76 503.69,270.69 504.01,270.57 504.31,270.39 504.58,270.17 504.81,269.91 505.00,269.62 505.14,269.30 505.22,268.96 505.25,268.62 505.25,268.62 505.25,258.89 505.25,258.89 505.22,258.54 505.14,258.20 505.00,257.88 504.81,257.59 504.58,257.33 504.31,257.11 504.01,256.93 503.69,256.81 503.35,256.74 503.09,256.73 471.43,256.73 471.69,256.74 471.34,256.73 470.99,256.77 470.66,256.87 470.35,257.01 470.06,257.21 469.81,257.45 469.60,257.73 469.44,258.04 469.33,258.37 469.27,258.71 469.27,258.89 469.27,268.62 469.27,268.44 469.27,268.79 469.33,269.13 469.44,269.46 469.60,269.77 469.81,270.05 470.06,270.29 470.35,270.49 470.66,270.64 470.99,270.73 471.34,270.78 " style="stroke-width: 0.53; stroke: #E0AB00; fill: #E0AB00;" clip-path="url(#cpNi45NzM4NXw3MTMuMDI2fDI4MS4yMDl8Ni45NzM4NQ==)"/>
  <g clip-path="url(#cpNi45NzM4NXw3MTMuMDI2fDI4MS4yMDl8Ni45NzM4NQ==)">
    <text x="472.87" y="267.18" style="font-size: 9.96px; fill: #FFF; font-family: Liberation Sans;" textLength="28.78px" lengthAdjust="spacingAndGlyphs">SLICE</text>
  </g>
  <polyline points="185.60,273.86 216.15,273.86 216.07,273.86 216.42,273.84 216.76,273.77 217.08,273.65 217.38,273.48 217.65,273.26 217.88,273.00 218.07,272.70 218.20,272.38 218.29,272.04 218.31,271.70 218.31,271.70 218.31,261.97 218.31,261.97 218.29,261.62 218.20,261.28 218.07,260.96 217.88,260.67 217.65,260.41 217.38,260.19 217.08,260.02 216.76,259.89 216.42,259.82 216.15,259.81 185.60,259.81 185.86,259.82 185.52,259.81 185.17,259.85 184.84,259.95 184.52,260.10 184.24,260.29 183.99,260.53 183.78,260.81 183.62,261.12 183.50,261.45 183.45,261.79 183.44,261.97 183.44,271.70 183.45,271.52 183.45,271.87 183.50,272.22 183.62,272.54 183.78,272.85 183.99,273.13 184.24,273.37 184.52,273.57 184.84,273.72 185.17,273.81 185.52,273.86 " style="stroke-width: 0.53; stroke: #E0AB00; fill: #E0AB00;" clip-path="url(#cpNi45NzM4NXw3MTMuMDI2fDI4MS4yMDl8Ni45NzM4NQ==)"/>
  <g clip-path="url(#cpNi45NzM4NXw3MTMuMDI2fDI4MS4yMDl8Ni45NzM4NQ==)">
    <text x="187.04" y="270.26" style="font-size: 9.96px; fill: #FFF; font-family: Liberation Sans;" textLength="27.67px" lengthAdjust="spacingAndGlyphs">sincell</text>
  </g>
  <polyline points="345.50,275.59 368.29,275.59 368.21,275.59 368.56,275.58 368.90,275.51 369.22,275.38 369.52,275.21 369.79,274.99 370.02,274.73 370.21,274.44 370.34,274.12 370.43,273.78 370.45,273.43 370.45,273.43 370.45,263.70 370.45,263.70 370.43,263.35 370.34,263.02 370.21,262.70 370.02,262.40 369.79,262.14 369.52,261.92 369.22,261.75 368.90,261.63 368.56,261.56 368.29,261.54 345.50,261.54 345.76,261.56 345.41,261.54 345.07,261.58 344.73,261.68 344.42,261.83 344.13,262.03 343.88,262.27 343.67,262.55 343.51,262.85 343.40,263.18 343.34,263.53 343.34,263.70 343.34,273.43 343.34,273.26 343.34,273.61 343.40,273.95 343.51,274.28 343.67,274.59 343.88,274.86 344.13,275.11 344.42,275.30 344.73,275.45 345.07,275.55 345.41,275.59 " style="stroke-width: 0.53; stroke: #3AD1D1; fill: #3AD1D1;" clip-path="url(#cpNi45NzM4NXw3MTMuMDI2fDI4MS4yMDl8Ni45NzM4NQ==)"/>
  <g clip-path="url(#cpNi45NzM4NXw3MTMuMDI2fDI4MS4yMDl8Ni45NzM4NQ==)">
    <text x="346.94" y="271.99" style="font-size: 9.96px; fill: #FFF; font-family: Liberation Sans;" textLength="19.92px" lengthAdjust="spacingAndGlyphs">DPT</text>
  </g>
  <polyline points="516.24,190.41 558.42,190.41 558.34,190.41 558.68,190.40 559.02,190.33 559.35,190.21 559.65,190.03 559.92,189.81 560.15,189.55 560.33,189.26 560.47,188.94 560.55,188.60 560.58,188.25 560.58,188.25 560.58,178.52 560.58,178.52 560.55,178.18 560.47,177.84 560.33,177.52 560.15,177.23 559.92,176.97 559.65,176.75 559.35,176.57 559.02,176.45 558.68,176.38 558.42,176.36 516.24,176.36 516.50,176.38 516.15,176.36 515.81,176.41 515.47,176.50 515.16,176.65 514.87,176.85 514.62,177.09 514.41,177.37 514.25,177.68 514.14,178.01 514.09,178.35 514.08,178.52 514.08,188.25 514.09,188.08 514.09,188.43 514.14,188.77 514.25,189.10 514.41,189.41 514.62,189.69 514.87,189.93 515.16,190.13 515.47,190.27 515.81,190.37 516.15,190.41 " style="stroke-width: 0.53; stroke: #E0AB00; fill: #E0AB00;" clip-path="url(#cpNi45NzM4NXw3MTMuMDI2fDI4MS4yMDl8Ni45NzM4NQ==)"/>
  <g clip-path="url(#cpNi45NzM4NXw3MTMuMDI2fDI4MS4yMDl8Ni45NzM4NQ==)">
    <text x="517.68" y="186.81" style="font-size: 9.96px; fill: #FFF; font-family: Liberation Sans;" textLength="39.30px" lengthAdjust="spacingAndGlyphs">slingshot</text>
  </g>
  <polyline points="59.21,270.87 112.45,270.87 112.37,270.87 112.71,270.86 113.06,270.79 113.38,270.66 113.68,270.49 113.95,270.27 114.18,270.01 114.37,269.72 114.50,269.40 114.59,269.06 114.61,268.71 114.61,268.71 114.61,258.98 114.61,258.98 114.59,258.64 114.50,258.30 114.37,257.98 114.18,257.68 113.95,257.42 113.68,257.20 113.38,257.03 113.06,256.91 112.71,256.84 112.45,256.82 59.21,256.82 59.47,256.84 59.12,256.82 58.78,256.87 58.44,256.96 58.13,257.11 57.84,257.31 57.59,257.55 57.38,257.83 57.22,258.14 57.11,258.47 57.06,258.81 57.05,258.98 57.05,268.71 57.06,268.54 57.06,268.89 57.11,269.23 57.22,269.56 57.38,269.87 57.59,270.15 57.84,270.39 58.13,270.58 58.44,270.73 58.78,270.83 59.12,270.87 " style="stroke-width: 0.53; stroke: #0278DD; fill: #0278DD;" clip-path="url(#cpNi45NzM4NXw3MTMuMDI2fDI4MS4yMDl8Ni45NzM4NQ==)"/>
  <g clip-path="url(#cpNi45NzM4NXw3MTMuMDI2fDI4MS4yMDl8Ni45NzM4NQ==)">
    <text x="60.65" y="267.27" style="font-size: 9.96px; fill: #FFF; font-family: Liberation Sans;" textLength="50.37px" lengthAdjust="spacingAndGlyphs">Wanderlust</text>
  </g>
  <polyline points="573.50,214.84 612.90,214.84 612.81,214.84 613.16,214.82 613.50,214.75 613.82,214.63 614.12,214.46 614.39,214.24 614.62,213.98 614.81,213.68 614.95,213.36 615.03,213.03 615.06,212.68 615.06,212.68 615.06,202.95 615.06,202.95 615.03,202.60 614.95,202.26 614.81,201.94 614.62,201.65 614.39,201.39 614.12,201.17 613.82,201.00 613.50,200.87 613.16,200.80 612.90,200.79 573.50,200.79 573.76,200.80 573.41,200.79 573.07,200.83 572.73,200.93 572.42,201.08 572.13,201.28 571.88,201.52 571.67,201.79 571.51,202.10 571.40,202.43 571.35,202.77 571.34,202.95 571.34,212.68 571.35,212.51 571.35,212.85 571.40,213.20 571.51,213.53 571.67,213.83 571.88,214.11 572.13,214.35 572.42,214.55 572.73,214.70 573.07,214.80 573.41,214.84 " style="stroke-width: 0.53; stroke: #FF8821; fill: #FF8821;" clip-path="url(#cpNi45NzM4NXw3MTMuMDI2fDI4MS4yMDl8Ni45NzM4NQ==)"/>
  <g clip-path="url(#cpNi45NzM4NXw3MTMuMDI2fDI4MS4yMDl8Ni45NzM4NQ==)">
    <text x="574.94" y="211.24" style="font-size: 9.96px; fill: #FFF; font-family: Liberation Sans;" textLength="36.52px" lengthAdjust="spacingAndGlyphs">B-RGPs</text>
  </g>
  <defs>
    <clipPath id="cpMHw3MjB8MzI0fDA=">
      <rect x="0.00" y="0.00" width="720.00" height="324.00"/>
    </clipPath>
  </defs>
  <polyline points="6.97,281.21 713.03,281.21 " style="stroke-width: 1.07; stroke-linecap: square;" clip-path="url(#cpMHw3MjB8MzI0fDA=)"/>
  <polyline points="39.07,284.70 39.07,281.21 " style="stroke-width: 1.07; stroke-linecap: butt;" clip-path="url(#cpMHw3MjB8MzI0fDA=)"/>
  <polyline points="190.12,284.70 190.12,281.21 " style="stroke-width: 1.07; stroke-linecap: butt;" clip-path="url(#cpMHw3MjB8MzI0fDA=)"/>
  <polyline points="341.17,284.70 341.17,281.21 " style="stroke-width: 1.07; stroke-linecap: butt;" clip-path="url(#cpMHw3MjB8MzI0fDA=)"/>
  <polyline points="492.64,284.70 492.64,281.21 " style="stroke-width: 1.07; stroke-linecap: butt;" clip-path="url(#cpMHw3MjB8MzI0fDA=)"/>
  <polyline points="643.69,284.70 643.69,281.21 " style="stroke-width: 1.07; stroke-linecap: butt;" clip-path="url(#cpMHw3MjB8MzI0fDA=)"/>
  <g clip-path="url(#cpMHw3MjB8MzI0fDA=)">
    <text x="25.72" y="295.94" style="font-size: 12.00px; font-family: Liberation Sans;" textLength="26.69px" lengthAdjust="spacingAndGlyphs">2014</text>
  </g>
  <g clip-path="url(#cpMHw3MjB8MzI0fDA=)">
    <text x="176.77" y="295.94" style="font-size: 12.00px; font-family: Liberation Sans;" textLength="26.69px" lengthAdjust="spacingAndGlyphs">2015</text>
  </g>
  <g clip-path="url(#cpMHw3MjB8MzI0fDA=)">
    <text x="327.82" y="295.94" style="font-size: 12.00px; font-family: Liberation Sans;" textLength="26.69px" lengthAdjust="spacingAndGlyphs">2016</text>
  </g>
  <g clip-path="url(#cpMHw3MjB8MzI0fDA=)">
    <text x="479.29" y="295.94" style="font-size: 12.00px; font-family: Liberation Sans;" textLength="26.69px" lengthAdjust="spacingAndGlyphs">2017</text>
  </g>
  <g clip-path="url(#cpMHw3MjB8MzI0fDA=)">
    <text x="630.34" y="295.94" style="font-size: 12.00px; font-family: Liberation Sans;" textLength="26.69px" lengthAdjust="spacingAndGlyphs">2018</text>
  </g>
  <g clip-path="url(#cpMHw3MjB8MzI0fDA=)">
    <text x="312.13" y="312.79" style="font-size: 14.00px; font-family: Liberation Sans;" textLength="95.74px" lengthAdjust="spacingAndGlyphs">Publishing date</text>
  </g>
</svg>
