<?xml version="1.0" encoding="UTF-8"?>
<svg xmlns="http://www.w3.org/2000/svg" xmlns:xlink="http://www.w3.org/1999/xlink" viewBox="0 0 720.00 324.00">
  <defs>
    <style type="text/css"><![CDATA[
    line, polyline, path, rect, circle {
      fill: none;
      stroke: #000000;
      stroke-linecap: round;
      stroke-linejoin: round;
      stroke-miterlimit: 10.00;
    }
  ]]></style>
  </defs>
  <line x1="630.44" y1="241.12" x2="630.44" y2="280.45" style="stroke-width: 1.07; stroke: #0278DD;" clip-path="url(#cpNi45NzM4NXw3MTMuMDI2fDI4MC40NDV8Ni45NzM4NQ==)"/>
  <line x1="455.80" y1="276.05" x2="455.80" y2="280.45" style="stroke-width: 1.07; stroke: #0278DD;" clip-path="url(#cpNi45NzM4NXw3MTMuMDI2fDI4MC40NDV8Ni45NzM4NQ==)"/>
  <line x1="616.37" y1="261.73" x2="616.37" y2="280.45" style="stroke-width: 1.07; stroke: #CA0565;" clip-path="url(#cpNi45NzM4NXw3MTMuMDI2fDI4MC40NDV8Ni45NzM4NQ==)"/>
  <line x1="513.74" y1="186.69" x2="513.74" y2="280.44" style="stroke-width: 1.07; stroke: #E8EF04;" clip-path="url(#cpNi45NzM4NXw3MTMuMDI2fDI4MC40NDV8Ni45NzM4NQ==)"/>
  <line x1="386.28" y1="255.03" x2="386.28" y2="280.44" style="stroke-width: 1.07; stroke: #0278DD;" clip-path="url(#cpNi45NzM4NXw3MTMuMDI2fDI4MC40NDV8Ni45NzM4NQ==)"/>
  <line x1="580.37" y1="112.71" x2="580.37" y2="280.44" style="stroke-width: 1.07; stroke: #3AD1D1;" clip-path="url(#cpNi45NzM4NXw3MTMuMDI2fDI4MC40NDV8Ni45NzM4NQ==)"/>
  <line x1="579.54" y1="272.87" x2="579.54" y2="280.44" style="stroke-width: 1.07; stroke: #7FBE00;" clip-path="url(#cpNi45NzM4NXw3MTMuMDI2fDI4MC40NDV8Ni45NzM4NQ==)"/>
  <line x1="406.97" y1="170.14" x2="406.97" y2="280.44" style="stroke-width: 1.07; stroke: #7FBE00;" clip-path="url(#cpNi45NzM4NXw3MTMuMDI2fDI4MC40NDV8Ni45NzM4NQ==)"/>
  <line x1="76.31" y1="270.34" x2="76.31" y2="280.44" style="stroke-width: 1.07; stroke: #E8EF04;" clip-path="url(#cpNi45NzM4NXw3MTMuMDI2fDI4MC40NDV8Ni45NzM4NQ==)"/>
  <line x1="522.85" y1="87.60" x2="522.85" y2="280.44" style="stroke-width: 1.07; stroke: #7FBE00;" clip-path="url(#cpNi45NzM4NXw3MTMuMDI2fDI4MC40NDV8Ni45NzM4NQ==)"/>
  <line x1="485.60" y1="254.77" x2="485.60" y2="280.44" style="stroke-width: 1.07; stroke: #E8EF04;" clip-path="url(#cpNi45NzM4NXw3MTMuMDI2fDI4MC40NDV8Ni45NzM4NQ==)"/>
  <line x1="514.16" y1="134.69" x2="514.16" y2="280.44" style="stroke-width: 1.07; stroke: #E8EF04;" clip-path="url(#cpNi45NzM4NXw3MTMuMDI2fDI4MC40NDV8Ni45NzM4NQ==)"/>
  <line x1="659.41" y1="264.72" x2="659.41" y2="280.44" style="stroke-width: 1.07; stroke: #E8EF04;" clip-path="url(#cpNi45NzM4NXw3MTMuMDI2fDI4MC40NDV8Ni45NzM4NQ==)"/>
  <line x1="466.56" y1="231.95" x2="466.56" y2="280.44" style="stroke-width: 1.07; stroke: #0278DD;" clip-path="url(#cpNi45NzM4NXw3MTMuMDI2fDI4MC40NDV8Ni45NzM4NQ==)"/>
  <line x1="572.09" y1="45.51" x2="572.09" y2="280.44" style="stroke-width: 1.07; stroke: #0278DD;" clip-path="url(#cpNi45NzM4NXw3MTMuMDI2fDI4MC40NDV8Ni45NzM4NQ==)"/>
  <line x1="656.10" y1="212.20" x2="656.10" y2="280.44" style="stroke-width: 1.07; stroke: #FF4237;" clip-path="url(#cpNi45NzM4NXw3MTMuMDI2fDI4MC40NDV8Ni45NzM4NQ==)"/>
  <line x1="416.08" y1="214.92" x2="416.08" y2="280.44" style="stroke-width: 1.07; stroke: #E8EF04;" clip-path="url(#cpNi45NzM4NXw3MTMuMDI2fDI4MC40NDV8Ni45NzM4NQ==)"/>
  <line x1="487.26" y1="109.51" x2="487.26" y2="280.44" style="stroke-width: 1.07; stroke: #E8EF04;" clip-path="url(#cpNi45NzM4NXw3MTMuMDI2fDI4MC40NDV8Ni45NzM4NQ==)"/>
  <line x1="517.88" y1="67.02" x2="517.88" y2="280.44" style="stroke-width: 1.07; stroke: #7FBE00;" clip-path="url(#cpNi45NzM4NXw3MTMuMDI2fDI4MC40NDV8Ni45NzM4NQ==)"/>
  <line x1="569.61" y1="130.76" x2="569.61" y2="280.44" style="stroke-width: 1.07; stroke: #0278DD;" clip-path="url(#cpNi45NzM4NXw3MTMuMDI2fDI4MC40NDV8Ni45NzM4NQ==)"/>
  <line x1="200.88" y1="273.23" x2="200.88" y2="280.44" style="stroke-width: 1.07; stroke: #E8EF04;" clip-path="url(#cpNi45NzM4NXw3MTMuMDI2fDI4MC40NDV8Ni45NzM4NQ==)"/>
  <line x1="562.99" y1="206.99" x2="562.99" y2="280.44" style="stroke-width: 1.07; stroke: #E8EF04;" clip-path="url(#cpNi45NzM4NXw3MTMuMDI2fDI4MC40NDV8Ni45NzM4NQ==)"/>
  <line x1="434.28" y1="191.32" x2="434.28" y2="280.44" style="stroke-width: 1.07; stroke: #E8EF04;" clip-path="url(#cpNi45NzM4NXw3MTMuMDI2fDI4MC40NDV8Ni45NzM4NQ==)"/>
  <line x1="537.33" y1="152.72" x2="537.33" y2="280.44" style="stroke-width: 1.07; stroke: #E8EF04;" clip-path="url(#cpNi45NzM4NXw3MTMuMDI2fDI4MC40NDV8Ni45NzM4NQ==)"/>
  <line x1="542.30" y1="229.20" x2="542.30" y2="280.44" style="stroke-width: 1.07; stroke: #0278DD;" clip-path="url(#cpNi45NzM4NXw3MTMuMDI2fDI4MC40NDV8Ni45NzM4NQ==)"/>
  <line x1="297.72" y1="252.21" x2="297.72" y2="280.43" style="stroke-width: 1.07; stroke: #0278DD;" clip-path="url(#cpNi45NzM4NXw3MTMuMDI2fDI4MC40NDV8Ni45NzM4NQ==)"/>
  <line x1="85.83" y1="248.08" x2="85.83" y2="280.43" style="stroke-width: 1.07; stroke: #0278DD;" clip-path="url(#cpNi45NzM4NXw3MTMuMDI2fDI4MC40NDV8Ni45NzM4NQ==)"/>
  <line x1="255.51" y1="274.76" x2="255.51" y2="280.43" style="stroke-width: 1.07; stroke: #0278DD;" clip-path="url(#cpNi45NzM4NXw3MTMuMDI2fDI4MC40NDV8Ni45NzM4NQ==)"/>
  <line x1="510.43" y1="209.49" x2="510.43" y2="280.43" style="stroke-width: 1.07; stroke: #0278DD;" clip-path="url(#cpNi45NzM4NXw3MTMuMDI2fDI4MC40NDV8Ni45NzM4NQ==)"/>
  <line x1="624.24" y1="87.24" x2="624.24" y2="280.43" style="stroke-width: 1.07; stroke: #E8EF04;" clip-path="url(#cpNi45NzM4NXw3MTMuMDI2fDI4MC40NDV8Ni45NzM4NQ==)"/>
  <line x1="291.51" y1="229.65" x2="291.51" y2="280.43" style="stroke-width: 1.07; stroke: #0278DD;" clip-path="url(#cpNi45NzM4NXw3MTMuMDI2fDI4MC40NDV8Ni45NzM4NQ==)"/>
  <line x1="435.94" y1="131.50" x2="435.94" y2="280.43" style="stroke-width: 1.07; stroke: #0278DD;" clip-path="url(#cpNi45NzM4NXw3MTMuMDI2fDI4MC40NDV8Ni45NzM4NQ==)"/>
  <line x1="410.70" y1="236.21" x2="410.70" y2="280.43" style="stroke-width: 1.07; stroke: #0278DD;" clip-path="url(#cpNi45NzM4NXw3MTMuMDI2fDI4MC40NDV8Ni45NzM4NQ==)"/>
  <line x1="603.96" y1="226.24" x2="603.96" y2="280.43" style="stroke-width: 1.07; stroke: #FF4237;" clip-path="url(#cpNi45NzM4NXw3MTMuMDI2fDI4MC40NDV8Ni45NzM4NQ==)"/>
  <line x1="189.29" y1="249.89" x2="189.29" y2="280.43" style="stroke-width: 1.07; stroke: #E8EF04;" clip-path="url(#cpNi45NzM4NXw3MTMuMDI2fDI4MC40NDV8Ni45NzM4NQ==)"/>
  <line x1="526.57" y1="45.35" x2="526.57" y2="280.43" style="stroke-width: 1.07; stroke: #E8EF04;" clip-path="url(#cpNi45NzM4NXw3MTMuMDI2fDI4MC40NDV8Ni45NzM4NQ==)"/>
  <line x1="413.18" y1="69.70" x2="413.18" y2="280.43" style="stroke-width: 1.07; stroke: #0278DD;" clip-path="url(#cpNi45NzM4NXw3MTMuMDI2fDI4MC40NDV8Ni45NzM4NQ==)"/>
  <line x1="356.90" y1="273.13" x2="356.90" y2="280.43" style="stroke-width: 1.07; stroke: #3AD1D1;" clip-path="url(#cpNi45NzM4NXw3MTMuMDI2fDI4MC40NDV8Ni45NzM4NQ==)"/>
  <line x1="531.12" y1="111.27" x2="531.12" y2="280.43" style="stroke-width: 1.07; stroke: #E8EF04;" clip-path="url(#cpNi45NzM4NXw3MTMuMDI2fDI4MC40NDV8Ni45NzM4NQ==)"/>
  <line x1="631.69" y1="171.45" x2="631.69" y2="280.43" style="stroke-width: 1.07; stroke: #7FBE00;" clip-path="url(#cpNi45NzM4NXw3MTMuMDI2fDI4MC40NDV8Ni45NzM4NQ==)"/>
  <line x1="562.57" y1="174.80" x2="562.57" y2="280.43" style="stroke-width: 1.07; stroke: #003D76;" clip-path="url(#cpNi45NzM4NXw3MTMuMDI2fDI4MC40NDV8Ni45NzM4NQ==)"/>
  <line x1="583.68" y1="63.38" x2="583.68" y2="280.43" style="stroke-width: 1.07; stroke: #3AD1D1;" clip-path="url(#cpNi45NzM4NXw3MTMuMDI2fDI4MC40NDV8Ni45NzM4NQ==)"/>
  <line x1="380.49" y1="148.54" x2="380.49" y2="280.43" style="stroke-width: 1.07; stroke: #0278DD;" clip-path="url(#cpNi45NzM4NXw3MTMuMDI2fDI4MC40NDV8Ni45NzM4NQ==)"/>
  <line x1="554.71" y1="250.94" x2="554.71" y2="280.43" style="stroke-width: 1.07; stroke: #0278DD;" clip-path="url(#cpNi45NzM4NXw3MTMuMDI2fDI4MC40NDV8Ni45NzM4NQ==)"/>
  <line x1="577.89" y1="87.86" x2="577.89" y2="280.43" style="stroke-width: 1.07; stroke: #0278DD;" clip-path="url(#cpNi45NzM4NXw3MTMuMDI2fDI4MC40NDV8Ni45NzM4NQ==)"/>
  <line x1="345.72" y1="227.60" x2="345.72" y2="280.43" style="stroke-width: 1.07; stroke: #E8EF04;" clip-path="url(#cpNi45NzM4NXw3MTMuMDI2fDI4MC40NDV8Ni45NzM4NQ==)"/>
  <line x1="564.64" y1="24.93" x2="564.64" y2="280.43" style="stroke-width: 1.07; stroke: #0278DD;" clip-path="url(#cpNi45NzM4NXw3MTMuMDI2fDI4MC40NDV8Ni45NzM4NQ==)"/>
  <line x1="651.96" y1="121.38" x2="651.96" y2="280.43" style="stroke-width: 1.07; stroke: #E8EF04;" clip-path="url(#cpNi45NzM4NXw3MTMuMDI2fDI4MC40NDV8Ni45NzM4NQ==)"/>
  <line x1="617.62" y1="193.59" x2="617.62" y2="280.42" style="stroke-width: 1.07; stroke: #0278DD;" clip-path="url(#cpNi45NzM4NXw3MTMuMDI2fDI4MC40NDV8Ni45NzM4NQ==)"/>
  <line x1="658.17" y1="60.11" x2="658.17" y2="280.42" style="stroke-width: 1.07; stroke: #E8EF04;" clip-path="url(#cpNi45NzM4NXw3MTMuMDI2fDI4MC40NDV8Ni45NzM4NQ==)"/>
  <line x1="296.48" y1="205.80" x2="296.48" y2="280.42" style="stroke-width: 1.07; stroke: #0278DD;" clip-path="url(#cpNi45NzM4NXw3MTMuMDI2fDI4MC40NDV8Ni45NzM4NQ==)"/>
  <line x1="531.54" y1="24.93" x2="531.54" y2="280.42" style="stroke-width: 1.07; stroke: #E8EF04;" clip-path="url(#cpNi45NzM4NXw3MTMuMDI2fDI4MC40NDV8Ni45NzM4NQ==)"/>
  <line x1="593.20" y1="152.00" x2="593.20" y2="280.42" style="stroke-width: 1.07; stroke: #FF8821;" clip-path="url(#cpNi45NzM4NXw3MTMuMDI2fDI4MC40NDV8Ni45NzM4NQ==)"/>
  <line x1="457.05" y1="153.33" x2="457.05" y2="280.42" style="stroke-width: 1.07; stroke: #0278DD;" clip-path="url(#cpNi45NzM4NXw3MTMuMDI2fDI4MC40NDV8Ni45NzM4NQ==)"/>
  <line x1="396.21" y1="111.25" x2="396.21" y2="280.42" style="stroke-width: 1.07; stroke: #E8EF04;" clip-path="url(#cpNi45NzM4NXw3MTMuMDI2fDI4MC40NDV8Ni45NzM4NQ==)"/>
  <line x1="391.66" y1="195.13" x2="391.66" y2="280.42" style="stroke-width: 1.07; stroke: #3AD1D1;" clip-path="url(#cpNi45NzM4NXw3MTMuMDI2fDI4MC40NDV8Ni45NzM4NQ==)"/>
  <line x1="382.14" y1="91.16" x2="382.14" y2="280.42" style="stroke-width: 1.07; stroke: #FF4237;" clip-path="url(#cpNi45NzM4NXw3MTMuMDI2fDI4MC40NDV8Ni45NzM4NQ==)"/>
  <line x1="412.35" y1="48.35" x2="412.35" y2="280.42" style="stroke-width: 1.07; stroke: #E8EF04;" clip-path="url(#cpNi45NzM4NXw3MTMuMDI2fDI4MC40NDV8Ni45NzM4NQ==)"/>
  <defs>
    <clipPath id="cpNi45NzM4NXw3MTMuMDI2fDI4MC40NDV8Ni45NzM4NQ==">
      <rect x="6.97" y="6.97" width="706.05" height="273.47"/>
    </clipPath>
  </defs>
  <polyline points="394.32,48.35 430.38,48.35 430.30,48.35 430.64,48.34 430.98,48.27 431.31,48.15 431.61,47.97 431.88,47.75 432.11,47.49 432.30,47.20 432.43,46.88 432.51,46.54 432.54,46.19 432.54,46.19 432.54,36.16 432.54,36.16 432.51,35.81 432.43,35.47 432.30,35.15 432.11,34.86 431.88,34.60 431.61,34.38 431.31,34.21 430.98,34.08 430.64,34.01 430.38,34.00 394.32,34.00 394.58,34.01 394.23,34.00 393.89,34.04 393.55,34.14 393.24,34.29 392.95,34.49 392.70,34.73 392.49,35.00 392.33,35.31 392.22,35.64 392.17,35.98 392.16,36.16 392.16,46.19 392.17,46.02 392.17,46.37 392.22,46.71 392.33,47.04 392.49,47.35 392.70,47.63 392.95,47.87 393.24,48.07 393.55,48.21 393.89,48.31 394.23,48.35 " style="stroke-width: 0.53; stroke: #E8EF04; fill: #E3E6A1;" clip-path="url(#cpNi45NzM4NXw3MTMuMDI2fDI4MC40NDV8Ni45NzM4NQ==)"/>
  <g clip-path="url(#cpNi45NzM4NXw3MTMuMDI2fDI4MC40NDV8Ni45NzM4NQ==)">
    <text x="395.76" y="44.75" style="font-size: 9.96px; fill: #000; font-family: Arial;" textLength="33.18px" lengthAdjust="spacingAndGlyphs">StemID</text>
  </g>
  <polyline points="362.72,91.16 401.56,91.16 401.47,91.16 401.82,91.14 402.16,91.07 402.48,90.95 402.78,90.78 403.05,90.56 403.28,90.30 403.47,90.00 403.61,89.68 403.69,89.35 403.72,89.00 403.72,89.00 403.72,78.96 403.72,78.96 403.69,78.62 403.61,78.28 403.47,77.96 403.28,77.67 403.05,77.40 402.78,77.19 402.48,77.01 402.16,76.89 401.82,76.82 401.56,76.80 362.72,76.80 362.98,76.82 362.64,76.80 362.29,76.85 361.96,76.94 361.64,77.09 361.36,77.29 361.11,77.53 360.90,77.81 360.74,78.12 360.63,78.45 360.57,78.79 360.56,78.96 360.56,89.00 360.57,88.83 360.57,89.17 360.63,89.52 360.74,89.85 360.90,90.15 361.11,90.43 361.36,90.67 361.64,90.87 361.96,91.02 362.29,91.12 362.64,91.16 " style="stroke-width: 0.53; stroke: #FF4237; fill: #E6A4A1;" clip-path="url(#cpNi45NzM4NXw3MTMuMDI2fDI4MC40NDV8Ni45NzM4NQ==)"/>
  <g clip-path="url(#cpNi45NzM4NXw3MTMuMDI2fDI4MC40NDV8Ni45NzM4NQ==)">
    <text x="364.16" y="87.56" style="font-size: 9.96px; fill: #000; font-family: Arial;" textLength="35.95px" lengthAdjust="spacingAndGlyphs">SLICER</text>
  </g>
  <polyline points="368.09,195.13 415.23,195.13 415.14,195.12 415.49,195.11 415.83,195.04 416.15,194.92 416.46,194.74 416.72,194.52 416.96,194.26 417.14,193.97 417.28,193.65 417.36,193.31 417.39,192.97 417.39,192.97 417.39,182.93 417.39,182.93 417.36,182.58 417.28,182.25 417.14,181.93 416.96,181.63 416.72,181.37 416.46,181.15 416.15,180.98 415.83,180.86 415.49,180.79 415.23,180.77 368.09,180.77 368.35,180.79 368.00,180.77 367.66,180.81 367.32,180.91 367.01,181.06 366.72,181.26 366.47,181.50 366.26,181.78 366.10,182.08 365.99,182.41 365.94,182.76 365.93,182.93 365.93,192.97 365.94,192.79 365.94,193.14 365.99,193.48 366.10,193.81 366.26,194.12 366.47,194.40 366.72,194.64 367.01,194.84 367.32,194.99 367.66,195.08 368.00,195.12 " style="stroke-width: 0.53; stroke: #3AD1D1; fill: #A1E6E6;" clip-path="url(#cpNi45NzM4NXw3MTMuMDI2fDI4MC40NDV8Ni45NzM4NQ==)"/>
  <g clip-path="url(#cpNi45NzM4NXw3MTMuMDI2fDI4MC40NDV8Ni45NzM4NQ==)">
    <text x="369.53" y="191.53" style="font-size: 9.96px; fill: #000; font-family: Arial;" textLength="44.26px" lengthAdjust="spacingAndGlyphs">Wishbone</text>
  </g>
  <polyline points="377.90,111.25 414.52,111.25 414.43,111.25 414.78,111.23 415.12,111.16 415.44,111.04 415.74,110.87 416.01,110.65 416.24,110.39 416.43,110.09 416.57,109.77 416.65,109.43 416.68,109.09 416.68,109.09 416.68,99.05 416.68,99.05 416.65,98.71 416.57,98.37 416.43,98.05 416.24,97.75 416.01,97.49 415.74,97.27 415.44,97.10 415.12,96.98 414.78,96.91 414.52,96.89 377.90,96.89 378.16,96.91 377.82,96.89 377.47,96.94 377.14,97.03 376.82,97.18 376.54,97.38 376.29,97.62 376.08,97.90 375.92,98.21 375.81,98.54 375.75,98.88 375.74,99.05 375.74,109.09 375.75,108.91 375.75,109.26 375.81,109.61 375.92,109.94 376.08,110.24 376.29,110.52 376.54,110.76 376.82,110.96 377.14,111.11 377.47,111.20 377.82,111.25 " style="stroke-width: 0.53; stroke: #E8EF04; fill: #E3E6A1;" clip-path="url(#cpNi45NzM4NXw3MTMuMDI2fDI4MC40NDV8Ni45NzM4NQ==)"/>
  <g clip-path="url(#cpNi45NzM4NXw3MTMuMDI2fDI4MC40NDV8Ni45NzM4NQ==)">
    <text x="379.34" y="107.65" style="font-size: 9.96px; fill: #000; font-family: Arial;" textLength="33.73px" lengthAdjust="spacingAndGlyphs">TSCAN</text>
  </g>
  <polyline points="429.61,153.33 484.48,153.33 484.39,153.33 484.74,153.31 485.08,153.24 485.40,153.12 485.71,152.95 485.98,152.73 486.21,152.47 486.39,152.17 486.53,151.85 486.61,151.51 486.64,151.17 486.64,151.17 486.64,141.13 486.64,141.13 486.61,140.79 486.53,140.45 486.39,140.13 486.21,139.83 485.98,139.57 485.71,139.35 485.40,139.18 485.08,139.06 484.74,138.99 484.48,138.97 429.61,138.97 429.87,138.99 429.53,138.97 429.18,139.02 428.85,139.11 428.53,139.26 428.25,139.46 428.00,139.70 427.79,139.98 427.62,140.28 427.51,140.61 427.46,140.96 427.45,141.13 427.45,151.17 427.46,150.99 427.46,151.34 427.51,151.68 427.62,152.01 427.79,152.32 428.00,152.60 428.25,152.84 428.53,153.04 428.85,153.19 429.18,153.28 429.53,153.33 " style="stroke-width: 0.53; stroke: #0278DD; fill: #A1C6E6;" clip-path="url(#cpNi45NzM4NXw3MTMuMDI2fDI4MC40NDV8Ni45NzM4NQ==)"/>
  <g clip-path="url(#cpNi45NzM4NXw3MTMuMDI2fDI4MC40NDV8Ni45NzM4NQ==)">
    <text x="431.05" y="149.73" style="font-size: 9.96px; fill: #000; font-family: Arial;" textLength="51.99px" lengthAdjust="spacingAndGlyphs">SCORPIUS</text>
  </g>
  <polyline points="573.51,152.00 612.89,152.00 612.80,152.00 613.15,151.98 613.49,151.91 613.81,151.79 614.11,151.62 614.38,151.40 614.61,151.14 614.80,150.84 614.94,150.52 615.02,150.18 615.05,149.84 615.05,149.84 615.05,139.80 615.05,139.80 615.02,139.45 614.94,139.12 614.80,138.80 614.61,138.50 614.38,138.24 614.11,138.02 613.81,137.85 613.49,137.73 613.15,137.66 612.89,137.64 573.51,137.64 573.77,137.66 573.42,137.64 573.08,137.69 572.74,137.78 572.43,137.93 572.14,138.13 571.89,138.37 571.68,138.65 571.52,138.95 571.41,139.28 571.36,139.63 571.35,139.80 571.35,149.84 571.36,149.66 571.36,150.01 571.41,150.35 571.52,150.68 571.68,150.99 571.89,151.27 572.14,151.51 572.43,151.71 572.74,151.86 573.08,151.95 573.42,152.00 " style="stroke-width: 0.53; stroke: #FF8821; fill: #E6C1A1;" clip-path="url(#cpNi45NzM4NXw3MTMuMDI2fDI4MC40NDV8Ni45NzM4NQ==)"/>
  <g clip-path="url(#cpNi45NzM4NXw3MTMuMDI2fDI4MC40NDV8Ni45NzM4NQ==)">
    <text x="574.95" y="148.40" style="font-size: 9.96px; fill: #000; font-family: Arial;" textLength="36.50px" lengthAdjust="spacingAndGlyphs">B-RGPs</text>
  </g>
  <polyline points="511.85,24.93 551.23,24.93 551.14,24.93 551.49,24.91 551.83,24.84 552.15,24.72 552.45,24.55 552.72,24.33 552.95,24.07 553.14,23.77 553.27,23.45 553.36,23.12 553.39,22.77 553.39,22.77 553.39,12.73 553.39,12.73 553.36,12.39 553.27,12.05 553.14,11.73 552.95,11.44 552.72,11.18 552.45,10.96 552.15,10.78 551.83,10.66 551.49,10.59 551.23,10.57 511.85,10.57 512.11,10.59 511.76,10.58 511.42,10.62 511.08,10.71 510.77,10.86 510.48,11.06 510.23,11.30 510.02,11.58 509.86,11.89 509.75,12.22 509.69,12.56 509.69,12.73 509.69,22.77 509.69,22.60 509.69,22.94 509.75,23.29 509.86,23.62 510.02,23.92 510.23,24.20 510.48,24.44 510.77,24.64 511.08,24.79 511.42,24.89 511.76,24.93 " style="stroke-width: 0.53; stroke: #E8EF04; fill: #E3E6A1;" clip-path="url(#cpNi45NzM4NXw3MTMuMDI2fDI4MC40NDV8Ni45NzM4NQ==)"/>
  <g clip-path="url(#cpNi45NzM4NXw3MTMuMDI2fDI4MC40NDV8Ni45NzM4NQ==)">
    <text x="513.29" y="21.33" style="font-size: 9.96px; fill: #000; font-family: Arial;" textLength="36.50px" lengthAdjust="spacingAndGlyphs">SOMSC</text>
  </g>
  <polyline points="266.54,205.80 326.41,205.80 326.32,205.80 326.67,205.79 327.01,205.72 327.34,205.59 327.64,205.42 327.91,205.20 328.14,204.94 328.32,204.64 328.46,204.32 328.54,203.99 328.57,203.64 328.57,203.64 328.57,193.60 328.57,193.60 328.54,193.26 328.46,192.92 328.32,192.60 328.14,192.31 327.91,192.05 327.64,191.83 327.34,191.65 327.01,191.53 326.67,191.46 326.41,191.44 266.54,191.44 266.80,191.46 266.45,191.45 266.11,191.49 265.77,191.59 265.46,191.73 265.17,191.93 264.92,192.17 264.71,192.45 264.55,192.76 264.44,193.09 264.39,193.43 264.38,193.60 264.38,203.64 264.39,203.47 264.39,203.81 264.44,204.16 264.55,204.49 264.71,204.80 264.92,205.07 265.17,205.31 265.46,205.51 265.77,205.66 266.11,205.76 266.45,205.80 " style="stroke-width: 0.53; stroke: #0278DD; fill: #A1C6E6;" clip-path="url(#cpNi45NzM4NXw3MTMuMDI2fDI4MC40NDV8Ni45NzM4NQ==)"/>
  <g clip-path="url(#cpNi45NzM4NXw3MTMuMDI2fDI4MC40NDV8Ni45NzM4NQ==)">
    <text x="267.98" y="202.20" style="font-size: 9.96px; fill: #000; font-family: Arial;" textLength="56.99px" lengthAdjust="spacingAndGlyphs">gpseudotime</text>
  </g>
  <polyline points="638.75,60.11 677.59,60.11 677.51,60.11 677.85,60.10 678.19,60.03 678.52,59.91 678.82,59.73 679.09,59.51 679.32,59.25 679.51,58.96 679.64,58.64 679.73,58.30 679.75,57.95 679.75,57.95 679.75,47.92 679.75,47.92 679.73,47.57 679.64,47.23 679.51,46.91 679.32,46.62 679.09,46.36 678.82,46.14 678.52,45.97 678.19,45.84 677.85,45.77 677.59,45.76 638.75,45.76 639.01,45.77 638.66,45.76 638.32,45.80 637.98,45.90 637.67,46.05 637.38,46.25 637.13,46.49 636.92,46.76 636.76,47.07 636.65,47.40 636.60,47.74 636.59,47.92 636.59,57.95 636.60,57.78 636.60,58.13 636.65,58.47 636.76,58.80 636.92,59.11 637.13,59.39 637.38,59.63 637.67,59.83 637.98,59.97 638.32,60.07 638.66,60.11 " style="stroke-width: 0.53; stroke: #E8EF04; fill: #E3E6A1;" clip-path="url(#cpNi45NzM4NXw3MTMuMDI2fDI4MC40NDV8Ni45NzM4NQ==)"/>
  <g clip-path="url(#cpNi45NzM4NXw3MTMuMDI2fDI4MC40NDV8Ni45NzM4NQ==)">
    <text x="640.19" y="56.51" style="font-size: 9.96px; fill: #000; font-family: Arial;" textLength="35.96px" lengthAdjust="spacingAndGlyphs">scEpath</text>
  </g>
  <polyline points="583.81,193.59 651.42,193.59 651.34,193.59 651.68,193.57 652.02,193.50 652.35,193.38 652.65,193.21 652.92,192.99 653.15,192.73 653.34,192.43 653.47,192.11 653.55,191.78 653.58,191.43 653.58,191.43 653.58,181.39 653.58,181.39 653.55,181.05 653.47,180.71 653.34,180.39 653.15,180.10 652.92,179.84 652.65,179.62 652.35,179.44 652.02,179.32 651.68,179.25 651.42,179.23 583.81,179.23 584.07,179.25 583.72,179.24 583.38,179.28 583.04,179.37 582.73,179.52 582.44,179.72 582.19,179.96 581.98,180.24 581.82,180.55 581.71,180.88 581.66,181.22 581.65,181.39 581.65,191.43 581.66,191.26 581.66,191.60 581.71,191.95 581.82,192.28 581.98,192.58 582.19,192.86 582.44,193.10 582.73,193.30 583.04,193.45 583.38,193.55 583.72,193.59 " style="stroke-width: 0.53; stroke: #0278DD; fill: #A1C6E6;" clip-path="url(#cpNi45NzM4NXw3MTMuMDI2fDI4MC40NDV8Ni45NzM4NQ==)"/>
  <g clip-path="url(#cpNi45NzM4NXw3MTMuMDI2fDI4MC40NDV8Ni45NzM4NQ==)">
    <text x="585.25" y="189.99" style="font-size: 9.96px; fill: #000; font-family: Arial;" textLength="64.73px" lengthAdjust="spacingAndGlyphs">GPseudoRank</text>
  </g>
  <polyline points="622.03,121.38 681.90,121.38 681.81,121.38 682.16,121.36 682.50,121.29 682.83,121.17 683.13,121.00 683.40,120.78 683.63,120.52 683.81,120.22 683.95,119.90 684.03,119.57 684.06,119.22 684.06,119.22 684.06,109.18 684.06,109.18 684.03,108.84 683.95,108.50 683.81,108.18 683.63,107.89 683.40,107.63 683.13,107.41 682.83,107.23 682.50,107.11 682.16,107.04 681.90,107.02 622.03,107.02 622.29,107.04 621.94,107.03 621.60,107.07 621.26,107.16 620.95,107.31 620.66,107.51 620.41,107.75 620.20,108.03 620.04,108.34 619.93,108.67 619.87,109.01 619.87,109.18 619.87,119.22 619.87,119.05 619.87,119.39 619.93,119.74 620.04,120.07 620.20,120.37 620.41,120.65 620.66,120.89 620.95,121.09 621.26,121.24 621.60,121.34 621.94,121.38 " style="stroke-width: 0.53; stroke: #E8EF04; fill: #E3E6A1;" clip-path="url(#cpNi45NzM4NXw3MTMuMDI2fDI4MC40NDV8Ni45NzM4NQ==)"/>
  <g clip-path="url(#cpNi45NzM4NXw3MTMuMDI2fDI4MC40NDV8Ni45NzM4NQ==)">
    <text x="623.47" y="117.78" style="font-size: 9.96px; fill: #000; font-family: Arial;" textLength="56.99px" lengthAdjust="spacingAndGlyphs">Topographer</text>
  </g>
  <polyline points="538.60,24.93 590.69,24.93 590.60,24.93 590.95,24.91 591.29,24.84 591.62,24.72 591.92,24.55 592.19,24.33 592.42,24.07 592.60,23.77 592.74,23.45 592.82,23.12 592.85,22.77 592.85,22.77 592.85,12.73 592.85,12.73 592.82,12.39 592.74,12.05 592.60,11.73 592.42,11.44 592.19,11.18 591.92,10.96 591.62,10.78 591.29,10.66 590.95,10.59 590.69,10.57 538.60,10.57 538.86,10.59 538.51,10.58 538.17,10.62 537.83,10.71 537.52,10.86 537.23,11.06 536.98,11.30 536.77,11.58 536.61,11.89 536.50,12.22 536.45,12.56 536.44,12.73 536.44,22.77 536.45,22.60 536.45,22.94 536.50,23.29 536.61,23.62 536.77,23.92 536.98,24.20 537.23,24.44 537.52,24.64 537.83,24.79 538.17,24.89 538.51,24.93 " style="stroke-width: 0.53; stroke: #0278DD; fill: #A1C6E6;" clip-path="url(#cpNi45NzM4NXw3MTMuMDI2fDI4MC40NDV8Ni45NzM4NQ==)"/>
  <g clip-path="url(#cpNi45NzM4NXw3MTMuMDI2fDI4MC40NDV8Ni45NzM4NQ==)">
    <text x="540.04" y="21.33" style="font-size: 9.96px; fill: #000; font-family: Arial;" textLength="49.21px" lengthAdjust="spacingAndGlyphs">MATCHER</text>
  </g>
  <polyline points="326.31,227.60 365.14,227.60 365.05,227.60 365.40,227.59 365.74,227.52 366.07,227.39 366.37,227.22 366.64,227.00 366.87,226.74 367.05,226.45 367.19,226.13 367.27,225.79 367.30,225.44 367.30,225.44 367.30,215.41 367.30,215.41 367.27,215.06 367.19,214.72 367.05,214.40 366.87,214.11 366.64,213.85 366.37,213.63 366.07,213.46 365.74,213.33 365.40,213.26 365.14,213.25 326.31,213.25 326.57,213.26 326.22,213.25 325.87,213.29 325.54,213.39 325.23,213.54 324.94,213.73 324.69,213.97 324.48,214.25 324.32,214.56 324.21,214.89 324.15,215.23 324.15,215.41 324.15,225.44 324.15,225.27 324.15,225.62 324.21,225.96 324.32,226.29 324.48,226.60 324.69,226.88 324.94,227.12 325.23,227.31 325.54,227.46 325.87,227.56 326.22,227.60 " style="stroke-width: 0.53; stroke: #E8EF04; fill: #E3E6A1;" clip-path="url(#cpNi45NzM4NXw3MTMuMDI2fDI4MC40NDV8Ni45NzM4NQ==)"/>
  <g clip-path="url(#cpNi45NzM4NXw3MTMuMDI2fDI4MC40NDV8Ni45NzM4NQ==)">
    <text x="327.75" y="224.00" style="font-size: 9.96px; fill: #000; font-family: Arial;" textLength="35.95px" lengthAdjust="spacingAndGlyphs">ECLAIR</text>
  </g>
  <polyline points="559.30,87.86 596.48,87.86 596.39,87.86 596.74,87.85 597.08,87.78 597.40,87.65 597.70,87.48 597.97,87.26 598.20,87.00 598.39,86.71 598.53,86.39 598.61,86.05 598.64,85.70 598.64,85.70 598.64,75.67 598.64,75.67 598.61,75.32 598.53,74.98 598.39,74.66 598.20,74.37 597.97,74.11 597.70,73.89 597.40,73.71 597.08,73.59 596.74,73.52 596.48,73.51 559.30,73.51 559.56,73.52 559.21,73.51 558.86,73.55 558.53,73.65 558.22,73.79 557.93,73.99 557.68,74.23 557.47,74.51 557.31,74.82 557.20,75.15 557.14,75.49 557.14,75.67 557.14,85.70 557.14,85.53 557.14,85.88 557.20,86.22 557.31,86.55 557.47,86.86 557.68,87.13 557.93,87.37 558.22,87.57 558.53,87.72 558.86,87.82 559.21,87.86 " style="stroke-width: 0.53; stroke: #0278DD; fill: #A1C6E6;" clip-path="url(#cpNi45NzM4NXw3MTMuMDI2fDI4MC40NDV8Ni45NzM4NQ==)"/>
  <g clip-path="url(#cpNi45NzM4NXw3MTMuMDI2fDI4MC40NDV8Ni45NzM4NQ==)">
    <text x="560.74" y="84.26" style="font-size: 9.96px; fill: #000; font-family: Arial;" textLength="34.30px" lengthAdjust="spacingAndGlyphs">SoptSC</text>
  </g>
  <polyline points="532.53,250.94 576.89,250.94 576.80,250.94 577.15,250.92 577.49,250.85 577.81,250.73 578.12,250.56 578.39,250.34 578.62,250.07 578.80,249.78 578.94,249.46 579.02,249.12 579.05,248.78 579.05,248.78 579.05,238.74 579.05,238.74 579.02,238.39 578.94,238.06 578.80,237.74 578.62,237.44 578.39,237.18 578.12,236.96 577.81,236.79 577.49,236.67 577.15,236.60 576.89,236.58 532.53,236.58 532.79,236.60 532.45,236.58 532.10,236.62 531.77,236.72 531.45,236.87 531.17,237.07 530.92,237.31 530.71,237.59 530.55,237.89 530.44,238.22 530.38,238.57 530.37,238.74 530.37,248.78 530.38,248.60 530.38,248.95 530.44,249.29 530.55,249.62 530.71,249.93 530.92,250.21 531.17,250.45 531.45,250.65 531.77,250.80 532.10,250.89 532.45,250.94 " style="stroke-width: 0.53; stroke: #0278DD; fill: #A1C6E6;" clip-path="url(#cpNi45NzM4NXw3MTMuMDI2fDI4MC40NDV8Ni45NzM4NQ==)"/>
  <g clip-path="url(#cpNi45NzM4NXw3MTMuMDI2fDI4MC40NDV8Ni45NzM4NQ==)">
    <text x="533.97" y="247.34" style="font-size: 9.96px; fill: #000; font-family: Arial;" textLength="41.47px" lengthAdjust="spacingAndGlyphs">UNCURL</text>
  </g>
  <polyline points="357.18,148.54 403.79,148.54 403.70,148.54 404.05,148.52 404.39,148.45 404.71,148.33 405.01,148.16 405.28,147.94 405.51,147.68 405.70,147.38 405.84,147.06 405.92,146.73 405.95,146.38 405.95,146.38 405.95,136.34 405.95,136.34 405.92,136.00 405.84,135.66 405.70,135.34 405.51,135.05 405.28,134.79 405.01,134.57 404.71,134.39 404.39,134.27 404.05,134.20 403.79,134.18 357.18,134.18 357.44,134.20 357.10,134.18 356.75,134.23 356.42,134.32 356.10,134.47 355.82,134.67 355.57,134.91 355.36,135.19 355.20,135.50 355.09,135.83 355.03,136.17 355.02,136.34 355.02,146.38 355.03,146.21 355.03,146.55 355.09,146.90 355.20,147.23 355.36,147.53 355.57,147.81 355.82,148.05 356.10,148.25 356.42,148.40 356.75,148.50 357.10,148.54 " style="stroke-width: 0.53; stroke: #0278DD; fill: #A1C6E6;" clip-path="url(#cpNi45NzM4NXw3MTMuMDI2fDI4MC40NDV8Ni45NzM4NQ==)"/>
  <g clip-path="url(#cpNi45NzM4NXw3MTMuMDI2fDI4MC40NDV8Ni45NzM4NQ==)">
    <text x="358.62" y="144.94" style="font-size: 9.96px; fill: #000; font-family: Arial;" textLength="43.72px" lengthAdjust="spacingAndGlyphs">pseudogp</text>
  </g>
  <polyline points="566.47,63.38 600.89,63.38 600.80,63.38 601.15,63.37 601.49,63.30 601.81,63.17 602.12,63.00 602.38,62.78 602.62,62.52 602.80,62.23 602.94,61.91 603.02,61.57 603.05,61.22 603.05,61.22 603.05,51.19 603.05,51.19 603.02,50.84 602.94,50.50 602.80,50.18 602.62,49.89 602.38,49.63 602.12,49.41 601.81,49.23 601.49,49.11 601.15,49.04 600.89,49.03 566.47,49.03 566.73,49.04 566.39,49.03 566.04,49.07 565.71,49.17 565.39,49.32 565.11,49.51 564.86,49.75 564.65,50.03 564.49,50.34 564.38,50.67 564.32,51.01 564.31,51.19 564.31,61.22 564.32,61.05 564.32,61.40 564.38,61.74 564.49,62.07 564.65,62.38 564.86,62.65 565.11,62.90 565.39,63.09 565.71,63.24 566.04,63.34 566.39,63.38 " style="stroke-width: 0.53; stroke: #3AD1D1; fill: #A1E6E6;" clip-path="url(#cpNi45NzM4NXw3MTMuMDI2fDI4MC40NDV8Ni45NzM4NQ==)"/>
  <g clip-path="url(#cpNi45NzM4NXw3MTMuMDI2fDI4MC40NDV8Ni45NzM4NQ==)">
    <text x="567.91" y="59.78" style="font-size: 9.96px; fill: #000; font-family: Arial;" textLength="31.54px" lengthAdjust="spacingAndGlyphs">scanpy</text>
  </g>
  <polyline points="546.76,174.80 578.39,174.80 578.31,174.79 578.65,174.78 578.99,174.71 579.32,174.59 579.62,174.41 579.89,174.19 580.12,173.93 580.31,173.64 580.44,173.32 580.52,172.98 580.55,172.64 580.55,172.64 580.55,162.60 580.55,162.60 580.52,162.25 580.44,161.92 580.31,161.60 580.12,161.30 579.89,161.04 579.62,160.82 579.32,160.65 578.99,160.53 578.65,160.46 578.39,160.44 546.76,160.44 547.02,160.46 546.67,160.44 546.32,160.48 545.99,160.58 545.68,160.73 545.39,160.93 545.14,161.17 544.93,161.45 544.77,161.75 544.66,162.08 544.60,162.43 544.60,162.60 544.60,172.64 544.60,172.46 544.60,172.81 544.66,173.15 544.77,173.48 544.93,173.79 545.14,174.07 545.39,174.31 545.68,174.51 545.99,174.66 546.32,174.75 546.67,174.79 " style="stroke-width: 0.53; stroke: #003D76; fill: #A1C4E6;" clip-path="url(#cpNi45NzM4NXw3MTMuMDI2fDI4MC40NDV8Ni45NzM4NQ==)"/>
  <g clip-path="url(#cpNi45NzM4NXw3MTMuMDI2fDI4MC40NDV8Ni45NzM4NQ==)">
    <text x="548.20" y="171.20" style="font-size: 9.96px; fill: #000; font-family: Arial;" textLength="28.76px" lengthAdjust="spacingAndGlyphs">reCAT</text>
  </g>
  <polyline points="607.84,171.45 655.53,171.45 655.44,171.45 655.79,171.43 656.13,171.36 656.45,171.24 656.75,171.07 657.02,170.85 657.25,170.59 657.44,170.29 657.58,169.97 657.66,169.64 657.69,169.29 657.69,169.29 657.69,159.25 657.69,159.25 657.66,158.91 657.58,158.57 657.44,158.25 657.25,157.96 657.02,157.69 656.75,157.48 656.45,157.30 656.13,157.18 655.79,157.11 655.53,157.09 607.84,157.09 608.10,157.11 607.76,157.09 607.41,157.14 607.08,157.23 606.76,157.38 606.48,157.58 606.23,157.82 606.02,158.10 605.86,158.41 605.75,158.74 605.69,159.08 605.68,159.25 605.68,169.29 605.69,169.12 605.69,169.46 605.75,169.81 605.86,170.14 606.02,170.44 606.23,170.72 606.48,170.96 606.76,171.16 607.08,171.31 607.41,171.41 607.76,171.45 " style="stroke-width: 0.53; stroke: #7FBE00; fill: #CFE6A1;" clip-path="url(#cpNi45NzM4NXw3MTMuMDI2fDI4MC40NDV8Ni45NzM4NQ==)"/>
  <g clip-path="url(#cpNi45NzM4NXw3MTMuMDI2fDI4MC40NDV8Ni45NzM4NQ==)">
    <text x="609.28" y="167.85" style="font-size: 9.96px; fill: #000; font-family: Arial;" textLength="44.80px" lengthAdjust="spacingAndGlyphs">GrandPrix</text>
  </g>
  <polyline points="515.03,111.27 547.22,111.27 547.13,111.27 547.48,111.25 547.82,111.18 548.14,111.06 548.44,110.89 548.71,110.67 548.94,110.41 549.13,110.11 549.27,109.79 549.35,109.46 549.38,109.11 549.38,109.11 549.38,99.07 549.38,99.07 549.35,98.73 549.27,98.39 549.13,98.07 548.94,97.77 548.71,97.51 548.44,97.29 548.14,97.12 547.82,97.00 547.48,96.93 547.22,96.91 515.03,96.91 515.29,96.93 514.94,96.91 514.60,96.96 514.26,97.05 513.95,97.20 513.66,97.40 513.41,97.64 513.20,97.92 513.04,98.23 512.93,98.56 512.87,98.90 512.87,99.07 512.87,109.11 512.87,108.93 512.87,109.28 512.93,109.63 513.04,109.96 513.20,110.26 513.41,110.54 513.66,110.78 513.95,110.98 514.26,111.13 514.60,111.23 514.94,111.27 " style="stroke-width: 0.53; stroke: #E8EF04; fill: #E3E6A1;" clip-path="url(#cpNi45NzM4NXw3MTMuMDI2fDI4MC40NDV8Ni45NzM4NQ==)"/>
  <g clip-path="url(#cpNi45NzM4NXw3MTMuMDI2fDI4MC40NDV8Ni45NzM4NQ==)">
    <text x="516.47" y="107.67" style="font-size: 9.96px; fill: #000; font-family: Arial;" textLength="29.31px" lengthAdjust="spacingAndGlyphs">TASIC</text>
  </g>
  <polyline points="345.50,273.13 368.29,273.13 368.20,273.13 368.55,273.11 368.89,273.04 369.22,272.92 369.52,272.75 369.79,272.53 370.02,272.27 370.20,271.97 370.34,271.65 370.42,271.31 370.45,270.97 370.45,270.97 370.45,260.93 370.45,260.93 370.42,260.59 370.34,260.25 370.20,259.93 370.02,259.63 369.79,259.37 369.52,259.15 369.22,258.98 368.89,258.86 368.55,258.79 368.29,258.77 345.50,258.77 345.76,258.79 345.42,258.77 345.07,258.82 344.74,258.91 344.42,259.06 344.14,259.26 343.89,259.50 343.68,259.78 343.52,260.09 343.41,260.42 343.35,260.76 343.34,260.93 343.34,270.97 343.35,270.79 343.35,271.14 343.41,271.49 343.52,271.81 343.68,272.12 343.89,272.40 344.14,272.64 344.42,272.84 344.74,272.99 345.07,273.08 345.42,273.13 " style="stroke-width: 0.53; stroke: #3AD1D1; fill: #A1E6E6;" clip-path="url(#cpNi45NzM4NXw3MTMuMDI2fDI4MC40NDV8Ni45NzM4NQ==)"/>
  <g clip-path="url(#cpNi45NzM4NXw3MTMuMDI2fDI4MC40NDV8Ni45NzM4NQ==)">
    <text x="346.94" y="269.53" style="font-size: 9.96px; fill: #000; font-family: Arial;" textLength="19.91px" lengthAdjust="spacingAndGlyphs">DPT</text>
  </g>
  <polyline points="400.12,69.70 426.24,69.70 426.15,69.70 426.50,69.69 426.84,69.62 427.16,69.50 427.46,69.32 427.73,69.10 427.96,68.84 428.15,68.55 428.28,68.23 428.37,67.89 428.40,67.54 428.40,67.54 428.40,57.51 428.40,57.51 428.37,57.16 428.28,56.82 428.15,56.50 427.96,56.21 427.73,55.95 427.46,55.73 427.16,55.56 426.84,55.43 426.50,55.36 426.24,55.35 400.12,55.35 400.38,55.36 400.03,55.35 399.69,55.39 399.35,55.49 399.04,55.64 398.75,55.83 398.50,56.08 398.30,56.35 398.13,56.66 398.02,56.99 397.97,57.33 397.96,57.51 397.96,67.54 397.97,67.37 397.97,67.72 398.02,68.06 398.13,68.39 398.30,68.70 398.50,68.98 398.75,69.22 399.04,69.41 399.35,69.56 399.69,69.66 400.03,69.70 " style="stroke-width: 0.53; stroke: #0278DD; fill: #A1C6E6;" clip-path="url(#cpNi45NzM4NXw3MTMuMDI2fDI4MC40NDV8Ni45NzM4NQ==)"/>
  <g clip-path="url(#cpNi45NzM4NXw3MTMuMDI2fDI4MC40NDV8Ni45NzM4NQ==)">
    <text x="401.56" y="66.10" style="font-size: 9.96px; fill: #000; font-family: Arial;" textLength="23.24px" lengthAdjust="spacingAndGlyphs">Ouija</text>
  </g>
  <polyline points="508.54,45.35 544.60,45.35 544.52,45.34 544.86,45.33 545.20,45.26 545.53,45.14 545.83,44.96 546.10,44.74 546.33,44.48 546.51,44.19 546.65,43.87 546.73,43.53 546.76,43.19 546.76,43.19 546.76,33.15 546.76,33.15 546.73,32.80 546.65,32.46 546.51,32.15 546.33,31.85 546.10,31.59 545.83,31.37 545.53,31.20 545.20,31.07 544.86,31.00 544.60,30.99 508.54,30.99 508.80,31.00 508.45,30.99 508.11,31.03 507.77,31.13 507.46,31.28 507.17,31.48 506.92,31.72 506.71,31.99 506.55,32.30 506.44,32.63 506.39,32.98 506.38,33.15 506.38,43.19 506.39,43.01 506.39,43.36 506.44,43.70 506.55,44.03 506.71,44.34 506.92,44.62 507.17,44.86 507.46,45.06 507.77,45.20 508.11,45.30 508.45,45.34 " style="stroke-width: 0.53; stroke: #E8EF04; fill: #E3E6A1;" clip-path="url(#cpNi45NzM4NXw3MTMuMDI2fDI4MC40NDV8Ni45NzM4NQ==)"/>
  <g clip-path="url(#cpNi45NzM4NXw3MTMuMDI2fDI4MC40NDV8Ni45NzM4NQ==)">
    <text x="509.98" y="41.75" style="font-size: 9.96px; fill: #000; font-family: Arial;" textLength="33.18px" lengthAdjust="spacingAndGlyphs">PHATE</text>
  </g>
  <polyline points="170.71,249.89 207.88,249.89 207.79,249.89 208.14,249.88 208.48,249.81 208.80,249.68 209.10,249.51 209.37,249.29 209.60,249.03 209.79,248.74 209.93,248.42 210.01,248.08 210.04,247.73 210.04,247.73 210.04,237.70 210.04,237.70 210.01,237.35 209.93,237.01 209.79,236.69 209.60,236.40 209.37,236.14 209.10,235.92 208.80,235.75 208.48,235.62 208.14,235.55 207.88,235.54 170.71,235.54 170.97,235.55 170.62,235.54 170.27,235.58 169.94,235.68 169.63,235.83 169.34,236.02 169.09,236.26 168.88,236.54 168.72,236.85 168.61,237.18 168.55,237.52 168.55,237.70 168.55,247.73 168.55,247.56 168.55,247.91 168.61,248.25 168.72,248.58 168.88,248.89 169.09,249.17 169.34,249.41 169.63,249.60 169.94,249.75 170.27,249.85 170.62,249.89 " style="stroke-width: 0.53; stroke: #E8EF04; fill: #E3E6A1;" clip-path="url(#cpNi45NzM4NXw3MTMuMDI2fDI4MC40NDV8Ni45NzM4NQ==)"/>
  <g clip-path="url(#cpNi45NzM4NXw3MTMuMDI2fDI4MC40NDV8Ni45NzM4NQ==)">
    <text x="172.15" y="246.29" style="font-size: 9.96px; fill: #000; font-family: Arial;" textLength="34.29px" lengthAdjust="spacingAndGlyphs">SCUBA</text>
  </g>
  <polyline points="559.39,226.24 648.52,226.24 648.44,226.23 648.78,226.22 649.12,226.15 649.45,226.03 649.75,225.85 650.02,225.63 650.25,225.37 650.44,225.08 650.57,224.76 650.66,224.42 650.68,224.08 650.68,224.08 650.68,214.04 650.68,214.04 650.66,213.69 650.57,213.35 650.44,213.03 650.25,212.74 650.02,212.48 649.75,212.26 649.45,212.09 649.12,211.96 648.78,211.89 648.52,211.88 559.39,211.88 559.65,211.89 559.31,211.88 558.96,211.92 558.63,212.02 558.31,212.17 558.03,212.37 557.78,212.61 557.57,212.88 557.41,213.19 557.30,213.52 557.24,213.86 557.23,214.04 557.23,224.08 557.24,223.90 557.24,224.25 557.30,224.59 557.41,224.92 557.57,225.23 557.78,225.51 558.03,225.75 558.31,225.95 558.63,226.09 558.96,226.19 559.31,226.23 " style="stroke-width: 0.53; stroke: #FF4237; fill: #E6A4A1;" clip-path="url(#cpNi45NzM4NXw3MTMuMDI2fDI4MC40NDV8Ni45NzM4NQ==)"/>
  <g clip-path="url(#cpNi45NzM4NXw3MTMuMDI2fDI4MC40NDV8Ni45NzM4NQ==)">
    <text x="560.83" y="222.64" style="font-size: 9.96px; fill: #000; font-family: Arial;" textLength="86.25px" lengthAdjust="spacingAndGlyphs">WADDINGTON-OT</text>
  </g>
  <polyline points="387.40,236.21 433.99,236.21 433.91,236.20 434.25,236.19 434.59,236.12 434.92,236.00 435.22,235.82 435.49,235.60 435.72,235.34 435.91,235.05 436.04,234.73 436.12,234.39 436.15,234.05 436.15,234.05 436.15,224.01 436.15,224.01 436.12,223.66 436.04,223.33 435.91,223.01 435.72,222.71 435.49,222.45 435.22,222.23 434.92,222.06 434.59,221.94 434.25,221.87 433.99,221.85 387.40,221.85 387.66,221.87 387.31,221.85 386.97,221.89 386.63,221.99 386.32,222.14 386.03,222.34 385.78,222.58 385.57,222.86 385.41,223.16 385.30,223.49 385.24,223.84 385.24,224.01 385.24,234.05 385.24,233.87 385.24,234.22 385.30,234.56 385.41,234.89 385.57,235.20 385.78,235.48 386.03,235.72 386.32,235.92 386.63,236.07 386.97,236.16 387.31,236.20 " style="stroke-width: 0.53; stroke: #0278DD; fill: #A1C6E6;" clip-path="url(#cpNi45NzM4NXw3MTMuMDI2fDI4MC40NDV8Ni45NzM4NQ==)"/>
  <g clip-path="url(#cpNi45NzM4NXw3MTMuMDI2fDI4MC40NDV8Ni45NzM4NQ==)">
    <text x="388.84" y="232.61" style="font-size: 9.96px; fill: #000; font-family: Arial;" textLength="43.72px" lengthAdjust="spacingAndGlyphs">DeLorean</text>
  </g>
  <polyline points="409.89,131.50 461.99,131.50 461.90,131.50 462.25,131.49 462.59,131.42 462.92,131.30 463.22,131.12 463.49,130.90 463.72,130.64 463.90,130.35 464.04,130.03 464.12,129.69 464.15,129.34 464.15,129.34 464.15,119.31 464.15,119.31 464.12,118.96 464.04,118.62 463.90,118.30 463.72,118.01 463.49,117.75 463.22,117.53 462.92,117.36 462.59,117.23 462.25,117.16 461.99,117.15 409.89,117.15 410.15,117.16 409.80,117.15 409.46,117.19 409.12,117.29 408.81,117.44 408.52,117.64 408.27,117.88 408.06,118.15 407.90,118.46 407.79,118.79 407.74,119.13 407.73,119.31 407.73,129.34 407.74,129.17 407.74,129.52 407.79,129.86 407.90,130.19 408.06,130.50 408.27,130.78 408.52,131.02 408.81,131.22 409.12,131.36 409.46,131.46 409.80,131.50 " style="stroke-width: 0.53; stroke: #0278DD; fill: #A1C6E6;" clip-path="url(#cpNi45NzM4NXw3MTMuMDI2fDI4MC40NDV8Ni45NzM4NQ==)"/>
  <g clip-path="url(#cpNi45NzM4NXw3MTMuMDI2fDI4MC40NDV8Ni45NzM4NQ==)">
    <text x="411.33" y="127.90" style="font-size: 9.96px; fill: #000; font-family: Arial;" textLength="49.22px" lengthAdjust="spacingAndGlyphs">WaveCrest</text>
  </g>
  <polyline points="270.44,229.65 312.58,229.65 312.50,229.65 312.84,229.64 313.18,229.57 313.51,229.44 313.81,229.27 314.08,229.05 314.31,228.79 314.50,228.50 314.63,228.18 314.72,227.84 314.74,227.49 314.74,227.49 314.74,217.46 314.74,217.46 314.72,217.11 314.63,216.77 314.50,216.45 314.31,216.16 314.08,215.90 313.81,215.68 313.51,215.50 313.18,215.38 312.84,215.31 312.58,215.30 270.44,215.30 270.70,215.31 270.35,215.30 270.00,215.34 269.67,215.44 269.36,215.59 269.07,215.78 268.82,216.02 268.61,216.30 268.45,216.61 268.34,216.94 268.28,217.28 268.28,217.46 268.28,227.49 268.28,227.32 268.28,227.67 268.34,228.01 268.45,228.34 268.61,228.65 268.82,228.92 269.07,229.17 269.36,229.36 269.67,229.51 270.00,229.61 270.35,229.65 " style="stroke-width: 0.53; stroke: #0278DD; fill: #A1C6E6;" clip-path="url(#cpNi45NzM4NXw3MTMuMDI2fDI4MC40NDV8Ni45NzM4NQ==)"/>
  <g clip-path="url(#cpNi45NzM4NXw3MTMuMDI2fDI4MC40NDV8Ni45NzM4NQ==)">
    <text x="271.88" y="226.05" style="font-size: 9.96px; fill: #000; font-family: Arial;" textLength="39.27px" lengthAdjust="spacingAndGlyphs">Waterfall</text>
  </g>
  <polyline points="602.05,87.24 646.42,87.24 646.34,87.24 646.68,87.23 647.02,87.16 647.35,87.03 647.65,86.86 647.92,86.64 648.15,86.38 648.34,86.09 648.47,85.77 648.56,85.43 648.58,85.08 648.58,85.08 648.58,75.05 648.58,75.05 648.56,74.70 648.47,74.36 648.34,74.04 648.15,73.75 647.92,73.49 647.65,73.27 647.35,73.09 647.02,72.97 646.68,72.90 646.42,72.89 602.05,72.89 602.31,72.90 601.96,72.89 601.62,72.93 601.28,73.03 600.97,73.18 600.68,73.37 600.43,73.61 600.22,73.89 600.06,74.20 599.95,74.53 599.90,74.87 599.89,75.05 599.89,85.08 599.90,84.91 599.90,85.26 599.95,85.60 600.06,85.93 600.22,86.24 600.43,86.51 600.68,86.76 600.97,86.95 601.28,87.10 601.62,87.20 601.96,87.24 " style="stroke-width: 0.53; stroke: #E8EF04; fill: #E3E6A1;" clip-path="url(#cpNi45NzM4NXw3MTMuMDI2fDI4MC40NDV8Ni45NzM4NQ==)"/>
  <g clip-path="url(#cpNi45NzM4NXw3MTMuMDI2fDI4MC40NDV8Ni45NzM4NQ==)">
    <text x="603.49" y="83.64" style="font-size: 9.96px; fill: #000; font-family: Arial;" textLength="41.49px" lengthAdjust="spacingAndGlyphs">p-Creode</text>
  </g>
  <polyline points="491.57,209.49 529.30,209.49 529.21,209.49 529.56,209.48 529.90,209.41 530.22,209.29 530.52,209.11 530.79,208.89 531.02,208.63 531.21,208.34 531.34,208.02 531.43,207.68 531.46,207.33 531.46,207.33 531.46,197.30 531.46,197.30 531.43,196.95 531.34,196.61 531.21,196.29 531.02,196.00 530.79,195.74 530.52,195.52 530.22,195.35 529.90,195.22 529.56,195.15 529.30,195.14 491.57,195.14 491.83,195.15 491.48,195.14 491.13,195.18 490.80,195.28 490.49,195.43 490.20,195.63 489.95,195.87 489.74,196.14 489.58,196.45 489.47,196.78 489.41,197.12 489.41,197.30 489.41,207.33 489.41,207.16 489.41,207.51 489.47,207.85 489.58,208.18 489.74,208.49 489.95,208.77 490.20,209.01 490.49,209.21 490.80,209.35 491.13,209.45 491.48,209.49 " style="stroke-width: 0.53; stroke: #0278DD; fill: #A1C6E6;" clip-path="url(#cpNi45NzM4NXw3MTMuMDI2fDI4MC40NDV8Ni45NzM4NQ==)"/>
  <g clip-path="url(#cpNi45NzM4NXw3MTMuMDI2fDI4MC40NDV8Ni45NzM4NQ==)">
    <text x="493.01" y="205.89" style="font-size: 9.96px; fill: #000; font-family: Arial;" textLength="34.85px" lengthAdjust="spacingAndGlyphs">topslam</text>
  </g>
  <polyline points="239.69,274.76 271.32,274.76 271.24,274.76 271.58,274.74 271.92,274.67 272.25,274.55 272.55,274.37 272.82,274.15 273.05,273.89 273.24,273.60 273.37,273.28 273.46,272.94 273.48,272.60 273.48,272.60 273.48,262.56 273.48,262.56 273.46,262.21 273.37,261.88 273.24,261.56 273.05,261.26 272.82,261.00 272.55,260.78 272.25,260.61 271.92,260.49 271.58,260.42 271.32,260.40 239.69,260.40 239.95,260.42 239.60,260.40 239.26,260.44 238.92,260.54 238.61,260.69 238.32,260.89 238.07,261.13 237.86,261.41 237.70,261.71 237.59,262.04 237.53,262.39 237.53,262.56 237.53,272.60 237.53,272.42 237.53,272.77 237.59,273.11 237.70,273.44 237.86,273.75 238.07,274.03 238.32,274.27 238.61,274.47 238.92,274.62 239.26,274.71 239.60,274.76 " style="stroke-width: 0.53; stroke: #0278DD; fill: #A1C6E6;" clip-path="url(#cpNi45NzM4NXw3MTMuMDI2fDI4MC40NDV8Ni45NzM4NQ==)"/>
  <g clip-path="url(#cpNi45NzM4NXw3MTMuMDI2fDI4MC40NDV8Ni45NzM4NQ==)">
    <text x="241.13" y="271.16" style="font-size: 9.96px; fill: #000; font-family: Arial;" textLength="28.76px" lengthAdjust="spacingAndGlyphs">NBOR</text>
  </g>
  <polyline points="59.22,248.08 112.44,248.08 112.35,248.07 112.70,248.06 113.04,247.99 113.37,247.87 113.67,247.69 113.94,247.47 114.17,247.21 114.35,246.92 114.49,246.60 114.57,246.26 114.60,245.92 114.60,245.92 114.60,235.88 114.60,235.88 114.57,235.53 114.49,235.20 114.35,234.88 114.17,234.58 113.94,234.32 113.67,234.10 113.37,233.93 113.04,233.81 112.70,233.74 112.44,233.72 59.22,233.72 59.48,233.74 59.13,233.72 58.79,233.76 58.46,233.86 58.14,234.01 57.86,234.21 57.60,234.45 57.40,234.73 57.23,235.03 57.12,235.36 57.07,235.71 57.06,235.88 57.06,245.92 57.07,245.74 57.07,246.09 57.12,246.43 57.23,246.76 57.40,247.07 57.60,247.35 57.86,247.59 58.14,247.79 58.46,247.94 58.79,248.03 59.13,248.07 " style="stroke-width: 0.53; stroke: #0278DD; fill: #A1C6E6;" clip-path="url(#cpNi45NzM4NXw3MTMuMDI2fDI4MC40NDV8Ni45NzM4NQ==)"/>
  <g clip-path="url(#cpNi45NzM4NXw3MTMuMDI2fDI4MC40NDV8Ni45NzM4NQ==)">
    <text x="60.66" y="244.48" style="font-size: 9.96px; fill: #000; font-family: Arial;" textLength="50.34px" lengthAdjust="spacingAndGlyphs">Wanderlust</text>
  </g>
  <polyline points="276.64,252.21 318.80,252.21 318.71,252.21 319.06,252.19 319.40,252.12 319.72,252.00 320.03,251.83 320.29,251.61 320.53,251.35 320.71,251.05 320.85,250.73 320.93,250.40 320.96,250.05 320.96,250.05 320.96,240.01 320.96,240.01 320.93,239.67 320.85,239.33 320.71,239.01 320.53,238.71 320.29,238.45 320.03,238.23 319.72,238.06 319.40,237.94 319.06,237.87 318.80,237.85 276.64,237.85 276.90,237.87 276.55,237.85 276.20,237.90 275.87,237.99 275.56,238.14 275.27,238.34 275.02,238.58 274.81,238.86 274.65,239.17 274.54,239.50 274.48,239.84 274.48,240.01 274.48,250.05 274.48,249.87 274.48,250.22 274.54,250.57 274.65,250.90 274.81,251.20 275.02,251.48 275.27,251.72 275.56,251.92 275.87,252.07 276.20,252.17 276.55,252.21 " style="stroke-width: 0.53; stroke: #0278DD; fill: #A1C6E6;" clip-path="url(#cpNi45NzM4NXw3MTMuMDI2fDI4MC40NDV8Ni45NzM4NQ==)"/>
  <g clip-path="url(#cpNi45NzM4NXw3MTMuMDI2fDI4MC40NDV8Ni45NzM4NQ==)">
    <text x="278.08" y="248.61" style="font-size: 9.96px; fill: #000; font-family: Arial;" textLength="39.28px" lengthAdjust="spacingAndGlyphs">embeddr</text>
  </g>
  <polyline points="525.93,229.20 558.67,229.20 558.58,229.20 558.93,229.18 559.27,229.11 559.59,228.99 559.89,228.81 560.16,228.59 560.39,228.33 560.58,228.04 560.72,227.72 560.80,227.38 560.83,227.04 560.83,227.04 560.83,217.00 560.83,217.00 560.80,216.65 560.72,216.32 560.58,216.00 560.39,215.70 560.16,215.44 559.89,215.22 559.59,215.05 559.27,214.93 558.93,214.86 558.67,214.84 525.93,214.84 526.19,214.86 525.84,214.84 525.49,214.88 525.16,214.98 524.85,215.13 524.56,215.33 524.31,215.57 524.10,215.85 523.94,216.15 523.83,216.48 523.77,216.83 523.77,217.00 523.77,227.04 523.77,226.86 523.77,227.21 523.83,227.55 523.94,227.88 524.10,228.19 524.31,228.47 524.56,228.71 524.85,228.91 525.16,229.06 525.49,229.15 525.84,229.20 " style="stroke-width: 0.53; stroke: #0278DD; fill: #A1C6E6;" clip-path="url(#cpNi45NzM4NXw3MTMuMDI2fDI4MC40NDV8Ni45NzM4NQ==)"/>
  <g clip-path="url(#cpNi45NzM4NXw3MTMuMDI2fDI4MC40NDV8Ni45NzM4NQ==)">
    <text x="527.37" y="225.60" style="font-size: 9.96px; fill: #000; font-family: Arial;" textLength="29.86px" lengthAdjust="spacingAndGlyphs">scTDA</text>
  </g>
  <polyline points="516.25,152.72 558.41,152.72 558.32,152.72 558.67,152.71 559.01,152.64 559.34,152.51 559.64,152.34 559.91,152.12 560.14,151.86 560.32,151.57 560.46,151.25 560.54,150.91 560.57,150.56 560.57,150.56 560.57,140.53 560.57,140.53 560.54,140.18 560.46,139.84 560.32,139.52 560.14,139.23 559.91,138.97 559.64,138.75 559.34,138.57 559.01,138.45 558.67,138.38 558.41,138.37 516.25,138.37 516.51,138.38 516.16,138.37 515.82,138.41 515.48,138.51 515.17,138.66 514.88,138.85 514.63,139.09 514.42,139.37 514.26,139.68 514.15,140.01 514.10,140.35 514.09,140.53 514.09,150.56 514.10,150.39 514.10,150.74 514.15,151.08 514.26,151.41 514.42,151.72 514.63,151.99 514.88,152.24 515.17,152.43 515.48,152.58 515.82,152.68 516.16,152.72 " style="stroke-width: 0.53; stroke: #E8EF04; fill: #E3E6A1;" clip-path="url(#cpNi45NzM4NXw3MTMuMDI2fDI4MC40NDV8Ni45NzM4NQ==)"/>
  <g clip-path="url(#cpNi45NzM4NXw3MTMuMDI2fDI4MC40NDV8Ni45NzM4NQ==)">
    <text x="517.69" y="149.12" style="font-size: 9.96px; fill: #000; font-family: Arial;" textLength="39.28px" lengthAdjust="spacingAndGlyphs">slingshot</text>
  </g>
  <polyline points="415.14,191.32 453.42,191.32 453.34,191.32 453.68,191.30 454.03,191.23 454.35,191.11 454.65,190.94 454.92,190.72 455.15,190.46 455.34,190.16 455.47,189.84 455.56,189.51 455.58,189.16 455.58,189.16 455.58,179.12 455.58,179.12 455.56,178.78 455.47,178.44 455.34,178.12 455.15,177.83 454.92,177.57 454.65,177.35 454.35,177.17 454.03,177.05 453.68,176.98 453.42,176.96 415.14,176.96 415.40,176.98 415.06,176.97 414.71,177.01 414.38,177.10 414.06,177.25 413.78,177.45 413.53,177.69 413.32,177.97 413.16,178.28 413.05,178.61 412.99,178.95 412.98,179.12 412.98,189.16 412.99,188.99 412.99,189.33 413.05,189.68 413.16,190.01 413.32,190.31 413.53,190.59 413.78,190.83 414.06,191.03 414.38,191.18 414.71,191.28 415.06,191.32 " style="stroke-width: 0.53; stroke: #E8EF04; fill: #E3E6A1;" clip-path="url(#cpNi45NzM4NXw3MTMuMDI2fDI4MC40NDV8Ni45NzM4NQ==)"/>
  <g clip-path="url(#cpNi45NzM4NXw3MTMuMDI2fDI4MC40NDV8Ni45NzM4NQ==)">
    <text x="416.58" y="187.72" style="font-size: 9.96px; fill: #000; font-family: Arial;" textLength="35.40px" lengthAdjust="spacingAndGlyphs">cellTree</text>
  </g>
  <polyline points="544.41,206.99 581.57,206.99 581.48,206.99 581.83,206.97 582.17,206.90 582.50,206.78 582.80,206.61 583.07,206.39 583.30,206.13 583.48,205.83 583.62,205.51 583.70,205.18 583.73,204.83 583.73,204.83 583.73,194.79 583.73,194.79 583.70,194.45 583.62,194.11 583.48,193.79 583.30,193.50 583.07,193.23 582.80,193.01 582.50,192.84 582.17,192.72 581.83,192.65 581.57,192.63 544.41,192.63 544.67,192.65 544.32,192.63 543.97,192.68 543.64,192.77 543.33,192.92 543.04,193.12 542.79,193.36 542.58,193.64 542.42,193.95 542.31,194.28 542.25,194.62 542.25,194.79 542.25,204.83 542.25,204.66 542.25,205.00 542.31,205.35 542.42,205.68 542.58,205.98 542.79,206.26 543.04,206.50 543.33,206.70 543.64,206.85 543.97,206.95 544.32,206.99 " style="stroke-width: 0.53; stroke: #E8EF04; fill: #E3E6A1;" clip-path="url(#cpNi45NzM4NXw3MTMuMDI2fDI4MC40NDV8Ni45NzM4NQ==)"/>
  <g clip-path="url(#cpNi45NzM4NXw3MTMuMDI2fDI4MC40NDV8Ni45NzM4NQ==)">
    <text x="545.85" y="203.39" style="font-size: 9.96px; fill: #000; font-family: Arial;" textLength="34.29px" lengthAdjust="spacingAndGlyphs">FORKS</text>
  </g>
  <polyline points="185.61,273.23 216.15,273.23 216.06,273.23 216.41,273.21 216.75,273.15 217.07,273.02 217.37,272.85 217.64,272.63 217.87,272.37 218.06,272.07 218.20,271.75 218.28,271.42 218.31,271.07 218.31,271.07 218.31,261.03 218.31,261.03 218.28,260.69 218.20,260.35 218.06,260.03 217.87,259.74 217.64,259.48 217.37,259.26 217.07,259.08 216.75,258.96 216.41,258.89 216.15,258.87 185.61,258.87 185.87,258.89 185.52,258.88 185.18,258.92 184.84,259.01 184.53,259.16 184.24,259.36 183.99,259.60 183.78,259.88 183.62,260.19 183.51,260.52 183.46,260.86 183.45,261.03 183.45,271.07 183.46,270.90 183.46,271.24 183.51,271.59 183.62,271.92 183.78,272.23 183.99,272.50 184.24,272.74 184.53,272.94 184.84,273.09 185.18,273.19 185.52,273.23 " style="stroke-width: 0.53; stroke: #E8EF04; fill: #E3E6A1;" clip-path="url(#cpNi45NzM4NXw3MTMuMDI2fDI4MC40NDV8Ni45NzM4NQ==)"/>
  <g clip-path="url(#cpNi45NzM4NXw3MTMuMDI2fDI4MC40NDV8Ni45NzM4NQ==)">
    <text x="187.05" y="269.63" style="font-size: 9.96px; fill: #000; font-family: Arial;" textLength="27.66px" lengthAdjust="spacingAndGlyphs">sincell</text>
  </g>
  <polyline points="543.54,130.76 595.68,130.76 595.59,130.76 595.94,130.74 596.28,130.67 596.60,130.55 596.90,130.38 597.17,130.16 597.40,129.90 597.59,129.60 597.73,129.28 597.81,128.95 597.84,128.60 597.84,128.60 597.84,118.56 597.84,118.56 597.81,118.22 597.73,117.88 597.59,117.56 597.40,117.27 597.17,117.00 596.90,116.79 596.60,116.61 596.28,116.49 595.94,116.42 595.68,116.40 543.54,116.40 543.80,116.42 543.46,116.40 543.11,116.45 542.78,116.54 542.46,116.69 542.18,116.89 541.93,117.13 541.72,117.41 541.56,117.72 541.44,118.05 541.39,118.39 541.38,118.56 541.38,128.60 541.39,128.43 541.39,128.77 541.44,129.12 541.56,129.45 541.72,129.75 541.93,130.03 542.18,130.27 542.46,130.47 542.78,130.62 543.11,130.72 543.46,130.76 " style="stroke-width: 0.53; stroke: #0278DD; fill: #A1C6E6;" clip-path="url(#cpNi45NzM4NXw3MTMuMDI2fDI4MC40NDV8Ni45NzM4NQ==)"/>
  <g clip-path="url(#cpNi45NzM4NXw3MTMuMDI2fDI4MC40NDV8Ni45NzM4NQ==)">
    <text x="544.98" y="127.16" style="font-size: 9.96px; fill: #000; font-family: Arial;" textLength="49.26px" lengthAdjust="spacingAndGlyphs">PhenoPath</text>
  </g>
  <polyline points="498.46,67.02 537.30,67.02 537.21,67.02 537.56,67.01 537.90,66.94 538.23,66.81 538.53,66.64 538.80,66.42 539.03,66.16 539.21,65.87 539.35,65.55 539.43,65.21 539.46,64.86 539.46,64.86 539.46,54.83 539.46,54.83 539.43,54.48 539.35,54.14 539.21,53.82 539.03,53.53 538.80,53.27 538.53,53.05 538.23,52.88 537.90,52.75 537.56,52.68 537.30,52.67 498.46,52.67 498.72,52.68 498.37,52.67 498.03,52.71 497.69,52.81 497.38,52.96 497.09,53.15 496.84,53.39 496.64,53.67 496.47,53.98 496.36,54.31 496.31,54.65 496.30,54.83 496.30,64.86 496.31,64.69 496.31,65.04 496.36,65.38 496.47,65.71 496.64,66.02 496.84,66.30 497.09,66.54 497.38,66.73 497.69,66.88 498.03,66.98 498.37,67.02 " style="stroke-width: 0.53; stroke: #7FBE00; fill: #CFE6A1;" clip-path="url(#cpNi45NzM4NXw3MTMuMDI2fDI4MC40NDV8Ni45NzM4NQ==)"/>
  <g clip-path="url(#cpNi45NzM4NXw3MTMuMDI2fDI4MC40NDV8Ni45NzM4NQ==)">
    <text x="499.90" y="63.42" style="font-size: 9.96px; fill: #000; font-family: Arial;" textLength="35.96px" lengthAdjust="spacingAndGlyphs">GPfates</text>
  </g>
  <polyline points="471.43,109.51 503.08,109.51 502.99,109.51 503.34,109.50 503.68,109.43 504.00,109.31 504.31,109.13 504.58,108.91 504.81,108.65 504.99,108.36 505.13,108.04 505.21,107.70 505.24,107.35 505.24,107.35 505.24,97.32 505.24,97.32 505.21,96.97 505.13,96.63 504.99,96.31 504.81,96.02 504.58,95.76 504.31,95.54 504.00,95.37 503.68,95.24 503.34,95.17 503.08,95.16 471.43,95.16 471.69,95.17 471.35,95.16 471.00,95.20 470.67,95.30 470.35,95.45 470.07,95.64 469.82,95.89 469.61,96.16 469.45,96.47 469.34,96.80 469.28,97.14 469.27,97.32 469.27,107.35 469.28,107.18 469.28,107.53 469.34,107.87 469.45,108.20 469.61,108.51 469.82,108.79 470.07,109.03 470.35,109.22 470.67,109.37 471.00,109.47 471.35,109.51 " style="stroke-width: 0.53; stroke: #E8EF04; fill: #E3E6A1;" clip-path="url(#cpNi45NzM4NXw3MTMuMDI2fDI4MC40NDV8Ni45NzM4NQ==)"/>
  <g clip-path="url(#cpNi45NzM4NXw3MTMuMDI2fDI4MC40NDV8Ni45NzM4NQ==)">
    <text x="472.87" y="105.91" style="font-size: 9.96px; fill: #000; font-family: Arial;" textLength="28.77px" lengthAdjust="spacingAndGlyphs">SLICE</text>
  </g>
  <polyline points="400.80,214.92 431.35,214.92 431.26,214.92 431.61,214.91 431.95,214.84 432.27,214.71 432.57,214.54 432.84,214.32 433.07,214.06 433.26,213.77 433.40,213.45 433.48,213.11 433.51,212.76 433.51,212.76 433.51,202.73 433.51,202.73 433.48,202.38 433.40,202.04 433.26,201.72 433.07,201.43 432.84,201.17 432.57,200.95 432.27,200.78 431.95,200.65 431.61,200.58 431.35,200.57 400.80,200.57 401.06,200.58 400.72,200.57 400.37,200.61 400.04,200.71 399.72,200.86 399.44,201.05 399.19,201.29 398.98,201.57 398.82,201.88 398.71,202.21 398.65,202.55 398.64,202.73 398.64,212.76 398.65,212.59 398.65,212.94 398.71,213.28 398.82,213.61 398.98,213.92 399.19,214.20 399.44,214.44 399.72,214.63 400.04,214.78 400.37,214.88 400.72,214.92 " style="stroke-width: 0.53; stroke: #E8EF04; fill: #E3E6A1;" clip-path="url(#cpNi45NzM4NXw3MTMuMDI2fDI4MC40NDV8Ni45NzM4NQ==)"/>
  <g clip-path="url(#cpNi45NzM4NXw3MTMuMDI2fDI4MC40NDV8Ni45NzM4NQ==)">
    <text x="402.24" y="211.32" style="font-size: 9.96px; fill: #000; font-family: Arial;" textLength="27.66px" lengthAdjust="spacingAndGlyphs">Mpath</text>
  </g>
  <polyline points="633.92,212.20 678.28,212.20 678.20,212.20 678.55,212.19 678.89,212.12 679.21,211.99 679.51,211.82 679.78,211.60 680.01,211.34 680.20,211.05 680.33,210.73 680.42,210.39 680.44,210.04 680.44,210.04 680.44,200.01 680.44,200.01 680.42,199.66 680.33,199.32 680.20,199.00 680.01,198.71 679.78,198.45 679.51,198.23 679.21,198.05 678.89,197.93 678.55,197.86 678.28,197.85 633.92,197.85 634.18,197.86 633.83,197.85 633.49,197.89 633.15,197.99 632.84,198.14 632.55,198.33 632.30,198.57 632.09,198.85 631.93,199.16 631.82,199.49 631.77,199.83 631.76,200.01 631.76,210.04 631.77,209.87 631.77,210.22 631.82,210.56 631.93,210.89 632.09,211.20 632.30,211.47 632.55,211.72 632.84,211.91 633.15,212.06 633.49,212.16 633.83,212.20 " style="stroke-width: 0.53; stroke: #FF4237; fill: #E6A4A1;" clip-path="url(#cpNi45NzM4NXw3MTMuMDI2fDI4MC40NDV8Ni45NzM4NQ==)"/>
  <g clip-path="url(#cpNi45NzM4NXw3MTMuMDI2fDI4MC40NDV8Ni45NzM4NQ==)">
    <text x="635.36" y="208.60" style="font-size: 9.96px; fill: #000; font-family: Arial;" textLength="41.48px" lengthAdjust="spacingAndGlyphs">CALISTA</text>
  </g>
  <polyline points="550.45,45.51 593.73,45.51 593.65,45.50 593.99,45.49 594.33,45.42 594.66,45.30 594.96,45.12 595.23,44.90 595.46,44.64 595.65,44.35 595.78,44.03 595.87,43.69 595.89,43.35 595.89,43.35 595.89,33.31 595.89,33.31 595.87,32.96 595.78,32.63 595.65,32.31 595.46,32.01 595.23,31.75 594.96,31.53 594.66,31.36 594.33,31.24 593.99,31.17 593.73,31.15 550.45,31.15 550.71,31.17 550.37,31.15 550.02,31.19 549.69,31.29 549.37,31.44 549.09,31.64 548.84,31.88 548.63,32.16 548.47,32.46 548.36,32.79 548.30,33.14 548.29,33.31 548.29,43.35 548.30,43.17 548.30,43.52 548.36,43.86 548.47,44.19 548.63,44.50 548.84,44.78 549.09,45.02 549.37,45.22 549.69,45.37 550.02,45.46 550.37,45.50 " style="stroke-width: 0.53; stroke: #0278DD; fill: #A1C6E6;" clip-path="url(#cpNi45NzM4NXw3MTMuMDI2fDI4MC40NDV8Ni45NzM4NQ==)"/>
  <g clip-path="url(#cpNi45NzM4NXw3MTMuMDI2fDI4MC40NDV8Ni45NzM4NQ==)">
    <text x="551.89" y="41.91" style="font-size: 9.96px; fill: #000; font-family: Arial;" textLength="40.40px" lengthAdjust="spacingAndGlyphs">HopLand</text>
  </g>
  <polyline points="448.26,231.95 484.87,231.95 484.78,231.94 485.13,231.93 485.47,231.86 485.80,231.74 486.10,231.56 486.37,231.34 486.60,231.08 486.78,230.79 486.92,230.47 487.00,230.13 487.03,229.79 487.03,229.79 487.03,219.75 487.03,219.75 487.00,219.40 486.92,219.07 486.78,218.75 486.60,218.45 486.37,218.19 486.10,217.97 485.80,217.80 485.47,217.68 485.13,217.61 484.87,217.59 448.26,217.59 448.52,217.61 448.17,217.59 447.83,217.63 447.49,217.73 447.18,217.88 446.89,218.08 446.64,218.32 446.43,218.60 446.27,218.90 446.16,219.23 446.10,219.58 446.10,219.75 446.10,229.79 446.10,229.61 446.10,229.96 446.16,230.30 446.27,230.63 446.43,230.94 446.64,231.22 446.89,231.46 447.18,231.66 447.49,231.81 447.83,231.90 448.17,231.94 " style="stroke-width: 0.53; stroke: #0278DD; fill: #A1C6E6;" clip-path="url(#cpNi45NzM4NXw3MTMuMDI2fDI4MC40NDV8Ni45NzM4NQ==)"/>
  <g clip-path="url(#cpNi45NzM4NXw3MTMuMDI2fDI4MC40NDV8Ni45NzM4NQ==)">
    <text x="449.70" y="228.35" style="font-size: 9.96px; fill: #000; font-family: Arial;" textLength="33.73px" lengthAdjust="spacingAndGlyphs">SCENT</text>
  </g>
  <polyline points="638.34,264.72 680.49,264.72 680.40,264.71 680.75,264.70 681.09,264.63 681.41,264.51 681.71,264.33 681.98,264.11 682.21,263.85 682.40,263.56 682.54,263.24 682.62,262.90 682.65,262.56 682.65,262.56 682.65,252.52 682.65,252.52 682.62,252.17 682.54,251.84 682.40,251.52 682.21,251.22 681.98,250.96 681.71,250.74 681.41,250.57 681.09,250.44 680.75,250.38 680.49,250.36 638.34,250.36 638.60,250.38 638.25,250.36 637.91,250.40 637.57,250.50 637.26,250.65 636.97,250.85 636.72,251.09 636.51,251.36 636.35,251.67 636.24,252.00 636.19,252.35 636.18,252.52 636.18,262.56 636.19,262.38 636.19,262.73 636.24,263.07 636.35,263.40 636.51,263.71 636.72,263.99 636.97,264.23 637.26,264.43 637.57,264.58 637.91,264.67 638.25,264.71 " style="stroke-width: 0.53; stroke: #E8EF04; fill: #E3E6A1;" clip-path="url(#cpNi45NzM4NXw3MTMuMDI2fDI4MC40NDV8Ni45NzM4NQ==)"/>
  <g clip-path="url(#cpNi45NzM4NXw3MTMuMDI2fDI4MC40NDV8Ni45NzM4NQ==)">
    <text x="639.78" y="261.12" style="font-size: 9.96px; fill: #000; font-family: Arial;" textLength="39.27px" lengthAdjust="spacingAndGlyphs">MERLoT</text>
  </g>
  <polyline points="490.59,134.69 537.72,134.69 537.64,134.69 537.98,134.67 538.32,134.60 538.65,134.48 538.95,134.31 539.22,134.09 539.45,133.83 539.64,133.53 539.77,133.21 539.85,132.88 539.88,132.53 539.88,132.53 539.88,122.49 539.88,122.49 539.85,122.15 539.77,121.81 539.64,121.49 539.45,121.20 539.22,120.93 538.95,120.72 538.65,120.54 538.32,120.42 537.98,120.35 537.72,120.33 490.59,120.33 490.85,120.35 490.50,120.33 490.16,120.38 489.82,120.47 489.51,120.62 489.22,120.82 488.97,121.06 488.76,121.34 488.60,121.65 488.49,121.98 488.44,122.32 488.43,122.49 488.43,132.53 488.44,132.36 488.44,132.70 488.49,133.05 488.60,133.38 488.76,133.68 488.97,133.96 489.22,134.20 489.51,134.40 489.82,134.55 490.16,134.65 490.50,134.69 " style="stroke-width: 0.53; stroke: #E8EF04; fill: #E3E6A1;" clip-path="url(#cpNi45NzM4NXw3MTMuMDI2fDI4MC40NDV8Ni45NzM4NQ==)"/>
  <g clip-path="url(#cpNi45NzM4NXw3MTMuMDI2fDI4MC40NDV8Ni45NzM4NQ==)">
    <text x="492.03" y="131.09" style="font-size: 9.96px; fill: #000; font-family: Arial;" textLength="44.25px" lengthAdjust="spacingAndGlyphs">Granatum</text>
  </g>
  <polyline points="459.54,254.77 511.66,254.77 511.57,254.76 511.92,254.75 512.26,254.68 512.58,254.56 512.89,254.38 513.15,254.16 513.39,253.90 513.57,253.61 513.71,253.29 513.79,252.95 513.82,252.61 513.82,252.61 513.82,242.57 513.82,242.57 513.79,242.22 513.71,241.88 513.57,241.57 513.39,241.27 513.15,241.01 512.89,240.79 512.58,240.62 512.26,240.49 511.92,240.42 511.66,240.41 459.54,240.41 459.80,240.42 459.46,240.41 459.11,240.45 458.78,240.55 458.46,240.70 458.18,240.90 457.93,241.14 457.72,241.41 457.56,241.72 457.45,242.05 457.39,242.40 457.38,242.57 457.38,252.61 457.39,252.43 457.39,252.78 457.45,253.12 457.56,253.45 457.72,253.76 457.93,254.04 458.18,254.28 458.46,254.48 458.78,254.62 459.11,254.72 459.46,254.76 " style="stroke-width: 0.53; stroke: #E8EF04; fill: #E3E6A1;" clip-path="url(#cpNi45NzM4NXw3MTMuMDI2fDI4MC40NDV8Ni45NzM4NQ==)"/>
  <g clip-path="url(#cpNi45NzM4NXw3MTMuMDI2fDI4MC40NDV8Ni45NzM4NQ==)">
    <text x="460.98" y="251.17" style="font-size: 9.96px; fill: #000; font-family: Arial;" textLength="49.24px" lengthAdjust="spacingAndGlyphs">k-branches</text>
  </g>
  <polyline points="510.90,87.60 534.79,87.60 534.70,87.60 535.05,87.59 535.39,87.52 535.72,87.39 536.02,87.22 536.29,87.00 536.52,86.74 536.70,86.44 536.84,86.12 536.92,85.79 536.95,85.44 536.95,85.44 536.95,75.40 536.95,75.40 536.92,75.06 536.84,74.72 536.70,74.40 536.52,74.11 536.29,73.85 536.02,73.63 535.72,73.45 535.39,73.33 535.05,73.26 534.79,73.24 510.90,73.24 511.16,73.26 510.81,73.25 510.47,73.29 510.14,73.39 509.82,73.53 509.54,73.73 509.28,73.97 509.08,74.25 508.91,74.56 508.80,74.89 508.75,75.23 508.74,75.40 508.74,85.44 508.75,85.27 508.75,85.61 508.80,85.96 508.91,86.29 509.08,86.60 509.28,86.87 509.54,87.11 509.82,87.31 510.14,87.46 510.47,87.56 510.81,87.60 " style="stroke-width: 0.53; stroke: #7FBE00; fill: #CFE6A1;" clip-path="url(#cpNi45NzM4NXw3MTMuMDI2fDI4MC40NDV8Ni45NzM4NQ==)"/>
  <g clip-path="url(#cpNi45NzM4NXw3MTMuMDI2fDI4MC40NDV8Ni45NzM4NQ==)">
    <text x="512.34" y="84.00" style="font-size: 9.96px; fill: #000; font-family: Arial;" textLength="21.01px" lengthAdjust="spacingAndGlyphs">MFA</text>
  </g>
  <polyline points="51.91,270.34 100.71,270.34 100.63,270.34 100.97,270.33 101.31,270.26 101.64,270.13 101.94,269.96 102.21,269.74 102.44,269.48 102.63,269.19 102.76,268.87 102.85,268.53 102.87,268.18 102.87,268.18 102.87,258.15 102.87,258.15 102.85,257.80 102.76,257.46 102.63,257.14 102.44,256.85 102.21,256.59 101.94,256.37 101.64,256.19 101.31,256.07 100.97,256.00 100.71,255.99 51.91,255.99 52.17,256.00 51.83,255.99 51.48,256.03 51.15,256.13 50.83,256.27 50.55,256.47 50.30,256.71 50.09,256.99 49.92,257.30 49.81,257.63 49.76,257.97 49.75,258.15 49.75,268.18 49.76,268.01 49.76,268.36 49.81,268.70 49.92,269.03 50.09,269.34 50.30,269.61 50.55,269.85 50.83,270.05 51.15,270.20 51.48,270.30 51.83,270.34 " style="stroke-width: 0.53; stroke: #E8EF04; fill: #E3E6A1;" clip-path="url(#cpNi45NzM4NXw3MTMuMDI2fDI4MC40NDV8Ni45NzM4NQ==)"/>
  <g clip-path="url(#cpNi45NzM4NXw3MTMuMDI2fDI4MC40NDV8Ni45NzM4NQ==)">
    <text x="53.35" y="266.74" style="font-size: 9.96px; fill: #000; font-family: Arial;" textLength="45.92px" lengthAdjust="spacingAndGlyphs">Monocle 1</text>
  </g>
  <polyline points="387.83,170.14 426.11,170.14 426.02,170.13 426.37,170.12 426.71,170.05 427.03,169.93 427.34,169.75 427.60,169.53 427.84,169.27 428.02,168.98 428.16,168.66 428.24,168.32 428.27,167.98 428.27,167.98 428.27,157.94 428.27,157.94 428.24,157.59 428.16,157.26 428.02,156.94 427.84,156.64 427.60,156.38 427.34,156.16 427.03,155.99 426.71,155.87 426.37,155.80 426.11,155.78 387.83,155.78 388.09,155.80 387.75,155.78 387.40,155.82 387.07,155.92 386.75,156.07 386.47,156.27 386.22,156.51 386.01,156.79 385.85,157.09 385.74,157.42 385.68,157.77 385.67,157.94 385.67,167.98 385.68,167.80 385.68,168.15 385.74,168.49 385.85,168.82 386.01,169.13 386.22,169.41 386.47,169.65 386.75,169.85 387.07,170.00 387.40,170.09 387.75,170.13 " style="stroke-width: 0.53; stroke: #7FBE00; fill: #CFE6A1;" clip-path="url(#cpNi45NzM4NXw3MTMuMDI2fDI4MC40NDV8Ni45NzM4NQ==)"/>
  <g clip-path="url(#cpNi45NzM4NXw3MTMuMDI2fDI4MC40NDV8Ni45NzM4NQ==)">
    <text x="389.27" y="166.54" style="font-size: 9.96px; fill: #000; font-family: Arial;" textLength="35.39px" lengthAdjust="spacingAndGlyphs">SCOUP</text>
  </g>
  <polyline points="568.14,272.87 590.94,272.87 590.85,272.87 591.20,272.85 591.54,272.78 591.87,272.66 592.17,272.49 592.44,272.27 592.67,272.01 592.85,271.71 592.99,271.39 593.07,271.05 593.10,270.71 593.10,270.71 593.10,260.67 593.10,260.67 593.07,260.32 592.99,259.99 592.85,259.67 592.67,259.37 592.44,259.11 592.17,258.89 591.87,258.72 591.54,258.60 591.20,258.53 590.94,258.51 568.14,258.51 568.40,258.53 568.06,258.51 567.71,258.56 567.38,258.65 567.06,258.80 566.78,259.00 566.53,259.24 566.32,259.52 566.16,259.82 566.05,260.15 565.99,260.50 565.98,260.67 565.98,270.71 565.99,270.53 565.99,270.88 566.05,271.22 566.16,271.55 566.32,271.86 566.53,272.14 566.78,272.38 567.06,272.58 567.38,272.73 567.71,272.82 568.06,272.87 " style="stroke-width: 0.53; stroke: #7FBE00; fill: #CFE6A1;" clip-path="url(#cpNi45NzM4NXw3MTMuMDI2fDI4MC40NDV8Ni45NzM4NQ==)"/>
  <g clip-path="url(#cpNi45NzM4NXw3MTMuMDI2fDI4MC40NDV8Ni45NzM4NQ==)">
    <text x="569.58" y="269.27" style="font-size: 9.96px; fill: #000; font-family: Arial;" textLength="19.92px" lengthAdjust="spacingAndGlyphs">PBA</text>
  </g>
  <polyline points="568.42,112.71 592.32,112.71 592.23,112.71 592.58,112.69 592.92,112.62 593.25,112.50 593.55,112.33 593.82,112.11 594.05,111.85 594.23,111.55 594.37,111.23 594.45,110.90 594.48,110.55 594.48,110.55 594.48,100.51 594.48,100.51 594.45,100.17 594.37,99.83 594.23,99.51 594.05,99.22 593.82,98.96 593.55,98.74 593.25,98.56 592.92,98.44 592.58,98.37 592.32,98.35 568.42,98.35 568.68,98.37 568.33,98.36 567.99,98.40 567.65,98.49 567.34,98.64 567.05,98.84 566.80,99.08 566.59,99.36 566.43,99.67 566.32,100.00 566.27,100.34 566.26,100.51 566.26,110.55 566.27,110.38 566.27,110.72 566.32,111.07 566.43,111.40 566.59,111.70 566.80,111.98 567.05,112.22 567.34,112.42 567.65,112.57 567.99,112.67 568.33,112.71 " style="stroke-width: 0.53; stroke: #3AD1D1; fill: #A1E6E6;" clip-path="url(#cpNi45NzM4NXw3MTMuMDI2fDI4MC40NDV8Ni45NzM4NQ==)"/>
  <g clip-path="url(#cpNi45NzM4NXw3MTMuMDI2fDI4MC40NDV8Ni45NzM4NQ==)">
    <text x="569.86" y="109.11" style="font-size: 9.96px; fill: #000; font-family: Arial;" textLength="21.02px" lengthAdjust="spacingAndGlyphs">BGP</text>
  </g>
  <polyline points="372.95,255.03 399.61,255.03 399.52,255.03 399.87,255.02 400.21,254.95 400.54,254.82 400.84,254.65 401.11,254.43 401.34,254.17 401.52,253.88 401.66,253.56 401.74,253.22 401.77,252.87 401.77,252.87 401.77,242.84 401.77,242.84 401.74,242.49 401.66,242.15 401.52,241.83 401.34,241.54 401.11,241.28 400.84,241.06 400.54,240.88 400.21,240.76 399.87,240.69 399.61,240.68 372.95,240.68 373.21,240.69 372.86,240.68 372.51,240.72 372.18,240.82 371.87,240.97 371.58,241.16 371.33,241.40 371.12,241.68 370.96,241.99 370.85,242.32 370.79,242.66 370.79,242.84 370.79,252.87 370.79,252.70 370.79,253.05 370.85,253.39 370.96,253.72 371.12,254.03 371.33,254.30 371.58,254.55 371.87,254.74 372.18,254.89 372.51,254.99 372.86,255.03 " style="stroke-width: 0.53; stroke: #0278DD; fill: #A1C6E6;" clip-path="url(#cpNi45NzM4NXw3MTMuMDI2fDI4MC40NDV8Ni45NzM4NQ==)"/>
  <g clip-path="url(#cpNi45NzM4NXw3MTMuMDI2fDI4MC40NDV8Ni45NzM4NQ==)">
    <text x="374.39" y="251.43" style="font-size: 9.96px; fill: #000; font-family: Arial;" textLength="23.78px" lengthAdjust="spacingAndGlyphs">SCell</text>
  </g>
  <polyline points="489.34,186.69 538.14,186.69 538.06,186.69 538.40,186.67 538.74,186.60 539.07,186.48 539.37,186.31 539.64,186.09 539.87,185.83 540.05,185.53 540.19,185.21 540.27,184.87 540.30,184.53 540.30,184.53 540.30,174.49 540.30,174.49 540.27,174.15 540.19,173.81 540.05,173.49 539.87,173.19 539.64,172.93 539.37,172.71 539.07,172.54 538.74,172.42 538.40,172.35 538.14,172.33 489.34,172.33 489.60,172.35 489.25,172.33 488.91,172.38 488.57,172.47 488.26,172.62 487.97,172.82 487.72,173.06 487.52,173.34 487.35,173.65 487.24,173.97 487.19,174.32 487.18,174.49 487.18,184.53 487.19,184.35 487.19,184.70 487.24,185.04 487.35,185.37 487.52,185.68 487.72,185.96 487.97,186.20 488.26,186.40 488.57,186.55 488.91,186.64 489.25,186.69 " style="stroke-width: 0.53; stroke: #E8EF04; fill: #E3E6A1;" clip-path="url(#cpNi45NzM4NXw3MTMuMDI2fDI4MC40NDV8Ni45NzM4NQ==)"/>
  <g clip-path="url(#cpNi45NzM4NXw3MTMuMDI2fDI4MC40NDV8Ni45NzM4NQ==)">
    <text x="490.78" y="183.09" style="font-size: 9.96px; fill: #000; font-family: Arial;" textLength="45.92px" lengthAdjust="spacingAndGlyphs">Monocle 2</text>
  </g>
  <polyline points="604.42,261.73 628.32,261.73 628.24,261.73 628.58,261.71 628.92,261.64 629.25,261.52 629.55,261.35 629.82,261.13 630.05,260.87 630.24,260.57 630.37,260.25 630.46,259.92 630.48,259.57 630.48,259.57 630.48,249.53 630.48,249.53 630.46,249.19 630.37,248.85 630.24,248.53 630.05,248.24 629.82,247.98 629.55,247.76 629.25,247.58 628.92,247.46 628.58,247.39 628.32,247.37 604.42,247.37 604.68,247.39 604.34,247.38 603.99,247.42 603.66,247.51 603.34,247.66 603.06,247.86 602.81,248.10 602.60,248.38 602.44,248.69 602.33,249.02 602.27,249.36 602.26,249.53 602.26,259.57 602.27,259.40 602.27,259.74 602.33,260.09 602.44,260.42 602.60,260.72 602.81,261.00 603.06,261.24 603.34,261.44 603.66,261.59 603.99,261.69 604.34,261.73 " style="stroke-width: 0.53; stroke: #CA0565; fill: #E6A1C2;" clip-path="url(#cpNi45NzM4NXw3MTMuMDI2fDI4MC40NDV8Ni45NzM4NQ==)"/>
  <g clip-path="url(#cpNi45NzM4NXw3MTMuMDI2fDI4MC40NDV8Ni45NzM4NQ==)">
    <text x="605.86" y="258.13" style="font-size: 9.96px; fill: #000; font-family: Arial;" textLength="21.02px" lengthAdjust="spacingAndGlyphs">AGA</text>
  </g>
  <polyline points="430.59,276.05 481.02,276.05 480.93,276.05 481.28,276.04 481.62,275.97 481.95,275.85 482.25,275.67 482.52,275.45 482.75,275.19 482.93,274.90 483.07,274.58 483.15,274.24 483.18,273.89 483.18,273.89 483.18,263.86 483.18,263.86 483.15,263.51 483.07,263.17 482.93,262.85 482.75,262.56 482.52,262.30 482.25,262.08 481.95,261.91 481.62,261.78 481.28,261.71 481.02,261.70 430.59,261.70 430.85,261.71 430.50,261.70 430.15,261.74 429.82,261.84 429.51,261.99 429.22,262.19 428.97,262.43 428.76,262.70 428.60,263.01 428.49,263.34 428.43,263.68 428.43,263.86 428.43,273.89 428.43,273.72 428.43,274.07 428.49,274.41 428.60,274.74 428.76,275.05 428.97,275.33 429.22,275.57 429.51,275.77 429.82,275.91 430.15,276.01 430.50,276.05 " style="stroke-width: 0.53; stroke: #0278DD; fill: #A1C6E6;" clip-path="url(#cpNi45NzM4NXw3MTMuMDI2fDI4MC40NDV8Ni45NzM4NQ==)"/>
  <g clip-path="url(#cpNi45NzM4NXw3MTMuMDI2fDI4MC40NDV8Ni45NzM4NQ==)">
    <text x="432.03" y="272.45" style="font-size: 9.96px; fill: #000; font-family: Arial;" textLength="47.55px" lengthAdjust="spacingAndGlyphs">SCIMITAR</text>
  </g>
  <polyline points="615.73,241.12 645.16,241.12 645.07,241.12 645.42,241.10 645.76,241.03 646.09,240.91 646.39,240.74 646.66,240.52 646.89,240.26 647.07,239.96 647.21,239.64 647.29,239.31 647.32,238.96 647.32,238.96 647.32,228.92 647.32,228.92 647.29,228.58 647.21,228.24 647.07,227.92 646.89,227.63 646.66,227.36 646.39,227.15 646.09,226.97 645.76,226.85 645.42,226.78 645.16,226.76 615.73,226.76 615.99,226.78 615.64,226.76 615.30,226.81 614.96,226.90 614.65,227.05 614.36,227.25 614.11,227.49 613.90,227.77 613.74,228.08 613.63,228.41 613.58,228.75 613.57,228.92 613.57,238.96 613.58,238.79 613.58,239.13 613.63,239.48 613.74,239.81 613.90,240.11 614.11,240.39 614.36,240.63 614.65,240.83 614.96,240.98 615.30,241.08 615.64,241.12 " style="stroke-width: 0.53; stroke: #0278DD; fill: #A1C6E6;" clip-path="url(#cpNi45NzM4NXw3MTMuMDI2fDI4MC40NDV8Ni45NzM4NQ==)"/>
  <g clip-path="url(#cpNi45NzM4NXw3MTMuMDI2fDI4MC40NDV8Ni45NzM4NQ==)">
    <text x="617.17" y="237.52" style="font-size: 9.96px; fill: #000; font-family: Arial;" textLength="26.55px" lengthAdjust="spacingAndGlyphs">iCpSc</text>
  </g>
  <defs>
    <clipPath id="cpMHw3MjB8MzI0fDA=">
      <rect x="0.00" y="0.00" width="720.00" height="324.00"/>
    </clipPath>
  </defs>
  <polyline points="6.97,280.45 713.03,280.45 " style="stroke-width: 1.07; stroke-linecap: square;" clip-path="url(#cpMHw3MjB8MzI0fDA=)"/>
  <polyline points="39.07,283.93 39.07,280.45 " style="stroke-width: 1.07; stroke-linecap: butt;" clip-path="url(#cpMHw3MjB8MzI0fDA=)"/>
  <polyline points="190.12,283.93 190.12,280.45 " style="stroke-width: 1.07; stroke-linecap: butt;" clip-path="url(#cpMHw3MjB8MzI0fDA=)"/>
  <polyline points="341.17,283.93 341.17,280.45 " style="stroke-width: 1.07; stroke-linecap: butt;" clip-path="url(#cpMHw3MjB8MzI0fDA=)"/>
  <polyline points="492.64,283.93 492.64,280.45 " style="stroke-width: 1.07; stroke-linecap: butt;" clip-path="url(#cpMHw3MjB8MzI0fDA=)"/>
  <polyline points="643.69,283.93 643.69,280.45 " style="stroke-width: 1.07; stroke-linecap: butt;" clip-path="url(#cpMHw3MjB8MzI0fDA=)"/>
  <g clip-path="url(#cpMHw3MjB8MzI0fDA=)">
    <text x="25.72" y="295.51" style="font-size: 12.00px; font-family: Arial;" textLength="26.70px" lengthAdjust="spacingAndGlyphs">2014</text>
  </g>
  <g clip-path="url(#cpMHw3MjB8MzI0fDA=)">
    <text x="176.77" y="295.51" style="font-size: 12.00px; font-family: Arial;" textLength="26.70px" lengthAdjust="spacingAndGlyphs">2015</text>
  </g>
  <g clip-path="url(#cpMHw3MjB8MzI0fDA=)">
    <text x="327.82" y="295.51" style="font-size: 12.00px; font-family: Arial;" textLength="26.70px" lengthAdjust="spacingAndGlyphs">2016</text>
  </g>
  <g clip-path="url(#cpMHw3MjB8MzI0fDA=)">
    <text x="479.29" y="295.51" style="font-size: 12.00px; font-family: Arial;" textLength="26.70px" lengthAdjust="spacingAndGlyphs">2017</text>
  </g>
  <g clip-path="url(#cpMHw3MjB8MzI0fDA=)">
    <text x="630.34" y="295.51" style="font-size: 12.00px; font-family: Arial;" textLength="26.70px" lengthAdjust="spacingAndGlyphs">2018</text>
  </g>
  <g clip-path="url(#cpMHw3MjB8MzI0fDA=)">
    <text x="312.13" y="312.77" style="font-size: 14.00px; font-family: Arial;" textLength="95.74px" lengthAdjust="spacingAndGlyphs">Publishing date</text>
  </g>
</svg>
