<?xml version="1.0" encoding="UTF-8"?>
<svg xmlns="http://www.w3.org/2000/svg" xmlns:xlink="http://www.w3.org/1999/xlink" viewBox="0 0 720.00 324.00">
  <defs>
    <style type="text/css"><![CDATA[
    line, polyline, path, rect, circle {
      fill: none;
      stroke: #000000;
      stroke-linecap: round;
      stroke-linejoin: round;
      stroke-miterlimit: 10.00;
    }
  ]]></style>
  </defs>
  <line x1="355.10" y1="256.09" x2="355.10" y2="280.45" style="stroke-width: 1.07; stroke: #0278DD;" clip-path="url(#cpNi45NzM4NXw3MTMuMDI2fDI4MC40NDV8Ni45NzM4NQ==)"/>
  <line x1="379.59" y1="126.12" x2="379.59" y2="280.45" style="stroke-width: 1.07; stroke: #0278DD;" clip-path="url(#cpNi45NzM4NXw3MTMuMDI2fDI4MC40NDV8Ni45NzM4NQ==)"/>
  <line x1="360.00" y1="192.03" x2="360.00" y2="280.45" style="stroke-width: 1.07; stroke: #3AD1D1;" clip-path="url(#cpNi45NzM4NXw3MTMuMDI2fDI4MC40NDV8Ni45NzM4NQ==)"/>
  <line x1="531.01" y1="269.22" x2="531.01" y2="280.44" style="stroke-width: 1.07; stroke: #7FBE00;" clip-path="url(#cpNi45NzM4NXw3MTMuMDI2fDI4MC40NDV8Ni45NzM4NQ==)"/>
  <line x1="486.94" y1="232.31" x2="486.94" y2="280.44" style="stroke-width: 1.07; stroke: #E0AB00;" clip-path="url(#cpNi45NzM4NXw3MTMuMDI2fDI4MC40NDV8Ni45NzM4NQ==)"/>
  <line x1="524.23" y1="211.43" x2="524.23" y2="280.44" style="stroke-width: 1.07; stroke: #0278DD;" clip-path="url(#cpNi45NzM4NXw3MTMuMDI2fDI4MC40NDV8Ni45NzM4NQ==)"/>
  <line x1="274.49" y1="245.91" x2="274.49" y2="280.44" style="stroke-width: 1.07; stroke: #0278DD;" clip-path="url(#cpNi45NzM4NXw3MTMuMDI2fDI4MC40NDV8Ni45NzM4NQ==)"/>
  <line x1="565.67" y1="191.45" x2="565.67" y2="280.44" style="stroke-width: 1.07; stroke: #0278DD;" clip-path="url(#cpNi45NzM4NXw3MTMuMDI2fDI4MC40NDV8Ni45NzM4NQ==)"/>
  <line x1="611.62" y1="261.38" x2="611.62" y2="280.44" style="stroke-width: 1.07; stroke: #E0AB00;" clip-path="url(#cpNi45NzM4NXw3MTMuMDI2fDI4MC40NDV8Ni45NzM4NQ==)"/>
  <line x1="508.41" y1="249.92" x2="508.41" y2="280.44" style="stroke-width: 1.07; stroke: #0278DD;" clip-path="url(#cpNi45NzM4NXw3MTMuMDI2fDI4MC40NDV8Ni45NzM4NQ==)"/>
  <line x1="521.97" y1="171.00" x2="521.97" y2="280.44" style="stroke-width: 1.07; stroke: #0278DD;" clip-path="url(#cpNi45NzM4NXw3MTMuMDI2fDI4MC40NDV8Ni45NzM4NQ==)"/>
  <line x1="479.41" y1="211.84" x2="479.41" y2="280.44" style="stroke-width: 1.07; stroke: #7FBE00;" clip-path="url(#cpNi45NzM4NXw3MTMuMDI2fDI4MC40NDV8Ni45NzM4NQ==)"/>
  <line x1="445.51" y1="250.75" x2="445.51" y2="280.44" style="stroke-width: 1.07; stroke: #E0AB00;" clip-path="url(#cpNi45NzM4NXw3MTMuMDI2fDI4MC40NDV8Ni45NzM4NQ==)"/>
  <line x1="273.36" y1="203.71" x2="273.36" y2="280.44" style="stroke-width: 1.07; stroke: #0278DD;" clip-path="url(#cpNi45NzM4NXw3MTMuMDI2fDI4MC40NDV8Ni45NzM4NQ==)"/>
  <line x1="471.12" y1="167.77" x2="471.12" y2="280.44" style="stroke-width: 1.07; stroke: #E0AB00;" clip-path="url(#cpNi45NzM4NXw3MTMuMDI2fDI4MC40NDV8Ni45NzM4NQ==)"/>
  <line x1="373.94" y1="170.69" x2="373.94" y2="280.44" style="stroke-width: 1.07; stroke: #7FBE00;" clip-path="url(#cpNi45NzM4NXw3MTMuMDI2fDI4MC40NDV8Ni45NzM4NQ==)"/>
  <line x1="529.51" y1="25.65" x2="529.51" y2="280.44" style="stroke-width: 1.07; stroke: #0278DD;" clip-path="url(#cpNi45NzM4NXw3MTMuMDI2fDI4MC40NDV8Ni45NzM4NQ==)"/>
  <line x1="482.80" y1="116.79" x2="482.80" y2="280.44" style="stroke-width: 1.07; stroke: #E0AB00;" clip-path="url(#cpNi45NzM4NXw3MTMuMDI2fDI4MC40NDV8Ni45NzM4NQ==)"/>
  <line x1="398.80" y1="234.96" x2="398.80" y2="280.44" style="stroke-width: 1.07; stroke: #E0AB00;" clip-path="url(#cpNi45NzM4NXw3MTMuMDI2fDI4MC40NDV8Ni45NzM4NQ==)"/>
  <line x1="72.97" y1="270.65" x2="72.97" y2="280.44" style="stroke-width: 1.07; stroke: #E0AB00;" clip-path="url(#cpNi45NzM4NXw3MTMuMDI2fDI4MC40NDV8Ni45NzM4NQ==)"/>
  <line x1="351.34" y1="103.34" x2="351.34" y2="280.44" style="stroke-width: 1.07; stroke: #FF4237;" clip-path="url(#cpNi45NzM4NXw3MTMuMDI2fDI4MC40NDV8Ni45NzM4NQ==)"/>
  <line x1="377.33" y1="213.17" x2="377.33" y2="280.44" style="stroke-width: 1.07; stroke: #0278DD;" clip-path="url(#cpNi45NzM4NXw3MTMuMDI2fDI4MC40NDV8Ni45NzM4NQ==)"/>
  <line x1="474.89" y1="48.02" x2="474.89" y2="280.44" style="stroke-width: 1.07; stroke: #7FBE00;" clip-path="url(#cpNi45NzM4NXw3MTMuMDI2fDI4MC40NDV8Ni45NzM4NQ==)"/>
  <line x1="318.19" y1="274.32" x2="318.19" y2="280.44" style="stroke-width: 1.07; stroke: #E0AB00;" clip-path="url(#cpNi45NzM4NXw3MTMuMDI2fDI4MC40NDV8Ni45NzM4NQ==)"/>
  <line x1="603.71" y1="236.65" x2="603.71" y2="280.44" style="stroke-width: 1.07; stroke: #E0AB00;" clip-path="url(#cpNi45NzM4NXw3MTMuMDI2fDI4MC40NDV8Ni45NzM4NQ==)"/>
  <line x1="570.19" y1="213.72" x2="570.19" y2="280.43" style="stroke-width: 1.07; stroke: #7FBE00;" clip-path="url(#cpNi45NzM4NXw3MTMuMDI2fDI4MC40NDV8Ni45NzM4NQ==)"/>
  <line x1="517.45" y1="128.50" x2="517.45" y2="280.43" style="stroke-width: 1.07; stroke: #0278DD;" clip-path="url(#cpNi45NzM4NXw3MTMuMDI2fDI4MC40NDV8Ni45NzM4NQ==)"/>
  <line x1="531.77" y1="83.56" x2="531.77" y2="280.43" style="stroke-width: 1.07; stroke: #3AD1D1;" clip-path="url(#cpNi45NzM4NXw3MTMuMDI2fDI4MC40NDV8Ni45NzM4NQ==)"/>
  <line x1="328.36" y1="233.90" x2="328.36" y2="280.43" style="stroke-width: 1.07; stroke: #3AD1D1;" clip-path="url(#cpNi45NzM4NXw3MTMuMDI2fDI4MC40NDV8Ni45NzM4NQ==)"/>
  <line x1="379.59" y1="82.45" x2="379.59" y2="280.43" style="stroke-width: 1.07; stroke: #0278DD;" clip-path="url(#cpNi45NzM4NXw3MTMuMDI2fDI4MC40NDV8Ni45NzM4NQ==)"/>
  <line x1="175.80" y1="273.17" x2="175.80" y2="280.43" style="stroke-width: 1.07; stroke: #E0AB00;" clip-path="url(#cpNi45NzM4NXw3MTMuMDI2fDI4MC40NDV8Ni45NzM4NQ==)"/>
  <line x1="81.63" y1="246.43" x2="81.63" y2="280.43" style="stroke-width: 1.07; stroke: #0278DD;" clip-path="url(#cpNi45NzM4NXw3MTMuMDI2fDI4MC40NDV8Ni45NzM4NQ==)"/>
  <line x1="471.50" y1="25.65" x2="471.50" y2="280.43" style="stroke-width: 1.07; stroke: #E0AB00;" clip-path="url(#cpNi45NzM4NXw3MTMuMDI2fDI4MC40NDV8Ni45NzM4NQ==)"/>
  <line x1="492.59" y1="190.47" x2="492.59" y2="280.43" style="stroke-width: 1.07; stroke: #E0AB00;" clip-path="url(#cpNi45NzM4NXw3MTMuMDI2fDI4MC40NDV8Ni45NzM4NQ==)"/>
  <line x1="418.39" y1="211.56" x2="418.39" y2="280.43" style="stroke-width: 1.07; stroke: #0278DD;" clip-path="url(#cpNi45NzM4NXw3MTMuMDI2fDI4MC40NDV8Ni45NzM4NQ==)"/>
  <line x1="428.18" y1="266.16" x2="428.18" y2="280.43" style="stroke-width: 1.07; stroke: #0278DD;" clip-path="url(#cpNi45NzM4NXw3MTMuMDI2fDI4MC40NDV8Ni45NzM4NQ==)"/>
  <line x1="236.07" y1="275.02" x2="236.07" y2="280.43" style="stroke-width: 1.07; stroke: #0278DD;" clip-path="url(#cpNi45NzM4NXw3MTMuMDI2fDI4MC40NDV8Ni45NzM4NQ==)"/>
  <line x1="596.93" y1="151.33" x2="596.93" y2="280.43" style="stroke-width: 1.07; stroke: #E0AB00;" clip-path="url(#cpNi45NzM4NXw3MTMuMDI2fDI4MC40NDV8Ni45NzM4NQ==)"/>
  <line x1="419.52" y1="145.94" x2="419.52" y2="280.43" style="stroke-width: 1.07; stroke: #0278DD;" clip-path="url(#cpNi45NzM4NXw3MTMuMDI2fDI4MC40NDV8Ni45NzM4NQ==)"/>
  <line x1="186.35" y1="248.56" x2="186.35" y2="280.43" style="stroke-width: 1.07; stroke: #E0AB00;" clip-path="url(#cpNi45NzM4NXw3MTMuMDI2fDI4MC40NDV8Ni45NzM4NQ==)"/>
  <line x1="564.54" y1="257.26" x2="564.54" y2="280.43" style="stroke-width: 1.07; stroke: #CA0565;" clip-path="url(#cpNi45NzM4NXw3MTMuMDI2fDI4MC40NDV8Ni45NzM4NQ==)"/>
  <line x1="400.30" y1="105.88" x2="400.30" y2="280.43" style="stroke-width: 1.07; stroke: #0278DD;" clip-path="url(#cpNi45NzM4NXw3MTMuMDI2fDI4MC40NDV8Ni45NzM4NQ==)"/>
  <line x1="602.58" y1="173.23" x2="602.58" y2="280.43" style="stroke-width: 1.07; stroke: #E0AB00;" clip-path="url(#cpNi45NzM4NXw3MTMuMDI2fDI4MC40NDV8Ni45NzM4NQ==)"/>
  <line x1="468.11" y1="95.65" x2="468.11" y2="280.43" style="stroke-width: 1.07; stroke: #0278DD;" clip-path="url(#cpNi45NzM4NXw3MTMuMDI2fDI4MC40NDV8Ni45NzM4NQ==)"/>
  <line x1="382.22" y1="45.58" x2="382.22" y2="280.43" style="stroke-width: 1.07; stroke: #E0AB00;" clip-path="url(#cpNi45NzM4NXw3MTMuMDI2fDI4MC40NDV8Ni45NzM4NQ==)"/>
  <line x1="515.95" y1="40.62" x2="515.95" y2="280.43" style="stroke-width: 1.07; stroke: #E0AB00;" clip-path="url(#cpNi45NzM4NXw3MTMuMDI2fDI4MC40NDV8Ni45NzM4NQ==)"/>
  <line x1="543.44" y1="235.56" x2="543.44" y2="280.43" style="stroke-width: 1.07; stroke: #FF8821;" clip-path="url(#cpNi45NzM4NXw3MTMuMDI2fDI4MC40NDV8Ni45NzM4NQ==)"/>
  <line x1="268.84" y1="179.01" x2="268.84" y2="280.42" style="stroke-width: 1.07; stroke: #0278DD;" clip-path="url(#cpNi45NzM4NXw3MTMuMDI2fDI4MC40NDV8Ni45NzM4NQ==)"/>
  <line x1="571.70" y1="106.14" x2="571.70" y2="280.42" style="stroke-width: 1.07; stroke: #E0AB00;" clip-path="url(#cpNi45NzM4NXw3MTMuMDI2fDI4MC40NDV8Ni45NzM4NQ==)"/>
  <line x1="487.32" y1="72.63" x2="487.32" y2="280.42" style="stroke-width: 1.07; stroke: #E0AB00;" clip-path="url(#cpNi45NzM4NXw3MTMuMDI2fDI4MC40NDV8Ni45NzM4NQ==)"/>
  <line x1="497.11" y1="148.38" x2="497.11" y2="280.42" style="stroke-width: 1.07; stroke: #0278DD;" clip-path="url(#cpNi45NzM4NXw3MTMuMDI2fDI4MC40NDV8Ni45NzM4NQ==)"/>
  <line x1="553.24" y1="94.52" x2="553.24" y2="280.42" style="stroke-width: 1.07; stroke: #FF4237;" clip-path="url(#cpNi45NzM4NXw3MTMuMDI2fDI4MC40NDV8Ni45NzM4NQ==)"/>
  <line x1="558.13" y1="152.20" x2="558.13" y2="280.42" style="stroke-width: 1.07; stroke: #FF4237;" clip-path="url(#cpNi45NzM4NXw3MTMuMDI2fDI4MC40NDV8Ni45NzM4NQ==)"/>
  <line x1="577.35" y1="130.91" x2="577.35" y2="280.42" style="stroke-width: 1.07; stroke: #0278DD;" clip-path="url(#cpNi45NzM4NXw3MTMuMDI2fDI4MC40NDV8Ni45NzM4NQ==)"/>
  <line x1="600.70" y1="118.92" x2="600.70" y2="280.42" style="stroke-width: 1.07; stroke: #E0AB00;" clip-path="url(#cpNi45NzM4NXw3MTMuMDI2fDI4MC40NDV8Ni45NzM4NQ==)"/>
  <line x1="515.57" y1="63.57" x2="515.57" y2="280.42" style="stroke-width: 1.07; stroke: #003D76;" clip-path="url(#cpNi45NzM4NXw3MTMuMDI2fDI4MC40NDV8Ni45NzM4NQ==)"/>
  <line x1="542.69" y1="50.19" x2="542.69" y2="280.42" style="stroke-width: 1.07; stroke: #0278DD;" clip-path="url(#cpNi45NzM4NXw3MTMuMDI2fDI4MC40NDV8Ni45NzM4NQ==)"/>
  <line x1="349.83" y1="145.84" x2="349.83" y2="280.42" style="stroke-width: 1.07; stroke: #0278DD;" clip-path="url(#cpNi45NzM4NXw3MTMuMDI2fDI4MC40NDV8Ni45NzM4NQ==)"/>
  <line x1="364.14" y1="63.91" x2="364.14" y2="280.42" style="stroke-width: 1.07; stroke: #E0AB00;" clip-path="url(#cpNi45NzM4NXw3MTMuMDI2fDI4MC40NDV8Ni45NzM4NQ==)"/>
  <line x1="378.83" y1="25.65" x2="378.83" y2="280.42" style="stroke-width: 1.07; stroke: #E0AB00;" clip-path="url(#cpNi45NzM4NXw3MTMuMDI2fDI4MC40NDV8Ni45NzM4NQ==)"/>
  <line x1="578.48" y1="69.29" x2="578.48" y2="280.42" style="stroke-width: 1.07; stroke: #7FBE00;" clip-path="url(#cpNi45NzM4NXw3MTMuMDI2fDI4MC40NDV8Ni45NzM4NQ==)"/>
  <line x1="447.01" y1="189.86" x2="447.01" y2="280.42" style="stroke-width: 1.07; stroke: #E0AB00;" clip-path="url(#cpNi45NzM4NXw3MTMuMDI2fDI4MC40NDV8Ni45NzM4NQ==)"/>
  <defs>
    <clipPath id="cpNi45NzM4NXw3MTMuMDI2fDI4MC40NDV8Ni45NzM4NQ==">
      <rect x="6.97" y="6.97" width="706.05" height="273.47"/>
    </clipPath>
  </defs>
  <polyline points="429.61,189.86 464.42,189.86 464.33,189.86 464.68,189.84 465.02,189.77 465.34,189.65 465.64,189.48 465.91,189.26 466.14,189.00 466.33,188.70 466.47,188.38 466.55,188.05 466.58,187.70 466.58,187.70 466.58,176.94 466.58,176.94 466.55,176.60 466.47,176.26 466.33,175.94 466.14,175.65 465.91,175.39 465.64,175.17 465.34,174.99 465.02,174.87 464.68,174.80 464.42,174.78 429.61,174.78 429.87,174.80 429.52,174.79 429.18,174.83 428.84,174.92 428.53,175.07 428.24,175.27 427.99,175.51 427.78,175.79 427.62,176.10 427.51,176.43 427.46,176.77 427.45,176.94 427.45,187.70 427.46,187.53 427.46,187.87 427.51,188.22 427.62,188.55 427.78,188.85 427.99,189.13 428.24,189.37 428.53,189.57 428.84,189.72 429.18,189.82 429.52,189.86 " style="stroke-width: 0.53; stroke: #E0AB00; fill: #E0AB00;" clip-path="url(#cpNi45NzM4NXw3MTMuMDI2fDI4MC40NDV8Ni45NzM4NQ==)"/>
  <g clip-path="url(#cpNi45NzM4NXw3MTMuMDI2fDI4MC40NDV8Ni45NzM4NQ==)">
    <text x="431.05" y="186.26" style="font-size: 11.04px; fill: #FFF; font-family: Arial;" textLength="31.93px" lengthAdjust="spacingAndGlyphs">SLICE</text>
  </g>
  <polyline points="552.17,69.29 604.78,69.29 604.69,69.29 605.04,69.28 605.38,69.21 605.70,69.08 606.01,68.91 606.28,68.69 606.51,68.43 606.69,68.13 606.83,67.82 606.91,67.48 606.94,67.13 606.94,67.13 606.94,56.38 606.94,56.38 606.91,56.03 606.83,55.69 606.69,55.37 606.51,55.08 606.28,54.82 606.01,54.60 605.70,54.42 605.38,54.30 605.04,54.23 604.78,54.22 552.17,54.22 552.43,54.23 552.08,54.22 551.74,54.26 551.41,54.36 551.09,54.51 550.81,54.70 550.56,54.94 550.35,55.22 550.18,55.53 550.07,55.86 550.02,56.20 550.01,56.38 550.01,67.13 550.02,66.96 550.02,67.30 550.07,67.65 550.18,67.98 550.35,68.29 550.56,68.56 550.81,68.80 551.09,69.00 551.41,69.15 551.74,69.25 552.08,69.29 " style="stroke-width: 0.53; stroke: #7FBE00; fill: #7FBE00;" clip-path="url(#cpNi45NzM4NXw3MTMuMDI2fDI4MC40NDV8Ni45NzM4NQ==)"/>
  <g clip-path="url(#cpNi45NzM4NXw3MTMuMDI2fDI4MC40NDV8Ni45NzM4NQ==)">
    <text x="553.61" y="65.69" style="font-size: 11.04px; fill: #FFF; font-family: Arial;" textLength="49.73px" lengthAdjust="spacingAndGlyphs">GrandPrix</text>
  </g>
  <polyline points="358.98,25.65 398.69,25.65 398.60,25.65 398.95,25.63 399.29,25.56 399.62,25.44 399.92,25.27 400.19,25.05 400.42,24.79 400.60,24.49 400.74,24.17 400.82,23.84 400.85,23.49 400.85,23.49 400.85,12.73 400.85,12.73 400.82,12.39 400.74,12.05 400.60,11.73 400.42,11.44 400.19,11.18 399.92,10.96 399.62,10.78 399.29,10.66 398.95,10.59 398.69,10.57 358.98,10.57 359.24,10.59 358.89,10.58 358.55,10.62 358.21,10.71 357.90,10.86 357.61,11.06 357.36,11.30 357.15,11.58 356.99,11.89 356.88,12.22 356.83,12.56 356.82,12.73 356.82,23.49 356.83,23.32 356.83,23.66 356.88,24.01 356.99,24.34 357.15,24.64 357.36,24.92 357.61,25.16 357.90,25.36 358.21,25.51 358.55,25.61 358.89,25.65 " style="stroke-width: 0.53; stroke: #E0AB00; fill: #E0AB00;" clip-path="url(#cpNi45NzM4NXw3MTMuMDI2fDI4MC40NDV8Ni45NzM4NQ==)"/>
  <g clip-path="url(#cpNi45NzM4NXw3MTMuMDI2fDI4MC40NDV8Ni45NzM4NQ==)">
    <text x="360.42" y="22.05" style="font-size: 11.04px; fill: #FFF; font-family: Arial;" textLength="36.83px" lengthAdjust="spacingAndGlyphs">StemID</text>
  </g>
  <polyline points="343.98,63.91 384.30,63.91 384.22,63.91 384.56,63.89 384.90,63.83 385.23,63.70 385.53,63.53 385.80,63.31 386.03,63.05 386.22,62.75 386.35,62.43 386.44,62.10 386.46,61.75 386.46,61.75 386.46,51.00 386.46,51.00 386.44,50.65 386.35,50.31 386.22,49.99 386.03,49.70 385.80,49.44 385.53,49.22 385.23,49.04 384.90,48.92 384.56,48.85 384.30,48.84 343.98,48.84 344.24,48.85 343.90,48.84 343.55,48.88 343.22,48.98 342.90,49.13 342.62,49.32 342.37,49.56 342.16,49.84 342.00,50.15 341.89,50.48 341.83,50.82 341.82,51.00 341.82,61.75 341.83,61.58 341.83,61.92 341.89,62.27 342.00,62.60 342.16,62.91 342.37,63.18 342.62,63.42 342.90,63.62 343.22,63.77 343.55,63.87 343.90,63.91 " style="stroke-width: 0.53; stroke: #E0AB00; fill: #E0AB00;" clip-path="url(#cpNi45NzM4NXw3MTMuMDI2fDI4MC40NDV8Ni45NzM4NQ==)"/>
  <g clip-path="url(#cpNi45NzM4NXw3MTMuMDI2fDI4MC40NDV8Ni45NzM4NQ==)">
    <text x="345.42" y="60.31" style="font-size: 11.04px; fill: #FFF; font-family: Arial;" textLength="37.44px" lengthAdjust="spacingAndGlyphs">TSCAN</text>
  </g>
  <polyline points="323.51,145.84 376.15,145.84 376.06,145.84 376.41,145.82 376.75,145.75 377.07,145.63 377.37,145.46 377.64,145.24 377.87,144.98 378.06,144.68 378.20,144.36 378.28,144.02 378.31,143.68 378.31,143.68 378.31,132.92 378.31,132.92 378.28,132.58 378.20,132.24 378.06,131.92 377.87,131.63 377.64,131.37 377.37,131.15 377.07,130.97 376.75,130.85 376.41,130.78 376.15,130.76 323.51,130.76 323.77,130.78 323.43,130.76 323.08,130.81 322.75,130.90 322.43,131.05 322.15,131.25 321.90,131.49 321.69,131.77 321.53,132.08 321.42,132.41 321.36,132.75 321.35,132.92 321.35,143.68 321.36,143.50 321.36,143.85 321.42,144.19 321.53,144.52 321.69,144.83 321.90,145.11 322.15,145.35 322.43,145.55 322.75,145.70 323.08,145.79 323.43,145.84 " style="stroke-width: 0.53; stroke: #0278DD; fill: #0278DD;" clip-path="url(#cpNi45NzM4NXw3MTMuMDI2fDI4MC40NDV8Ni45NzM4NQ==)"/>
  <g clip-path="url(#cpNi45NzM4NXw3MTMuMDI2fDI4MC40NDV8Ni45NzM4NQ==)">
    <text x="324.95" y="142.24" style="font-size: 11.04px; fill: #FFF; font-family: Arial;" textLength="49.75px" lengthAdjust="spacingAndGlyphs">Pseudogp</text>
  </g>
  <polyline points="494.29,50.19 591.09,50.19 591.01,50.19 591.35,50.18 591.69,50.11 592.02,49.98 592.32,49.81 592.59,49.59 592.82,49.33 593.01,49.04 593.14,48.72 593.23,48.38 593.25,48.03 593.25,48.03 593.25,37.28 593.25,37.28 593.23,36.93 593.14,36.59 593.01,36.27 592.82,35.98 592.59,35.72 592.32,35.50 592.02,35.33 591.69,35.20 591.35,35.13 591.09,35.12 494.29,35.12 494.55,35.13 494.20,35.12 493.86,35.16 493.52,35.26 493.21,35.41 492.92,35.60 492.67,35.84 492.46,36.12 492.30,36.43 492.19,36.76 492.13,37.10 492.13,37.28 492.13,48.03 492.13,47.86 492.13,48.21 492.19,48.55 492.30,48.88 492.46,49.19 492.67,49.46 492.92,49.71 493.21,49.90 493.52,50.05 493.86,50.15 494.20,50.19 " style="stroke-width: 0.53; stroke: #0278DD; fill: #0278DD;" clip-path="url(#cpNi45NzM4NXw3MTMuMDI2fDI4MC40NDV8Ni45NzM4NQ==)"/>
  <g clip-path="url(#cpNi45NzM4NXw3MTMuMDI2fDI4MC40NDV8Ni45NzM4NQ==)">
    <text x="495.73" y="46.59" style="font-size: 11.04px; fill: #FFF; font-family: Arial;" textLength="93.93px" lengthAdjust="spacingAndGlyphs">SCORPIUS sparse</text>
  </g>
  <polyline points="498.17,63.57 532.97,63.57 532.88,63.57 533.23,63.56 533.57,63.49 533.89,63.37 534.19,63.19 534.46,62.97 534.69,62.71 534.88,62.42 535.02,62.10 535.10,61.76 535.13,61.41 535.13,61.41 535.13,50.66 535.13,50.66 535.10,50.31 535.02,49.97 534.88,49.65 534.69,49.36 534.46,49.10 534.19,48.88 533.89,48.71 533.57,48.58 533.23,48.51 532.97,48.50 498.17,48.50 498.43,48.51 498.08,48.50 497.74,48.54 497.41,48.64 497.09,48.79 496.81,48.99 496.55,49.23 496.35,49.50 496.18,49.81 496.07,50.14 496.02,50.48 496.01,50.66 496.01,61.41 496.02,61.24 496.02,61.59 496.07,61.93 496.18,62.26 496.35,62.57 496.55,62.85 496.81,63.09 497.09,63.28 497.41,63.43 497.74,63.53 498.08,63.57 " style="stroke-width: 0.53; stroke: #003D76; fill: #003D76;" clip-path="url(#cpNi45NzM4NXw3MTMuMDI2fDI4MC40NDV8Ni45NzM4NQ==)"/>
  <g clip-path="url(#cpNi45NzM4NXw3MTMuMDI2fDI4MC40NDV8Ni45NzM4NQ==)">
    <text x="499.61" y="59.97" style="font-size: 11.04px; fill: #FFF; font-family: Arial;" textLength="31.92px" lengthAdjust="spacingAndGlyphs">reCAT</text>
  </g>
  <polyline points="576.24,118.92 625.16,118.92 625.07,118.92 625.42,118.90 625.76,118.83 626.09,118.71 626.39,118.54 626.66,118.32 626.89,118.06 627.07,117.76 627.21,117.44 627.29,117.10 627.32,116.76 627.32,116.76 627.32,106.00 627.32,106.00 627.29,105.66 627.21,105.32 627.07,105.00 626.89,104.71 626.66,104.45 626.39,104.23 626.09,104.05 625.76,103.93 625.42,103.86 625.16,103.84 576.24,103.84 576.50,103.86 576.15,103.85 575.81,103.89 575.47,103.98 575.16,104.13 574.87,104.33 574.62,104.57 574.41,104.85 574.25,105.16 574.14,105.49 574.09,105.83 574.08,106.00 574.08,116.76 574.09,116.58 574.09,116.93 574.14,117.28 574.25,117.61 574.41,117.91 574.62,118.19 574.87,118.43 575.16,118.63 575.47,118.78 575.81,118.87 576.15,118.92 " style="stroke-width: 0.53; stroke: #E0AB00; fill: #E0AB00;" clip-path="url(#cpNi45NzM4NXw3MTMuMDI2fDI4MC40NDV8Ni45NzM4NQ==)"/>
  <g clip-path="url(#cpNi45NzM4NXw3MTMuMDI2fDI4MC40NDV8Ni45NzM4NQ==)">
    <text x="577.68" y="115.32" style="font-size: 11.04px; fill: #FFF; font-family: Arial;" textLength="46.04px" lengthAdjust="spacingAndGlyphs">CALISTA</text>
  </g>
  <polyline points="561.17,130.91 593.52,130.91 593.43,130.91 593.78,130.90 594.12,130.83 594.45,130.70 594.75,130.53 595.02,130.31 595.25,130.05 595.43,129.76 595.57,129.44 595.65,129.10 595.68,128.75 595.68,128.75 595.68,118.00 595.68,118.00 595.65,117.65 595.57,117.31 595.43,116.99 595.25,116.70 595.02,116.44 594.75,116.22 594.45,116.05 594.12,115.92 593.78,115.85 593.52,115.84 561.17,115.84 561.43,115.85 561.08,115.84 560.74,115.88 560.41,115.98 560.09,116.13 559.81,116.32 559.55,116.56 559.35,116.84 559.18,117.15 559.07,117.48 559.02,117.82 559.01,118.00 559.01,128.75 559.02,128.58 559.02,128.93 559.07,129.27 559.18,129.60 559.35,129.91 559.55,130.18 559.81,130.42 560.09,130.62 560.41,130.77 560.74,130.87 561.08,130.91 " style="stroke-width: 0.53; stroke: #0278DD; fill: #0278DD;" clip-path="url(#cpNi45NzM4NXw3MTMuMDI2fDI4MC40NDV8Ni45NzM4NQ==)"/>
  <g clip-path="url(#cpNi45NzM4NXw3MTMuMDI2fDI4MC40NDV8Ni45NzM4NQ==)">
    <text x="562.61" y="127.31" style="font-size: 11.04px; fill: #FFF; font-family: Arial;" textLength="29.47px" lengthAdjust="spacingAndGlyphs">iCpSc</text>
  </g>
  <polyline points="535.82,152.20 580.45,152.20 580.36,152.20 580.71,152.19 581.05,152.12 581.38,151.99 581.68,151.82 581.95,151.60 582.18,151.34 582.36,151.05 582.50,150.73 582.58,150.39 582.61,150.04 582.61,150.04 582.61,139.29 582.61,139.29 582.58,138.94 582.50,138.60 582.36,138.28 582.18,137.99 581.95,137.73 581.68,137.51 581.38,137.34 581.05,137.21 580.71,137.14 580.45,137.13 535.82,137.13 536.08,137.14 535.73,137.13 535.39,137.17 535.05,137.27 534.74,137.42 534.45,137.61 534.20,137.85 533.99,138.13 533.83,138.44 533.72,138.77 533.67,139.11 533.66,139.29 533.66,150.04 533.67,149.87 533.67,150.22 533.72,150.56 533.83,150.89 533.99,151.20 534.20,151.47 534.45,151.71 534.74,151.91 535.05,152.06 535.39,152.16 535.73,152.20 " style="stroke-width: 0.53; stroke: #FF4237; fill: #FF4237;" clip-path="url(#cpNi45NzM4NXw3MTMuMDI2fDI4MC40NDV8Ni45NzM4NQ==)"/>
  <g clip-path="url(#cpNi45NzM4NXw3MTMuMDI2fDI4MC40NDV8Ni45NzM4NQ==)">
    <text x="537.26" y="148.60" style="font-size: 11.04px; fill: #FFF; font-family: Arial;" textLength="41.75px" lengthAdjust="spacingAndGlyphs">TreeTop</text>
  </g>
  <polyline points="503.93,94.52 602.54,94.52 602.45,94.52 602.80,94.51 603.14,94.44 603.47,94.31 603.77,94.14 604.04,93.92 604.27,93.66 604.45,93.36 604.59,93.05 604.67,92.71 604.70,92.36 604.70,92.36 604.70,81.61 604.70,81.61 604.67,81.26 604.59,80.92 604.45,80.60 604.27,80.31 604.04,80.05 603.77,79.83 603.47,79.65 603.14,79.53 602.80,79.46 602.54,79.45 503.93,79.45 504.19,79.46 503.85,79.45 503.50,79.49 503.17,79.59 502.85,79.74 502.57,79.93 502.32,80.17 502.11,80.45 501.95,80.76 501.84,81.09 501.78,81.43 501.77,81.61 501.77,92.36 501.78,92.19 501.78,92.53 501.84,92.88 501.95,93.21 502.11,93.52 502.32,93.79 502.57,94.03 502.85,94.23 503.17,94.38 503.50,94.48 503.85,94.52 " style="stroke-width: 0.53; stroke: #FF4237; fill: #FF4237;" clip-path="url(#cpNi45NzM4NXw3MTMuMDI2fDI4MC40NDV8Ni45NzM4NQ==)"/>
  <g clip-path="url(#cpNi45NzM4NXw3MTMuMDI2fDI4MC40NDV8Ni45NzM4NQ==)">
    <text x="505.37" y="90.92" style="font-size: 11.04px; fill: #FFF; font-family: Arial;" textLength="95.73px" lengthAdjust="spacingAndGlyphs">WADDINGTON-OT</text>
  </g>
  <polyline points="479.10,148.38 515.12,148.38 515.04,148.38 515.38,148.36 515.72,148.29 516.05,148.17 516.35,148.00 516.62,147.78 516.85,147.52 517.04,147.22 517.17,146.90 517.25,146.57 517.28,146.22 517.28,146.22 517.28,135.46 517.28,135.46 517.25,135.12 517.17,134.78 517.04,134.46 516.85,134.17 516.62,133.91 516.35,133.69 516.05,133.51 515.72,133.39 515.38,133.32 515.12,133.30 479.10,133.30 479.36,133.32 479.01,133.31 478.67,133.35 478.34,133.45 478.02,133.59 477.74,133.79 477.49,134.03 477.28,134.31 477.11,134.62 477.00,134.95 476.95,135.29 476.94,135.46 476.94,146.22 476.95,146.05 476.95,146.39 477.00,146.74 477.11,147.07 477.28,147.37 477.49,147.65 477.74,147.89 478.02,148.09 478.34,148.24 478.67,148.34 479.01,148.38 " style="stroke-width: 0.53; stroke: #0278DD; fill: #0278DD;" clip-path="url(#cpNi45NzM4NXw3MTMuMDI2fDI4MC40NDV8Ni45NzM4NQ==)"/>
  <g clip-path="url(#cpNi45NzM4NXw3MTMuMDI2fDI4MC40NDV8Ni45NzM4NQ==)">
    <text x="480.54" y="144.78" style="font-size: 11.04px; fill: #FFF; font-family: Arial;" textLength="33.14px" lengthAdjust="spacingAndGlyphs">scTDA</text>
  </g>
  <polyline points="465.62,72.63 509.01,72.63 508.93,72.63 509.27,72.62 509.61,72.55 509.94,72.42 510.24,72.25 510.51,72.03 510.74,71.77 510.93,71.48 511.06,71.16 511.14,70.82 511.17,70.47 511.17,70.47 511.17,59.72 511.17,59.72 511.14,59.37 511.06,59.03 510.93,58.71 510.74,58.42 510.51,58.16 510.24,57.94 509.94,57.77 509.61,57.64 509.27,57.57 509.01,57.56 465.62,57.56 465.88,57.57 465.54,57.56 465.19,57.60 464.86,57.70 464.54,57.85 464.26,58.04 464.01,58.28 463.80,58.56 463.64,58.87 463.53,59.20 463.47,59.54 463.46,59.72 463.46,70.47 463.47,70.30 463.47,70.65 463.53,70.99 463.64,71.32 463.80,71.63 464.01,71.90 464.26,72.15 464.54,72.34 464.86,72.49 465.19,72.59 465.54,72.63 " style="stroke-width: 0.53; stroke: #E0AB00; fill: #E0AB00;" clip-path="url(#cpNi45NzM4NXw3MTMuMDI2fDI4MC40NDV8Ni45NzM4NQ==)"/>
  <g clip-path="url(#cpNi45NzM4NXw3MTMuMDI2fDI4MC40NDV8Ni45NzM4NQ==)">
    <text x="467.06" y="69.03" style="font-size: 11.04px; fill: #FFF; font-family: Arial;" textLength="40.51px" lengthAdjust="spacingAndGlyphs">SOMSC</text>
  </g>
  <polyline points="547.23,106.14 596.16,106.14 596.08,106.14 596.42,106.13 596.76,106.06 597.09,105.93 597.39,105.76 597.66,105.54 597.89,105.28 598.07,104.99 598.21,104.67 598.29,104.33 598.32,103.98 598.32,103.98 598.32,93.23 598.32,93.23 598.29,92.88 598.21,92.54 598.07,92.22 597.89,91.93 597.66,91.67 597.39,91.45 597.09,91.28 596.76,91.15 596.42,91.08 596.16,91.07 547.23,91.07 547.49,91.08 547.14,91.07 546.80,91.11 546.46,91.21 546.15,91.36 545.86,91.55 545.61,91.80 545.40,92.07 545.24,92.38 545.13,92.71 545.08,93.05 545.07,93.23 545.07,103.98 545.08,103.81 545.08,104.16 545.13,104.50 545.24,104.83 545.40,105.14 545.61,105.41 545.86,105.66 546.15,105.85 546.46,106.00 546.80,106.10 547.14,106.14 " style="stroke-width: 0.53; stroke: #E0AB00; fill: #E0AB00;" clip-path="url(#cpNi45NzM4NXw3MTMuMDI2fDI4MC40NDV8Ni45NzM4NQ==)"/>
  <g clip-path="url(#cpNi45NzM4NXw3MTMuMDI2fDI4MC40NDV8Ni45NzM4NQ==)">
    <text x="548.67" y="102.54" style="font-size: 11.04px; fill: #FFF; font-family: Arial;" textLength="46.05px" lengthAdjust="spacingAndGlyphs">p-Creode</text>
  </g>
  <polyline points="245.61,179.01 292.07,179.01 291.99,179.00 292.34,178.99 292.68,178.92 293.00,178.80 293.30,178.62 293.57,178.40 293.80,178.14 293.99,177.85 294.12,177.53 294.21,177.19 294.23,176.85 294.23,176.85 294.23,166.09 294.23,166.09 294.21,165.74 294.12,165.41 293.99,165.09 293.80,164.79 293.57,164.53 293.30,164.31 293.00,164.14 292.68,164.02 292.34,163.95 292.07,163.93 245.61,163.93 245.87,163.95 245.52,163.93 245.18,163.97 244.85,164.07 244.53,164.22 244.25,164.42 243.99,164.66 243.79,164.94 243.62,165.24 243.51,165.57 243.46,165.92 243.45,166.09 243.45,176.85 243.46,176.67 243.46,177.02 243.51,177.36 243.62,177.69 243.79,178.00 243.99,178.28 244.25,178.52 244.53,178.72 244.85,178.87 245.18,178.96 245.52,179.00 " style="stroke-width: 0.53; stroke: #0278DD; fill: #0278DD;" clip-path="url(#cpNi45NzM4NXw3MTMuMDI2fDI4MC40NDV8Ni45NzM4NQ==)"/>
  <g clip-path="url(#cpNi45NzM4NXw3MTMuMDI2fDI4MC40NDV8Ni45NzM4NQ==)">
    <text x="247.05" y="175.41" style="font-size: 11.04px; fill: #FFF; font-family: Arial;" textLength="43.58px" lengthAdjust="spacingAndGlyphs">Waterfall</text>
  </g>
  <polyline points="521.75,235.56 565.14,235.56 565.05,235.56 565.40,235.54 565.74,235.47 566.06,235.35 566.37,235.18 566.63,234.96 566.87,234.70 567.05,234.40 567.19,234.08 567.27,233.74 567.30,233.40 567.30,233.40 567.30,222.64 567.30,222.64 567.27,222.30 567.19,221.96 567.05,221.64 566.87,221.34 566.63,221.08 566.37,220.86 566.06,220.69 565.74,220.57 565.40,220.50 565.14,220.48 521.75,220.48 522.01,220.50 521.66,220.48 521.32,220.53 520.98,220.62 520.67,220.77 520.38,220.97 520.13,221.21 519.92,221.49 519.76,221.80 519.65,222.13 519.60,222.47 519.59,222.64 519.59,233.40 519.60,233.22 519.60,233.57 519.65,233.91 519.76,234.24 519.92,234.55 520.13,234.83 520.38,235.07 520.67,235.27 520.98,235.42 521.32,235.51 521.66,235.56 " style="stroke-width: 0.53; stroke: #FF8821; fill: #FF8821;" clip-path="url(#cpNi45NzM4NXw3MTMuMDI2fDI4MC40NDV8Ni45NzM4NQ==)"/>
  <g clip-path="url(#cpNi45NzM4NXw3MTMuMDI2fDI4MC40NDV8Ni45NzM4NQ==)">
    <text x="523.19" y="231.96" style="font-size: 11.04px; fill: #FFF; font-family: Arial;" textLength="40.51px" lengthAdjust="spacingAndGlyphs">B-RGPs</text>
  </g>
  <polyline points="495.48,40.62 536.41,40.62 536.33,40.62 536.67,40.61 537.01,40.54 537.34,40.41 537.64,40.24 537.91,40.02 538.14,39.76 538.33,39.47 538.46,39.15 538.55,38.81 538.57,38.46 538.57,38.46 538.57,27.71 538.57,27.71 538.55,27.36 538.46,27.02 538.33,26.70 538.14,26.41 537.91,26.15 537.64,25.93 537.34,25.76 537.01,25.63 536.67,25.56 536.41,25.55 495.48,25.55 495.74,25.56 495.39,25.55 495.05,25.59 494.71,25.69 494.40,25.84 494.11,26.03 493.86,26.28 493.65,26.55 493.49,26.86 493.38,27.19 493.33,27.53 493.32,27.71 493.32,38.46 493.33,38.29 493.33,38.64 493.38,38.98 493.49,39.31 493.65,39.62 493.86,39.90 494.11,40.14 494.40,40.33 494.71,40.48 495.05,40.58 495.39,40.62 " style="stroke-width: 0.53; stroke: #E0AB00; fill: #E0AB00;" clip-path="url(#cpNi45NzM4NXw3MTMuMDI2fDI4MC40NDV8Ni45NzM4NQ==)"/>
  <g clip-path="url(#cpNi45NzM4NXw3MTMuMDI2fDI4MC40NDV8Ni45NzM4NQ==)">
    <text x="496.92" y="37.02" style="font-size: 11.04px; fill: #FFF; font-family: Arial;" textLength="38.05px" lengthAdjust="spacingAndGlyphs">FORKS</text>
  </g>
  <polyline points="365.43,45.58 399.02,45.58 398.93,45.58 399.28,45.56 399.62,45.50 399.94,45.37 400.24,45.20 400.51,44.98 400.74,44.72 400.93,44.42 401.06,44.10 401.15,43.77 401.18,43.42 401.18,43.42 401.18,32.67 401.18,32.67 401.15,32.32 401.06,31.98 400.93,31.66 400.74,31.37 400.51,31.11 400.24,30.89 399.94,30.71 399.62,30.59 399.28,30.52 399.02,30.51 365.43,30.51 365.69,30.52 365.35,30.51 365.00,30.55 364.67,30.65 364.35,30.79 364.07,30.99 363.82,31.23 363.61,31.51 363.45,31.82 363.34,32.15 363.28,32.49 363.27,32.67 363.27,43.42 363.28,43.25 363.28,43.59 363.34,43.94 363.45,44.27 363.61,44.58 363.82,44.85 364.07,45.09 364.35,45.29 364.67,45.44 365.00,45.54 365.35,45.58 " style="stroke-width: 0.53; stroke: #E0AB00; fill: #E0AB00;" clip-path="url(#cpNi45NzM4NXw3MTMuMDI2fDI4MC40NDV8Ni45NzM4NQ==)"/>
  <g clip-path="url(#cpNi45NzM4NXw3MTMuMDI2fDI4MC40NDV8Ni45NzM4NQ==)">
    <text x="366.87" y="41.98" style="font-size: 11.04px; fill: #FFF; font-family: Arial;" textLength="30.70px" lengthAdjust="spacingAndGlyphs">Mpath</text>
  </g>
  <polyline points="445.49,95.65 490.73,95.65 490.64,95.65 490.99,95.64 491.33,95.57 491.65,95.44 491.95,95.27 492.22,95.05 492.45,94.79 492.64,94.50 492.78,94.18 492.86,93.84 492.89,93.49 492.89,93.49 492.89,82.74 492.89,82.74 492.86,82.39 492.78,82.05 492.64,81.73 492.45,81.44 492.22,81.18 491.95,80.96 491.65,80.78 491.33,80.66 490.99,80.59 490.73,80.58 445.49,80.58 445.75,80.59 445.40,80.58 445.06,80.62 444.72,80.72 444.41,80.87 444.12,81.06 443.87,81.30 443.66,81.58 443.50,81.89 443.39,82.22 443.34,82.56 443.33,82.74 443.33,93.49 443.34,93.32 443.34,93.67 443.39,94.01 443.50,94.34 443.66,94.65 443.87,94.92 444.12,95.16 444.41,95.36 444.72,95.51 445.06,95.61 445.40,95.65 " style="stroke-width: 0.53; stroke: #0278DD; fill: #0278DD;" clip-path="url(#cpNi45NzM4NXw3MTMuMDI2fDI4MC40NDV8Ni45NzM4NQ==)"/>
  <g clip-path="url(#cpNi45NzM4NXw3MTMuMDI2fDI4MC40NDV8Ni45NzM4NQ==)">
    <text x="446.93" y="92.05" style="font-size: 11.04px; fill: #FFF; font-family: Arial;" textLength="42.36px" lengthAdjust="spacingAndGlyphs">Topslam</text>
  </g>
  <polyline points="581.19,173.23 623.98,173.23 623.89,173.23 624.24,173.22 624.58,173.15 624.91,173.02 625.21,172.85 625.48,172.63 625.71,172.37 625.89,172.08 626.03,171.76 626.11,171.42 626.14,171.07 626.14,171.07 626.14,160.32 626.14,160.32 626.11,159.97 626.03,159.63 625.89,159.31 625.71,159.02 625.48,158.76 625.21,158.54 624.91,158.37 624.58,158.24 624.24,158.17 623.98,158.16 581.19,158.16 581.45,158.17 581.10,158.16 580.75,158.20 580.42,158.30 580.11,158.45 579.82,158.65 579.57,158.89 579.36,159.16 579.20,159.47 579.09,159.80 579.03,160.14 579.03,160.32 579.03,171.07 579.03,170.90 579.03,171.25 579.09,171.59 579.20,171.92 579.36,172.23 579.57,172.51 579.82,172.75 580.11,172.94 580.42,173.09 580.75,173.19 581.10,173.23 " style="stroke-width: 0.53; stroke: #E0AB00; fill: #E0AB00;" clip-path="url(#cpNi45NzM4NXw3MTMuMDI2fDI4MC40NDV8Ni45NzM4NQ==)"/>
  <g clip-path="url(#cpNi45NzM4NXw3MTMuMDI2fDI4MC40NDV8Ni45NzM4NQ==)">
    <text x="582.63" y="169.63" style="font-size: 11.04px; fill: #FFF; font-family: Arial;" textLength="39.92px" lengthAdjust="spacingAndGlyphs">scEpath</text>
  </g>
  <polyline points="371.55,105.88 429.06,105.88 428.97,105.88 429.32,105.87 429.66,105.80 429.99,105.67 430.29,105.50 430.56,105.28 430.79,105.02 430.97,104.73 431.11,104.41 431.19,104.07 431.22,103.72 431.22,103.72 431.22,92.97 431.22,92.97 431.19,92.62 431.11,92.28 430.97,91.96 430.79,91.67 430.56,91.41 430.29,91.19 429.99,91.02 429.66,90.89 429.32,90.82 429.06,90.81 371.55,90.81 371.81,90.82 371.46,90.81 371.12,90.85 370.78,90.95 370.47,91.10 370.18,91.29 369.93,91.53 369.72,91.81 369.56,92.12 369.45,92.45 369.40,92.79 369.39,92.97 369.39,103.72 369.40,103.55 369.40,103.90 369.45,104.24 369.56,104.57 369.72,104.88 369.93,105.15 370.18,105.40 370.47,105.59 370.78,105.74 371.12,105.84 371.46,105.88 " style="stroke-width: 0.53; stroke: #0278DD; fill: #0278DD;" clip-path="url(#cpNi45NzM4NXw3MTMuMDI2fDI4MC40NDV8Ni45NzM4NQ==)"/>
  <g clip-path="url(#cpNi45NzM4NXw3MTMuMDI2fDI4MC40NDV8Ni45NzM4NQ==)">
    <text x="372.99" y="102.28" style="font-size: 11.04px; fill: #FFF; font-family: Arial;" textLength="54.63px" lengthAdjust="spacingAndGlyphs">WaveCrest</text>
  </g>
  <polyline points="551.43,257.26 577.64,257.26 577.56,257.26 577.90,257.24 578.24,257.17 578.57,257.05 578.87,256.88 579.14,256.66 579.37,256.40 579.56,256.10 579.69,255.78 579.77,255.44 579.80,255.10 579.80,255.10 579.80,244.34 579.80,244.34 579.77,244.00 579.69,243.66 579.56,243.34 579.37,243.04 579.14,242.78 578.87,242.56 578.57,242.39 578.24,242.27 577.90,242.20 577.64,242.18 551.43,242.18 551.69,242.20 551.35,242.18 551.00,242.23 550.67,242.32 550.35,242.47 550.07,242.67 549.82,242.91 549.61,243.19 549.45,243.50 549.34,243.83 549.28,244.17 549.27,244.34 549.27,255.10 549.28,254.92 549.28,255.27 549.34,255.61 549.45,255.94 549.61,256.25 549.82,256.53 550.07,256.77 550.35,256.97 550.67,257.12 551.00,257.21 551.35,257.26 " style="stroke-width: 0.53; stroke: #CA0565; fill: #CA0565;" clip-path="url(#cpNi45NzM4NXw3MTMuMDI2fDI4MC40NDV8Ni45NzM4NQ==)"/>
  <g clip-path="url(#cpNi45NzM4NXw3MTMuMDI2fDI4MC40NDV8Ni45NzM4NQ==)">
    <text x="552.87" y="253.66" style="font-size: 11.04px; fill: #FFF; font-family: Arial;" textLength="23.33px" lengthAdjust="spacingAndGlyphs">AGA</text>
  </g>
  <polyline points="168.64,248.56 204.06,248.56 203.97,248.56 204.32,248.54 204.66,248.47 204.99,248.35 205.29,248.18 205.56,247.96 205.79,247.70 205.97,247.40 206.11,247.08 206.19,246.74 206.22,246.40 206.22,246.40 206.22,235.64 206.22,235.64 206.19,235.30 206.11,234.96 205.97,234.64 205.79,234.35 205.56,234.09 205.29,233.87 204.99,233.69 204.66,233.57 204.32,233.50 204.06,233.48 168.64,233.48 168.90,233.50 168.55,233.48 168.21,233.53 167.87,233.62 167.56,233.77 167.27,233.97 167.02,234.21 166.81,234.49 166.65,234.80 166.54,235.13 166.49,235.47 166.48,235.64 166.48,246.40 166.49,246.22 166.49,246.57 166.54,246.91 166.65,247.24 166.81,247.55 167.02,247.83 167.27,248.07 167.56,248.27 167.87,248.42 168.21,248.51 168.55,248.56 " style="stroke-width: 0.53; stroke: #E0AB00; fill: #E0AB00;" clip-path="url(#cpNi45NzM4NXw3MTMuMDI2fDI4MC40NDV8Ni45NzM4NQ==)"/>
  <g clip-path="url(#cpNi45NzM4NXw3MTMuMDI2fDI4MC40NDV8Ni45NzM4NQ==)">
    <text x="170.08" y="244.96" style="font-size: 11.04px; fill: #FFF; font-family: Arial;" textLength="32.54px" lengthAdjust="spacingAndGlyphs">Sincell</text>
  </g>
  <polyline points="389.23,145.94 449.81,145.94 449.72,145.94 450.07,145.93 450.41,145.86 450.73,145.74 451.03,145.56 451.30,145.34 451.53,145.08 451.72,144.79 451.85,144.47 451.94,144.13 451.97,143.78 451.97,143.78 451.97,133.03 451.97,133.03 451.94,132.68 451.85,132.35 451.72,132.03 451.53,131.73 451.30,131.47 451.03,131.25 450.73,131.08 450.41,130.96 450.07,130.89 449.81,130.87 389.23,130.87 389.49,130.89 389.14,130.87 388.79,130.91 388.46,131.01 388.15,131.16 387.86,131.36 387.61,131.60 387.40,131.88 387.24,132.18 387.13,132.51 387.07,132.86 387.07,133.03 387.07,143.78 387.07,143.61 387.07,143.96 387.13,144.30 387.24,144.63 387.40,144.94 387.61,145.22 387.86,145.46 388.15,145.66 388.46,145.80 388.79,145.90 389.14,145.94 " style="stroke-width: 0.53; stroke: #0278DD; fill: #0278DD;" clip-path="url(#cpNi45NzM4NXw3MTMuMDI2fDI4MC40NDV8Ni45NzM4NQ==)"/>
  <g clip-path="url(#cpNi45NzM4NXw3MTMuMDI2fDI4MC40NDV8Ni45NzM4NQ==)">
    <text x="390.67" y="142.34" style="font-size: 11.04px; fill: #FFF; font-family: Arial;" textLength="57.70px" lengthAdjust="spacingAndGlyphs">SCORPIUS</text>
  </g>
  <polyline points="563.87,151.33 630.00,151.33 629.91,151.33 630.26,151.31 630.60,151.24 630.93,151.12 631.23,150.95 631.50,150.73 631.73,150.47 631.91,150.17 632.05,149.85 632.13,149.51 632.16,149.17 632.16,149.17 632.16,138.41 632.16,138.41 632.13,138.07 632.05,137.73 631.91,137.41 631.73,137.12 631.50,136.86 631.23,136.64 630.93,136.46 630.60,136.34 630.26,136.27 630.00,136.25 563.87,136.25 564.13,136.27 563.78,136.25 563.43,136.30 563.10,136.39 562.79,136.54 562.50,136.74 562.25,136.98 562.04,137.26 561.88,137.57 561.77,137.90 561.71,138.24 561.71,138.41 561.71,149.17 561.71,148.99 561.71,149.34 561.77,149.68 561.88,150.01 562.04,150.32 562.25,150.60 562.50,150.84 562.79,151.04 563.10,151.19 563.43,151.28 563.78,151.33 " style="stroke-width: 0.53; stroke: #E0AB00; fill: #E0AB00;" clip-path="url(#cpNi45NzM4NXw3MTMuMDI2fDI4MC40NDV8Ni45NzM4NQ==)"/>
  <g clip-path="url(#cpNi45NzM4NXw3MTMuMDI2fDI4MC40NDV8Ni45NzM4NQ==)">
    <text x="565.31" y="147.73" style="font-size: 11.04px; fill: #FFF; font-family: Arial;" textLength="63.26px" lengthAdjust="spacingAndGlyphs">Topographer</text>
  </g>
  <polyline points="218.67,275.02 253.47,275.02 253.38,275.02 253.73,275.00 254.07,274.93 254.40,274.81 254.70,274.64 254.97,274.42 255.20,274.16 255.38,273.86 255.52,273.54 255.60,273.20 255.63,272.86 255.63,272.86 255.63,262.10 255.63,262.10 255.60,261.76 255.52,261.42 255.38,261.10 255.20,260.81 254.97,260.55 254.70,260.33 254.40,260.15 254.07,260.03 253.73,259.96 253.47,259.94 218.67,259.94 218.93,259.96 218.59,259.95 218.24,259.99 217.91,260.08 217.59,260.23 217.31,260.43 217.06,260.67 216.85,260.95 216.69,261.26 216.58,261.59 216.52,261.93 216.51,262.10 216.51,272.86 216.52,272.68 216.52,273.03 216.58,273.38 216.69,273.71 216.85,274.01 217.06,274.29 217.31,274.53 217.59,274.73 217.91,274.88 218.24,274.97 218.59,275.02 " style="stroke-width: 0.53; stroke: #0278DD; fill: #0278DD;" clip-path="url(#cpNi45NzM4NXw3MTMuMDI2fDI4MC40NDV8Ni45NzM4NQ==)"/>
  <g clip-path="url(#cpNi45NzM4NXw3MTMuMDI2fDI4MC40NDV8Ni45NzM4NQ==)">
    <text x="220.11" y="271.42" style="font-size: 11.04px; fill: #FFF; font-family: Arial;" textLength="31.92px" lengthAdjust="spacingAndGlyphs">NBOR</text>
  </g>
  <polyline points="408.02,266.16 448.34,266.16 448.25,266.16 448.60,266.15 448.94,266.08 449.27,265.96 449.57,265.78 449.84,265.56 450.07,265.30 450.25,265.01 450.39,264.69 450.47,264.35 450.50,264.00 450.50,264.00 450.50,253.25 450.50,253.25 450.47,252.90 450.39,252.56 450.25,252.25 450.07,251.95 449.84,251.69 449.57,251.47 449.27,251.30 448.94,251.17 448.60,251.10 448.34,251.09 408.02,251.09 408.28,251.10 407.93,251.09 407.59,251.13 407.25,251.23 406.94,251.38 406.65,251.58 406.40,251.82 406.19,252.09 406.03,252.40 405.92,252.73 405.87,253.08 405.86,253.25 405.86,264.00 405.87,263.83 405.87,264.18 405.92,264.52 406.03,264.85 406.19,265.16 406.40,265.44 406.65,265.68 406.94,265.87 407.25,266.02 407.59,266.12 407.93,266.16 " style="stroke-width: 0.53; stroke: #0278DD; fill: #0278DD;" clip-path="url(#cpNi45NzM4NXw3MTMuMDI2fDI4MC40NDV8Ni45NzM4NQ==)"/>
  <g clip-path="url(#cpNi45NzM4NXw3MTMuMDI2fDI4MC40NDV8Ni45NzM4NQ==)">
    <text x="409.46" y="262.56" style="font-size: 11.04px; fill: #FFF; font-family: Arial;" textLength="37.44px" lengthAdjust="spacingAndGlyphs">SCENT</text>
  </g>
  <polyline points="390.56,211.56 446.22,211.56 446.13,211.56 446.48,211.55 446.82,211.48 447.14,211.36 447.44,211.18 447.71,210.96 447.94,210.70 448.13,210.41 448.26,210.09 448.35,209.75 448.38,209.40 448.38,209.40 448.38,198.65 448.38,198.65 448.35,198.30 448.26,197.96 448.13,197.65 447.94,197.35 447.71,197.09 447.44,196.87 447.14,196.70 446.82,196.57 446.48,196.50 446.22,196.49 390.56,196.49 390.82,196.50 390.47,196.49 390.12,196.53 389.79,196.63 389.48,196.78 389.19,196.98 388.94,197.22 388.73,197.49 388.57,197.80 388.46,198.13 388.40,198.48 388.40,198.65 388.40,209.40 388.40,209.23 388.40,209.58 388.46,209.92 388.57,210.25 388.73,210.56 388.94,210.84 389.19,211.08 389.48,211.27 389.79,211.42 390.12,211.52 390.47,211.56 " style="stroke-width: 0.53; stroke: #0278DD; fill: #0278DD;" clip-path="url(#cpNi45NzM4NXw3MTMuMDI2fDI4MC40NDV8Ni45NzM4NQ==)"/>
  <g clip-path="url(#cpNi45NzM4NXw3MTMuMDI2fDI4MC40NDV8Ni45NzM4NQ==)">
    <text x="392.00" y="207.96" style="font-size: 11.04px; fill: #FFF; font-family: Arial;" textLength="52.78px" lengthAdjust="spacingAndGlyphs">SCIMITAR</text>
  </g>
  <polyline points="469.35,190.47 515.83,190.47 515.74,190.47 516.09,190.46 516.43,190.39 516.76,190.26 517.06,190.09 517.33,189.87 517.56,189.61 517.74,189.32 517.88,189.00 517.96,188.66 517.99,188.31 517.99,188.31 517.99,177.56 517.99,177.56 517.96,177.21 517.88,176.87 517.74,176.55 517.56,176.26 517.33,176.00 517.06,175.78 516.76,175.61 516.43,175.48 516.09,175.41 515.83,175.40 469.35,175.40 469.61,175.41 469.27,175.40 468.92,175.44 468.59,175.54 468.27,175.69 467.99,175.88 467.74,176.12 467.53,176.40 467.37,176.71 467.25,177.04 467.20,177.38 467.19,177.56 467.19,188.31 467.20,188.14 467.20,188.49 467.25,188.83 467.37,189.16 467.53,189.47 467.74,189.74 467.99,189.99 468.27,190.18 468.59,190.33 468.92,190.43 469.27,190.47 " style="stroke-width: 0.53; stroke: #E0AB00; fill: #E0AB00;" clip-path="url(#cpNi45NzM4NXw3MTMuMDI2fDI4MC40NDV8Ni45NzM4NQ==)"/>
  <g clip-path="url(#cpNi45NzM4NXw3MTMuMDI2fDI4MC40NDV8Ni45NzM4NQ==)">
    <text x="470.79" y="186.87" style="font-size: 11.04px; fill: #FFF; font-family: Arial;" textLength="43.60px" lengthAdjust="spacingAndGlyphs">slingshot</text>
  </g>
  <polyline points="445.50,25.65 497.50,25.65 497.41,25.65 497.76,25.63 498.10,25.56 498.42,25.44 498.72,25.27 498.99,25.05 499.22,24.79 499.41,24.49 499.55,24.17 499.63,23.84 499.66,23.49 499.66,23.49 499.66,12.73 499.66,12.73 499.63,12.39 499.55,12.05 499.41,11.73 499.22,11.44 498.99,11.18 498.72,10.96 498.42,10.78 498.10,10.66 497.76,10.59 497.50,10.57 445.50,10.57 445.76,10.59 445.41,10.58 445.07,10.62 444.73,10.71 444.42,10.86 444.13,11.06 443.88,11.30 443.67,11.58 443.51,11.89 443.40,12.22 443.35,12.56 443.34,12.73 443.34,23.49 443.35,23.32 443.35,23.66 443.40,24.01 443.51,24.34 443.67,24.64 443.88,24.92 444.13,25.16 444.42,25.36 444.73,25.51 445.07,25.61 445.41,25.65 " style="stroke-width: 0.53; stroke: #E0AB00; fill: #E0AB00;" clip-path="url(#cpNi45NzM4NXw3MTMuMDI2fDI4MC40NDV8Ni45NzM4NQ==)"/>
  <g clip-path="url(#cpNi45NzM4NXw3MTMuMDI2fDI4MC40NDV8Ni45NzM4NQ==)">
    <text x="446.94" y="22.05" style="font-size: 11.04px; fill: #FFF; font-family: Arial;" textLength="49.12px" lengthAdjust="spacingAndGlyphs">Granatum</text>
  </g>
  <polyline points="52.26,246.43 111.01,246.43 110.92,246.43 111.27,246.41 111.61,246.34 111.93,246.22 112.23,246.05 112.50,245.83 112.73,245.57 112.92,245.27 113.06,244.95 113.14,244.62 113.17,244.27 113.17,244.27 113.17,233.51 113.17,233.51 113.14,233.17 113.06,232.83 112.92,232.51 112.73,232.22 112.50,231.96 112.23,231.74 111.93,231.56 111.61,231.44 111.27,231.37 111.01,231.35 52.26,231.35 52.52,231.37 52.17,231.36 51.82,231.40 51.49,231.49 51.18,231.64 50.89,231.84 50.64,232.08 50.43,232.36 50.27,232.67 50.16,233.00 50.10,233.34 50.10,233.51 50.10,244.27 50.10,244.10 50.10,244.44 50.16,244.79 50.27,245.12 50.43,245.42 50.64,245.70 50.89,245.94 51.18,246.14 51.49,246.29 51.82,246.39 52.17,246.43 " style="stroke-width: 0.53; stroke: #0278DD; fill: #0278DD;" clip-path="url(#cpNi45NzM4NXw3MTMuMDI2fDI4MC40NDV8Ni45NzM4NQ==)"/>
  <g clip-path="url(#cpNi45NzM4NXw3MTMuMDI2fDI4MC40NDV8Ni45NzM4NQ==)">
    <text x="53.70" y="242.83" style="font-size: 11.04px; fill: #FFF; font-family: Arial;" textLength="55.87px" lengthAdjust="spacingAndGlyphs">Wanderlust</text>
  </g>
  <polyline points="155.33,273.17 196.27,273.17 196.19,273.16 196.53,273.15 196.87,273.08 197.20,272.96 197.50,272.78 197.77,272.56 198.00,272.30 198.19,272.01 198.32,271.69 198.40,271.35 198.43,271.01 198.43,271.01 198.43,260.25 198.43,260.25 198.40,259.91 198.32,259.57 198.19,259.25 198.00,258.95 197.77,258.69 197.50,258.47 197.20,258.30 196.87,258.18 196.53,258.11 196.27,258.09 155.33,258.09 155.59,258.11 155.25,258.09 154.90,258.14 154.57,258.23 154.25,258.38 153.97,258.58 153.72,258.82 153.51,259.10 153.35,259.41 153.24,259.73 153.18,260.08 153.17,260.25 153.17,271.01 153.18,270.83 153.18,271.18 153.24,271.52 153.35,271.85 153.51,272.16 153.72,272.44 153.97,272.68 154.25,272.88 154.57,273.03 154.90,273.12 155.25,273.16 " style="stroke-width: 0.53; stroke: #E0AB00; fill: #E0AB00;" clip-path="url(#cpNi45NzM4NXw3MTMuMDI2fDI4MC40NDV8Ni45NzM4NQ==)"/>
  <g clip-path="url(#cpNi45NzM4NXw3MTMuMDI2fDI4MC40NDV8Ni45NzM4NQ==)">
    <text x="156.77" y="269.57" style="font-size: 11.04px; fill: #FFF; font-family: Arial;" textLength="38.06px" lengthAdjust="spacingAndGlyphs">SCUBA</text>
  </g>
  <polyline points="365.25,82.45 393.92,82.45 393.83,82.45 394.18,82.44 394.52,82.37 394.85,82.24 395.15,82.07 395.42,81.85 395.65,81.59 395.83,81.29 395.97,80.97 396.05,80.64 396.08,80.29 396.08,80.29 396.08,69.54 396.08,69.54 396.05,69.19 395.97,68.85 395.83,68.53 395.65,68.24 395.42,67.98 395.15,67.76 394.85,67.58 394.52,67.46 394.18,67.39 393.92,67.38 365.25,67.38 365.51,67.39 365.17,67.38 364.82,67.42 364.49,67.52 364.17,67.67 363.89,67.86 363.64,68.10 363.43,68.38 363.27,68.69 363.16,69.02 363.10,69.36 363.09,69.54 363.09,80.29 363.10,80.12 363.10,80.46 363.16,80.81 363.27,81.14 363.43,81.45 363.64,81.72 363.89,81.96 364.17,82.16 364.49,82.31 364.82,82.41 365.17,82.45 " style="stroke-width: 0.53; stroke: #0278DD; fill: #0278DD;" clip-path="url(#cpNi45NzM4NXw3MTMuMDI2fDI4MC40NDV8Ni45NzM4NQ==)"/>
  <g clip-path="url(#cpNi45NzM4NXw3MTMuMDI2fDI4MC40NDV8Ni45NzM4NQ==)">
    <text x="366.69" y="78.85" style="font-size: 11.04px; fill: #FFF; font-family: Arial;" textLength="25.79px" lengthAdjust="spacingAndGlyphs">Ouija</text>
  </g>
  <polyline points="315.87,233.90 340.85,233.90 340.76,233.90 341.11,233.89 341.45,233.82 341.77,233.69 342.07,233.52 342.34,233.30 342.57,233.04 342.76,232.75 342.89,232.43 342.98,232.09 343.01,231.74 343.01,231.74 343.01,220.99 343.01,220.99 342.98,220.64 342.89,220.30 342.76,219.98 342.57,219.69 342.34,219.43 342.07,219.21 341.77,219.04 341.45,218.91 341.11,218.84 340.85,218.83 315.87,218.83 316.13,218.84 315.78,218.83 315.44,218.87 315.11,218.97 314.79,219.12 314.51,219.31 314.26,219.56 314.05,219.83 313.88,220.14 313.77,220.47 313.72,220.81 313.71,220.99 313.71,231.74 313.72,231.57 313.72,231.92 313.77,232.26 313.88,232.59 314.05,232.90 314.26,233.17 314.51,233.42 314.79,233.61 315.11,233.76 315.44,233.86 315.78,233.90 " style="stroke-width: 0.53; stroke: #3AD1D1; fill: #3AD1D1;" clip-path="url(#cpNi45NzM4NXw3MTMuMDI2fDI4MC40NDV8Ni45NzM4NQ==)"/>
  <g clip-path="url(#cpNi45NzM4NXw3MTMuMDI2fDI4MC40NDV8Ni45NzM4NQ==)">
    <text x="317.31" y="230.30" style="font-size: 11.04px; fill: #FFF; font-family: Arial;" textLength="22.09px" lengthAdjust="spacingAndGlyphs">DPT</text>
  </g>
  <polyline points="518.66,83.56 544.87,83.56 544.78,83.56 545.13,83.54 545.47,83.47 545.80,83.35 546.10,83.18 546.37,82.96 546.60,82.70 546.78,82.40 546.92,82.08 547.00,81.75 547.03,81.40 547.03,81.40 547.03,70.64 547.03,70.64 547.00,70.30 546.92,69.96 546.78,69.64 546.60,69.35 546.37,69.09 546.10,68.87 545.80,68.69 545.47,68.57 545.13,68.50 544.87,68.48 518.66,68.48 518.92,68.50 518.58,68.49 518.23,68.53 517.90,68.62 517.58,68.77 517.30,68.97 517.05,69.21 516.84,69.49 516.68,69.80 516.57,70.13 516.51,70.47 516.50,70.64 516.50,81.40 516.51,81.22 516.51,81.57 516.57,81.92 516.68,82.25 516.84,82.55 517.05,82.83 517.30,83.07 517.58,83.27 517.90,83.42 518.23,83.51 518.58,83.56 " style="stroke-width: 0.53; stroke: #3AD1D1; fill: #3AD1D1;" clip-path="url(#cpNi45NzM4NXw3MTMuMDI2fDI4MC40NDV8Ni45NzM4NQ==)"/>
  <g clip-path="url(#cpNi45NzM4NXw3MTMuMDI2fDI4MC40NDV8Ni45NzM4NQ==)">
    <text x="520.10" y="79.96" style="font-size: 11.04px; fill: #FFF; font-family: Arial;" textLength="23.33px" lengthAdjust="spacingAndGlyphs">BGP</text>
  </g>
  <polyline points="488.70,128.50 546.20,128.50 546.12,128.50 546.46,128.48 546.80,128.41 547.13,128.29 547.43,128.11 547.70,127.89 547.93,127.63 548.12,127.34 548.25,127.02 548.33,126.68 548.36,126.34 548.36,126.34 548.36,115.58 548.36,115.58 548.33,115.24 548.25,114.90 548.12,114.58 547.93,114.28 547.70,114.02 547.43,113.80 547.13,113.63 546.80,113.51 546.46,113.44 546.20,113.42 488.70,113.42 488.96,113.44 488.62,113.42 488.27,113.47 487.94,113.56 487.62,113.71 487.34,113.91 487.09,114.15 486.88,114.43 486.72,114.74 486.61,115.07 486.55,115.41 486.54,115.58 486.54,126.34 486.55,126.16 486.55,126.51 486.61,126.85 486.72,127.18 486.88,127.49 487.09,127.77 487.34,128.01 487.62,128.21 487.94,128.36 488.27,128.45 488.62,128.50 " style="stroke-width: 0.53; stroke: #0278DD; fill: #0278DD;" clip-path="url(#cpNi45NzM4NXw3MTMuMDI2fDI4MC40NDV8Ni45NzM4NQ==)"/>
  <g clip-path="url(#cpNi45NzM4NXw3MTMuMDI2fDI4MC40NDV8Ni45NzM4NQ==)">
    <text x="490.14" y="124.90" style="font-size: 11.04px; fill: #FFF; font-family: Arial;" textLength="54.62px" lengthAdjust="spacingAndGlyphs">MATCHER</text>
  </g>
  <polyline points="552.17,213.72 588.20,213.72 588.12,213.72 588.46,213.70 588.81,213.64 589.13,213.51 589.43,213.34 589.70,213.12 589.93,212.86 590.12,212.56 590.25,212.24 590.34,211.91 590.36,211.56 590.36,211.56 590.36,200.81 590.36,200.81 590.34,200.46 590.25,200.12 590.12,199.80 589.93,199.51 589.70,199.25 589.43,199.03 589.13,198.85 588.81,198.73 588.46,198.66 588.20,198.65 552.17,198.65 552.43,198.66 552.09,198.65 551.74,198.69 551.41,198.79 551.09,198.93 550.81,199.13 550.56,199.37 550.35,199.65 550.19,199.96 550.08,200.29 550.02,200.63 550.01,200.81 550.01,211.56 550.02,211.39 550.02,211.73 550.08,212.08 550.19,212.41 550.35,212.71 550.56,212.99 550.81,213.23 551.09,213.43 551.41,213.58 551.74,213.68 552.09,213.72 " style="stroke-width: 0.53; stroke: #7FBE00; fill: #7FBE00;" clip-path="url(#cpNi45NzM4NXw3MTMuMDI2fDI4MC40NDV8Ni45NzM4NQ==)"/>
  <g clip-path="url(#cpNi45NzM4NXw3MTMuMDI2fDI4MC40NDV8Ni45NzM4NQ==)">
    <text x="553.61" y="210.12" style="font-size: 11.04px; fill: #FFF; font-family: Arial;" textLength="33.15px" lengthAdjust="spacingAndGlyphs">FateID</text>
  </g>
  <polyline points="580.48,236.65 626.94,236.65 626.86,236.65 627.21,236.63 627.55,236.56 627.87,236.44 628.17,236.26 628.44,236.05 628.67,235.78 628.86,235.49 628.99,235.17 629.08,234.83 629.10,234.49 629.10,234.49 629.10,223.73 629.10,223.73 629.08,223.39 628.99,223.05 628.86,222.73 628.67,222.43 628.44,222.17 628.17,221.95 627.87,221.78 627.55,221.66 627.21,221.59 626.94,221.57 580.48,221.57 580.74,221.59 580.39,221.57 580.05,221.62 579.72,221.71 579.40,221.86 579.12,222.06 578.86,222.30 578.66,222.58 578.49,222.89 578.38,223.22 578.33,223.56 578.32,223.73 578.32,234.49 578.33,234.31 578.33,234.66 578.38,235.00 578.49,235.33 578.66,235.64 578.86,235.92 579.12,236.16 579.40,236.36 579.72,236.51 580.05,236.60 580.39,236.65 " style="stroke-width: 0.53; stroke: #E0AB00; fill: #E0AB00;" clip-path="url(#cpNi45NzM4NXw3MTMuMDI2fDI4MC40NDV8Ni45NzM4NQ==)"/>
  <g clip-path="url(#cpNi45NzM4NXw3MTMuMDI2fDI4MC40NDV8Ni45NzM4NQ==)">
    <text x="581.92" y="233.05" style="font-size: 11.04px; fill: #FFF; font-family: Arial;" textLength="43.58px" lengthAdjust="spacingAndGlyphs">MERLoT</text>
  </g>
  <polyline points="296.80,274.32 339.58,274.32 339.49,274.32 339.84,274.31 340.18,274.24 340.51,274.12 340.81,273.94 341.08,273.72 341.31,273.46 341.49,273.17 341.63,272.85 341.71,272.51 341.74,272.16 341.74,272.16 341.74,261.41 341.74,261.41 341.71,261.06 341.63,260.72 341.49,260.41 341.31,260.11 341.08,259.85 340.81,259.63 340.51,259.46 340.18,259.33 339.84,259.26 339.58,259.25 296.80,259.25 297.06,259.26 296.71,259.25 296.36,259.29 296.03,259.39 295.72,259.54 295.43,259.74 295.18,259.98 294.97,260.25 294.81,260.56 294.70,260.89 294.64,261.24 294.64,261.41 294.64,272.16 294.64,271.99 294.64,272.34 294.70,272.68 294.81,273.01 294.97,273.32 295.18,273.60 295.43,273.84 295.72,274.03 296.03,274.18 296.36,274.28 296.71,274.32 " style="stroke-width: 0.53; stroke: #E0AB00; fill: #E0AB00;" clip-path="url(#cpNi45NzM4NXw3MTMuMDI2fDI4MC40NDV8Ni45NzM4NQ==)"/>
  <g clip-path="url(#cpNi45NzM4NXw3MTMuMDI2fDI4MC40NDV8Ni45NzM4NQ==)">
    <text x="298.24" y="270.72" style="font-size: 11.04px; fill: #FFF; font-family: Arial;" textLength="39.90px" lengthAdjust="spacingAndGlyphs">ECLAIR</text>
  </g>
  <polyline points="453.49,48.02 496.28,48.02 496.20,48.02 496.54,48.01 496.88,47.94 497.21,47.81 497.51,47.64 497.78,47.42 498.01,47.16 498.20,46.86 498.33,46.54 498.42,46.21 498.44,45.86 498.44,45.86 498.44,35.11 498.44,35.11 498.42,34.76 498.33,34.42 498.20,34.10 498.01,33.81 497.78,33.55 497.51,33.33 497.21,33.15 496.88,33.03 496.54,32.96 496.28,32.95 453.49,32.95 453.75,32.96 453.41,32.95 453.06,32.99 452.73,33.09 452.41,33.24 452.13,33.43 451.88,33.67 451.67,33.95 451.51,34.26 451.40,34.59 451.34,34.93 451.33,35.11 451.33,45.86 451.34,45.69 451.34,46.03 451.40,46.38 451.51,46.71 451.67,47.02 451.88,47.29 452.13,47.53 452.41,47.73 452.73,47.88 453.06,47.98 453.41,48.02 " style="stroke-width: 0.53; stroke: #7FBE00; fill: #7FBE00;" clip-path="url(#cpNi45NzM4NXw3MTMuMDI2fDI4MC40NDV8Ni45NzM4NQ==)"/>
  <g clip-path="url(#cpNi45NzM4NXw3MTMuMDI2fDI4MC40NDV8Ni45NzM4NQ==)">
    <text x="454.93" y="44.42" style="font-size: 11.04px; fill: #FFF; font-family: Arial;" textLength="39.91px" lengthAdjust="spacingAndGlyphs">GPfates</text>
  </g>
  <polyline points="351.63,213.17 403.03,213.17 402.94,213.17 403.29,213.15 403.63,213.09 403.95,212.96 404.25,212.79 404.52,212.57 404.75,212.31 404.94,212.01 405.08,211.69 405.16,211.36 405.19,211.01 405.19,211.01 405.19,200.26 405.19,200.26 405.16,199.91 405.08,199.57 404.94,199.25 404.75,198.96 404.52,198.70 404.25,198.48 403.95,198.30 403.63,198.18 403.29,198.11 403.03,198.10 351.63,198.10 351.89,198.11 351.54,198.10 351.20,198.14 350.86,198.24 350.55,198.39 350.26,198.58 350.01,198.82 349.80,199.10 349.64,199.41 349.53,199.74 349.47,200.08 349.47,200.26 349.47,211.01 349.47,210.84 349.47,211.18 349.53,211.53 349.64,211.86 349.80,212.17 350.01,212.44 350.26,212.68 350.55,212.88 350.86,213.03 351.20,213.13 351.54,213.17 " style="stroke-width: 0.53; stroke: #0278DD; fill: #0278DD;" clip-path="url(#cpNi45NzM4NXw3MTMuMDI2fDI4MC40NDV8Ni45NzM4NQ==)"/>
  <g clip-path="url(#cpNi45NzM4NXw3MTMuMDI2fDI4MC40NDV8Ni45NzM4NQ==)">
    <text x="353.07" y="209.57" style="font-size: 11.04px; fill: #FFF; font-family: Arial;" textLength="48.52px" lengthAdjust="spacingAndGlyphs">DeLorean</text>
  </g>
  <polyline points="329.94,103.34 372.73,103.34 372.64,103.34 372.99,103.32 373.33,103.25 373.65,103.13 373.96,102.96 374.22,102.74 374.46,102.48 374.64,102.18 374.78,101.86 374.86,101.53 374.89,101.18 374.89,101.18 374.89,90.42 374.89,90.42 374.86,90.08 374.78,89.74 374.64,89.42 374.46,89.13 374.22,88.87 373.96,88.65 373.65,88.47 373.33,88.35 372.99,88.28 372.73,88.26 329.94,88.26 330.20,88.28 329.86,88.27 329.51,88.31 329.18,88.40 328.86,88.55 328.58,88.75 328.33,88.99 328.12,89.27 327.96,89.58 327.85,89.91 327.79,90.25 327.78,90.42 327.78,101.18 327.79,101.01 327.79,101.35 327.85,101.70 327.96,102.03 328.12,102.33 328.33,102.61 328.58,102.85 328.86,103.05 329.18,103.20 329.51,103.30 329.86,103.34 " style="stroke-width: 0.53; stroke: #FF4237; fill: #FF4237;" clip-path="url(#cpNi45NzM4NXw3MTMuMDI2fDI4MC40NDV8Ni45NzM4NQ==)"/>
  <g clip-path="url(#cpNi45NzM4NXw3MTMuMDI2fDI4MC40NDV8Ni45NzM4NQ==)">
    <text x="331.38" y="99.74" style="font-size: 11.04px; fill: #FFF; font-family: Arial;" textLength="39.90px" lengthAdjust="spacingAndGlyphs">SLICER</text>
  </g>
  <polyline points="39.91,270.65 106.03,270.65 105.94,270.65 106.29,270.63 106.63,270.56 106.95,270.44 107.26,270.27 107.52,270.05 107.75,269.79 107.94,269.49 108.08,269.17 108.16,268.84 108.19,268.49 108.19,268.49 108.19,257.74 108.19,257.74 108.16,257.39 108.08,257.05 107.94,256.73 107.75,256.44 107.52,256.18 107.26,255.96 106.95,255.78 106.63,255.66 106.29,255.59 106.03,255.58 39.91,255.58 40.17,255.59 39.82,255.58 39.48,255.62 39.14,255.72 38.83,255.86 38.54,256.06 38.29,256.30 38.08,256.58 37.92,256.89 37.81,257.22 37.76,257.56 37.75,257.74 37.75,268.49 37.76,268.32 37.76,268.66 37.81,269.01 37.92,269.34 38.08,269.64 38.29,269.92 38.54,270.16 38.83,270.36 39.14,270.51 39.48,270.61 39.82,270.65 " style="stroke-width: 0.53; stroke: #E0AB00; fill: #E0AB00;" clip-path="url(#cpNi45NzM4NXw3MTMuMDI2fDI4MC40NDV8Ni45NzM4NQ==)"/>
  <g clip-path="url(#cpNi45NzM4NXw3MTMuMDI2fDI4MC40NDV8Ni45NzM4NQ==)">
    <text x="41.35" y="267.05" style="font-size: 11.04px; fill: #FFF; font-family: Arial;" textLength="63.24px" lengthAdjust="spacingAndGlyphs">Monocle ICA</text>
  </g>
  <polyline points="377.71,234.96 419.88,234.96 419.80,234.96 420.14,234.95 420.48,234.88 420.81,234.76 421.11,234.58 421.38,234.36 421.61,234.10 421.80,233.81 421.93,233.49 422.02,233.15 422.04,232.80 422.04,232.80 422.04,222.05 422.04,222.05 422.02,221.70 421.93,221.36 421.80,221.04 421.61,220.75 421.38,220.49 421.11,220.27 420.81,220.10 420.48,219.97 420.14,219.90 419.88,219.89 377.71,219.89 377.97,219.90 377.63,219.89 377.28,219.93 376.95,220.03 376.63,220.18 376.35,220.38 376.10,220.62 375.89,220.89 375.73,221.20 375.62,221.53 375.56,221.87 375.55,222.05 375.55,232.80 375.56,232.63 375.56,232.98 375.62,233.32 375.73,233.65 375.89,233.96 376.10,234.24 376.35,234.48 376.63,234.67 376.95,234.82 377.28,234.92 377.63,234.96 " style="stroke-width: 0.53; stroke: #E0AB00; fill: #E0AB00;" clip-path="url(#cpNi45NzM4NXw3MTMuMDI2fDI4MC40NDV8Ni45NzM4NQ==)"/>
  <g clip-path="url(#cpNi45NzM4NXw3MTMuMDI2fDI4MC40NDV8Ni45NzM4NQ==)">
    <text x="379.15" y="231.36" style="font-size: 11.04px; fill: #FFF; font-family: Arial;" textLength="39.29px" lengthAdjust="spacingAndGlyphs">cellTree</text>
  </g>
  <polyline points="462.94,116.79 502.65,116.79 502.57,116.79 502.91,116.78 503.25,116.71 503.58,116.59 503.88,116.41 504.15,116.19 504.38,115.93 504.57,115.64 504.70,115.32 504.79,114.98 504.81,114.63 504.81,114.63 504.81,103.88 504.81,103.88 504.79,103.53 504.70,103.20 504.57,102.88 504.38,102.58 504.15,102.32 503.88,102.10 503.58,101.93 503.25,101.80 502.91,101.74 502.65,101.72 462.94,101.72 463.20,101.74 462.86,101.72 462.51,101.76 462.18,101.86 461.86,102.01 461.58,102.21 461.33,102.45 461.12,102.73 460.96,103.03 460.85,103.36 460.79,103.71 460.78,103.88 460.78,114.63 460.79,114.46 460.79,114.81 460.85,115.15 460.96,115.48 461.12,115.79 461.33,116.07 461.58,116.31 461.86,116.51 462.18,116.65 462.51,116.75 462.86,116.79 " style="stroke-width: 0.53; stroke: #E0AB00; fill: #E0AB00;" clip-path="url(#cpNi45NzM4NXw3MTMuMDI2fDI4MC40NDV8Ni45NzM4NQ==)"/>
  <g clip-path="url(#cpNi45NzM4NXw3MTMuMDI2fDI4MC40NDV8Ni45NzM4NQ==)">
    <text x="464.38" y="113.19" style="font-size: 11.04px; fill: #FFF; font-family: Arial;" textLength="36.83px" lengthAdjust="spacingAndGlyphs">PHATE</text>
  </g>
  <polyline points="509.03,25.65 549.98,25.65 549.90,25.65 550.24,25.63 550.58,25.56 550.91,25.44 551.21,25.27 551.48,25.05 551.71,24.79 551.89,24.49 552.03,24.17 552.11,23.84 552.14,23.49 552.14,23.49 552.14,12.73 552.14,12.73 552.11,12.39 552.03,12.05 551.89,11.73 551.71,11.44 551.48,11.18 551.21,10.96 550.91,10.78 550.58,10.66 550.24,10.59 549.98,10.57 509.03,10.57 509.29,10.59 508.94,10.58 508.60,10.62 508.27,10.71 507.95,10.86 507.67,11.06 507.41,11.30 507.21,11.58 507.04,11.89 506.93,12.22 506.88,12.56 506.87,12.73 506.87,23.49 506.88,23.32 506.88,23.66 506.93,24.01 507.04,24.34 507.21,24.64 507.41,24.92 507.67,25.16 507.95,25.36 508.27,25.51 508.60,25.61 508.94,25.65 " style="stroke-width: 0.53; stroke: #0278DD; fill: #0278DD;" clip-path="url(#cpNi45NzM4NXw3MTMuMDI2fDI4MC40NDV8Ni45NzM4NQ==)"/>
  <g clip-path="url(#cpNi45NzM4NXw3MTMuMDI2fDI4MC40NDV8Ni45NzM4NQ==)">
    <text x="510.47" y="22.05" style="font-size: 11.04px; fill: #FFF; font-family: Arial;" textLength="38.07px" lengthAdjust="spacingAndGlyphs">SoptSC</text>
  </g>
  <polyline points="352.86,170.69 395.02,170.69 394.93,170.69 395.28,170.68 395.62,170.61 395.95,170.48 396.25,170.31 396.52,170.09 396.75,169.83 396.93,169.54 397.07,169.22 397.15,168.88 397.18,168.53 397.18,168.53 397.18,157.78 397.18,157.78 397.15,157.43 397.07,157.09 396.93,156.77 396.75,156.48 396.52,156.22 396.25,156.00 395.95,155.82 395.62,155.70 395.28,155.63 395.02,155.62 352.86,155.62 353.12,155.63 352.77,155.62 352.42,155.66 352.09,155.76 351.78,155.91 351.49,156.10 351.24,156.34 351.03,156.62 350.87,156.93 350.76,157.26 350.70,157.60 350.70,157.78 350.70,168.53 350.70,168.36 350.70,168.71 350.76,169.05 350.87,169.38 351.03,169.69 351.24,169.96 351.49,170.20 351.78,170.40 352.09,170.55 352.42,170.65 352.77,170.69 " style="stroke-width: 0.53; stroke: #7FBE00; fill: #7FBE00;" clip-path="url(#cpNi45NzM4NXw3MTMuMDI2fDI4MC40NDV8Ni45NzM4NQ==)"/>
  <g clip-path="url(#cpNi45NzM4NXw3MTMuMDI2fDI4MC40NDV8Ni45NzM4NQ==)">
    <text x="354.30" y="167.09" style="font-size: 11.04px; fill: #FFF; font-family: Arial;" textLength="39.28px" lengthAdjust="spacingAndGlyphs">SCOUP</text>
  </g>
  <polyline points="423.95,167.77 518.30,167.77 518.21,167.77 518.56,167.75 518.90,167.68 519.22,167.56 519.52,167.39 519.79,167.17 520.02,166.91 520.21,166.61 520.35,166.29 520.43,165.95 520.46,165.61 520.46,165.61 520.46,154.85 520.46,154.85 520.43,154.51 520.35,154.17 520.21,153.85 520.02,153.56 519.79,153.30 519.52,153.08 519.22,152.90 518.90,152.78 518.56,152.71 518.30,152.69 423.95,152.69 424.21,152.71 423.86,152.69 423.51,152.74 423.18,152.83 422.87,152.98 422.58,153.18 422.33,153.42 422.12,153.70 421.96,154.01 421.85,154.34 421.79,154.68 421.79,154.85 421.79,165.61 421.79,165.43 421.79,165.78 421.85,166.12 421.96,166.45 422.12,166.76 422.33,167.04 422.58,167.28 422.87,167.48 423.18,167.63 423.51,167.72 423.86,167.77 " style="stroke-width: 0.53; stroke: #E0AB00; fill: #E0AB00;" clip-path="url(#cpNi45NzM4NXw3MTMuMDI2fDI4MC40NDV8Ni45NzM4NQ==)"/>
  <g clip-path="url(#cpNi45NzM4NXw3MTMuMDI2fDI4MC40NDV8Ni45NzM4NQ==)">
    <text x="425.39" y="164.17" style="font-size: 11.04px; fill: #FFF; font-family: Arial;" textLength="91.47px" lengthAdjust="spacingAndGlyphs">Monocle DDRTree</text>
  </g>
  <polyline points="240.30,203.71 306.43,203.71 306.34,203.71 306.69,203.69 307.03,203.62 307.36,203.50 307.66,203.33 307.93,203.11 308.16,202.85 308.34,202.55 308.48,202.23 308.56,201.90 308.59,201.55 308.59,201.55 308.59,190.79 308.59,190.79 308.56,190.45 308.48,190.11 308.34,189.79 308.16,189.50 307.93,189.24 307.66,189.02 307.36,188.84 307.03,188.72 306.69,188.65 306.43,188.63 240.30,188.63 240.56,188.65 240.21,188.64 239.86,188.68 239.53,188.77 239.22,188.92 238.93,189.12 238.68,189.36 238.47,189.64 238.31,189.95 238.20,190.28 238.14,190.62 238.14,190.79 238.14,201.55 238.14,201.38 238.14,201.72 238.20,202.07 238.31,202.40 238.47,202.70 238.68,202.98 238.93,203.22 239.22,203.42 239.53,203.57 239.86,203.67 240.21,203.71 " style="stroke-width: 0.53; stroke: #0278DD; fill: #0278DD;" clip-path="url(#cpNi45NzM4NXw3MTMuMDI2fDI4MC40NDV8Ni45NzM4NQ==)"/>
  <g clip-path="url(#cpNi45NzM4NXw3MTMuMDI2fDI4MC40NDV8Ni45NzM4NQ==)">
    <text x="241.74" y="200.11" style="font-size: 11.04px; fill: #FFF; font-family: Arial;" textLength="63.26px" lengthAdjust="spacingAndGlyphs">gpseudotime</text>
  </g>
  <polyline points="416.74,250.75 474.27,250.75 474.18,250.75 474.53,250.73 474.87,250.66 475.20,250.54 475.50,250.37 475.77,250.15 476.00,249.89 476.18,249.59 476.32,249.27 476.40,248.94 476.43,248.59 476.43,248.59 476.43,237.83 476.43,237.83 476.40,237.49 476.32,237.15 476.18,236.83 476.00,236.54 475.77,236.28 475.50,236.06 475.20,235.88 474.87,235.76 474.53,235.69 474.27,235.67 416.74,235.67 417.00,235.69 416.66,235.68 416.31,235.72 415.98,235.81 415.66,235.96 415.38,236.16 415.13,236.40 414.92,236.68 414.76,236.99 414.65,237.32 414.59,237.66 414.58,237.83 414.58,248.59 414.59,248.42 414.59,248.76 414.65,249.11 414.76,249.44 414.92,249.74 415.13,250.02 415.38,250.26 415.66,250.46 415.98,250.61 416.31,250.71 416.66,250.75 " style="stroke-width: 0.53; stroke: #E0AB00; fill: #E0AB00;" clip-path="url(#cpNi45NzM4NXw3MTMuMDI2fDI4MC40NDV8Ni45NzM4NQ==)"/>
  <g clip-path="url(#cpNi45NzM4NXw3MTMuMDI2fDI4MC40NDV8Ni45NzM4NQ==)">
    <text x="418.18" y="247.15" style="font-size: 11.04px; fill: #FFF; font-family: Arial;" textLength="54.65px" lengthAdjust="spacingAndGlyphs">k-branches</text>
  </g>
  <polyline points="466.31,211.84 492.51,211.84 492.42,211.84 492.77,211.83 493.11,211.76 493.43,211.63 493.73,211.46 494.00,211.24 494.23,210.98 494.42,210.69 494.56,210.37 494.64,210.03 494.67,209.68 494.67,209.68 494.67,198.93 494.67,198.93 494.64,198.58 494.56,198.24 494.42,197.92 494.23,197.63 494.00,197.37 493.73,197.15 493.43,196.98 493.11,196.85 492.77,196.78 492.51,196.77 466.31,196.77 466.57,196.78 466.22,196.77 465.88,196.81 465.54,196.91 465.23,197.06 464.94,197.25 464.69,197.49 464.48,197.77 464.32,198.08 464.21,198.41 464.16,198.75 464.15,198.93 464.15,209.68 464.16,209.51 464.16,209.86 464.21,210.20 464.32,210.53 464.48,210.84 464.69,211.11 464.94,211.35 465.23,211.55 465.54,211.70 465.88,211.80 466.22,211.84 " style="stroke-width: 0.53; stroke: #7FBE00; fill: #7FBE00;" clip-path="url(#cpNi45NzM4NXw3MTMuMDI2fDI4MC40NDV8Ni45NzM4NQ==)"/>
  <g clip-path="url(#cpNi45NzM4NXw3MTMuMDI2fDI4MC40NDV8Ni45NzM4NQ==)">
    <text x="467.75" y="208.24" style="font-size: 11.04px; fill: #FFF; font-family: Arial;" textLength="23.32px" lengthAdjust="spacingAndGlyphs">MFA</text>
  </g>
  <polyline points="493.20,171.00 550.75,171.00 550.66,171.00 551.01,170.99 551.35,170.92 551.67,170.79 551.97,170.62 552.24,170.40 552.47,170.14 552.66,169.85 552.80,169.53 552.88,169.19 552.91,168.84 552.91,168.84 552.91,158.09 552.91,158.09 552.88,157.74 552.80,157.40 552.66,157.08 552.47,156.79 552.24,156.53 551.97,156.31 551.67,156.14 551.35,156.01 551.01,155.94 550.75,155.93 493.20,155.93 493.46,155.94 493.11,155.93 492.77,155.97 492.43,156.07 492.12,156.22 491.83,156.42 491.58,156.66 491.37,156.93 491.21,157.24 491.10,157.57 491.05,157.91 491.04,158.09 491.04,168.84 491.05,168.67 491.05,169.02 491.10,169.36 491.21,169.69 491.37,170.00 491.58,170.28 491.83,170.52 492.12,170.71 492.43,170.86 492.77,170.96 493.11,171.00 " style="stroke-width: 0.53; stroke: #0278DD; fill: #0278DD;" clip-path="url(#cpNi45NzM4NXw3MTMuMDI2fDI4MC40NDV8Ni45NzM4NQ==)"/>
  <g clip-path="url(#cpNi45NzM4NXw3MTMuMDI2fDI4MC40NDV8Ni45NzM4NQ==)">
    <text x="494.64" y="167.40" style="font-size: 11.04px; fill: #FFF; font-family: Arial;" textLength="54.67px" lengthAdjust="spacingAndGlyphs">PhenoPath</text>
  </g>
  <polyline points="483.96,249.92 532.87,249.92 532.78,249.92 533.13,249.90 533.47,249.83 533.79,249.71 534.10,249.54 534.37,249.32 534.60,249.06 534.78,248.76 534.92,248.44 535.00,248.10 535.03,247.76 535.03,247.76 535.03,237.00 535.03,237.00 535.00,236.66 534.92,236.32 534.78,236.00 534.60,235.70 534.37,235.44 534.10,235.22 533.79,235.05 533.47,234.93 533.13,234.86 532.87,234.84 483.96,234.84 484.22,234.86 483.87,234.84 483.52,234.89 483.19,234.98 482.88,235.13 482.59,235.33 482.34,235.57 482.13,235.85 481.97,236.16 481.86,236.49 481.80,236.83 481.80,237.00 481.80,247.76 481.80,247.58 481.80,247.93 481.86,248.27 481.97,248.60 482.13,248.91 482.34,249.19 482.59,249.43 482.88,249.63 483.19,249.78 483.52,249.87 483.87,249.92 " style="stroke-width: 0.53; stroke: #0278DD; fill: #0278DD;" clip-path="url(#cpNi45NzM4NXw3MTMuMDI2fDI4MC40NDV8Ni45NzM4NQ==)"/>
  <g clip-path="url(#cpNi45NzM4NXw3MTMuMDI2fDI4MC40NDV8Ni45NzM4NQ==)">
    <text x="485.40" y="246.32" style="font-size: 11.04px; fill: #FFF; font-family: Arial;" textLength="46.03px" lengthAdjust="spacingAndGlyphs">UNCURL</text>
  </g>
  <polyline points="584.09,261.38 639.16,261.38 639.07,261.38 639.42,261.37 639.76,261.30 640.08,261.17 640.38,261.00 640.65,260.78 640.88,260.52 641.07,260.23 641.21,259.91 641.29,259.57 641.32,259.22 641.32,259.22 641.32,248.47 641.32,248.47 641.29,248.12 641.21,247.78 641.07,247.46 640.88,247.17 640.65,246.91 640.38,246.69 640.08,246.52 639.76,246.39 639.42,246.32 639.16,246.31 584.09,246.31 584.35,246.32 584.00,246.31 583.66,246.35 583.32,246.45 583.01,246.60 582.72,246.79 582.47,247.04 582.26,247.31 582.10,247.62 581.99,247.95 581.94,248.29 581.93,248.47 581.93,259.22 581.94,259.05 581.94,259.40 581.99,259.74 582.10,260.07 582.26,260.38 582.47,260.66 582.72,260.90 583.01,261.09 583.32,261.24 583.66,261.34 584.00,261.38 " style="stroke-width: 0.53; stroke: #E0AB00; fill: #E0AB00;" clip-path="url(#cpNi45NzM4NXw3MTMuMDI2fDI4MC40NDV8Ni45NzM4NQ==)"/>
  <g clip-path="url(#cpNi45NzM4NXw3MTMuMDI2fDI4MC40NDV8Ni45NzM4NQ==)">
    <text x="585.53" y="257.78" style="font-size: 11.04px; fill: #FFF; font-family: Arial;" textLength="52.19px" lengthAdjust="spacingAndGlyphs">CellRouter</text>
  </g>
  <polyline points="528.30,191.45 603.03,191.45 602.95,191.45 603.29,191.44 603.63,191.37 603.96,191.24 604.26,191.07 604.53,190.85 604.76,190.59 604.94,190.30 605.08,189.98 605.16,189.64 605.19,189.29 605.19,189.29 605.19,178.54 605.19,178.54 605.16,178.19 605.08,177.85 604.94,177.53 604.76,177.24 604.53,176.98 604.26,176.76 603.96,176.59 603.63,176.46 603.29,176.39 603.03,176.38 528.30,176.38 528.56,176.39 528.22,176.38 527.87,176.42 527.54,176.52 527.22,176.67 526.94,176.87 526.69,177.11 526.48,177.38 526.32,177.69 526.21,178.02 526.15,178.36 526.14,178.54 526.14,189.29 526.15,189.12 526.15,189.47 526.21,189.81 526.32,190.14 526.48,190.45 526.69,190.73 526.94,190.97 527.22,191.16 527.54,191.31 527.87,191.41 528.22,191.45 " style="stroke-width: 0.53; stroke: #0278DD; fill: #0278DD;" clip-path="url(#cpNi45NzM4NXw3MTMuMDI2fDI4MC40NDV8Ni45NzM4NQ==)"/>
  <g clip-path="url(#cpNi45NzM4NXw3MTMuMDI2fDI4MC40NDV8Ni45NzM4NQ==)">
    <text x="529.74" y="187.85" style="font-size: 11.04px; fill: #FFF; font-family: Arial;" textLength="71.85px" lengthAdjust="spacingAndGlyphs">GPseudoRank</text>
  </g>
  <polyline points="250.64,245.91 298.35,245.91 298.26,245.91 298.61,245.90 298.95,245.83 299.27,245.71 299.57,245.53 299.84,245.31 300.07,245.05 300.26,244.76 300.39,244.44 300.48,244.10 300.51,243.75 300.51,243.75 300.51,233.00 300.51,233.00 300.48,232.65 300.39,232.31 300.26,231.99 300.07,231.70 299.84,231.44 299.57,231.22 299.27,231.05 298.95,230.92 298.61,230.85 298.35,230.84 250.64,230.84 250.90,230.85 250.55,230.84 250.21,230.88 249.88,230.98 249.56,231.13 249.28,231.33 249.02,231.57 248.82,231.84 248.65,232.15 248.54,232.48 248.49,232.82 248.48,233.00 248.48,243.75 248.49,243.58 248.49,243.93 248.54,244.27 248.65,244.60 248.82,244.91 249.02,245.19 249.28,245.43 249.56,245.62 249.88,245.77 250.21,245.87 250.55,245.91 " style="stroke-width: 0.53; stroke: #0278DD; fill: #0278DD;" clip-path="url(#cpNi45NzM4NXw3MTMuMDI2fDI4MC40NDV8Ni45NzM4NQ==)"/>
  <g clip-path="url(#cpNi45NzM4NXw3MTMuMDI2fDI4MC40NDV8Ni45NzM4NQ==)">
    <text x="252.08" y="242.31" style="font-size: 11.04px; fill: #FFF; font-family: Arial;" textLength="44.82px" lengthAdjust="spacingAndGlyphs">Embeddr</text>
  </g>
  <polyline points="500.37,211.43 548.09,211.43 548.01,211.43 548.35,211.42 548.69,211.35 549.02,211.22 549.32,211.05 549.59,210.83 549.82,210.57 550.01,210.28 550.14,209.96 550.23,209.62 550.25,209.27 550.25,209.27 550.25,198.52 550.25,198.52 550.23,198.17 550.14,197.83 550.01,197.51 549.82,197.22 549.59,196.96 549.32,196.74 549.02,196.57 548.69,196.44 548.35,196.37 548.09,196.36 500.37,196.36 500.63,196.37 500.29,196.36 499.94,196.40 499.61,196.50 499.29,196.65 499.01,196.84 498.76,197.09 498.55,197.36 498.39,197.67 498.28,198.00 498.22,198.34 498.21,198.52 498.21,209.27 498.22,209.10 498.22,209.45 498.28,209.79 498.39,210.12 498.55,210.43 498.76,210.70 499.01,210.95 499.29,211.14 499.61,211.29 499.94,211.39 500.29,211.43 " style="stroke-width: 0.53; stroke: #0278DD; fill: #0278DD;" clip-path="url(#cpNi45NzM4NXw3MTMuMDI2fDI4MC40NDV8Ni45NzM4NQ==)"/>
  <g clip-path="url(#cpNi45NzM4NXw3MTMuMDI2fDI4MC40NDV8Ni45NzM4NQ==)">
    <text x="501.81" y="207.83" style="font-size: 11.04px; fill: #FFF; font-family: Arial;" textLength="44.84px" lengthAdjust="spacingAndGlyphs">HopLand</text>
  </g>
  <polyline points="469.24,232.31 504.65,232.31 504.56,232.31 504.91,232.29 505.25,232.22 505.57,232.10 505.87,231.93 506.14,231.71 506.37,231.45 506.56,231.15 506.70,230.83 506.78,230.49 506.81,230.15 506.81,230.15 506.81,219.39 506.81,219.39 506.78,219.05 506.70,218.71 506.56,218.39 506.37,218.10 506.14,217.84 505.87,217.62 505.57,217.44 505.25,217.32 504.91,217.25 504.65,217.23 469.24,217.23 469.50,217.25 469.15,217.23 468.80,217.28 468.47,217.37 468.16,217.52 467.87,217.72 467.62,217.96 467.41,218.24 467.25,218.55 467.14,218.88 467.08,219.22 467.08,219.39 467.08,230.15 467.08,229.97 467.08,230.32 467.14,230.66 467.25,230.99 467.41,231.30 467.62,231.58 467.87,231.82 468.16,232.02 468.47,232.17 468.80,232.26 469.15,232.31 " style="stroke-width: 0.53; stroke: #E0AB00; fill: #E0AB00;" clip-path="url(#cpNi45NzM4NXw3MTMuMDI2fDI4MC40NDV8Ni45NzM4NQ==)"/>
  <g clip-path="url(#cpNi45NzM4NXw3MTMuMDI2fDI4MC40NDV8Ni45NzM4NQ==)">
    <text x="470.68" y="228.71" style="font-size: 11.04px; fill: #FFF; font-family: Arial;" textLength="32.53px" lengthAdjust="spacingAndGlyphs">TASIC</text>
  </g>
  <polyline points="518.52,269.22 543.51,269.22 543.42,269.22 543.77,269.20 544.11,269.13 544.43,269.01 544.73,268.84 545.00,268.62 545.23,268.36 545.42,268.06 545.55,267.74 545.64,267.41 545.67,267.06 545.67,267.06 545.67,256.30 545.67,256.30 545.64,255.96 545.55,255.62 545.42,255.30 545.23,255.01 545.00,254.75 544.73,254.53 544.43,254.35 544.11,254.23 543.77,254.16 543.51,254.14 518.52,254.14 518.78,254.16 518.43,254.15 518.09,254.19 517.76,254.28 517.44,254.43 517.16,254.63 516.90,254.87 516.70,255.15 516.53,255.46 516.42,255.79 516.37,256.13 516.36,256.30 516.36,267.06 516.37,266.89 516.37,267.23 516.42,267.58 516.53,267.91 516.70,268.21 516.90,268.49 517.16,268.73 517.44,268.93 517.76,269.08 518.09,269.18 518.43,269.22 " style="stroke-width: 0.53; stroke: #7FBE00; fill: #7FBE00;" clip-path="url(#cpNi45NzM4NXw3MTMuMDI2fDI4MC40NDV8Ni45NzM4NQ==)"/>
  <g clip-path="url(#cpNi45NzM4NXw3MTMuMDI2fDI4MC40NDV8Ni45NzM4NQ==)">
    <text x="519.96" y="265.62" style="font-size: 11.04px; fill: #FFF; font-family: Arial;" textLength="22.10px" lengthAdjust="spacingAndGlyphs">PBA</text>
  </g>
  <polyline points="334.00,192.03 386.00,192.03 385.91,192.03 386.26,192.02 386.60,191.95 386.93,191.83 387.23,191.65 387.50,191.43 387.73,191.17 387.91,190.88 388.05,190.56 388.13,190.22 388.16,189.87 388.16,189.87 388.16,179.12 388.16,179.12 388.13,178.77 388.05,178.44 387.91,178.12 387.73,177.82 387.50,177.56 387.23,177.34 386.93,177.17 386.60,177.05 386.26,176.98 386.00,176.96 334.00,176.96 334.26,176.98 333.91,176.96 333.57,177.00 333.23,177.10 332.92,177.25 332.63,177.45 332.38,177.69 332.17,177.97 332.01,178.27 331.90,178.60 331.85,178.95 331.84,179.12 331.84,189.87 331.85,189.70 331.85,190.05 331.90,190.39 332.01,190.72 332.17,191.03 332.38,191.31 332.63,191.55 332.92,191.75 333.23,191.89 333.57,191.99 333.91,192.03 " style="stroke-width: 0.53; stroke: #3AD1D1; fill: #3AD1D1;" clip-path="url(#cpNi45NzM4NXw3MTMuMDI2fDI4MC40NDV8Ni45NzM4NQ==)"/>
  <g clip-path="url(#cpNi45NzM4NXw3MTMuMDI2fDI4MC40NDV8Ni45NzM4NQ==)">
    <text x="335.44" y="188.43" style="font-size: 11.04px; fill: #FFF; font-family: Arial;" textLength="49.12px" lengthAdjust="spacingAndGlyphs">Wishbone</text>
  </g>
  <polyline points="365.25,126.12 393.92,126.12 393.83,126.12 394.18,126.10 394.52,126.03 394.85,125.91 395.15,125.73 395.42,125.51 395.65,125.25 395.83,124.96 395.97,124.64 396.05,124.30 396.08,123.96 396.08,123.96 396.08,113.20 396.08,113.20 396.05,112.86 395.97,112.52 395.83,112.20 395.65,111.90 395.42,111.64 395.15,111.42 394.85,111.25 394.52,111.13 394.18,111.06 393.92,111.04 365.25,111.04 365.51,111.06 365.17,111.04 364.82,111.09 364.49,111.18 364.17,111.33 363.89,111.53 363.64,111.77 363.43,112.05 363.27,112.36 363.16,112.69 363.10,113.03 363.09,113.20 363.09,123.96 363.10,123.78 363.10,124.13 363.16,124.47 363.27,124.80 363.43,125.11 363.64,125.39 363.89,125.63 364.17,125.83 364.49,125.98 364.82,126.07 365.17,126.12 " style="stroke-width: 0.53; stroke: #0278DD; fill: #0278DD;" clip-path="url(#cpNi45NzM4NXw3MTMuMDI2fDI4MC40NDV8Ni45NzM4NQ==)"/>
  <g clip-path="url(#cpNi45NzM4NXw3MTMuMDI2fDI4MC40NDV8Ni45NzM4NQ==)">
    <text x="366.69" y="122.52" style="font-size: 11.04px; fill: #FFF; font-family: Arial;" textLength="25.79px" lengthAdjust="spacingAndGlyphs">Ouija</text>
  </g>
  <polyline points="340.46,256.09 369.74,256.09 369.66,256.09 370.00,256.07 370.34,256.00 370.67,255.88 370.97,255.71 371.24,255.49 371.47,255.23 371.65,254.93 371.79,254.61 371.87,254.28 371.90,253.93 371.90,253.93 371.90,243.17 371.90,243.17 371.87,242.83 371.79,242.49 371.65,242.17 371.47,241.88 371.24,241.62 370.97,241.40 370.67,241.22 370.34,241.10 370.00,241.03 369.74,241.01 340.46,241.01 340.72,241.03 340.38,241.02 340.03,241.06 339.70,241.15 339.38,241.30 339.10,241.50 338.85,241.74 338.64,242.02 338.48,242.33 338.37,242.66 338.31,243.00 338.30,243.17 338.30,253.93 338.31,253.76 338.31,254.10 338.37,254.45 338.48,254.78 338.64,255.08 338.85,255.36 339.10,255.60 339.38,255.80 339.70,255.95 340.03,256.05 340.38,256.09 " style="stroke-width: 0.53; stroke: #0278DD; fill: #0278DD;" clip-path="url(#cpNi45NzM4NXw3MTMuMDI2fDI4MC40NDV8Ni45NzM4NQ==)"/>
  <g clip-path="url(#cpNi45NzM4NXw3MTMuMDI2fDI4MC40NDV8Ni45NzM4NQ==)">
    <text x="341.90" y="252.49" style="font-size: 11.04px; fill: #FFF; font-family: Arial;" textLength="26.40px" lengthAdjust="spacingAndGlyphs">SCell</text>
  </g>
  <defs>
    <clipPath id="cpMHw3MjB8MzI0fDA=">
      <rect x="0.00" y="0.00" width="720.00" height="324.00"/>
    </clipPath>
  </defs>
  <polyline points="6.97,280.45 713.03,280.45 " style="stroke-width: 1.07; stroke-linecap: square;" clip-path="url(#cpMHw3MjB8MzI0fDA=)"/>
  <polyline points="39.07,283.93 39.07,280.45 " style="stroke-width: 1.07; stroke-linecap: butt;" clip-path="url(#cpMHw3MjB8MzI0fDA=)"/>
  <polyline points="176.56,283.93 176.56,280.45 " style="stroke-width: 1.07; stroke-linecap: butt;" clip-path="url(#cpMHw3MjB8MzI0fDA=)"/>
  <polyline points="314.04,283.93 314.04,280.45 " style="stroke-width: 1.07; stroke-linecap: butt;" clip-path="url(#cpMHw3MjB8MzI0fDA=)"/>
  <polyline points="451.91,283.93 451.91,280.45 " style="stroke-width: 1.07; stroke-linecap: butt;" clip-path="url(#cpMHw3MjB8MzI0fDA=)"/>
  <polyline points="589.40,283.93 589.40,280.45 " style="stroke-width: 1.07; stroke-linecap: butt;" clip-path="url(#cpMHw3MjB8MzI0fDA=)"/>
  <g clip-path="url(#cpMHw3MjB8MzI0fDA=)">
    <text x="25.72" y="295.51" style="font-size: 12.00px; font-family: Arial;" textLength="26.70px" lengthAdjust="spacingAndGlyphs">2014</text>
  </g>
  <g clip-path="url(#cpMHw3MjB8MzI0fDA=)">
    <text x="163.21" y="295.51" style="font-size: 12.00px; font-family: Arial;" textLength="26.70px" lengthAdjust="spacingAndGlyphs">2015</text>
  </g>
  <g clip-path="url(#cpMHw3MjB8MzI0fDA=)">
    <text x="300.70" y="295.51" style="font-size: 12.00px; font-family: Arial;" textLength="26.70px" lengthAdjust="spacingAndGlyphs">2016</text>
  </g>
  <g clip-path="url(#cpMHw3MjB8MzI0fDA=)">
    <text x="438.56" y="295.51" style="font-size: 12.00px; font-family: Arial;" textLength="26.70px" lengthAdjust="spacingAndGlyphs">2017</text>
  </g>
  <g clip-path="url(#cpMHw3MjB8MzI0fDA=)">
    <text x="576.05" y="295.51" style="font-size: 12.00px; font-family: Arial;" textLength="26.70px" lengthAdjust="spacingAndGlyphs">2018</text>
  </g>
  <g clip-path="url(#cpMHw3MjB8MzI0fDA=)">
    <text x="312.13" y="312.77" style="font-size: 14.00px; font-family: Arial;" textLength="95.74px" lengthAdjust="spacingAndGlyphs">Publishing date</text>
  </g>
</svg>
