<?xml version="1.0" encoding="UTF-8"?>
<svg xmlns="http://www.w3.org/2000/svg" xmlns:xlink="http://www.w3.org/1999/xlink" viewBox="0 0 720.00 324.00">
  <defs>
    <style type="text/css"><![CDATA[
    line, polyline, path, rect, circle {
      fill: none;
      stroke: #000000;
      stroke-linecap: round;
      stroke-linejoin: round;
      stroke-miterlimit: 10.00;
    }
  ]]></style>
  </defs>
  <line x1="564.54" y1="266.75" x2="564.54" y2="281.21" style="stroke-width: 1.07; stroke: #CA0565;" clip-path="url(#cpNi45NzM4NXw3MTMuMDI2fDI4MS4yMDl8Ni45NzM4NQ==)"/>
  <line x1="565.67" y1="232.51" x2="565.67" y2="281.21" style="stroke-width: 1.07; stroke: #0278DD;" clip-path="url(#cpNi45NzM4NXw3MTMuMDI2fDI4MS4yMDl8Ni45NzM4NQ==)"/>
  <line x1="486.94" y1="44.60" x2="486.94" y2="281.21" style="stroke-width: 1.07; stroke: #E0AB00;" clip-path="url(#cpNi45NzM4NXw3MTMuMDI2fDI4MS4yMDl8Ni45NzM4NQ==)"/>
  <line x1="571.70" y1="88.36" x2="571.70" y2="281.21" style="stroke-width: 1.07; stroke: #E0AB00;" clip-path="url(#cpNi45NzM4NXw3MTMuMDI2fDI4MS4yMDl8Ni45NzM4NQ==)"/>
  <line x1="600.70" y1="254.27" x2="600.70" y2="281.21" style="stroke-width: 1.07; stroke: #FF4237;" clip-path="url(#cpNi45NzM4NXw3MTMuMDI2fDI4MS4yMDl8Ni45NzM4NQ==)"/>
  <line x1="81.63" y1="270.79" x2="81.63" y2="281.21" style="stroke-width: 1.07; stroke: #0278DD;" clip-path="url(#cpNi45NzM4NXw3MTMuMDI2fDI4MS4yMDl8Ni45NzM4NQ==)"/>
  <line x1="236.07" y1="277.35" x2="236.07" y2="281.21" style="stroke-width: 1.07; stroke: #0278DD;" clip-path="url(#cpNi45NzM4NXw3MTMuMDI2fDI4MS4yMDl8Ni45NzM4NQ==)"/>
  <line x1="508.41" y1="191.49" x2="508.41" y2="281.21" style="stroke-width: 1.07; stroke: #0278DD;" clip-path="url(#cpNi45NzM4NXw3MTMuMDI2fDI4MS4yMDl8Ni45NzM4NQ==)"/>
  <line x1="531.01" y1="212.27" x2="531.01" y2="281.21" style="stroke-width: 1.07; stroke: #7FBE00;" clip-path="url(#cpNi45NzM4NXw3MTMuMDI2fDI4MS4yMDl8Ni45NzM4NQ==)"/>
  <line x1="72.97" y1="248.40" x2="72.97" y2="281.21" style="stroke-width: 1.07; stroke: #E0AB00;" clip-path="url(#cpNi45NzM4NXw3MTMuMDI2fDI4MS4yMDl8Ni45NzM4NQ==)"/>
  <line x1="418.39" y1="276.09" x2="418.39" y2="281.21" style="stroke-width: 1.07; stroke: #0278DD;" clip-path="url(#cpNi45NzM4NXw3MTMuMDI2fDI4MS4yMDl8Ni45NzM4NQ==)"/>
  <line x1="360.00" y1="214.61" x2="360.00" y2="281.20" style="stroke-width: 1.07; stroke: #3AD1D1;" clip-path="url(#cpNi45NzM4NXw3MTMuMDI2fDI4MS4yMDl8Ni45NzM4NQ==)"/>
  <line x1="534.78" y1="256.68" x2="534.78" y2="281.20" style="stroke-width: 1.07; stroke: #3AD1D1;" clip-path="url(#cpNi45NzM4NXw3MTMuMDI2fDI4MS4yMDl8Ni45NzM4NQ==)"/>
  <line x1="515.57" y1="231.33" x2="515.57" y2="281.20" style="stroke-width: 1.07; stroke: #003D76;" clip-path="url(#cpNi45NzM4NXw3MTMuMDI2fDI4MS4yMDl8Ni45NzM4NQ==)"/>
  <line x1="351.34" y1="253.96" x2="351.34" y2="281.20" style="stroke-width: 1.07; stroke: #FF4237;" clip-path="url(#cpNi45NzM4NXw3MTMuMDI2fDI4MS4yMDl8Ni45NzM4NQ==)"/>
  <line x1="578.48" y1="192.13" x2="578.48" y2="281.20" style="stroke-width: 1.07; stroke: #7FBE00;" clip-path="url(#cpNi45NzM4NXw3MTMuMDI2fDI4MS4yMDl8Ni45NzM4NQ==)"/>
  <line x1="377.33" y1="129.86" x2="377.33" y2="281.20" style="stroke-width: 1.07; stroke: #0278DD;" clip-path="url(#cpNi45NzM4NXw3MTMuMDI2fDI4MS4yMDl8Ni45NzM4NQ==)"/>
  <line x1="479.41" y1="221.15" x2="479.41" y2="281.20" style="stroke-width: 1.07; stroke: #7FBE00;" clip-path="url(#cpNi45NzM4NXw3MTMuMDI2fDI4MS4yMDl8Ni45NzM4NQ==)"/>
  <line x1="428.18" y1="226.54" x2="428.18" y2="281.20" style="stroke-width: 1.07; stroke: #0278DD;" clip-path="url(#cpNi45NzM4NXw3MTMuMDI2fDI4MS4yMDl8Ni45NzM4NQ==)"/>
  <line x1="378.83" y1="191.87" x2="378.83" y2="281.20" style="stroke-width: 1.07; stroke: #E0AB00;" clip-path="url(#cpNi45NzM4NXw3MTMuMDI2fDI4MS4yMDl8Ni45NzM4NQ==)"/>
  <line x1="445.51" y1="248.92" x2="445.51" y2="281.20" style="stroke-width: 1.07; stroke: #E0AB00;" clip-path="url(#cpNi45NzM4NXw3MTMuMDI2fDI4MS4yMDl8Ni45NzM4NQ==)"/>
  <line x1="482.80" y1="155.83" x2="482.80" y2="281.20" style="stroke-width: 1.07; stroke: #E0AB00;" clip-path="url(#cpNi45NzM4NXw3MTMuMDI2fDI4MS4yMDl8Ni45NzM4NQ==)"/>
  <line x1="487.32" y1="87.61" x2="487.32" y2="281.20" style="stroke-width: 1.07; stroke: #E0AB00;" clip-path="url(#cpNi45NzM4NXw3MTMuMDI2fDI4MS4yMDl8Ni45NzM4NQ==)"/>
  <line x1="603.71" y1="168.68" x2="603.71" y2="281.20" style="stroke-width: 1.07; stroke: #E0AB00;" clip-path="url(#cpNi45NzM4NXw3MTMuMDI2fDI4MS4yMDl8Ni45NzM4NQ==)"/>
  <line x1="175.80" y1="273.60" x2="175.80" y2="281.20" style="stroke-width: 1.07; stroke: #E0AB00;" clip-path="url(#cpNi45NzM4NXw3MTMuMDI2fDI4MS4yMDl8Ni45NzM4NQ==)"/>
  <line x1="543.44" y1="170.91" x2="543.44" y2="281.20" style="stroke-width: 1.07; stroke: #FF8821;" clip-path="url(#cpNi45NzM4NXw3MTMuMDI2fDI4MS4yMDl8Ni45NzM4NQ==)"/>
  <line x1="382.22" y1="235.23" x2="382.22" y2="281.20" style="stroke-width: 1.07; stroke: #E0AB00;" clip-path="url(#cpNi45NzM4NXw3MTMuMDI2fDI4MS4yMDl8Ni45NzM4NQ==)"/>
  <line x1="471.12" y1="173.87" x2="471.12" y2="281.20" style="stroke-width: 1.07; stroke: #E0AB00;" clip-path="url(#cpNi45NzM4NXw3MTMuMDI2fDI4MS4yMDl8Ni45NzM4NQ==)"/>
  <line x1="492.59" y1="67.21" x2="492.59" y2="281.20" style="stroke-width: 1.07; stroke: #E0AB00;" clip-path="url(#cpNi45NzM4NXw3MTMuMDI2fDI4MS4yMDl8Ni45NzM4NQ==)"/>
  <line x1="471.50" y1="201.92" x2="471.50" y2="281.20" style="stroke-width: 1.07; stroke: #E0AB00;" clip-path="url(#cpNi45NzM4NXw3MTMuMDI2fDI4MS4yMDl8Ni45NzM4NQ==)"/>
  <line x1="273.36" y1="255.23" x2="273.36" y2="281.20" style="stroke-width: 1.07; stroke: #0278DD;" clip-path="url(#cpNi45NzM4NXw3MTMuMDI2fDI4MS4yMDl8Ni45NzM4NQ==)"/>
  <line x1="524.23" y1="71.02" x2="524.23" y2="281.20" style="stroke-width: 1.07; stroke: #0278DD;" clip-path="url(#cpNi45NzM4NXw3MTMuMDI2fDI4MS4yMDl8Ni45NzM4NQ==)"/>
  <line x1="364.14" y1="110.19" x2="364.14" y2="281.19" style="stroke-width: 1.07; stroke: #E0AB00;" clip-path="url(#cpNi45NzM4NXw3MTMuMDI2fDI4MS4yMDl8Ni45NzM4NQ==)"/>
  <line x1="521.97" y1="48.03" x2="521.97" y2="281.19" style="stroke-width: 1.07; stroke: #0278DD;" clip-path="url(#cpNi45NzM4NXw3MTMuMDI2fDI4MS4yMDl8Ni45NzM4NQ==)"/>
  <line x1="602.58" y1="214.23" x2="602.58" y2="281.19" style="stroke-width: 1.07; stroke: #E0AB00;" clip-path="url(#cpNi45NzM4NXw3MTMuMDI2fDI4MS4yMDl8Ni45NzM4NQ==)"/>
  <line x1="328.36" y1="273.21" x2="328.36" y2="281.19" style="stroke-width: 1.07; stroke: #3AD1D1;" clip-path="url(#cpNi45NzM4NXw3MTMuMDI2fDI4MS4yMDl8Ni45NzM4NQ==)"/>
  <line x1="497.11" y1="251.90" x2="497.11" y2="281.19" style="stroke-width: 1.07; stroke: #0278DD;" clip-path="url(#cpNi45NzM4NXw3MTMuMDI2fDI4MS4yMDl8Ni45NzM4NQ==)"/>
  <line x1="515.95" y1="131.45" x2="515.95" y2="281.19" style="stroke-width: 1.07; stroke: #E0AB00;" clip-path="url(#cpNi45NzM4NXw3MTMuMDI2fDI4MS4yMDl8Ni45NzM4NQ==)"/>
  <line x1="517.45" y1="24.63" x2="517.45" y2="281.19" style="stroke-width: 1.07; stroke: #0278DD;" clip-path="url(#cpNi45NzM4NXw3MTMuMDI2fDI4MS4yMDl8Ni45NzM4NQ==)"/>
  <line x1="419.52" y1="150.18" x2="419.52" y2="281.19" style="stroke-width: 1.07; stroke: #0278DD;" clip-path="url(#cpNi45NzM4NXw3MTMuMDI2fDI4MS4yMDl8Ni45NzM4NQ==)"/>
  <line x1="268.84" y1="233.68" x2="268.84" y2="281.19" style="stroke-width: 1.07; stroke: #0278DD;" clip-path="url(#cpNi45NzM4NXw3MTMuMDI2fDI4MS4yMDl8Ni45NzM4NQ==)"/>
  <line x1="553.24" y1="125.19" x2="553.24" y2="281.19" style="stroke-width: 1.07; stroke: #FF4237;" clip-path="url(#cpNi45NzM4NXw3MTMuMDI2fDI4MS4yMDl8Ni45NzM4NQ==)"/>
  <line x1="400.30" y1="173.57" x2="400.30" y2="281.19" style="stroke-width: 1.07; stroke: #0278DD;" clip-path="url(#cpNi45NzM4NXw3MTMuMDI2fDI4MS4yMDl8Ni45NzM4NQ==)"/>
  <line x1="447.01" y1="132.06" x2="447.01" y2="281.19" style="stroke-width: 1.07; stroke: #E0AB00;" clip-path="url(#cpNi45NzM4NXw3MTMuMDI2fDI4MS4yMDl8Ni45NzM4NQ==)"/>
  <line x1="474.89" y1="24.63" x2="474.89" y2="281.19" style="stroke-width: 1.07; stroke: #7FBE00;" clip-path="url(#cpNi45NzM4NXw3MTMuMDI2fDI4MS4yMDl8Ni45NzM4NQ==)"/>
  <line x1="398.80" y1="24.63" x2="398.80" y2="281.19" style="stroke-width: 1.07; stroke: #E0AB00;" clip-path="url(#cpNi45NzM4NXw3MTMuMDI2fDI4MS4yMDl8Ni45NzM4NQ==)"/>
  <line x1="529.51" y1="107.01" x2="529.51" y2="281.19" style="stroke-width: 1.07; stroke: #0278DD;" clip-path="url(#cpNi45NzM4NXw3MTMuMDI2fDI4MS4yMDl8Ni45NzM4NQ==)"/>
  <line x1="349.83" y1="151.72" x2="349.83" y2="281.19" style="stroke-width: 1.07; stroke: #0278DD;" clip-path="url(#cpNi45NzM4NXw3MTMuMDI2fDI4MS4yMDl8Ni45NzM4NQ==)"/>
  <line x1="373.94" y1="87.20" x2="373.94" y2="281.19" style="stroke-width: 1.07; stroke: #7FBE00;" clip-path="url(#cpNi45NzM4NXw3MTMuMDI2fDI4MS4yMDl8Ni45NzM4NQ==)"/>
  <line x1="596.93" y1="146.25" x2="596.93" y2="281.18" style="stroke-width: 1.07; stroke: #E0AB00;" clip-path="url(#cpNi45NzM4NXw3MTMuMDI2fDI4MS4yMDl8Ni45NzM4NQ==)"/>
  <line x1="186.35" y1="249.87" x2="186.35" y2="281.18" style="stroke-width: 1.07; stroke: #E0AB00;" clip-path="url(#cpNi45NzM4NXw3MTMuMDI2fDI4MS4yMDl8Ni45NzM4NQ==)"/>
  <line x1="274.49" y1="164.53" x2="274.49" y2="281.18" style="stroke-width: 1.07; stroke: #0278DD;" clip-path="url(#cpNi45NzM4NXw3MTMuMDI2fDI4MS4yMDl8Ni45NzM4NQ==)"/>
  <line x1="355.10" y1="45.60" x2="355.10" y2="281.18" style="stroke-width: 1.07; stroke: #0278DD;" clip-path="url(#cpNi45NzM4NXw3MTMuMDI2fDI4MS4yMDl8Ni45NzM4NQ==)"/>
  <line x1="531.77" y1="150.68" x2="531.77" y2="281.18" style="stroke-width: 1.07; stroke: #3AD1D1;" clip-path="url(#cpNi45NzM4NXw3MTMuMDI2fDI4MS4yMDl8Ni45NzM4NQ==)"/>
  <line x1="379.59" y1="67.06" x2="379.59" y2="281.18" style="stroke-width: 1.07; stroke: #0278DD;" clip-path="url(#cpNi45NzM4NXw3MTMuMDI2fDI4MS4yMDl8Ni45NzM4NQ==)"/>
  <line x1="577.35" y1="64.81" x2="577.35" y2="281.18" style="stroke-width: 1.07; stroke: #0278DD;" clip-path="url(#cpNi45NzM4NXw3MTMuMDI2fDI4MS4yMDl8Ni45NzM4NQ==)"/>
  <line x1="318.19" y1="190.64" x2="318.19" y2="281.18" style="stroke-width: 1.07; stroke: #E0AB00;" clip-path="url(#cpNi45NzM4NXw3MTMuMDI2fDI4MS4yMDl8Ni45NzM4NQ==)"/>
  <line x1="468.11" y1="108.71" x2="468.11" y2="281.18" style="stroke-width: 1.07; stroke: #0278DD;" clip-path="url(#cpNi45NzM4NXw3MTMuMDI2fDI4MS4yMDl8Ni45NzM4NQ==)"/>
  <defs>
    <clipPath id="cpNi45NzM4NXw3MTMuMDI2fDI4MS4yMDl8Ni45NzM4NQ==">
      <rect x="6.97" y="6.97" width="706.05" height="274.24"/>
    </clipPath>
  </defs>
  <polyline points="449.23,108.71 486.98,108.71 486.90,108.71 487.24,108.69 487.58,108.62 487.91,108.50 488.21,108.32 488.48,108.10 488.71,107.84 488.89,107.55 489.03,107.23 489.11,106.89 489.14,106.55 489.14,106.55 489.14,96.82 489.14,96.82 489.11,96.47 489.03,96.13 488.89,95.81 488.71,95.52 488.48,95.26 488.21,95.04 487.91,94.86 487.58,94.74 487.24,94.67 486.98,94.66 449.23,94.66 449.49,94.67 449.15,94.66 448.80,94.70 448.47,94.80 448.15,94.94 447.87,95.14 447.62,95.38 447.41,95.66 447.25,95.97 447.14,96.30 447.08,96.64 447.07,96.82 447.07,106.55 447.08,106.37 447.08,106.72 447.14,107.06 447.25,107.39 447.41,107.70 447.62,107.98 447.87,108.22 448.15,108.42 448.47,108.57 448.80,108.66 449.15,108.71 " style="stroke-width: 0.53; stroke: #0278DD; fill: #0278DD;" clip-path="url(#cpNi45NzM4NXw3MTMuMDI2fDI4MS4yMDl8Ni45NzM4NQ==)"/>
  <g clip-path="url(#cpNi45NzM4NXw3MTMuMDI2fDI4MS4yMDl8Ni45NzM4NQ==)">
    <text x="450.67" y="105.11" style="font-size: 9.96px; fill: #FFF; font-family: Liberation Sans;" textLength="34.87px" lengthAdjust="spacingAndGlyphs">topslam</text>
  </g>
  <polyline points="298.76,190.64 337.61,190.64 337.53,190.63 337.88,190.62 338.22,190.55 338.54,190.43 338.84,190.25 339.11,190.03 339.34,189.77 339.53,189.48 339.66,189.16 339.75,188.82 339.77,188.48 339.77,188.48 339.77,178.74 339.77,178.74 339.75,178.40 339.66,178.06 339.53,177.74 339.34,177.45 339.11,177.19 338.84,176.97 338.54,176.79 338.22,176.67 337.88,176.60 337.61,176.58 298.76,176.58 299.02,176.60 298.67,176.59 298.33,176.63 298.00,176.72 297.68,176.87 297.40,177.07 297.15,177.31 296.94,177.59 296.77,177.90 296.66,178.23 296.61,178.57 296.60,178.74 296.60,188.48 296.61,188.30 296.61,188.65 296.66,188.99 296.77,189.32 296.94,189.63 297.15,189.91 297.40,190.15 297.68,190.35 298.00,190.49 298.33,190.59 298.67,190.63 " style="stroke-width: 0.53; stroke: #E0AB00; fill: #E0AB00;" clip-path="url(#cpNi45NzM4NXw3MTMuMDI2fDI4MS4yMDl8Ni45NzM4NQ==)"/>
  <g clip-path="url(#cpNi45NzM4NXw3MTMuMDI2fDI4MS4yMDl8Ni45NzM4NQ==)">
    <text x="300.20" y="187.04" style="font-size: 9.96px; fill: #FFF; font-family: Liberation Sans;" textLength="35.97px" lengthAdjust="spacingAndGlyphs">ECLAIR</text>
  </g>
  <polyline points="562.62,64.81 592.07,64.81 591.98,64.81 592.33,64.80 592.67,64.73 592.99,64.60 593.29,64.43 593.56,64.21 593.79,63.95 593.98,63.66 594.12,63.34 594.20,63.00 594.23,62.65 594.23,62.65 594.23,52.92 594.23,52.92 594.20,52.57 594.12,52.24 593.98,51.92 593.79,51.62 593.56,51.36 593.29,51.14 592.99,50.97 592.67,50.85 592.33,50.78 592.07,50.76 562.62,50.76 562.88,50.78 562.54,50.76 562.19,50.80 561.86,50.90 561.54,51.05 561.26,51.25 561.01,51.49 560.80,51.77 560.64,52.07 560.53,52.40 560.47,52.75 560.46,52.92 560.46,62.65 560.47,62.48 560.47,62.83 560.53,63.17 560.64,63.50 560.80,63.81 561.01,64.08 561.26,64.33 561.54,64.52 561.86,64.67 562.19,64.77 562.54,64.81 " style="stroke-width: 0.53; stroke: #0278DD; fill: #0278DD;" clip-path="url(#cpNi45NzM4NXw3MTMuMDI2fDI4MS4yMDl8Ni45NzM4NQ==)"/>
  <g clip-path="url(#cpNi45NzM4NXw3MTMuMDI2fDI4MS4yMDl8Ni45NzM4NQ==)">
    <text x="564.06" y="61.21" style="font-size: 9.96px; fill: #FFF; font-family: Liberation Sans;" textLength="26.56px" lengthAdjust="spacingAndGlyphs">iCpSc</text>
  </g>
  <polyline points="366.52,67.06 392.65,67.06 392.56,67.06 392.91,67.05 393.25,66.98 393.58,66.85 393.88,66.68 394.15,66.46 394.38,66.20 394.56,65.91 394.70,65.59 394.78,65.25 394.81,64.90 394.81,64.90 394.81,55.17 394.81,55.17 394.78,54.82 394.70,54.49 394.56,54.17 394.38,53.87 394.15,53.61 393.88,53.39 393.58,53.22 393.25,53.10 392.91,53.03 392.65,53.01 366.52,53.01 366.78,53.03 366.44,53.01 366.09,53.05 365.76,53.15 365.44,53.30 365.16,53.50 364.91,53.74 364.70,54.02 364.54,54.32 364.43,54.65 364.37,55.00 364.36,55.17 364.36,64.90 364.37,64.73 364.37,65.08 364.43,65.42 364.54,65.75 364.70,66.06 364.91,66.33 365.16,66.57 365.44,66.77 365.76,66.92 366.09,67.02 366.44,67.06 " style="stroke-width: 0.53; stroke: #0278DD; fill: #0278DD;" clip-path="url(#cpNi45NzM4NXw3MTMuMDI2fDI4MS4yMDl8Ni45NzM4NQ==)"/>
  <g clip-path="url(#cpNi45NzM4NXw3MTMuMDI2fDI4MS4yMDl8Ni45NzM4NQ==)">
    <text x="367.96" y="63.46" style="font-size: 9.96px; fill: #FFF; font-family: Liberation Sans;" textLength="23.25px" lengthAdjust="spacingAndGlyphs">Ouija</text>
  </g>
  <polyline points="519.81,150.68 543.72,150.68 543.64,150.68 543.98,150.67 544.32,150.60 544.65,150.47 544.95,150.30 545.22,150.08 545.45,149.82 545.63,149.53 545.77,149.21 545.85,148.87 545.88,148.52 545.88,148.52 545.88,138.79 545.88,138.79 545.85,138.44 545.77,138.11 545.63,137.79 545.45,137.49 545.22,137.23 544.95,137.01 544.65,136.84 544.32,136.72 543.98,136.65 543.72,136.63 519.81,136.63 520.07,136.65 519.72,136.63 519.38,136.67 519.05,136.77 518.73,136.92 518.45,137.12 518.19,137.36 517.99,137.64 517.82,137.94 517.71,138.27 517.66,138.62 517.65,138.79 517.65,148.52 517.66,148.35 517.66,148.70 517.71,149.04 517.82,149.37 517.99,149.68 518.19,149.95 518.45,150.20 518.73,150.39 519.05,150.54 519.38,150.64 519.72,150.68 " style="stroke-width: 0.53; stroke: #3AD1D1; fill: #3AD1D1;" clip-path="url(#cpNi45NzM4NXw3MTMuMDI2fDI4MS4yMDl8Ni45NzM4NQ==)"/>
  <g clip-path="url(#cpNi45NzM4NXw3MTMuMDI2fDI4MS4yMDl8Ni45NzM4NQ==)">
    <text x="521.25" y="147.08" style="font-size: 9.96px; fill: #FFF; font-family: Liberation Sans;" textLength="21.03px" lengthAdjust="spacingAndGlyphs">BGP</text>
  </g>
  <polyline points="341.76,45.60 368.44,45.60 368.35,45.60 368.70,45.59 369.04,45.52 369.37,45.39 369.67,45.22 369.94,45.00 370.17,44.74 370.35,44.45 370.49,44.13 370.57,43.79 370.60,43.44 370.60,43.44 370.60,33.71 370.60,33.71 370.57,33.37 370.49,33.03 370.35,32.71 370.17,32.41 369.94,32.15 369.67,31.93 369.37,31.76 369.04,31.64 368.70,31.57 368.44,31.55 341.76,31.55 342.02,31.57 341.68,31.55 341.33,31.60 341.00,31.69 340.68,31.84 340.40,32.04 340.15,32.28 339.94,32.56 339.78,32.87 339.67,33.20 339.61,33.54 339.60,33.71 339.60,43.44 339.61,43.27 339.61,43.62 339.67,43.96 339.78,44.29 339.94,44.60 340.15,44.88 340.40,45.12 340.68,45.31 341.00,45.46 341.33,45.56 341.68,45.60 " style="stroke-width: 0.53; stroke: #0278DD; fill: #0278DD;" clip-path="url(#cpNi45NzM4NXw3MTMuMDI2fDI4MS4yMDl8Ni45NzM4NQ==)"/>
  <g clip-path="url(#cpNi45NzM4NXw3MTMuMDI2fDI4MS4yMDl8Ni45NzM4NQ==)">
    <text x="343.20" y="42.00" style="font-size: 9.96px; fill: #FFF; font-family: Liberation Sans;" textLength="23.80px" lengthAdjust="spacingAndGlyphs">SCell</text>
  </g>
  <polyline points="253.40,164.53 295.59,164.53 295.50,164.53 295.85,164.51 296.19,164.44 296.51,164.32 296.81,164.15 297.08,163.93 297.31,163.67 297.50,163.37 297.63,163.05 297.72,162.72 297.75,162.37 297.75,162.37 297.75,152.64 297.75,152.64 297.72,152.29 297.63,151.95 297.50,151.63 297.31,151.34 297.08,151.08 296.81,150.86 296.51,150.69 296.19,150.56 295.85,150.49 295.59,150.48 253.40,150.48 253.66,150.49 253.31,150.48 252.97,150.52 252.64,150.62 252.32,150.77 252.04,150.96 251.78,151.20 251.58,151.48 251.41,151.79 251.30,152.12 251.25,152.46 251.24,152.64 251.24,162.37 251.25,162.19 251.25,162.54 251.30,162.89 251.41,163.22 251.58,163.52 251.78,163.80 252.04,164.04 252.32,164.24 252.64,164.39 252.97,164.48 253.31,164.53 " style="stroke-width: 0.53; stroke: #0278DD; fill: #0278DD;" clip-path="url(#cpNi45NzM4NXw3MTMuMDI2fDI4MS4yMDl8Ni45NzM4NQ==)"/>
  <g clip-path="url(#cpNi45NzM4NXw3MTMuMDI2fDI4MS4yMDl8Ni45NzM4NQ==)">
    <text x="254.84" y="160.93" style="font-size: 9.96px; fill: #FFF; font-family: Liberation Sans;" textLength="39.30px" lengthAdjust="spacingAndGlyphs">embeddr</text>
  </g>
  <polyline points="171.07,249.87 201.63,249.87 201.54,249.87 201.89,249.86 202.23,249.79 202.55,249.66 202.85,249.49 203.12,249.27 203.35,249.01 203.54,248.72 203.67,248.40 203.76,248.06 203.79,247.71 203.79,247.71 203.79,237.98 203.79,237.98 203.76,237.63 203.67,237.30 203.54,236.98 203.35,236.68 203.12,236.42 202.85,236.20 202.55,236.03 202.23,235.91 201.89,235.84 201.63,235.82 171.07,235.82 171.33,235.84 170.99,235.82 170.64,235.86 170.31,235.96 169.99,236.11 169.71,236.31 169.46,236.55 169.25,236.83 169.09,237.13 168.98,237.46 168.92,237.81 168.91,237.98 168.91,247.71 168.92,247.54 168.92,247.89 168.98,248.23 169.09,248.56 169.25,248.87 169.46,249.14 169.71,249.38 169.99,249.58 170.31,249.73 170.64,249.83 170.99,249.87 " style="stroke-width: 0.53; stroke: #E0AB00; fill: #E0AB00;" clip-path="url(#cpNi45NzM4NXw3MTMuMDI2fDI4MS4yMDl8Ni45NzM4NQ==)"/>
  <g clip-path="url(#cpNi45NzM4NXw3MTMuMDI2fDI4MS4yMDl8Ni45NzM4NQ==)">
    <text x="172.51" y="246.27" style="font-size: 9.96px; fill: #FFF; font-family: Liberation Sans;" textLength="27.67px" lengthAdjust="spacingAndGlyphs">sincell</text>
  </g>
  <polyline points="566.98,146.25 626.88,146.25 626.80,146.25 627.14,146.24 627.49,146.17 627.81,146.04 628.11,145.87 628.38,145.65 628.61,145.39 628.80,145.09 628.93,144.77 629.02,144.44 629.04,144.09 629.04,144.09 629.04,134.36 629.04,134.36 629.02,134.01 628.93,133.68 628.80,133.36 628.61,133.06 628.38,132.80 628.11,132.58 627.81,132.41 627.49,132.28 627.14,132.22 626.88,132.20 566.98,132.20 567.24,132.22 566.89,132.20 566.55,132.24 566.22,132.34 565.90,132.49 565.62,132.69 565.36,132.93 565.16,133.21 564.99,133.51 564.88,133.84 564.83,134.19 564.82,134.36 564.82,144.09 564.83,143.92 564.83,144.26 564.88,144.61 564.99,144.94 565.16,145.25 565.36,145.52 565.62,145.76 565.90,145.96 566.22,146.11 566.55,146.21 566.89,146.25 " style="stroke-width: 0.53; stroke: #E0AB00; fill: #E0AB00;" clip-path="url(#cpNi45NzM4NXw3MTMuMDI2fDI4MS4yMDl8Ni45NzM4NQ==)"/>
  <g clip-path="url(#cpNi45NzM4NXw3MTMuMDI2fDI4MS4yMDl8Ni45NzM4NQ==)">
    <text x="568.42" y="142.65" style="font-size: 9.96px; fill: #FFF; font-family: Liberation Sans;" textLength="57.02px" lengthAdjust="spacingAndGlyphs">Topographer</text>
  </g>
  <polyline points="354.79,87.20 393.08,87.20 393.00,87.20 393.34,87.19 393.69,87.12 394.01,86.99 394.31,86.82 394.58,86.60 394.81,86.34 395.00,86.04 395.13,85.72 395.22,85.39 395.24,85.04 395.24,85.04 395.24,75.31 395.24,75.31 395.22,74.96 395.13,74.63 395.00,74.31 394.81,74.01 394.58,73.75 394.31,73.53 394.01,73.36 393.69,73.23 393.34,73.17 393.08,73.15 354.79,73.15 355.05,73.17 354.70,73.15 354.36,73.19 354.02,73.29 353.71,73.44 353.42,73.64 353.17,73.88 352.96,74.16 352.80,74.46 352.69,74.79 352.64,75.14 352.63,75.31 352.63,85.04 352.64,84.87 352.64,85.21 352.69,85.56 352.80,85.89 352.96,86.20 353.17,86.47 353.42,86.71 353.71,86.91 354.02,87.06 354.36,87.16 354.70,87.20 " style="stroke-width: 0.53; stroke: #7FBE00; fill: #7FBE00;" clip-path="url(#cpNi45NzM4NXw3MTMuMDI2fDI4MS4yMDl8Ni45NzM4NQ==)"/>
  <g clip-path="url(#cpNi45NzM4NXw3MTMuMDI2fDI4MS4yMDl8Ni45NzM4NQ==)">
    <text x="356.23" y="83.60" style="font-size: 9.96px; fill: #FFF; font-family: Liberation Sans;" textLength="35.41px" lengthAdjust="spacingAndGlyphs">SCOUP</text>
  </g>
  <polyline points="326.52,151.72 373.14,151.72 373.06,151.72 373.40,151.70 373.74,151.63 374.07,151.51 374.37,151.34 374.64,151.12 374.87,150.86 375.06,150.56 375.19,150.24 375.28,149.91 375.30,149.56 375.30,149.56 375.30,139.83 375.30,139.83 375.28,139.48 375.19,139.14 375.06,138.82 374.87,138.53 374.64,138.27 374.37,138.05 374.07,137.88 373.74,137.75 373.40,137.68 373.14,137.67 326.52,137.67 326.78,137.68 326.43,137.67 326.08,137.71 325.75,137.81 325.44,137.96 325.15,138.15 324.90,138.40 324.69,138.67 324.53,138.98 324.42,139.31 324.36,139.65 324.36,139.83 324.36,149.56 324.36,149.39 324.36,149.73 324.42,150.08 324.53,150.41 324.69,150.71 324.90,150.99 325.15,151.23 325.44,151.43 325.75,151.58 326.08,151.68 326.43,151.72 " style="stroke-width: 0.53; stroke: #0278DD; fill: #0278DD;" clip-path="url(#cpNi45NzM4NXw3MTMuMDI2fDI4MS4yMDl8Ni45NzM4NQ==)"/>
  <g clip-path="url(#cpNi45NzM4NXw3MTMuMDI2fDI4MS4yMDl8Ni45NzM4NQ==)">
    <text x="327.96" y="148.12" style="font-size: 9.96px; fill: #FFF; font-family: Liberation Sans;" textLength="43.75px" lengthAdjust="spacingAndGlyphs">pseudogp</text>
  </g>
  <polyline points="510.91,107.01 548.11,107.01 548.02,107.01 548.37,106.99 548.71,106.92 549.03,106.80 549.33,106.62 549.60,106.40 549.83,106.14 550.02,105.85 550.16,105.53 550.24,105.19 550.27,104.85 550.27,104.85 550.27,95.12 550.27,95.12 550.24,94.77 550.16,94.43 550.02,94.11 549.83,93.82 549.60,93.56 549.33,93.34 549.03,93.16 548.71,93.04 548.37,92.97 548.11,92.96 510.91,92.96 511.17,92.97 510.82,92.96 510.47,93.00 510.14,93.10 509.83,93.25 509.54,93.44 509.29,93.68 509.08,93.96 508.92,94.27 508.81,94.60 508.75,94.94 508.75,95.12 508.75,104.85 508.75,104.67 508.75,105.02 508.81,105.36 508.92,105.69 509.08,106.00 509.29,106.28 509.54,106.52 509.83,106.72 510.14,106.87 510.47,106.96 510.82,107.01 " style="stroke-width: 0.53; stroke: #0278DD; fill: #0278DD;" clip-path="url(#cpNi45NzM4NXw3MTMuMDI2fDI4MS4yMDl8Ni45NzM4NQ==)"/>
  <g clip-path="url(#cpNi45NzM4NXw3MTMuMDI2fDI4MS4yMDl8Ni45NzM4NQ==)">
    <text x="512.35" y="103.41" style="font-size: 9.96px; fill: #FFF; font-family: Liberation Sans;" textLength="34.32px" lengthAdjust="spacingAndGlyphs">SoptSC</text>
  </g>
  <polyline points="379.65,24.63 417.95,24.63 417.86,24.62 418.21,24.61 418.55,24.54 418.87,24.42 419.17,24.24 419.44,24.02 419.67,23.76 419.86,23.47 420.00,23.15 420.08,22.81 420.11,22.47 420.11,22.47 420.11,12.73 420.11,12.73 420.08,12.39 420.00,12.05 419.86,11.73 419.67,11.44 419.44,11.18 419.17,10.96 418.87,10.78 418.55,10.66 418.21,10.59 417.95,10.57 379.65,10.57 379.91,10.59 379.56,10.58 379.22,10.62 378.88,10.71 378.57,10.86 378.28,11.06 378.03,11.30 377.82,11.58 377.66,11.89 377.55,12.22 377.50,12.56 377.49,12.73 377.49,22.47 377.50,22.29 377.50,22.64 377.55,22.98 377.66,23.31 377.82,23.62 378.03,23.90 378.28,24.14 378.57,24.34 378.88,24.48 379.22,24.58 379.56,24.62 " style="stroke-width: 0.53; stroke: #E0AB00; fill: #E0AB00;" clip-path="url(#cpNi45NzM4NXw3MTMuMDI2fDI4MS4yMDl8Ni45NzM4NQ==)"/>
  <g clip-path="url(#cpNi45NzM4NXw3MTMuMDI2fDI4MS4yMDl8Ni45NzM4NQ==)">
    <text x="381.09" y="21.03" style="font-size: 9.96px; fill: #FFF; font-family: Liberation Sans;" textLength="35.42px" lengthAdjust="spacingAndGlyphs">cellTree</text>
  </g>
  <polyline points="455.46,24.63 494.32,24.63 494.23,24.62 494.58,24.61 494.92,24.54 495.24,24.42 495.54,24.24 495.81,24.02 496.04,23.76 496.23,23.47 496.37,23.15 496.45,22.81 496.48,22.47 496.48,22.47 496.48,12.73 496.48,12.73 496.45,12.39 496.37,12.05 496.23,11.73 496.04,11.44 495.81,11.18 495.54,10.96 495.24,10.78 494.92,10.66 494.58,10.59 494.32,10.57 455.46,10.57 455.72,10.59 455.37,10.58 455.03,10.62 454.69,10.71 454.38,10.86 454.09,11.06 453.84,11.30 453.63,11.58 453.47,11.89 453.36,12.22 453.31,12.56 453.30,12.73 453.30,22.47 453.31,22.29 453.31,22.64 453.36,22.98 453.47,23.31 453.63,23.62 453.84,23.90 454.09,24.14 454.38,24.34 454.69,24.48 455.03,24.58 455.37,24.62 " style="stroke-width: 0.53; stroke: #7FBE00; fill: #7FBE00;" clip-path="url(#cpNi45NzM4NXw3MTMuMDI2fDI4MS4yMDl8Ni45NzM4NQ==)"/>
  <g clip-path="url(#cpNi45NzM4NXw3MTMuMDI2fDI4MS4yMDl8Ni45NzM4NQ==)">
    <text x="456.90" y="21.03" style="font-size: 9.96px; fill: #FFF; font-family: Liberation Sans;" textLength="35.98px" lengthAdjust="spacingAndGlyphs">GPfates</text>
  </g>
  <polyline points="431.18,132.06 462.84,132.06 462.76,132.06 463.10,132.05 463.45,131.98 463.77,131.85 464.07,131.68 464.34,131.46 464.57,131.20 464.76,130.91 464.89,130.59 464.98,130.25 465.00,129.90 465.00,129.90 465.00,120.17 465.00,120.17 464.98,119.82 464.89,119.49 464.76,119.17 464.57,118.87 464.34,118.61 464.07,118.39 463.77,118.22 463.45,118.10 463.10,118.03 462.84,118.01 431.18,118.01 431.44,118.03 431.10,118.01 430.75,118.05 430.42,118.15 430.10,118.30 429.82,118.50 429.57,118.74 429.36,119.02 429.20,119.32 429.09,119.65 429.03,120.00 429.02,120.17 429.02,129.90 429.03,129.73 429.03,130.08 429.09,130.42 429.20,130.75 429.36,131.06 429.57,131.33 429.82,131.58 430.10,131.77 430.42,131.92 430.75,132.02 431.10,132.06 " style="stroke-width: 0.53; stroke: #E0AB00; fill: #E0AB00;" clip-path="url(#cpNi45NzM4NXw3MTMuMDI2fDI4MS4yMDl8Ni45NzM4NQ==)"/>
  <g clip-path="url(#cpNi45NzM4NXw3MTMuMDI2fDI4MS4yMDl8Ni45NzM4NQ==)">
    <text x="432.62" y="128.46" style="font-size: 9.96px; fill: #FFF; font-family: Liberation Sans;" textLength="28.78px" lengthAdjust="spacingAndGlyphs">SLICE</text>
  </g>
  <polyline points="374.24,173.57 426.37,173.57 426.28,173.57 426.63,173.55 426.97,173.48 427.29,173.36 427.60,173.19 427.87,172.97 428.10,172.71 428.28,172.41 428.42,172.09 428.50,171.75 428.53,171.41 428.53,171.41 428.53,161.68 428.53,161.68 428.50,161.33 428.42,160.99 428.28,160.67 428.10,160.38 427.87,160.12 427.60,159.90 427.29,159.73 426.97,159.60 426.63,159.53 426.37,159.52 374.24,159.52 374.50,159.53 374.15,159.52 373.81,159.56 373.48,159.66 373.16,159.81 372.88,160.00 372.62,160.24 372.42,160.52 372.25,160.83 372.14,161.16 372.09,161.50 372.08,161.68 372.08,171.41 372.09,171.23 372.09,171.58 372.14,171.93 372.25,172.26 372.42,172.56 372.62,172.84 372.88,173.08 373.16,173.28 373.48,173.43 373.81,173.52 374.15,173.57 " style="stroke-width: 0.53; stroke: #0278DD; fill: #0278DD;" clip-path="url(#cpNi45NzM4NXw3MTMuMDI2fDI4MS4yMDl8Ni45NzM4NQ==)"/>
  <g clip-path="url(#cpNi45NzM4NXw3MTMuMDI2fDI4MS4yMDl8Ni45NzM4NQ==)">
    <text x="375.68" y="169.97" style="font-size: 9.96px; fill: #FFF; font-family: Liberation Sans;" textLength="49.25px" lengthAdjust="spacingAndGlyphs">WaveCrest</text>
  </g>
  <polyline points="508.65,125.19 597.83,125.19 597.74,125.19 598.09,125.17 598.43,125.10 598.75,124.98 599.05,124.81 599.32,124.59 599.55,124.33 599.74,124.03 599.87,123.71 599.96,123.38 599.99,123.03 599.99,123.03 599.99,113.30 599.99,113.30 599.96,112.95 599.87,112.61 599.74,112.29 599.55,112.00 599.32,111.74 599.05,111.52 598.75,111.35 598.43,111.22 598.09,111.15 597.83,111.14 508.65,111.14 508.91,111.15 508.56,111.14 508.22,111.18 507.88,111.28 507.57,111.43 507.28,111.63 507.03,111.87 506.82,112.14 506.66,112.45 506.55,112.78 506.50,113.12 506.49,113.30 506.49,123.03 506.50,122.86 506.50,123.20 506.55,123.55 506.66,123.88 506.82,124.18 507.03,124.46 507.28,124.70 507.57,124.90 507.88,125.05 508.22,125.15 508.56,125.19 " style="stroke-width: 0.53; stroke: #FF4237; fill: #FF4237;" clip-path="url(#cpNi45NzM4NXw3MTMuMDI2fDI4MS4yMDl8Ni45NzM4NQ==)"/>
  <g clip-path="url(#cpNi45NzM4NXw3MTMuMDI2fDI4MS4yMDl8Ni45NzM4NQ==)">
    <text x="510.09" y="121.59" style="font-size: 9.96px; fill: #FFF; font-family: Liberation Sans;" textLength="86.30px" lengthAdjust="spacingAndGlyphs">WADDINGTON-OT</text>
  </g>
  <polyline points="247.76,233.68 289.93,233.68 289.84,233.67 290.19,233.66 290.53,233.59 290.85,233.47 291.15,233.29 291.42,233.07 291.65,232.81 291.84,232.52 291.98,232.20 292.06,231.86 292.09,231.52 292.09,231.52 292.09,221.78 292.09,221.78 292.06,221.44 291.98,221.10 291.84,220.78 291.65,220.49 291.42,220.23 291.15,220.01 290.85,219.83 290.53,219.71 290.19,219.64 289.93,219.62 247.76,219.62 248.02,219.64 247.67,219.63 247.33,219.67 246.99,219.76 246.68,219.91 246.39,220.11 246.14,220.35 245.93,220.63 245.77,220.94 245.66,221.27 245.61,221.61 245.60,221.78 245.60,231.52 245.61,231.34 245.61,231.69 245.66,232.03 245.77,232.36 245.93,232.67 246.14,232.95 246.39,233.19 246.68,233.39 246.99,233.53 247.33,233.63 247.67,233.67 " style="stroke-width: 0.53; stroke: #0278DD; fill: #0278DD;" clip-path="url(#cpNi45NzM4NXw3MTMuMDI2fDI4MS4yMDl8Ni45NzM4NQ==)"/>
  <g clip-path="url(#cpNi45NzM4NXw3MTMuMDI2fDI4MS4yMDl8Ni45NzM4NQ==)">
    <text x="249.20" y="230.08" style="font-size: 9.96px; fill: #FFF; font-family: Liberation Sans;" textLength="39.29px" lengthAdjust="spacingAndGlyphs">Waterfall</text>
  </g>
  <polyline points="392.07,150.18 446.96,150.18 446.88,150.18 447.22,150.17 447.56,150.10 447.89,149.97 448.19,149.80 448.46,149.58 448.69,149.32 448.88,149.03 449.01,148.71 449.09,148.37 449.12,148.02 449.12,148.02 449.12,138.29 449.12,138.29 449.09,137.94 449.01,137.61 448.88,137.29 448.69,136.99 448.46,136.73 448.19,136.51 447.89,136.34 447.56,136.22 447.22,136.15 446.96,136.13 392.07,136.13 392.33,136.15 391.98,136.13 391.64,136.17 391.30,136.27 390.99,136.42 390.70,136.62 390.45,136.86 390.24,137.14 390.08,137.44 389.97,137.77 389.92,138.12 389.91,138.29 389.91,148.02 389.92,147.85 389.92,148.20 389.97,148.54 390.08,148.87 390.24,149.18 390.45,149.45 390.70,149.70 390.99,149.89 391.30,150.04 391.64,150.14 391.98,150.18 " style="stroke-width: 0.53; stroke: #0278DD; fill: #0278DD;" clip-path="url(#cpNi45NzM4NXw3MTMuMDI2fDI4MS4yMDl8Ni45NzM4NQ==)"/>
  <g clip-path="url(#cpNi45NzM4NXw3MTMuMDI2fDI4MS4yMDl8Ni45NzM4NQ==)">
    <text x="393.51" y="146.58" style="font-size: 9.96px; fill: #FFF; font-family: Liberation Sans;" textLength="52.01px" lengthAdjust="spacingAndGlyphs">SCORPIUS</text>
  </g>
  <polyline points="491.39,24.63 543.51,24.63 543.43,24.62 543.77,24.61 544.11,24.54 544.44,24.42 544.74,24.24 545.01,24.02 545.24,23.76 545.42,23.47 545.56,23.15 545.64,22.81 545.67,22.47 545.67,22.47 545.67,12.73 545.67,12.73 545.64,12.39 545.56,12.05 545.42,11.73 545.24,11.44 545.01,11.18 544.74,10.96 544.44,10.78 544.11,10.66 543.77,10.59 543.51,10.57 491.39,10.57 491.65,10.59 491.31,10.58 490.96,10.62 490.63,10.71 490.31,10.86 490.03,11.06 489.78,11.30 489.57,11.58 489.41,11.89 489.30,12.22 489.24,12.56 489.23,12.73 489.23,22.47 489.24,22.29 489.24,22.64 489.30,22.98 489.41,23.31 489.57,23.62 489.78,23.90 490.03,24.14 490.31,24.34 490.63,24.48 490.96,24.58 491.31,24.62 " style="stroke-width: 0.53; stroke: #0278DD; fill: #0278DD;" clip-path="url(#cpNi45NzM4NXw3MTMuMDI2fDI4MS4yMDl8Ni45NzM4NQ==)"/>
  <g clip-path="url(#cpNi45NzM4NXw3MTMuMDI2fDI4MS4yMDl8Ni45NzM4NQ==)">
    <text x="492.83" y="21.03" style="font-size: 9.96px; fill: #FFF; font-family: Liberation Sans;" textLength="49.24px" lengthAdjust="spacingAndGlyphs">MATCHER</text>
  </g>
  <polyline points="497.35,131.45 534.54,131.45 534.45,131.45 534.80,131.44 535.14,131.37 535.46,131.24 535.77,131.07 536.04,130.85 536.27,130.59 536.45,130.30 536.59,129.98 536.67,129.64 536.70,129.29 536.70,129.29 536.70,119.56 536.70,119.56 536.67,119.21 536.59,118.88 536.45,118.56 536.27,118.26 536.04,118.00 535.77,117.78 535.46,117.61 535.14,117.49 534.80,117.42 534.54,117.40 497.35,117.40 497.61,117.42 497.27,117.40 496.92,117.44 496.59,117.54 496.27,117.69 495.99,117.89 495.74,118.13 495.53,118.41 495.37,118.71 495.26,119.04 495.20,119.39 495.19,119.56 495.19,129.29 495.20,129.12 495.20,129.47 495.26,129.81 495.37,130.14 495.53,130.45 495.74,130.72 495.99,130.96 496.27,131.16 496.59,131.31 496.92,131.41 497.27,131.45 " style="stroke-width: 0.53; stroke: #E0AB00; fill: #E0AB00;" clip-path="url(#cpNi45NzM4NXw3MTMuMDI2fDI4MS4yMDl8Ni45NzM4NQ==)"/>
  <g clip-path="url(#cpNi45NzM4NXw3MTMuMDI2fDI4MS4yMDl8Ni45NzM4NQ==)">
    <text x="498.79" y="127.85" style="font-size: 9.96px; fill: #FFF; font-family: Liberation Sans;" textLength="34.31px" lengthAdjust="spacingAndGlyphs">FORKS</text>
  </g>
  <polyline points="480.73,251.90 513.49,251.90 513.40,251.89 513.75,251.88 514.09,251.81 514.42,251.69 514.72,251.51 514.99,251.29 515.22,251.03 515.40,250.74 515.54,250.42 515.62,250.08 515.65,249.74 515.65,249.74 515.65,240.00 515.65,240.00 515.62,239.66 515.54,239.32 515.40,239.00 515.22,238.71 514.99,238.45 514.72,238.23 514.42,238.05 514.09,237.93 513.75,237.86 513.49,237.84 480.73,237.84 480.99,237.86 480.65,237.85 480.30,237.89 479.97,237.98 479.65,238.13 479.37,238.33 479.12,238.57 478.91,238.85 478.75,239.16 478.64,239.49 478.58,239.83 478.57,240.00 478.57,249.74 478.58,249.56 478.58,249.91 478.64,250.25 478.75,250.58 478.91,250.89 479.12,251.17 479.37,251.41 479.65,251.61 479.97,251.75 480.30,251.85 480.65,251.89 " style="stroke-width: 0.53; stroke: #0278DD; fill: #0278DD;" clip-path="url(#cpNi45NzM4NXw3MTMuMDI2fDI4MS4yMDl8Ni45NzM4NQ==)"/>
  <g clip-path="url(#cpNi45NzM4NXw3MTMuMDI2fDI4MS4yMDl8Ni45NzM4NQ==)">
    <text x="482.17" y="248.30" style="font-size: 9.96px; fill: #FFF; font-family: Liberation Sans;" textLength="29.88px" lengthAdjust="spacingAndGlyphs">scTDA</text>
  </g>
  <polyline points="316.96,273.21 339.76,273.21 339.67,273.21 340.02,273.19 340.36,273.12 340.68,273.00 340.98,272.83 341.25,272.61 341.48,272.35 341.67,272.05 341.81,271.73 341.89,271.39 341.92,271.05 341.92,271.05 341.92,261.32 341.92,261.32 341.89,260.97 341.81,260.63 341.67,260.31 341.48,260.02 341.25,259.76 340.98,259.54 340.68,259.37 340.36,259.24 340.02,259.17 339.76,259.16 316.96,259.16 317.22,259.17 316.87,259.16 316.53,259.20 316.19,259.30 315.88,259.45 315.59,259.64 315.34,259.88 315.13,260.16 314.97,260.47 314.86,260.80 314.81,261.14 314.80,261.32 314.80,271.05 314.81,270.87 314.81,271.22 314.86,271.57 314.97,271.89 315.13,272.20 315.34,272.48 315.59,272.72 315.88,272.92 316.19,273.07 316.53,273.16 316.87,273.21 " style="stroke-width: 0.53; stroke: #3AD1D1; fill: #3AD1D1;" clip-path="url(#cpNi45NzM4NXw3MTMuMDI2fDI4MS4yMDl8Ni45NzM4NQ==)"/>
  <g clip-path="url(#cpNi45NzM4NXw3MTMuMDI2fDI4MS4yMDl8Ni45NzM4NQ==)">
    <text x="318.40" y="269.61" style="font-size: 9.96px; fill: #FFF; font-family: Liberation Sans;" textLength="19.92px" lengthAdjust="spacingAndGlyphs">DPT</text>
  </g>
  <polyline points="583.15,214.23 622.01,214.23 621.93,214.23 622.27,214.21 622.62,214.15 622.94,214.02 623.24,213.85 623.51,213.63 623.74,213.37 623.93,213.07 624.06,212.75 624.15,212.42 624.17,212.07 624.17,212.07 624.17,202.34 624.17,202.34 624.15,201.99 624.06,201.66 623.93,201.34 623.74,201.04 623.51,200.78 623.24,200.56 622.94,200.39 622.62,200.26 622.27,200.19 622.01,200.18 583.15,200.18 583.41,200.19 583.06,200.18 582.72,200.22 582.39,200.32 582.07,200.47 581.79,200.67 581.53,200.91 581.33,201.18 581.16,201.49 581.05,201.82 581.00,202.17 580.99,202.34 580.99,212.07 581.00,211.90 581.00,212.24 581.05,212.59 581.16,212.92 581.33,213.22 581.53,213.50 581.79,213.74 582.07,213.94 582.39,214.09 582.72,214.19 583.06,214.23 " style="stroke-width: 0.53; stroke: #E0AB00; fill: #E0AB00;" clip-path="url(#cpNi45NzM4NXw3MTMuMDI2fDI4MS4yMDl8Ni45NzM4NQ==)"/>
  <g clip-path="url(#cpNi45NzM4NXw3MTMuMDI2fDI4MS4yMDl8Ni45NzM4NQ==)">
    <text x="584.59" y="210.63" style="font-size: 9.96px; fill: #FFF; font-family: Liberation Sans;" textLength="35.98px" lengthAdjust="spacingAndGlyphs">scEpath</text>
  </g>
  <polyline points="495.89,48.03 548.05,48.03 547.97,48.03 548.31,48.01 548.65,47.94 548.98,47.82 549.28,47.65 549.55,47.43 549.78,47.17 549.97,46.87 550.10,46.55 550.19,46.21 550.21,45.87 550.21,45.87 550.21,36.14 550.21,36.14 550.19,35.79 550.10,35.45 549.97,35.13 549.78,34.84 549.55,34.58 549.28,34.36 548.98,34.18 548.65,34.06 548.31,33.99 548.05,33.98 495.89,33.98 496.15,33.99 495.81,33.98 495.46,34.02 495.13,34.12 494.81,34.27 494.53,34.46 494.28,34.70 494.07,34.98 493.91,35.29 493.80,35.62 493.74,35.96 493.73,36.14 493.73,45.87 493.74,45.69 493.74,46.04 493.80,46.38 493.91,46.71 494.07,47.02 494.28,47.30 494.53,47.54 494.81,47.74 495.13,47.89 495.46,47.98 495.81,48.03 " style="stroke-width: 0.53; stroke: #0278DD; fill: #0278DD;" clip-path="url(#cpNi45NzM4NXw3MTMuMDI2fDI4MS4yMDl8Ni45NzM4NQ==)"/>
  <g clip-path="url(#cpNi45NzM4NXw3MTMuMDI2fDI4MS4yMDl8Ni45NzM4NQ==)">
    <text x="497.33" y="44.43" style="font-size: 9.96px; fill: #FFF; font-family: Liberation Sans;" textLength="49.28px" lengthAdjust="spacingAndGlyphs">PhenoPath</text>
  </g>
  <polyline points="345.83,110.19 382.46,110.19 382.37,110.19 382.72,110.18 383.06,110.11 383.38,109.98 383.69,109.81 383.96,109.59 384.19,109.33 384.37,109.04 384.51,108.72 384.59,108.38 384.62,108.03 384.62,108.03 384.62,98.30 384.62,98.30 384.59,97.95 384.51,97.62 384.37,97.30 384.19,97.00 383.96,96.74 383.69,96.52 383.38,96.35 383.06,96.23 382.72,96.16 382.46,96.14 345.83,96.14 346.09,96.16 345.74,96.14 345.40,96.18 345.06,96.28 344.75,96.43 344.46,96.63 344.21,96.87 344.00,97.15 343.84,97.45 343.73,97.78 343.68,98.13 343.67,98.30 343.67,108.03 343.68,107.86 343.68,108.21 343.73,108.55 343.84,108.88 344.00,109.19 344.21,109.46 344.46,109.71 344.75,109.90 345.06,110.05 345.40,110.15 345.74,110.19 " style="stroke-width: 0.53; stroke: #E0AB00; fill: #E0AB00;" clip-path="url(#cpNi45NzM4NXw3MTMuMDI2fDI4MS4yMDl8Ni45NzM4NQ==)"/>
  <g clip-path="url(#cpNi45NzM4NXw3MTMuMDI2fDI4MS4yMDl8Ni45NzM4NQ==)">
    <text x="347.27" y="106.59" style="font-size: 9.96px; fill: #FFF; font-family: Liberation Sans;" textLength="33.75px" lengthAdjust="spacingAndGlyphs">TSCAN</text>
  </g>
  <polyline points="502.58,71.02 545.88,71.02 545.80,71.02 546.14,71.01 546.49,70.94 546.81,70.82 547.11,70.64 547.38,70.42 547.61,70.16 547.80,69.87 547.93,69.55 548.02,69.21 548.04,68.86 548.04,68.86 548.04,59.13 548.04,59.13 548.02,58.79 547.93,58.45 547.80,58.13 547.61,57.84 547.38,57.58 547.11,57.36 546.81,57.18 546.49,57.06 546.14,56.99 545.88,56.97 502.58,56.97 502.84,56.99 502.50,56.98 502.15,57.02 501.82,57.11 501.50,57.26 501.22,57.46 500.97,57.70 500.76,57.98 500.59,58.29 500.48,58.62 500.43,58.96 500.42,59.13 500.42,68.86 500.43,68.69 500.43,69.04 500.48,69.38 500.59,69.71 500.76,70.02 500.97,70.30 501.22,70.54 501.50,70.74 501.82,70.88 502.15,70.98 502.50,71.02 " style="stroke-width: 0.53; stroke: #0278DD; fill: #0278DD;" clip-path="url(#cpNi45NzM4NXw3MTMuMDI2fDI4MS4yMDl8Ni45NzM4NQ==)"/>
  <g clip-path="url(#cpNi45NzM4NXw3MTMuMDI2fDI4MS4yMDl8Ni45NzM4NQ==)">
    <text x="504.02" y="67.42" style="font-size: 9.96px; fill: #FFF; font-family: Liberation Sans;" textLength="40.42px" lengthAdjust="spacingAndGlyphs">HopLand</text>
  </g>
  <polyline points="243.41,255.23 303.31,255.23 303.23,255.23 303.58,255.21 303.92,255.14 304.24,255.02 304.54,254.84 304.81,254.62 305.04,254.36 305.23,254.07 305.36,253.75 305.45,253.41 305.47,253.07 305.47,253.07 305.47,243.34 305.47,243.34 305.45,242.99 305.36,242.65 305.23,242.33 305.04,242.04 304.81,241.78 304.54,241.56 304.24,241.38 303.92,241.26 303.58,241.19 303.31,241.18 243.41,241.18 243.67,241.19 243.32,241.18 242.98,241.22 242.65,241.32 242.33,241.47 242.05,241.66 241.79,241.90 241.59,242.18 241.42,242.49 241.31,242.82 241.26,243.16 241.25,243.34 241.25,253.07 241.26,252.89 241.26,253.24 241.31,253.58 241.42,253.91 241.59,254.22 241.79,254.50 242.05,254.74 242.33,254.94 242.65,255.09 242.98,255.18 243.32,255.23 " style="stroke-width: 0.53; stroke: #0278DD; fill: #0278DD;" clip-path="url(#cpNi45NzM4NXw3MTMuMDI2fDI4MS4yMDl8Ni45NzM4NQ==)"/>
  <g clip-path="url(#cpNi45NzM4NXw3MTMuMDI2fDI4MS4yMDl8Ni45NzM4NQ==)">
    <text x="244.85" y="251.63" style="font-size: 9.96px; fill: #FFF; font-family: Liberation Sans;" textLength="57.02px" lengthAdjust="spacingAndGlyphs">gpseudotime</text>
  </g>
  <polyline points="447.92,201.92 495.08,201.92 494.99,201.92 495.34,201.91 495.68,201.84 496.00,201.72 496.30,201.54 496.57,201.32 496.80,201.06 496.99,200.77 497.13,200.45 497.21,200.11 497.24,199.76 497.24,199.76 497.24,190.03 497.24,190.03 497.21,189.69 497.13,189.35 496.99,189.03 496.80,188.74 496.57,188.48 496.30,188.26 496.00,188.08 495.68,187.96 495.34,187.89 495.08,187.87 447.92,187.87 448.18,187.89 447.83,187.88 447.49,187.92 447.15,188.01 446.84,188.16 446.55,188.36 446.30,188.60 446.09,188.88 445.93,189.19 445.82,189.52 445.77,189.86 445.76,190.03 445.76,199.76 445.77,199.59 445.77,199.94 445.82,200.28 445.93,200.61 446.09,200.92 446.30,201.20 446.55,201.44 446.84,201.64 447.15,201.78 447.49,201.88 447.83,201.92 " style="stroke-width: 0.53; stroke: #E0AB00; fill: #E0AB00;" clip-path="url(#cpNi45NzM4NXw3MTMuMDI2fDI4MS4yMDl8Ni45NzM4NQ==)"/>
  <g clip-path="url(#cpNi45NzM4NXw3MTMuMDI2fDI4MS4yMDl8Ni45NzM4NQ==)">
    <text x="449.36" y="198.32" style="font-size: 9.96px; fill: #FFF; font-family: Liberation Sans;" textLength="44.28px" lengthAdjust="spacingAndGlyphs">Granatum</text>
  </g>
  <polyline points="471.50,67.21 513.68,67.21 513.60,67.20 513.94,67.19 514.28,67.12 514.61,67.00 514.91,66.82 515.18,66.60 515.41,66.34 515.60,66.05 515.73,65.73 515.82,65.39 515.84,65.05 515.84,65.05 515.84,55.31 515.84,55.31 515.82,54.97 515.73,54.63 515.60,54.31 515.41,54.02 515.18,53.76 514.91,53.54 514.61,53.36 514.28,53.24 513.94,53.17 513.68,53.15 471.50,53.15 471.76,53.17 471.41,53.16 471.07,53.20 470.73,53.29 470.42,53.44 470.13,53.64 469.88,53.88 469.67,54.16 469.51,54.47 469.40,54.80 469.35,55.14 469.34,55.31 469.34,65.05 469.35,64.87 469.35,65.22 469.40,65.56 469.51,65.89 469.67,66.20 469.88,66.48 470.13,66.72 470.42,66.92 470.73,67.06 471.07,67.16 471.41,67.20 " style="stroke-width: 0.53; stroke: #E0AB00; fill: #E0AB00;" clip-path="url(#cpNi45NzM4NXw3MTMuMDI2fDI4MS4yMDl8Ni45NzM4NQ==)"/>
  <g clip-path="url(#cpNi45NzM4NXw3MTMuMDI2fDI4MS4yMDl8Ni45NzM4NQ==)">
    <text x="472.94" y="63.61" style="font-size: 9.96px; fill: #FFF; font-family: Liberation Sans;" textLength="39.30px" lengthAdjust="spacingAndGlyphs">slingshot</text>
  </g>
  <polyline points="446.71,173.87 495.53,173.87 495.45,173.86 495.79,173.85 496.14,173.78 496.46,173.66 496.76,173.48 497.03,173.26 497.26,173.00 497.45,172.71 497.58,172.39 497.67,172.05 497.69,171.71 497.69,171.71 497.69,161.97 497.69,161.97 497.67,161.63 497.58,161.29 497.45,160.97 497.26,160.68 497.03,160.42 496.76,160.20 496.46,160.02 496.14,159.90 495.79,159.83 495.53,159.81 446.71,159.81 446.97,159.83 446.62,159.82 446.28,159.86 445.94,159.95 445.63,160.10 445.34,160.30 445.09,160.54 444.88,160.82 444.72,161.13 444.61,161.46 444.56,161.80 444.55,161.97 444.55,171.71 444.56,171.53 444.56,171.88 444.61,172.22 444.72,172.55 444.88,172.86 445.09,173.14 445.34,173.38 445.63,173.58 445.94,173.73 446.28,173.82 446.62,173.86 " style="stroke-width: 0.53; stroke: #E0AB00; fill: #E0AB00;" clip-path="url(#cpNi45NzM4NXw3MTMuMDI2fDI4MS4yMDl8Ni45NzM4NQ==)"/>
  <g clip-path="url(#cpNi45NzM4NXw3MTMuMDI2fDI4MS4yMDl8Ni45NzM4NQ==)">
    <text x="448.15" y="170.27" style="font-size: 9.96px; fill: #FFF; font-family: Liberation Sans;" textLength="45.95px" lengthAdjust="spacingAndGlyphs">Monocle 2</text>
  </g>
  <polyline points="366.95,235.23 397.50,235.23 397.42,235.23 397.76,235.22 398.10,235.15 398.43,235.02 398.73,234.85 399.00,234.63 399.23,234.37 399.42,234.08 399.55,233.76 399.64,233.42 399.66,233.07 399.66,233.07 399.66,223.34 399.66,223.34 399.64,222.99 399.55,222.66 399.42,222.34 399.23,222.04 399.00,221.78 398.73,221.56 398.43,221.39 398.10,221.27 397.76,221.20 397.50,221.18 366.95,221.18 367.21,221.20 366.86,221.18 366.51,221.22 366.18,221.32 365.87,221.47 365.58,221.67 365.33,221.91 365.12,222.19 364.96,222.49 364.85,222.82 364.79,223.17 364.79,223.34 364.79,233.07 364.79,232.90 364.79,233.25 364.85,233.59 364.96,233.92 365.12,234.23 365.33,234.50 365.58,234.75 365.87,234.94 366.18,235.09 366.51,235.19 366.86,235.23 " style="stroke-width: 0.53; stroke: #E0AB00; fill: #E0AB00;" clip-path="url(#cpNi45NzM4NXw3MTMuMDI2fDI4MS4yMDl8Ni45NzM4NQ==)"/>
  <g clip-path="url(#cpNi45NzM4NXw3MTMuMDI2fDI4MS4yMDl8Ni45NzM4NQ==)">
    <text x="368.39" y="231.63" style="font-size: 9.96px; fill: #FFF; font-family: Liberation Sans;" textLength="27.68px" lengthAdjust="spacingAndGlyphs">Mpath</text>
  </g>
  <polyline points="523.75,170.91 563.14,170.91 563.06,170.91 563.40,170.89 563.74,170.82 564.07,170.70 564.37,170.53 564.64,170.31 564.87,170.05 565.06,169.75 565.19,169.43 565.27,169.10 565.30,168.75 565.30,168.75 565.30,159.02 565.30,159.02 565.27,158.67 565.19,158.33 565.06,158.01 564.87,157.72 564.64,157.46 564.37,157.24 564.07,157.07 563.74,156.94 563.40,156.87 563.14,156.86 523.75,156.86 524.01,156.87 523.66,156.86 523.31,156.90 522.98,157.00 522.67,157.15 522.38,157.34 522.13,157.59 521.92,157.86 521.76,158.17 521.65,158.50 521.59,158.84 521.59,159.02 521.59,168.75 521.59,168.57 521.59,168.92 521.65,169.27 521.76,169.60 521.92,169.90 522.13,170.18 522.38,170.42 522.67,170.62 522.98,170.77 523.31,170.87 523.66,170.91 " style="stroke-width: 0.53; stroke: #FF8821; fill: #FF8821;" clip-path="url(#cpNi45NzM4NXw3MTMuMDI2fDI4MS4yMDl8Ni45NzM4NQ==)"/>
  <g clip-path="url(#cpNi45NzM4NXw3MTMuMDI2fDI4MS4yMDl8Ni45NzM4NQ==)">
    <text x="525.19" y="167.31" style="font-size: 9.96px; fill: #FFF; font-family: Liberation Sans;" textLength="36.52px" lengthAdjust="spacingAndGlyphs">B-RGPs</text>
  </g>
  <polyline points="157.21,273.60 194.40,273.60 194.31,273.60 194.66,273.59 195.00,273.52 195.32,273.39 195.62,273.22 195.89,273.00 196.12,272.74 196.31,272.45 196.45,272.13 196.53,271.79 196.56,271.44 196.56,271.44 196.56,261.71 196.56,261.71 196.53,261.37 196.45,261.03 196.31,260.71 196.12,260.41 195.89,260.15 195.62,259.93 195.32,259.76 195.00,259.64 194.66,259.57 194.40,259.55 157.21,259.55 157.47,259.57 157.12,259.55 156.78,259.60 156.44,259.69 156.13,259.84 155.84,260.04 155.59,260.28 155.38,260.56 155.22,260.86 155.11,261.19 155.05,261.54 155.05,261.71 155.05,271.44 155.05,271.27 155.05,271.62 155.11,271.96 155.22,272.29 155.38,272.60 155.59,272.88 155.84,273.12 156.13,273.31 156.44,273.46 156.78,273.56 157.12,273.60 " style="stroke-width: 0.53; stroke: #E0AB00; fill: #E0AB00;" clip-path="url(#cpNi45NzM4NXw3MTMuMDI2fDI4MS4yMDl8Ni45NzM4NQ==)"/>
  <g clip-path="url(#cpNi45NzM4NXw3MTMuMDI2fDI4MS4yMDl8Ni45NzM4NQ==)">
    <text x="158.65" y="270.00" style="font-size: 9.96px; fill: #FFF; font-family: Liberation Sans;" textLength="34.31px" lengthAdjust="spacingAndGlyphs">SCUBA</text>
  </g>
  <polyline points="582.63,168.68 624.80,168.68 624.71,168.68 625.06,168.67 625.40,168.60 625.72,168.47 626.02,168.30 626.29,168.08 626.52,167.82 626.71,167.53 626.85,167.21 626.93,166.87 626.96,166.52 626.96,166.52 626.96,156.79 626.96,156.79 626.93,156.44 626.85,156.11 626.71,155.79 626.52,155.49 626.29,155.23 626.02,155.01 625.72,154.84 625.40,154.72 625.06,154.65 624.80,154.63 582.63,154.63 582.89,154.65 582.54,154.63 582.20,154.67 581.86,154.77 581.55,154.92 581.26,155.12 581.01,155.36 580.80,155.64 580.64,155.94 580.53,156.27 580.48,156.62 580.47,156.79 580.47,166.52 580.48,166.35 580.48,166.70 580.53,167.04 580.64,167.37 580.80,167.68 581.01,167.95 581.26,168.19 581.55,168.39 581.86,168.54 582.20,168.64 582.54,168.68 " style="stroke-width: 0.53; stroke: #E0AB00; fill: #E0AB00;" clip-path="url(#cpNi45NzM4NXw3MTMuMDI2fDI4MS4yMDl8Ni45NzM4NQ==)"/>
  <g clip-path="url(#cpNi45NzM4NXw3MTMuMDI2fDI4MS4yMDl8Ni45NzM4NQ==)">
    <text x="584.07" y="165.08" style="font-size: 9.96px; fill: #FFF; font-family: Liberation Sans;" textLength="39.29px" lengthAdjust="spacingAndGlyphs">MERLoT</text>
  </g>
  <polyline points="467.62,87.61 507.02,87.61 506.93,87.60 507.28,87.59 507.62,87.52 507.94,87.40 508.24,87.22 508.51,87.00 508.74,86.74 508.93,86.45 509.07,86.13 509.15,85.79 509.18,85.45 509.18,85.45 509.18,75.71 509.18,75.71 509.15,75.37 509.07,75.03 508.93,74.71 508.74,74.42 508.51,74.16 508.24,73.94 507.94,73.76 507.62,73.64 507.28,73.57 507.02,73.55 467.62,73.55 467.88,73.57 467.53,73.56 467.19,73.60 466.85,73.70 466.54,73.84 466.25,74.04 466.00,74.28 465.79,74.56 465.63,74.87 465.52,75.20 465.47,75.54 465.46,75.71 465.46,85.45 465.47,85.27 465.47,85.62 465.52,85.96 465.63,86.29 465.79,86.60 466.00,86.88 466.25,87.12 466.54,87.32 466.85,87.47 467.19,87.56 467.53,87.60 " style="stroke-width: 0.53; stroke: #E0AB00; fill: #E0AB00;" clip-path="url(#cpNi45NzM4NXw3MTMuMDI2fDI4MS4yMDl8Ni45NzM4NQ==)"/>
  <g clip-path="url(#cpNi45NzM4NXw3MTMuMDI2fDI4MS4yMDl8Ni45NzM4NQ==)">
    <text x="469.06" y="84.01" style="font-size: 9.96px; fill: #FFF; font-family: Liberation Sans;" textLength="36.52px" lengthAdjust="spacingAndGlyphs">SOMSC</text>
  </g>
  <polyline points="464.76,155.83 500.84,155.83 500.75,155.83 501.10,155.82 501.44,155.75 501.76,155.62 502.07,155.45 502.34,155.23 502.57,154.97 502.75,154.68 502.89,154.36 502.97,154.02 503.00,153.67 503.00,153.67 503.00,143.94 503.00,143.94 502.97,143.60 502.89,143.26 502.75,142.94 502.57,142.64 502.34,142.38 502.07,142.16 501.76,141.99 501.44,141.87 501.10,141.80 500.84,141.78 464.76,141.78 465.02,141.80 464.67,141.78 464.33,141.83 463.99,141.92 463.68,142.07 463.39,142.27 463.14,142.51 462.93,142.79 462.77,143.10 462.66,143.42 462.60,143.77 462.60,143.94 462.60,153.67 462.60,153.50 462.60,153.85 462.66,154.19 462.77,154.52 462.93,154.83 463.14,155.11 463.39,155.35 463.68,155.54 463.99,155.69 464.33,155.79 464.67,155.83 " style="stroke-width: 0.53; stroke: #E0AB00; fill: #E0AB00;" clip-path="url(#cpNi45NzM4NXw3MTMuMDI2fDI4MS4yMDl8Ni45NzM4NQ==)"/>
  <g clip-path="url(#cpNi45NzM4NXw3MTMuMDI2fDI4MS4yMDl8Ni45NzM4NQ==)">
    <text x="466.20" y="152.23" style="font-size: 9.96px; fill: #FFF; font-family: Liberation Sans;" textLength="33.20px" lengthAdjust="spacingAndGlyphs">PHATE</text>
  </g>
  <polyline points="419.44,248.92 471.58,248.92 471.49,248.91 471.84,248.90 472.18,248.83 472.50,248.71 472.80,248.53 473.07,248.31 473.30,248.05 473.49,247.76 473.63,247.44 473.71,247.10 473.74,246.76 473.74,246.76 473.74,237.03 473.74,237.03 473.71,236.68 473.63,236.34 473.49,236.02 473.30,235.73 473.07,235.47 472.80,235.25 472.50,235.07 472.18,234.95 471.84,234.88 471.58,234.87 419.44,234.87 419.70,234.88 419.35,234.87 419.00,234.91 418.67,235.01 418.36,235.15 418.07,235.35 417.82,235.59 417.61,235.87 417.45,236.18 417.34,236.51 417.28,236.85 417.28,237.03 417.28,246.76 417.28,246.58 417.28,246.93 417.34,247.27 417.45,247.60 417.61,247.91 417.82,248.19 418.07,248.43 418.36,248.63 418.67,248.78 419.00,248.87 419.35,248.91 " style="stroke-width: 0.53; stroke: #E0AB00; fill: #E0AB00;" clip-path="url(#cpNi45NzM4NXw3MTMuMDI2fDI4MS4yMDl8Ni45NzM4NQ==)"/>
  <g clip-path="url(#cpNi45NzM4NXw3MTMuMDI2fDI4MS4yMDl8Ni45NzM4NQ==)">
    <text x="420.88" y="245.32" style="font-size: 9.96px; fill: #FFF; font-family: Liberation Sans;" textLength="49.26px" lengthAdjust="spacingAndGlyphs">k-branches</text>
  </g>
  <polyline points="360.79,191.87 396.87,191.87 396.79,191.87 397.14,191.85 397.48,191.78 397.80,191.66 398.10,191.49 398.37,191.27 398.60,191.01 398.79,190.71 398.92,190.39 399.01,190.05 399.03,189.71 399.03,189.71 399.03,179.98 399.03,179.98 399.01,179.63 398.92,179.29 398.79,178.97 398.60,178.68 398.37,178.42 398.10,178.20 397.80,178.03 397.48,177.90 397.14,177.83 396.87,177.82 360.79,177.82 361.05,177.83 360.71,177.82 360.36,177.86 360.03,177.96 359.71,178.11 359.43,178.30 359.18,178.54 358.97,178.82 358.81,179.13 358.70,179.46 358.64,179.80 358.63,179.98 358.63,189.71 358.64,189.53 358.64,189.88 358.70,190.22 358.81,190.55 358.97,190.86 359.18,191.14 359.43,191.38 359.71,191.58 360.03,191.73 360.36,191.82 360.71,191.87 " style="stroke-width: 0.53; stroke: #E0AB00; fill: #E0AB00;" clip-path="url(#cpNi45NzM4NXw3MTMuMDI2fDI4MS4yMDl8Ni45NzM4NQ==)"/>
  <g clip-path="url(#cpNi45NzM4NXw3MTMuMDI2fDI4MS4yMDl8Ni45NzM4NQ==)">
    <text x="362.23" y="188.27" style="font-size: 9.96px; fill: #FFF; font-family: Liberation Sans;" textLength="33.20px" lengthAdjust="spacingAndGlyphs">StemID</text>
  </g>
  <polyline points="409.86,226.54 446.49,226.54 446.41,226.54 446.76,226.52 447.10,226.45 447.42,226.33 447.72,226.15 447.99,225.93 448.22,225.67 448.41,225.38 448.54,225.06 448.63,224.72 448.65,224.38 448.65,224.38 448.65,214.65 448.65,214.65 448.63,214.30 448.54,213.96 448.41,213.64 448.22,213.35 447.99,213.09 447.72,212.87 447.42,212.69 447.10,212.57 446.76,212.50 446.49,212.49 409.86,212.49 410.12,212.50 409.78,212.49 409.43,212.53 409.10,212.63 408.78,212.77 408.50,212.97 408.25,213.21 408.04,213.49 407.88,213.80 407.77,214.13 407.71,214.47 407.70,214.65 407.70,224.38 407.71,224.20 407.71,224.55 407.77,224.89 407.88,225.22 408.04,225.53 408.25,225.81 408.50,226.05 408.78,226.25 409.10,226.40 409.43,226.49 409.78,226.54 " style="stroke-width: 0.53; stroke: #0278DD; fill: #0278DD;" clip-path="url(#cpNi45NzM4NXw3MTMuMDI2fDI4MS4yMDl8Ni45NzM4NQ==)"/>
  <g clip-path="url(#cpNi45NzM4NXw3MTMuMDI2fDI4MS4yMDl8Ni45NzM4NQ==)">
    <text x="411.30" y="222.94" style="font-size: 9.96px; fill: #FFF; font-family: Liberation Sans;" textLength="33.75px" lengthAdjust="spacingAndGlyphs">SCENT</text>
  </g>
  <polyline points="467.46,221.15 491.36,221.15 491.27,221.15 491.62,221.14 491.96,221.07 492.28,220.94 492.59,220.77 492.85,220.55 493.09,220.29 493.27,220.00 493.41,219.68 493.49,219.34 493.52,218.99 493.52,218.99 493.52,209.26 493.52,209.26 493.49,208.91 493.41,208.58 493.27,208.26 493.09,207.96 492.85,207.70 492.59,207.48 492.28,207.31 491.96,207.19 491.62,207.12 491.36,207.10 467.46,207.10 467.72,207.12 467.37,207.10 467.03,207.14 466.69,207.24 466.38,207.39 466.09,207.59 465.84,207.83 465.63,208.11 465.47,208.41 465.36,208.74 465.30,209.09 465.30,209.26 465.30,218.99 465.30,218.82 465.30,219.17 465.36,219.51 465.47,219.84 465.63,220.15 465.84,220.42 466.09,220.66 466.38,220.86 466.69,221.01 467.03,221.11 467.37,221.15 " style="stroke-width: 0.53; stroke: #7FBE00; fill: #7FBE00;" clip-path="url(#cpNi45NzM4NXw3MTMuMDI2fDI4MS4yMDl8Ni45NzM4NQ==)"/>
  <g clip-path="url(#cpNi45NzM4NXw3MTMuMDI2fDI4MS4yMDl8Ni45NzM4NQ==)">
    <text x="468.90" y="217.55" style="font-size: 9.96px; fill: #FFF; font-family: Liberation Sans;" textLength="21.02px" lengthAdjust="spacingAndGlyphs">MFA</text>
  </g>
  <polyline points="354.02,129.86 400.64,129.86 400.55,129.86 400.90,129.85 401.24,129.78 401.56,129.66 401.86,129.48 402.13,129.26 402.36,129.00 402.55,128.71 402.69,128.39 402.77,128.05 402.80,127.70 402.80,127.70 402.80,117.97 402.80,117.97 402.77,117.63 402.69,117.29 402.55,116.97 402.36,116.68 402.13,116.42 401.86,116.20 401.56,116.02 401.24,115.90 400.90,115.83 400.64,115.81 354.02,115.81 354.28,115.83 353.93,115.82 353.59,115.86 353.25,115.95 352.94,116.10 352.65,116.30 352.40,116.54 352.19,116.82 352.03,117.13 351.92,117.46 351.87,117.80 351.86,117.97 351.86,127.70 351.87,127.53 351.87,127.88 351.92,128.22 352.03,128.55 352.19,128.86 352.40,129.14 352.65,129.38 352.94,129.58 353.25,129.72 353.59,129.82 353.93,129.86 " style="stroke-width: 0.53; stroke: #0278DD; fill: #0278DD;" clip-path="url(#cpNi45NzM4NXw3MTMuMDI2fDI4MS4yMDl8Ni45NzM4NQ==)"/>
  <g clip-path="url(#cpNi45NzM4NXw3MTMuMDI2fDI4MS4yMDl8Ni45NzM4NQ==)">
    <text x="355.46" y="126.26" style="font-size: 9.96px; fill: #FFF; font-family: Liberation Sans;" textLength="43.74px" lengthAdjust="spacingAndGlyphs">DeLorean</text>
  </g>
  <polyline points="554.62,192.13 602.33,192.13 602.24,192.13 602.59,192.11 602.93,192.04 603.26,191.92 603.56,191.75 603.83,191.53 604.06,191.27 604.24,190.97 604.38,190.65 604.46,190.31 604.49,189.97 604.49,189.97 604.49,180.24 604.49,180.24 604.46,179.89 604.38,179.55 604.24,179.23 604.06,178.94 603.83,178.68 603.56,178.46 603.26,178.29 602.93,178.16 602.59,178.09 602.33,178.08 554.62,178.08 554.88,178.09 554.53,178.08 554.19,178.12 553.86,178.22 553.54,178.37 553.26,178.56 553.00,178.80 552.80,179.08 552.63,179.39 552.52,179.72 552.47,180.06 552.46,180.24 552.46,189.97 552.47,189.79 552.47,190.14 552.52,190.49 552.63,190.82 552.80,191.12 553.00,191.40 553.26,191.64 553.54,191.84 553.86,191.99 554.19,192.08 554.53,192.13 " style="stroke-width: 0.53; stroke: #7FBE00; fill: #7FBE00;" clip-path="url(#cpNi45NzM4NXw3MTMuMDI2fDI4MS4yMDl8Ni45NzM4NQ==)"/>
  <g clip-path="url(#cpNi45NzM4NXw3MTMuMDI2fDI4MS4yMDl8Ni45NzM4NQ==)">
    <text x="556.06" y="188.53" style="font-size: 9.96px; fill: #FFF; font-family: Liberation Sans;" textLength="44.83px" lengthAdjust="spacingAndGlyphs">GrandPrix</text>
  </g>
  <polyline points="331.91,253.96 370.76,253.96 370.68,253.96 371.02,253.95 371.36,253.88 371.69,253.75 371.99,253.58 372.26,253.36 372.49,253.10 372.68,252.81 372.81,252.49 372.89,252.15 372.92,251.80 372.92,251.80 372.92,242.07 372.92,242.07 372.89,241.73 372.81,241.39 372.68,241.07 372.49,240.77 372.26,240.51 371.99,240.29 371.69,240.12 371.36,240.00 371.02,239.93 370.76,239.91 331.91,239.91 332.17,239.93 331.82,239.91 331.48,239.96 331.14,240.05 330.83,240.20 330.54,240.40 330.29,240.64 330.08,240.92 329.92,241.23 329.81,241.56 329.76,241.90 329.75,242.07 329.75,251.80 329.76,251.63 329.76,251.98 329.81,252.32 329.92,252.65 330.08,252.96 330.29,253.24 330.54,253.48 330.83,253.67 331.14,253.82 331.48,253.92 331.82,253.96 " style="stroke-width: 0.53; stroke: #FF4237; fill: #FF4237;" clip-path="url(#cpNi45NzM4NXw3MTMuMDI2fDI4MS4yMDl8Ni45NzM4NQ==)"/>
  <g clip-path="url(#cpNi45NzM4NXw3MTMuMDI2fDI4MS4yMDl8Ni45NzM4NQ==)">
    <text x="333.35" y="250.36" style="font-size: 9.96px; fill: #FFF; font-family: Liberation Sans;" textLength="35.97px" lengthAdjust="spacingAndGlyphs">SLICER</text>
  </g>
  <polyline points="499.74,231.33 531.40,231.33 531.31,231.33 531.66,231.31 532.00,231.24 532.32,231.12 532.62,230.95 532.89,230.73 533.12,230.47 533.31,230.17 533.44,229.85 533.53,229.51 533.56,229.17 533.56,229.17 533.56,219.44 533.56,219.44 533.53,219.09 533.44,218.75 533.31,218.43 533.12,218.14 532.89,217.88 532.62,217.66 532.32,217.49 532.00,217.36 531.66,217.29 531.40,217.28 499.74,217.28 500.00,217.29 499.66,217.28 499.31,217.32 498.98,217.42 498.66,217.57 498.38,217.76 498.13,218.00 497.92,218.28 497.76,218.59 497.65,218.92 497.59,219.26 497.58,219.44 497.58,229.17 497.59,228.99 497.59,229.34 497.65,229.68 497.76,230.01 497.92,230.32 498.13,230.60 498.38,230.84 498.66,231.04 498.98,231.19 499.31,231.28 499.66,231.33 " style="stroke-width: 0.53; stroke: #003D76; fill: #003D76;" clip-path="url(#cpNi45NzM4NXw3MTMuMDI2fDI4MS4yMDl8Ni45NzM4NQ==)"/>
  <g clip-path="url(#cpNi45NzM4NXw3MTMuMDI2fDI4MS4yMDl8Ni45NzM4NQ==)">
    <text x="501.18" y="227.73" style="font-size: 9.96px; fill: #FFF; font-family: Liberation Sans;" textLength="28.77px" lengthAdjust="spacingAndGlyphs">reCAT</text>
  </g>
  <polyline points="517.56,256.68 552.00,256.68 551.91,256.67 552.26,256.66 552.60,256.59 552.92,256.47 553.22,256.29 553.49,256.07 553.72,255.81 553.91,255.52 554.05,255.20 554.13,254.86 554.16,254.52 554.16,254.52 554.16,244.79 554.16,244.79 554.13,244.44 554.05,244.10 553.91,243.78 553.72,243.49 553.49,243.23 553.22,243.01 552.92,242.83 552.60,242.71 552.26,242.64 552.00,242.63 517.56,242.63 517.82,242.64 517.48,242.63 517.13,242.67 516.80,242.77 516.48,242.91 516.20,243.11 515.95,243.35 515.74,243.63 515.58,243.94 515.47,244.27 515.41,244.61 515.40,244.79 515.40,254.52 515.41,254.34 515.41,254.69 515.47,255.03 515.58,255.36 515.74,255.67 515.95,255.95 516.20,256.19 516.48,256.39 516.80,256.54 517.13,256.63 517.48,256.67 " style="stroke-width: 0.53; stroke: #3AD1D1; fill: #3AD1D1;" clip-path="url(#cpNi45NzM4NXw3MTMuMDI2fDI4MS4yMDl8Ni45NzM4NQ==)"/>
  <g clip-path="url(#cpNi45NzM4NXw3MTMuMDI2fDI4MS4yMDl8Ni45NzM4NQ==)">
    <text x="519.00" y="253.08" style="font-size: 9.96px; fill: #FFF; font-family: Liberation Sans;" textLength="31.55px" lengthAdjust="spacingAndGlyphs">scanpy</text>
  </g>
  <polyline points="336.42,214.61 383.58,214.61 383.49,214.61 383.84,214.59 384.18,214.52 384.51,214.40 384.81,214.23 385.08,214.01 385.31,213.75 385.49,213.45 385.63,213.13 385.71,212.79 385.74,212.45 385.74,212.45 385.74,202.72 385.74,202.72 385.71,202.37 385.63,202.03 385.49,201.71 385.31,201.42 385.08,201.16 384.81,200.94 384.51,200.77 384.18,200.64 383.84,200.57 383.58,200.56 336.42,200.56 336.68,200.57 336.33,200.56 335.99,200.60 335.65,200.70 335.34,200.85 335.05,201.04 334.80,201.28 334.59,201.56 334.43,201.87 334.32,202.20 334.27,202.54 334.26,202.72 334.26,212.45 334.27,212.27 334.27,212.62 334.32,212.96 334.43,213.29 334.59,213.60 334.80,213.88 335.05,214.12 335.34,214.32 335.65,214.47 335.99,214.56 336.33,214.61 " style="stroke-width: 0.53; stroke: #3AD1D1; fill: #3AD1D1;" clip-path="url(#cpNi45NzM4NXw3MTMuMDI2fDI4MS4yMDl8Ni45NzM4NQ==)"/>
  <g clip-path="url(#cpNi45NzM4NXw3MTMuMDI2fDI4MS4yMDl8Ni45NzM4NQ==)">
    <text x="337.86" y="211.01" style="font-size: 9.96px; fill: #FFF; font-family: Liberation Sans;" textLength="44.28px" lengthAdjust="spacingAndGlyphs">Wishbone</text>
  </g>
  <polyline points="393.16,276.09 443.62,276.09 443.53,276.08 443.88,276.07 444.22,276.00 444.54,275.88 444.84,275.70 445.11,275.48 445.34,275.22 445.53,274.93 445.66,274.61 445.75,274.27 445.78,273.93 445.78,273.93 445.78,264.19 445.78,264.19 445.75,263.85 445.66,263.51 445.53,263.19 445.34,262.90 445.11,262.64 444.84,262.42 444.54,262.24 444.22,262.12 443.88,262.05 443.62,262.03 393.16,262.03 393.42,262.05 393.07,262.04 392.72,262.08 392.39,262.18 392.08,262.32 391.79,262.52 391.54,262.76 391.33,263.04 391.17,263.35 391.06,263.68 391.00,264.02 391.00,264.19 391.00,273.93 391.00,273.75 391.00,274.10 391.06,274.44 391.17,274.77 391.33,275.08 391.54,275.36 391.79,275.60 392.08,275.80 392.39,275.95 392.72,276.04 393.07,276.08 " style="stroke-width: 0.53; stroke: #0278DD; fill: #0278DD;" clip-path="url(#cpNi45NzM4NXw3MTMuMDI2fDI4MS4yMDl8Ni45NzM4NQ==)"/>
  <g clip-path="url(#cpNi45NzM4NXw3MTMuMDI2fDI4MS4yMDl8Ni45NzM4NQ==)">
    <text x="394.60" y="272.49" style="font-size: 9.96px; fill: #FFF; font-family: Liberation Sans;" textLength="47.58px" lengthAdjust="spacingAndGlyphs">SCIMITAR</text>
  </g>
  <polyline points="48.56,248.40 97.38,248.40 97.29,248.40 97.64,248.38 97.98,248.31 98.31,248.19 98.61,248.02 98.88,247.80 99.11,247.54 99.29,247.24 99.43,246.92 99.51,246.59 99.54,246.24 99.54,246.24 99.54,236.51 99.54,236.51 99.51,236.16 99.43,235.82 99.29,235.50 99.11,235.21 98.88,234.95 98.61,234.73 98.31,234.56 97.98,234.43 97.64,234.36 97.38,234.35 48.56,234.35 48.82,234.36 48.47,234.35 48.12,234.39 47.79,234.49 47.48,234.64 47.19,234.83 46.94,235.08 46.73,235.35 46.57,235.66 46.46,235.99 46.40,236.33 46.40,236.51 46.40,246.24 46.40,246.07 46.40,246.41 46.46,246.76 46.57,247.09 46.73,247.39 46.94,247.67 47.19,247.91 47.48,248.11 47.79,248.26 48.12,248.36 48.47,248.40 " style="stroke-width: 0.53; stroke: #E0AB00; fill: #E0AB00;" clip-path="url(#cpNi45NzM4NXw3MTMuMDI2fDI4MS4yMDl8Ni45NzM4NQ==)"/>
  <g clip-path="url(#cpNi45NzM4NXw3MTMuMDI2fDI4MS4yMDl8Ni45NzM4NQ==)">
    <text x="50.00" y="244.80" style="font-size: 9.96px; fill: #FFF; font-family: Liberation Sans;" textLength="45.95px" lengthAdjust="spacingAndGlyphs">Monocle 1</text>
  </g>
  <polyline points="519.61,212.27 542.42,212.27 542.33,212.27 542.68,212.25 543.02,212.19 543.34,212.06 543.64,211.89 543.91,211.67 544.14,211.41 544.33,211.11 544.47,210.79 544.55,210.46 544.58,210.11 544.58,210.11 544.58,200.38 544.58,200.38 544.55,200.03 544.47,199.70 544.33,199.38 544.14,199.08 543.91,198.82 543.64,198.60 543.34,198.43 543.02,198.30 542.68,198.24 542.42,198.22 519.61,198.22 519.87,198.24 519.52,198.22 519.18,198.26 518.84,198.36 518.53,198.51 518.24,198.71 517.99,198.95 517.78,199.22 517.62,199.53 517.51,199.86 517.46,200.21 517.45,200.38 517.45,210.11 517.46,209.94 517.46,210.28 517.51,210.63 517.62,210.96 517.78,211.27 517.99,211.54 518.24,211.78 518.53,211.98 518.84,212.13 519.18,212.23 519.52,212.27 " style="stroke-width: 0.53; stroke: #7FBE00; fill: #7FBE00;" clip-path="url(#cpNi45NzM4NXw3MTMuMDI2fDI4MS4yMDl8Ni45NzM4NQ==)"/>
  <g clip-path="url(#cpNi45NzM4NXw3MTMuMDI2fDI4MS4yMDl8Ni45NzM4NQ==)">
    <text x="521.05" y="208.67" style="font-size: 9.96px; fill: #FFF; font-family: Liberation Sans;" textLength="19.93px" lengthAdjust="spacingAndGlyphs">PBA</text>
  </g>
  <polyline points="486.22,191.49 530.60,191.49 530.51,191.48 530.86,191.47 531.20,191.40 531.53,191.28 531.83,191.10 532.10,190.88 532.33,190.62 532.51,190.33 532.65,190.01 532.73,189.67 532.76,189.33 532.76,189.33 532.76,179.59 532.76,179.59 532.73,179.25 532.65,178.91 532.51,178.59 532.33,178.30 532.10,178.04 531.83,177.82 531.53,177.64 531.20,177.52 530.86,177.45 530.60,177.43 486.22,177.43 486.48,177.45 486.14,177.44 485.79,177.48 485.46,177.58 485.14,177.72 484.86,177.92 484.61,178.16 484.40,178.44 484.24,178.75 484.13,179.08 484.07,179.42 484.06,179.59 484.06,189.33 484.07,189.15 484.07,189.50 484.13,189.84 484.24,190.17 484.40,190.48 484.61,190.76 484.86,191.00 485.14,191.20 485.46,191.35 485.79,191.44 486.14,191.48 " style="stroke-width: 0.53; stroke: #0278DD; fill: #0278DD;" clip-path="url(#cpNi45NzM4NXw3MTMuMDI2fDI4MS4yMDl8Ni45NzM4NQ==)"/>
  <g clip-path="url(#cpNi45NzM4NXw3MTMuMDI2fDI4MS4yMDl8Ni45NzM4NQ==)">
    <text x="487.66" y="187.89" style="font-size: 9.96px; fill: #FFF; font-family: Liberation Sans;" textLength="41.50px" lengthAdjust="spacingAndGlyphs">UNCURL</text>
  </g>
  <polyline points="220.25,277.35 251.90,277.35 251.81,277.35 252.16,277.33 252.50,277.27 252.82,277.14 253.12,276.97 253.39,276.75 253.62,276.49 253.81,276.19 253.95,275.87 254.03,275.54 254.06,275.19 254.06,275.19 254.06,265.46 254.06,265.46 254.03,265.11 253.95,264.78 253.81,264.46 253.62,264.16 253.39,263.90 253.12,263.68 252.82,263.51 252.50,263.38 252.16,263.32 251.90,263.30 220.25,263.30 220.51,263.32 220.16,263.30 219.81,263.34 219.48,263.44 219.17,263.59 218.88,263.79 218.63,264.03 218.42,264.30 218.26,264.61 218.15,264.94 218.09,265.29 218.09,265.46 218.09,275.19 218.09,275.02 218.09,275.36 218.15,275.71 218.26,276.04 218.42,276.35 218.63,276.62 218.88,276.86 219.17,277.06 219.48,277.21 219.81,277.31 220.16,277.35 " style="stroke-width: 0.53; stroke: #0278DD; fill: #0278DD;" clip-path="url(#cpNi45NzM4NXw3MTMuMDI2fDI4MS4yMDl8Ni45NzM4NQ==)"/>
  <g clip-path="url(#cpNi45NzM4NXw3MTMuMDI2fDI4MS4yMDl8Ni45NzM4NQ==)">
    <text x="221.69" y="273.75" style="font-size: 9.96px; fill: #FFF; font-family: Liberation Sans;" textLength="28.77px" lengthAdjust="spacingAndGlyphs">NBOR</text>
  </g>
  <polyline points="55.01,270.79 108.26,270.79 108.17,270.79 108.52,270.78 108.86,270.71 109.18,270.59 109.48,270.41 109.75,270.19 109.98,269.93 110.17,269.64 110.30,269.32 110.39,268.98 110.42,268.63 110.42,268.63 110.42,258.90 110.42,258.90 110.39,258.56 110.30,258.22 110.17,257.90 109.98,257.61 109.75,257.35 109.48,257.13 109.18,256.95 108.86,256.83 108.52,256.76 108.26,256.74 55.01,256.74 55.27,256.76 54.92,256.74 54.58,256.79 54.24,256.88 53.93,257.03 53.64,257.23 53.39,257.47 53.18,257.75 53.02,258.06 52.91,258.39 52.86,258.73 52.85,258.90 52.85,268.63 52.86,268.46 52.86,268.81 52.91,269.15 53.02,269.48 53.18,269.79 53.39,270.07 53.64,270.31 53.93,270.50 54.24,270.65 54.58,270.75 54.92,270.79 " style="stroke-width: 0.53; stroke: #0278DD; fill: #0278DD;" clip-path="url(#cpNi45NzM4NXw3MTMuMDI2fDI4MS4yMDl8Ni45NzM4NQ==)"/>
  <g clip-path="url(#cpNi45NzM4NXw3MTMuMDI2fDI4MS4yMDl8Ni45NzM4NQ==)">
    <text x="56.45" y="267.19" style="font-size: 9.96px; fill: #FFF; font-family: Liberation Sans;" textLength="50.37px" lengthAdjust="spacingAndGlyphs">Wanderlust</text>
  </g>
  <polyline points="578.51,254.27 622.89,254.27 622.81,254.27 623.15,254.25 623.49,254.18 623.82,254.06 624.12,253.89 624.39,253.67 624.62,253.41 624.81,253.11 624.94,252.79 625.02,252.46 625.05,252.11 625.05,252.11 625.05,242.38 625.05,242.38 625.02,242.03 624.94,241.69 624.81,241.37 624.62,241.08 624.39,240.82 624.12,240.60 623.82,240.43 623.49,240.30 623.15,240.23 622.89,240.22 578.51,240.22 578.77,240.23 578.42,240.22 578.07,240.26 577.74,240.36 577.43,240.51 577.14,240.71 576.89,240.95 576.68,241.22 576.52,241.53 576.41,241.86 576.35,242.20 576.35,242.38 576.35,252.11 576.35,251.94 576.35,252.28 576.41,252.63 576.52,252.96 576.68,253.26 576.89,253.54 577.14,253.78 577.43,253.98 577.74,254.13 578.07,254.23 578.42,254.27 " style="stroke-width: 0.53; stroke: #FF4237; fill: #FF4237;" clip-path="url(#cpNi45NzM4NXw3MTMuMDI2fDI4MS4yMDl8Ni45NzM4NQ==)"/>
  <g clip-path="url(#cpNi45NzM4NXw3MTMuMDI2fDI4MS4yMDl8Ni45NzM4NQ==)">
    <text x="579.95" y="250.67" style="font-size: 9.96px; fill: #FFF; font-family: Liberation Sans;" textLength="41.51px" lengthAdjust="spacingAndGlyphs">CALISTA</text>
  </g>
  <polyline points="549.50,88.36 593.89,88.36 593.81,88.36 594.15,88.35 594.49,88.28 594.82,88.16 595.12,87.98 595.39,87.76 595.62,87.50 595.81,87.21 595.94,86.89 596.03,86.55 596.05,86.20 596.05,86.20 596.05,76.47 596.05,76.47 596.03,76.13 595.94,75.79 595.81,75.47 595.62,75.18 595.39,74.92 595.12,74.70 594.82,74.52 594.49,74.40 594.15,74.33 593.89,74.31 549.50,74.31 549.76,74.33 549.41,74.32 549.06,74.36 548.73,74.45 548.42,74.60 548.13,74.80 547.88,75.04 547.67,75.32 547.51,75.63 547.40,75.96 547.34,76.30 547.34,76.47 547.34,86.20 547.34,86.03 547.34,86.38 547.40,86.72 547.51,87.05 547.67,87.36 547.88,87.64 548.13,87.88 548.42,88.08 548.73,88.22 549.06,88.32 549.41,88.36 " style="stroke-width: 0.53; stroke: #E0AB00; fill: #E0AB00;" clip-path="url(#cpNi45NzM4NXw3MTMuMDI2fDI4MS4yMDl8Ni45NzM4NQ==)"/>
  <g clip-path="url(#cpNi45NzM4NXw3MTMuMDI2fDI4MS4yMDl8Ni45NzM4NQ==)">
    <text x="550.94" y="84.76" style="font-size: 9.96px; fill: #FFF; font-family: Liberation Sans;" textLength="41.52px" lengthAdjust="spacingAndGlyphs">p-Creode</text>
  </g>
  <polyline points="470.84,44.60 503.04,44.60 502.96,44.60 503.31,44.58 503.65,44.51 503.97,44.39 504.27,44.22 504.54,44.00 504.77,43.74 504.96,43.44 505.09,43.12 505.18,42.79 505.20,42.44 505.20,42.44 505.20,32.71 505.20,32.71 505.18,32.36 505.09,32.02 504.96,31.70 504.77,31.41 504.54,31.15 504.27,30.93 503.97,30.76 503.65,30.63 503.31,30.56 503.04,30.55 470.84,30.55 471.10,30.56 470.75,30.55 470.41,30.59 470.07,30.69 469.76,30.84 469.47,31.04 469.22,31.28 469.01,31.55 468.85,31.86 468.74,32.19 468.69,32.53 468.68,32.71 468.68,42.44 468.69,42.27 468.69,42.61 468.74,42.96 468.85,43.29 469.01,43.59 469.22,43.87 469.47,44.11 469.76,44.31 470.07,44.46 470.41,44.56 470.75,44.60 " style="stroke-width: 0.53; stroke: #E0AB00; fill: #E0AB00;" clip-path="url(#cpNi45NzM4NXw3MTMuMDI2fDI4MS4yMDl8Ni45NzM4NQ==)"/>
  <g clip-path="url(#cpNi45NzM4NXw3MTMuMDI2fDI4MS4yMDl8Ni45NzM4NQ==)">
    <text x="472.28" y="41.00" style="font-size: 9.96px; fill: #FFF; font-family: Liberation Sans;" textLength="29.33px" lengthAdjust="spacingAndGlyphs">TASIC</text>
  </g>
  <polyline points="531.84,232.51 599.49,232.51 599.41,232.51 599.75,232.50 600.09,232.43 600.42,232.30 600.72,232.13 600.99,231.91 601.22,231.65 601.41,231.36 601.54,231.04 601.62,230.70 601.65,230.35 601.65,230.35 601.65,220.62 601.65,220.62 601.62,220.27 601.54,219.94 601.41,219.62 601.22,219.32 600.99,219.06 600.72,218.84 600.42,218.67 600.09,218.55 599.75,218.48 599.49,218.46 531.84,218.46 532.10,218.48 531.76,218.46 531.41,218.50 531.08,218.60 530.76,218.75 530.48,218.95 530.23,219.19 530.02,219.47 529.86,219.77 529.75,220.10 529.69,220.45 529.68,220.62 529.68,230.35 529.69,230.18 529.69,230.53 529.75,230.87 529.86,231.20 530.02,231.51 530.23,231.78 530.48,232.02 530.76,232.22 531.08,232.37 531.41,232.47 531.76,232.51 " style="stroke-width: 0.53; stroke: #0278DD; fill: #0278DD;" clip-path="url(#cpNi45NzM4NXw3MTMuMDI2fDI4MS4yMDl8Ni45NzM4NQ==)"/>
  <g clip-path="url(#cpNi45NzM4NXw3MTMuMDI2fDI4MS4yMDl8Ni45NzM4NQ==)">
    <text x="533.28" y="228.91" style="font-size: 9.96px; fill: #FFF; font-family: Liberation Sans;" textLength="64.77px" lengthAdjust="spacingAndGlyphs">GPseudoRank</text>
  </g>
  <polyline points="552.58,266.75 576.49,266.75 576.41,266.74 576.75,266.73 577.09,266.66 577.42,266.54 577.72,266.36 577.99,266.14 578.22,265.88 578.41,265.59 578.54,265.27 578.63,264.93 578.65,264.59 578.65,264.59 578.65,254.86 578.65,254.86 578.63,254.51 578.54,254.17 578.41,253.85 578.22,253.56 577.99,253.30 577.72,253.08 577.42,252.90 577.09,252.78 576.75,252.71 576.49,252.70 552.58,252.70 552.84,252.71 552.50,252.70 552.15,252.74 551.82,252.84 551.50,252.98 551.22,253.18 550.97,253.42 550.76,253.70 550.60,254.01 550.49,254.34 550.43,254.68 550.42,254.86 550.42,264.59 550.43,264.41 550.43,264.76 550.49,265.10 550.60,265.43 550.76,265.74 550.97,266.02 551.22,266.26 551.50,266.46 551.82,266.61 552.15,266.70 552.50,266.74 " style="stroke-width: 0.53; stroke: #CA0565; fill: #CA0565;" clip-path="url(#cpNi45NzM4NXw3MTMuMDI2fDI4MS4yMDl8Ni45NzM4NQ==)"/>
  <g clip-path="url(#cpNi45NzM4NXw3MTMuMDI2fDI4MS4yMDl8Ni45NzM4NQ==)">
    <text x="554.02" y="263.15" style="font-size: 9.96px; fill: #FFF; font-family: Liberation Sans;" textLength="21.03px" lengthAdjust="spacingAndGlyphs">AGA</text>
  </g>
  <defs>
    <clipPath id="cpMHw3MjB8MzI0fDA=">
      <rect x="0.00" y="0.00" width="720.00" height="324.00"/>
    </clipPath>
  </defs>
  <polyline points="6.97,281.21 713.03,281.21 " style="stroke-width: 1.07; stroke-linecap: square;" clip-path="url(#cpMHw3MjB8MzI0fDA=)"/>
  <polyline points="39.07,284.70 39.07,281.21 " style="stroke-width: 1.07; stroke-linecap: butt;" clip-path="url(#cpMHw3MjB8MzI0fDA=)"/>
  <polyline points="176.56,284.70 176.56,281.21 " style="stroke-width: 1.07; stroke-linecap: butt;" clip-path="url(#cpMHw3MjB8MzI0fDA=)"/>
  <polyline points="314.04,284.70 314.04,281.21 " style="stroke-width: 1.07; stroke-linecap: butt;" clip-path="url(#cpMHw3MjB8MzI0fDA=)"/>
  <polyline points="451.91,284.70 451.91,281.21 " style="stroke-width: 1.07; stroke-linecap: butt;" clip-path="url(#cpMHw3MjB8MzI0fDA=)"/>
  <polyline points="589.40,284.70 589.40,281.21 " style="stroke-width: 1.07; stroke-linecap: butt;" clip-path="url(#cpMHw3MjB8MzI0fDA=)"/>
  <g clip-path="url(#cpMHw3MjB8MzI0fDA=)">
    <text x="25.72" y="295.94" style="font-size: 12.00px; font-family: Liberation Sans;" textLength="26.69px" lengthAdjust="spacingAndGlyphs">2014</text>
  </g>
  <g clip-path="url(#cpMHw3MjB8MzI0fDA=)">
    <text x="163.21" y="295.94" style="font-size: 12.00px; font-family: Liberation Sans;" textLength="26.69px" lengthAdjust="spacingAndGlyphs">2015</text>
  </g>
  <g clip-path="url(#cpMHw3MjB8MzI0fDA=)">
    <text x="300.70" y="295.94" style="font-size: 12.00px; font-family: Liberation Sans;" textLength="26.69px" lengthAdjust="spacingAndGlyphs">2016</text>
  </g>
  <g clip-path="url(#cpMHw3MjB8MzI0fDA=)">
    <text x="438.56" y="295.94" style="font-size: 12.00px; font-family: Liberation Sans;" textLength="26.69px" lengthAdjust="spacingAndGlyphs">2017</text>
  </g>
  <g clip-path="url(#cpMHw3MjB8MzI0fDA=)">
    <text x="576.05" y="295.94" style="font-size: 12.00px; font-family: Liberation Sans;" textLength="26.69px" lengthAdjust="spacingAndGlyphs">2018</text>
  </g>
  <g clip-path="url(#cpMHw3MjB8MzI0fDA=)">
    <text x="312.13" y="312.79" style="font-size: 14.00px; font-family: Liberation Sans;" textLength="95.74px" lengthAdjust="spacingAndGlyphs">Publishing date</text>
  </g>
</svg>
