<?xml version="1.0" encoding="UTF-8"?>
<svg xmlns="http://www.w3.org/2000/svg" xmlns:xlink="http://www.w3.org/1999/xlink" viewBox="0 0 720.00 252.00">
  <defs>
    <style type="text/css"><![CDATA[
    line, polyline, path, rect, circle {
      fill: none;
      stroke: #000000;
      stroke-linecap: round;
      stroke-linejoin: round;
      stroke-miterlimit: 10.00;
    }
  ]]></style>
  </defs>
  <line x1="554.71" y1="200.94" x2="554.71" y2="209.21" style="stroke-width: 1.07; stroke: #AF0DC7;" clip-path="url(#cpNi45NzM4NXw3MTMuMDI2fDIwOS4yMDl8Ni45NzM4NQ==)"/>
  <line x1="189.29" y1="205.31" x2="189.29" y2="209.21" style="stroke-width: 1.07; stroke: #5ECD2E;" clip-path="url(#cpNi45NzM4NXw3MTMuMDI2fDIwOS4yMDl8Ni45NzM4NQ==)"/>
  <line x1="579.54" y1="185.51" x2="579.54" y2="209.21" style="stroke-width: 1.07; stroke: #CFBF00;" clip-path="url(#cpNi45NzM4NXw3MTMuMDI2fDIwOS4yMDl8Ni45NzM4NQ==)"/>
  <line x1="542.30" y1="176.45" x2="542.30" y2="209.21" style="stroke-width: 1.07; stroke: #AF0DC7;" clip-path="url(#cpNi45NzM4NXw3MTMuMDI2fDIwOS4yMDl8Ni45NzM4NQ==)"/>
  <line x1="572.09" y1="163.91" x2="572.09" y2="209.21" style="stroke-width: 1.07; stroke: #AF0DC7;" clip-path="url(#cpNi45NzM4NXw3MTMuMDI2fDIwOS4yMDl8Ni45NzM4NQ==)"/>
  <line x1="85.83" y1="202.81" x2="85.83" y2="209.21" style="stroke-width: 1.07; stroke: #AF0DC7;" clip-path="url(#cpNi45NzM4NXw3MTMuMDI2fDIwOS4yMDl8Ni45NzM4NQ==)"/>
  <line x1="410.70" y1="185.33" x2="410.70" y2="209.21" style="stroke-width: 1.07; stroke: #AF0DC7;" clip-path="url(#cpNi45NzM4NXw3MTMuMDI2fDIwOS4yMDl8Ni45NzM4NQ==)"/>
  <line x1="522.85" y1="153.85" x2="522.85" y2="209.21" style="stroke-width: 1.07; stroke: #CFBF00;" clip-path="url(#cpNi45NzM4NXw3MTMuMDI2fDIwOS4yMDl8Ni45NzM4NQ==)"/>
  <line x1="583.68" y1="117.75" x2="583.68" y2="209.21" style="stroke-width: 1.07; stroke: #0073D7;" clip-path="url(#cpNi45NzM4NXw3MTMuMDI2fDIwOS4yMDl8Ni45NzM4NQ==)"/>
  <line x1="255.51" y1="204.91" x2="255.51" y2="209.21" style="stroke-width: 1.07; stroke: #AF0DC7;" clip-path="url(#cpNi45NzM4NXw3MTMuMDI2fDIwOS4yMDl8Ni45NzM4NQ==)"/>
  <line x1="413.18" y1="128.38" x2="413.18" y2="209.21" style="stroke-width: 1.07; stroke: #AF0DC7;" clip-path="url(#cpNi45NzM4NXw3MTMuMDI2fDIwOS4yMDl8Ni45NzM4NQ==)"/>
  <line x1="531.12" y1="112.22" x2="531.12" y2="209.21" style="stroke-width: 1.07; stroke: #5ECD2E;" clip-path="url(#cpNi45NzM4NXw3MTMuMDI2fDIwOS4yMDl8Ni45NzM4NQ==)"/>
  <line x1="514.16" y1="131.15" x2="514.16" y2="209.21" style="stroke-width: 1.07; stroke: #5ECD2E;" clip-path="url(#cpNi45NzM4NXw3MTMuMDI2fDIwOS4yMDl8Ni45NzM4NQ==)"/>
  <line x1="380.49" y1="203.76" x2="380.49" y2="209.20" style="stroke-width: 1.07; stroke: #AF0DC7;" clip-path="url(#cpNi45NzM4NXw3MTMuMDI2fDIwOS4yMDl8Ni45NzM4NQ==)"/>
  <line x1="391.66" y1="149.98" x2="391.66" y2="209.20" style="stroke-width: 1.07; stroke: #0073D7;" clip-path="url(#cpNi45NzM4NXw3MTMuMDI2fDIwOS4yMDl8Ni45NzM4NQ==)"/>
  <line x1="386.28" y1="111.48" x2="386.28" y2="209.20" style="stroke-width: 1.07; stroke: #AF0DC7;" clip-path="url(#cpNi45NzM4NXw3MTMuMDI2fDIwOS4yMDl8Ni45NzM4NQ==)"/>
  <line x1="569.61" y1="98.75" x2="569.61" y2="209.20" style="stroke-width: 1.07; stroke: #AF0DC7;" clip-path="url(#cpNi45NzM4NXw3MTMuMDI2fDIwOS4yMDl8Ni45NzM4NQ==)"/>
  <line x1="537.33" y1="42.45" x2="537.33" y2="209.20" style="stroke-width: 1.07; stroke: #5ECD2E;" clip-path="url(#cpNi45NzM4NXw3MTMuMDI2fDIwOS4yMDl8Ni45NzM4NQ==)"/>
  <line x1="562.57" y1="149.36" x2="562.57" y2="209.20" style="stroke-width: 1.07; stroke: #39CCCC;" clip-path="url(#cpNi45NzM4NXw3MTMuMDI2fDIwOS4yMDl8Ni45NzM4NQ==)"/>
  <line x1="382.14" y1="62.45" x2="382.14" y2="209.20" style="stroke-width: 1.07; stroke: #FF8821;" clip-path="url(#cpNi45NzM4NXw3MTMuMDI2fDIwOS4yMDl8Ni45NzM4NQ==)"/>
  <line x1="656.10" y1="183.03" x2="656.10" y2="209.20" style="stroke-width: 1.07; stroke: #FF8821;" clip-path="url(#cpNi45NzM4NXw3MTMuMDI2fDIwOS4yMDl8Ni45NzM4NQ==)"/>
  <line x1="435.94" y1="167.51" x2="435.94" y2="209.20" style="stroke-width: 1.07; stroke: #AF0DC7;" clip-path="url(#cpNi45NzM4NXw3MTMuMDI2fDIwOS4yMDl8Ni45NzM4NQ==)"/>
  <line x1="416.08" y1="40.93" x2="416.08" y2="209.20" style="stroke-width: 1.07; stroke: #5ECD2E;" clip-path="url(#cpNi45NzM4NXw3MTMuMDI2fDIwOS4yMDl8Ni45NzM4NQ==)"/>
  <line x1="412.35" y1="100.46" x2="412.35" y2="209.20" style="stroke-width: 1.07; stroke: #5ECD2E;" clip-path="url(#cpNi45NzM4NXw3MTMuMDI2fDIwOS4yMDl8Ni45NzM4NQ==)"/>
  <line x1="457.05" y1="148.91" x2="457.05" y2="209.20" style="stroke-width: 1.07; stroke: #AF0DC7;" clip-path="url(#cpNi45NzM4NXw3MTMuMDI2fDIwOS4yMDl8Ni45NzM4NQ==)"/>
  <line x1="517.88" y1="88.26" x2="517.88" y2="209.20" style="stroke-width: 1.07; stroke: #CFBF00;" clip-path="url(#cpNi45NzM4NXw3MTMuMDI2fDIwOS4yMDl8Ni45NzM4NQ==)"/>
  <line x1="651.96" y1="114.49" x2="651.96" y2="209.20" style="stroke-width: 1.07; stroke: #5ECD2E;" clip-path="url(#cpNi45NzM4NXw3MTMuMDI2fDIwOS4yMDl8Ni45NzM4NQ==)"/>
  <line x1="406.97" y1="24.63" x2="406.97" y2="209.20" style="stroke-width: 1.07; stroke: #CFBF00;" clip-path="url(#cpNi45NzM4NXw3MTMuMDI2fDIwOS4yMDl8Ni45NzM4NQ==)"/>
  <line x1="296.48" y1="184.98" x2="296.48" y2="209.20" style="stroke-width: 1.07; stroke: #AF0DC7;" clip-path="url(#cpNi45NzM4NXw3MTMuMDI2fDIwOS4yMDl8Ni45NzM4NQ==)"/>
  <line x1="76.31" y1="180.75" x2="76.31" y2="209.20" style="stroke-width: 1.07; stroke: #5ECD2E;" clip-path="url(#cpNi45NzM4NXw3MTMuMDI2fDIwOS4yMDl8Ni45NzM4NQ==)"/>
  <line x1="396.21" y1="82.90" x2="396.21" y2="209.20" style="stroke-width: 1.07; stroke: #5ECD2E;" clip-path="url(#cpNi45NzM4NXw3MTMuMDI2fDIwOS4yMDl8Ni45NzM4NQ==)"/>
  <line x1="434.28" y1="61.60" x2="434.28" y2="209.20" style="stroke-width: 1.07; stroke: #5ECD2E;" clip-path="url(#cpNi45NzM4NXw3MTMuMDI2fDIwOS4yMDl8Ni45NzM4NQ==)"/>
  <line x1="631.69" y1="204.84" x2="631.69" y2="209.20" style="stroke-width: 1.07; stroke: #CFBF00;" clip-path="url(#cpNi45NzM4NXw3MTMuMDI2fDIwOS4yMDl8Ni45NzM4NQ==)"/>
  <line x1="345.72" y1="167.95" x2="345.72" y2="209.20" style="stroke-width: 1.07; stroke: #5ECD2E;" clip-path="url(#cpNi45NzM4NXw3MTMuMDI2fDIwOS4yMDl8Ni45NzM4NQ==)"/>
  <line x1="630.44" y1="161.25" x2="630.44" y2="209.20" style="stroke-width: 1.07; stroke: #AF0DC7;" clip-path="url(#cpNi45NzM4NXw3MTMuMDI2fDIwOS4yMDl8Ni45NzM4NQ==)"/>
  <line x1="513.74" y1="24.63" x2="513.74" y2="209.20" style="stroke-width: 1.07; stroke: #5ECD2E;" clip-path="url(#cpNi45NzM4NXw3MTMuMDI2fDIwOS4yMDl8Ni45NzM4NQ==)"/>
  <line x1="624.24" y1="41.67" x2="624.24" y2="209.20" style="stroke-width: 1.07; stroke: #5ECD2E;" clip-path="url(#cpNi45NzM4NXw3MTMuMDI2fDIwOS4yMDl8Ni45NzM4NQ==)"/>
  <line x1="200.88" y1="183.32" x2="200.88" y2="209.20" style="stroke-width: 1.07; stroke: #5ECD2E;" clip-path="url(#cpNi45NzM4NXw3MTMuMDI2fDIwOS4yMDl8Ni45NzM4NQ==)"/>
  <line x1="466.56" y1="199.50" x2="466.56" y2="209.20" style="stroke-width: 1.07; stroke: #AF0DC7;" clip-path="url(#cpNi45NzM4NXw3MTMuMDI2fDIwOS4yMDl8Ni45NzM4NQ==)"/>
  <line x1="577.89" y1="57.62" x2="577.89" y2="209.20" style="stroke-width: 1.07; stroke: #AF0DC7;" clip-path="url(#cpNi45NzM4NXw3MTMuMDI2fDIwOS4yMDl8Ni45NzM4NQ==)"/>
  <line x1="580.37" y1="24.63" x2="580.37" y2="209.19" style="stroke-width: 1.07; stroke: #0073D7;" clip-path="url(#cpNi45NzM4NXw3MTMuMDI2fDIwOS4yMDl8Ni45NzM4NQ==)"/>
  <line x1="603.96" y1="136.59" x2="603.96" y2="209.19" style="stroke-width: 1.07; stroke: #FF8821;" clip-path="url(#cpNi45NzM4NXw3MTMuMDI2fDIwOS4yMDl8Ni45NzM4NQ==)"/>
  <line x1="455.80" y1="83.74" x2="455.80" y2="209.19" style="stroke-width: 1.07; stroke: #AF0DC7;" clip-path="url(#cpNi45NzM4NXw3MTMuMDI2fDIwOS4yMDl8Ni45NzM4NQ==)"/>
  <line x1="291.51" y1="163.09" x2="291.51" y2="209.19" style="stroke-width: 1.07; stroke: #AF0DC7;" clip-path="url(#cpNi45NzM4NXw3MTMuMDI2fDIwOS4yMDl8Ni45NzM4NQ==)"/>
  <line x1="356.90" y1="131.04" x2="356.90" y2="209.19" style="stroke-width: 1.07; stroke: #0073D7;" clip-path="url(#cpNi45NzM4NXw3MTMuMDI2fDIwOS4yMDl8Ni45NzM4NQ==)"/>
  <line x1="485.60" y1="184.19" x2="485.60" y2="209.19" style="stroke-width: 1.07; stroke: #5ECD2E;" clip-path="url(#cpNi45NzM4NXw3MTMuMDI2fDIwOS4yMDl8Ni45NzM4NQ==)"/>
  <line x1="487.26" y1="109.48" x2="487.26" y2="209.19" style="stroke-width: 1.07; stroke: #5ECD2E;" clip-path="url(#cpNi45NzM4NXw3MTMuMDI2fDIwOS4yMDl8Ni45NzM4NQ==)"/>
  <line x1="297.72" y1="141.14" x2="297.72" y2="209.19" style="stroke-width: 1.07; stroke: #AF0DC7;" clip-path="url(#cpNi45NzM4NXw3MTMuMDI2fDIwOS4yMDl8Ni45NzM4NQ==)"/>
  <line x1="616.37" y1="78.79" x2="616.37" y2="209.19" style="stroke-width: 1.07; stroke: #FF4237;" clip-path="url(#cpNi45NzM4NXw3MTMuMDI2fDIwOS4yMDl8Ni45NzM4NQ==)"/>
  <line x1="564.64" y1="78.07" x2="564.64" y2="209.19" style="stroke-width: 1.07; stroke: #AF0DC7;" clip-path="url(#cpNi45NzM4NXw3MTMuMDI2fDIwOS4yMDl8Ni45NzM4NQ==)"/>
  <line x1="510.43" y1="62.12" x2="510.43" y2="209.19" style="stroke-width: 1.07; stroke: #AF0DC7;" clip-path="url(#cpNi45NzM4NXw3MTMuMDI2fDIwOS4yMDl8Ni45NzM4NQ==)"/>
  <defs>
    <clipPath id="cpNi45NzM4NXw3MTMuMDI2fDIwOS4yMDl8Ni45NzM4NQ==">
      <rect x="6.97" y="6.97" width="706.05" height="202.24"/>
    </clipPath>
  </defs>
  <polyline points="491.56,62.12 529.31,62.12 529.22,62.12 529.57,62.10 529.91,62.04 530.23,61.91 530.53,61.74 530.80,61.52 531.03,61.26 531.22,60.96 531.35,60.64 531.44,60.31 531.47,59.96 531.47,59.96 531.47,50.23 531.47,50.23 531.44,49.88 531.35,49.55 531.22,49.23 531.03,48.93 530.80,48.67 530.53,48.45 530.23,48.28 529.91,48.15 529.57,48.08 529.31,48.07 491.56,48.07 491.82,48.08 491.47,48.07 491.12,48.11 490.79,48.21 490.48,48.36 490.19,48.56 489.94,48.80 489.73,49.07 489.57,49.38 489.46,49.71 489.40,50.06 489.40,50.23 489.40,59.96 489.40,59.79 489.40,60.13 489.46,60.48 489.57,60.81 489.73,61.11 489.94,61.39 490.19,61.63 490.48,61.83 490.79,61.98 491.12,62.08 491.47,62.12 " style="stroke-width: 0.53; stroke: #AF0DC7; fill: #FFFFFF;" clip-path="url(#cpNi45NzM4NXw3MTMuMDI2fDIwOS4yMDl8Ni45NzM4NQ==)"/>
  <g clip-path="url(#cpNi45NzM4NXw3MTMuMDI2fDIwOS4yMDl8Ni45NzM4NQ==)">
    <text x="493.00" y="58.52" style="font-size: 9.96px; fill: #AF0DC7; font-family: Liberation Sans;" textLength="34.87px" lengthAdjust="spacingAndGlyphs">topslam</text>
  </g>
  <polyline points="538.58,78.07 590.70,78.07 590.62,78.07 590.96,78.05 591.30,77.98 591.63,77.86 591.93,77.69 592.20,77.47 592.43,77.21 592.62,76.91 592.75,76.59 592.83,76.25 592.86,75.91 592.86,75.91 592.86,66.18 592.86,66.18 592.83,65.83 592.75,65.49 592.62,65.17 592.43,64.88 592.20,64.62 591.93,64.40 591.63,64.23 591.30,64.10 590.96,64.03 590.70,64.02 538.58,64.02 538.85,64.03 538.50,64.02 538.15,64.06 537.82,64.16 537.50,64.31 537.22,64.50 536.97,64.74 536.76,65.02 536.60,65.33 536.49,65.66 536.43,66.00 536.42,66.18 536.42,75.91 536.43,75.73 536.43,76.08 536.49,76.42 536.60,76.75 536.76,77.06 536.97,77.34 537.22,77.58 537.50,77.78 537.82,77.93 538.15,78.02 538.50,78.07 " style="stroke-width: 0.53; stroke: #AF0DC7; fill: #FFFFFF;" clip-path="url(#cpNi45NzM4NXw3MTMuMDI2fDIwOS4yMDl8Ni45NzM4NQ==)"/>
  <g clip-path="url(#cpNi45NzM4NXw3MTMuMDI2fDIwOS4yMDl8Ni45NzM4NQ==)">
    <text x="540.02" y="74.47" style="font-size: 9.96px; fill: #AF0DC7; font-family: Liberation Sans;" textLength="49.24px" lengthAdjust="spacingAndGlyphs">MATCHER</text>
  </g>
  <polyline points="604.42,78.79 628.33,78.79 628.24,78.79 628.59,78.77 628.93,78.70 629.26,78.58 629.56,78.41 629.83,78.19 630.06,77.93 630.24,77.63 630.38,77.31 630.46,76.97 630.49,76.63 630.49,76.63 630.49,66.90 630.49,66.90 630.46,66.55 630.38,66.21 630.24,65.89 630.06,65.60 629.83,65.34 629.56,65.12 629.26,64.94 628.93,64.82 628.59,64.75 628.33,64.74 604.42,64.74 604.68,64.75 604.33,64.74 603.99,64.78 603.65,64.88 603.34,65.03 603.05,65.22 602.80,65.46 602.59,65.74 602.43,66.05 602.32,66.38 602.27,66.72 602.26,66.90 602.26,76.63 602.27,76.45 602.27,76.80 602.32,77.14 602.43,77.47 602.59,77.78 602.80,78.06 603.05,78.30 603.34,78.50 603.65,78.65 603.99,78.74 604.33,78.79 " style="stroke-width: 0.53; stroke: #FF4237; fill: #FFFFFF;" clip-path="url(#cpNi45NzM4NXw3MTMuMDI2fDIwOS4yMDl8Ni45NzM4NQ==)"/>
  <g clip-path="url(#cpNi45NzM4NXw3MTMuMDI2fDIwOS4yMDl8Ni45NzM4NQ==)">
    <text x="605.86" y="75.19" style="font-size: 9.96px; fill: #FF4237; font-family: Liberation Sans;" textLength="21.03px" lengthAdjust="spacingAndGlyphs">AGA</text>
  </g>
  <polyline points="276.63,141.14 318.81,141.14 318.72,141.13 319.07,141.12 319.41,141.05 319.73,140.93 320.04,140.75 320.31,140.53 320.54,140.27 320.72,139.98 320.86,139.66 320.94,139.32 320.97,138.98 320.97,138.98 320.97,129.24 320.97,129.24 320.94,128.90 320.86,128.56 320.72,128.24 320.54,127.95 320.31,127.69 320.04,127.47 319.73,127.29 319.41,127.17 319.07,127.10 318.81,127.08 276.63,127.08 276.89,127.10 276.54,127.09 276.19,127.13 275.86,127.22 275.55,127.37 275.26,127.57 275.01,127.81 274.80,128.09 274.64,128.40 274.53,128.73 274.47,129.07 274.47,129.24 274.47,138.98 274.47,138.80 274.47,139.15 274.53,139.49 274.64,139.82 274.80,140.13 275.01,140.41 275.26,140.65 275.55,140.85 275.86,141.00 276.19,141.09 276.54,141.13 " style="stroke-width: 0.53; stroke: #AF0DC7; fill: #FFFFFF;" clip-path="url(#cpNi45NzM4NXw3MTMuMDI2fDIwOS4yMDl8Ni45NzM4NQ==)"/>
  <g clip-path="url(#cpNi45NzM4NXw3MTMuMDI2fDIwOS4yMDl8Ni45NzM4NQ==)">
    <text x="278.07" y="137.54" style="font-size: 9.96px; fill: #AF0DC7; font-family: Liberation Sans;" textLength="39.30px" lengthAdjust="spacingAndGlyphs">embeddr</text>
  </g>
  <polyline points="471.43,109.48 503.09,109.48 503.00,109.47 503.35,109.46 503.69,109.39 504.01,109.27 504.31,109.09 504.58,108.87 504.81,108.61 505.00,108.32 505.14,108.00 505.22,107.66 505.25,107.32 505.25,107.32 505.25,97.58 505.25,97.58 505.22,97.24 505.14,96.90 505.00,96.58 504.81,96.29 504.58,96.03 504.31,95.81 504.01,95.63 503.69,95.51 503.35,95.44 503.09,95.42 471.43,95.42 471.69,95.44 471.34,95.43 470.99,95.47 470.66,95.57 470.35,95.71 470.06,95.91 469.81,96.15 469.60,96.43 469.44,96.74 469.33,97.07 469.27,97.41 469.27,97.58 469.27,107.32 469.27,107.14 469.27,107.49 469.33,107.83 469.44,108.16 469.60,108.47 469.81,108.75 470.06,108.99 470.35,109.19 470.66,109.34 470.99,109.43 471.34,109.47 " style="stroke-width: 0.53; stroke: #5ECD2E; fill: #FFFFFF;" clip-path="url(#cpNi45NzM4NXw3MTMuMDI2fDIwOS4yMDl8Ni45NzM4NQ==)"/>
  <g clip-path="url(#cpNi45NzM4NXw3MTMuMDI2fDIwOS4yMDl8Ni45NzM4NQ==)">
    <text x="472.87" y="105.88" style="font-size: 9.96px; fill: #5ECD2E; font-family: Liberation Sans;" textLength="28.78px" lengthAdjust="spacingAndGlyphs">SLICE</text>
  </g>
  <polyline points="459.53,184.19 511.67,184.19 511.58,184.19 511.93,184.18 512.27,184.11 512.60,183.99 512.90,183.81 513.17,183.59 513.40,183.33 513.58,183.04 513.72,182.72 513.80,182.38 513.83,182.03 513.83,182.03 513.83,172.30 513.83,172.30 513.80,171.96 513.72,171.62 513.58,171.30 513.40,171.01 513.17,170.74 512.90,170.53 512.60,170.35 512.27,170.23 511.93,170.16 511.67,170.14 459.53,170.14 459.79,170.16 459.44,170.14 459.10,170.19 458.76,170.28 458.45,170.43 458.16,170.63 457.91,170.87 457.70,171.15 457.54,171.46 457.43,171.79 457.38,172.13 457.37,172.30 457.37,182.03 457.38,181.86 457.38,182.21 457.43,182.55 457.54,182.88 457.70,183.19 457.91,183.47 458.16,183.71 458.45,183.90 458.76,184.05 459.10,184.15 459.44,184.19 " style="stroke-width: 0.53; stroke: #5ECD2E; fill: #FFFFFF;" clip-path="url(#cpNi45NzM4NXw3MTMuMDI2fDIwOS4yMDl8Ni45NzM4NQ==)"/>
  <g clip-path="url(#cpNi45NzM4NXw3MTMuMDI2fDIwOS4yMDl8Ni45NzM4NQ==)">
    <text x="460.97" y="180.59" style="font-size: 9.96px; fill: #5ECD2E; font-family: Liberation Sans;" textLength="49.26px" lengthAdjust="spacingAndGlyphs">k-branches</text>
  </g>
  <polyline points="345.50,131.04 368.29,131.04 368.21,131.03 368.56,131.02 368.90,130.95 369.22,130.83 369.52,130.65 369.79,130.43 370.02,130.17 370.21,129.88 370.34,129.56 370.43,129.22 370.45,128.88 370.45,128.88 370.45,119.15 370.45,119.15 370.43,118.80 370.34,118.46 370.21,118.14 370.02,117.85 369.79,117.59 369.52,117.37 369.22,117.19 368.90,117.07 368.56,117.00 368.29,116.99 345.50,116.99 345.76,117.00 345.41,116.99 345.07,117.03 344.73,117.13 344.42,117.27 344.13,117.47 343.88,117.71 343.67,117.99 343.51,118.30 343.40,118.63 343.34,118.97 343.34,119.15 343.34,128.88 343.34,128.70 343.34,129.05 343.40,129.39 343.51,129.72 343.67,130.03 343.88,130.31 344.13,130.55 344.42,130.75 344.73,130.90 345.07,130.99 345.41,131.03 " style="stroke-width: 0.53; stroke: #0073D7; fill: #FFFFFF;" clip-path="url(#cpNi45NzM4NXw3MTMuMDI2fDIwOS4yMDl8Ni45NzM4NQ==)"/>
  <g clip-path="url(#cpNi45NzM4NXw3MTMuMDI2fDIwOS4yMDl8Ni45NzM4NQ==)">
    <text x="346.94" y="127.44" style="font-size: 9.96px; fill: #0073D7; font-family: Liberation Sans;" textLength="19.92px" lengthAdjust="spacingAndGlyphs">DPT</text>
  </g>
  <polyline points="270.42,163.09 312.59,163.09 312.51,163.09 312.85,163.08 313.20,163.01 313.52,162.88 313.82,162.71 314.09,162.49 314.32,162.23 314.51,161.94 314.64,161.62 314.73,161.28 314.75,160.93 314.75,160.93 314.75,151.20 314.75,151.20 314.73,150.86 314.64,150.52 314.51,150.20 314.32,149.90 314.09,149.64 313.82,149.42 313.52,149.25 313.20,149.13 312.85,149.06 312.59,149.04 270.42,149.04 270.69,149.06 270.34,149.04 269.99,149.09 269.66,149.18 269.34,149.33 269.06,149.53 268.81,149.77 268.60,150.05 268.44,150.36 268.33,150.68 268.27,151.03 268.26,151.20 268.26,160.93 268.27,160.76 268.27,161.11 268.33,161.45 268.44,161.78 268.60,162.09 268.81,162.37 269.06,162.61 269.34,162.80 269.66,162.95 269.99,163.05 270.34,163.09 " style="stroke-width: 0.53; stroke: #AF0DC7; fill: #FFFFFF;" clip-path="url(#cpNi45NzM4NXw3MTMuMDI2fDIwOS4yMDl8Ni45NzM4NQ==)"/>
  <g clip-path="url(#cpNi45NzM4NXw3MTMuMDI2fDIwOS4yMDl8Ni45NzM4NQ==)">
    <text x="271.86" y="159.49" style="font-size: 9.96px; fill: #AF0DC7; font-family: Liberation Sans;" textLength="39.29px" lengthAdjust="spacingAndGlyphs">Waterfall</text>
  </g>
  <polyline points="430.57,83.74 481.03,83.74 480.95,83.74 481.29,83.73 481.63,83.66 481.96,83.54 482.26,83.36 482.53,83.14 482.76,82.88 482.95,82.59 483.08,82.27 483.17,81.93 483.19,81.58 483.19,81.58 483.19,71.85 483.19,71.85 483.17,71.51 483.08,71.17 482.95,70.85 482.76,70.56 482.53,70.30 482.26,70.08 481.96,69.90 481.63,69.78 481.29,69.71 481.03,69.69 430.57,69.69 430.83,69.71 430.49,69.70 430.14,69.74 429.81,69.83 429.49,69.98 429.21,70.18 428.96,70.42 428.75,70.70 428.59,71.01 428.48,71.34 428.42,71.68 428.41,71.85 428.41,81.58 428.42,81.41 428.42,81.76 428.48,82.10 428.59,82.43 428.75,82.74 428.96,83.02 429.21,83.26 429.49,83.46 429.81,83.60 430.14,83.70 430.49,83.74 " style="stroke-width: 0.53; stroke: #AF0DC7; fill: #FFFFFF;" clip-path="url(#cpNi45NzM4NXw3MTMuMDI2fDIwOS4yMDl8Ni45NzM4NQ==)"/>
  <g clip-path="url(#cpNi45NzM4NXw3MTMuMDI2fDIwOS4yMDl8Ni45NzM4NQ==)">
    <text x="432.01" y="80.14" style="font-size: 9.96px; fill: #AF0DC7; font-family: Liberation Sans;" textLength="47.58px" lengthAdjust="spacingAndGlyphs">SCIMITAR</text>
  </g>
  <polyline points="559.37,136.59 648.55,136.59 648.46,136.59 648.81,136.57 649.15,136.50 649.47,136.38 649.77,136.21 650.04,135.99 650.27,135.73 650.46,135.43 650.60,135.11 650.68,134.77 650.71,134.43 650.71,134.43 650.71,124.70 650.71,124.70 650.68,124.35 650.60,124.01 650.46,123.69 650.27,123.40 650.04,123.14 649.77,122.92 649.47,122.75 649.15,122.62 648.81,122.55 648.55,122.54 559.37,122.54 559.63,122.55 559.28,122.54 558.94,122.58 558.61,122.68 558.29,122.83 558.00,123.02 557.75,123.26 557.55,123.54 557.38,123.85 557.27,124.18 557.22,124.52 557.21,124.70 557.21,134.43 557.22,134.25 557.22,134.60 557.27,134.95 557.38,135.28 557.55,135.58 557.75,135.86 558.00,136.10 558.29,136.30 558.61,136.45 558.94,136.54 559.28,136.59 " style="stroke-width: 0.53; stroke: #FF8821; fill: #FFFFFF;" clip-path="url(#cpNi45NzM4NXw3MTMuMDI2fDIwOS4yMDl8Ni45NzM4NQ==)"/>
  <g clip-path="url(#cpNi45NzM4NXw3MTMuMDI2fDIwOS4yMDl8Ni45NzM4NQ==)">
    <text x="560.81" y="132.99" style="font-size: 9.96px; fill: #FF8821; font-family: Liberation Sans;" textLength="86.30px" lengthAdjust="spacingAndGlyphs">WADDINGTON-OT</text>
  </g>
  <polyline points="568.41,24.63 592.32,24.63 592.24,24.62 592.59,24.61 592.93,24.54 593.25,24.42 593.55,24.24 593.82,24.02 594.05,23.76 594.24,23.47 594.37,23.15 594.46,22.81 594.48,22.47 594.48,22.47 594.48,12.73 594.48,12.73 594.46,12.39 594.37,12.05 594.24,11.73 594.05,11.44 593.82,11.18 593.55,10.96 593.25,10.78 592.93,10.66 592.59,10.59 592.32,10.57 568.41,10.57 568.67,10.59 568.33,10.58 567.98,10.62 567.65,10.71 567.33,10.86 567.05,11.06 566.80,11.30 566.59,11.58 566.43,11.89 566.32,12.22 566.26,12.56 566.25,12.73 566.25,22.47 566.26,22.29 566.26,22.64 566.32,22.98 566.43,23.31 566.59,23.62 566.80,23.90 567.05,24.14 567.33,24.34 567.65,24.48 567.98,24.58 568.33,24.62 " style="stroke-width: 0.53; stroke: #0073D7; fill: #FFFFFF;" clip-path="url(#cpNi45NzM4NXw3MTMuMDI2fDIwOS4yMDl8Ni45NzM4NQ==)"/>
  <g clip-path="url(#cpNi45NzM4NXw3MTMuMDI2fDIwOS4yMDl8Ni45NzM4NQ==)">
    <text x="569.85" y="21.03" style="font-size: 9.96px; fill: #0073D7; font-family: Liberation Sans;" textLength="21.03px" lengthAdjust="spacingAndGlyphs">BGP</text>
  </g>
  <polyline points="559.29,57.62 596.49,57.62 596.40,57.62 596.75,57.61 597.09,57.54 597.41,57.42 597.71,57.24 597.98,57.02 598.21,56.76 598.40,56.47 598.54,56.15 598.62,55.81 598.65,55.46 598.65,55.46 598.65,45.73 598.65,45.73 598.62,45.39 598.54,45.05 598.40,44.73 598.21,44.44 597.98,44.18 597.71,43.96 597.41,43.78 597.09,43.66 596.75,43.59 596.49,43.57 559.29,43.57 559.55,43.59 559.20,43.57 558.85,43.62 558.52,43.71 558.21,43.86 557.92,44.06 557.67,44.30 557.46,44.58 557.30,44.89 557.19,45.22 557.13,45.56 557.13,45.73 557.13,55.46 557.13,55.29 557.13,55.64 557.19,55.98 557.30,56.31 557.46,56.62 557.67,56.90 557.92,57.14 558.21,57.33 558.52,57.48 558.85,57.58 559.20,57.62 " style="stroke-width: 0.53; stroke: #AF0DC7; fill: #FFFFFF;" clip-path="url(#cpNi45NzM4NXw3MTMuMDI2fDIwOS4yMDl8Ni45NzM4NQ==)"/>
  <g clip-path="url(#cpNi45NzM4NXw3MTMuMDI2fDIwOS4yMDl8Ni45NzM4NQ==)">
    <text x="560.73" y="54.02" style="font-size: 9.96px; fill: #AF0DC7; font-family: Liberation Sans;" textLength="34.32px" lengthAdjust="spacingAndGlyphs">SoptSC</text>
  </g>
  <polyline points="448.25,199.50 484.88,199.50 484.79,199.50 485.14,199.48 485.48,199.41 485.81,199.29 486.11,199.12 486.38,198.90 486.61,198.64 486.79,198.34 486.93,198.02 487.01,197.69 487.04,197.34 487.04,197.34 487.04,187.61 487.04,187.61 487.01,187.26 486.93,186.92 486.79,186.60 486.61,186.31 486.38,186.05 486.11,185.83 485.81,185.66 485.48,185.53 485.14,185.46 484.88,185.45 448.25,185.45 448.51,185.46 448.16,185.45 447.82,185.49 447.48,185.59 447.17,185.74 446.88,185.93 446.63,186.18 446.42,186.45 446.26,186.76 446.15,187.09 446.10,187.43 446.09,187.61 446.09,197.34 446.10,197.17 446.10,197.51 446.15,197.86 446.26,198.19 446.42,198.49 446.63,198.77 446.88,199.01 447.17,199.21 447.48,199.36 447.82,199.46 448.16,199.50 " style="stroke-width: 0.53; stroke: #AF0DC7; fill: #FFFFFF;" clip-path="url(#cpNi45NzM4NXw3MTMuMDI2fDIwOS4yMDl8Ni45NzM4NQ==)"/>
  <g clip-path="url(#cpNi45NzM4NXw3MTMuMDI2fDIwOS4yMDl8Ni45NzM4NQ==)">
    <text x="449.69" y="195.90" style="font-size: 9.96px; fill: #AF0DC7; font-family: Liberation Sans;" textLength="33.75px" lengthAdjust="spacingAndGlyphs">SCENT</text>
  </g>
  <polyline points="185.60,183.32 216.15,183.32 216.07,183.32 216.42,183.30 216.76,183.23 217.08,183.11 217.38,182.94 217.65,182.72 217.88,182.46 218.07,182.16 218.20,181.84 218.29,181.51 218.31,181.16 218.31,181.16 218.31,171.43 218.31,171.43 218.29,171.08 218.20,170.74 218.07,170.42 217.88,170.13 217.65,169.87 217.38,169.65 217.08,169.48 216.76,169.35 216.42,169.28 216.15,169.27 185.60,169.27 185.86,169.28 185.52,169.27 185.17,169.31 184.84,169.41 184.52,169.56 184.24,169.76 183.99,170.00 183.78,170.27 183.62,170.58 183.50,170.91 183.45,171.25 183.44,171.43 183.44,181.16 183.45,180.99 183.45,181.33 183.50,181.68 183.62,182.01 183.78,182.31 183.99,182.59 184.24,182.83 184.52,183.03 184.84,183.18 185.17,183.28 185.52,183.32 " style="stroke-width: 0.53; stroke: #5ECD2E; fill: #FFFFFF;" clip-path="url(#cpNi45NzM4NXw3MTMuMDI2fDIwOS4yMDl8Ni45NzM4NQ==)"/>
  <g clip-path="url(#cpNi45NzM4NXw3MTMuMDI2fDIwOS4yMDl8Ni45NzM4NQ==)">
    <text x="187.04" y="179.72" style="font-size: 9.96px; fill: #5ECD2E; font-family: Liberation Sans;" textLength="27.67px" lengthAdjust="spacingAndGlyphs">sincell</text>
  </g>
  <polyline points="602.04,41.67 646.43,41.67 646.35,41.67 646.70,41.66 647.04,41.59 647.36,41.46 647.66,41.29 647.93,41.07 648.16,40.81 648.35,40.52 648.48,40.20 648.57,39.86 648.59,39.51 648.59,39.51 648.59,29.78 648.59,29.78 648.57,29.43 648.48,29.10 648.35,28.78 648.16,28.48 647.93,28.22 647.66,28.00 647.36,27.83 647.04,27.71 646.70,27.64 646.43,27.62 602.04,27.62 602.30,27.64 601.95,27.62 601.61,27.66 601.27,27.76 600.96,27.91 600.67,28.11 600.42,28.35 600.21,28.63 600.05,28.93 599.94,29.26 599.89,29.61 599.88,29.78 599.88,39.51 599.89,39.34 599.89,39.69 599.94,40.03 600.05,40.36 600.21,40.67 600.42,40.94 600.67,41.18 600.96,41.38 601.27,41.53 601.61,41.63 601.95,41.67 " style="stroke-width: 0.53; stroke: #5ECD2E; fill: #FFFFFF;" clip-path="url(#cpNi45NzM4NXw3MTMuMDI2fDIwOS4yMDl8Ni45NzM4NQ==)"/>
  <g clip-path="url(#cpNi45NzM4NXw3MTMuMDI2fDIwOS4yMDl8Ni45NzM4NQ==)">
    <text x="603.48" y="38.07" style="font-size: 9.96px; fill: #5ECD2E; font-family: Liberation Sans;" textLength="41.52px" lengthAdjust="spacingAndGlyphs">p-Creode</text>
  </g>
  <polyline points="489.33,24.63 538.15,24.63 538.07,24.62 538.41,24.61 538.76,24.54 539.08,24.42 539.38,24.24 539.65,24.02 539.88,23.76 540.07,23.47 540.20,23.15 540.29,22.81 540.31,22.47 540.31,22.47 540.31,12.73 540.31,12.73 540.29,12.39 540.20,12.05 540.07,11.73 539.88,11.44 539.65,11.18 539.38,10.96 539.08,10.78 538.76,10.66 538.41,10.59 538.15,10.57 489.33,10.57 489.59,10.59 489.24,10.58 488.90,10.62 488.56,10.71 488.25,10.86 487.96,11.06 487.71,11.30 487.50,11.58 487.34,11.89 487.23,12.22 487.18,12.56 487.17,12.73 487.17,22.47 487.18,22.29 487.18,22.64 487.23,22.98 487.34,23.31 487.50,23.62 487.71,23.90 487.96,24.14 488.25,24.34 488.56,24.48 488.90,24.58 489.24,24.62 " style="stroke-width: 0.53; stroke: #5ECD2E; fill: #FFFFFF;" clip-path="url(#cpNi45NzM4NXw3MTMuMDI2fDIwOS4yMDl8Ni45NzM4NQ==)"/>
  <g clip-path="url(#cpNi45NzM4NXw3MTMuMDI2fDIwOS4yMDl8Ni45NzM4NQ==)">
    <text x="490.77" y="21.03" style="font-size: 9.96px; fill: #5ECD2E; font-family: Liberation Sans;" textLength="45.95px" lengthAdjust="spacingAndGlyphs">Monocle 2</text>
  </g>
  <polyline points="615.72,161.25 645.17,161.25 645.08,161.25 645.43,161.24 645.77,161.17 646.09,161.04 646.39,160.87 646.66,160.65 646.89,160.39 647.08,160.10 647.22,159.78 647.30,159.44 647.33,159.09 647.33,159.09 647.33,149.36 647.33,149.36 647.30,149.02 647.22,148.68 647.08,148.36 646.89,148.06 646.66,147.80 646.39,147.58 646.09,147.41 645.77,147.29 645.43,147.22 645.17,147.20 615.72,147.20 615.98,147.22 615.64,147.20 615.29,147.25 614.96,147.34 614.64,147.49 614.36,147.69 614.11,147.93 613.90,148.21 613.74,148.52 613.63,148.85 613.57,149.19 613.56,149.36 613.56,159.09 613.57,158.92 613.57,159.27 613.63,159.61 613.74,159.94 613.90,160.25 614.11,160.53 614.36,160.77 614.64,160.96 614.96,161.11 615.29,161.21 615.64,161.25 " style="stroke-width: 0.53; stroke: #AF0DC7; fill: #FFFFFF;" clip-path="url(#cpNi45NzM4NXw3MTMuMDI2fDIwOS4yMDl8Ni45NzM4NQ==)"/>
  <g clip-path="url(#cpNi45NzM4NXw3MTMuMDI2fDIwOS4yMDl8Ni45NzM4NQ==)">
    <text x="617.16" y="157.65" style="font-size: 9.96px; fill: #AF0DC7; font-family: Liberation Sans;" textLength="26.56px" lengthAdjust="spacingAndGlyphs">iCpSc</text>
  </g>
  <polyline points="326.30,167.95 365.15,167.95 365.06,167.95 365.41,167.94 365.75,167.87 366.08,167.74 366.38,167.57 366.65,167.35 366.88,167.09 367.06,166.80 367.20,166.48 367.28,166.14 367.31,165.79 367.31,165.79 367.31,156.06 367.31,156.06 367.28,155.71 367.20,155.38 367.06,155.06 366.88,154.76 366.65,154.50 366.38,154.28 366.08,154.11 365.75,153.99 365.41,153.92 365.15,153.90 326.30,153.90 326.56,153.92 326.21,153.90 325.86,153.94 325.53,154.04 325.22,154.19 324.93,154.39 324.68,154.63 324.47,154.91 324.31,155.21 324.20,155.54 324.14,155.89 324.14,156.06 324.14,165.79 324.14,165.62 324.14,165.97 324.20,166.31 324.31,166.64 324.47,166.95 324.68,167.22 324.93,167.47 325.22,167.66 325.53,167.81 325.86,167.91 326.21,167.95 " style="stroke-width: 0.53; stroke: #5ECD2E; fill: #FFFFFF;" clip-path="url(#cpNi45NzM4NXw3MTMuMDI2fDIwOS4yMDl8Ni45NzM4NQ==)"/>
  <g clip-path="url(#cpNi45NzM4NXw3MTMuMDI2fDIwOS4yMDl8Ni45NzM4NQ==)">
    <text x="327.74" y="164.35" style="font-size: 9.96px; fill: #5ECD2E; font-family: Liberation Sans;" textLength="35.97px" lengthAdjust="spacingAndGlyphs">ECLAIR</text>
  </g>
  <polyline points="607.83,204.84 655.54,204.84 655.45,204.84 655.80,204.83 656.14,204.76 656.47,204.63 656.77,204.46 657.04,204.24 657.27,203.98 657.45,203.69 657.59,203.37 657.67,203.03 657.70,202.68 657.70,202.68 657.70,192.95 657.70,192.95 657.67,192.60 657.59,192.27 657.45,191.95 657.27,191.65 657.04,191.39 656.77,191.17 656.47,191.00 656.14,190.88 655.80,190.81 655.54,190.79 607.83,190.79 608.09,190.81 607.75,190.79 607.40,190.83 607.07,190.93 606.75,191.08 606.47,191.28 606.22,191.52 606.01,191.80 605.84,192.10 605.73,192.43 605.68,192.78 605.67,192.95 605.67,202.68 605.68,202.51 605.68,202.86 605.73,203.20 605.84,203.53 606.01,203.84 606.22,204.11 606.47,204.36 606.75,204.55 607.07,204.70 607.40,204.80 607.75,204.84 " style="stroke-width: 0.53; stroke: #CFBF00; fill: #FFFFFF;" clip-path="url(#cpNi45NzM4NXw3MTMuMDI2fDIwOS4yMDl8Ni45NzM4NQ==)"/>
  <g clip-path="url(#cpNi45NzM4NXw3MTMuMDI2fDIwOS4yMDl8Ni45NzM4NQ==)">
    <text x="609.27" y="201.24" style="font-size: 9.96px; fill: #CFBF00; font-family: Liberation Sans;" textLength="44.83px" lengthAdjust="spacingAndGlyphs">GrandPrix</text>
  </g>
  <polyline points="415.13,61.60 453.43,61.60 453.35,61.60 453.69,61.58 454.03,61.52 454.36,61.39 454.66,61.22 454.93,61.00 455.16,60.74 455.35,60.44 455.48,60.12 455.57,59.79 455.59,59.44 455.59,59.44 455.59,49.71 455.59,49.71 455.57,49.36 455.48,49.03 455.35,48.71 455.16,48.41 454.93,48.15 454.66,47.93 454.36,47.76 454.03,47.63 453.69,47.56 453.43,47.55 415.13,47.55 415.40,47.56 415.05,47.55 414.70,47.59 414.37,47.69 414.05,47.84 413.77,48.04 413.52,48.28 413.31,48.55 413.15,48.86 413.04,49.19 412.98,49.54 412.97,49.71 412.97,59.44 412.98,59.27 412.98,59.61 413.04,59.96 413.15,60.29 413.31,60.59 413.52,60.87 413.77,61.11 414.05,61.31 414.37,61.46 414.70,61.56 415.05,61.60 " style="stroke-width: 0.53; stroke: #5ECD2E; fill: #FFFFFF;" clip-path="url(#cpNi45NzM4NXw3MTMuMDI2fDIwOS4yMDl8Ni45NzM4NQ==)"/>
  <g clip-path="url(#cpNi45NzM4NXw3MTMuMDI2fDIwOS4yMDl8Ni45NzM4NQ==)">
    <text x="416.57" y="58.00" style="font-size: 9.96px; fill: #5ECD2E; font-family: Liberation Sans;" textLength="35.42px" lengthAdjust="spacingAndGlyphs">cellTree</text>
  </g>
  <polyline points="377.90,82.90 414.53,82.90 414.44,82.90 414.79,82.88 415.13,82.81 415.45,82.69 415.75,82.52 416.02,82.30 416.25,82.04 416.44,81.74 416.58,81.42 416.66,81.09 416.69,80.74 416.69,80.74 416.69,71.01 416.69,71.01 416.66,70.66 416.58,70.32 416.44,70.00 416.25,69.71 416.02,69.45 415.75,69.23 415.45,69.06 415.13,68.93 414.79,68.86 414.53,68.85 377.90,68.85 378.16,68.86 377.81,68.85 377.46,68.89 377.13,68.99 376.82,69.14 376.53,69.33 376.28,69.58 376.07,69.85 375.91,70.16 375.80,70.49 375.74,70.83 375.74,71.01 375.74,80.74 375.74,80.57 375.74,80.91 375.80,81.26 375.91,81.59 376.07,81.89 376.28,82.17 376.53,82.41 376.82,82.61 377.13,82.76 377.46,82.86 377.81,82.90 " style="stroke-width: 0.53; stroke: #5ECD2E; fill: #FFFFFF;" clip-path="url(#cpNi45NzM4NXw3MTMuMDI2fDIwOS4yMDl8Ni45NzM4NQ==)"/>
  <g clip-path="url(#cpNi45NzM4NXw3MTMuMDI2fDIwOS4yMDl8Ni45NzM4NQ==)">
    <text x="379.34" y="79.30" style="font-size: 9.96px; fill: #5ECD2E; font-family: Liberation Sans;" textLength="33.75px" lengthAdjust="spacingAndGlyphs">TSCAN</text>
  </g>
  <polyline points="51.90,180.75 100.73,180.75 100.64,180.75 100.99,180.74 101.33,180.67 101.65,180.54 101.95,180.37 102.22,180.15 102.45,179.89 102.64,179.59 102.77,179.27 102.86,178.94 102.89,178.59 102.89,178.59 102.89,168.86 102.89,168.86 102.86,168.51 102.77,168.18 102.64,167.86 102.45,167.56 102.22,167.30 101.95,167.08 101.65,166.91 101.33,166.78 100.99,166.72 100.73,166.70 51.90,166.70 52.16,166.72 51.81,166.70 51.47,166.74 51.13,166.84 50.82,166.99 50.53,167.19 50.28,167.43 50.07,167.71 49.91,168.01 49.80,168.34 49.75,168.69 49.74,168.86 49.74,178.59 49.75,178.42 49.75,178.76 49.80,179.11 49.91,179.44 50.07,179.75 50.28,180.02 50.53,180.26 50.82,180.46 51.13,180.61 51.47,180.71 51.81,180.75 " style="stroke-width: 0.53; stroke: #5ECD2E; fill: #FFFFFF;" clip-path="url(#cpNi45NzM4NXw3MTMuMDI2fDIwOS4yMDl8Ni45NzM4NQ==)"/>
  <g clip-path="url(#cpNi45NzM4NXw3MTMuMDI2fDIwOS4yMDl8Ni45NzM4NQ==)">
    <text x="53.34" y="177.15" style="font-size: 9.96px; fill: #5ECD2E; font-family: Liberation Sans;" textLength="45.95px" lengthAdjust="spacingAndGlyphs">Monocle 1</text>
  </g>
  <polyline points="266.52,184.98 326.43,184.98 326.34,184.98 326.69,184.97 327.03,184.90 327.35,184.78 327.65,184.60 327.92,184.38 328.15,184.12 328.34,183.83 328.48,183.51 328.56,183.17 328.59,182.82 328.59,182.82 328.59,173.09 328.59,173.09 328.56,172.75 328.48,172.41 328.34,172.09 328.15,171.79 327.92,171.53 327.65,171.31 327.35,171.14 327.03,171.02 326.69,170.95 326.43,170.93 266.52,170.93 266.78,170.95 266.44,170.93 266.09,170.98 265.76,171.07 265.44,171.22 265.16,171.42 264.91,171.66 264.70,171.94 264.54,172.25 264.43,172.58 264.37,172.92 264.36,173.09 264.36,182.82 264.37,182.65 264.37,183.00 264.43,183.34 264.54,183.67 264.70,183.98 264.91,184.26 265.16,184.50 265.44,184.69 265.76,184.84 266.09,184.94 266.44,184.98 " style="stroke-width: 0.53; stroke: #AF0DC7; fill: #FFFFFF;" clip-path="url(#cpNi45NzM4NXw3MTMuMDI2fDIwOS4yMDl8Ni45NzM4NQ==)"/>
  <g clip-path="url(#cpNi45NzM4NXw3MTMuMDI2fDIwOS4yMDl8Ni45NzM4NQ==)">
    <text x="267.96" y="181.38" style="font-size: 9.96px; fill: #AF0DC7; font-family: Liberation Sans;" textLength="57.02px" lengthAdjust="spacingAndGlyphs">gpseudotime</text>
  </g>
  <polyline points="387.82,24.63 426.12,24.63 426.03,24.62 426.38,24.61 426.72,24.54 427.04,24.42 427.34,24.24 427.61,24.02 427.84,23.76 428.03,23.47 428.17,23.15 428.25,22.81 428.28,22.47 428.28,22.47 428.28,12.73 428.28,12.73 428.25,12.39 428.17,12.05 428.03,11.73 427.84,11.44 427.61,11.18 427.34,10.96 427.04,10.78 426.72,10.66 426.38,10.59 426.12,10.57 387.82,10.57 388.08,10.59 387.74,10.58 387.39,10.62 387.06,10.71 386.74,10.86 386.46,11.06 386.21,11.30 386.00,11.58 385.84,11.89 385.73,12.22 385.67,12.56 385.66,12.73 385.66,22.47 385.67,22.29 385.67,22.64 385.73,22.98 385.84,23.31 386.00,23.62 386.21,23.90 386.46,24.14 386.74,24.34 387.06,24.48 387.39,24.58 387.74,24.62 " style="stroke-width: 0.53; stroke: #CFBF00; fill: #FFFFFF;" clip-path="url(#cpNi45NzM4NXw3MTMuMDI2fDIwOS4yMDl8Ni45NzM4NQ==)"/>
  <g clip-path="url(#cpNi45NzM4NXw3MTMuMDI2fDIwOS4yMDl8Ni45NzM4NQ==)">
    <text x="389.26" y="21.03" style="font-size: 9.96px; fill: #CFBF00; font-family: Liberation Sans;" textLength="35.41px" lengthAdjust="spacingAndGlyphs">SCOUP</text>
  </g>
  <polyline points="622.01,114.49 681.92,114.49 681.83,114.49 682.18,114.48 682.52,114.41 682.84,114.28 683.14,114.11 683.41,113.89 683.64,113.63 683.83,113.34 683.96,113.02 684.05,112.68 684.08,112.33 684.08,112.33 684.08,102.60 684.08,102.60 684.05,102.25 683.96,101.92 683.83,101.60 683.64,101.30 683.41,101.04 683.14,100.82 682.84,100.65 682.52,100.53 682.18,100.46 681.92,100.44 622.01,100.44 622.27,100.46 621.93,100.44 621.58,100.48 621.25,100.58 620.93,100.73 620.65,100.93 620.40,101.17 620.19,101.45 620.03,101.75 619.92,102.08 619.86,102.43 619.85,102.60 619.85,112.33 619.86,112.16 619.86,112.51 619.92,112.85 620.03,113.18 620.19,113.49 620.40,113.76 620.65,114.00 620.93,114.20 621.25,114.35 621.58,114.45 621.93,114.49 " style="stroke-width: 0.53; stroke: #5ECD2E; fill: #FFFFFF;" clip-path="url(#cpNi45NzM4NXw3MTMuMDI2fDIwOS4yMDl8Ni45NzM4NQ==)"/>
  <g clip-path="url(#cpNi45NzM4NXw3MTMuMDI2fDIwOS4yMDl8Ni45NzM4NQ==)">
    <text x="623.45" y="110.89" style="font-size: 9.96px; fill: #5ECD2E; font-family: Liberation Sans;" textLength="57.02px" lengthAdjust="spacingAndGlyphs">Topographer</text>
  </g>
  <polyline points="498.45,88.26 537.31,88.26 537.22,88.26 537.57,88.24 537.91,88.17 538.23,88.05 538.54,87.88 538.81,87.66 539.04,87.40 539.22,87.10 539.36,86.78 539.44,86.45 539.47,86.10 539.47,86.10 539.47,76.37 539.47,76.37 539.44,76.02 539.36,75.68 539.22,75.36 539.04,75.07 538.81,74.81 538.54,74.59 538.23,74.42 537.91,74.29 537.57,74.22 537.31,74.21 498.45,74.21 498.71,74.22 498.36,74.21 498.02,74.25 497.69,74.35 497.37,74.50 497.08,74.69 496.83,74.94 496.63,75.21 496.46,75.52 496.35,75.85 496.30,76.19 496.29,76.37 496.29,86.10 496.30,85.93 496.30,86.27 496.35,86.62 496.46,86.95 496.63,87.25 496.83,87.53 497.08,87.77 497.37,87.97 497.69,88.12 498.02,88.22 498.36,88.26 " style="stroke-width: 0.53; stroke: #CFBF00; fill: #FFFFFF;" clip-path="url(#cpNi45NzM4NXw3MTMuMDI2fDIwOS4yMDl8Ni45NzM4NQ==)"/>
  <g clip-path="url(#cpNi45NzM4NXw3MTMuMDI2fDIwOS4yMDl8Ni45NzM4NQ==)">
    <text x="499.89" y="84.66" style="font-size: 9.96px; fill: #CFBF00; font-family: Liberation Sans;" textLength="35.98px" lengthAdjust="spacingAndGlyphs">GPfates</text>
  </g>
  <polyline points="429.60,148.91 484.49,148.91 484.41,148.91 484.75,148.89 485.09,148.82 485.42,148.70 485.72,148.52 485.99,148.30 486.22,148.04 486.41,147.75 486.54,147.43 486.62,147.09 486.65,146.75 486.65,146.75 486.65,137.02 486.65,137.02 486.62,136.67 486.54,136.33 486.41,136.01 486.22,135.72 485.99,135.46 485.72,135.24 485.42,135.06 485.09,134.94 484.75,134.87 484.49,134.86 429.60,134.86 429.86,134.87 429.51,134.86 429.17,134.90 428.83,135.00 428.52,135.15 428.23,135.34 427.98,135.58 427.77,135.86 427.61,136.17 427.50,136.50 427.45,136.84 427.44,137.02 427.44,146.75 427.45,146.57 427.45,146.92 427.50,147.26 427.61,147.59 427.77,147.90 427.98,148.18 428.23,148.42 428.52,148.62 428.83,148.77 429.17,148.86 429.51,148.91 " style="stroke-width: 0.53; stroke: #AF0DC7; fill: #FFFFFF;" clip-path="url(#cpNi45NzM4NXw3MTMuMDI2fDIwOS4yMDl8Ni45NzM4NQ==)"/>
  <g clip-path="url(#cpNi45NzM4NXw3MTMuMDI2fDIwOS4yMDl8Ni45NzM4NQ==)">
    <text x="431.04" y="145.31" style="font-size: 9.96px; fill: #AF0DC7; font-family: Liberation Sans;" textLength="52.01px" lengthAdjust="spacingAndGlyphs">SCORPIUS</text>
  </g>
  <polyline points="394.31,100.46 430.39,100.46 430.30,100.46 430.65,100.44 430.99,100.37 431.32,100.25 431.62,100.08 431.89,99.86 432.12,99.60 432.30,99.30 432.44,98.98 432.52,98.64 432.55,98.30 432.55,98.30 432.55,88.57 432.55,88.57 432.52,88.22 432.44,87.88 432.30,87.56 432.12,87.27 431.89,87.01 431.62,86.79 431.32,86.62 430.99,86.49 430.65,86.42 430.39,86.41 394.31,86.41 394.57,86.42 394.22,86.41 393.88,86.45 393.54,86.55 393.23,86.70 392.94,86.89 392.69,87.13 392.48,87.41 392.32,87.72 392.21,88.05 392.16,88.39 392.15,88.57 392.15,98.30 392.16,98.12 392.16,98.47 392.21,98.81 392.32,99.14 392.48,99.45 392.69,99.73 392.94,99.97 393.23,100.17 393.54,100.32 393.88,100.41 394.22,100.46 " style="stroke-width: 0.53; stroke: #5ECD2E; fill: #FFFFFF;" clip-path="url(#cpNi45NzM4NXw3MTMuMDI2fDIwOS4yMDl8Ni45NzM4NQ==)"/>
  <g clip-path="url(#cpNi45NzM4NXw3MTMuMDI2fDIwOS4yMDl8Ni45NzM4NQ==)">
    <text x="395.75" y="96.86" style="font-size: 9.96px; fill: #5ECD2E; font-family: Liberation Sans;" textLength="33.20px" lengthAdjust="spacingAndGlyphs">StemID</text>
  </g>
  <polyline points="400.80,40.93 431.35,40.93 431.27,40.93 431.61,40.91 431.96,40.84 432.28,40.72 432.58,40.55 432.85,40.33 433.08,40.07 433.27,39.77 433.40,39.45 433.49,39.11 433.51,38.77 433.51,38.77 433.51,29.04 433.51,29.04 433.49,28.69 433.40,28.35 433.27,28.03 433.08,27.74 432.85,27.48 432.58,27.26 432.28,27.09 431.96,26.96 431.61,26.89 431.35,26.88 400.80,26.88 401.06,26.89 400.71,26.88 400.36,26.92 400.03,27.02 399.72,27.17 399.43,27.36 399.18,27.60 398.97,27.88 398.81,28.19 398.70,28.52 398.64,28.86 398.64,29.04 398.64,38.77 398.64,38.59 398.64,38.94 398.70,39.29 398.81,39.61 398.97,39.92 399.18,40.20 399.43,40.44 399.72,40.64 400.03,40.79 400.36,40.88 400.71,40.93 " style="stroke-width: 0.53; stroke: #5ECD2E; fill: #FFFFFF;" clip-path="url(#cpNi45NzM4NXw3MTMuMDI2fDIwOS4yMDl8Ni45NzM4NQ==)"/>
  <g clip-path="url(#cpNi45NzM4NXw3MTMuMDI2fDIwOS4yMDl8Ni45NzM4NQ==)">
    <text x="402.24" y="37.33" style="font-size: 9.96px; fill: #5ECD2E; font-family: Liberation Sans;" textLength="27.68px" lengthAdjust="spacingAndGlyphs">Mpath</text>
  </g>
  <polyline points="409.88,167.51 462.00,167.51 461.92,167.51 462.26,167.50 462.60,167.43 462.93,167.30 463.23,167.13 463.50,166.91 463.73,166.65 463.92,166.36 464.05,166.04 464.14,165.70 464.16,165.35 464.16,165.35 464.16,155.62 464.16,155.62 464.14,155.27 464.05,154.94 463.92,154.62 463.73,154.32 463.50,154.06 463.23,153.84 462.93,153.67 462.60,153.55 462.26,153.48 462.00,153.46 409.88,153.46 410.14,153.48 409.79,153.46 409.44,153.50 409.11,153.60 408.80,153.75 408.51,153.95 408.26,154.19 408.05,154.47 407.89,154.77 407.78,155.10 407.72,155.45 407.72,155.62 407.72,165.35 407.72,165.18 407.72,165.53 407.78,165.87 407.89,166.20 408.05,166.51 408.26,166.78 408.51,167.03 408.80,167.22 409.11,167.37 409.44,167.47 409.79,167.51 " style="stroke-width: 0.53; stroke: #AF0DC7; fill: #FFFFFF;" clip-path="url(#cpNi45NzM4NXw3MTMuMDI2fDIwOS4yMDl8Ni45NzM4NQ==)"/>
  <g clip-path="url(#cpNi45NzM4NXw3MTMuMDI2fDIwOS4yMDl8Ni45NzM4NQ==)">
    <text x="411.32" y="163.91" style="font-size: 9.96px; fill: #AF0DC7; font-family: Liberation Sans;" textLength="49.25px" lengthAdjust="spacingAndGlyphs">WaveCrest</text>
  </g>
  <polyline points="633.91,183.03 678.30,183.03 678.21,183.03 678.56,183.01 678.90,182.94 679.22,182.82 679.52,182.65 679.79,182.43 680.02,182.17 680.21,181.87 680.34,181.55 680.43,181.22 680.46,180.87 680.46,180.87 680.46,171.14 680.46,171.14 680.43,170.79 680.34,170.45 680.21,170.13 680.02,169.84 679.79,169.58 679.52,169.36 679.22,169.19 678.90,169.06 678.56,168.99 678.30,168.98 633.91,168.98 634.17,168.99 633.82,168.98 633.48,169.02 633.14,169.12 632.83,169.27 632.54,169.46 632.29,169.71 632.08,169.98 631.92,170.29 631.81,170.62 631.76,170.96 631.75,171.14 631.75,180.87 631.76,180.70 631.76,181.04 631.81,181.39 631.92,181.72 632.08,182.02 632.29,182.30 632.54,182.54 632.83,182.74 633.14,182.89 633.48,182.99 633.82,183.03 " style="stroke-width: 0.53; stroke: #FF8821; fill: #FFFFFF;" clip-path="url(#cpNi45NzM4NXw3MTMuMDI2fDIwOS4yMDl8Ni45NzM4NQ==)"/>
  <g clip-path="url(#cpNi45NzM4NXw3MTMuMDI2fDIwOS4yMDl8Ni45NzM4NQ==)">
    <text x="635.35" y="179.43" style="font-size: 9.96px; fill: #FF8821; font-family: Liberation Sans;" textLength="41.51px" lengthAdjust="spacingAndGlyphs">CALISTA</text>
  </g>
  <polyline points="362.71,62.45 401.57,62.45 401.48,62.45 401.83,62.43 402.17,62.36 402.49,62.24 402.79,62.07 403.06,61.85 403.29,61.59 403.48,61.29 403.62,60.97 403.70,60.63 403.73,60.29 403.73,60.29 403.73,50.56 403.73,50.56 403.70,50.21 403.62,49.87 403.48,49.55 403.29,49.26 403.06,49.00 402.79,48.78 402.49,48.61 402.17,48.48 401.83,48.41 401.57,48.40 362.71,48.40 362.97,48.41 362.63,48.40 362.28,48.44 361.95,48.54 361.63,48.69 361.35,48.88 361.10,49.12 360.89,49.40 360.73,49.71 360.62,50.04 360.56,50.38 360.55,50.56 360.55,60.29 360.56,60.11 360.56,60.46 360.62,60.81 360.73,61.13 360.89,61.44 361.10,61.72 361.35,61.96 361.63,62.16 361.95,62.31 362.28,62.40 362.63,62.45 " style="stroke-width: 0.53; stroke: #FF8821; fill: #FFFFFF;" clip-path="url(#cpNi45NzM4NXw3MTMuMDI2fDIwOS4yMDl8Ni45NzM4NQ==)"/>
  <g clip-path="url(#cpNi45NzM4NXw3MTMuMDI2fDIwOS4yMDl8Ni45NzM4NQ==)">
    <text x="364.15" y="58.85" style="font-size: 9.96px; fill: #FF8821; font-family: Liberation Sans;" textLength="35.97px" lengthAdjust="spacingAndGlyphs">SLICER</text>
  </g>
  <polyline points="546.75,149.36 578.40,149.36 578.31,149.36 578.66,149.35 579.00,149.28 579.33,149.16 579.63,148.98 579.90,148.76 580.13,148.50 580.31,148.21 580.45,147.89 580.53,147.55 580.56,147.20 580.56,147.20 580.56,137.47 580.56,137.47 580.53,137.13 580.45,136.79 580.31,136.47 580.13,136.17 579.90,135.91 579.63,135.69 579.33,135.52 579.00,135.40 578.66,135.33 578.40,135.31 546.75,135.31 547.01,135.33 546.66,135.31 546.32,135.36 545.98,135.45 545.67,135.60 545.38,135.80 545.13,136.04 544.92,136.32 544.76,136.63 544.65,136.96 544.60,137.30 544.59,137.47 544.59,147.20 544.60,147.03 544.60,147.38 544.65,147.72 544.76,148.05 544.92,148.36 545.13,148.64 545.38,148.88 545.67,149.07 545.98,149.22 546.32,149.32 546.66,149.36 " style="stroke-width: 0.53; stroke: #39CCCC; fill: #FFFFFF;" clip-path="url(#cpNi45NzM4NXw3MTMuMDI2fDIwOS4yMDl8Ni45NzM4NQ==)"/>
  <g clip-path="url(#cpNi45NzM4NXw3MTMuMDI2fDIwOS4yMDl8Ni45NzM4NQ==)">
    <text x="548.19" y="145.76" style="font-size: 9.96px; fill: #39CCCC; font-family: Liberation Sans;" textLength="28.77px" lengthAdjust="spacingAndGlyphs">reCAT</text>
  </g>
  <polyline points="516.24,42.45 558.42,42.45 558.34,42.45 558.68,42.44 559.02,42.37 559.35,42.24 559.65,42.07 559.92,41.85 560.15,41.59 560.33,41.30 560.47,40.98 560.55,40.64 560.58,40.29 560.58,40.29 560.58,30.56 560.58,30.56 560.55,30.22 560.47,29.88 560.33,29.56 560.15,29.26 559.92,29.00 559.65,28.78 559.35,28.61 559.02,28.49 558.68,28.42 558.42,28.40 516.24,28.40 516.50,28.42 516.15,28.40 515.81,28.45 515.47,28.54 515.16,28.69 514.87,28.89 514.62,29.13 514.41,29.41 514.25,29.71 514.14,30.04 514.09,30.39 514.08,30.56 514.08,40.29 514.09,40.12 514.09,40.47 514.14,40.81 514.25,41.14 514.41,41.45 514.62,41.73 514.87,41.97 515.16,42.16 515.47,42.31 515.81,42.41 516.15,42.45 " style="stroke-width: 0.53; stroke: #5ECD2E; fill: #FFFFFF;" clip-path="url(#cpNi45NzM4NXw3MTMuMDI2fDIwOS4yMDl8Ni45NzM4NQ==)"/>
  <g clip-path="url(#cpNi45NzM4NXw3MTMuMDI2fDIwOS4yMDl8Ni45NzM4NQ==)">
    <text x="517.68" y="38.85" style="font-size: 9.96px; fill: #5ECD2E; font-family: Liberation Sans;" textLength="39.30px" lengthAdjust="spacingAndGlyphs">slingshot</text>
  </g>
  <polyline points="543.53,98.75 595.69,98.75 595.60,98.75 595.95,98.74 596.29,98.67 596.62,98.54 596.92,98.37 597.19,98.15 597.42,97.89 597.60,97.60 597.74,97.28 597.82,96.94 597.85,96.59 597.85,96.59 597.85,86.86 597.85,86.86 597.82,86.52 597.74,86.18 597.60,85.86 597.42,85.56 597.19,85.30 596.92,85.08 596.62,84.91 596.29,84.79 595.95,84.72 595.69,84.70 543.53,84.70 543.79,84.72 543.44,84.70 543.10,84.75 542.76,84.84 542.45,84.99 542.16,85.19 541.91,85.43 541.70,85.71 541.54,86.01 541.43,86.34 541.38,86.69 541.37,86.86 541.37,96.59 541.38,96.42 541.38,96.77 541.43,97.11 541.54,97.44 541.70,97.75 541.91,98.03 542.16,98.27 542.45,98.46 542.76,98.61 543.10,98.71 543.44,98.75 " style="stroke-width: 0.53; stroke: #AF0DC7; fill: #FFFFFF;" clip-path="url(#cpNi45NzM4NXw3MTMuMDI2fDIwOS4yMDl8Ni45NzM4NQ==)"/>
  <g clip-path="url(#cpNi45NzM4NXw3MTMuMDI2fDIwOS4yMDl8Ni45NzM4NQ==)">
    <text x="544.97" y="95.15" style="font-size: 9.96px; fill: #AF0DC7; font-family: Liberation Sans;" textLength="49.28px" lengthAdjust="spacingAndGlyphs">PhenoPath</text>
  </g>
  <polyline points="372.94,111.48 399.62,111.48 399.53,111.48 399.88,111.46 400.22,111.39 400.54,111.27 400.84,111.10 401.11,110.88 401.34,110.62 401.53,110.32 401.67,110.00 401.75,109.67 401.78,109.32 401.78,109.32 401.78,99.59 401.78,99.59 401.75,99.24 401.67,98.90 401.53,98.58 401.34,98.29 401.11,98.03 400.84,97.81 400.54,97.64 400.22,97.51 399.88,97.44 399.62,97.43 372.94,97.43 373.20,97.44 372.85,97.43 372.51,97.47 372.17,97.57 371.86,97.72 371.57,97.91 371.32,98.16 371.11,98.43 370.95,98.74 370.84,99.07 370.79,99.41 370.78,99.59 370.78,109.32 370.79,109.15 370.79,109.49 370.84,109.84 370.95,110.17 371.11,110.47 371.32,110.75 371.57,110.99 371.86,111.19 372.17,111.34 372.51,111.44 372.85,111.48 " style="stroke-width: 0.53; stroke: #AF0DC7; fill: #FFFFFF;" clip-path="url(#cpNi45NzM4NXw3MTMuMDI2fDIwOS4yMDl8Ni45NzM4NQ==)"/>
  <g clip-path="url(#cpNi45NzM4NXw3MTMuMDI2fDIwOS4yMDl8Ni45NzM4NQ==)">
    <text x="374.38" y="107.88" style="font-size: 9.96px; fill: #AF0DC7; font-family: Liberation Sans;" textLength="23.80px" lengthAdjust="spacingAndGlyphs">SCell</text>
  </g>
  <polyline points="368.08,149.98 415.24,149.98 415.15,149.98 415.50,149.96 415.84,149.89 416.17,149.77 416.47,149.60 416.74,149.38 416.97,149.12 417.15,148.82 417.29,148.50 417.37,148.17 417.40,147.82 417.40,147.82 417.40,138.09 417.40,138.09 417.37,137.74 417.29,137.40 417.15,137.08 416.97,136.79 416.74,136.53 416.47,136.31 416.17,136.14 415.84,136.01 415.50,135.94 415.24,135.93 368.08,135.93 368.34,135.94 367.99,135.93 367.65,135.97 367.31,136.07 367.00,136.22 366.71,136.41 366.46,136.66 366.25,136.93 366.09,137.24 365.98,137.57 365.92,137.91 365.92,138.09 365.92,147.82 365.92,147.65 365.92,147.99 365.98,148.34 366.09,148.67 366.25,148.97 366.46,149.25 366.71,149.49 367.00,149.69 367.31,149.84 367.65,149.94 367.99,149.98 " style="stroke-width: 0.53; stroke: #0073D7; fill: #FFFFFF;" clip-path="url(#cpNi45NzM4NXw3MTMuMDI2fDIwOS4yMDl8Ni45NzM4NQ==)"/>
  <g clip-path="url(#cpNi45NzM4NXw3MTMuMDI2fDIwOS4yMDl8Ni45NzM4NQ==)">
    <text x="369.52" y="146.38" style="font-size: 9.96px; fill: #0073D7; font-family: Liberation Sans;" textLength="44.28px" lengthAdjust="spacingAndGlyphs">Wishbone</text>
  </g>
  <polyline points="357.17,203.76 403.80,203.76 403.71,203.76 404.06,203.75 404.40,203.68 404.73,203.56 405.03,203.38 405.30,203.16 405.53,202.90 405.71,202.61 405.85,202.29 405.93,201.95 405.96,201.60 405.96,201.60 405.96,191.87 405.96,191.87 405.93,191.53 405.85,191.19 405.71,190.87 405.53,190.58 405.30,190.32 405.03,190.10 404.73,189.92 404.40,189.80 404.06,189.73 403.80,189.71 357.17,189.71 357.43,189.73 357.08,189.71 356.74,189.76 356.41,189.85 356.09,190.00 355.80,190.20 355.55,190.44 355.35,190.72 355.18,191.03 355.07,191.36 355.02,191.70 355.01,191.87 355.01,201.60 355.02,201.43 355.02,201.78 355.07,202.12 355.18,202.45 355.35,202.76 355.55,203.04 355.80,203.28 356.09,203.47 356.41,203.62 356.74,203.72 357.08,203.76 " style="stroke-width: 0.53; stroke: #AF0DC7; fill: #FFFFFF;" clip-path="url(#cpNi45NzM4NXw3MTMuMDI2fDIwOS4yMDl8Ni45NzM4NQ==)"/>
  <g clip-path="url(#cpNi45NzM4NXw3MTMuMDI2fDIwOS4yMDl8Ni45NzM4NQ==)">
    <text x="358.61" y="200.16" style="font-size: 9.96px; fill: #AF0DC7; font-family: Liberation Sans;" textLength="43.75px" lengthAdjust="spacingAndGlyphs">pseudogp</text>
  </g>
  <polyline points="490.58,131.15 537.73,131.15 537.65,131.15 537.99,131.13 538.34,131.06 538.66,130.94 538.96,130.77 539.23,130.55 539.46,130.29 539.65,129.99 539.78,129.67 539.87,129.34 539.89,128.99 539.89,128.99 539.89,119.26 539.89,119.26 539.87,118.91 539.78,118.57 539.65,118.25 539.46,117.96 539.23,117.70 538.96,117.48 538.66,117.31 538.34,117.18 537.99,117.11 537.73,117.10 490.58,117.10 490.84,117.11 490.49,117.10 490.14,117.14 489.81,117.24 489.50,117.39 489.21,117.59 488.96,117.83 488.75,118.10 488.59,118.41 488.48,118.74 488.42,119.08 488.42,119.26 488.42,128.99 488.42,128.82 488.42,129.16 488.48,129.51 488.59,129.84 488.75,130.14 488.96,130.42 489.21,130.66 489.50,130.86 489.81,131.01 490.14,131.11 490.49,131.15 " style="stroke-width: 0.53; stroke: #5ECD2E; fill: #FFFFFF;" clip-path="url(#cpNi45NzM4NXw3MTMuMDI2fDIwOS4yMDl8Ni45NzM4NQ==)"/>
  <g clip-path="url(#cpNi45NzM4NXw3MTMuMDI2fDIwOS4yMDl8Ni45NzM4NQ==)">
    <text x="492.02" y="127.55" style="font-size: 9.96px; fill: #5ECD2E; font-family: Liberation Sans;" textLength="44.28px" lengthAdjust="spacingAndGlyphs">Granatum</text>
  </g>
  <polyline points="515.02,112.22 547.23,112.22 547.14,112.22 547.49,112.21 547.83,112.14 548.15,112.02 548.45,111.84 548.72,111.62 548.95,111.36 549.14,111.07 549.27,110.75 549.36,110.41 549.39,110.06 549.39,110.06 549.39,100.33 549.39,100.33 549.36,99.99 549.27,99.65 549.14,99.33 548.95,99.04 548.72,98.77 548.45,98.56 548.15,98.38 547.83,98.26 547.49,98.19 547.23,98.17 515.02,98.17 515.28,98.19 514.93,98.17 514.59,98.22 514.25,98.31 513.94,98.46 513.65,98.66 513.40,98.90 513.19,99.18 513.03,99.49 512.92,99.82 512.87,100.16 512.86,100.33 512.86,110.06 512.87,109.89 512.87,110.24 512.92,110.58 513.03,110.91 513.19,111.22 513.40,111.50 513.65,111.74 513.94,111.93 514.25,112.08 514.59,112.18 514.93,112.22 " style="stroke-width: 0.53; stroke: #5ECD2E; fill: #FFFFFF;" clip-path="url(#cpNi45NzM4NXw3MTMuMDI2fDIwOS4yMDl8Ni45NzM4NQ==)"/>
  <g clip-path="url(#cpNi45NzM4NXw3MTMuMDI2fDIwOS4yMDl8Ni45NzM4NQ==)">
    <text x="516.46" y="108.62" style="font-size: 9.96px; fill: #5ECD2E; font-family: Liberation Sans;" textLength="29.33px" lengthAdjust="spacingAndGlyphs">TASIC</text>
  </g>
  <polyline points="400.11,128.38 426.24,128.38 426.16,128.37 426.50,128.36 426.84,128.29 427.17,128.17 427.47,127.99 427.74,127.77 427.97,127.51 428.15,127.22 428.29,126.90 428.37,126.56 428.40,126.22 428.40,126.22 428.40,116.49 428.40,116.49 428.37,116.14 428.29,115.80 428.15,115.48 427.97,115.19 427.74,114.93 427.47,114.71 427.17,114.53 426.84,114.41 426.50,114.34 426.24,114.33 400.11,114.33 400.37,114.34 400.03,114.33 399.68,114.37 399.35,114.47 399.03,114.61 398.75,114.81 398.50,115.05 398.29,115.33 398.13,115.64 398.02,115.97 397.96,116.31 397.95,116.49 397.95,126.22 397.96,126.04 397.96,126.39 398.02,126.73 398.13,127.06 398.29,127.37 398.50,127.65 398.75,127.89 399.03,128.09 399.35,128.24 399.68,128.33 400.03,128.37 " style="stroke-width: 0.53; stroke: #AF0DC7; fill: #FFFFFF;" clip-path="url(#cpNi45NzM4NXw3MTMuMDI2fDIwOS4yMDl8Ni45NzM4NQ==)"/>
  <g clip-path="url(#cpNi45NzM4NXw3MTMuMDI2fDIwOS4yMDl8Ni45NzM4NQ==)">
    <text x="401.55" y="124.78" style="font-size: 9.96px; fill: #AF0DC7; font-family: Liberation Sans;" textLength="23.25px" lengthAdjust="spacingAndGlyphs">Ouija</text>
  </g>
  <polyline points="239.68,204.91 271.33,204.91 271.24,204.91 271.59,204.89 271.93,204.82 272.26,204.70 272.56,204.53 272.83,204.31 273.06,204.05 273.24,203.75 273.38,203.43 273.46,203.10 273.49,202.75 273.49,202.75 273.49,193.02 273.49,193.02 273.46,192.67 273.38,192.33 273.24,192.01 273.06,191.72 272.83,191.46 272.56,191.24 272.26,191.07 271.93,190.94 271.59,190.87 271.33,190.86 239.68,190.86 239.94,190.87 239.59,190.86 239.25,190.90 238.91,191.00 238.60,191.15 238.31,191.35 238.06,191.59 237.85,191.86 237.69,192.17 237.58,192.50 237.53,192.84 237.52,193.02 237.52,202.75 237.53,202.58 237.53,202.92 237.58,203.27 237.69,203.60 237.85,203.90 238.06,204.18 238.31,204.42 238.60,204.62 238.91,204.77 239.25,204.87 239.59,204.91 " style="stroke-width: 0.53; stroke: #AF0DC7; fill: #FFFFFF;" clip-path="url(#cpNi45NzM4NXw3MTMuMDI2fDIwOS4yMDl8Ni45NzM4NQ==)"/>
  <g clip-path="url(#cpNi45NzM4NXw3MTMuMDI2fDIwOS4yMDl8Ni45NzM4NQ==)">
    <text x="241.12" y="201.31" style="font-size: 9.96px; fill: #AF0DC7; font-family: Liberation Sans;" textLength="28.77px" lengthAdjust="spacingAndGlyphs">NBOR</text>
  </g>
  <polyline points="566.46,117.75 600.90,117.75 600.81,117.75 601.16,117.74 601.50,117.67 601.82,117.55 602.12,117.37 602.39,117.15 602.62,116.89 602.81,116.60 602.95,116.28 603.03,115.94 603.06,115.59 603.06,115.59 603.06,105.86 603.06,105.86 603.03,105.52 602.95,105.18 602.81,104.86 602.62,104.57 602.39,104.31 602.12,104.09 601.82,103.91 601.50,103.79 601.16,103.72 600.90,103.70 566.46,103.70 566.72,103.72 566.38,103.71 566.03,103.75 565.70,103.84 565.38,103.99 565.10,104.19 564.85,104.43 564.64,104.71 564.48,105.02 564.37,105.35 564.31,105.69 564.30,105.86 564.30,115.59 564.31,115.42 564.31,115.77 564.37,116.11 564.48,116.44 564.64,116.75 564.85,117.03 565.10,117.27 565.38,117.47 565.70,117.61 566.03,117.71 566.38,117.75 " style="stroke-width: 0.53; stroke: #0073D7; fill: #FFFFFF;" clip-path="url(#cpNi45NzM4NXw3MTMuMDI2fDIwOS4yMDl8Ni45NzM4NQ==)"/>
  <g clip-path="url(#cpNi45NzM4NXw3MTMuMDI2fDIwOS4yMDl8Ni45NzM4NQ==)">
    <text x="567.90" y="114.15" style="font-size: 9.96px; fill: #0073D7; font-family: Liberation Sans;" textLength="31.55px" lengthAdjust="spacingAndGlyphs">scanpy</text>
  </g>
  <polyline points="510.90,153.85 534.80,153.85 534.71,153.85 535.06,153.84 535.40,153.77 535.72,153.65 536.02,153.47 536.29,153.25 536.52,152.99 536.71,152.70 536.85,152.38 536.93,152.04 536.96,151.69 536.96,151.69 536.96,141.96 536.96,141.96 536.93,141.62 536.85,141.28 536.71,140.96 536.52,140.67 536.29,140.41 536.02,140.19 535.72,140.01 535.40,139.89 535.06,139.82 534.80,139.80 510.90,139.80 511.16,139.82 510.81,139.80 510.46,139.85 510.13,139.94 509.82,140.09 509.53,140.29 509.28,140.53 509.07,140.81 508.91,141.12 508.80,141.45 508.74,141.79 508.74,141.96 508.74,151.69 508.74,151.52 508.74,151.87 508.80,152.21 508.91,152.54 509.07,152.85 509.28,153.13 509.53,153.37 509.82,153.56 510.13,153.71 510.46,153.81 510.81,153.85 " style="stroke-width: 0.53; stroke: #CFBF00; fill: #FFFFFF;" clip-path="url(#cpNi45NzM4NXw3MTMuMDI2fDIwOS4yMDl8Ni45NzM4NQ==)"/>
  <g clip-path="url(#cpNi45NzM4NXw3MTMuMDI2fDIwOS4yMDl8Ni45NzM4NQ==)">
    <text x="512.34" y="150.25" style="font-size: 9.96px; fill: #CFBF00; font-family: Liberation Sans;" textLength="21.02px" lengthAdjust="spacingAndGlyphs">MFA</text>
  </g>
  <polyline points="387.39,185.33 434.00,185.33 433.92,185.33 434.26,185.32 434.61,185.25 434.93,185.12 435.23,184.95 435.50,184.73 435.73,184.47 435.92,184.18 436.05,183.86 436.14,183.52 436.16,183.17 436.16,183.17 436.16,173.44 436.16,173.44 436.14,173.10 436.05,172.76 435.92,172.44 435.73,172.14 435.50,171.88 435.23,171.66 434.93,171.49 434.61,171.37 434.26,171.30 434.00,171.28 387.39,171.28 387.65,171.30 387.30,171.28 386.95,171.33 386.62,171.42 386.31,171.57 386.02,171.77 385.77,172.01 385.56,172.29 385.40,172.60 385.29,172.93 385.23,173.27 385.23,173.44 385.23,183.17 385.23,183.00 385.23,183.35 385.29,183.69 385.40,184.02 385.56,184.33 385.77,184.61 386.02,184.85 386.31,185.04 386.62,185.19 386.95,185.29 387.30,185.33 " style="stroke-width: 0.53; stroke: #AF0DC7; fill: #FFFFFF;" clip-path="url(#cpNi45NzM4NXw3MTMuMDI2fDIwOS4yMDl8Ni45NzM4NQ==)"/>
  <g clip-path="url(#cpNi45NzM4NXw3MTMuMDI2fDIwOS4yMDl8Ni45NzM4NQ==)">
    <text x="388.83" y="181.73" style="font-size: 9.96px; fill: #AF0DC7; font-family: Liberation Sans;" textLength="43.74px" lengthAdjust="spacingAndGlyphs">DeLorean</text>
  </g>
  <polyline points="59.21,202.81 112.45,202.81 112.37,202.81 112.71,202.80 113.06,202.73 113.38,202.60 113.68,202.43 113.95,202.21 114.18,201.95 114.37,201.66 114.50,201.34 114.59,201.00 114.61,200.65 114.61,200.65 114.61,190.92 114.61,190.92 114.59,190.57 114.50,190.24 114.37,189.92 114.18,189.62 113.95,189.36 113.68,189.14 113.38,188.97 113.06,188.85 112.71,188.78 112.45,188.76 59.21,188.76 59.47,188.78 59.12,188.76 58.78,188.80 58.44,188.90 58.13,189.05 57.84,189.25 57.59,189.49 57.38,189.77 57.22,190.07 57.11,190.40 57.06,190.75 57.05,190.92 57.05,200.65 57.06,200.48 57.06,200.83 57.11,201.17 57.22,201.50 57.38,201.81 57.59,202.08 57.84,202.33 58.13,202.52 58.44,202.67 58.78,202.77 59.12,202.81 " style="stroke-width: 0.53; stroke: #AF0DC7; fill: #FFFFFF;" clip-path="url(#cpNi45NzM4NXw3MTMuMDI2fDIwOS4yMDl8Ni45NzM4NQ==)"/>
  <g clip-path="url(#cpNi45NzM4NXw3MTMuMDI2fDIwOS4yMDl8Ni45NzM4NQ==)">
    <text x="60.65" y="199.21" style="font-size: 9.96px; fill: #AF0DC7; font-family: Liberation Sans;" textLength="50.37px" lengthAdjust="spacingAndGlyphs">Wanderlust</text>
  </g>
  <polyline points="550.44,163.91 593.74,163.91 593.66,163.91 594.00,163.89 594.35,163.82 594.67,163.70 594.97,163.53 595.24,163.31 595.47,163.05 595.66,162.75 595.79,162.43 595.88,162.10 595.90,161.75 595.90,161.75 595.90,152.02 595.90,152.02 595.88,151.67 595.79,151.33 595.66,151.02 595.47,150.72 595.24,150.46 594.97,150.24 594.67,150.07 594.35,149.94 594.00,149.87 593.74,149.86 550.44,149.86 550.70,149.87 550.35,149.86 550.01,149.90 549.68,150.00 549.36,150.15 549.08,150.35 548.83,150.59 548.62,150.86 548.45,151.17 548.34,151.50 548.29,151.85 548.28,152.02 548.28,161.75 548.29,161.58 548.29,161.92 548.34,162.27 548.45,162.60 548.62,162.90 548.83,163.18 549.08,163.42 549.36,163.62 549.68,163.77 550.01,163.87 550.35,163.91 " style="stroke-width: 0.53; stroke: #AF0DC7; fill: #FFFFFF;" clip-path="url(#cpNi45NzM4NXw3MTMuMDI2fDIwOS4yMDl8Ni45NzM4NQ==)"/>
  <g clip-path="url(#cpNi45NzM4NXw3MTMuMDI2fDIwOS4yMDl8Ni45NzM4NQ==)">
    <text x="551.88" y="160.31" style="font-size: 9.96px; fill: #AF0DC7; font-family: Liberation Sans;" textLength="40.42px" lengthAdjust="spacingAndGlyphs">HopLand</text>
  </g>
  <polyline points="525.92,176.45 558.67,176.45 558.59,176.44 558.93,176.43 559.28,176.36 559.60,176.24 559.90,176.06 560.17,175.84 560.40,175.58 560.59,175.29 560.72,174.97 560.81,174.63 560.83,174.29 560.83,174.29 560.83,164.55 560.83,164.55 560.81,164.21 560.72,163.87 560.59,163.55 560.40,163.26 560.17,163.00 559.90,162.78 559.60,162.60 559.28,162.48 558.93,162.41 558.67,162.39 525.92,162.39 526.18,162.41 525.83,162.40 525.49,162.44 525.15,162.53 524.84,162.68 524.55,162.88 524.30,163.12 524.09,163.40 523.93,163.71 523.82,164.04 523.77,164.38 523.76,164.55 523.76,174.29 523.77,174.11 523.77,174.46 523.82,174.80 523.93,175.13 524.09,175.44 524.30,175.72 524.55,175.96 524.84,176.16 525.15,176.31 525.49,176.40 525.83,176.44 " style="stroke-width: 0.53; stroke: #AF0DC7; fill: #FFFFFF;" clip-path="url(#cpNi45NzM4NXw3MTMuMDI2fDIwOS4yMDl8Ni45NzM4NQ==)"/>
  <g clip-path="url(#cpNi45NzM4NXw3MTMuMDI2fDIwOS4yMDl8Ni45NzM4NQ==)">
    <text x="527.36" y="172.85" style="font-size: 9.96px; fill: #AF0DC7; font-family: Liberation Sans;" textLength="29.88px" lengthAdjust="spacingAndGlyphs">scTDA</text>
  </g>
  <polyline points="568.14,185.51 590.95,185.51 590.86,185.51 591.21,185.49 591.55,185.43 591.87,185.30 592.17,185.13 592.44,184.91 592.67,184.65 592.86,184.35 592.99,184.03 593.08,183.70 593.11,183.35 593.11,183.35 593.11,173.62 593.11,173.62 593.08,173.27 592.99,172.94 592.86,172.62 592.67,172.32 592.44,172.06 592.17,171.84 591.87,171.67 591.55,171.54 591.21,171.48 590.95,171.46 568.14,171.46 568.40,171.48 568.05,171.46 567.71,171.50 567.37,171.60 567.06,171.75 566.77,171.95 566.52,172.19 566.31,172.46 566.15,172.77 566.04,173.10 565.99,173.45 565.98,173.62 565.98,183.35 565.99,183.18 565.99,183.52 566.04,183.87 566.15,184.20 566.31,184.51 566.52,184.78 566.77,185.02 567.06,185.22 567.37,185.37 567.71,185.47 568.05,185.51 " style="stroke-width: 0.53; stroke: #CFBF00; fill: #FFFFFF;" clip-path="url(#cpNi45NzM4NXw3MTMuMDI2fDIwOS4yMDl8Ni45NzM4NQ==)"/>
  <g clip-path="url(#cpNi45NzM4NXw3MTMuMDI2fDIwOS4yMDl8Ni45NzM4NQ==)">
    <text x="569.58" y="181.91" style="font-size: 9.96px; fill: #CFBF00; font-family: Liberation Sans;" textLength="19.93px" lengthAdjust="spacingAndGlyphs">PBA</text>
  </g>
  <polyline points="170.70,205.31 207.89,205.31 207.80,205.31 208.15,205.30 208.49,205.23 208.81,205.10 209.11,204.93 209.38,204.71 209.61,204.45 209.80,204.16 209.93,203.84 210.02,203.50 210.05,203.15 210.05,203.15 210.05,193.42 210.05,193.42 210.02,193.08 209.93,192.74 209.80,192.42 209.61,192.12 209.38,191.86 209.11,191.64 208.81,191.47 208.49,191.35 208.15,191.28 207.89,191.26 170.70,191.26 170.96,191.28 170.61,191.26 170.26,191.31 169.93,191.40 169.62,191.55 169.33,191.75 169.08,191.99 168.87,192.27 168.71,192.58 168.60,192.91 168.54,193.25 168.54,193.42 168.54,203.15 168.54,202.98 168.54,203.33 168.60,203.67 168.71,204.00 168.87,204.31 169.08,204.59 169.33,204.83 169.62,205.02 169.93,205.17 170.26,205.27 170.61,205.31 " style="stroke-width: 0.53; stroke: #5ECD2E; fill: #FFFFFF;" clip-path="url(#cpNi45NzM4NXw3MTMuMDI2fDIwOS4yMDl8Ni45NzM4NQ==)"/>
  <g clip-path="url(#cpNi45NzM4NXw3MTMuMDI2fDIwOS4yMDl8Ni45NzM4NQ==)">
    <text x="172.14" y="201.71" style="font-size: 9.96px; fill: #5ECD2E; font-family: Liberation Sans;" textLength="34.31px" lengthAdjust="spacingAndGlyphs">SCUBA</text>
  </g>
  <polyline points="532.52,200.94 576.90,200.94 576.81,200.93 577.16,200.92 577.50,200.85 577.83,200.73 578.13,200.55 578.40,200.33 578.63,200.07 578.81,199.78 578.95,199.46 579.03,199.12 579.06,198.78 579.06,198.78 579.06,189.04 579.06,189.04 579.03,188.70 578.95,188.36 578.81,188.04 578.63,187.75 578.40,187.49 578.13,187.27 577.83,187.09 577.50,186.97 577.16,186.90 576.90,186.88 532.52,186.88 532.78,186.90 532.44,186.89 532.09,186.93 531.76,187.02 531.44,187.17 531.16,187.37 530.91,187.61 530.70,187.89 530.54,188.20 530.43,188.53 530.37,188.87 530.36,189.04 530.36,198.78 530.37,198.60 530.37,198.95 530.43,199.29 530.54,199.62 530.70,199.93 530.91,200.21 531.16,200.45 531.44,200.65 531.76,200.80 532.09,200.89 532.44,200.93 " style="stroke-width: 0.53; stroke: #AF0DC7; fill: #FFFFFF;" clip-path="url(#cpNi45NzM4NXw3MTMuMDI2fDIwOS4yMDl8Ni45NzM4NQ==)"/>
  <g clip-path="url(#cpNi45NzM4NXw3MTMuMDI2fDIwOS4yMDl8Ni45NzM4NQ==)">
    <text x="533.96" y="197.34" style="font-size: 9.96px; fill: #AF0DC7; font-family: Liberation Sans;" textLength="41.50px" lengthAdjust="spacingAndGlyphs">UNCURL</text>
  </g>
  <defs>
    <clipPath id="cpMHw3MjB8MjUyfDA=">
      <rect x="0.00" y="0.00" width="720.00" height="252.00"/>
    </clipPath>
  </defs>
  <polyline points="6.97,209.21 713.03,209.21 " style="stroke-width: 1.07; stroke-linecap: square;" clip-path="url(#cpMHw3MjB8MjUyfDA=)"/>
  <polyline points="39.07,212.70 39.07,209.21 " style="stroke-width: 1.07; stroke-linecap: butt;" clip-path="url(#cpMHw3MjB8MjUyfDA=)"/>
  <polyline points="190.12,212.70 190.12,209.21 " style="stroke-width: 1.07; stroke-linecap: butt;" clip-path="url(#cpMHw3MjB8MjUyfDA=)"/>
  <polyline points="341.17,212.70 341.17,209.21 " style="stroke-width: 1.07; stroke-linecap: butt;" clip-path="url(#cpMHw3MjB8MjUyfDA=)"/>
  <polyline points="492.64,212.70 492.64,209.21 " style="stroke-width: 1.07; stroke-linecap: butt;" clip-path="url(#cpMHw3MjB8MjUyfDA=)"/>
  <polyline points="643.69,212.70 643.69,209.21 " style="stroke-width: 1.07; stroke-linecap: butt;" clip-path="url(#cpMHw3MjB8MjUyfDA=)"/>
  <g clip-path="url(#cpMHw3MjB8MjUyfDA=)">
    <text x="25.72" y="223.94" style="font-size: 12.00px; font-family: Liberation Sans;" textLength="26.69px" lengthAdjust="spacingAndGlyphs">2014</text>
  </g>
  <g clip-path="url(#cpMHw3MjB8MjUyfDA=)">
    <text x="176.77" y="223.94" style="font-size: 12.00px; font-family: Liberation Sans;" textLength="26.69px" lengthAdjust="spacingAndGlyphs">2015</text>
  </g>
  <g clip-path="url(#cpMHw3MjB8MjUyfDA=)">
    <text x="327.82" y="223.94" style="font-size: 12.00px; font-family: Liberation Sans;" textLength="26.69px" lengthAdjust="spacingAndGlyphs">2016</text>
  </g>
  <g clip-path="url(#cpMHw3MjB8MjUyfDA=)">
    <text x="479.29" y="223.94" style="font-size: 12.00px; font-family: Liberation Sans;" textLength="26.69px" lengthAdjust="spacingAndGlyphs">2017</text>
  </g>
  <g clip-path="url(#cpMHw3MjB8MjUyfDA=)">
    <text x="630.34" y="223.94" style="font-size: 12.00px; font-family: Liberation Sans;" textLength="26.69px" lengthAdjust="spacingAndGlyphs">2018</text>
  </g>
  <g clip-path="url(#cpMHw3MjB8MjUyfDA=)">
    <text x="312.13" y="240.79" style="font-size: 14.00px; font-family: Liberation Sans;" textLength="95.74px" lengthAdjust="spacingAndGlyphs">Publishing date</text>
  </g>
</svg>
