<?xml version="1.0" encoding="UTF-8"?>
<svg xmlns="http://www.w3.org/2000/svg" xmlns:xlink="http://www.w3.org/1999/xlink" viewBox="0 0 720.00 252.00">
  <defs>
    <style type="text/css"><![CDATA[
    line, polyline, path, rect, circle {
      fill: none;
      stroke: #000000;
      stroke-linecap: round;
      stroke-linejoin: round;
      stroke-miterlimit: 10.00;
    }
  ]]></style>
  </defs>
  <line x1="380.49" y1="184.78" x2="380.49" y2="209.23" style="stroke-width: 1.07; stroke: #AF0DC7;" clip-path="url(#cpNi45NzM4NXw3MTMuMDI2fDIwOS4yMjd8Ni45NzM4NQ==)"/>
  <line x1="255.51" y1="205.61" x2="255.51" y2="209.23" style="stroke-width: 1.07; stroke: #AF0DC7;" clip-path="url(#cpNi45NzM4NXw3MTMuMDI2fDIwOS4yMjd8Ni45NzM4NQ==)"/>
  <line x1="603.96" y1="113.42" x2="603.96" y2="209.23" style="stroke-width: 1.07; stroke: #FF8821;" clip-path="url(#cpNi45NzM4NXw3MTMuMDI2fDIwOS4yMjd8Ni45NzM4NQ==)"/>
  <line x1="583.68" y1="201.15" x2="583.68" y2="209.23" style="stroke-width: 1.07; stroke: #0073D7;" clip-path="url(#cpNi45NzM4NXw3MTMuMDI2fDIwOS4yMjd8Ni45NzM4NQ==)"/>
  <line x1="466.56" y1="186.62" x2="466.56" y2="209.23" style="stroke-width: 1.07; stroke: #AF0DC7;" clip-path="url(#cpNi45NzM4NXw3MTMuMDI2fDIwOS4yMjd8Ni45NzM4NQ==)"/>
  <line x1="345.72" y1="159.73" x2="345.72" y2="209.23" style="stroke-width: 1.07; stroke: #5ECD2E;" clip-path="url(#cpNi45NzM4NXw3MTMuMDI2fDIwOS4yMjd8Ni45NzM4NQ==)"/>
  <line x1="189.29" y1="205.34" x2="189.29" y2="209.23" style="stroke-width: 1.07; stroke: #5ECD2E;" clip-path="url(#cpNi45NzM4NXw3MTMuMDI2fDIwOS4yMjd8Ni45NzM4NQ==)"/>
  <line x1="457.05" y1="167.38" x2="457.05" y2="209.23" style="stroke-width: 1.07; stroke: #AF0DC7;" clip-path="url(#cpNi45NzM4NXw3MTMuMDI2fDIwOS4yMjd8Ni45NzM4NQ==)"/>
  <line x1="76.31" y1="202.84" x2="76.31" y2="209.22" style="stroke-width: 1.07; stroke: #5ECD2E;" clip-path="url(#cpNi45NzM4NXw3MTMuMDI2fDIwOS4yMjd8Ni45NzM4NQ==)"/>
  <line x1="624.24" y1="205.63" x2="624.24" y2="209.22" style="stroke-width: 1.07; stroke: #5ECD2E;" clip-path="url(#cpNi45NzM4NXw3MTMuMDI2fDIwOS4yMjd8Ni45NzM4NQ==)"/>
  <line x1="396.21" y1="162.75" x2="396.21" y2="209.22" style="stroke-width: 1.07; stroke: #5ECD2E;" clip-path="url(#cpNi45NzM4NXw3MTMuMDI2fDIwOS4yMjd8Ni45NzM4NQ==)"/>
  <line x1="517.88" y1="184.20" x2="517.88" y2="209.22" style="stroke-width: 1.07; stroke: #CFBF00;" clip-path="url(#cpNi45NzM4NXw3MTMuMDI2fDIwOS4yMjd8Ni45NzM4NQ==)"/>
  <line x1="416.08" y1="205.13" x2="416.08" y2="209.22" style="stroke-width: 1.07; stroke: #5ECD2E;" clip-path="url(#cpNi45NzM4NXw3MTMuMDI2fDIwOS4yMjd8Ni45NzM4NQ==)"/>
  <line x1="616.37" y1="178.21" x2="616.37" y2="209.22" style="stroke-width: 1.07; stroke: #FF4237;" clip-path="url(#cpNi45NzM4NXw3MTMuMDI2fDIwOS4yMjd8Ni45NzM4NQ==)"/>
  <line x1="487.26" y1="205.63" x2="487.26" y2="209.22" style="stroke-width: 1.07; stroke: #5ECD2E;" clip-path="url(#cpNi45NzM4NXw3MTMuMDI2fDIwOS4yMjd8Ni45NzM4NQ==)"/>
  <line x1="410.70" y1="132.03" x2="410.70" y2="209.22" style="stroke-width: 1.07; stroke: #AF0DC7;" clip-path="url(#cpNi45NzM4NXw3MTMuMDI2fDIwOS4yMjd8Ni45NzM4NQ==)"/>
  <line x1="579.54" y1="180.16" x2="579.54" y2="209.22" style="stroke-width: 1.07; stroke: #CFBF00;" clip-path="url(#cpNi45NzM4NXw3MTMuMDI2fDIwOS4yMjd8Ni45NzM4NQ==)"/>
  <line x1="85.83" y1="180.82" x2="85.83" y2="209.22" style="stroke-width: 1.07; stroke: #AF0DC7;" clip-path="url(#cpNi45NzM4NXw3MTMuMDI2fDIwOS4yMjd8Ni45NzM4NQ==)"/>
  <line x1="412.35" y1="115.42" x2="412.35" y2="209.22" style="stroke-width: 1.07; stroke: #5ECD2E;" clip-path="url(#cpNi45NzM4NXw3MTMuMDI2fDIwOS4yMjd8Ni45NzM4NQ==)"/>
  <line x1="382.14" y1="59.08" x2="382.14" y2="209.22" style="stroke-width: 1.07; stroke: #FF8821;" clip-path="url(#cpNi45NzM4NXw3MTMuMDI2fDIwOS4yMjd8Ni45NzM4NQ==)"/>
  <line x1="297.72" y1="184.29" x2="297.72" y2="209.22" style="stroke-width: 1.07; stroke: #AF0DC7;" clip-path="url(#cpNi45NzM4NXw3MTMuMDI2fDIwOS4yMjd8Ni45NzM4NQ==)"/>
  <line x1="514.16" y1="146.09" x2="514.16" y2="209.22" style="stroke-width: 1.07; stroke: #5ECD2E;" clip-path="url(#cpNi45NzM4NXw3MTMuMDI2fDIwOS4yMjd8Ni45NzM4NQ==)"/>
  <line x1="564.64" y1="140.96" x2="564.64" y2="209.22" style="stroke-width: 1.07; stroke: #AF0DC7;" clip-path="url(#cpNi45NzM4NXw3MTMuMDI2fDIwOS4yMjd8Ni45NzM4NQ==)"/>
  <line x1="510.43" y1="69.92" x2="510.43" y2="209.22" style="stroke-width: 1.07; stroke: #AF0DC7;" clip-path="url(#cpNi45NzM4NXw3MTMuMDI2fDIwOS4yMjd8Ni45NzM4NQ==)"/>
  <line x1="200.88" y1="183.33" x2="200.88" y2="209.22" style="stroke-width: 1.07; stroke: #5ECD2E;" clip-path="url(#cpNi45NzM4NXw3MTMuMDI2fDIwOS4yMjd8Ni45NzM4NQ==)"/>
  <line x1="658.17" y1="188.34" x2="658.17" y2="209.22" style="stroke-width: 1.07; stroke: #5ECD2E;" clip-path="url(#cpNi45NzM4NXw3MTMuMDI2fDIwOS4yMjd8Ni45NzM4NQ==)"/>
  <line x1="537.33" y1="162.76" x2="537.33" y2="209.22" style="stroke-width: 1.07; stroke: #5ECD2E;" clip-path="url(#cpNi45NzM4NXw3MTMuMDI2fDIwOS4yMjd8Ni45NzM4NQ==)"/>
  <line x1="617.62" y1="154.80" x2="617.62" y2="209.22" style="stroke-width: 1.07; stroke: #AF0DC7;" clip-path="url(#cpNi45NzM4NXw3MTMuMDI2fDIwOS4yMjd8Ni45NzM4NQ==)"/>
  <line x1="554.71" y1="124.50" x2="554.71" y2="209.22" style="stroke-width: 1.07; stroke: #AF0DC7;" clip-path="url(#cpNi45NzM4NXw3MTMuMDI2fDIwOS4yMjd8Ni45NzM4NQ==)"/>
  <line x1="406.97" y1="74.97" x2="406.97" y2="209.22" style="stroke-width: 1.07; stroke: #CFBF00;" clip-path="url(#cpNi45NzM4NXw3MTMuMDI2fDIwOS4yMjd8Ni45NzM4NQ==)"/>
  <line x1="531.12" y1="91.94" x2="531.12" y2="209.21" style="stroke-width: 1.07; stroke: #5ECD2E;" clip-path="url(#cpNi45NzM4NXw3MTMuMDI2fDIwOS4yMjd8Ni45NzM4NQ==)"/>
  <line x1="455.80" y1="94.22" x2="455.80" y2="209.21" style="stroke-width: 1.07; stroke: #AF0DC7;" clip-path="url(#cpNi45NzM4NXw3MTMuMDI2fDIwOS4yMjd8Ni45NzM4NQ==)"/>
  <line x1="562.57" y1="80.92" x2="562.57" y2="209.21" style="stroke-width: 1.07; stroke: #39CCCC;" clip-path="url(#cpNi45NzM4NXw3MTMuMDI2fDIwOS4yMjd8Ni45NzM4NQ==)"/>
  <line x1="434.28" y1="146.03" x2="434.28" y2="209.21" style="stroke-width: 1.07; stroke: #5ECD2E;" clip-path="url(#cpNi45NzM4NXw3MTMuMDI2fDIwOS4yMjd8Ni45NzM4NQ==)"/>
  <line x1="580.37" y1="70.58" x2="580.37" y2="209.21" style="stroke-width: 1.07; stroke: #0073D7;" clip-path="url(#cpNi45NzM4NXw3MTMuMDI2fDIwOS4yMjd8Ni45NzM4NQ==)"/>
  <line x1="577.89" y1="97.94" x2="577.89" y2="209.21" style="stroke-width: 1.07; stroke: #AF0DC7;" clip-path="url(#cpNi45NzM4NXw3MTMuMDI2fDIwOS4yMjd8Ni45NzM4NQ==)"/>
  <line x1="435.94" y1="53.03" x2="435.94" y2="209.21" style="stroke-width: 1.07; stroke: #AF0DC7;" clip-path="url(#cpNi45NzM4NXw3MTMuMDI2fDIwOS4yMjd8Ni45NzM4NQ==)"/>
  <line x1="522.85" y1="107.38" x2="522.85" y2="209.21" style="stroke-width: 1.07; stroke: #CFBF00;" clip-path="url(#cpNi45NzM4NXw3MTMuMDI2fDIwOS4yMjd8Ni45NzM4NQ==)"/>
  <line x1="356.90" y1="205.63" x2="356.90" y2="209.21" style="stroke-width: 1.07; stroke: #0073D7;" clip-path="url(#cpNi45NzM4NXw3MTMuMDI2fDIwOS4yMjd8Ni45NzM4NQ==)"/>
  <line x1="572.09" y1="24.65" x2="572.09" y2="209.21" style="stroke-width: 1.07; stroke: #AF0DC7;" clip-path="url(#cpNi45NzM4NXw3MTMuMDI2fDIwOS4yMjd8Ni45NzM4NQ==)"/>
  <line x1="513.74" y1="24.65" x2="513.74" y2="209.21" style="stroke-width: 1.07; stroke: #5ECD2E;" clip-path="url(#cpNi45NzM4NXw3MTMuMDI2fDIwOS4yMjd8Ni45NzM4NQ==)"/>
  <line x1="542.30" y1="48.40" x2="542.30" y2="209.21" style="stroke-width: 1.07; stroke: #AF0DC7;" clip-path="url(#cpNi45NzM4NXw3MTMuMDI2fDIwOS4yMjd8Ni45NzM4NQ==)"/>
  <line x1="656.10" y1="166.79" x2="656.10" y2="209.21" style="stroke-width: 1.07; stroke: #FF8821;" clip-path="url(#cpNi45NzM4NXw3MTMuMDI2fDIwOS4yMjd8Ni45NzM4NQ==)"/>
  <line x1="413.18" y1="24.65" x2="413.18" y2="209.21" style="stroke-width: 1.07; stroke: #AF0DC7;" clip-path="url(#cpNi45NzM4NXw3MTMuMDI2fDIwOS4yMjd8Ni45NzM4NQ==)"/>
  <line x1="651.96" y1="89.45" x2="651.96" y2="209.21" style="stroke-width: 1.07; stroke: #5ECD2E;" clip-path="url(#cpNi45NzM4NXw3MTMuMDI2fDIwOS4yMjd8Ni45NzM4NQ==)"/>
  <line x1="631.69" y1="134.06" x2="631.69" y2="209.21" style="stroke-width: 1.07; stroke: #CFBF00;" clip-path="url(#cpNi45NzM4NXw3MTMuMDI2fDIwOS4yMjd8Ni45NzM4NQ==)"/>
  <line x1="296.48" y1="138.26" x2="296.48" y2="209.21" style="stroke-width: 1.07; stroke: #AF0DC7;" clip-path="url(#cpNi45NzM4NXw3MTMuMDI2fDIwOS4yMjd8Ni45NzM4NQ==)"/>
  <line x1="386.28" y1="37.99" x2="386.28" y2="209.21" style="stroke-width: 1.07; stroke: #AF0DC7;" clip-path="url(#cpNi45NzM4NXw3MTMuMDI2fDIwOS4yMjd8Ni45NzM4NQ==)"/>
  <line x1="562.99" y1="37.62" x2="562.99" y2="209.21" style="stroke-width: 1.07; stroke: #5ECD2E;" clip-path="url(#cpNi45NzM4NXw3MTMuMDI2fDIwOS4yMjd8Ni45NzM4NQ==)"/>
  <line x1="630.44" y1="46.81" x2="630.44" y2="209.21" style="stroke-width: 1.07; stroke: #AF0DC7;" clip-path="url(#cpNi45NzM4NXw3MTMuMDI2fDIwOS4yMjd8Ni45NzM4NQ==)"/>
  <line x1="485.60" y1="124.93" x2="485.60" y2="209.21" style="stroke-width: 1.07; stroke: #5ECD2E;" clip-path="url(#cpNi45NzM4NXw3MTMuMDI2fDIwOS4yMjd8Ni45NzM4NQ==)"/>
  <line x1="291.51" y1="116.44" x2="291.51" y2="209.21" style="stroke-width: 1.07; stroke: #AF0DC7;" clip-path="url(#cpNi45NzM4NXw3MTMuMDI2fDIwOS4yMjd8Ni45NzM4NQ==)"/>
  <line x1="659.41" y1="68.15" x2="659.41" y2="209.21" style="stroke-width: 1.07; stroke: #5ECD2E;" clip-path="url(#cpNi45NzM4NXw3MTMuMDI2fDIwOS4yMjd8Ni45NzM4NQ==)"/>
  <line x1="391.66" y1="95.05" x2="391.66" y2="209.21" style="stroke-width: 1.07; stroke: #0073D7;" clip-path="url(#cpNi45NzM4NXw3MTMuMDI2fDIwOS4yMjd8Ni45NzM4NQ==)"/>
  <line x1="569.61" y1="58.57" x2="569.61" y2="209.21" style="stroke-width: 1.07; stroke: #AF0DC7;" clip-path="url(#cpNi45NzM4NXw3MTMuMDI2fDIwOS4yMjd8Ni45NzM4NQ==)"/>
  <defs>
    <clipPath id="cpNi45NzM4NXw3MTMuMDI2fDIwOS4yMjd8Ni45NzM4NQ==">
      <rect x="6.97" y="6.97" width="706.05" height="202.25"/>
    </clipPath>
  </defs>
  <polyline points="543.54,58.57 595.68,58.57 595.59,58.57 595.94,58.56 596.28,58.49 596.60,58.37 596.90,58.19 597.17,57.97 597.40,57.71 597.59,57.42 597.73,57.10 597.81,56.76 597.84,56.41 597.84,56.41 597.84,46.66 597.84,46.66 597.81,46.31 597.73,45.98 597.59,45.66 597.40,45.36 597.17,45.10 596.90,44.88 596.60,44.71 596.28,44.58 595.94,44.52 595.68,44.50 543.54,44.50 543.80,44.52 543.46,44.50 543.11,44.54 542.78,44.64 542.46,44.79 542.18,44.99 541.93,45.23 541.72,45.51 541.56,45.81 541.44,46.14 541.39,46.49 541.38,46.66 541.38,56.41 541.39,56.24 541.39,56.59 541.44,56.93 541.56,57.26 541.72,57.57 541.93,57.85 542.18,58.09 542.46,58.29 542.78,58.43 543.11,58.53 543.46,58.57 " style="stroke-width: 0.53; stroke: #AF0DC7; fill: #FFFFFF;" clip-path="url(#cpNi45NzM4NXw3MTMuMDI2fDIwOS4yMjd8Ni45NzM4NQ==)"/>
  <g clip-path="url(#cpNi45NzM4NXw3MTMuMDI2fDIwOS4yMjd8Ni45NzM4NQ==)">
    <text x="544.98" y="54.97" style="font-size: 9.96px; fill: #AF0DC7; font-family: Liberation Sans;" textLength="49.26px" lengthAdjust="spacingAndGlyphs">PhenoPath</text>
  </g>
  <polyline points="368.09,95.05 415.23,95.05 415.14,95.05 415.49,95.03 415.83,94.96 416.15,94.84 416.46,94.67 416.72,94.45 416.96,94.19 417.14,93.89 417.28,93.57 417.36,93.24 417.39,92.89 417.39,92.89 417.39,83.13 417.39,83.13 417.36,82.79 417.28,82.45 417.14,82.13 416.96,81.84 416.72,81.58 416.46,81.36 416.15,81.18 415.83,81.06 415.49,80.99 415.23,80.97 368.09,80.97 368.35,80.99 368.00,80.98 367.66,81.02 367.32,81.11 367.01,81.26 366.72,81.46 366.47,81.70 366.26,81.98 366.10,82.29 365.99,82.62 365.94,82.96 365.93,83.13 365.93,92.89 365.94,92.72 365.94,93.06 365.99,93.41 366.10,93.74 366.26,94.04 366.47,94.32 366.72,94.56 367.01,94.76 367.32,94.91 367.66,95.01 368.00,95.05 " style="stroke-width: 0.53; stroke: #0073D7; fill: #FFFFFF;" clip-path="url(#cpNi45NzM4NXw3MTMuMDI2fDIwOS4yMjd8Ni45NzM4NQ==)"/>
  <g clip-path="url(#cpNi45NzM4NXw3MTMuMDI2fDIwOS4yMjd8Ni45NzM4NQ==)">
    <text x="369.53" y="91.45" style="font-size: 9.96px; fill: #0073D7; font-family: Liberation Sans;" textLength="44.26px" lengthAdjust="spacingAndGlyphs">Wishbone</text>
  </g>
  <polyline points="638.34,68.15 680.49,68.15 680.40,68.15 680.75,68.14 681.09,68.07 681.41,67.94 681.71,67.77 681.98,67.55 682.21,67.29 682.40,67.00 682.54,66.68 682.62,66.34 682.65,65.99 682.65,65.99 682.65,56.24 682.65,56.24 682.62,55.89 682.54,55.55 682.40,55.23 682.21,54.94 681.98,54.68 681.71,54.46 681.41,54.29 681.09,54.16 680.75,54.09 680.49,54.08 638.34,54.08 638.60,54.09 638.25,54.08 637.91,54.12 637.57,54.22 637.26,54.37 636.97,54.57 636.72,54.81 636.51,55.08 636.35,55.39 636.24,55.72 636.19,56.06 636.18,56.24 636.18,65.99 636.19,65.82 636.19,66.17 636.24,66.51 636.35,66.84 636.51,67.15 636.72,67.43 636.97,67.67 637.26,67.86 637.57,68.01 637.91,68.11 638.25,68.15 " style="stroke-width: 0.53; stroke: #5ECD2E; fill: #FFFFFF;" clip-path="url(#cpNi45NzM4NXw3MTMuMDI2fDIwOS4yMjd8Ni45NzM4NQ==)"/>
  <g clip-path="url(#cpNi45NzM4NXw3MTMuMDI2fDIwOS4yMjd8Ni45NzM4NQ==)">
    <text x="639.78" y="64.55" style="font-size: 9.96px; fill: #5ECD2E; font-family: Liberation Sans;" textLength="39.27px" lengthAdjust="spacingAndGlyphs">MERLoT</text>
  </g>
  <polyline points="270.44,116.44 312.58,116.44 312.50,116.43 312.84,116.42 313.18,116.35 313.51,116.23 313.81,116.05 314.08,115.83 314.31,115.57 314.50,115.28 314.63,114.96 314.72,114.62 314.74,114.28 314.74,114.28 314.74,104.52 314.74,104.52 314.72,104.17 314.63,103.84 314.50,103.52 314.31,103.22 314.08,102.96 313.81,102.74 313.51,102.57 313.18,102.45 312.84,102.38 312.58,102.36 270.44,102.36 270.70,102.38 270.35,102.36 270.00,102.40 269.67,102.50 269.36,102.65 269.07,102.85 268.82,103.09 268.61,103.37 268.45,103.67 268.34,104.00 268.28,104.35 268.28,104.52 268.28,114.28 268.28,114.10 268.28,114.45 268.34,114.79 268.45,115.12 268.61,115.43 268.82,115.71 269.07,115.95 269.36,116.15 269.67,116.30 270.00,116.39 270.35,116.43 " style="stroke-width: 0.53; stroke: #AF0DC7; fill: #FFFFFF;" clip-path="url(#cpNi45NzM4NXw3MTMuMDI2fDIwOS4yMjd8Ni45NzM4NQ==)"/>
  <g clip-path="url(#cpNi45NzM4NXw3MTMuMDI2fDIwOS4yMjd8Ni45NzM4NQ==)">
    <text x="271.88" y="112.84" style="font-size: 9.96px; fill: #AF0DC7; font-family: Liberation Sans;" textLength="39.27px" lengthAdjust="spacingAndGlyphs">Waterfall</text>
  </g>
  <polyline points="459.54,124.93 511.66,124.93 511.57,124.93 511.92,124.91 512.26,124.84 512.58,124.72 512.89,124.55 513.15,124.33 513.39,124.07 513.57,123.77 513.71,123.45 513.79,123.11 513.82,122.77 513.82,122.77 513.82,113.01 513.82,113.01 513.79,112.67 513.71,112.33 513.57,112.01 513.39,111.72 513.15,111.46 512.89,111.24 512.58,111.06 512.26,110.94 511.92,110.87 511.66,110.85 459.54,110.85 459.80,110.87 459.46,110.85 459.11,110.90 458.78,110.99 458.46,111.14 458.18,111.34 457.93,111.58 457.72,111.86 457.56,112.17 457.45,112.50 457.39,112.84 457.38,113.01 457.38,122.77 457.39,122.59 457.39,122.94 457.45,123.28 457.56,123.61 457.72,123.92 457.93,124.20 458.18,124.44 458.46,124.64 458.78,124.79 459.11,124.88 459.46,124.93 " style="stroke-width: 0.53; stroke: #5ECD2E; fill: #FFFFFF;" clip-path="url(#cpNi45NzM4NXw3MTMuMDI2fDIwOS4yMjd8Ni45NzM4NQ==)"/>
  <g clip-path="url(#cpNi45NzM4NXw3MTMuMDI2fDIwOS4yMjd8Ni45NzM4NQ==)">
    <text x="460.98" y="121.33" style="font-size: 9.96px; fill: #5ECD2E; font-family: Liberation Sans;" textLength="49.24px" lengthAdjust="spacingAndGlyphs">k-branches</text>
  </g>
  <polyline points="615.73,46.81 645.16,46.81 645.07,46.81 645.42,46.79 645.76,46.72 646.09,46.60 646.39,46.43 646.66,46.21 646.89,45.95 647.07,45.65 647.21,45.33 647.29,45.00 647.32,44.65 647.32,44.65 647.32,34.89 647.32,34.89 647.29,34.55 647.21,34.21 647.07,33.89 646.89,33.60 646.66,33.34 646.39,33.12 646.09,32.94 645.76,32.82 645.42,32.75 645.16,32.73 615.73,32.73 615.99,32.75 615.64,32.74 615.30,32.78 614.96,32.87 614.65,33.02 614.36,33.22 614.11,33.46 613.90,33.74 613.74,34.05 613.63,34.38 613.58,34.72 613.57,34.89 613.57,44.65 613.58,44.48 613.58,44.82 613.63,45.17 613.74,45.50 613.90,45.80 614.11,46.08 614.36,46.32 614.65,46.52 614.96,46.67 615.30,46.77 615.64,46.81 " style="stroke-width: 0.53; stroke: #AF0DC7; fill: #FFFFFF;" clip-path="url(#cpNi45NzM4NXw3MTMuMDI2fDIwOS4yMjd8Ni45NzM4NQ==)"/>
  <g clip-path="url(#cpNi45NzM4NXw3MTMuMDI2fDIwOS4yMjd8Ni45NzM4NQ==)">
    <text x="617.17" y="43.21" style="font-size: 9.96px; fill: #AF0DC7; font-family: Liberation Sans;" textLength="26.55px" lengthAdjust="spacingAndGlyphs">iCpSc</text>
  </g>
  <polyline points="544.41,37.62 581.57,37.62 581.48,37.62 581.83,37.61 582.17,37.54 582.50,37.41 582.80,37.24 583.07,37.02 583.30,36.76 583.48,36.47 583.62,36.15 583.70,35.81 583.73,35.46 583.73,35.46 583.73,25.71 583.73,25.71 583.70,25.36 583.62,25.02 583.48,24.70 583.30,24.41 583.07,24.15 582.80,23.93 582.50,23.76 582.17,23.63 581.83,23.56 581.57,23.55 544.41,23.55 544.67,23.56 544.32,23.55 543.97,23.59 543.64,23.69 543.33,23.84 543.04,24.03 542.79,24.27 542.58,24.55 542.42,24.86 542.31,25.19 542.25,25.53 542.25,25.71 542.25,35.46 542.25,35.29 542.25,35.64 542.31,35.98 542.42,36.31 542.58,36.62 542.79,36.89 543.04,37.14 543.33,37.33 543.64,37.48 543.97,37.58 544.32,37.62 " style="stroke-width: 0.53; stroke: #5ECD2E; fill: #FFFFFF;" clip-path="url(#cpNi45NzM4NXw3MTMuMDI2fDIwOS4yMjd8Ni45NzM4NQ==)"/>
  <g clip-path="url(#cpNi45NzM4NXw3MTMuMDI2fDIwOS4yMjd8Ni45NzM4NQ==)">
    <text x="545.85" y="34.02" style="font-size: 9.96px; fill: #5ECD2E; font-family: Liberation Sans;" textLength="34.29px" lengthAdjust="spacingAndGlyphs">FORKS</text>
  </g>
  <polyline points="372.95,37.99 399.61,37.99 399.52,37.99 399.87,37.98 400.21,37.91 400.54,37.78 400.84,37.61 401.11,37.39 401.34,37.13 401.52,36.84 401.66,36.52 401.74,36.18 401.77,35.83 401.77,35.83 401.77,26.08 401.77,26.08 401.74,25.73 401.66,25.39 401.52,25.07 401.34,24.78 401.11,24.52 400.84,24.30 400.54,24.13 400.21,24.00 399.87,23.93 399.61,23.92 372.95,23.92 373.21,23.93 372.86,23.92 372.51,23.96 372.18,24.06 371.87,24.21 371.58,24.40 371.33,24.65 371.12,24.92 370.96,25.23 370.85,25.56 370.79,25.90 370.79,26.08 370.79,35.83 370.79,35.66 370.79,36.01 370.85,36.35 370.96,36.68 371.12,36.99 371.33,37.27 371.58,37.51 371.87,37.70 372.18,37.85 372.51,37.95 372.86,37.99 " style="stroke-width: 0.53; stroke: #AF0DC7; fill: #FFFFFF;" clip-path="url(#cpNi45NzM4NXw3MTMuMDI2fDIwOS4yMjd8Ni45NzM4NQ==)"/>
  <g clip-path="url(#cpNi45NzM4NXw3MTMuMDI2fDIwOS4yMjd8Ni45NzM4NQ==)">
    <text x="374.39" y="34.39" style="font-size: 9.96px; fill: #AF0DC7; font-family: Liberation Sans;" textLength="23.78px" lengthAdjust="spacingAndGlyphs">SCell</text>
  </g>
  <polyline points="266.54,138.26 326.41,138.26 326.32,138.26 326.67,138.25 327.01,138.18 327.34,138.05 327.64,137.88 327.91,137.66 328.14,137.40 328.32,137.11 328.46,136.79 328.54,136.45 328.57,136.10 328.57,136.10 328.57,126.35 328.57,126.35 328.54,126.00 328.46,125.66 328.32,125.34 328.14,125.05 327.91,124.79 327.64,124.57 327.34,124.40 327.01,124.27 326.67,124.20 326.41,124.19 266.54,124.19 266.80,124.20 266.45,124.19 266.11,124.23 265.77,124.33 265.46,124.48 265.17,124.67 264.92,124.91 264.71,125.19 264.55,125.50 264.44,125.83 264.39,126.17 264.38,126.35 264.38,136.10 264.39,135.93 264.39,136.28 264.44,136.62 264.55,136.95 264.71,137.26 264.92,137.53 265.17,137.78 265.46,137.97 265.77,138.12 266.11,138.22 266.45,138.26 " style="stroke-width: 0.53; stroke: #AF0DC7; fill: #FFFFFF;" clip-path="url(#cpNi45NzM4NXw3MTMuMDI2fDIwOS4yMjd8Ni45NzM4NQ==)"/>
  <g clip-path="url(#cpNi45NzM4NXw3MTMuMDI2fDIwOS4yMjd8Ni45NzM4NQ==)">
    <text x="267.98" y="134.66" style="font-size: 9.96px; fill: #AF0DC7; font-family: Liberation Sans;" textLength="56.99px" lengthAdjust="spacingAndGlyphs">gpseudotime</text>
  </g>
  <polyline points="607.84,134.06 655.53,134.06 655.44,134.06 655.79,134.04 656.13,133.98 656.45,133.85 656.75,133.68 657.02,133.46 657.25,133.20 657.44,132.90 657.58,132.58 657.66,132.25 657.69,131.90 657.69,131.90 657.69,122.15 657.69,122.15 657.66,121.80 657.58,121.46 657.44,121.14 657.25,120.85 657.02,120.59 656.75,120.37 656.45,120.19 656.13,120.07 655.79,120.00 655.53,119.99 607.84,119.99 608.10,120.00 607.76,119.99 607.41,120.03 607.08,120.13 606.76,120.27 606.48,120.47 606.23,120.71 606.02,120.99 605.86,121.30 605.75,121.63 605.69,121.97 605.68,122.15 605.68,131.90 605.69,131.73 605.69,132.07 605.75,132.42 605.86,132.75 606.02,133.05 606.23,133.33 606.48,133.57 606.76,133.77 607.08,133.92 607.41,134.02 607.76,134.06 " style="stroke-width: 0.53; stroke: #CFBF00; fill: #FFFFFF;" clip-path="url(#cpNi45NzM4NXw3MTMuMDI2fDIwOS4yMjd8Ni45NzM4NQ==)"/>
  <g clip-path="url(#cpNi45NzM4NXw3MTMuMDI2fDIwOS4yMjd8Ni45NzM4NQ==)">
    <text x="609.28" y="130.46" style="font-size: 9.96px; fill: #CFBF00; font-family: Liberation Sans;" textLength="44.80px" lengthAdjust="spacingAndGlyphs">GrandPrix</text>
  </g>
  <polyline points="622.03,89.45 681.90,89.45 681.81,89.45 682.16,89.44 682.50,89.37 682.83,89.24 683.13,89.07 683.40,88.85 683.63,88.59 683.81,88.30 683.95,87.98 684.03,87.64 684.06,87.29 684.06,87.29 684.06,77.54 684.06,77.54 684.03,77.19 683.95,76.85 683.81,76.53 683.63,76.24 683.40,75.98 683.13,75.76 682.83,75.59 682.50,75.46 682.16,75.39 681.90,75.38 622.03,75.38 622.29,75.39 621.94,75.38 621.60,75.42 621.26,75.52 620.95,75.67 620.66,75.86 620.41,76.10 620.20,76.38 620.04,76.69 619.93,77.02 619.87,77.36 619.87,77.54 619.87,87.29 619.87,87.12 619.87,87.47 619.93,87.81 620.04,88.14 620.20,88.45 620.41,88.72 620.66,88.96 620.95,89.16 621.26,89.31 621.60,89.41 621.94,89.45 " style="stroke-width: 0.53; stroke: #5ECD2E; fill: #FFFFFF;" clip-path="url(#cpNi45NzM4NXw3MTMuMDI2fDIwOS4yMjd8Ni45NzM4NQ==)"/>
  <g clip-path="url(#cpNi45NzM4NXw3MTMuMDI2fDIwOS4yMjd8Ni45NzM4NQ==)">
    <text x="623.47" y="85.85" style="font-size: 9.96px; fill: #5ECD2E; font-family: Liberation Sans;" textLength="56.99px" lengthAdjust="spacingAndGlyphs">Topographer</text>
  </g>
  <polyline points="400.12,24.65 426.24,24.65 426.15,24.65 426.50,24.63 426.84,24.56 427.16,24.44 427.46,24.27 427.73,24.05 427.96,23.79 428.15,23.49 428.28,23.17 428.37,22.84 428.40,22.49 428.40,22.49 428.40,12.73 428.40,12.73 428.37,12.39 428.28,12.05 428.15,11.73 427.96,11.44 427.73,11.18 427.46,10.96 427.16,10.78 426.84,10.66 426.50,10.59 426.24,10.57 400.12,10.57 400.38,10.59 400.03,10.58 399.69,10.62 399.35,10.71 399.04,10.86 398.75,11.06 398.50,11.30 398.30,11.58 398.13,11.89 398.02,12.22 397.97,12.56 397.96,12.73 397.96,22.49 397.97,22.32 397.97,22.66 398.02,23.01 398.13,23.34 398.30,23.64 398.50,23.92 398.75,24.16 399.04,24.36 399.35,24.51 399.69,24.61 400.03,24.65 " style="stroke-width: 0.53; stroke: #AF0DC7; fill: #FFFFFF;" clip-path="url(#cpNi45NzM4NXw3MTMuMDI2fDIwOS4yMjd8Ni45NzM4NQ==)"/>
  <g clip-path="url(#cpNi45NzM4NXw3MTMuMDI2fDIwOS4yMjd8Ni45NzM4NQ==)">
    <text x="401.56" y="21.05" style="font-size: 9.96px; fill: #AF0DC7; font-family: Liberation Sans;" textLength="23.24px" lengthAdjust="spacingAndGlyphs">Ouija</text>
  </g>
  <polyline points="633.92,166.79 678.28,166.79 678.20,166.78 678.55,166.77 678.89,166.70 679.21,166.58 679.51,166.40 679.78,166.18 680.01,165.92 680.20,165.63 680.33,165.31 680.42,164.97 680.44,164.63 680.44,164.63 680.44,154.87 680.44,154.87 680.42,154.53 680.33,154.19 680.20,153.87 680.01,153.57 679.78,153.31 679.51,153.09 679.21,152.92 678.89,152.80 678.55,152.73 678.28,152.71 633.92,152.71 634.18,152.73 633.83,152.71 633.49,152.76 633.15,152.85 632.84,153.00 632.55,153.20 632.30,153.44 632.09,153.72 631.93,154.03 631.82,154.35 631.77,154.70 631.76,154.87 631.76,164.63 631.77,164.45 631.77,164.80 631.82,165.14 631.93,165.47 632.09,165.78 632.30,166.06 632.55,166.30 632.84,166.50 633.15,166.65 633.49,166.74 633.83,166.78 " style="stroke-width: 0.53; stroke: #FF8821; fill: #FFFFFF;" clip-path="url(#cpNi45NzM4NXw3MTMuMDI2fDIwOS4yMjd8Ni45NzM4NQ==)"/>
  <g clip-path="url(#cpNi45NzM4NXw3MTMuMDI2fDIwOS4yMjd8Ni45NzM4NQ==)">
    <text x="635.36" y="163.19" style="font-size: 9.96px; fill: #FF8821; font-family: Liberation Sans;" textLength="41.48px" lengthAdjust="spacingAndGlyphs">CALISTA</text>
  </g>
  <polyline points="525.93,48.40 558.67,48.40 558.58,48.40 558.93,48.38 559.27,48.31 559.59,48.19 559.89,48.01 560.16,47.80 560.39,47.53 560.58,47.24 560.72,46.92 560.80,46.58 560.83,46.24 560.83,46.24 560.83,36.48 560.83,36.48 560.80,36.14 560.72,35.80 560.58,35.48 560.39,35.18 560.16,34.92 559.89,34.70 559.59,34.53 559.27,34.41 558.93,34.34 558.67,34.32 525.93,34.32 526.19,34.34 525.84,34.32 525.49,34.37 525.16,34.46 524.85,34.61 524.56,34.81 524.31,35.05 524.10,35.33 523.94,35.64 523.83,35.97 523.77,36.31 523.77,36.48 523.77,46.24 523.77,46.06 523.77,46.41 523.83,46.75 523.94,47.08 524.10,47.39 524.31,47.67 524.56,47.91 524.85,48.11 525.16,48.26 525.49,48.35 525.84,48.40 " style="stroke-width: 0.53; stroke: #AF0DC7; fill: #FFFFFF;" clip-path="url(#cpNi45NzM4NXw3MTMuMDI2fDIwOS4yMjd8Ni45NzM4NQ==)"/>
  <g clip-path="url(#cpNi45NzM4NXw3MTMuMDI2fDIwOS4yMjd8Ni45NzM4NQ==)">
    <text x="527.37" y="44.80" style="font-size: 9.96px; fill: #AF0DC7; font-family: Liberation Sans;" textLength="29.86px" lengthAdjust="spacingAndGlyphs">scTDA</text>
  </g>
  <polyline points="489.34,24.65 538.14,24.65 538.06,24.65 538.40,24.63 538.74,24.56 539.07,24.44 539.37,24.27 539.64,24.05 539.87,23.79 540.05,23.49 540.19,23.17 540.27,22.84 540.30,22.49 540.30,22.49 540.30,12.73 540.30,12.73 540.27,12.39 540.19,12.05 540.05,11.73 539.87,11.44 539.64,11.18 539.37,10.96 539.07,10.78 538.74,10.66 538.40,10.59 538.14,10.57 489.34,10.57 489.60,10.59 489.25,10.58 488.91,10.62 488.57,10.71 488.26,10.86 487.97,11.06 487.72,11.30 487.52,11.58 487.35,11.89 487.24,12.22 487.19,12.56 487.18,12.73 487.18,22.49 487.19,22.32 487.19,22.66 487.24,23.01 487.35,23.34 487.52,23.64 487.72,23.92 487.97,24.16 488.26,24.36 488.57,24.51 488.91,24.61 489.25,24.65 " style="stroke-width: 0.53; stroke: #5ECD2E; fill: #FFFFFF;" clip-path="url(#cpNi45NzM4NXw3MTMuMDI2fDIwOS4yMjd8Ni45NzM4NQ==)"/>
  <g clip-path="url(#cpNi45NzM4NXw3MTMuMDI2fDIwOS4yMjd8Ni45NzM4NQ==)">
    <text x="490.78" y="21.05" style="font-size: 9.96px; fill: #5ECD2E; font-family: Liberation Sans;" textLength="45.92px" lengthAdjust="spacingAndGlyphs">Monocle 2</text>
  </g>
  <polyline points="550.45,24.65 593.73,24.65 593.65,24.65 593.99,24.63 594.33,24.56 594.66,24.44 594.96,24.27 595.23,24.05 595.46,23.79 595.65,23.49 595.78,23.17 595.87,22.84 595.89,22.49 595.89,22.49 595.89,12.73 595.89,12.73 595.87,12.39 595.78,12.05 595.65,11.73 595.46,11.44 595.23,11.18 594.96,10.96 594.66,10.78 594.33,10.66 593.99,10.59 593.73,10.57 550.45,10.57 550.71,10.59 550.37,10.58 550.02,10.62 549.69,10.71 549.37,10.86 549.09,11.06 548.84,11.30 548.63,11.58 548.47,11.89 548.36,12.22 548.30,12.56 548.29,12.73 548.29,22.49 548.30,22.32 548.30,22.66 548.36,23.01 548.47,23.34 548.63,23.64 548.84,23.92 549.09,24.16 549.37,24.36 549.69,24.51 550.02,24.61 550.37,24.65 " style="stroke-width: 0.53; stroke: #AF0DC7; fill: #FFFFFF;" clip-path="url(#cpNi45NzM4NXw3MTMuMDI2fDIwOS4yMjd8Ni45NzM4NQ==)"/>
  <g clip-path="url(#cpNi45NzM4NXw3MTMuMDI2fDIwOS4yMjd8Ni45NzM4NQ==)">
    <text x="551.89" y="21.05" style="font-size: 9.96px; fill: #AF0DC7; font-family: Liberation Sans;" textLength="40.40px" lengthAdjust="spacingAndGlyphs">HopLand</text>
  </g>
  <polyline points="345.50,205.63 368.29,205.63 368.20,205.62 368.55,205.61 368.89,205.54 369.22,205.42 369.52,205.24 369.79,205.02 370.02,204.76 370.20,204.47 370.34,204.15 370.42,203.81 370.45,203.47 370.45,203.47 370.45,193.71 370.45,193.71 370.42,193.37 370.34,193.03 370.20,192.71 370.02,192.41 369.79,192.15 369.52,191.93 369.22,191.76 368.89,191.64 368.55,191.57 368.29,191.55 345.50,191.55 345.76,191.57 345.42,191.55 345.07,191.60 344.74,191.69 344.42,191.84 344.14,192.04 343.89,192.28 343.68,192.56 343.52,192.87 343.41,193.19 343.35,193.54 343.34,193.71 343.34,203.47 343.35,203.29 343.35,203.64 343.41,203.98 343.52,204.31 343.68,204.62 343.89,204.90 344.14,205.14 344.42,205.34 344.74,205.49 345.07,205.58 345.42,205.62 " style="stroke-width: 0.53; stroke: #0073D7; fill: #FFFFFF;" clip-path="url(#cpNi45NzM4NXw3MTMuMDI2fDIwOS4yMjd8Ni45NzM4NQ==)"/>
  <g clip-path="url(#cpNi45NzM4NXw3MTMuMDI2fDIwOS4yMjd8Ni45NzM4NQ==)">
    <text x="346.94" y="202.03" style="font-size: 9.96px; fill: #0073D7; font-family: Liberation Sans;" textLength="19.91px" lengthAdjust="spacingAndGlyphs">DPT</text>
  </g>
  <polyline points="510.90,107.38 534.79,107.38 534.70,107.38 535.05,107.36 535.39,107.29 535.72,107.17 536.02,106.99 536.29,106.77 536.52,106.51 536.70,106.22 536.84,105.90 536.92,105.56 536.95,105.22 536.95,105.22 536.95,95.46 536.95,95.46 536.92,95.12 536.84,94.78 536.70,94.46 536.52,94.16 536.29,93.90 536.02,93.68 535.72,93.51 535.39,93.39 535.05,93.32 534.79,93.30 510.90,93.30 511.16,93.32 510.81,93.30 510.47,93.35 510.14,93.44 509.82,93.59 509.54,93.79 509.28,94.03 509.08,94.31 508.91,94.62 508.80,94.94 508.75,95.29 508.74,95.46 508.74,105.22 508.75,105.04 508.75,105.39 508.80,105.73 508.91,106.06 509.08,106.37 509.28,106.65 509.54,106.89 509.82,107.09 510.14,107.24 510.47,107.33 510.81,107.38 " style="stroke-width: 0.53; stroke: #CFBF00; fill: #FFFFFF;" clip-path="url(#cpNi45NzM4NXw3MTMuMDI2fDIwOS4yMjd8Ni45NzM4NQ==)"/>
  <g clip-path="url(#cpNi45NzM4NXw3MTMuMDI2fDIwOS4yMjd8Ni45NzM4NQ==)">
    <text x="512.34" y="103.78" style="font-size: 9.96px; fill: #CFBF00; font-family: Liberation Sans;" textLength="21.01px" lengthAdjust="spacingAndGlyphs">MFA</text>
  </g>
  <polyline points="409.89,53.03 461.99,53.03 461.90,53.03 462.25,53.01 462.59,52.95 462.92,52.82 463.22,52.65 463.49,52.43 463.72,52.17 463.90,51.87 464.04,51.55 464.12,51.22 464.15,50.87 464.15,50.87 464.15,41.12 464.15,41.12 464.12,40.77 464.04,40.43 463.90,40.11 463.72,39.82 463.49,39.56 463.22,39.34 462.92,39.16 462.59,39.04 462.25,38.97 461.99,38.96 409.89,38.96 410.15,38.97 409.80,38.96 409.46,39.00 409.12,39.10 408.81,39.24 408.52,39.44 408.27,39.68 408.06,39.96 407.90,40.27 407.79,40.60 407.74,40.94 407.73,41.12 407.73,50.87 407.74,50.70 407.74,51.04 407.79,51.39 407.90,51.72 408.06,52.02 408.27,52.30 408.52,52.54 408.81,52.74 409.12,52.89 409.46,52.99 409.80,53.03 " style="stroke-width: 0.53; stroke: #AF0DC7; fill: #FFFFFF;" clip-path="url(#cpNi45NzM4NXw3MTMuMDI2fDIwOS4yMjd8Ni45NzM4NQ==)"/>
  <g clip-path="url(#cpNi45NzM4NXw3MTMuMDI2fDIwOS4yMjd8Ni45NzM4NQ==)">
    <text x="411.33" y="49.43" style="font-size: 9.96px; fill: #AF0DC7; font-family: Liberation Sans;" textLength="49.22px" lengthAdjust="spacingAndGlyphs">WaveCrest</text>
  </g>
  <polyline points="559.30,97.94 596.48,97.94 596.39,97.94 596.74,97.93 597.08,97.86 597.40,97.73 597.70,97.56 597.97,97.34 598.20,97.08 598.39,96.79 598.53,96.47 598.61,96.13 598.64,95.78 598.64,95.78 598.64,86.03 598.64,86.03 598.61,85.68 598.53,85.34 598.39,85.02 598.20,84.73 597.97,84.47 597.70,84.25 597.40,84.08 597.08,83.95 596.74,83.88 596.48,83.87 559.30,83.87 559.56,83.88 559.21,83.87 558.86,83.91 558.53,84.01 558.22,84.16 557.93,84.35 557.68,84.59 557.47,84.87 557.31,85.18 557.20,85.51 557.14,85.85 557.14,86.03 557.14,95.78 557.14,95.61 557.14,95.96 557.20,96.30 557.31,96.63 557.47,96.94 557.68,97.21 557.93,97.46 558.22,97.65 558.53,97.80 558.86,97.90 559.21,97.94 " style="stroke-width: 0.53; stroke: #AF0DC7; fill: #FFFFFF;" clip-path="url(#cpNi45NzM4NXw3MTMuMDI2fDIwOS4yMjd8Ni45NzM4NQ==)"/>
  <g clip-path="url(#cpNi45NzM4NXw3MTMuMDI2fDIwOS4yMjd8Ni45NzM4NQ==)">
    <text x="560.74" y="94.34" style="font-size: 9.96px; fill: #AF0DC7; font-family: Liberation Sans;" textLength="34.30px" lengthAdjust="spacingAndGlyphs">SoptSC</text>
  </g>
  <polyline points="568.42,70.58 592.32,70.58 592.23,70.58 592.58,70.57 592.92,70.50 593.25,70.38 593.55,70.20 593.82,69.98 594.05,69.72 594.23,69.43 594.37,69.11 594.45,68.77 594.48,68.42 594.48,68.42 594.48,58.67 594.48,58.67 594.45,58.32 594.37,57.99 594.23,57.67 594.05,57.37 593.82,57.11 593.55,56.89 593.25,56.72 592.92,56.59 592.58,56.52 592.32,56.51 568.42,56.51 568.68,56.52 568.33,56.51 567.99,56.55 567.65,56.65 567.34,56.80 567.05,57.00 566.80,57.24 566.59,57.51 566.43,57.82 566.32,58.15 566.27,58.50 566.26,58.67 566.26,68.42 566.27,68.25 566.27,68.60 566.32,68.94 566.43,69.27 566.59,69.58 566.80,69.86 567.05,70.10 567.34,70.29 567.65,70.44 567.99,70.54 568.33,70.58 " style="stroke-width: 0.53; stroke: #0073D7; fill: #FFFFFF;" clip-path="url(#cpNi45NzM4NXw3MTMuMDI2fDIwOS4yMjd8Ni45NzM4NQ==)"/>
  <g clip-path="url(#cpNi45NzM4NXw3MTMuMDI2fDIwOS4yMjd8Ni45NzM4NQ==)">
    <text x="569.86" y="66.98" style="font-size: 9.96px; fill: #0073D7; font-family: Liberation Sans;" textLength="21.02px" lengthAdjust="spacingAndGlyphs">BGP</text>
  </g>
  <polyline points="415.14,146.03 453.42,146.03 453.34,146.03 453.68,146.01 454.03,145.94 454.35,145.82 454.65,145.65 454.92,145.43 455.15,145.17 455.34,144.87 455.47,144.55 455.56,144.22 455.58,143.87 455.58,143.87 455.58,134.11 455.58,134.11 455.56,133.77 455.47,133.43 455.34,133.11 455.15,132.82 454.92,132.56 454.65,132.34 454.35,132.16 454.03,132.04 453.68,131.97 453.42,131.95 415.14,131.95 415.40,131.97 415.06,131.96 414.71,132.00 414.38,132.09 414.06,132.24 413.78,132.44 413.53,132.68 413.32,132.96 413.16,133.27 413.05,133.60 412.99,133.94 412.98,134.11 412.98,143.87 412.99,143.70 412.99,144.04 413.05,144.39 413.16,144.72 413.32,145.02 413.53,145.30 413.78,145.54 414.06,145.74 414.38,145.89 414.71,145.99 415.06,146.03 " style="stroke-width: 0.53; stroke: #5ECD2E; fill: #FFFFFF;" clip-path="url(#cpNi45NzM4NXw3MTMuMDI2fDIwOS4yMjd8Ni45NzM4NQ==)"/>
  <g clip-path="url(#cpNi45NzM4NXw3MTMuMDI2fDIwOS4yMjd8Ni45NzM4NQ==)">
    <text x="416.58" y="142.43" style="font-size: 9.96px; fill: #5ECD2E; font-family: Liberation Sans;" textLength="35.40px" lengthAdjust="spacingAndGlyphs">cellTree</text>
  </g>
  <polyline points="546.76,80.92 578.39,80.92 578.31,80.92 578.65,80.91 578.99,80.84 579.32,80.72 579.62,80.54 579.89,80.32 580.12,80.06 580.31,79.77 580.44,79.45 580.52,79.11 580.55,78.76 580.55,78.76 580.55,69.01 580.55,69.01 580.52,68.66 580.44,68.33 580.31,68.01 580.12,67.71 579.89,67.45 579.62,67.23 579.32,67.06 578.99,66.93 578.65,66.87 578.39,66.85 546.76,66.85 547.02,66.87 546.67,66.85 546.32,66.89 545.99,66.99 545.68,67.14 545.39,67.34 545.14,67.58 544.93,67.86 544.77,68.16 544.66,68.49 544.60,68.84 544.60,69.01 544.60,78.76 544.60,78.59 544.60,78.94 544.66,79.28 544.77,79.61 544.93,79.92 545.14,80.20 545.39,80.44 545.68,80.64 545.99,80.78 546.32,80.88 546.67,80.92 " style="stroke-width: 0.53; stroke: #39CCCC; fill: #FFFFFF;" clip-path="url(#cpNi45NzM4NXw3MTMuMDI2fDIwOS4yMjd8Ni45NzM4NQ==)"/>
  <g clip-path="url(#cpNi45NzM4NXw3MTMuMDI2fDIwOS4yMjd8Ni45NzM4NQ==)">
    <text x="548.20" y="77.32" style="font-size: 9.96px; fill: #39CCCC; font-family: Liberation Sans;" textLength="28.76px" lengthAdjust="spacingAndGlyphs">reCAT</text>
  </g>
  <polyline points="430.59,94.22 481.02,94.22 480.93,94.22 481.28,94.20 481.62,94.13 481.95,94.01 482.25,93.84 482.52,93.62 482.75,93.36 482.93,93.06 483.07,92.74 483.15,92.41 483.18,92.06 483.18,92.06 483.18,82.30 483.18,82.30 483.15,81.96 483.07,81.62 482.93,81.30 482.75,81.01 482.52,80.75 482.25,80.53 481.95,80.35 481.62,80.23 481.28,80.16 481.02,80.14 430.59,80.14 430.85,80.16 430.50,80.15 430.15,80.19 429.82,80.28 429.51,80.43 429.22,80.63 428.97,80.87 428.76,81.15 428.60,81.46 428.49,81.79 428.43,82.13 428.43,82.30 428.43,92.06 428.43,91.88 428.43,92.23 428.49,92.58 428.60,92.91 428.76,93.21 428.97,93.49 429.22,93.73 429.51,93.93 429.82,94.08 430.15,94.18 430.50,94.22 " style="stroke-width: 0.53; stroke: #AF0DC7; fill: #FFFFFF;" clip-path="url(#cpNi45NzM4NXw3MTMuMDI2fDIwOS4yMjd8Ni45NzM4NQ==)"/>
  <g clip-path="url(#cpNi45NzM4NXw3MTMuMDI2fDIwOS4yMjd8Ni45NzM4NQ==)">
    <text x="432.03" y="90.62" style="font-size: 9.96px; fill: #AF0DC7; font-family: Liberation Sans;" textLength="47.55px" lengthAdjust="spacingAndGlyphs">SCIMITAR</text>
  </g>
  <polyline points="515.03,91.94 547.22,91.94 547.13,91.94 547.48,91.92 547.82,91.85 548.14,91.73 548.44,91.56 548.71,91.34 548.94,91.08 549.13,90.78 549.27,90.46 549.35,90.13 549.38,89.78 549.38,89.78 549.38,80.02 549.38,80.02 549.35,79.68 549.27,79.34 549.13,79.02 548.94,78.73 548.71,78.47 548.44,78.25 548.14,78.07 547.82,77.95 547.48,77.88 547.22,77.86 515.03,77.86 515.29,77.88 514.94,77.87 514.60,77.91 514.26,78.00 513.95,78.15 513.66,78.35 513.41,78.59 513.20,78.87 513.04,79.18 512.93,79.51 512.87,79.85 512.87,80.02 512.87,89.78 512.87,89.61 512.87,89.95 512.93,90.30 513.04,90.63 513.20,90.93 513.41,91.21 513.66,91.45 513.95,91.65 514.26,91.80 514.60,91.90 514.94,91.94 " style="stroke-width: 0.53; stroke: #5ECD2E; fill: #FFFFFF;" clip-path="url(#cpNi45NzM4NXw3MTMuMDI2fDIwOS4yMjd8Ni45NzM4NQ==)"/>
  <g clip-path="url(#cpNi45NzM4NXw3MTMuMDI2fDIwOS4yMjd8Ni45NzM4NQ==)">
    <text x="516.47" y="88.34" style="font-size: 9.96px; fill: #5ECD2E; font-family: Liberation Sans;" textLength="29.31px" lengthAdjust="spacingAndGlyphs">TASIC</text>
  </g>
  <polyline points="387.83,74.97 426.11,74.97 426.02,74.97 426.37,74.95 426.71,74.88 427.03,74.76 427.34,74.58 427.60,74.36 427.84,74.10 428.02,73.81 428.16,73.49 428.24,73.15 428.27,72.81 428.27,72.81 428.27,63.05 428.27,63.05 428.24,62.71 428.16,62.37 428.02,62.05 427.84,61.75 427.60,61.49 427.34,61.27 427.03,61.10 426.71,60.98 426.37,60.91 426.11,60.89 387.83,60.89 388.09,60.91 387.75,60.89 387.40,60.94 387.07,61.03 386.75,61.18 386.47,61.38 386.22,61.62 386.01,61.90 385.85,62.21 385.74,62.53 385.68,62.88 385.67,63.05 385.67,72.81 385.68,72.63 385.68,72.98 385.74,73.32 385.85,73.65 386.01,73.96 386.22,74.24 386.47,74.48 386.75,74.68 387.07,74.83 387.40,74.92 387.75,74.97 " style="stroke-width: 0.53; stroke: #CFBF00; fill: #FFFFFF;" clip-path="url(#cpNi45NzM4NXw3MTMuMDI2fDIwOS4yMjd8Ni45NzM4NQ==)"/>
  <g clip-path="url(#cpNi45NzM4NXw3MTMuMDI2fDIwOS4yMjd8Ni45NzM4NQ==)">
    <text x="389.27" y="71.37" style="font-size: 9.96px; fill: #CFBF00; font-family: Liberation Sans;" textLength="35.39px" lengthAdjust="spacingAndGlyphs">SCOUP</text>
  </g>
  <polyline points="532.53,124.50 576.89,124.50 576.80,124.50 577.15,124.48 577.49,124.41 577.81,124.29 578.12,124.12 578.39,123.90 578.62,123.64 578.80,123.34 578.94,123.02 579.02,122.68 579.05,122.34 579.05,122.34 579.05,112.58 579.05,112.58 579.02,112.24 578.94,111.90 578.80,111.58 578.62,111.29 578.39,111.02 578.12,110.81 577.81,110.63 577.49,110.51 577.15,110.44 576.89,110.42 532.53,110.42 532.79,110.44 532.45,110.42 532.10,110.47 531.77,110.56 531.45,110.71 531.17,110.91 530.92,111.15 530.71,111.43 530.55,111.74 530.44,112.07 530.38,112.41 530.37,112.58 530.37,122.34 530.38,122.16 530.38,122.51 530.44,122.85 530.55,123.18 530.71,123.49 530.92,123.77 531.17,124.01 531.45,124.21 531.77,124.36 532.10,124.45 532.45,124.50 " style="stroke-width: 0.53; stroke: #AF0DC7; fill: #FFFFFF;" clip-path="url(#cpNi45NzM4NXw3MTMuMDI2fDIwOS4yMjd8Ni45NzM4NQ==)"/>
  <g clip-path="url(#cpNi45NzM4NXw3MTMuMDI2fDIwOS4yMjd8Ni45NzM4NQ==)">
    <text x="533.97" y="120.90" style="font-size: 9.96px; fill: #AF0DC7; font-family: Liberation Sans;" textLength="41.47px" lengthAdjust="spacingAndGlyphs">UNCURL</text>
  </g>
  <polyline points="583.81,154.80 651.42,154.80 651.34,154.80 651.68,154.78 652.02,154.71 652.35,154.59 652.65,154.42 652.92,154.20 653.15,153.94 653.34,153.64 653.47,153.32 653.55,152.99 653.58,152.64 653.58,152.64 653.58,142.88 653.58,142.88 653.55,142.54 653.47,142.20 653.34,141.88 653.15,141.59 652.92,141.33 652.65,141.11 652.35,140.93 652.02,140.81 651.68,140.74 651.42,140.72 583.81,140.72 584.07,140.74 583.72,140.73 583.38,140.77 583.04,140.86 582.73,141.01 582.44,141.21 582.19,141.45 581.98,141.73 581.82,142.04 581.71,142.37 581.66,142.71 581.65,142.88 581.65,152.64 581.66,152.47 581.66,152.81 581.71,153.16 581.82,153.49 581.98,153.79 582.19,154.07 582.44,154.31 582.73,154.51 583.04,154.66 583.38,154.76 583.72,154.80 " style="stroke-width: 0.53; stroke: #AF0DC7; fill: #FFFFFF;" clip-path="url(#cpNi45NzM4NXw3MTMuMDI2fDIwOS4yMjd8Ni45NzM4NQ==)"/>
  <g clip-path="url(#cpNi45NzM4NXw3MTMuMDI2fDIwOS4yMjd8Ni45NzM4NQ==)">
    <text x="585.25" y="151.20" style="font-size: 9.96px; fill: #AF0DC7; font-family: Liberation Sans;" textLength="64.73px" lengthAdjust="spacingAndGlyphs">GPseudoRank</text>
  </g>
  <polyline points="516.25,162.76 558.41,162.76 558.32,162.76 558.67,162.75 559.01,162.68 559.34,162.55 559.64,162.38 559.91,162.16 560.14,161.90 560.32,161.61 560.46,161.29 560.54,160.95 560.57,160.60 560.57,160.60 560.57,150.85 560.57,150.85 560.54,150.50 560.46,150.16 560.32,149.84 560.14,149.55 559.91,149.29 559.64,149.07 559.34,148.90 559.01,148.77 558.67,148.70 558.41,148.69 516.25,148.69 516.51,148.70 516.16,148.69 515.82,148.73 515.48,148.83 515.17,148.98 514.88,149.17 514.63,149.42 514.42,149.69 514.26,150.00 514.15,150.33 514.10,150.67 514.09,150.85 514.09,160.60 514.10,160.43 514.10,160.78 514.15,161.12 514.26,161.45 514.42,161.76 514.63,162.04 514.88,162.28 515.17,162.47 515.48,162.62 515.82,162.72 516.16,162.76 " style="stroke-width: 0.53; stroke: #5ECD2E; fill: #FFFFFF;" clip-path="url(#cpNi45NzM4NXw3MTMuMDI2fDIwOS4yMjd8Ni45NzM4NQ==)"/>
  <g clip-path="url(#cpNi45NzM4NXw3MTMuMDI2fDIwOS4yMjd8Ni45NzM4NQ==)">
    <text x="517.69" y="159.16" style="font-size: 9.96px; fill: #5ECD2E; font-family: Liberation Sans;" textLength="39.28px" lengthAdjust="spacingAndGlyphs">slingshot</text>
  </g>
  <polyline points="638.75,188.34 677.59,188.34 677.51,188.34 677.85,188.32 678.19,188.25 678.52,188.13 678.82,187.96 679.09,187.74 679.32,187.48 679.51,187.18 679.64,186.86 679.73,186.52 679.75,186.18 679.75,186.18 679.75,176.42 679.75,176.42 679.73,176.08 679.64,175.74 679.51,175.42 679.32,175.13 679.09,174.87 678.82,174.65 678.52,174.47 678.19,174.35 677.85,174.28 677.59,174.26 638.75,174.26 639.01,174.28 638.66,174.26 638.32,174.31 637.98,174.40 637.67,174.55 637.38,174.75 637.13,174.99 636.92,175.27 636.76,175.58 636.65,175.91 636.60,176.25 636.59,176.42 636.59,186.18 636.60,186.00 636.60,186.35 636.65,186.69 636.76,187.02 636.92,187.33 637.13,187.61 637.38,187.85 637.67,188.05 637.98,188.20 638.32,188.29 638.66,188.34 " style="stroke-width: 0.53; stroke: #5ECD2E; fill: #FFFFFF;" clip-path="url(#cpNi45NzM4NXw3MTMuMDI2fDIwOS4yMjd8Ni45NzM4NQ==)"/>
  <g clip-path="url(#cpNi45NzM4NXw3MTMuMDI2fDIwOS4yMjd8Ni45NzM4NQ==)">
    <text x="640.19" y="184.74" style="font-size: 9.96px; fill: #5ECD2E; font-family: Liberation Sans;" textLength="35.96px" lengthAdjust="spacingAndGlyphs">scEpath</text>
  </g>
  <polyline points="185.61,183.33 216.15,183.33 216.06,183.33 216.41,183.32 216.75,183.25 217.07,183.13 217.37,182.95 217.64,182.73 217.87,182.47 218.06,182.18 218.20,181.86 218.28,181.52 218.31,181.17 218.31,181.17 218.31,171.42 218.31,171.42 218.28,171.07 218.20,170.74 218.06,170.42 217.87,170.12 217.64,169.86 217.37,169.64 217.07,169.47 216.75,169.35 216.41,169.28 216.15,169.26 185.61,169.26 185.87,169.28 185.52,169.26 185.18,169.30 184.84,169.40 184.53,169.55 184.24,169.75 183.99,169.99 183.78,170.27 183.62,170.57 183.51,170.90 183.46,171.25 183.45,171.42 183.45,181.17 183.46,181.00 183.46,181.35 183.51,181.69 183.62,182.02 183.78,182.33 183.99,182.61 184.24,182.85 184.53,183.05 184.84,183.19 185.18,183.29 185.52,183.33 " style="stroke-width: 0.53; stroke: #5ECD2E; fill: #FFFFFF;" clip-path="url(#cpNi45NzM4NXw3MTMuMDI2fDIwOS4yMjd8Ni45NzM4NQ==)"/>
  <g clip-path="url(#cpNi45NzM4NXw3MTMuMDI2fDIwOS4yMjd8Ni45NzM4NQ==)">
    <text x="187.05" y="179.73" style="font-size: 9.96px; fill: #5ECD2E; font-family: Liberation Sans;" textLength="27.66px" lengthAdjust="spacingAndGlyphs">sincell</text>
  </g>
  <polyline points="491.57,69.92 529.30,69.92 529.21,69.92 529.56,69.90 529.90,69.83 530.22,69.71 530.52,69.54 530.79,69.32 531.02,69.06 531.21,68.76 531.34,68.44 531.43,68.11 531.46,67.76 531.46,67.76 531.46,58.00 531.46,58.00 531.43,57.66 531.34,57.32 531.21,57.00 531.02,56.71 530.79,56.45 530.52,56.23 530.22,56.05 529.90,55.93 529.56,55.86 529.30,55.84 491.57,55.84 491.83,55.86 491.48,55.85 491.13,55.89 490.80,55.99 490.49,56.13 490.20,56.33 489.95,56.57 489.74,56.85 489.58,57.16 489.47,57.49 489.41,57.83 489.41,58.00 489.41,67.76 489.41,67.59 489.41,67.93 489.47,68.28 489.58,68.61 489.74,68.91 489.95,69.19 490.20,69.43 490.49,69.63 490.80,69.78 491.13,69.88 491.48,69.92 " style="stroke-width: 0.53; stroke: #AF0DC7; fill: #FFFFFF;" clip-path="url(#cpNi45NzM4NXw3MTMuMDI2fDIwOS4yMjd8Ni45NzM4NQ==)"/>
  <g clip-path="url(#cpNi45NzM4NXw3MTMuMDI2fDIwOS4yMjd8Ni45NzM4NQ==)">
    <text x="493.01" y="66.32" style="font-size: 9.96px; fill: #AF0DC7; font-family: Liberation Sans;" textLength="34.85px" lengthAdjust="spacingAndGlyphs">topslam</text>
  </g>
  <polyline points="538.60,140.96 590.69,140.96 590.60,140.96 590.95,140.94 591.29,140.87 591.62,140.75 591.92,140.58 592.19,140.36 592.42,140.10 592.60,139.80 592.74,139.48 592.82,139.14 592.85,138.80 592.85,138.80 592.85,129.04 592.85,129.04 592.82,128.70 592.74,128.36 592.60,128.04 592.42,127.75 592.19,127.48 591.92,127.26 591.62,127.09 591.29,126.97 590.95,126.90 590.69,126.88 538.60,126.88 538.86,126.90 538.51,126.88 538.17,126.93 537.83,127.02 537.52,127.17 537.23,127.37 536.98,127.61 536.77,127.89 536.61,128.20 536.50,128.53 536.45,128.87 536.44,129.04 536.44,138.80 536.45,138.62 536.45,138.97 536.50,139.31 536.61,139.64 536.77,139.95 536.98,140.23 537.23,140.47 537.52,140.67 537.83,140.82 538.17,140.91 538.51,140.96 " style="stroke-width: 0.53; stroke: #AF0DC7; fill: #FFFFFF;" clip-path="url(#cpNi45NzM4NXw3MTMuMDI2fDIwOS4yMjd8Ni45NzM4NQ==)"/>
  <g clip-path="url(#cpNi45NzM4NXw3MTMuMDI2fDIwOS4yMjd8Ni45NzM4NQ==)">
    <text x="540.04" y="137.36" style="font-size: 9.96px; fill: #AF0DC7; font-family: Liberation Sans;" textLength="49.21px" lengthAdjust="spacingAndGlyphs">MATCHER</text>
  </g>
  <polyline points="490.59,146.09 537.72,146.09 537.64,146.09 537.98,146.07 538.32,146.00 538.65,145.88 538.95,145.71 539.22,145.49 539.45,145.23 539.64,144.93 539.77,144.61 539.85,144.28 539.88,143.93 539.88,143.93 539.88,134.17 539.88,134.17 539.85,133.83 539.77,133.49 539.64,133.17 539.45,132.88 539.22,132.62 538.95,132.40 538.65,132.22 538.32,132.10 537.98,132.03 537.72,132.01 490.59,132.01 490.85,132.03 490.50,132.02 490.16,132.06 489.82,132.15 489.51,132.30 489.22,132.50 488.97,132.74 488.76,133.02 488.60,133.33 488.49,133.66 488.44,134.00 488.43,134.17 488.43,143.93 488.44,143.76 488.44,144.10 488.49,144.45 488.60,144.78 488.76,145.08 488.97,145.36 489.22,145.60 489.51,145.80 489.82,145.95 490.16,146.05 490.50,146.09 " style="stroke-width: 0.53; stroke: #5ECD2E; fill: #FFFFFF;" clip-path="url(#cpNi45NzM4NXw3MTMuMDI2fDIwOS4yMjd8Ni45NzM4NQ==)"/>
  <g clip-path="url(#cpNi45NzM4NXw3MTMuMDI2fDIwOS4yMjd8Ni45NzM4NQ==)">
    <text x="492.03" y="142.49" style="font-size: 9.96px; fill: #5ECD2E; font-family: Liberation Sans;" textLength="44.25px" lengthAdjust="spacingAndGlyphs">Granatum</text>
  </g>
  <polyline points="276.64,184.29 318.80,184.29 318.71,184.29 319.06,184.28 319.40,184.21 319.72,184.08 320.03,183.91 320.29,183.69 320.53,183.43 320.71,183.14 320.85,182.82 320.93,182.48 320.96,182.13 320.96,182.13 320.96,172.38 320.96,172.38 320.93,172.03 320.85,171.69 320.71,171.37 320.53,171.08 320.29,170.82 320.03,170.60 319.72,170.43 319.40,170.30 319.06,170.23 318.80,170.22 276.64,170.22 276.90,170.23 276.55,170.22 276.20,170.26 275.87,170.36 275.56,170.51 275.27,170.71 275.02,170.95 274.81,171.22 274.65,171.53 274.54,171.86 274.48,172.20 274.48,172.38 274.48,182.13 274.48,181.96 274.48,182.31 274.54,182.65 274.65,182.98 274.81,183.29 275.02,183.57 275.27,183.81 275.56,184.00 275.87,184.15 276.20,184.25 276.55,184.29 " style="stroke-width: 0.53; stroke: #AF0DC7; fill: #FFFFFF;" clip-path="url(#cpNi45NzM4NXw3MTMuMDI2fDIwOS4yMjd8Ni45NzM4NQ==)"/>
  <g clip-path="url(#cpNi45NzM4NXw3MTMuMDI2fDIwOS4yMjd8Ni45NzM4NQ==)">
    <text x="278.08" y="180.69" style="font-size: 9.96px; fill: #AF0DC7; font-family: Liberation Sans;" textLength="39.28px" lengthAdjust="spacingAndGlyphs">embeddr</text>
  </g>
  <polyline points="362.72,59.08 401.56,59.08 401.47,59.08 401.82,59.06 402.16,58.99 402.48,58.87 402.78,58.70 403.05,58.48 403.28,58.22 403.47,57.92 403.61,57.60 403.69,57.26 403.72,56.92 403.72,56.92 403.72,47.16 403.72,47.16 403.69,46.82 403.61,46.48 403.47,46.16 403.28,45.87 403.05,45.61 402.78,45.39 402.48,45.21 402.16,45.09 401.82,45.02 401.56,45.00 362.72,45.00 362.98,45.02 362.64,45.00 362.29,45.05 361.96,45.14 361.64,45.29 361.36,45.49 361.11,45.73 360.90,46.01 360.74,46.32 360.63,46.65 360.57,46.99 360.56,47.16 360.56,56.92 360.57,56.74 360.57,57.09 360.63,57.44 360.74,57.76 360.90,58.07 361.11,58.35 361.36,58.59 361.64,58.79 361.96,58.94 362.29,59.03 362.64,59.08 " style="stroke-width: 0.53; stroke: #FF8821; fill: #FFFFFF;" clip-path="url(#cpNi45NzM4NXw3MTMuMDI2fDIwOS4yMjd8Ni45NzM4NQ==)"/>
  <g clip-path="url(#cpNi45NzM4NXw3MTMuMDI2fDIwOS4yMjd8Ni45NzM4NQ==)">
    <text x="364.16" y="55.48" style="font-size: 9.96px; fill: #FF8821; font-family: Liberation Sans;" textLength="35.95px" lengthAdjust="spacingAndGlyphs">SLICER</text>
  </g>
  <polyline points="394.32,115.42 430.38,115.42 430.30,115.42 430.64,115.41 430.98,115.34 431.31,115.21 431.61,115.04 431.88,114.82 432.11,114.56 432.30,114.27 432.43,113.95 432.51,113.61 432.54,113.26 432.54,113.26 432.54,103.51 432.54,103.51 432.51,103.16 432.43,102.82 432.30,102.50 432.11,102.21 431.88,101.95 431.61,101.73 431.31,101.56 430.98,101.43 430.64,101.36 430.38,101.35 394.32,101.35 394.58,101.36 394.23,101.35 393.89,101.39 393.55,101.49 393.24,101.64 392.95,101.83 392.70,102.07 392.49,102.35 392.33,102.66 392.22,102.99 392.17,103.33 392.16,103.51 392.16,113.26 392.17,113.09 392.17,113.44 392.22,113.78 392.33,114.11 392.49,114.42 392.70,114.69 392.95,114.94 393.24,115.13 393.55,115.28 393.89,115.38 394.23,115.42 " style="stroke-width: 0.53; stroke: #5ECD2E; fill: #FFFFFF;" clip-path="url(#cpNi45NzM4NXw3MTMuMDI2fDIwOS4yMjd8Ni45NzM4NQ==)"/>
  <g clip-path="url(#cpNi45NzM4NXw3MTMuMDI2fDIwOS4yMjd8Ni45NzM4NQ==)">
    <text x="395.76" y="111.82" style="font-size: 9.96px; fill: #5ECD2E; font-family: Liberation Sans;" textLength="33.18px" lengthAdjust="spacingAndGlyphs">StemID</text>
  </g>
  <polyline points="59.22,180.82 112.44,180.82 112.35,180.82 112.70,180.80 113.04,180.74 113.37,180.61 113.67,180.44 113.94,180.22 114.17,179.96 114.35,179.66 114.49,179.34 114.57,179.01 114.60,178.66 114.60,178.66 114.60,168.91 114.60,168.91 114.57,168.56 114.49,168.22 114.35,167.90 114.17,167.61 113.94,167.35 113.67,167.13 113.37,166.95 113.04,166.83 112.70,166.76 112.44,166.75 59.22,166.75 59.48,166.76 59.13,166.75 58.79,166.79 58.46,166.89 58.14,167.04 57.86,167.23 57.60,167.47 57.40,167.75 57.23,168.06 57.12,168.39 57.07,168.73 57.06,168.91 57.06,178.66 57.07,178.49 57.07,178.83 57.12,179.18 57.23,179.51 57.40,179.82 57.60,180.09 57.86,180.33 58.14,180.53 58.46,180.68 58.79,180.78 59.13,180.82 " style="stroke-width: 0.53; stroke: #AF0DC7; fill: #FFFFFF;" clip-path="url(#cpNi45NzM4NXw3MTMuMDI2fDIwOS4yMjd8Ni45NzM4NQ==)"/>
  <g clip-path="url(#cpNi45NzM4NXw3MTMuMDI2fDIwOS4yMjd8Ni45NzM4NQ==)">
    <text x="60.66" y="177.22" style="font-size: 9.96px; fill: #AF0DC7; font-family: Liberation Sans;" textLength="50.34px" lengthAdjust="spacingAndGlyphs">Wanderlust</text>
  </g>
  <polyline points="568.14,180.16 590.94,180.16 590.85,180.16 591.20,180.14 591.54,180.07 591.87,179.95 592.17,179.78 592.44,179.56 592.67,179.30 592.85,179.00 592.99,178.68 593.07,178.34 593.10,178.00 593.10,178.00 593.10,168.24 593.10,168.24 593.07,167.90 592.99,167.56 592.85,167.24 592.67,166.94 592.44,166.68 592.17,166.46 591.87,166.29 591.54,166.17 591.20,166.10 590.94,166.08 568.14,166.08 568.40,166.10 568.06,166.08 567.71,166.13 567.38,166.22 567.06,166.37 566.78,166.57 566.53,166.81 566.32,167.09 566.16,167.40 566.05,167.73 565.99,168.07 565.98,168.24 565.98,178.00 565.99,177.82 565.99,178.17 566.05,178.51 566.16,178.84 566.32,179.15 566.53,179.43 566.78,179.67 567.06,179.87 567.38,180.02 567.71,180.11 568.06,180.16 " style="stroke-width: 0.53; stroke: #CFBF00; fill: #FFFFFF;" clip-path="url(#cpNi45NzM4NXw3MTMuMDI2fDIwOS4yMjd8Ni45NzM4NQ==)"/>
  <g clip-path="url(#cpNi45NzM4NXw3MTMuMDI2fDIwOS4yMjd8Ni45NzM4NQ==)">
    <text x="569.58" y="176.56" style="font-size: 9.96px; fill: #CFBF00; font-family: Liberation Sans;" textLength="19.92px" lengthAdjust="spacingAndGlyphs">PBA</text>
  </g>
  <polyline points="387.40,132.03 433.99,132.03 433.91,132.03 434.25,132.02 434.59,131.95 434.92,131.82 435.22,131.65 435.49,131.43 435.72,131.17 435.91,130.88 436.04,130.56 436.12,130.22 436.15,129.87 436.15,129.87 436.15,120.12 436.15,120.12 436.12,119.77 436.04,119.43 435.91,119.11 435.72,118.82 435.49,118.56 435.22,118.34 434.92,118.17 434.59,118.04 434.25,117.97 433.99,117.96 387.40,117.96 387.66,117.97 387.31,117.96 386.97,118.00 386.63,118.10 386.32,118.25 386.03,118.45 385.78,118.69 385.57,118.96 385.41,119.27 385.30,119.60 385.24,119.94 385.24,120.12 385.24,129.87 385.24,129.70 385.24,130.05 385.30,130.39 385.41,130.72 385.57,131.03 385.78,131.31 386.03,131.55 386.32,131.74 386.63,131.89 386.97,131.99 387.31,132.03 " style="stroke-width: 0.53; stroke: #AF0DC7; fill: #FFFFFF;" clip-path="url(#cpNi45NzM4NXw3MTMuMDI2fDIwOS4yMjd8Ni45NzM4NQ==)"/>
  <g clip-path="url(#cpNi45NzM4NXw3MTMuMDI2fDIwOS4yMjd8Ni45NzM4NQ==)">
    <text x="388.84" y="128.43" style="font-size: 9.96px; fill: #AF0DC7; font-family: Liberation Sans;" textLength="43.72px" lengthAdjust="spacingAndGlyphs">DeLorean</text>
  </g>
  <polyline points="471.43,205.63 503.08,205.63 502.99,205.62 503.34,205.61 503.68,205.54 504.00,205.42 504.31,205.24 504.58,205.02 504.81,204.76 504.99,204.47 505.13,204.15 505.21,203.81 505.24,203.47 505.24,203.47 505.24,193.71 505.24,193.71 505.21,193.37 505.13,193.03 504.99,192.71 504.81,192.41 504.58,192.15 504.31,191.93 504.00,191.76 503.68,191.64 503.34,191.57 503.08,191.55 471.43,191.55 471.69,191.57 471.35,191.55 471.00,191.60 470.67,191.69 470.35,191.84 470.07,192.04 469.82,192.28 469.61,192.56 469.45,192.87 469.34,193.19 469.28,193.54 469.27,193.71 469.27,203.47 469.28,203.29 469.28,203.64 469.34,203.98 469.45,204.31 469.61,204.62 469.82,204.90 470.07,205.14 470.35,205.34 470.67,205.49 471.00,205.58 471.35,205.62 " style="stroke-width: 0.53; stroke: #5ECD2E; fill: #FFFFFF;" clip-path="url(#cpNi45NzM4NXw3MTMuMDI2fDIwOS4yMjd8Ni45NzM4NQ==)"/>
  <g clip-path="url(#cpNi45NzM4NXw3MTMuMDI2fDIwOS4yMjd8Ni45NzM4NQ==)">
    <text x="472.87" y="202.03" style="font-size: 9.96px; fill: #5ECD2E; font-family: Liberation Sans;" textLength="28.77px" lengthAdjust="spacingAndGlyphs">SLICE</text>
  </g>
  <polyline points="604.42,178.21 628.32,178.21 628.24,178.21 628.58,178.20 628.92,178.13 629.25,178.01 629.55,177.83 629.82,177.61 630.05,177.35 630.24,177.06 630.37,176.74 630.46,176.40 630.48,176.05 630.48,176.05 630.48,166.30 630.48,166.30 630.46,165.95 630.37,165.62 630.24,165.30 630.05,165.00 629.82,164.74 629.55,164.52 629.25,164.35 628.92,164.23 628.58,164.16 628.32,164.14 604.42,164.14 604.68,164.16 604.34,164.14 603.99,164.18 603.66,164.28 603.34,164.43 603.06,164.63 602.81,164.87 602.60,165.15 602.44,165.45 602.33,165.78 602.27,166.13 602.26,166.30 602.26,176.05 602.27,175.88 602.27,176.23 602.33,176.57 602.44,176.90 602.60,177.21 602.81,177.49 603.06,177.73 603.34,177.93 603.66,178.07 603.99,178.17 604.34,178.21 " style="stroke-width: 0.53; stroke: #FF4237; fill: #FFFFFF;" clip-path="url(#cpNi45NzM4NXw3MTMuMDI2fDIwOS4yMjd8Ni45NzM4NQ==)"/>
  <g clip-path="url(#cpNi45NzM4NXw3MTMuMDI2fDIwOS4yMjd8Ni45NzM4NQ==)">
    <text x="605.86" y="174.61" style="font-size: 9.96px; fill: #FF4237; font-family: Liberation Sans;" textLength="21.02px" lengthAdjust="spacingAndGlyphs">AGA</text>
  </g>
  <polyline points="400.80,205.13 431.35,205.13 431.26,205.13 431.61,205.12 431.95,205.05 432.27,204.92 432.57,204.75 432.84,204.53 433.07,204.27 433.26,203.98 433.40,203.66 433.48,203.32 433.51,202.97 433.51,202.97 433.51,193.22 433.51,193.22 433.48,192.87 433.40,192.53 433.26,192.21 433.07,191.92 432.84,191.66 432.57,191.44 432.27,191.26 431.95,191.14 431.61,191.07 431.35,191.06 400.80,191.06 401.06,191.07 400.72,191.06 400.37,191.10 400.04,191.20 399.72,191.35 399.44,191.54 399.19,191.78 398.98,192.06 398.82,192.37 398.71,192.70 398.65,193.04 398.64,193.22 398.64,202.97 398.65,202.80 398.65,203.15 398.71,203.49 398.82,203.82 398.98,204.13 399.19,204.40 399.44,204.64 399.72,204.84 400.04,204.99 400.37,205.09 400.72,205.13 " style="stroke-width: 0.53; stroke: #5ECD2E; fill: #FFFFFF;" clip-path="url(#cpNi45NzM4NXw3MTMuMDI2fDIwOS4yMjd8Ni45NzM4NQ==)"/>
  <g clip-path="url(#cpNi45NzM4NXw3MTMuMDI2fDIwOS4yMjd8Ni45NzM4NQ==)">
    <text x="402.24" y="201.53" style="font-size: 9.96px; fill: #5ECD2E; font-family: Liberation Sans;" textLength="27.66px" lengthAdjust="spacingAndGlyphs">Mpath</text>
  </g>
  <polyline points="498.46,184.20 537.30,184.20 537.21,184.20 537.56,184.18 537.90,184.11 538.23,183.99 538.53,183.82 538.80,183.60 539.03,183.34 539.21,183.04 539.35,182.72 539.43,182.39 539.46,182.04 539.46,182.04 539.46,172.28 539.46,172.28 539.43,171.94 539.35,171.60 539.21,171.28 539.03,170.99 538.80,170.73 538.53,170.51 538.23,170.33 537.90,170.21 537.56,170.14 537.30,170.12 498.46,170.12 498.72,170.14 498.37,170.13 498.03,170.17 497.69,170.26 497.38,170.41 497.09,170.61 496.84,170.85 496.64,171.13 496.47,171.44 496.36,171.77 496.31,172.11 496.30,172.28 496.30,182.04 496.31,181.87 496.31,182.21 496.36,182.56 496.47,182.89 496.64,183.19 496.84,183.47 497.09,183.71 497.38,183.91 497.69,184.06 498.03,184.16 498.37,184.20 " style="stroke-width: 0.53; stroke: #CFBF00; fill: #FFFFFF;" clip-path="url(#cpNi45NzM4NXw3MTMuMDI2fDIwOS4yMjd8Ni45NzM4NQ==)"/>
  <g clip-path="url(#cpNi45NzM4NXw3MTMuMDI2fDIwOS4yMjd8Ni45NzM4NQ==)">
    <text x="499.90" y="180.60" style="font-size: 9.96px; fill: #CFBF00; font-family: Liberation Sans;" textLength="35.96px" lengthAdjust="spacingAndGlyphs">GPfates</text>
  </g>
  <polyline points="377.90,162.75 414.52,162.75 414.43,162.75 414.78,162.74 415.12,162.67 415.44,162.55 415.74,162.37 416.01,162.15 416.24,161.89 416.43,161.60 416.57,161.28 416.65,160.94 416.68,160.59 416.68,160.59 416.68,150.84 416.68,150.84 416.65,150.49 416.57,150.16 416.43,149.84 416.24,149.54 416.01,149.28 415.74,149.06 415.44,148.89 415.12,148.77 414.78,148.70 414.52,148.68 377.90,148.68 378.16,148.70 377.82,148.68 377.47,148.72 377.14,148.82 376.82,148.97 376.54,149.17 376.29,149.41 376.08,149.69 375.92,149.99 375.81,150.32 375.75,150.67 375.74,150.84 375.74,160.59 375.75,160.42 375.75,160.77 375.81,161.11 375.92,161.44 376.08,161.75 376.29,162.03 376.54,162.27 376.82,162.47 377.14,162.61 377.47,162.71 377.82,162.75 " style="stroke-width: 0.53; stroke: #5ECD2E; fill: #FFFFFF;" clip-path="url(#cpNi45NzM4NXw3MTMuMDI2fDIwOS4yMjd8Ni45NzM4NQ==)"/>
  <g clip-path="url(#cpNi45NzM4NXw3MTMuMDI2fDIwOS4yMjd8Ni45NzM4NQ==)">
    <text x="379.34" y="159.15" style="font-size: 9.96px; fill: #5ECD2E; font-family: Liberation Sans;" textLength="33.73px" lengthAdjust="spacingAndGlyphs">TSCAN</text>
  </g>
  <polyline points="602.05,205.63 646.42,205.63 646.34,205.62 646.68,205.61 647.02,205.54 647.35,205.42 647.65,205.24 647.92,205.02 648.15,204.76 648.34,204.47 648.47,204.15 648.56,203.81 648.58,203.47 648.58,203.47 648.58,193.71 648.58,193.71 648.56,193.37 648.47,193.03 648.34,192.71 648.15,192.41 647.92,192.15 647.65,191.93 647.35,191.76 647.02,191.64 646.68,191.57 646.42,191.55 602.05,191.55 602.31,191.57 601.96,191.55 601.62,191.60 601.28,191.69 600.97,191.84 600.68,192.04 600.43,192.28 600.22,192.56 600.06,192.87 599.95,193.19 599.90,193.54 599.89,193.71 599.89,203.47 599.90,203.29 599.90,203.64 599.95,203.98 600.06,204.31 600.22,204.62 600.43,204.90 600.68,205.14 600.97,205.34 601.28,205.49 601.62,205.58 601.96,205.62 " style="stroke-width: 0.53; stroke: #5ECD2E; fill: #FFFFFF;" clip-path="url(#cpNi45NzM4NXw3MTMuMDI2fDIwOS4yMjd8Ni45NzM4NQ==)"/>
  <g clip-path="url(#cpNi45NzM4NXw3MTMuMDI2fDIwOS4yMjd8Ni45NzM4NQ==)">
    <text x="603.49" y="202.03" style="font-size: 9.96px; fill: #5ECD2E; font-family: Liberation Sans;" textLength="41.49px" lengthAdjust="spacingAndGlyphs">p-Creode</text>
  </g>
  <polyline points="51.91,202.84 100.71,202.84 100.63,202.83 100.97,202.82 101.31,202.75 101.64,202.63 101.94,202.45 102.21,202.23 102.44,201.97 102.63,201.68 102.76,201.36 102.85,201.02 102.87,200.68 102.87,200.68 102.87,190.92 102.87,190.92 102.85,190.57 102.76,190.24 102.63,189.92 102.44,189.62 102.21,189.36 101.94,189.14 101.64,188.97 101.31,188.85 100.97,188.78 100.71,188.76 51.91,188.76 52.17,188.78 51.83,188.76 51.48,188.80 51.15,188.90 50.83,189.05 50.55,189.25 50.30,189.49 50.09,189.77 49.92,190.07 49.81,190.40 49.76,190.75 49.75,190.92 49.75,200.68 49.76,200.50 49.76,200.85 49.81,201.19 49.92,201.52 50.09,201.83 50.30,202.11 50.55,202.35 50.83,202.55 51.15,202.70 51.48,202.79 51.83,202.83 " style="stroke-width: 0.53; stroke: #5ECD2E; fill: #FFFFFF;" clip-path="url(#cpNi45NzM4NXw3MTMuMDI2fDIwOS4yMjd8Ni45NzM4NQ==)"/>
  <g clip-path="url(#cpNi45NzM4NXw3MTMuMDI2fDIwOS4yMjd8Ni45NzM4NQ==)">
    <text x="53.35" y="199.24" style="font-size: 9.96px; fill: #5ECD2E; font-family: Liberation Sans;" textLength="45.92px" lengthAdjust="spacingAndGlyphs">Monocle 1</text>
  </g>
  <polyline points="429.61,167.38 484.48,167.38 484.39,167.38 484.74,167.36 485.08,167.29 485.40,167.17 485.71,167.00 485.98,166.78 486.21,166.52 486.39,166.22 486.53,165.90 486.61,165.56 486.64,165.22 486.64,165.22 486.64,155.46 486.64,155.46 486.61,155.12 486.53,154.78 486.39,154.46 486.21,154.16 485.98,153.90 485.71,153.68 485.40,153.51 485.08,153.39 484.74,153.32 484.48,153.30 429.61,153.30 429.87,153.32 429.53,153.30 429.18,153.35 428.85,153.44 428.53,153.59 428.25,153.79 428.00,154.03 427.79,154.31 427.62,154.62 427.51,154.95 427.46,155.29 427.45,155.46 427.45,165.22 427.46,165.04 427.46,165.39 427.51,165.73 427.62,166.06 427.79,166.37 428.00,166.65 428.25,166.89 428.53,167.09 428.85,167.24 429.18,167.33 429.53,167.38 " style="stroke-width: 0.53; stroke: #AF0DC7; fill: #FFFFFF;" clip-path="url(#cpNi45NzM4NXw3MTMuMDI2fDIwOS4yMjd8Ni45NzM4NQ==)"/>
  <g clip-path="url(#cpNi45NzM4NXw3MTMuMDI2fDIwOS4yMjd8Ni45NzM4NQ==)">
    <text x="431.05" y="163.78" style="font-size: 9.96px; fill: #AF0DC7; font-family: Liberation Sans;" textLength="51.99px" lengthAdjust="spacingAndGlyphs">SCORPIUS</text>
  </g>
  <polyline points="170.71,205.34 207.88,205.34 207.79,205.33 208.14,205.32 208.48,205.25 208.80,205.13 209.10,204.95 209.37,204.73 209.60,204.47 209.79,204.18 209.93,203.86 210.01,203.52 210.04,203.18 210.04,203.18 210.04,193.42 210.04,193.42 210.01,193.07 209.93,192.74 209.79,192.42 209.60,192.12 209.37,191.86 209.10,191.64 208.80,191.47 208.48,191.35 208.14,191.28 207.88,191.26 170.71,191.26 170.97,191.28 170.62,191.26 170.27,191.30 169.94,191.40 169.63,191.55 169.34,191.75 169.09,191.99 168.88,192.27 168.72,192.57 168.61,192.90 168.55,193.25 168.55,193.42 168.55,203.18 168.55,203.00 168.55,203.35 168.61,203.69 168.72,204.02 168.88,204.33 169.09,204.61 169.34,204.85 169.63,205.05 169.94,205.20 170.27,205.29 170.62,205.33 " style="stroke-width: 0.53; stroke: #5ECD2E; fill: #FFFFFF;" clip-path="url(#cpNi45NzM4NXw3MTMuMDI2fDIwOS4yMjd8Ni45NzM4NQ==)"/>
  <g clip-path="url(#cpNi45NzM4NXw3MTMuMDI2fDIwOS4yMjd8Ni45NzM4NQ==)">
    <text x="172.15" y="201.74" style="font-size: 9.96px; fill: #5ECD2E; font-family: Liberation Sans;" textLength="34.29px" lengthAdjust="spacingAndGlyphs">SCUBA</text>
  </g>
  <polyline points="326.31,159.73 365.14,159.73 365.05,159.72 365.40,159.71 365.74,159.64 366.07,159.52 366.37,159.34 366.64,159.12 366.87,158.86 367.05,158.57 367.19,158.25 367.27,157.91 367.30,157.57 367.30,157.57 367.30,147.81 367.30,147.81 367.27,147.46 367.19,147.13 367.05,146.81 366.87,146.51 366.64,146.25 366.37,146.03 366.07,145.86 365.74,145.74 365.40,145.67 365.14,145.65 326.31,145.65 326.57,145.67 326.22,145.65 325.87,145.69 325.54,145.79 325.23,145.94 324.94,146.14 324.69,146.38 324.48,146.66 324.32,146.96 324.21,147.29 324.15,147.64 324.15,147.81 324.15,157.57 324.15,157.39 324.15,157.74 324.21,158.08 324.32,158.41 324.48,158.72 324.69,159.00 324.94,159.24 325.23,159.44 325.54,159.58 325.87,159.68 326.22,159.72 " style="stroke-width: 0.53; stroke: #5ECD2E; fill: #FFFFFF;" clip-path="url(#cpNi45NzM4NXw3MTMuMDI2fDIwOS4yMjd8Ni45NzM4NQ==)"/>
  <g clip-path="url(#cpNi45NzM4NXw3MTMuMDI2fDIwOS4yMjd8Ni45NzM4NQ==)">
    <text x="327.75" y="156.13" style="font-size: 9.96px; fill: #5ECD2E; font-family: Liberation Sans;" textLength="35.95px" lengthAdjust="spacingAndGlyphs">ECLAIR</text>
  </g>
  <polyline points="448.26,186.62 484.87,186.62 484.78,186.62 485.13,186.61 485.47,186.54 485.80,186.41 486.10,186.24 486.37,186.02 486.60,185.76 486.78,185.46 486.92,185.15 487.00,184.81 487.03,184.46 487.03,184.46 487.03,174.71 487.03,174.71 487.00,174.36 486.92,174.02 486.78,173.70 486.60,173.41 486.37,173.15 486.10,172.93 485.80,172.75 485.47,172.63 485.13,172.56 484.87,172.55 448.26,172.55 448.52,172.56 448.17,172.55 447.83,172.59 447.49,172.69 447.18,172.84 446.89,173.03 446.64,173.27 446.43,173.55 446.27,173.86 446.16,174.19 446.10,174.53 446.10,174.71 446.10,184.46 446.10,184.29 446.10,184.63 446.16,184.98 446.27,185.31 446.43,185.62 446.64,185.89 446.89,186.13 447.18,186.33 447.49,186.48 447.83,186.58 448.17,186.62 " style="stroke-width: 0.53; stroke: #AF0DC7; fill: #FFFFFF;" clip-path="url(#cpNi45NzM4NXw3MTMuMDI2fDIwOS4yMjd8Ni45NzM4NQ==)"/>
  <g clip-path="url(#cpNi45NzM4NXw3MTMuMDI2fDIwOS4yMjd8Ni45NzM4NQ==)">
    <text x="449.70" y="183.02" style="font-size: 9.96px; fill: #AF0DC7; font-family: Liberation Sans;" textLength="33.73px" lengthAdjust="spacingAndGlyphs">SCENT</text>
  </g>
  <polyline points="566.47,201.15 600.89,201.15 600.80,201.15 601.15,201.13 601.49,201.06 601.81,200.94 602.12,200.77 602.38,200.55 602.62,200.29 602.80,199.99 602.94,199.67 603.02,199.34 603.05,198.99 603.05,198.99 603.05,189.23 603.05,189.23 603.02,188.89 602.94,188.55 602.80,188.23 602.62,187.94 602.38,187.68 602.12,187.46 601.81,187.28 601.49,187.16 601.15,187.09 600.89,187.07 566.47,187.07 566.73,187.09 566.39,187.08 566.04,187.12 565.71,187.21 565.39,187.36 565.11,187.56 564.86,187.80 564.65,188.08 564.49,188.39 564.38,188.72 564.32,189.06 564.31,189.23 564.31,198.99 564.32,198.81 564.32,199.16 564.38,199.51 564.49,199.84 564.65,200.14 564.86,200.42 565.11,200.66 565.39,200.86 565.71,201.01 566.04,201.11 566.39,201.15 " style="stroke-width: 0.53; stroke: #0073D7; fill: #FFFFFF;" clip-path="url(#cpNi45NzM4NXw3MTMuMDI2fDIwOS4yMjd8Ni45NzM4NQ==)"/>
  <g clip-path="url(#cpNi45NzM4NXw3MTMuMDI2fDIwOS4yMjd8Ni45NzM4NQ==)">
    <text x="567.91" y="197.55" style="font-size: 9.96px; fill: #0073D7; font-family: Liberation Sans;" textLength="31.54px" lengthAdjust="spacingAndGlyphs">scanpy</text>
  </g>
  <polyline points="559.39,113.42 648.52,113.42 648.44,113.42 648.78,113.41 649.12,113.34 649.45,113.21 649.75,113.04 650.02,112.82 650.25,112.56 650.44,112.27 650.57,111.95 650.66,111.61 650.68,111.26 650.68,111.26 650.68,101.51 650.68,101.51 650.66,101.16 650.57,100.82 650.44,100.50 650.25,100.21 650.02,99.95 649.75,99.73 649.45,99.55 649.12,99.43 648.78,99.36 648.52,99.35 559.39,99.35 559.65,99.36 559.31,99.35 558.96,99.39 558.63,99.49 558.31,99.64 558.03,99.83 557.78,100.07 557.57,100.35 557.41,100.66 557.30,100.99 557.24,101.33 557.23,101.51 557.23,111.26 557.24,111.09 557.24,111.44 557.30,111.78 557.41,112.11 557.57,112.42 557.78,112.69 558.03,112.93 558.31,113.13 558.63,113.28 558.96,113.38 559.31,113.42 " style="stroke-width: 0.53; stroke: #FF8821; fill: #FFFFFF;" clip-path="url(#cpNi45NzM4NXw3MTMuMDI2fDIwOS4yMjd8Ni45NzM4NQ==)"/>
  <g clip-path="url(#cpNi45NzM4NXw3MTMuMDI2fDIwOS4yMjd8Ni45NzM4NQ==)">
    <text x="560.83" y="109.82" style="font-size: 9.96px; fill: #FF8821; font-family: Liberation Sans;" textLength="86.25px" lengthAdjust="spacingAndGlyphs">WADDINGTON-OT</text>
  </g>
  <polyline points="239.69,205.61 271.32,205.61 271.24,205.61 271.58,205.59 271.92,205.52 272.25,205.40 272.55,205.23 272.82,205.01 273.05,204.75 273.24,204.45 273.37,204.13 273.46,203.80 273.48,203.45 273.48,203.45 273.48,193.69 273.48,193.69 273.46,193.35 273.37,193.01 273.24,192.69 273.05,192.40 272.82,192.14 272.55,191.92 272.25,191.74 271.92,191.62 271.58,191.55 271.32,191.53 239.69,191.53 239.95,191.55 239.60,191.54 239.26,191.58 238.92,191.67 238.61,191.82 238.32,192.02 238.07,192.26 237.86,192.54 237.70,192.85 237.59,193.18 237.53,193.52 237.53,193.69 237.53,203.45 237.53,203.28 237.53,203.62 237.59,203.97 237.70,204.30 237.86,204.60 238.07,204.88 238.32,205.12 238.61,205.32 238.92,205.47 239.26,205.57 239.60,205.61 " style="stroke-width: 0.53; stroke: #AF0DC7; fill: #FFFFFF;" clip-path="url(#cpNi45NzM4NXw3MTMuMDI2fDIwOS4yMjd8Ni45NzM4NQ==)"/>
  <g clip-path="url(#cpNi45NzM4NXw3MTMuMDI2fDIwOS4yMjd8Ni45NzM4NQ==)">
    <text x="241.13" y="202.01" style="font-size: 9.96px; fill: #AF0DC7; font-family: Liberation Sans;" textLength="28.76px" lengthAdjust="spacingAndGlyphs">NBOR</text>
  </g>
  <polyline points="357.18,184.78 403.79,184.78 403.70,184.78 404.05,184.76 404.39,184.70 404.71,184.57 405.01,184.40 405.28,184.18 405.51,183.92 405.70,183.62 405.84,183.30 405.92,182.97 405.95,182.62 405.95,182.62 405.95,172.87 405.95,172.87 405.92,172.52 405.84,172.18 405.70,171.86 405.51,171.57 405.28,171.31 405.01,171.09 404.71,170.91 404.39,170.79 404.05,170.72 403.79,170.71 357.18,170.71 357.44,170.72 357.10,170.71 356.75,170.75 356.42,170.85 356.10,170.99 355.82,171.19 355.57,171.43 355.36,171.71 355.20,172.02 355.09,172.35 355.03,172.69 355.02,172.87 355.02,182.62 355.03,182.45 355.03,182.79 355.09,183.14 355.20,183.47 355.36,183.77 355.57,184.05 355.82,184.29 356.10,184.49 356.42,184.64 356.75,184.74 357.10,184.78 " style="stroke-width: 0.53; stroke: #AF0DC7; fill: #FFFFFF;" clip-path="url(#cpNi45NzM4NXw3MTMuMDI2fDIwOS4yMjd8Ni45NzM4NQ==)"/>
  <g clip-path="url(#cpNi45NzM4NXw3MTMuMDI2fDIwOS4yMjd8Ni45NzM4NQ==)">
    <text x="358.62" y="181.18" style="font-size: 9.96px; fill: #AF0DC7; font-family: Liberation Sans;" textLength="43.72px" lengthAdjust="spacingAndGlyphs">pseudogp</text>
  </g>
  <defs>
    <clipPath id="cpMHw3MjB8MjUyfDA=">
      <rect x="0.00" y="0.00" width="720.00" height="252.00"/>
    </clipPath>
  </defs>
  <polyline points="6.97,209.23 713.03,209.23 " style="stroke-width: 1.07; stroke-linecap: square;" clip-path="url(#cpMHw3MjB8MjUyfDA=)"/>
  <polyline points="39.07,212.71 39.07,209.23 " style="stroke-width: 1.07; stroke-linecap: butt;" clip-path="url(#cpMHw3MjB8MjUyfDA=)"/>
  <polyline points="190.12,212.71 190.12,209.23 " style="stroke-width: 1.07; stroke-linecap: butt;" clip-path="url(#cpMHw3MjB8MjUyfDA=)"/>
  <polyline points="341.17,212.71 341.17,209.23 " style="stroke-width: 1.07; stroke-linecap: butt;" clip-path="url(#cpMHw3MjB8MjUyfDA=)"/>
  <polyline points="492.64,212.71 492.64,209.23 " style="stroke-width: 1.07; stroke-linecap: butt;" clip-path="url(#cpMHw3MjB8MjUyfDA=)"/>
  <polyline points="643.69,212.71 643.69,209.23 " style="stroke-width: 1.07; stroke-linecap: butt;" clip-path="url(#cpMHw3MjB8MjUyfDA=)"/>
  <g clip-path="url(#cpMHw3MjB8MjUyfDA=)">
    <text x="25.72" y="223.95" style="font-size: 12.00px; font-family: Liberation Sans;" textLength="26.70px" lengthAdjust="spacingAndGlyphs">2014</text>
  </g>
  <g clip-path="url(#cpMHw3MjB8MjUyfDA=)">
    <text x="176.77" y="223.95" style="font-size: 12.00px; font-family: Liberation Sans;" textLength="26.70px" lengthAdjust="spacingAndGlyphs">2015</text>
  </g>
  <g clip-path="url(#cpMHw3MjB8MjUyfDA=)">
    <text x="327.82" y="223.95" style="font-size: 12.00px; font-family: Liberation Sans;" textLength="26.70px" lengthAdjust="spacingAndGlyphs">2016</text>
  </g>
  <g clip-path="url(#cpMHw3MjB8MjUyfDA=)">
    <text x="479.29" y="223.95" style="font-size: 12.00px; font-family: Liberation Sans;" textLength="26.70px" lengthAdjust="spacingAndGlyphs">2017</text>
  </g>
  <g clip-path="url(#cpMHw3MjB8MjUyfDA=)">
    <text x="630.34" y="223.95" style="font-size: 12.00px; font-family: Liberation Sans;" textLength="26.70px" lengthAdjust="spacingAndGlyphs">2018</text>
  </g>
  <g clip-path="url(#cpMHw3MjB8MjUyfDA=)">
    <text x="312.13" y="240.80" style="font-size: 14.00px; font-family: Liberation Sans;" textLength="95.74px" lengthAdjust="spacingAndGlyphs">Publishing date</text>
  </g>
</svg>
