<?xml version="1.0" encoding="UTF-8"?>
<svg xmlns="http://www.w3.org/2000/svg" xmlns:xlink="http://www.w3.org/1999/xlink" viewBox="0 0 720.00 324.00">
  <defs>
    <style type="text/css"><![CDATA[
    line, polyline, path, rect, circle {
      fill: none;
      stroke: #000000;
      stroke-linecap: round;
      stroke-linejoin: round;
      stroke-miterlimit: 10.00;
    }
  ]]></style>
  </defs>
  <line x1="564.64" y1="229.20" x2="564.64" y2="281.23" style="stroke-width: 1.07; stroke: #AF0DC7;" clip-path="url(#cpNi45NzM4NXw3MTMuMDI2fDI4MS4yMjd8Ni45NzM4NQ==)"/>
  <line x1="85.83" y1="270.90" x2="85.83" y2="281.23" style="stroke-width: 1.07; stroke: #AF0DC7;" clip-path="url(#cpNi45NzM4NXw3MTMuMDI2fDI4MS4yMjd8Ni45NzM4NQ==)"/>
  <line x1="531.54" y1="151.65" x2="531.54" y2="281.23" style="stroke-width: 1.07; stroke: #5ECD2E;" clip-path="url(#cpNi45NzM4NXw3MTMuMDI2fDI4MS4yMjd8Ni45NzM4NQ==)"/>
  <line x1="297.72" y1="254.74" x2="297.72" y2="281.22" style="stroke-width: 1.07; stroke: #AF0DC7;" clip-path="url(#cpNi45NzM4NXw3MTMuMDI2fDI4MS4yMjd8Ni45NzM4NQ==)"/>
  <line x1="413.18" y1="128.78" x2="413.18" y2="281.22" style="stroke-width: 1.07; stroke: #AF0DC7;" clip-path="url(#cpNi45NzM4NXw3MTMuMDI2fDI4MS4yMjd8Ni45NzM4NQ==)"/>
  <line x1="617.62" y1="270.69" x2="617.62" y2="281.22" style="stroke-width: 1.07; stroke: #AF0DC7;" clip-path="url(#cpNi45NzM4NXw3MTMuMDI2fDI4MS4yMjd8Ni45NzM4NQ==)"/>
  <line x1="542.30" y1="247.60" x2="542.30" y2="281.22" style="stroke-width: 1.07; stroke: #AF0DC7;" clip-path="url(#cpNi45NzM4NXw3MTMuMDI2fDI4MS4yMjd8Ni45NzM4NQ==)"/>
  <line x1="569.61" y1="173.16" x2="569.61" y2="281.22" style="stroke-width: 1.07; stroke: #AF0DC7;" clip-path="url(#cpNi45NzM4NXw3MTMuMDI2fDI4MS4yMjd8Ni45NzM4NQ==)"/>
  <line x1="386.28" y1="253.81" x2="386.28" y2="281.22" style="stroke-width: 1.07; stroke: #AF0DC7;" clip-path="url(#cpNi45NzM4NXw3MTMuMDI2fDI4MS4yMjd8Ni45NzM4NQ==)"/>
  <line x1="345.72" y1="228.17" x2="345.72" y2="281.22" style="stroke-width: 1.07; stroke: #5ECD2E;" clip-path="url(#cpNi45NzM4NXw3MTMuMDI2fDI4MS4yMjd8Ni45NzM4NQ==)"/>
  <line x1="396.21" y1="231.28" x2="396.21" y2="281.22" style="stroke-width: 1.07; stroke: #5ECD2E;" clip-path="url(#cpNi45NzM4NXw3MTMuMDI2fDI4MS4yMjd8Ni45NzM4NQ==)"/>
  <line x1="658.17" y1="239.94" x2="658.17" y2="281.22" style="stroke-width: 1.07; stroke: #5ECD2E;" clip-path="url(#cpNi45NzM4NXw3MTMuMDI2fDI4MS4yMjd8Ni45NzM4NQ==)"/>
  <line x1="630.44" y1="194.25" x2="630.44" y2="281.22" style="stroke-width: 1.07; stroke: #AF0DC7;" clip-path="url(#cpNi45NzM4NXw3MTMuMDI2fDI4MS4yMjd8Ni45NzM4NQ==)"/>
  <line x1="579.54" y1="106.14" x2="579.54" y2="281.22" style="stroke-width: 1.07; stroke: #CFBF00;" clip-path="url(#cpNi45NzM4NXw3MTMuMDI2fDI4MS4yMjd8Ni45NzM4NQ==)"/>
  <line x1="603.96" y1="130.86" x2="603.96" y2="281.22" style="stroke-width: 1.07; stroke: #FF8821;" clip-path="url(#cpNi45NzM4NXw3MTMuMDI2fDI4MS4yMjd8Ni45NzM4NQ==)"/>
  <line x1="296.48" y1="206.36" x2="296.48" y2="281.22" style="stroke-width: 1.07; stroke: #AF0DC7;" clip-path="url(#cpNi45NzM4NXw3MTMuMDI2fDI4MS4yMjd8Ni45NzM4NQ==)"/>
  <line x1="410.70" y1="196.91" x2="410.70" y2="281.22" style="stroke-width: 1.07; stroke: #AF0DC7;" clip-path="url(#cpNi45NzM4NXw3MTMuMDI2fDI4MS4yMjd8Ni45NzM4NQ==)"/>
  <line x1="593.20" y1="249.33" x2="593.20" y2="281.22" style="stroke-width: 1.07; stroke: #FF8821;" clip-path="url(#cpNi45NzM4NXw3MTMuMDI2fDI4MS4yMjd8Ni45NzM4NQ==)"/>
  <line x1="583.68" y1="150.01" x2="583.68" y2="281.22" style="stroke-width: 1.07; stroke: #0073D7;" clip-path="url(#cpNi45NzM4NXw3MTMuMDI2fDI4MS4yMjd8Ni45NzM4NQ==)"/>
  <line x1="416.08" y1="275.57" x2="416.08" y2="281.22" style="stroke-width: 1.07; stroke: #5ECD2E;" clip-path="url(#cpNi45NzM4NXw3MTMuMDI2fDI4MS4yMjd8Ni45NzM4NQ==)"/>
  <line x1="455.80" y1="218.25" x2="455.80" y2="281.22" style="stroke-width: 1.07; stroke: #AF0DC7;" clip-path="url(#cpNi45NzM4NXw3MTMuMDI2fDI4MS4yMjd8Ni45NzM4NQ==)"/>
  <line x1="616.37" y1="108.20" x2="616.37" y2="281.22" style="stroke-width: 1.07; stroke: #FF4237;" clip-path="url(#cpNi45NzM4NXw3MTMuMDI2fDI4MS4yMjd8Ni45NzM4NQ==)"/>
  <line x1="510.43" y1="261.32" x2="510.43" y2="281.22" style="stroke-width: 1.07; stroke: #AF0DC7;" clip-path="url(#cpNi45NzM4NXw3MTMuMDI2fDI4MS4yMjd8Ni45NzM4NQ==)"/>
  <line x1="291.51" y1="183.08" x2="291.51" y2="281.21" style="stroke-width: 1.07; stroke: #AF0DC7;" clip-path="url(#cpNi45NzM4NXw3MTMuMDI2fDI4MS4yMjd8Ni45NzM4NQ==)"/>
  <line x1="651.96" y1="216.93" x2="651.96" y2="281.21" style="stroke-width: 1.07; stroke: #5ECD2E;" clip-path="url(#cpNi45NzM4NXw3MTMuMDI2fDI4MS4yMjd8Ni45NzM4NQ==)"/>
  <line x1="412.35" y1="24.65" x2="412.35" y2="281.21" style="stroke-width: 1.07; stroke: #5ECD2E;" clip-path="url(#cpNi45NzM4NXw3MTMuMDI2fDI4MS4yMjd8Ni45NzM4NQ==)"/>
  <line x1="572.09" y1="24.65" x2="572.09" y2="281.21" style="stroke-width: 1.07; stroke: #AF0DC7;" clip-path="url(#cpNi45NzM4NXw3MTMuMDI2fDI4MS4yMjd8Ni45NzM4NQ==)"/>
  <line x1="457.05" y1="99.43" x2="457.05" y2="281.21" style="stroke-width: 1.07; stroke: #AF0DC7;" clip-path="url(#cpNi45NzM4NXw3MTMuMDI2fDI4MS4yMjd8Ni45NzM4NQ==)"/>
  <line x1="577.89" y1="61.81" x2="577.89" y2="281.21" style="stroke-width: 1.07; stroke: #AF0DC7;" clip-path="url(#cpNi45NzM4NXw3MTMuMDI2fDI4MS4yMjd8Ni45NzM4NQ==)"/>
  <line x1="562.99" y1="83.30" x2="562.99" y2="281.21" style="stroke-width: 1.07; stroke: #5ECD2E;" clip-path="url(#cpNi45NzM4NXw3MTMuMDI2fDI4MS4yMjd8Ni45NzM4NQ==)"/>
  <line x1="580.37" y1="209.94" x2="580.37" y2="281.21" style="stroke-width: 1.07; stroke: #0073D7;" clip-path="url(#cpNi45NzM4NXw3MTMuMDI2fDI4MS4yMjd8Ni45NzM4NQ==)"/>
  <line x1="466.56" y1="239.54" x2="466.56" y2="281.21" style="stroke-width: 1.07; stroke: #AF0DC7;" clip-path="url(#cpNi45NzM4NXw3MTMuMDI2fDI4MS4yMjd8Ni45NzM4NQ==)"/>
  <line x1="513.74" y1="172.58" x2="513.74" y2="281.21" style="stroke-width: 1.07; stroke: #5ECD2E;" clip-path="url(#cpNi45NzM4NXw3MTMuMDI2fDI4MS4yMjd8Ni45NzM4NQ==)"/>
  <line x1="537.33" y1="52.96" x2="537.33" y2="281.21" style="stroke-width: 1.07; stroke: #5ECD2E;" clip-path="url(#cpNi45NzM4NXw3MTMuMDI2fDI4MS4yMjd8Ni45NzM4NQ==)"/>
  <line x1="356.90" y1="275.69" x2="356.90" y2="281.21" style="stroke-width: 1.07; stroke: #0073D7;" clip-path="url(#cpNi45NzM4NXw3MTMuMDI2fDI4MS4yMjd8Ni45NzM4NQ==)"/>
  <line x1="406.97" y1="78.19" x2="406.97" y2="281.21" style="stroke-width: 1.07; stroke: #CFBF00;" clip-path="url(#cpNi45NzM4NXw3MTMuMDI2fDI4MS4yMjd8Ni45NzM4NQ==)"/>
  <line x1="487.26" y1="277.63" x2="487.26" y2="281.21" style="stroke-width: 1.07; stroke: #5ECD2E;" clip-path="url(#cpNi45NzM4NXw3MTMuMDI2fDI4MS4yMjd8Ni45NzM4NQ==)"/>
  <line x1="189.29" y1="273.87" x2="189.29" y2="281.21" style="stroke-width: 1.07; stroke: #5ECD2E;" clip-path="url(#cpNi45NzM4NXw3MTMuMDI2fDI4MS4yMjd8Ni45NzM4NQ==)"/>
  <line x1="380.49" y1="174.28" x2="380.49" y2="281.21" style="stroke-width: 1.07; stroke: #AF0DC7;" clip-path="url(#cpNi45NzM4NXw3MTMuMDI2fDI4MS4yMjd8Ni45NzM4NQ==)"/>
  <line x1="255.51" y1="276.81" x2="255.51" y2="281.21" style="stroke-width: 1.07; stroke: #AF0DC7;" clip-path="url(#cpNi45NzM4NXw3MTMuMDI2fDI4MS4yMjd8Ni45NzM4NQ==)"/>
  <line x1="434.28" y1="152.11" x2="434.28" y2="281.21" style="stroke-width: 1.07; stroke: #5ECD2E;" clip-path="url(#cpNi45NzM4NXw3MTMuMDI2fDI4MS4yMjd8Ni45NzM4NQ==)"/>
  <line x1="631.69" y1="35.13" x2="631.69" y2="281.21" style="stroke-width: 1.07; stroke: #CFBF00;" clip-path="url(#cpNi45NzM4NXw3MTMuMDI2fDI4MS4yMjd8Ni45NzM4NQ==)"/>
  <line x1="382.14" y1="57.64" x2="382.14" y2="281.20" style="stroke-width: 1.07; stroke: #FF8821;" clip-path="url(#cpNi45NzM4NXw3MTMuMDI2fDI4MS4yMjd8Ni45NzM4NQ==)"/>
  <line x1="526.57" y1="214.33" x2="526.57" y2="281.20" style="stroke-width: 1.07; stroke: #5ECD2E;" clip-path="url(#cpNi45NzM4NXw3MTMuMDI2fDI4MS4yMjd8Ni45NzM4NQ==)"/>
  <line x1="531.12" y1="133.37" x2="531.12" y2="281.20" style="stroke-width: 1.07; stroke: #5ECD2E;" clip-path="url(#cpNi45NzM4NXw3MTMuMDI2fDI4MS4yMjd8Ni45NzM4NQ==)"/>
  <line x1="76.31" y1="249.07" x2="76.31" y2="281.20" style="stroke-width: 1.07; stroke: #5ECD2E;" clip-path="url(#cpNi45NzM4NXw3MTMuMDI2fDI4MS4yMjd8Ni45NzM4NQ==)"/>
  <line x1="659.41" y1="171.48" x2="659.41" y2="281.20" style="stroke-width: 1.07; stroke: #5ECD2E;" clip-path="url(#cpNi45NzM4NXw3MTMuMDI2fDI4MS4yMjd8Ni45NzM4NQ==)"/>
  <line x1="522.85" y1="94.99" x2="522.85" y2="281.20" style="stroke-width: 1.07; stroke: #CFBF00;" clip-path="url(#cpNi45NzM4NXw3MTMuMDI2fDI4MS4yMjd8Ni45NzM4NQ==)"/>
  <line x1="562.57" y1="41.19" x2="562.57" y2="281.20" style="stroke-width: 1.07; stroke: #39CCCC;" clip-path="url(#cpNi45NzM4NXw3MTMuMDI2fDI4MS4yMjd8Ni45NzM4NQ==)"/>
  <line x1="624.24" y1="84.44" x2="624.24" y2="281.20" style="stroke-width: 1.07; stroke: #5ECD2E;" clip-path="url(#cpNi45NzM4NXw3MTMuMDI2fDI4MS4yMjd8Ni45NzM4NQ==)"/>
  <line x1="554.71" y1="193.17" x2="554.71" y2="281.20" style="stroke-width: 1.07; stroke: #AF0DC7;" clip-path="url(#cpNi45NzM4NXw3MTMuMDI2fDI4MS4yMjd8Ni45NzM4NQ==)"/>
  <line x1="391.66" y1="106.25" x2="391.66" y2="281.20" style="stroke-width: 1.07; stroke: #0073D7;" clip-path="url(#cpNi45NzM4NXw3MTMuMDI2fDI4MS4yMjd8Ni45NzM4NQ==)"/>
  <line x1="514.16" y1="115.26" x2="514.16" y2="281.20" style="stroke-width: 1.07; stroke: #5ECD2E;" clip-path="url(#cpNi45NzM4NXw3MTMuMDI2fDI4MS4yMjd8Ni45NzM4NQ==)"/>
  <line x1="435.94" y1="46.81" x2="435.94" y2="281.20" style="stroke-width: 1.07; stroke: #AF0DC7;" clip-path="url(#cpNi45NzM4NXw3MTMuMDI2fDI4MS4yMjd8Ni45NzM4NQ==)"/>
  <line x1="200.88" y1="250.69" x2="200.88" y2="281.20" style="stroke-width: 1.07; stroke: #5ECD2E;" clip-path="url(#cpNi45NzM4NXw3MTMuMDI2fDI4MS4yMjd8Ni45NzM4NQ==)"/>
  <line x1="656.10" y1="150.14" x2="656.10" y2="281.20" style="stroke-width: 1.07; stroke: #FF8821;" clip-path="url(#cpNi45NzM4NXw3MTMuMDI2fDI4MS4yMjd8Ni45NzM4NQ==)"/>
  <line x1="485.60" y1="195.24" x2="485.60" y2="281.20" style="stroke-width: 1.07; stroke: #5ECD2E;" clip-path="url(#cpNi45NzM4NXw3MTMuMDI2fDI4MS4yMjd8Ni45NzM4NQ==)"/>
  <line x1="517.88" y1="73.66" x2="517.88" y2="281.20" style="stroke-width: 1.07; stroke: #CFBF00;" clip-path="url(#cpNi45NzM4NXw3MTMuMDI2fDI4MS4yMjd8Ni45NzM4NQ==)"/>
  <defs>
    <clipPath id="cpNi45NzM4NXw3MTMuMDI2fDI4MS4yMjd8Ni45NzM4NQ==">
      <rect x="6.97" y="6.97" width="706.05" height="274.25"/>
    </clipPath>
  </defs>
  <polyline points="498.46,73.66 537.30,73.66 537.21,73.66 537.56,73.64 537.90,73.57 538.23,73.45 538.53,73.28 538.80,73.06 539.03,72.80 539.21,72.50 539.35,72.18 539.43,71.85 539.46,71.50 539.46,71.50 539.46,61.74 539.46,61.74 539.43,61.40 539.35,61.06 539.21,60.74 539.03,60.45 538.80,60.19 538.53,59.97 538.23,59.79 537.90,59.67 537.56,59.60 537.30,59.58 498.46,59.58 498.72,59.60 498.37,59.59 498.03,59.63 497.69,59.73 497.38,59.87 497.09,60.07 496.84,60.31 496.64,60.59 496.47,60.90 496.36,61.23 496.31,61.57 496.30,61.74 496.30,71.50 496.31,71.33 496.31,71.67 496.36,72.02 496.47,72.35 496.64,72.65 496.84,72.93 497.09,73.17 497.38,73.37 497.69,73.52 498.03,73.62 498.37,73.66 " style="stroke-width: 0.53; stroke: #CFBF00; fill: #FFFFFF;" clip-path="url(#cpNi45NzM4NXw3MTMuMDI2fDI4MS4yMjd8Ni45NzM4NQ==)"/>
  <g clip-path="url(#cpNi45NzM4NXw3MTMuMDI2fDI4MS4yMjd8Ni45NzM4NQ==)">
    <text x="499.90" y="70.06" style="font-size: 9.96px; fill: #CFBF00; font-family: Liberation Sans;" textLength="35.96px" lengthAdjust="spacingAndGlyphs">GPfates</text>
  </g>
  <polyline points="459.54,195.24 511.66,195.24 511.57,195.24 511.92,195.23 512.26,195.16 512.58,195.04 512.89,194.86 513.15,194.64 513.39,194.38 513.57,194.09 513.71,193.77 513.79,193.43 513.82,193.08 513.82,193.08 513.82,183.33 513.82,183.33 513.79,182.98 513.71,182.64 513.57,182.33 513.39,182.03 513.15,181.77 512.89,181.55 512.58,181.38 512.26,181.25 511.92,181.18 511.66,181.17 459.54,181.17 459.80,181.18 459.46,181.17 459.11,181.21 458.78,181.31 458.46,181.46 458.18,181.66 457.93,181.90 457.72,182.17 457.56,182.48 457.45,182.81 457.39,183.16 457.38,183.33 457.38,193.08 457.39,192.91 457.39,193.26 457.45,193.60 457.56,193.93 457.72,194.24 457.93,194.52 458.18,194.76 458.46,194.95 458.78,195.10 459.11,195.20 459.46,195.24 " style="stroke-width: 0.53; stroke: #5ECD2E; fill: #FFFFFF;" clip-path="url(#cpNi45NzM4NXw3MTMuMDI2fDI4MS4yMjd8Ni45NzM4NQ==)"/>
  <g clip-path="url(#cpNi45NzM4NXw3MTMuMDI2fDI4MS4yMjd8Ni45NzM4NQ==)">
    <text x="460.98" y="191.64" style="font-size: 9.96px; fill: #5ECD2E; font-family: Liberation Sans;" textLength="49.24px" lengthAdjust="spacingAndGlyphs">k-branches</text>
  </g>
  <polyline points="633.92,150.14 678.28,150.14 678.20,150.13 678.55,150.12 678.89,150.05 679.21,149.93 679.51,149.75 679.78,149.53 680.01,149.27 680.20,148.98 680.33,148.66 680.42,148.32 680.44,147.98 680.44,147.98 680.44,138.22 680.44,138.22 680.42,137.87 680.33,137.54 680.20,137.22 680.01,136.92 679.78,136.66 679.51,136.44 679.21,136.27 678.89,136.15 678.55,136.08 678.28,136.06 633.92,136.06 634.18,136.08 633.83,136.06 633.49,136.11 633.15,136.20 632.84,136.35 632.55,136.55 632.30,136.79 632.09,137.07 631.93,137.37 631.82,137.70 631.77,138.05 631.76,138.22 631.76,147.98 631.77,147.80 631.77,148.15 631.82,148.49 631.93,148.82 632.09,149.13 632.30,149.41 632.55,149.65 632.84,149.85 633.15,150.00 633.49,150.09 633.83,150.13 " style="stroke-width: 0.53; stroke: #FF8821; fill: #FFFFFF;" clip-path="url(#cpNi45NzM4NXw3MTMuMDI2fDI4MS4yMjd8Ni45NzM4NQ==)"/>
  <g clip-path="url(#cpNi45NzM4NXw3MTMuMDI2fDI4MS4yMjd8Ni45NzM4NQ==)">
    <text x="635.36" y="146.54" style="font-size: 9.96px; fill: #FF8821; font-family: Liberation Sans;" textLength="41.48px" lengthAdjust="spacingAndGlyphs">CALISTA</text>
  </g>
  <polyline points="185.61,250.69 216.15,250.69 216.06,250.68 216.41,250.67 216.75,250.60 217.07,250.48 217.37,250.30 217.64,250.08 217.87,249.82 218.06,249.53 218.20,249.21 218.28,248.87 218.31,248.53 218.31,248.53 218.31,238.77 218.31,238.77 218.28,238.42 218.20,238.09 218.06,237.77 217.87,237.47 217.64,237.21 217.37,236.99 217.07,236.82 216.75,236.70 216.41,236.63 216.15,236.61 185.61,236.61 185.87,236.63 185.52,236.61 185.18,236.65 184.84,236.75 184.53,236.90 184.24,237.10 183.99,237.34 183.78,237.62 183.62,237.92 183.51,238.25 183.46,238.60 183.45,238.77 183.45,248.53 183.46,248.35 183.46,248.70 183.51,249.04 183.62,249.37 183.78,249.68 183.99,249.96 184.24,250.20 184.53,250.40 184.84,250.54 185.18,250.64 185.52,250.68 " style="stroke-width: 0.53; stroke: #5ECD2E; fill: #FFFFFF;" clip-path="url(#cpNi45NzM4NXw3MTMuMDI2fDI4MS4yMjd8Ni45NzM4NQ==)"/>
  <g clip-path="url(#cpNi45NzM4NXw3MTMuMDI2fDI4MS4yMjd8Ni45NzM4NQ==)">
    <text x="187.05" y="247.09" style="font-size: 9.96px; fill: #5ECD2E; font-family: Liberation Sans;" textLength="27.66px" lengthAdjust="spacingAndGlyphs">sincell</text>
  </g>
  <polyline points="409.89,46.81 461.99,46.81 461.90,46.81 462.25,46.79 462.59,46.72 462.92,46.60 463.22,46.43 463.49,46.21 463.72,45.95 463.90,45.65 464.04,45.33 464.12,44.99 464.15,44.65 464.15,44.65 464.15,34.89 464.15,34.89 464.12,34.55 464.04,34.21 463.90,33.89 463.72,33.59 463.49,33.33 463.22,33.11 462.92,32.94 462.59,32.82 462.25,32.75 461.99,32.73 409.89,32.73 410.15,32.75 409.80,32.73 409.46,32.78 409.12,32.87 408.81,33.02 408.52,33.22 408.27,33.46 408.06,33.74 407.90,34.05 407.79,34.38 407.74,34.72 407.73,34.89 407.73,44.65 407.74,44.47 407.74,44.82 407.79,45.16 407.90,45.49 408.06,45.80 408.27,46.08 408.52,46.32 408.81,46.52 409.12,46.67 409.46,46.76 409.80,46.81 " style="stroke-width: 0.53; stroke: #AF0DC7; fill: #FFFFFF;" clip-path="url(#cpNi45NzM4NXw3MTMuMDI2fDI4MS4yMjd8Ni45NzM4NQ==)"/>
  <g clip-path="url(#cpNi45NzM4NXw3MTMuMDI2fDI4MS4yMjd8Ni45NzM4NQ==)">
    <text x="411.33" y="43.21" style="font-size: 9.96px; fill: #AF0DC7; font-family: Liberation Sans;" textLength="49.22px" lengthAdjust="spacingAndGlyphs">WaveCrest</text>
  </g>
  <polyline points="490.59,115.26 537.72,115.26 537.64,115.26 537.98,115.25 538.32,115.18 538.65,115.05 538.95,114.88 539.22,114.66 539.45,114.40 539.64,114.11 539.77,113.79 539.85,113.45 539.88,113.10 539.88,113.10 539.88,103.35 539.88,103.35 539.85,103.00 539.77,102.66 539.64,102.34 539.45,102.05 539.22,101.79 538.95,101.57 538.65,101.40 538.32,101.27 537.98,101.20 537.72,101.19 490.59,101.19 490.85,101.20 490.50,101.19 490.16,101.23 489.82,101.33 489.51,101.48 489.22,101.68 488.97,101.92 488.76,102.19 488.60,102.50 488.49,102.83 488.44,103.17 488.43,103.35 488.43,113.10 488.44,112.93 488.44,113.28 488.49,113.62 488.60,113.95 488.76,114.26 488.97,114.54 489.22,114.78 489.51,114.97 489.82,115.12 490.16,115.22 490.50,115.26 " style="stroke-width: 0.53; stroke: #5ECD2E; fill: #FFFFFF;" clip-path="url(#cpNi45NzM4NXw3MTMuMDI2fDI4MS4yMjd8Ni45NzM4NQ==)"/>
  <g clip-path="url(#cpNi45NzM4NXw3MTMuMDI2fDI4MS4yMjd8Ni45NzM4NQ==)">
    <text x="492.03" y="111.66" style="font-size: 9.96px; fill: #5ECD2E; font-family: Liberation Sans;" textLength="44.25px" lengthAdjust="spacingAndGlyphs">Granatum</text>
  </g>
  <polyline points="368.09,106.25 415.23,106.25 415.14,106.24 415.49,106.23 415.83,106.16 416.15,106.04 416.46,105.86 416.72,105.64 416.96,105.38 417.14,105.09 417.28,104.77 417.36,104.43 417.39,104.09 417.39,104.09 417.39,94.33 417.39,94.33 417.36,93.98 417.28,93.65 417.14,93.33 416.96,93.03 416.72,92.77 416.46,92.55 416.15,92.38 415.83,92.26 415.49,92.19 415.23,92.17 368.09,92.17 368.35,92.19 368.00,92.17 367.66,92.21 367.32,92.31 367.01,92.46 366.72,92.66 366.47,92.90 366.26,93.18 366.10,93.48 365.99,93.81 365.94,94.16 365.93,94.33 365.93,104.09 365.94,103.91 365.94,104.26 365.99,104.60 366.10,104.93 366.26,105.24 366.47,105.52 366.72,105.76 367.01,105.96 367.32,106.11 367.66,106.20 368.00,106.24 " style="stroke-width: 0.53; stroke: #0073D7; fill: #FFFFFF;" clip-path="url(#cpNi45NzM4NXw3MTMuMDI2fDI4MS4yMjd8Ni45NzM4NQ==)"/>
  <g clip-path="url(#cpNi45NzM4NXw3MTMuMDI2fDI4MS4yMjd8Ni45NzM4NQ==)">
    <text x="369.53" y="102.65" style="font-size: 9.96px; fill: #0073D7; font-family: Liberation Sans;" textLength="44.26px" lengthAdjust="spacingAndGlyphs">Wishbone</text>
  </g>
  <polyline points="532.53,193.17 576.89,193.17 576.80,193.17 577.15,193.16 577.49,193.09 577.81,192.97 578.12,192.79 578.39,192.57 578.62,192.31 578.80,192.02 578.94,191.70 579.02,191.36 579.05,191.01 579.05,191.01 579.05,181.26 579.05,181.26 579.02,180.91 578.94,180.57 578.80,180.25 578.62,179.96 578.39,179.70 578.12,179.48 577.81,179.31 577.49,179.18 577.15,179.11 576.89,179.10 532.53,179.10 532.79,179.11 532.45,179.10 532.10,179.14 531.77,179.24 531.45,179.39 531.17,179.59 530.92,179.83 530.71,180.10 530.55,180.41 530.44,180.74 530.38,181.08 530.37,181.26 530.37,191.01 530.38,190.84 530.38,191.19 530.44,191.53 530.55,191.86 530.71,192.17 530.92,192.45 531.17,192.69 531.45,192.88 531.77,193.03 532.10,193.13 532.45,193.17 " style="stroke-width: 0.53; stroke: #AF0DC7; fill: #FFFFFF;" clip-path="url(#cpNi45NzM4NXw3MTMuMDI2fDI4MS4yMjd8Ni45NzM4NQ==)"/>
  <g clip-path="url(#cpNi45NzM4NXw3MTMuMDI2fDI4MS4yMjd8Ni45NzM4NQ==)">
    <text x="533.97" y="189.57" style="font-size: 9.96px; fill: #AF0DC7; font-family: Liberation Sans;" textLength="41.47px" lengthAdjust="spacingAndGlyphs">UNCURL</text>
  </g>
  <polyline points="602.05,84.44 646.42,84.44 646.34,84.43 646.68,84.42 647.02,84.35 647.35,84.23 647.65,84.05 647.92,83.83 648.15,83.57 648.34,83.28 648.47,82.96 648.56,82.62 648.58,82.28 648.58,82.28 648.58,72.52 648.58,72.52 648.56,72.18 648.47,71.84 648.34,71.52 648.15,71.22 647.92,70.96 647.65,70.74 647.35,70.57 647.02,70.45 646.68,70.38 646.42,70.36 602.05,70.36 602.31,70.38 601.96,70.36 601.62,70.41 601.28,70.50 600.97,70.65 600.68,70.85 600.43,71.09 600.22,71.37 600.06,71.67 599.95,72.00 599.90,72.35 599.89,72.52 599.89,82.28 599.90,82.10 599.90,82.45 599.95,82.79 600.06,83.12 600.22,83.43 600.43,83.71 600.68,83.95 600.97,84.15 601.28,84.30 601.62,84.39 601.96,84.43 " style="stroke-width: 0.53; stroke: #5ECD2E; fill: #FFFFFF;" clip-path="url(#cpNi45NzM4NXw3MTMuMDI2fDI4MS4yMjd8Ni45NzM4NQ==)"/>
  <g clip-path="url(#cpNi45NzM4NXw3MTMuMDI2fDI4MS4yMjd8Ni45NzM4NQ==)">
    <text x="603.49" y="80.84" style="font-size: 9.96px; fill: #5ECD2E; font-family: Liberation Sans;" textLength="41.49px" lengthAdjust="spacingAndGlyphs">p-Creode</text>
  </g>
  <polyline points="546.76,41.19 578.39,41.19 578.31,41.19 578.65,41.18 578.99,41.11 579.32,40.98 579.62,40.81 579.89,40.59 580.12,40.33 580.31,40.04 580.44,39.72 580.52,39.38 580.55,39.03 580.55,39.03 580.55,29.28 580.55,29.28 580.52,28.93 580.44,28.59 580.31,28.27 580.12,27.98 579.89,27.72 579.62,27.50 579.32,27.33 578.99,27.20 578.65,27.13 578.39,27.12 546.76,27.12 547.02,27.13 546.67,27.12 546.32,27.16 545.99,27.26 545.68,27.41 545.39,27.60 545.14,27.84 544.93,28.12 544.77,28.43 544.66,28.76 544.60,29.10 544.60,29.28 544.60,39.03 544.60,38.86 544.60,39.21 544.66,39.55 544.77,39.88 544.93,40.19 545.14,40.46 545.39,40.71 545.68,40.90 545.99,41.05 546.32,41.15 546.67,41.19 " style="stroke-width: 0.53; stroke: #39CCCC; fill: #FFFFFF;" clip-path="url(#cpNi45NzM4NXw3MTMuMDI2fDI4MS4yMjd8Ni45NzM4NQ==)"/>
  <g clip-path="url(#cpNi45NzM4NXw3MTMuMDI2fDI4MS4yMjd8Ni45NzM4NQ==)">
    <text x="548.20" y="37.59" style="font-size: 9.96px; fill: #39CCCC; font-family: Liberation Sans;" textLength="28.76px" lengthAdjust="spacingAndGlyphs">reCAT</text>
  </g>
  <polyline points="510.90,94.99 534.79,94.99 534.70,94.99 535.05,94.98 535.39,94.91 535.72,94.78 536.02,94.61 536.29,94.39 536.52,94.13 536.70,93.84 536.84,93.52 536.92,93.18 536.95,92.83 536.95,92.83 536.95,83.08 536.95,83.08 536.92,82.73 536.84,82.39 536.70,82.07 536.52,81.78 536.29,81.52 536.02,81.30 535.72,81.13 535.39,81.00 535.05,80.93 534.79,80.92 510.90,80.92 511.16,80.93 510.81,80.92 510.47,80.96 510.14,81.06 509.82,81.21 509.54,81.40 509.28,81.65 509.08,81.92 508.91,82.23 508.80,82.56 508.75,82.90 508.74,83.08 508.74,92.83 508.75,92.66 508.75,93.01 508.80,93.35 508.91,93.68 509.08,93.99 509.28,94.26 509.54,94.51 509.82,94.70 510.14,94.85 510.47,94.95 510.81,94.99 " style="stroke-width: 0.53; stroke: #CFBF00; fill: #FFFFFF;" clip-path="url(#cpNi45NzM4NXw3MTMuMDI2fDI4MS4yMjd8Ni45NzM4NQ==)"/>
  <g clip-path="url(#cpNi45NzM4NXw3MTMuMDI2fDI4MS4yMjd8Ni45NzM4NQ==)">
    <text x="512.34" y="91.39" style="font-size: 9.96px; fill: #CFBF00; font-family: Liberation Sans;" textLength="21.01px" lengthAdjust="spacingAndGlyphs">MFA</text>
  </g>
  <polyline points="638.34,171.48 680.49,171.48 680.40,171.48 680.75,171.47 681.09,171.40 681.41,171.27 681.71,171.10 681.98,170.88 682.21,170.62 682.40,170.33 682.54,170.01 682.62,169.67 682.65,169.32 682.65,169.32 682.65,159.57 682.65,159.57 682.62,159.22 682.54,158.88 682.40,158.56 682.21,158.27 681.98,158.01 681.71,157.79 681.41,157.62 681.09,157.49 680.75,157.42 680.49,157.41 638.34,157.41 638.60,157.42 638.25,157.41 637.91,157.45 637.57,157.55 637.26,157.70 636.97,157.90 636.72,158.14 636.51,158.41 636.35,158.72 636.24,159.05 636.19,159.39 636.18,159.57 636.18,169.32 636.19,169.15 636.19,169.50 636.24,169.84 636.35,170.17 636.51,170.48 636.72,170.76 636.97,171.00 637.26,171.19 637.57,171.34 637.91,171.44 638.25,171.48 " style="stroke-width: 0.53; stroke: #5ECD2E; fill: #FFFFFF;" clip-path="url(#cpNi45NzM4NXw3MTMuMDI2fDI4MS4yMjd8Ni45NzM4NQ==)"/>
  <g clip-path="url(#cpNi45NzM4NXw3MTMuMDI2fDI4MS4yMjd8Ni45NzM4NQ==)">
    <text x="639.78" y="167.88" style="font-size: 9.96px; fill: #5ECD2E; font-family: Liberation Sans;" textLength="39.27px" lengthAdjust="spacingAndGlyphs">MERLoT</text>
  </g>
  <polyline points="51.91,249.07 100.71,249.07 100.63,249.07 100.97,249.05 101.31,248.98 101.64,248.86 101.94,248.69 102.21,248.47 102.44,248.21 102.63,247.91 102.76,247.59 102.85,247.25 102.87,246.91 102.87,246.91 102.87,237.15 102.87,237.15 102.85,236.81 102.76,236.47 102.63,236.15 102.44,235.86 102.21,235.60 101.94,235.38 101.64,235.20 101.31,235.08 100.97,235.01 100.71,234.99 51.91,234.99 52.17,235.01 51.83,234.99 51.48,235.04 51.15,235.13 50.83,235.28 50.55,235.48 50.30,235.72 50.09,236.00 49.92,236.31 49.81,236.64 49.76,236.98 49.75,237.15 49.75,246.91 49.76,246.73 49.76,247.08 49.81,247.42 49.92,247.75 50.09,248.06 50.30,248.34 50.55,248.58 50.83,248.78 51.15,248.93 51.48,249.02 51.83,249.07 " style="stroke-width: 0.53; stroke: #5ECD2E; fill: #FFFFFF;" clip-path="url(#cpNi45NzM4NXw3MTMuMDI2fDI4MS4yMjd8Ni45NzM4NQ==)"/>
  <g clip-path="url(#cpNi45NzM4NXw3MTMuMDI2fDI4MS4yMjd8Ni45NzM4NQ==)">
    <text x="53.35" y="245.47" style="font-size: 9.96px; fill: #5ECD2E; font-family: Liberation Sans;" textLength="45.92px" lengthAdjust="spacingAndGlyphs">Monocle 1</text>
  </g>
  <polyline points="515.03,133.37 547.22,133.37 547.13,133.37 547.48,133.36 547.82,133.29 548.14,133.16 548.44,132.99 548.71,132.77 548.94,132.51 549.13,132.22 549.27,131.90 549.35,131.56 549.38,131.21 549.38,131.21 549.38,121.46 549.38,121.46 549.35,121.11 549.27,120.77 549.13,120.45 548.94,120.16 548.71,119.90 548.44,119.68 548.14,119.51 547.82,119.38 547.48,119.31 547.22,119.30 515.03,119.30 515.29,119.31 514.94,119.30 514.60,119.34 514.26,119.44 513.95,119.59 513.66,119.78 513.41,120.03 513.20,120.30 513.04,120.61 512.93,120.94 512.87,121.28 512.87,121.46 512.87,131.21 512.87,131.04 512.87,131.39 512.93,131.73 513.04,132.06 513.20,132.37 513.41,132.65 513.66,132.89 513.95,133.08 514.26,133.23 514.60,133.33 514.94,133.37 " style="stroke-width: 0.53; stroke: #5ECD2E; fill: #FFFFFF;" clip-path="url(#cpNi45NzM4NXw3MTMuMDI2fDI4MS4yMjd8Ni45NzM4NQ==)"/>
  <g clip-path="url(#cpNi45NzM4NXw3MTMuMDI2fDI4MS4yMjd8Ni45NzM4NQ==)">
    <text x="516.47" y="129.77" style="font-size: 9.96px; fill: #5ECD2E; font-family: Liberation Sans;" textLength="29.31px" lengthAdjust="spacingAndGlyphs">TASIC</text>
  </g>
  <polyline points="508.54,214.33 544.60,214.33 544.52,214.33 544.86,214.32 545.20,214.25 545.53,214.12 545.83,213.95 546.10,213.73 546.33,213.47 546.51,213.18 546.65,212.86 546.73,212.52 546.76,212.17 546.76,212.17 546.76,202.42 546.76,202.42 546.73,202.07 546.65,201.73 546.51,201.41 546.33,201.12 546.10,200.86 545.83,200.64 545.53,200.47 545.20,200.34 544.86,200.27 544.60,200.26 508.54,200.26 508.80,200.27 508.45,200.26 508.11,200.30 507.77,200.40 507.46,200.55 507.17,200.74 506.92,200.98 506.71,201.26 506.55,201.57 506.44,201.90 506.39,202.24 506.38,202.42 506.38,212.17 506.39,212.00 506.39,212.35 506.44,212.69 506.55,213.02 506.71,213.33 506.92,213.60 507.17,213.84 507.46,214.04 507.77,214.19 508.11,214.29 508.45,214.33 " style="stroke-width: 0.53; stroke: #5ECD2E; fill: #FFFFFF;" clip-path="url(#cpNi45NzM4NXw3MTMuMDI2fDI4MS4yMjd8Ni45NzM4NQ==)"/>
  <g clip-path="url(#cpNi45NzM4NXw3MTMuMDI2fDI4MS4yMjd8Ni45NzM4NQ==)">
    <text x="509.98" y="210.73" style="font-size: 9.96px; fill: #5ECD2E; font-family: Liberation Sans;" textLength="33.18px" lengthAdjust="spacingAndGlyphs">PHATE</text>
  </g>
  <polyline points="362.72,57.64 401.56,57.64 401.47,57.64 401.82,57.62 402.16,57.55 402.48,57.43 402.78,57.26 403.05,57.04 403.28,56.78 403.47,56.48 403.61,56.16 403.69,55.83 403.72,55.48 403.72,55.48 403.72,45.73 403.72,45.73 403.69,45.38 403.61,45.04 403.47,44.72 403.28,44.43 403.05,44.17 402.78,43.95 402.48,43.77 402.16,43.65 401.82,43.58 401.56,43.57 362.72,43.57 362.98,43.58 362.64,43.57 362.29,43.61 361.96,43.71 361.64,43.85 361.36,44.05 361.11,44.29 360.90,44.57 360.74,44.88 360.63,45.21 360.57,45.55 360.56,45.73 360.56,55.48 360.57,55.31 360.57,55.65 360.63,56.00 360.74,56.33 360.90,56.63 361.11,56.91 361.36,57.15 361.64,57.35 361.96,57.50 362.29,57.60 362.64,57.64 " style="stroke-width: 0.53; stroke: #FF8821; fill: #FFFFFF;" clip-path="url(#cpNi45NzM4NXw3MTMuMDI2fDI4MS4yMjd8Ni45NzM4NQ==)"/>
  <g clip-path="url(#cpNi45NzM4NXw3MTMuMDI2fDI4MS4yMjd8Ni45NzM4NQ==)">
    <text x="364.16" y="54.04" style="font-size: 9.96px; fill: #FF8821; font-family: Liberation Sans;" textLength="35.95px" lengthAdjust="spacingAndGlyphs">SLICER</text>
  </g>
  <polyline points="607.84,35.13 655.53,35.13 655.44,35.13 655.79,35.12 656.13,35.05 656.45,34.93 656.75,34.75 657.02,34.53 657.25,34.27 657.44,33.98 657.58,33.66 657.66,33.32 657.69,32.97 657.69,32.97 657.69,23.22 657.69,23.22 657.66,22.87 657.58,22.54 657.44,22.22 657.25,21.92 657.02,21.66 656.75,21.44 656.45,21.27 656.13,21.14 655.79,21.08 655.53,21.06 607.84,21.06 608.10,21.08 607.76,21.06 607.41,21.10 607.08,21.20 606.76,21.35 606.48,21.55 606.23,21.79 606.02,22.07 605.86,22.37 605.75,22.70 605.69,23.05 605.68,23.22 605.68,32.97 605.69,32.80 605.69,33.15 605.75,33.49 605.86,33.82 606.02,34.13 606.23,34.41 606.48,34.65 606.76,34.85 607.08,34.99 607.41,35.09 607.76,35.13 " style="stroke-width: 0.53; stroke: #CFBF00; fill: #FFFFFF;" clip-path="url(#cpNi45NzM4NXw3MTMuMDI2fDI4MS4yMjd8Ni45NzM4NQ==)"/>
  <g clip-path="url(#cpNi45NzM4NXw3MTMuMDI2fDI4MS4yMjd8Ni45NzM4NQ==)">
    <text x="609.28" y="31.53" style="font-size: 9.96px; fill: #CFBF00; font-family: Liberation Sans;" textLength="44.80px" lengthAdjust="spacingAndGlyphs">GrandPrix</text>
  </g>
  <polyline points="415.14,152.11 453.42,152.11 453.34,152.11 453.68,152.10 454.03,152.03 454.35,151.90 454.65,151.73 454.92,151.51 455.15,151.25 455.34,150.96 455.47,150.64 455.56,150.30 455.58,149.95 455.58,149.95 455.58,140.20 455.58,140.20 455.56,139.85 455.47,139.51 455.34,139.19 455.15,138.90 454.92,138.64 454.65,138.42 454.35,138.25 454.03,138.12 453.68,138.05 453.42,138.04 415.14,138.04 415.40,138.05 415.06,138.04 414.71,138.08 414.38,138.18 414.06,138.33 413.78,138.52 413.53,138.76 413.32,139.04 413.16,139.35 413.05,139.68 412.99,140.02 412.98,140.20 412.98,149.95 412.99,149.78 412.99,150.13 413.05,150.47 413.16,150.80 413.32,151.11 413.53,151.38 413.78,151.63 414.06,151.82 414.38,151.97 414.71,152.07 415.06,152.11 " style="stroke-width: 0.53; stroke: #5ECD2E; fill: #FFFFFF;" clip-path="url(#cpNi45NzM4NXw3MTMuMDI2fDI4MS4yMjd8Ni45NzM4NQ==)"/>
  <g clip-path="url(#cpNi45NzM4NXw3MTMuMDI2fDI4MS4yMjd8Ni45NzM4NQ==)">
    <text x="416.58" y="148.51" style="font-size: 9.96px; fill: #5ECD2E; font-family: Liberation Sans;" textLength="35.40px" lengthAdjust="spacingAndGlyphs">cellTree</text>
  </g>
  <polyline points="239.69,276.81 271.32,276.81 271.24,276.81 271.58,276.79 271.92,276.72 272.25,276.60 272.55,276.43 272.82,276.21 273.05,275.95 273.24,275.65 273.37,275.33 273.46,275.00 273.48,274.65 273.48,274.65 273.48,264.89 273.48,264.89 273.46,264.55 273.37,264.21 273.24,263.89 273.05,263.60 272.82,263.34 272.55,263.12 272.25,262.94 271.92,262.82 271.58,262.75 271.32,262.73 239.69,262.73 239.95,262.75 239.60,262.74 239.26,262.78 238.92,262.87 238.61,263.02 238.32,263.22 238.07,263.46 237.86,263.74 237.70,264.05 237.59,264.38 237.53,264.72 237.53,264.89 237.53,274.65 237.53,274.48 237.53,274.82 237.59,275.17 237.70,275.50 237.86,275.80 238.07,276.08 238.32,276.32 238.61,276.52 238.92,276.67 239.26,276.77 239.60,276.81 " style="stroke-width: 0.53; stroke: #AF0DC7; fill: #FFFFFF;" clip-path="url(#cpNi45NzM4NXw3MTMuMDI2fDI4MS4yMjd8Ni45NzM4NQ==)"/>
  <g clip-path="url(#cpNi45NzM4NXw3MTMuMDI2fDI4MS4yMjd8Ni45NzM4NQ==)">
    <text x="241.13" y="273.21" style="font-size: 9.96px; fill: #AF0DC7; font-family: Liberation Sans;" textLength="28.76px" lengthAdjust="spacingAndGlyphs">NBOR</text>
  </g>
  <polyline points="357.18,174.28 403.79,174.28 403.70,174.28 404.05,174.26 404.39,174.19 404.71,174.07 405.01,173.89 405.28,173.67 405.51,173.41 405.70,173.12 405.84,172.80 405.92,172.46 405.95,172.12 405.95,172.12 405.95,162.36 405.95,162.36 405.92,162.02 405.84,161.68 405.70,161.36 405.51,161.06 405.28,160.80 405.01,160.58 404.71,160.41 404.39,160.29 404.05,160.22 403.79,160.20 357.18,160.20 357.44,160.22 357.10,160.20 356.75,160.25 356.42,160.34 356.10,160.49 355.82,160.69 355.57,160.93 355.36,161.21 355.20,161.52 355.09,161.85 355.03,162.19 355.02,162.36 355.02,172.12 355.03,171.94 355.03,172.29 355.09,172.63 355.20,172.96 355.36,173.27 355.57,173.55 355.82,173.79 356.10,173.99 356.42,174.14 356.75,174.23 357.10,174.28 " style="stroke-width: 0.53; stroke: #AF0DC7; fill: #FFFFFF;" clip-path="url(#cpNi45NzM4NXw3MTMuMDI2fDI4MS4yMjd8Ni45NzM4NQ==)"/>
  <g clip-path="url(#cpNi45NzM4NXw3MTMuMDI2fDI4MS4yMjd8Ni45NzM4NQ==)">
    <text x="358.62" y="170.68" style="font-size: 9.96px; fill: #AF0DC7; font-family: Liberation Sans;" textLength="43.72px" lengthAdjust="spacingAndGlyphs">pseudogp</text>
  </g>
  <polyline points="170.71,273.87 207.88,273.87 207.79,273.87 208.14,273.86 208.48,273.79 208.80,273.67 209.10,273.49 209.37,273.27 209.60,273.01 209.79,272.72 209.93,272.40 210.01,272.06 210.04,271.71 210.04,271.71 210.04,261.96 210.04,261.96 210.01,261.61 209.93,261.28 209.79,260.96 209.60,260.66 209.37,260.40 209.10,260.18 208.80,260.01 208.48,259.88 208.14,259.81 207.88,259.80 170.71,259.80 170.97,259.81 170.62,259.80 170.27,259.84 169.94,259.94 169.63,260.09 169.34,260.29 169.09,260.53 168.88,260.80 168.72,261.11 168.61,261.44 168.55,261.79 168.55,261.96 168.55,271.71 168.55,271.54 168.55,271.89 168.61,272.23 168.72,272.56 168.88,272.87 169.09,273.15 169.34,273.39 169.63,273.58 169.94,273.73 170.27,273.83 170.62,273.87 " style="stroke-width: 0.53; stroke: #5ECD2E; fill: #FFFFFF;" clip-path="url(#cpNi45NzM4NXw3MTMuMDI2fDI4MS4yMjd8Ni45NzM4NQ==)"/>
  <g clip-path="url(#cpNi45NzM4NXw3MTMuMDI2fDI4MS4yMjd8Ni45NzM4NQ==)">
    <text x="172.15" y="270.27" style="font-size: 9.96px; fill: #5ECD2E; font-family: Liberation Sans;" textLength="34.29px" lengthAdjust="spacingAndGlyphs">SCUBA</text>
  </g>
  <polyline points="471.43,277.63 503.08,277.63 502.99,277.62 503.34,277.61 503.68,277.54 504.00,277.42 504.31,277.24 504.58,277.02 504.81,276.76 504.99,276.47 505.13,276.15 505.21,275.81 505.24,275.47 505.24,275.47 505.24,265.71 505.24,265.71 505.21,265.37 505.13,265.03 504.99,264.71 504.81,264.41 504.58,264.15 504.31,263.93 504.00,263.76 503.68,263.64 503.34,263.57 503.08,263.55 471.43,263.55 471.69,263.57 471.35,263.55 471.00,263.60 470.67,263.69 470.35,263.84 470.07,264.04 469.82,264.28 469.61,264.56 469.45,264.87 469.34,265.19 469.28,265.54 469.27,265.71 469.27,275.47 469.28,275.29 469.28,275.64 469.34,275.98 469.45,276.31 469.61,276.62 469.82,276.90 470.07,277.14 470.35,277.34 470.67,277.49 471.00,277.58 471.35,277.62 " style="stroke-width: 0.53; stroke: #5ECD2E; fill: #FFFFFF;" clip-path="url(#cpNi45NzM4NXw3MTMuMDI2fDI4MS4yMjd8Ni45NzM4NQ==)"/>
  <g clip-path="url(#cpNi45NzM4NXw3MTMuMDI2fDI4MS4yMjd8Ni45NzM4NQ==)">
    <text x="472.87" y="274.03" style="font-size: 9.96px; fill: #5ECD2E; font-family: Liberation Sans;" textLength="28.77px" lengthAdjust="spacingAndGlyphs">SLICE</text>
  </g>
  <polyline points="387.83,78.19 426.11,78.19 426.02,78.19 426.37,78.17 426.71,78.10 427.03,77.98 427.34,77.81 427.60,77.59 427.84,77.33 428.02,77.03 428.16,76.71 428.24,76.38 428.27,76.03 428.27,76.03 428.27,66.27 428.27,66.27 428.24,65.93 428.16,65.59 428.02,65.27 427.84,64.98 427.60,64.72 427.34,64.50 427.03,64.32 426.71,64.20 426.37,64.13 426.11,64.11 387.83,64.11 388.09,64.13 387.75,64.12 387.40,64.16 387.07,64.25 386.75,64.40 386.47,64.60 386.22,64.84 386.01,65.12 385.85,65.43 385.74,65.76 385.68,66.10 385.67,66.27 385.67,76.03 385.68,75.86 385.68,76.20 385.74,76.55 385.85,76.88 386.01,77.18 386.22,77.46 386.47,77.70 386.75,77.90 387.07,78.05 387.40,78.15 387.75,78.19 " style="stroke-width: 0.53; stroke: #CFBF00; fill: #FFFFFF;" clip-path="url(#cpNi45NzM4NXw3MTMuMDI2fDI4MS4yMjd8Ni45NzM4NQ==)"/>
  <g clip-path="url(#cpNi45NzM4NXw3MTMuMDI2fDI4MS4yMjd8Ni45NzM4NQ==)">
    <text x="389.27" y="74.59" style="font-size: 9.96px; fill: #CFBF00; font-family: Liberation Sans;" textLength="35.39px" lengthAdjust="spacingAndGlyphs">SCOUP</text>
  </g>
  <polyline points="345.50,275.69 368.29,275.69 368.20,275.69 368.55,275.68 368.89,275.61 369.22,275.48 369.52,275.31 369.79,275.09 370.02,274.83 370.20,274.54 370.34,274.22 370.42,273.88 370.45,273.53 370.45,273.53 370.45,263.78 370.45,263.78 370.42,263.43 370.34,263.09 370.20,262.77 370.02,262.48 369.79,262.22 369.52,262.00 369.22,261.83 368.89,261.70 368.55,261.63 368.29,261.62 345.50,261.62 345.76,261.63 345.42,261.62 345.07,261.66 344.74,261.76 344.42,261.91 344.14,262.10 343.89,262.34 343.68,262.62 343.52,262.93 343.41,263.26 343.35,263.60 343.34,263.78 343.34,273.53 343.35,273.36 343.35,273.71 343.41,274.05 343.52,274.38 343.68,274.69 343.89,274.96 344.14,275.21 344.42,275.40 344.74,275.55 345.07,275.65 345.42,275.69 " style="stroke-width: 0.53; stroke: #0073D7; fill: #FFFFFF;" clip-path="url(#cpNi45NzM4NXw3MTMuMDI2fDI4MS4yMjd8Ni45NzM4NQ==)"/>
  <g clip-path="url(#cpNi45NzM4NXw3MTMuMDI2fDI4MS4yMjd8Ni45NzM4NQ==)">
    <text x="346.94" y="272.09" style="font-size: 9.96px; fill: #0073D7; font-family: Liberation Sans;" textLength="19.91px" lengthAdjust="spacingAndGlyphs">DPT</text>
  </g>
  <polyline points="516.25,52.96 558.41,52.96 558.32,52.96 558.67,52.95 559.01,52.88 559.34,52.75 559.64,52.58 559.91,52.36 560.14,52.10 560.32,51.81 560.46,51.49 560.54,51.15 560.57,50.80 560.57,50.80 560.57,41.05 560.57,41.05 560.54,40.70 560.46,40.36 560.32,40.04 560.14,39.75 559.91,39.49 559.64,39.27 559.34,39.10 559.01,38.97 558.67,38.90 558.41,38.89 516.25,38.89 516.51,38.90 516.16,38.89 515.82,38.93 515.48,39.03 515.17,39.18 514.88,39.37 514.63,39.61 514.42,39.89 514.26,40.20 514.15,40.53 514.10,40.87 514.09,41.05 514.09,50.80 514.10,50.63 514.10,50.98 514.15,51.32 514.26,51.65 514.42,51.96 514.63,52.23 514.88,52.47 515.17,52.67 515.48,52.82 515.82,52.92 516.16,52.96 " style="stroke-width: 0.53; stroke: #5ECD2E; fill: #FFFFFF;" clip-path="url(#cpNi45NzM4NXw3MTMuMDI2fDI4MS4yMjd8Ni45NzM4NQ==)"/>
  <g clip-path="url(#cpNi45NzM4NXw3MTMuMDI2fDI4MS4yMjd8Ni45NzM4NQ==)">
    <text x="517.69" y="49.36" style="font-size: 9.96px; fill: #5ECD2E; font-family: Liberation Sans;" textLength="39.28px" lengthAdjust="spacingAndGlyphs">slingshot</text>
  </g>
  <polyline points="489.34,172.58 538.14,172.58 538.06,172.58 538.40,172.56 538.74,172.49 539.07,172.37 539.37,172.20 539.64,171.98 539.87,171.72 540.05,171.42 540.19,171.10 540.27,170.76 540.30,170.42 540.30,170.42 540.30,160.66 540.30,160.66 540.27,160.32 540.19,159.98 540.05,159.66 539.87,159.36 539.64,159.10 539.37,158.88 539.07,158.71 538.74,158.59 538.40,158.52 538.14,158.50 489.34,158.50 489.60,158.52 489.25,158.50 488.91,158.55 488.57,158.64 488.26,158.79 487.97,158.99 487.72,159.23 487.52,159.51 487.35,159.82 487.24,160.15 487.19,160.49 487.18,160.66 487.18,170.42 487.19,170.24 487.19,170.59 487.24,170.93 487.35,171.26 487.52,171.57 487.72,171.85 487.97,172.09 488.26,172.29 488.57,172.44 488.91,172.53 489.25,172.58 " style="stroke-width: 0.53; stroke: #5ECD2E; fill: #FFFFFF;" clip-path="url(#cpNi45NzM4NXw3MTMuMDI2fDI4MS4yMjd8Ni45NzM4NQ==)"/>
  <g clip-path="url(#cpNi45NzM4NXw3MTMuMDI2fDI4MS4yMjd8Ni45NzM4NQ==)">
    <text x="490.78" y="168.98" style="font-size: 9.96px; fill: #5ECD2E; font-family: Liberation Sans;" textLength="45.92px" lengthAdjust="spacingAndGlyphs">Monocle 2</text>
  </g>
  <polyline points="448.26,239.54 484.87,239.54 484.78,239.54 485.13,239.52 485.47,239.45 485.80,239.33 486.10,239.16 486.37,238.94 486.60,238.68 486.78,238.38 486.92,238.06 487.00,237.72 487.03,237.38 487.03,237.38 487.03,227.62 487.03,227.62 487.00,227.28 486.92,226.94 486.78,226.62 486.60,226.32 486.37,226.06 486.10,225.84 485.80,225.67 485.47,225.55 485.13,225.48 484.87,225.46 448.26,225.46 448.52,225.48 448.17,225.46 447.83,225.51 447.49,225.60 447.18,225.75 446.89,225.95 446.64,226.19 446.43,226.47 446.27,226.78 446.16,227.11 446.10,227.45 446.10,227.62 446.10,237.38 446.10,237.20 446.10,237.55 446.16,237.89 446.27,238.22 446.43,238.53 446.64,238.81 446.89,239.05 447.18,239.25 447.49,239.40 447.83,239.49 448.17,239.54 " style="stroke-width: 0.53; stroke: #AF0DC7; fill: #FFFFFF;" clip-path="url(#cpNi45NzM4NXw3MTMuMDI2fDI4MS4yMjd8Ni45NzM4NQ==)"/>
  <g clip-path="url(#cpNi45NzM4NXw3MTMuMDI2fDI4MS4yMjd8Ni45NzM4NQ==)">
    <text x="449.70" y="235.94" style="font-size: 9.96px; fill: #AF0DC7; font-family: Liberation Sans;" textLength="33.73px" lengthAdjust="spacingAndGlyphs">SCENT</text>
  </g>
  <polyline points="568.42,209.94 592.32,209.94 592.23,209.94 592.58,209.92 592.92,209.85 593.25,209.73 593.55,209.55 593.82,209.33 594.05,209.07 594.23,208.78 594.37,208.46 594.45,208.12 594.48,207.78 594.48,207.78 594.48,198.02 594.48,198.02 594.45,197.68 594.37,197.34 594.23,197.02 594.05,196.72 593.82,196.46 593.55,196.24 593.25,196.07 592.92,195.95 592.58,195.88 592.32,195.86 568.42,195.86 568.68,195.88 568.33,195.86 567.99,195.91 567.65,196.00 567.34,196.15 567.05,196.35 566.80,196.59 566.59,196.87 566.43,197.18 566.32,197.51 566.27,197.85 566.26,198.02 566.26,207.78 566.27,207.60 566.27,207.95 566.32,208.29 566.43,208.62 566.59,208.93 566.80,209.21 567.05,209.45 567.34,209.65 567.65,209.80 567.99,209.89 568.33,209.94 " style="stroke-width: 0.53; stroke: #0073D7; fill: #FFFFFF;" clip-path="url(#cpNi45NzM4NXw3MTMuMDI2fDI4MS4yMjd8Ni45NzM4NQ==)"/>
  <g clip-path="url(#cpNi45NzM4NXw3MTMuMDI2fDI4MS4yMjd8Ni45NzM4NQ==)">
    <text x="569.86" y="206.34" style="font-size: 9.96px; fill: #0073D7; font-family: Liberation Sans;" textLength="21.02px" lengthAdjust="spacingAndGlyphs">BGP</text>
  </g>
  <polyline points="544.41,83.30 581.57,83.30 581.48,83.30 581.83,83.28 582.17,83.22 582.50,83.09 582.80,82.92 583.07,82.70 583.30,82.44 583.48,82.14 583.62,81.82 583.70,81.49 583.73,81.14 583.73,81.14 583.73,71.39 583.73,71.39 583.70,71.04 583.62,70.70 583.48,70.38 583.30,70.09 583.07,69.83 582.80,69.61 582.50,69.43 582.17,69.31 581.83,69.24 581.57,69.23 544.41,69.23 544.67,69.24 544.32,69.23 543.97,69.27 543.64,69.37 543.33,69.51 543.04,69.71 542.79,69.95 542.58,70.23 542.42,70.54 542.31,70.87 542.25,71.21 542.25,71.39 542.25,81.14 542.25,80.97 542.25,81.31 542.31,81.66 542.42,81.99 542.58,82.29 542.79,82.57 543.04,82.81 543.33,83.01 543.64,83.16 543.97,83.26 544.32,83.30 " style="stroke-width: 0.53; stroke: #5ECD2E; fill: #FFFFFF;" clip-path="url(#cpNi45NzM4NXw3MTMuMDI2fDI4MS4yMjd8Ni45NzM4NQ==)"/>
  <g clip-path="url(#cpNi45NzM4NXw3MTMuMDI2fDI4MS4yMjd8Ni45NzM4NQ==)">
    <text x="545.85" y="79.70" style="font-size: 9.96px; fill: #5ECD2E; font-family: Liberation Sans;" textLength="34.29px" lengthAdjust="spacingAndGlyphs">FORKS</text>
  </g>
  <polyline points="559.30,61.81 596.48,61.81 596.39,61.81 596.74,61.79 597.08,61.73 597.40,61.60 597.70,61.43 597.97,61.21 598.20,60.95 598.39,60.65 598.53,60.33 598.61,60.00 598.64,59.65 598.64,59.65 598.64,49.90 598.64,49.90 598.61,49.55 598.53,49.21 598.39,48.89 598.20,48.60 597.97,48.34 597.70,48.12 597.40,47.94 597.08,47.82 596.74,47.75 596.48,47.74 559.30,47.74 559.56,47.75 559.21,47.74 558.86,47.78 558.53,47.88 558.22,48.02 557.93,48.22 557.68,48.46 557.47,48.74 557.31,49.05 557.20,49.38 557.14,49.72 557.14,49.90 557.14,59.65 557.14,59.48 557.14,59.82 557.20,60.17 557.31,60.50 557.47,60.80 557.68,61.08 557.93,61.32 558.22,61.52 558.53,61.67 558.86,61.77 559.21,61.81 " style="stroke-width: 0.53; stroke: #AF0DC7; fill: #FFFFFF;" clip-path="url(#cpNi45NzM4NXw3MTMuMDI2fDI4MS4yMjd8Ni45NzM4NQ==)"/>
  <g clip-path="url(#cpNi45NzM4NXw3MTMuMDI2fDI4MS4yMjd8Ni45NzM4NQ==)">
    <text x="560.74" y="58.21" style="font-size: 9.96px; fill: #AF0DC7; font-family: Liberation Sans;" textLength="34.30px" lengthAdjust="spacingAndGlyphs">SoptSC</text>
  </g>
  <polyline points="429.61,99.43 484.48,99.43 484.39,99.43 484.74,99.42 485.08,99.35 485.40,99.22 485.71,99.05 485.98,98.83 486.21,98.57 486.39,98.28 486.53,97.96 486.61,97.62 486.64,97.27 486.64,97.27 486.64,87.52 486.64,87.52 486.61,87.17 486.53,86.83 486.39,86.51 486.21,86.22 485.98,85.96 485.71,85.74 485.40,85.57 485.08,85.44 484.74,85.37 484.48,85.36 429.61,85.36 429.87,85.37 429.53,85.36 429.18,85.40 428.85,85.50 428.53,85.65 428.25,85.84 428.00,86.08 427.79,86.36 427.62,86.67 427.51,87.00 427.46,87.34 427.45,87.52 427.45,97.27 427.46,97.10 427.46,97.45 427.51,97.79 427.62,98.12 427.79,98.43 428.00,98.70 428.25,98.95 428.53,99.14 428.85,99.29 429.18,99.39 429.53,99.43 " style="stroke-width: 0.53; stroke: #AF0DC7; fill: #FFFFFF;" clip-path="url(#cpNi45NzM4NXw3MTMuMDI2fDI4MS4yMjd8Ni45NzM4NQ==)"/>
  <g clip-path="url(#cpNi45NzM4NXw3MTMuMDI2fDI4MS4yMjd8Ni45NzM4NQ==)">
    <text x="431.05" y="95.83" style="font-size: 9.96px; fill: #AF0DC7; font-family: Liberation Sans;" textLength="51.99px" lengthAdjust="spacingAndGlyphs">SCORPIUS</text>
  </g>
  <polyline points="550.45,24.65 593.73,24.65 593.65,24.65 593.99,24.63 594.33,24.56 594.66,24.44 594.96,24.27 595.23,24.05 595.46,23.79 595.65,23.49 595.78,23.17 595.87,22.84 595.89,22.49 595.89,22.49 595.89,12.73 595.89,12.73 595.87,12.39 595.78,12.05 595.65,11.73 595.46,11.44 595.23,11.18 594.96,10.96 594.66,10.78 594.33,10.66 593.99,10.59 593.73,10.57 550.45,10.57 550.71,10.59 550.37,10.58 550.02,10.62 549.69,10.71 549.37,10.86 549.09,11.06 548.84,11.30 548.63,11.58 548.47,11.89 548.36,12.22 548.30,12.56 548.29,12.73 548.29,22.49 548.30,22.32 548.30,22.66 548.36,23.01 548.47,23.34 548.63,23.64 548.84,23.92 549.09,24.16 549.37,24.36 549.69,24.51 550.02,24.61 550.37,24.65 " style="stroke-width: 0.53; stroke: #AF0DC7; fill: #FFFFFF;" clip-path="url(#cpNi45NzM4NXw3MTMuMDI2fDI4MS4yMjd8Ni45NzM4NQ==)"/>
  <g clip-path="url(#cpNi45NzM4NXw3MTMuMDI2fDI4MS4yMjd8Ni45NzM4NQ==)">
    <text x="551.89" y="21.05" style="font-size: 9.96px; fill: #AF0DC7; font-family: Liberation Sans;" textLength="40.40px" lengthAdjust="spacingAndGlyphs">HopLand</text>
  </g>
  <polyline points="394.32,24.65 430.38,24.65 430.30,24.65 430.64,24.63 430.98,24.56 431.31,24.44 431.61,24.27 431.88,24.05 432.11,23.79 432.30,23.49 432.43,23.17 432.51,22.84 432.54,22.49 432.54,22.49 432.54,12.73 432.54,12.73 432.51,12.39 432.43,12.05 432.30,11.73 432.11,11.44 431.88,11.18 431.61,10.96 431.31,10.78 430.98,10.66 430.64,10.59 430.38,10.57 394.32,10.57 394.58,10.59 394.23,10.58 393.89,10.62 393.55,10.71 393.24,10.86 392.95,11.06 392.70,11.30 392.49,11.58 392.33,11.89 392.22,12.22 392.17,12.56 392.16,12.73 392.16,22.49 392.17,22.32 392.17,22.66 392.22,23.01 392.33,23.34 392.49,23.64 392.70,23.92 392.95,24.16 393.24,24.36 393.55,24.51 393.89,24.61 394.23,24.65 " style="stroke-width: 0.53; stroke: #5ECD2E; fill: #FFFFFF;" clip-path="url(#cpNi45NzM4NXw3MTMuMDI2fDI4MS4yMjd8Ni45NzM4NQ==)"/>
  <g clip-path="url(#cpNi45NzM4NXw3MTMuMDI2fDI4MS4yMjd8Ni45NzM4NQ==)">
    <text x="395.76" y="21.05" style="font-size: 9.96px; fill: #5ECD2E; font-family: Liberation Sans;" textLength="33.18px" lengthAdjust="spacingAndGlyphs">StemID</text>
  </g>
  <polyline points="622.03,216.93 681.90,216.93 681.81,216.93 682.16,216.92 682.50,216.85 682.83,216.72 683.13,216.55 683.40,216.33 683.63,216.07 683.81,215.78 683.95,215.46 684.03,215.12 684.06,214.77 684.06,214.77 684.06,205.02 684.06,205.02 684.03,204.67 683.95,204.33 683.81,204.01 683.63,203.72 683.40,203.46 683.13,203.24 682.83,203.07 682.50,202.94 682.16,202.87 681.90,202.86 622.03,202.86 622.29,202.87 621.94,202.86 621.60,202.90 621.26,203.00 620.95,203.15 620.66,203.34 620.41,203.59 620.20,203.86 620.04,204.17 619.93,204.50 619.87,204.84 619.87,205.02 619.87,214.77 619.87,214.60 619.87,214.95 619.93,215.29 620.04,215.62 620.20,215.93 620.41,216.20 620.66,216.45 620.95,216.64 621.26,216.79 621.60,216.89 621.94,216.93 " style="stroke-width: 0.53; stroke: #5ECD2E; fill: #FFFFFF;" clip-path="url(#cpNi45NzM4NXw3MTMuMDI2fDI4MS4yMjd8Ni45NzM4NQ==)"/>
  <g clip-path="url(#cpNi45NzM4NXw3MTMuMDI2fDI4MS4yMjd8Ni45NzM4NQ==)">
    <text x="623.47" y="213.33" style="font-size: 9.96px; fill: #5ECD2E; font-family: Liberation Sans;" textLength="56.99px" lengthAdjust="spacingAndGlyphs">Topographer</text>
  </g>
  <polyline points="270.44,183.08 312.58,183.08 312.50,183.07 312.84,183.06 313.18,182.99 313.51,182.87 313.81,182.69 314.08,182.47 314.31,182.21 314.50,181.92 314.63,181.60 314.72,181.26 314.74,180.92 314.74,180.92 314.74,171.16 314.74,171.16 314.72,170.81 314.63,170.48 314.50,170.16 314.31,169.86 314.08,169.60 313.81,169.38 313.51,169.21 313.18,169.09 312.84,169.02 312.58,169.00 270.44,169.00 270.70,169.02 270.35,169.00 270.00,169.04 269.67,169.14 269.36,169.29 269.07,169.49 268.82,169.73 268.61,170.01 268.45,170.31 268.34,170.64 268.28,170.99 268.28,171.16 268.28,180.92 268.28,180.74 268.28,181.09 268.34,181.43 268.45,181.76 268.61,182.07 268.82,182.35 269.07,182.59 269.36,182.79 269.67,182.93 270.00,183.03 270.35,183.07 " style="stroke-width: 0.53; stroke: #AF0DC7; fill: #FFFFFF;" clip-path="url(#cpNi45NzM4NXw3MTMuMDI2fDI4MS4yMjd8Ni45NzM4NQ==)"/>
  <g clip-path="url(#cpNi45NzM4NXw3MTMuMDI2fDI4MS4yMjd8Ni45NzM4NQ==)">
    <text x="271.88" y="179.48" style="font-size: 9.96px; fill: #AF0DC7; font-family: Liberation Sans;" textLength="39.27px" lengthAdjust="spacingAndGlyphs">Waterfall</text>
  </g>
  <polyline points="491.57,261.32 529.30,261.32 529.21,261.31 529.56,261.30 529.90,261.23 530.22,261.11 530.52,260.93 530.79,260.71 531.02,260.45 531.21,260.16 531.34,259.84 531.43,259.50 531.46,259.16 531.46,259.16 531.46,249.40 531.46,249.40 531.43,249.05 531.34,248.72 531.21,248.40 531.02,248.10 530.79,247.84 530.52,247.62 530.22,247.45 529.90,247.33 529.56,247.26 529.30,247.24 491.57,247.24 491.83,247.26 491.48,247.24 491.13,247.28 490.80,247.38 490.49,247.53 490.20,247.73 489.95,247.97 489.74,248.25 489.58,248.55 489.47,248.88 489.41,249.23 489.41,249.40 489.41,259.16 489.41,258.98 489.41,259.33 489.47,259.67 489.58,260.00 489.74,260.31 489.95,260.59 490.20,260.83 490.49,261.03 490.80,261.17 491.13,261.27 491.48,261.31 " style="stroke-width: 0.53; stroke: #AF0DC7; fill: #FFFFFF;" clip-path="url(#cpNi45NzM4NXw3MTMuMDI2fDI4MS4yMjd8Ni45NzM4NQ==)"/>
  <g clip-path="url(#cpNi45NzM4NXw3MTMuMDI2fDI4MS4yMjd8Ni45NzM4NQ==)">
    <text x="493.01" y="257.72" style="font-size: 9.96px; fill: #AF0DC7; font-family: Liberation Sans;" textLength="34.85px" lengthAdjust="spacingAndGlyphs">topslam</text>
  </g>
  <polyline points="604.42,108.20 628.32,108.20 628.24,108.20 628.58,108.19 628.92,108.12 629.25,107.99 629.55,107.82 629.82,107.60 630.05,107.34 630.24,107.05 630.37,106.73 630.46,106.39 630.48,106.04 630.48,106.04 630.48,96.29 630.48,96.29 630.46,95.94 630.37,95.60 630.24,95.28 630.05,94.99 629.82,94.73 629.55,94.51 629.25,94.34 628.92,94.21 628.58,94.14 628.32,94.13 604.42,94.13 604.68,94.14 604.34,94.13 603.99,94.17 603.66,94.27 603.34,94.42 603.06,94.62 602.81,94.86 602.60,95.13 602.44,95.44 602.33,95.77 602.27,96.11 602.26,96.29 602.26,106.04 602.27,105.87 602.27,106.22 602.33,106.56 602.44,106.89 602.60,107.20 602.81,107.48 603.06,107.72 603.34,107.91 603.66,108.06 603.99,108.16 604.34,108.20 " style="stroke-width: 0.53; stroke: #FF4237; fill: #FFFFFF;" clip-path="url(#cpNi45NzM4NXw3MTMuMDI2fDI4MS4yMjd8Ni45NzM4NQ==)"/>
  <g clip-path="url(#cpNi45NzM4NXw3MTMuMDI2fDI4MS4yMjd8Ni45NzM4NQ==)">
    <text x="605.86" y="104.60" style="font-size: 9.96px; fill: #FF4237; font-family: Liberation Sans;" textLength="21.02px" lengthAdjust="spacingAndGlyphs">AGA</text>
  </g>
  <polyline points="430.59,218.25 481.02,218.25 480.93,218.25 481.28,218.23 481.62,218.16 481.95,218.04 482.25,217.87 482.52,217.65 482.75,217.39 482.93,217.09 483.07,216.77 483.15,216.44 483.18,216.09 483.18,216.09 483.18,206.33 483.18,206.33 483.15,205.99 483.07,205.65 482.93,205.33 482.75,205.04 482.52,204.78 482.25,204.56 481.95,204.38 481.62,204.26 481.28,204.19 481.02,204.17 430.59,204.17 430.85,204.19 430.50,204.18 430.15,204.22 429.82,204.31 429.51,204.46 429.22,204.66 428.97,204.90 428.76,205.18 428.60,205.49 428.49,205.82 428.43,206.16 428.43,206.33 428.43,216.09 428.43,215.92 428.43,216.26 428.49,216.61 428.60,216.94 428.76,217.24 428.97,217.52 429.22,217.76 429.51,217.96 429.82,218.11 430.15,218.21 430.50,218.25 " style="stroke-width: 0.53; stroke: #AF0DC7; fill: #FFFFFF;" clip-path="url(#cpNi45NzM4NXw3MTMuMDI2fDI4MS4yMjd8Ni45NzM4NQ==)"/>
  <g clip-path="url(#cpNi45NzM4NXw3MTMuMDI2fDI4MS4yMjd8Ni45NzM4NQ==)">
    <text x="432.03" y="214.65" style="font-size: 9.96px; fill: #AF0DC7; font-family: Liberation Sans;" textLength="47.55px" lengthAdjust="spacingAndGlyphs">SCIMITAR</text>
  </g>
  <polyline points="400.80,275.57 431.35,275.57 431.26,275.57 431.61,275.56 431.95,275.49 432.27,275.37 432.57,275.19 432.84,274.97 433.07,274.71 433.26,274.42 433.40,274.10 433.48,273.76 433.51,273.41 433.51,273.41 433.51,263.66 433.51,263.66 433.48,263.31 433.40,262.98 433.26,262.66 433.07,262.36 432.84,262.10 432.57,261.88 432.27,261.71 431.95,261.58 431.61,261.52 431.35,261.50 400.80,261.50 401.06,261.52 400.72,261.50 400.37,261.54 400.04,261.64 399.72,261.79 399.44,261.99 399.19,262.23 398.98,262.51 398.82,262.81 398.71,263.14 398.65,263.49 398.64,263.66 398.64,273.41 398.65,273.24 398.65,273.59 398.71,273.93 398.82,274.26 398.98,274.57 399.19,274.85 399.44,275.09 399.72,275.29 400.04,275.43 400.37,275.53 400.72,275.57 " style="stroke-width: 0.53; stroke: #5ECD2E; fill: #FFFFFF;" clip-path="url(#cpNi45NzM4NXw3MTMuMDI2fDI4MS4yMjd8Ni45NzM4NQ==)"/>
  <g clip-path="url(#cpNi45NzM4NXw3MTMuMDI2fDI4MS4yMjd8Ni45NzM4NQ==)">
    <text x="402.24" y="271.97" style="font-size: 9.96px; fill: #5ECD2E; font-family: Liberation Sans;" textLength="27.66px" lengthAdjust="spacingAndGlyphs">Mpath</text>
  </g>
  <polyline points="566.47,150.01 600.89,150.01 600.80,150.00 601.15,149.99 601.49,149.92 601.81,149.80 602.12,149.62 602.38,149.40 602.62,149.14 602.80,148.85 602.94,148.53 603.02,148.19 603.05,147.85 603.05,147.85 603.05,138.09 603.05,138.09 603.02,137.75 602.94,137.41 602.80,137.09 602.62,136.79 602.38,136.53 602.12,136.31 601.81,136.14 601.49,136.02 601.15,135.95 600.89,135.93 566.47,135.93 566.73,135.95 566.39,135.93 566.04,135.98 565.71,136.07 565.39,136.22 565.11,136.42 564.86,136.66 564.65,136.94 564.49,137.25 564.38,137.57 564.32,137.92 564.31,138.09 564.31,147.85 564.32,147.67 564.32,148.02 564.38,148.36 564.49,148.69 564.65,149.00 564.86,149.28 565.11,149.52 565.39,149.72 565.71,149.87 566.04,149.96 566.39,150.00 " style="stroke-width: 0.53; stroke: #0073D7; fill: #FFFFFF;" clip-path="url(#cpNi45NzM4NXw3MTMuMDI2fDI4MS4yMjd8Ni45NzM4NQ==)"/>
  <g clip-path="url(#cpNi45NzM4NXw3MTMuMDI2fDI4MS4yMjd8Ni45NzM4NQ==)">
    <text x="567.91" y="146.41" style="font-size: 9.96px; fill: #0073D7; font-family: Liberation Sans;" textLength="31.54px" lengthAdjust="spacingAndGlyphs">scanpy</text>
  </g>
  <polyline points="573.51,249.33 612.89,249.33 612.80,249.32 613.15,249.31 613.49,249.24 613.81,249.12 614.11,248.94 614.38,248.72 614.61,248.46 614.80,248.17 614.94,247.85 615.02,247.51 615.05,247.17 615.05,247.17 615.05,237.41 615.05,237.41 615.02,237.06 614.94,236.73 614.80,236.41 614.61,236.11 614.38,235.85 614.11,235.63 613.81,235.46 613.49,235.34 613.15,235.27 612.89,235.25 573.51,235.25 573.77,235.27 573.42,235.25 573.08,235.29 572.74,235.39 572.43,235.54 572.14,235.74 571.89,235.98 571.68,236.26 571.52,236.56 571.41,236.89 571.36,237.24 571.35,237.41 571.35,247.17 571.36,246.99 571.36,247.34 571.41,247.68 571.52,248.01 571.68,248.32 571.89,248.60 572.14,248.84 572.43,249.04 572.74,249.18 573.08,249.28 573.42,249.32 " style="stroke-width: 0.53; stroke: #FF8821; fill: #FFFFFF;" clip-path="url(#cpNi45NzM4NXw3MTMuMDI2fDI4MS4yMjd8Ni45NzM4NQ==)"/>
  <g clip-path="url(#cpNi45NzM4NXw3MTMuMDI2fDI4MS4yMjd8Ni45NzM4NQ==)">
    <text x="574.95" y="245.73" style="font-size: 9.96px; fill: #FF8821; font-family: Liberation Sans;" textLength="36.50px" lengthAdjust="spacingAndGlyphs">B-RGPs</text>
  </g>
  <polyline points="387.40,196.91 433.99,196.91 433.91,196.91 434.25,196.89 434.59,196.83 434.92,196.70 435.22,196.53 435.49,196.31 435.72,196.05 435.91,195.75 436.04,195.43 436.12,195.10 436.15,194.75 436.15,194.75 436.15,185.00 436.15,185.00 436.12,184.65 436.04,184.31 435.91,183.99 435.72,183.70 435.49,183.44 435.22,183.22 434.92,183.04 434.59,182.92 434.25,182.85 433.99,182.84 387.40,182.84 387.66,182.85 387.31,182.84 386.97,182.88 386.63,182.98 386.32,183.12 386.03,183.32 385.78,183.56 385.57,183.84 385.41,184.15 385.30,184.48 385.24,184.82 385.24,185.00 385.24,194.75 385.24,194.58 385.24,194.92 385.30,195.27 385.41,195.60 385.57,195.90 385.78,196.18 386.03,196.42 386.32,196.62 386.63,196.77 386.97,196.87 387.31,196.91 " style="stroke-width: 0.53; stroke: #AF0DC7; fill: #FFFFFF;" clip-path="url(#cpNi45NzM4NXw3MTMuMDI2fDI4MS4yMjd8Ni45NzM4NQ==)"/>
  <g clip-path="url(#cpNi45NzM4NXw3MTMuMDI2fDI4MS4yMjd8Ni45NzM4NQ==)">
    <text x="388.84" y="193.31" style="font-size: 9.96px; fill: #AF0DC7; font-family: Liberation Sans;" textLength="43.72px" lengthAdjust="spacingAndGlyphs">DeLorean</text>
  </g>
  <polyline points="266.54,206.36 326.41,206.36 326.32,206.36 326.67,206.35 327.01,206.28 327.34,206.16 327.64,205.98 327.91,205.76 328.14,205.50 328.32,205.21 328.46,204.89 328.54,204.55 328.57,204.20 328.57,204.20 328.57,194.45 328.57,194.45 328.54,194.10 328.46,193.76 328.32,193.45 328.14,193.15 327.91,192.89 327.64,192.67 327.34,192.50 327.01,192.37 326.67,192.30 326.41,192.29 266.54,192.29 266.80,192.30 266.45,192.29 266.11,192.33 265.77,192.43 265.46,192.58 265.17,192.78 264.92,193.02 264.71,193.29 264.55,193.60 264.44,193.93 264.39,194.28 264.38,194.45 264.38,204.20 264.39,204.03 264.39,204.38 264.44,204.72 264.55,205.05 264.71,205.36 264.92,205.64 265.17,205.88 265.46,206.07 265.77,206.22 266.11,206.32 266.45,206.36 " style="stroke-width: 0.53; stroke: #AF0DC7; fill: #FFFFFF;" clip-path="url(#cpNi45NzM4NXw3MTMuMDI2fDI4MS4yMjd8Ni45NzM4NQ==)"/>
  <g clip-path="url(#cpNi45NzM4NXw3MTMuMDI2fDI4MS4yMjd8Ni45NzM4NQ==)">
    <text x="267.98" y="202.76" style="font-size: 9.96px; fill: #AF0DC7; font-family: Liberation Sans;" textLength="56.99px" lengthAdjust="spacingAndGlyphs">gpseudotime</text>
  </g>
  <polyline points="559.39,130.86 648.52,130.86 648.44,130.86 648.78,130.84 649.12,130.77 649.45,130.65 649.75,130.47 650.02,130.26 650.25,129.99 650.44,129.70 650.57,129.38 650.66,129.04 650.68,128.70 650.68,128.70 650.68,118.94 650.68,118.94 650.66,118.60 650.57,118.26 650.44,117.94 650.25,117.64 650.02,117.38 649.75,117.16 649.45,116.99 649.12,116.87 648.78,116.80 648.52,116.78 559.39,116.78 559.65,116.80 559.31,116.78 558.96,116.83 558.63,116.92 558.31,117.07 558.03,117.27 557.78,117.51 557.57,117.79 557.41,118.10 557.30,118.43 557.24,118.77 557.23,118.94 557.23,128.70 557.24,128.52 557.24,128.87 557.30,129.21 557.41,129.54 557.57,129.85 557.78,130.13 558.03,130.37 558.31,130.57 558.63,130.72 558.96,130.81 559.31,130.86 " style="stroke-width: 0.53; stroke: #FF8821; fill: #FFFFFF;" clip-path="url(#cpNi45NzM4NXw3MTMuMDI2fDI4MS4yMjd8Ni45NzM4NQ==)"/>
  <g clip-path="url(#cpNi45NzM4NXw3MTMuMDI2fDI4MS4yMjd8Ni45NzM4NQ==)">
    <text x="560.83" y="127.26" style="font-size: 9.96px; fill: #FF8821; font-family: Liberation Sans;" textLength="86.25px" lengthAdjust="spacingAndGlyphs">WADDINGTON-OT</text>
  </g>
  <polyline points="568.14,106.14 590.94,106.14 590.85,106.14 591.20,106.12 591.54,106.05 591.87,105.93 592.17,105.76 592.44,105.54 592.67,105.28 592.85,104.98 592.99,104.66 593.07,104.33 593.10,103.98 593.10,103.98 593.10,94.22 593.10,94.22 593.07,93.88 592.99,93.54 592.85,93.22 592.67,92.93 592.44,92.67 592.17,92.45 591.87,92.27 591.54,92.15 591.20,92.08 590.94,92.06 568.14,92.06 568.40,92.08 568.06,92.07 567.71,92.11 567.38,92.20 567.06,92.35 566.78,92.55 566.53,92.79 566.32,93.07 566.16,93.38 566.05,93.71 565.99,94.05 565.98,94.22 565.98,103.98 565.99,103.81 565.99,104.15 566.05,104.50 566.16,104.83 566.32,105.13 566.53,105.41 566.78,105.65 567.06,105.85 567.38,106.00 567.71,106.10 568.06,106.14 " style="stroke-width: 0.53; stroke: #CFBF00; fill: #FFFFFF;" clip-path="url(#cpNi45NzM4NXw3MTMuMDI2fDI4MS4yMjd8Ni45NzM4NQ==)"/>
  <g clip-path="url(#cpNi45NzM4NXw3MTMuMDI2fDI4MS4yMjd8Ni45NzM4NQ==)">
    <text x="569.58" y="102.54" style="font-size: 9.96px; fill: #CFBF00; font-family: Liberation Sans;" textLength="19.92px" lengthAdjust="spacingAndGlyphs">PBA</text>
  </g>
  <polyline points="615.73,194.25 645.16,194.25 645.07,194.25 645.42,194.23 645.76,194.16 646.09,194.04 646.39,193.87 646.66,193.65 646.89,193.39 647.07,193.09 647.21,192.77 647.29,192.44 647.32,192.09 647.32,192.09 647.32,182.33 647.32,182.33 647.29,181.99 647.21,181.65 647.07,181.33 646.89,181.04 646.66,180.78 646.39,180.56 646.09,180.38 645.76,180.26 645.42,180.19 645.16,180.17 615.73,180.17 615.99,180.19 615.64,180.18 615.30,180.22 614.96,180.31 614.65,180.46 614.36,180.66 614.11,180.90 613.90,181.18 613.74,181.49 613.63,181.82 613.58,182.16 613.57,182.33 613.57,192.09 613.58,191.92 613.58,192.26 613.63,192.61 613.74,192.94 613.90,193.24 614.11,193.52 614.36,193.76 614.65,193.96 614.96,194.11 615.30,194.21 615.64,194.25 " style="stroke-width: 0.53; stroke: #AF0DC7; fill: #FFFFFF;" clip-path="url(#cpNi45NzM4NXw3MTMuMDI2fDI4MS4yMjd8Ni45NzM4NQ==)"/>
  <g clip-path="url(#cpNi45NzM4NXw3MTMuMDI2fDI4MS4yMjd8Ni45NzM4NQ==)">
    <text x="617.17" y="190.65" style="font-size: 9.96px; fill: #AF0DC7; font-family: Liberation Sans;" textLength="26.55px" lengthAdjust="spacingAndGlyphs">iCpSc</text>
  </g>
  <polyline points="638.75,239.94 677.59,239.94 677.51,239.94 677.85,239.92 678.19,239.85 678.52,239.73 678.82,239.56 679.09,239.34 679.32,239.08 679.51,238.78 679.64,238.46 679.73,238.12 679.75,237.78 679.75,237.78 679.75,228.02 679.75,228.02 679.73,227.68 679.64,227.34 679.51,227.02 679.32,226.72 679.09,226.46 678.82,226.24 678.52,226.07 678.19,225.95 677.85,225.88 677.59,225.86 638.75,225.86 639.01,225.88 638.66,225.86 638.32,225.91 637.98,226.00 637.67,226.15 637.38,226.35 637.13,226.59 636.92,226.87 636.76,227.18 636.65,227.51 636.60,227.85 636.59,228.02 636.59,237.78 636.60,237.60 636.60,237.95 636.65,238.29 636.76,238.62 636.92,238.93 637.13,239.21 637.38,239.45 637.67,239.65 637.98,239.80 638.32,239.89 638.66,239.94 " style="stroke-width: 0.53; stroke: #5ECD2E; fill: #FFFFFF;" clip-path="url(#cpNi45NzM4NXw3MTMuMDI2fDI4MS4yMjd8Ni45NzM4NQ==)"/>
  <g clip-path="url(#cpNi45NzM4NXw3MTMuMDI2fDI4MS4yMjd8Ni45NzM4NQ==)">
    <text x="640.19" y="236.34" style="font-size: 9.96px; fill: #5ECD2E; font-family: Liberation Sans;" textLength="35.96px" lengthAdjust="spacingAndGlyphs">scEpath</text>
  </g>
  <polyline points="377.90,231.28 414.52,231.28 414.43,231.28 414.78,231.27 415.12,231.20 415.44,231.07 415.74,230.90 416.01,230.68 416.24,230.42 416.43,230.13 416.57,229.81 416.65,229.47 416.68,229.12 416.68,229.12 416.68,219.37 416.68,219.37 416.65,219.02 416.57,218.68 416.43,218.36 416.24,218.07 416.01,217.81 415.74,217.59 415.44,217.42 415.12,217.29 414.78,217.22 414.52,217.21 377.90,217.21 378.16,217.22 377.82,217.21 377.47,217.25 377.14,217.35 376.82,217.50 376.54,217.69 376.29,217.93 376.08,218.21 375.92,218.52 375.81,218.85 375.75,219.19 375.74,219.37 375.74,229.12 375.75,228.95 375.75,229.30 375.81,229.64 375.92,229.97 376.08,230.28 376.29,230.55 376.54,230.79 376.82,230.99 377.14,231.14 377.47,231.24 377.82,231.28 " style="stroke-width: 0.53; stroke: #5ECD2E; fill: #FFFFFF;" clip-path="url(#cpNi45NzM4NXw3MTMuMDI2fDI4MS4yMjd8Ni45NzM4NQ==)"/>
  <g clip-path="url(#cpNi45NzM4NXw3MTMuMDI2fDI4MS4yMjd8Ni45NzM4NQ==)">
    <text x="379.34" y="227.68" style="font-size: 9.96px; fill: #5ECD2E; font-family: Liberation Sans;" textLength="33.73px" lengthAdjust="spacingAndGlyphs">TSCAN</text>
  </g>
  <polyline points="326.31,228.17 365.14,228.17 365.05,228.16 365.40,228.15 365.74,228.08 366.07,227.96 366.37,227.78 366.64,227.56 366.87,227.30 367.05,227.01 367.19,226.69 367.27,226.35 367.30,226.01 367.30,226.01 367.30,216.25 367.30,216.25 367.27,215.90 367.19,215.57 367.05,215.25 366.87,214.95 366.64,214.69 366.37,214.47 366.07,214.30 365.74,214.18 365.40,214.11 365.14,214.09 326.31,214.09 326.57,214.11 326.22,214.09 325.87,214.13 325.54,214.23 325.23,214.38 324.94,214.58 324.69,214.82 324.48,215.10 324.32,215.40 324.21,215.73 324.15,216.08 324.15,216.25 324.15,226.01 324.15,225.83 324.15,226.18 324.21,226.52 324.32,226.85 324.48,227.16 324.69,227.44 324.94,227.68 325.23,227.88 325.54,228.03 325.87,228.12 326.22,228.16 " style="stroke-width: 0.53; stroke: #5ECD2E; fill: #FFFFFF;" clip-path="url(#cpNi45NzM4NXw3MTMuMDI2fDI4MS4yMjd8Ni45NzM4NQ==)"/>
  <g clip-path="url(#cpNi45NzM4NXw3MTMuMDI2fDI4MS4yMjd8Ni45NzM4NQ==)">
    <text x="327.75" y="224.57" style="font-size: 9.96px; fill: #5ECD2E; font-family: Liberation Sans;" textLength="35.95px" lengthAdjust="spacingAndGlyphs">ECLAIR</text>
  </g>
  <polyline points="372.95,253.81 399.61,253.81 399.52,253.81 399.87,253.80 400.21,253.73 400.54,253.60 400.84,253.43 401.11,253.21 401.34,252.95 401.52,252.66 401.66,252.34 401.74,252.00 401.77,251.65 401.77,251.65 401.77,241.90 401.77,241.90 401.74,241.55 401.66,241.21 401.52,240.89 401.34,240.60 401.11,240.34 400.84,240.12 400.54,239.95 400.21,239.82 399.87,239.75 399.61,239.74 372.95,239.74 373.21,239.75 372.86,239.74 372.51,239.78 372.18,239.88 371.87,240.03 371.58,240.22 371.33,240.47 371.12,240.74 370.96,241.05 370.85,241.38 370.79,241.72 370.79,241.90 370.79,251.65 370.79,251.48 370.79,251.83 370.85,252.17 370.96,252.50 371.12,252.81 371.33,253.09 371.58,253.33 371.87,253.52 372.18,253.67 372.51,253.77 372.86,253.81 " style="stroke-width: 0.53; stroke: #AF0DC7; fill: #FFFFFF;" clip-path="url(#cpNi45NzM4NXw3MTMuMDI2fDI4MS4yMjd8Ni45NzM4NQ==)"/>
  <g clip-path="url(#cpNi45NzM4NXw3MTMuMDI2fDI4MS4yMjd8Ni45NzM4NQ==)">
    <text x="374.39" y="250.21" style="font-size: 9.96px; fill: #AF0DC7; font-family: Liberation Sans;" textLength="23.78px" lengthAdjust="spacingAndGlyphs">SCell</text>
  </g>
  <polyline points="543.54,173.16 595.68,173.16 595.59,173.16 595.94,173.14 596.28,173.07 596.60,172.95 596.90,172.78 597.17,172.56 597.40,172.30 597.59,172.00 597.73,171.68 597.81,171.34 597.84,171.00 597.84,171.00 597.84,161.24 597.84,161.24 597.81,160.90 597.73,160.56 597.59,160.24 597.40,159.95 597.17,159.69 596.90,159.47 596.60,159.29 596.28,159.17 595.94,159.10 595.68,159.08 543.54,159.08 543.80,159.10 543.46,159.08 543.11,159.13 542.78,159.22 542.46,159.37 542.18,159.57 541.93,159.81 541.72,160.09 541.56,160.40 541.44,160.73 541.39,161.07 541.38,161.24 541.38,171.00 541.39,170.82 541.39,171.17 541.44,171.52 541.56,171.84 541.72,172.15 541.93,172.43 542.18,172.67 542.46,172.87 542.78,173.02 543.11,173.11 543.46,173.16 " style="stroke-width: 0.53; stroke: #AF0DC7; fill: #FFFFFF;" clip-path="url(#cpNi45NzM4NXw3MTMuMDI2fDI4MS4yMjd8Ni45NzM4NQ==)"/>
  <g clip-path="url(#cpNi45NzM4NXw3MTMuMDI2fDI4MS4yMjd8Ni45NzM4NQ==)">
    <text x="544.98" y="169.56" style="font-size: 9.96px; fill: #AF0DC7; font-family: Liberation Sans;" textLength="49.26px" lengthAdjust="spacingAndGlyphs">PhenoPath</text>
  </g>
  <polyline points="525.93,247.60 558.67,247.60 558.58,247.60 558.93,247.59 559.27,247.52 559.59,247.39 559.89,247.22 560.16,247.00 560.39,246.74 560.58,246.45 560.72,246.13 560.80,245.79 560.83,245.44 560.83,245.44 560.83,235.69 560.83,235.69 560.80,235.34 560.72,235.00 560.58,234.68 560.39,234.39 560.16,234.13 559.89,233.91 559.59,233.74 559.27,233.61 558.93,233.54 558.67,233.53 525.93,233.53 526.19,233.54 525.84,233.53 525.49,233.57 525.16,233.67 524.85,233.82 524.56,234.02 524.31,234.26 524.10,234.53 523.94,234.84 523.83,235.17 523.77,235.51 523.77,235.69 523.77,245.44 523.77,245.27 523.77,245.62 523.83,245.96 523.94,246.29 524.10,246.60 524.31,246.88 524.56,247.12 524.85,247.31 525.16,247.46 525.49,247.56 525.84,247.60 " style="stroke-width: 0.53; stroke: #AF0DC7; fill: #FFFFFF;" clip-path="url(#cpNi45NzM4NXw3MTMuMDI2fDI4MS4yMjd8Ni45NzM4NQ==)"/>
  <g clip-path="url(#cpNi45NzM4NXw3MTMuMDI2fDI4MS4yMjd8Ni45NzM4NQ==)">
    <text x="527.37" y="244.00" style="font-size: 9.96px; fill: #AF0DC7; font-family: Liberation Sans;" textLength="29.86px" lengthAdjust="spacingAndGlyphs">scTDA</text>
  </g>
  <polyline points="583.81,270.69 651.42,270.69 651.34,270.68 651.68,270.67 652.02,270.60 652.35,270.48 652.65,270.30 652.92,270.08 653.15,269.82 653.34,269.53 653.47,269.21 653.55,268.87 653.58,268.53 653.58,268.53 653.58,258.77 653.58,258.77 653.55,258.42 653.47,258.09 653.34,257.77 653.15,257.47 652.92,257.21 652.65,256.99 652.35,256.82 652.02,256.70 651.68,256.63 651.42,256.61 583.81,256.61 584.07,256.63 583.72,256.61 583.38,256.65 583.04,256.75 582.73,256.90 582.44,257.10 582.19,257.34 581.98,257.62 581.82,257.92 581.71,258.25 581.66,258.60 581.65,258.77 581.65,268.53 581.66,268.35 581.66,268.70 581.71,269.04 581.82,269.37 581.98,269.68 582.19,269.96 582.44,270.20 582.73,270.40 583.04,270.54 583.38,270.64 583.72,270.68 " style="stroke-width: 0.53; stroke: #AF0DC7; fill: #FFFFFF;" clip-path="url(#cpNi45NzM4NXw3MTMuMDI2fDI4MS4yMjd8Ni45NzM4NQ==)"/>
  <g clip-path="url(#cpNi45NzM4NXw3MTMuMDI2fDI4MS4yMjd8Ni45NzM4NQ==)">
    <text x="585.25" y="267.09" style="font-size: 9.96px; fill: #AF0DC7; font-family: Liberation Sans;" textLength="64.73px" lengthAdjust="spacingAndGlyphs">GPseudoRank</text>
  </g>
  <polyline points="400.12,128.78 426.24,128.78 426.15,128.78 426.50,128.76 426.84,128.69 427.16,128.57 427.46,128.40 427.73,128.18 427.96,127.92 428.15,127.62 428.28,127.30 428.37,126.96 428.40,126.62 428.40,126.62 428.40,116.86 428.40,116.86 428.37,116.52 428.28,116.18 428.15,115.86 427.96,115.56 427.73,115.30 427.46,115.08 427.16,114.91 426.84,114.79 426.50,114.72 426.24,114.70 400.12,114.70 400.38,114.72 400.03,114.70 399.69,114.75 399.35,114.84 399.04,114.99 398.75,115.19 398.50,115.43 398.30,115.71 398.13,116.02 398.02,116.35 397.97,116.69 397.96,116.86 397.96,126.62 397.97,126.44 397.97,126.79 398.02,127.13 398.13,127.46 398.30,127.77 398.50,128.05 398.75,128.29 399.04,128.49 399.35,128.64 399.69,128.73 400.03,128.78 " style="stroke-width: 0.53; stroke: #AF0DC7; fill: #FFFFFF;" clip-path="url(#cpNi45NzM4NXw3MTMuMDI2fDI4MS4yMjd8Ni45NzM4NQ==)"/>
  <g clip-path="url(#cpNi45NzM4NXw3MTMuMDI2fDI4MS4yMjd8Ni45NzM4NQ==)">
    <text x="401.56" y="125.18" style="font-size: 9.96px; fill: #AF0DC7; font-family: Liberation Sans;" textLength="23.24px" lengthAdjust="spacingAndGlyphs">Ouija</text>
  </g>
  <polyline points="276.64,254.74 318.80,254.74 318.71,254.74 319.06,254.73 319.40,254.66 319.72,254.53 320.03,254.36 320.29,254.14 320.53,253.88 320.71,253.59 320.85,253.27 320.93,252.93 320.96,252.58 320.96,252.58 320.96,242.83 320.96,242.83 320.93,242.48 320.85,242.14 320.71,241.82 320.53,241.53 320.29,241.27 320.03,241.05 319.72,240.88 319.40,240.75 319.06,240.68 318.80,240.67 276.64,240.67 276.90,240.68 276.55,240.67 276.20,240.71 275.87,240.81 275.56,240.96 275.27,241.16 275.02,241.40 274.81,241.67 274.65,241.98 274.54,242.31 274.48,242.65 274.48,242.83 274.48,252.58 274.48,252.41 274.48,252.76 274.54,253.10 274.65,253.43 274.81,253.74 275.02,254.02 275.27,254.26 275.56,254.45 275.87,254.60 276.20,254.70 276.55,254.74 " style="stroke-width: 0.53; stroke: #AF0DC7; fill: #FFFFFF;" clip-path="url(#cpNi45NzM4NXw3MTMuMDI2fDI4MS4yMjd8Ni45NzM4NQ==)"/>
  <g clip-path="url(#cpNi45NzM4NXw3MTMuMDI2fDI4MS4yMjd8Ni45NzM4NQ==)">
    <text x="278.08" y="251.14" style="font-size: 9.96px; fill: #AF0DC7; font-family: Liberation Sans;" textLength="39.28px" lengthAdjust="spacingAndGlyphs">embeddr</text>
  </g>
  <polyline points="511.85,151.65 551.23,151.65 551.14,151.65 551.49,151.64 551.83,151.57 552.15,151.44 552.45,151.27 552.72,151.05 552.95,150.79 553.14,150.49 553.27,150.17 553.36,149.84 553.39,149.49 553.39,149.49 553.39,139.74 553.39,139.74 553.36,139.39 553.27,139.05 553.14,138.73 552.95,138.44 552.72,138.18 552.45,137.96 552.15,137.78 551.83,137.66 551.49,137.59 551.23,137.58 511.85,137.58 512.11,137.59 511.76,137.58 511.42,137.62 511.08,137.72 510.77,137.87 510.48,138.06 510.23,138.30 510.02,138.58 509.86,138.89 509.75,139.22 509.69,139.56 509.69,139.74 509.69,149.49 509.69,149.32 509.69,149.66 509.75,150.01 509.86,150.34 510.02,150.65 510.23,150.92 510.48,151.16 510.77,151.36 511.08,151.51 511.42,151.61 511.76,151.65 " style="stroke-width: 0.53; stroke: #5ECD2E; fill: #FFFFFF;" clip-path="url(#cpNi45NzM4NXw3MTMuMDI2fDI4MS4yMjd8Ni45NzM4NQ==)"/>
  <g clip-path="url(#cpNi45NzM4NXw3MTMuMDI2fDI4MS4yMjd8Ni45NzM4NQ==)">
    <text x="513.29" y="148.05" style="font-size: 9.96px; fill: #5ECD2E; font-family: Liberation Sans;" textLength="36.50px" lengthAdjust="spacingAndGlyphs">SOMSC</text>
  </g>
  <polyline points="59.22,270.90 112.44,270.90 112.35,270.90 112.70,270.89 113.04,270.82 113.37,270.69 113.67,270.52 113.94,270.30 114.17,270.04 114.35,269.75 114.49,269.43 114.57,269.09 114.60,268.74 114.60,268.74 114.60,258.99 114.60,258.99 114.57,258.64 114.49,258.30 114.35,257.98 114.17,257.69 113.94,257.43 113.67,257.21 113.37,257.04 113.04,256.91 112.70,256.84 112.44,256.83 59.22,256.83 59.48,256.84 59.13,256.83 58.79,256.87 58.46,256.97 58.14,257.12 57.86,257.31 57.60,257.56 57.40,257.83 57.23,258.14 57.12,258.47 57.07,258.81 57.06,258.99 57.06,268.74 57.07,268.57 57.07,268.92 57.12,269.26 57.23,269.59 57.40,269.90 57.60,270.18 57.86,270.42 58.14,270.61 58.46,270.76 58.79,270.86 59.13,270.90 " style="stroke-width: 0.53; stroke: #AF0DC7; fill: #FFFFFF;" clip-path="url(#cpNi45NzM4NXw3MTMuMDI2fDI4MS4yMjd8Ni45NzM4NQ==)"/>
  <g clip-path="url(#cpNi45NzM4NXw3MTMuMDI2fDI4MS4yMjd8Ni45NzM4NQ==)">
    <text x="60.66" y="267.30" style="font-size: 9.96px; fill: #AF0DC7; font-family: Liberation Sans;" textLength="50.34px" lengthAdjust="spacingAndGlyphs">Wanderlust</text>
  </g>
  <polyline points="538.60,229.20 590.69,229.20 590.60,229.20 590.95,229.18 591.29,229.11 591.62,228.99 591.92,228.82 592.19,228.60 592.42,228.34 592.60,228.04 592.74,227.72 592.82,227.38 592.85,227.04 592.85,227.04 592.85,217.28 592.85,217.28 592.82,216.94 592.74,216.60 592.60,216.28 592.42,215.99 592.19,215.73 591.92,215.51 591.62,215.33 591.29,215.21 590.95,215.14 590.69,215.12 538.60,215.12 538.86,215.14 538.51,215.13 538.17,215.17 537.83,215.26 537.52,215.41 537.23,215.61 536.98,215.85 536.77,216.13 536.61,216.44 536.50,216.77 536.45,217.11 536.44,217.28 536.44,227.04 536.45,226.86 536.45,227.21 536.50,227.56 536.61,227.89 536.77,228.19 536.98,228.47 537.23,228.71 537.52,228.91 537.83,229.06 538.17,229.15 538.51,229.20 " style="stroke-width: 0.53; stroke: #AF0DC7; fill: #FFFFFF;" clip-path="url(#cpNi45NzM4NXw3MTMuMDI2fDI4MS4yMjd8Ni45NzM4NQ==)"/>
  <g clip-path="url(#cpNi45NzM4NXw3MTMuMDI2fDI4MS4yMjd8Ni45NzM4NQ==)">
    <text x="540.04" y="225.60" style="font-size: 9.96px; fill: #AF0DC7; font-family: Liberation Sans;" textLength="49.21px" lengthAdjust="spacingAndGlyphs">MATCHER</text>
  </g>
  <defs>
    <clipPath id="cpMHw3MjB8MzI0fDA=">
      <rect x="0.00" y="0.00" width="720.00" height="324.00"/>
    </clipPath>
  </defs>
  <polyline points="6.97,281.23 713.03,281.23 " style="stroke-width: 1.07; stroke-linecap: square;" clip-path="url(#cpMHw3MjB8MzI0fDA=)"/>
  <polyline points="39.07,284.71 39.07,281.23 " style="stroke-width: 1.07; stroke-linecap: butt;" clip-path="url(#cpMHw3MjB8MzI0fDA=)"/>
  <polyline points="190.12,284.71 190.12,281.23 " style="stroke-width: 1.07; stroke-linecap: butt;" clip-path="url(#cpMHw3MjB8MzI0fDA=)"/>
  <polyline points="341.17,284.71 341.17,281.23 " style="stroke-width: 1.07; stroke-linecap: butt;" clip-path="url(#cpMHw3MjB8MzI0fDA=)"/>
  <polyline points="492.64,284.71 492.64,281.23 " style="stroke-width: 1.07; stroke-linecap: butt;" clip-path="url(#cpMHw3MjB8MzI0fDA=)"/>
  <polyline points="643.69,284.71 643.69,281.23 " style="stroke-width: 1.07; stroke-linecap: butt;" clip-path="url(#cpMHw3MjB8MzI0fDA=)"/>
  <g clip-path="url(#cpMHw3MjB8MzI0fDA=)">
    <text x="25.72" y="295.95" style="font-size: 12.00px; font-family: Liberation Sans;" textLength="26.70px" lengthAdjust="spacingAndGlyphs">2014</text>
  </g>
  <g clip-path="url(#cpMHw3MjB8MzI0fDA=)">
    <text x="176.77" y="295.95" style="font-size: 12.00px; font-family: Liberation Sans;" textLength="26.70px" lengthAdjust="spacingAndGlyphs">2015</text>
  </g>
  <g clip-path="url(#cpMHw3MjB8MzI0fDA=)">
    <text x="327.82" y="295.95" style="font-size: 12.00px; font-family: Liberation Sans;" textLength="26.70px" lengthAdjust="spacingAndGlyphs">2016</text>
  </g>
  <g clip-path="url(#cpMHw3MjB8MzI0fDA=)">
    <text x="479.29" y="295.95" style="font-size: 12.00px; font-family: Liberation Sans;" textLength="26.70px" lengthAdjust="spacingAndGlyphs">2017</text>
  </g>
  <g clip-path="url(#cpMHw3MjB8MzI0fDA=)">
    <text x="630.34" y="295.95" style="font-size: 12.00px; font-family: Liberation Sans;" textLength="26.70px" lengthAdjust="spacingAndGlyphs">2018</text>
  </g>
  <g clip-path="url(#cpMHw3MjB8MzI0fDA=)">
    <text x="312.13" y="312.80" style="font-size: 14.00px; font-family: Liberation Sans;" textLength="95.74px" lengthAdjust="spacingAndGlyphs">Publishing date</text>
  </g>
</svg>
