<?xml version="1.0" encoding="UTF-8"?>
<svg xmlns="http://www.w3.org/2000/svg" xmlns:xlink="http://www.w3.org/1999/xlink" viewBox="0 0 720.00 324.00">
  <defs>
    <style type="text/css"><![CDATA[
    line, polyline, path, rect, circle {
      fill: none;
      stroke: #000000;
      stroke-linecap: round;
      stroke-linejoin: round;
      stroke-miterlimit: 10.00;
    }
  ]]></style>
  </defs>
  <line x1="416.08" y1="158.09" x2="416.08" y2="281.23" style="stroke-width: 1.07; stroke: #5ECD2E;" clip-path="url(#cpNi45NzM4NXw3MTMuMDI2fDI4MS4yMjd8Ni45NzM4NQ==)"/>
  <line x1="579.54" y1="181.31" x2="579.54" y2="281.23" style="stroke-width: 1.07; stroke: #CFBF00;" clip-path="url(#cpNi45NzM4NXw3MTMuMDI2fDI4MS4yMjd8Ni45NzM4NQ==)"/>
  <line x1="580.37" y1="230.71" x2="580.37" y2="281.23" style="stroke-width: 1.07; stroke: #0073D7;" clip-path="url(#cpNi45NzM4NXw3MTMuMDI2fDI4MS4yMjd8Ni45NzM4NQ==)"/>
  <line x1="296.48" y1="255.66" x2="296.48" y2="281.23" style="stroke-width: 1.07; stroke: #AF0DC7;" clip-path="url(#cpNi45NzM4NXw3MTMuMDI2fDI4MS4yMjd8Ni45NzM4NQ==)"/>
  <line x1="630.44" y1="274.96" x2="630.44" y2="281.23" style="stroke-width: 1.07; stroke: #AF0DC7;" clip-path="url(#cpNi45NzM4NXw3MTMuMDI2fDI4MS4yMjd8Ni45NzM4NQ==)"/>
  <line x1="380.49" y1="252.68" x2="380.49" y2="281.23" style="stroke-width: 1.07; stroke: #AF0DC7;" clip-path="url(#cpNi45NzM4NXw3MTMuMDI2fDI4MS4yMjd8Ni45NzM4NQ==)"/>
  <line x1="522.85" y1="231.01" x2="522.85" y2="281.22" style="stroke-width: 1.07; stroke: #CFBF00;" clip-path="url(#cpNi45NzM4NXw3MTMuMDI2fDI4MS4yMjd8Ni45NzM4NQ==)"/>
  <line x1="616.37" y1="235.52" x2="616.37" y2="281.22" style="stroke-width: 1.07; stroke: #FF4237;" clip-path="url(#cpNi45NzM4NXw3MTMuMDI2fDI4MS4yMjd8Ni45NzM4NQ==)"/>
  <line x1="466.56" y1="252.52" x2="466.56" y2="281.22" style="stroke-width: 1.07; stroke: #AF0DC7;" clip-path="url(#cpNi45NzM4NXw3MTMuMDI2fDI4MS4yMjd8Ni45NzM4NQ==)"/>
  <line x1="517.88" y1="265.27" x2="517.88" y2="281.22" style="stroke-width: 1.07; stroke: #CFBF00;" clip-path="url(#cpNi45NzM4NXw3MTMuMDI2fDI4MS4yMjd8Ni45NzM4NQ==)"/>
  <line x1="656.10" y1="252.39" x2="656.10" y2="281.22" style="stroke-width: 1.07; stroke: #FF8821;" clip-path="url(#cpNi45NzM4NXw3MTMuMDI2fDI4MS4yMjd8Ni45NzM4NQ==)"/>
  <line x1="255.51" y1="276.93" x2="255.51" y2="281.22" style="stroke-width: 1.07; stroke: #AF0DC7;" clip-path="url(#cpNi45NzM4NXw3MTMuMDI2fDI4MS4yMjd8Ni45NzM4NQ==)"/>
  <line x1="457.05" y1="228.89" x2="457.05" y2="281.22" style="stroke-width: 1.07; stroke: #AF0DC7;" clip-path="url(#cpNi45NzM4NXw3MTMuMDI2fDI4MS4yMjd8Ni45NzM4NQ==)"/>
  <line x1="514.16" y1="184.59" x2="514.16" y2="281.22" style="stroke-width: 1.07; stroke: #5ECD2E;" clip-path="url(#cpNi45NzM4NXw3MTMuMDI2fDI4MS4yMjd8Ni45NzM4NQ==)"/>
  <line x1="396.21" y1="223.12" x2="396.21" y2="281.22" style="stroke-width: 1.07; stroke: #5ECD2E;" clip-path="url(#cpNi45NzM4NXw3MTMuMDI2fDI4MS4yMjd8Ni45NzM4NQ==)"/>
  <line x1="410.70" y1="113.75" x2="410.70" y2="281.22" style="stroke-width: 1.07; stroke: #AF0DC7;" clip-path="url(#cpNi45NzM4NXw3MTMuMDI2fDI4MS4yMjd8Ni45NzM4NQ==)"/>
  <line x1="562.99" y1="208.23" x2="562.99" y2="281.22" style="stroke-width: 1.07; stroke: #5ECD2E;" clip-path="url(#cpNi45NzM4NXw3MTMuMDI2fDI4MS4yMjd8Ni45NzM4NQ==)"/>
  <line x1="356.90" y1="273.77" x2="356.90" y2="281.22" style="stroke-width: 1.07; stroke: #0073D7;" clip-path="url(#cpNi45NzM4NXw3MTMuMDI2fDI4MS4yMjd8Ni45NzM4NQ==)"/>
  <line x1="76.31" y1="270.90" x2="76.31" y2="281.22" style="stroke-width: 1.07; stroke: #5ECD2E;" clip-path="url(#cpNi45NzM4NXw3MTMuMDI2fDI4MS4yMjd8Ni45NzM4NQ==)"/>
  <line x1="455.80" y1="135.03" x2="455.80" y2="281.22" style="stroke-width: 1.07; stroke: #AF0DC7;" clip-path="url(#cpNi45NzM4NXw3MTMuMDI2fDI4MS4yMjd8Ni45NzM4NQ==)"/>
  <line x1="562.57" y1="163.75" x2="562.57" y2="281.22" style="stroke-width: 1.07; stroke: #39CCCC;" clip-path="url(#cpNi45NzM4NXw3MTMuMDI2fDI4MS4yMjd8Ni45NzM4NQ==)"/>
  <line x1="513.74" y1="85.40" x2="513.74" y2="281.22" style="stroke-width: 1.07; stroke: #5ECD2E;" clip-path="url(#cpNi45NzM4NXw3MTMuMDI2fDI4MS4yMjd8Ni45NzM4NQ==)"/>
  <line x1="572.09" y1="86.66" x2="572.09" y2="281.22" style="stroke-width: 1.07; stroke: #AF0DC7;" clip-path="url(#cpNi45NzM4NXw3MTMuMDI2fDI4MS4yMjd8Ni45NzM4NQ==)"/>
  <line x1="531.54" y1="143.26" x2="531.54" y2="281.22" style="stroke-width: 1.07; stroke: #5ECD2E;" clip-path="url(#cpNi45NzM4NXw3MTMuMDI2fDI4MS4yMjd8Ni45NzM4NQ==)"/>
  <line x1="542.30" y1="249.69" x2="542.30" y2="281.22" style="stroke-width: 1.07; stroke: #AF0DC7;" clip-path="url(#cpNi45NzM4NXw3MTMuMDI2fDI4MS4yMjd8Ni45NzM4NQ==)"/>
  <line x1="593.20" y1="195.90" x2="593.20" y2="281.22" style="stroke-width: 1.07; stroke: #FF8821;" clip-path="url(#cpNi45NzM4NXw3MTMuMDI2fDI4MS4yMjd8Ni45NzM4NQ==)"/>
  <line x1="659.41" y1="101.98" x2="659.41" y2="281.22" style="stroke-width: 1.07; stroke: #5ECD2E;" clip-path="url(#cpNi45NzM4NXw3MTMuMDI2fDI4MS4yMjd8Ni45NzM4NQ==)"/>
  <line x1="435.94" y1="179.66" x2="435.94" y2="281.22" style="stroke-width: 1.07; stroke: #AF0DC7;" clip-path="url(#cpNi45NzM4NXw3MTMuMDI2fDI4MS4yMjd8Ni45NzM4NQ==)"/>
  <line x1="526.57" y1="125.12" x2="526.57" y2="281.21" style="stroke-width: 1.07; stroke: #5ECD2E;" clip-path="url(#cpNi45NzM4NXw3MTMuMDI2fDI4MS4yMjd8Ni45NzM4NQ==)"/>
  <line x1="386.28" y1="136.16" x2="386.28" y2="281.21" style="stroke-width: 1.07; stroke: #AF0DC7;" clip-path="url(#cpNi45NzM4NXw3MTMuMDI2fDI4MS4yMjd8Ni45NzM4NQ==)"/>
  <line x1="624.24" y1="166.24" x2="624.24" y2="281.21" style="stroke-width: 1.07; stroke: #5ECD2E;" clip-path="url(#cpNi45NzM4NXw3MTMuMDI2fDI4MS4yMjd8Ni45NzM4NQ==)"/>
  <line x1="510.43" y1="164.43" x2="510.43" y2="281.21" style="stroke-width: 1.07; stroke: #AF0DC7;" clip-path="url(#cpNi45NzM4NXw3MTMuMDI2fDI4MS4yMjd8Ni45NzM4NQ==)"/>
  <line x1="658.17" y1="191.28" x2="658.17" y2="281.21" style="stroke-width: 1.07; stroke: #5ECD2E;" clip-path="url(#cpNi45NzM4NXw3MTMuMDI2fDI4MS4yMjd8Ni45NzM4NQ==)"/>
  <line x1="531.12" y1="63.28" x2="531.12" y2="281.21" style="stroke-width: 1.07; stroke: #5ECD2E;" clip-path="url(#cpNi45NzM4NXw3MTMuMDI2fDI4MS4yMjd8Ni45NzM4NQ==)"/>
  <line x1="487.26" y1="277.42" x2="487.26" y2="281.21" style="stroke-width: 1.07; stroke: #5ECD2E;" clip-path="url(#cpNi45NzM4NXw3MTMuMDI2fDI4MS4yMjd8Ni45NzM4NQ==)"/>
  <line x1="485.60" y1="207.40" x2="485.60" y2="281.21" style="stroke-width: 1.07; stroke: #5ECD2E;" clip-path="url(#cpNi45NzM4NXw3MTMuMDI2fDI4MS4yMjd8Ni45NzM4NQ==)"/>
  <line x1="291.51" y1="233.55" x2="291.51" y2="281.21" style="stroke-width: 1.07; stroke: #AF0DC7;" clip-path="url(#cpNi45NzM4NXw3MTMuMDI2fDI4MS4yMjd8Ni45NzM4NQ==)"/>
  <line x1="434.28" y1="92.01" x2="434.28" y2="281.21" style="stroke-width: 1.07; stroke: #5ECD2E;" clip-path="url(#cpNi45NzM4NXw3MTMuMDI2fDI4MS4yMjd8Ni45NzM4NQ==)"/>
  <line x1="382.14" y1="90.72" x2="382.14" y2="281.21" style="stroke-width: 1.07; stroke: #FF8821;" clip-path="url(#cpNi45NzM4NXw3MTMuMDI2fDI4MS4yMjd8Ni45NzM4NQ==)"/>
  <line x1="577.89" y1="66.78" x2="577.89" y2="281.21" style="stroke-width: 1.07; stroke: #AF0DC7;" clip-path="url(#cpNi45NzM4NXw3MTMuMDI2fDI4MS4yMjd8Ni45NzM4NQ==)"/>
  <line x1="569.61" y1="45.43" x2="569.61" y2="281.21" style="stroke-width: 1.07; stroke: #AF0DC7;" clip-path="url(#cpNi45NzM4NXw3MTMuMDI2fDI4MS4yMjd8Ni45NzM4NQ==)"/>
  <line x1="583.68" y1="123.25" x2="583.68" y2="281.21" style="stroke-width: 1.07; stroke: #0073D7;" clip-path="url(#cpNi45NzM4NXw3MTMuMDI2fDI4MS4yMjd8Ni45NzM4NQ==)"/>
  <line x1="631.69" y1="213.76" x2="631.69" y2="281.21" style="stroke-width: 1.07; stroke: #CFBF00;" clip-path="url(#cpNi45NzM4NXw3MTMuMDI2fDI4MS4yMjd8Ni45NzM4NQ==)"/>
  <line x1="200.88" y1="273.87" x2="200.88" y2="281.21" style="stroke-width: 1.07; stroke: #5ECD2E;" clip-path="url(#cpNi45NzM4NXw3MTMuMDI2fDI4MS4yMjd8Ni45NzM4NQ==)"/>
  <line x1="412.35" y1="46.43" x2="412.35" y2="281.21" style="stroke-width: 1.07; stroke: #5ECD2E;" clip-path="url(#cpNi45NzM4NXw3MTMuMDI2fDI4MS4yMjd8Ni45NzM4NQ==)"/>
  <line x1="345.72" y1="230.25" x2="345.72" y2="281.21" style="stroke-width: 1.07; stroke: #5ECD2E;" clip-path="url(#cpNi45NzM4NXw3MTMuMDI2fDI4MS4yMjd8Ni45NzM4NQ==)"/>
  <line x1="603.96" y1="144.28" x2="603.96" y2="281.21" style="stroke-width: 1.07; stroke: #FF8821;" clip-path="url(#cpNi45NzM4NXw3MTMuMDI2fDI4MS4yMjd8Ni45NzM4NQ==)"/>
  <line x1="537.33" y1="42.29" x2="537.33" y2="281.21" style="stroke-width: 1.07; stroke: #5ECD2E;" clip-path="url(#cpNi45NzM4NXw3MTMuMDI2fDI4MS4yMjd8Ni45NzM4NQ==)"/>
  <line x1="554.71" y1="104.42" x2="554.71" y2="281.21" style="stroke-width: 1.07; stroke: #AF0DC7;" clip-path="url(#cpNi45NzM4NXw3MTMuMDI2fDI4MS4yMjd8Ni45NzM4NQ==)"/>
  <line x1="406.97" y1="67.83" x2="406.97" y2="281.20" style="stroke-width: 1.07; stroke: #CFBF00;" clip-path="url(#cpNi45NzM4NXw3MTMuMDI2fDI4MS4yMjd8Ni45NzM4NQ==)"/>
  <line x1="564.64" y1="24.65" x2="564.64" y2="281.20" style="stroke-width: 1.07; stroke: #AF0DC7;" clip-path="url(#cpNi45NzM4NXw3MTMuMDI2fDI4MS4yMjd8Ni45NzM4NQ==)"/>
  <line x1="85.83" y1="249.07" x2="85.83" y2="281.20" style="stroke-width: 1.07; stroke: #AF0DC7;" clip-path="url(#cpNi45NzM4NXw3MTMuMDI2fDI4MS4yMjd8Ni45NzM4NQ==)"/>
  <line x1="189.29" y1="250.68" x2="189.29" y2="281.20" style="stroke-width: 1.07; stroke: #5ECD2E;" clip-path="url(#cpNi45NzM4NXw3MTMuMDI2fDI4MS4yMjd8Ni45NzM4NQ==)"/>
  <line x1="391.66" y1="24.65" x2="391.66" y2="281.20" style="stroke-width: 1.07; stroke: #0073D7;" clip-path="url(#cpNi45NzM4NXw3MTMuMDI2fDI4MS4yMjd8Ni45NzM4NQ==)"/>
  <line x1="617.62" y1="81.29" x2="617.62" y2="281.20" style="stroke-width: 1.07; stroke: #AF0DC7;" clip-path="url(#cpNi45NzM4NXw3MTMuMDI2fDI4MS4yMjd8Ni45NzM4NQ==)"/>
  <line x1="651.96" y1="127.82" x2="651.96" y2="281.20" style="stroke-width: 1.07; stroke: #5ECD2E;" clip-path="url(#cpNi45NzM4NXw3MTMuMDI2fDI4MS4yMjd8Ni45NzM4NQ==)"/>
  <line x1="413.18" y1="273.69" x2="413.18" y2="281.20" style="stroke-width: 1.07; stroke: #AF0DC7;" clip-path="url(#cpNi45NzM4NXw3MTMuMDI2fDI4MS4yMjd8Ni45NzM4NQ==)"/>
  <line x1="297.72" y1="209.50" x2="297.72" y2="281.20" style="stroke-width: 1.07; stroke: #AF0DC7;" clip-path="url(#cpNi45NzM4NXw3MTMuMDI2fDI4MS4yMjd8Ni45NzM4NQ==)"/>
  <defs>
    <clipPath id="cpNi45NzM4NXw3MTMuMDI2fDI4MS4yMjd8Ni45NzM4NQ==">
      <rect x="6.97" y="6.97" width="706.05" height="274.25"/>
    </clipPath>
  </defs>
  <polyline points="276.64,209.50 318.80,209.50 318.71,209.50 319.06,209.49 319.40,209.42 319.72,209.29 320.03,209.12 320.29,208.90 320.53,208.64 320.71,208.35 320.85,208.03 320.93,207.69 320.96,207.34 320.96,207.34 320.96,197.59 320.96,197.59 320.93,197.24 320.85,196.90 320.71,196.58 320.53,196.29 320.29,196.03 320.03,195.81 319.72,195.64 319.40,195.51 319.06,195.44 318.80,195.43 276.64,195.43 276.90,195.44 276.55,195.43 276.20,195.47 275.87,195.57 275.56,195.72 275.27,195.91 275.02,196.15 274.81,196.43 274.65,196.74 274.54,197.07 274.48,197.41 274.48,197.59 274.48,207.34 274.48,207.17 274.48,207.52 274.54,207.86 274.65,208.19 274.81,208.50 275.02,208.77 275.27,209.01 275.56,209.21 275.87,209.36 276.20,209.46 276.55,209.50 " style="stroke-width: 0.53; stroke: #AF0DC7; fill: #FFFFFF;" clip-path="url(#cpNi45NzM4NXw3MTMuMDI2fDI4MS4yMjd8Ni45NzM4NQ==)"/>
  <g clip-path="url(#cpNi45NzM4NXw3MTMuMDI2fDI4MS4yMjd8Ni45NzM4NQ==)">
    <text x="278.08" y="205.90" style="font-size: 9.96px; fill: #AF0DC7; font-family: Liberation Sans;" textLength="39.28px" lengthAdjust="spacingAndGlyphs">embeddr</text>
  </g>
  <polyline points="400.12,273.69 426.24,273.69 426.15,273.69 426.50,273.68 426.84,273.61 427.16,273.48 427.46,273.31 427.73,273.09 427.96,272.83 428.15,272.54 428.28,272.22 428.37,271.88 428.40,271.53 428.40,271.53 428.40,261.78 428.40,261.78 428.37,261.43 428.28,261.09 428.15,260.77 427.96,260.48 427.73,260.22 427.46,260.00 427.16,259.83 426.84,259.70 426.50,259.63 426.24,259.62 400.12,259.62 400.38,259.63 400.03,259.62 399.69,259.66 399.35,259.76 399.04,259.91 398.75,260.10 398.50,260.35 398.30,260.62 398.13,260.93 398.02,261.26 397.97,261.60 397.96,261.78 397.96,271.53 397.97,271.36 397.97,271.71 398.02,272.05 398.13,272.38 398.30,272.69 398.50,272.97 398.75,273.21 399.04,273.40 399.35,273.55 399.69,273.65 400.03,273.69 " style="stroke-width: 0.53; stroke: #AF0DC7; fill: #FFFFFF;" clip-path="url(#cpNi45NzM4NXw3MTMuMDI2fDI4MS4yMjd8Ni45NzM4NQ==)"/>
  <g clip-path="url(#cpNi45NzM4NXw3MTMuMDI2fDI4MS4yMjd8Ni45NzM4NQ==)">
    <text x="401.56" y="270.09" style="font-size: 9.96px; fill: #AF0DC7; font-family: Liberation Sans;" textLength="23.24px" lengthAdjust="spacingAndGlyphs">Ouija</text>
  </g>
  <polyline points="622.03,127.82 681.90,127.82 681.81,127.82 682.16,127.81 682.50,127.74 682.83,127.61 683.13,127.44 683.40,127.22 683.63,126.96 683.81,126.66 683.95,126.35 684.03,126.01 684.06,125.66 684.06,125.66 684.06,115.91 684.06,115.91 684.03,115.56 683.95,115.22 683.81,114.90 683.63,114.61 683.40,114.35 683.13,114.13 682.83,113.95 682.50,113.83 682.16,113.76 681.90,113.75 622.03,113.75 622.29,113.76 621.94,113.75 621.60,113.79 621.26,113.89 620.95,114.04 620.66,114.23 620.41,114.47 620.20,114.75 620.04,115.06 619.93,115.39 619.87,115.73 619.87,115.91 619.87,125.66 619.87,125.49 619.87,125.83 619.93,126.18 620.04,126.51 620.20,126.82 620.41,127.09 620.66,127.33 620.95,127.53 621.26,127.68 621.60,127.78 621.94,127.82 " style="stroke-width: 0.53; stroke: #5ECD2E; fill: #FFFFFF;" clip-path="url(#cpNi45NzM4NXw3MTMuMDI2fDI4MS4yMjd8Ni45NzM4NQ==)"/>
  <g clip-path="url(#cpNi45NzM4NXw3MTMuMDI2fDI4MS4yMjd8Ni45NzM4NQ==)">
    <text x="623.47" y="124.22" style="font-size: 9.96px; fill: #5ECD2E; font-family: Liberation Sans;" textLength="56.99px" lengthAdjust="spacingAndGlyphs">Topographer</text>
  </g>
  <polyline points="583.81,81.29 651.42,81.29 651.34,81.29 651.68,81.28 652.02,81.21 652.35,81.09 652.65,80.91 652.92,80.69 653.15,80.43 653.34,80.14 653.47,79.82 653.55,79.48 653.58,79.13 653.58,79.13 653.58,69.38 653.58,69.38 653.55,69.03 653.47,68.70 653.34,68.38 653.15,68.08 652.92,67.82 652.65,67.60 652.35,67.43 652.02,67.31 651.68,67.24 651.42,67.22 583.81,67.22 584.07,67.24 583.72,67.22 583.38,67.26 583.04,67.36 582.73,67.51 582.44,67.71 582.19,67.95 581.98,68.23 581.82,68.53 581.71,68.86 581.66,69.21 581.65,69.38 581.65,79.13 581.66,78.96 581.66,79.31 581.71,79.65 581.82,79.98 581.98,80.29 582.19,80.57 582.44,80.81 582.73,81.01 583.04,81.15 583.38,81.25 583.72,81.29 " style="stroke-width: 0.53; stroke: #AF0DC7; fill: #FFFFFF;" clip-path="url(#cpNi45NzM4NXw3MTMuMDI2fDI4MS4yMjd8Ni45NzM4NQ==)"/>
  <g clip-path="url(#cpNi45NzM4NXw3MTMuMDI2fDI4MS4yMjd8Ni45NzM4NQ==)">
    <text x="585.25" y="77.69" style="font-size: 9.96px; fill: #AF0DC7; font-family: Liberation Sans;" textLength="64.73px" lengthAdjust="spacingAndGlyphs">GPseudoRank</text>
  </g>
  <polyline points="368.09,24.65 415.23,24.65 415.14,24.65 415.49,24.63 415.83,24.56 416.15,24.44 416.46,24.27 416.72,24.05 416.96,23.79 417.14,23.49 417.28,23.17 417.36,22.84 417.39,22.49 417.39,22.49 417.39,12.73 417.39,12.73 417.36,12.39 417.28,12.05 417.14,11.73 416.96,11.44 416.72,11.18 416.46,10.96 416.15,10.78 415.83,10.66 415.49,10.59 415.23,10.57 368.09,10.57 368.35,10.59 368.00,10.58 367.66,10.62 367.32,10.71 367.01,10.86 366.72,11.06 366.47,11.30 366.26,11.58 366.10,11.89 365.99,12.22 365.94,12.56 365.93,12.73 365.93,22.49 365.94,22.32 365.94,22.66 365.99,23.01 366.10,23.34 366.26,23.64 366.47,23.92 366.72,24.16 367.01,24.36 367.32,24.51 367.66,24.61 368.00,24.65 " style="stroke-width: 0.53; stroke: #0073D7; fill: #FFFFFF;" clip-path="url(#cpNi45NzM4NXw3MTMuMDI2fDI4MS4yMjd8Ni45NzM4NQ==)"/>
  <g clip-path="url(#cpNi45NzM4NXw3MTMuMDI2fDI4MS4yMjd8Ni45NzM4NQ==)">
    <text x="369.53" y="21.05" style="font-size: 9.96px; fill: #0073D7; font-family: Liberation Sans;" textLength="44.26px" lengthAdjust="spacingAndGlyphs">Wishbone</text>
  </g>
  <polyline points="170.71,250.68 207.88,250.68 207.79,250.68 208.14,250.67 208.48,250.60 208.80,250.48 209.10,250.30 209.37,250.08 209.60,249.82 209.79,249.53 209.93,249.21 210.01,248.87 210.04,248.52 210.04,248.52 210.04,238.77 210.04,238.77 210.01,238.42 209.93,238.09 209.79,237.77 209.60,237.47 209.37,237.21 209.10,236.99 208.80,236.82 208.48,236.69 208.14,236.63 207.88,236.61 170.71,236.61 170.97,236.63 170.62,236.61 170.27,236.65 169.94,236.75 169.63,236.90 169.34,237.10 169.09,237.34 168.88,237.61 168.72,237.92 168.61,238.25 168.55,238.60 168.55,238.77 168.55,248.52 168.55,248.35 168.55,248.70 168.61,249.04 168.72,249.37 168.88,249.68 169.09,249.96 169.34,250.20 169.63,250.40 169.94,250.54 170.27,250.64 170.62,250.68 " style="stroke-width: 0.53; stroke: #5ECD2E; fill: #FFFFFF;" clip-path="url(#cpNi45NzM4NXw3MTMuMDI2fDI4MS4yMjd8Ni45NzM4NQ==)"/>
  <g clip-path="url(#cpNi45NzM4NXw3MTMuMDI2fDI4MS4yMjd8Ni45NzM4NQ==)">
    <text x="172.15" y="247.08" style="font-size: 9.96px; fill: #5ECD2E; font-family: Liberation Sans;" textLength="34.29px" lengthAdjust="spacingAndGlyphs">SCUBA</text>
  </g>
  <polyline points="59.22,249.07 112.44,249.07 112.35,249.07 112.70,249.06 113.04,248.99 113.37,248.86 113.67,248.69 113.94,248.47 114.17,248.21 114.35,247.92 114.49,247.60 114.57,247.26 114.60,246.91 114.60,246.91 114.60,237.16 114.60,237.16 114.57,236.81 114.49,236.47 114.35,236.15 114.17,235.86 113.94,235.60 113.67,235.38 113.37,235.21 113.04,235.08 112.70,235.01 112.44,235.00 59.22,235.00 59.48,235.01 59.13,235.00 58.79,235.04 58.46,235.14 58.14,235.29 57.86,235.48 57.60,235.72 57.40,236.00 57.23,236.31 57.12,236.64 57.07,236.98 57.06,237.16 57.06,246.91 57.07,246.74 57.07,247.09 57.12,247.43 57.23,247.76 57.40,248.07 57.60,248.34 57.86,248.59 58.14,248.78 58.46,248.93 58.79,249.03 59.13,249.07 " style="stroke-width: 0.53; stroke: #AF0DC7; fill: #FFFFFF;" clip-path="url(#cpNi45NzM4NXw3MTMuMDI2fDI4MS4yMjd8Ni45NzM4NQ==)"/>
  <g clip-path="url(#cpNi45NzM4NXw3MTMuMDI2fDI4MS4yMjd8Ni45NzM4NQ==)">
    <text x="60.66" y="245.47" style="font-size: 9.96px; fill: #AF0DC7; font-family: Liberation Sans;" textLength="50.34px" lengthAdjust="spacingAndGlyphs">Wanderlust</text>
  </g>
  <polyline points="538.60,24.65 590.69,24.65 590.60,24.65 590.95,24.63 591.29,24.56 591.62,24.44 591.92,24.27 592.19,24.05 592.42,23.79 592.60,23.49 592.74,23.17 592.82,22.84 592.85,22.49 592.85,22.49 592.85,12.73 592.85,12.73 592.82,12.39 592.74,12.05 592.60,11.73 592.42,11.44 592.19,11.18 591.92,10.96 591.62,10.78 591.29,10.66 590.95,10.59 590.69,10.57 538.60,10.57 538.86,10.59 538.51,10.58 538.17,10.62 537.83,10.71 537.52,10.86 537.23,11.06 536.98,11.30 536.77,11.58 536.61,11.89 536.50,12.22 536.45,12.56 536.44,12.73 536.44,22.49 536.45,22.32 536.45,22.66 536.50,23.01 536.61,23.34 536.77,23.64 536.98,23.92 537.23,24.16 537.52,24.36 537.83,24.51 538.17,24.61 538.51,24.65 " style="stroke-width: 0.53; stroke: #AF0DC7; fill: #FFFFFF;" clip-path="url(#cpNi45NzM4NXw3MTMuMDI2fDI4MS4yMjd8Ni45NzM4NQ==)"/>
  <g clip-path="url(#cpNi45NzM4NXw3MTMuMDI2fDI4MS4yMjd8Ni45NzM4NQ==)">
    <text x="540.04" y="21.05" style="font-size: 9.96px; fill: #AF0DC7; font-family: Liberation Sans;" textLength="49.21px" lengthAdjust="spacingAndGlyphs">MATCHER</text>
  </g>
  <polyline points="387.83,67.83 426.11,67.83 426.02,67.83 426.37,67.81 426.71,67.74 427.03,67.62 427.34,67.45 427.60,67.23 427.84,66.97 428.02,66.67 428.16,66.35 428.24,66.01 428.27,65.67 428.27,65.67 428.27,55.91 428.27,55.91 428.24,55.57 428.16,55.23 428.02,54.91 427.84,54.62 427.60,54.35 427.34,54.14 427.03,53.96 426.71,53.84 426.37,53.77 426.11,53.75 387.83,53.75 388.09,53.77 387.75,53.75 387.40,53.80 387.07,53.89 386.75,54.04 386.47,54.24 386.22,54.48 386.01,54.76 385.85,55.07 385.74,55.40 385.68,55.74 385.67,55.91 385.67,65.67 385.68,65.49 385.68,65.84 385.74,66.18 385.85,66.51 386.01,66.82 386.22,67.10 386.47,67.34 386.75,67.54 387.07,67.69 387.40,67.78 387.75,67.83 " style="stroke-width: 0.53; stroke: #CFBF00; fill: #FFFFFF;" clip-path="url(#cpNi45NzM4NXw3MTMuMDI2fDI4MS4yMjd8Ni45NzM4NQ==)"/>
  <g clip-path="url(#cpNi45NzM4NXw3MTMuMDI2fDI4MS4yMjd8Ni45NzM4NQ==)">
    <text x="389.27" y="64.23" style="font-size: 9.96px; fill: #CFBF00; font-family: Liberation Sans;" textLength="35.39px" lengthAdjust="spacingAndGlyphs">SCOUP</text>
  </g>
  <polyline points="532.53,104.42 576.89,104.42 576.80,104.42 577.15,104.40 577.49,104.33 577.81,104.21 578.12,104.04 578.39,103.82 578.62,103.56 578.80,103.26 578.94,102.94 579.02,102.60 579.05,102.26 579.05,102.26 579.05,92.50 579.05,92.50 579.02,92.16 578.94,91.82 578.80,91.50 578.62,91.21 578.39,90.95 578.12,90.73 577.81,90.55 577.49,90.43 577.15,90.36 576.89,90.34 532.53,90.34 532.79,90.36 532.45,90.34 532.10,90.39 531.77,90.48 531.45,90.63 531.17,90.83 530.92,91.07 530.71,91.35 530.55,91.66 530.44,91.99 530.38,92.33 530.37,92.50 530.37,102.26 530.38,102.08 530.38,102.43 530.44,102.77 530.55,103.10 530.71,103.41 530.92,103.69 531.17,103.93 531.45,104.13 531.77,104.28 532.10,104.37 532.45,104.42 " style="stroke-width: 0.53; stroke: #AF0DC7; fill: #FFFFFF;" clip-path="url(#cpNi45NzM4NXw3MTMuMDI2fDI4MS4yMjd8Ni45NzM4NQ==)"/>
  <g clip-path="url(#cpNi45NzM4NXw3MTMuMDI2fDI4MS4yMjd8Ni45NzM4NQ==)">
    <text x="533.97" y="100.82" style="font-size: 9.96px; fill: #AF0DC7; font-family: Liberation Sans;" textLength="41.47px" lengthAdjust="spacingAndGlyphs">UNCURL</text>
  </g>
  <polyline points="516.25,42.29 558.41,42.29 558.32,42.29 558.67,42.28 559.01,42.21 559.34,42.08 559.64,41.91 559.91,41.69 560.14,41.43 560.32,41.14 560.46,40.82 560.54,40.48 560.57,40.13 560.57,40.13 560.57,30.38 560.57,30.38 560.54,30.03 560.46,29.69 560.32,29.37 560.14,29.08 559.91,28.82 559.64,28.60 559.34,28.43 559.01,28.30 558.67,28.23 558.41,28.22 516.25,28.22 516.51,28.23 516.16,28.22 515.82,28.26 515.48,28.36 515.17,28.51 514.88,28.70 514.63,28.95 514.42,29.22 514.26,29.53 514.15,29.86 514.10,30.20 514.09,30.38 514.09,40.13 514.10,39.96 514.10,40.31 514.15,40.65 514.26,40.98 514.42,41.29 514.63,41.56 514.88,41.81 515.17,42.00 515.48,42.15 515.82,42.25 516.16,42.29 " style="stroke-width: 0.53; stroke: #5ECD2E; fill: #FFFFFF;" clip-path="url(#cpNi45NzM4NXw3MTMuMDI2fDI4MS4yMjd8Ni45NzM4NQ==)"/>
  <g clip-path="url(#cpNi45NzM4NXw3MTMuMDI2fDI4MS4yMjd8Ni45NzM4NQ==)">
    <text x="517.69" y="38.69" style="font-size: 9.96px; fill: #5ECD2E; font-family: Liberation Sans;" textLength="39.28px" lengthAdjust="spacingAndGlyphs">slingshot</text>
  </g>
  <polyline points="559.39,144.28 648.52,144.28 648.44,144.28 648.78,144.26 649.12,144.19 649.45,144.07 649.75,143.90 650.02,143.68 650.25,143.42 650.44,143.12 650.57,142.80 650.66,142.47 650.68,142.12 650.68,142.12 650.68,132.37 650.68,132.37 650.66,132.02 650.57,131.68 650.44,131.36 650.25,131.07 650.02,130.81 649.75,130.59 649.45,130.41 649.12,130.29 648.78,130.22 648.52,130.21 559.39,130.21 559.65,130.22 559.31,130.21 558.96,130.25 558.63,130.35 558.31,130.49 558.03,130.69 557.78,130.93 557.57,131.21 557.41,131.52 557.30,131.85 557.24,132.19 557.23,132.37 557.23,142.12 557.24,141.95 557.24,142.29 557.30,142.64 557.41,142.97 557.57,143.27 557.78,143.55 558.03,143.79 558.31,143.99 558.63,144.14 558.96,144.24 559.31,144.28 " style="stroke-width: 0.53; stroke: #FF8821; fill: #FFFFFF;" clip-path="url(#cpNi45NzM4NXw3MTMuMDI2fDI4MS4yMjd8Ni45NzM4NQ==)"/>
  <g clip-path="url(#cpNi45NzM4NXw3MTMuMDI2fDI4MS4yMjd8Ni45NzM4NQ==)">
    <text x="560.83" y="140.68" style="font-size: 9.96px; fill: #FF8821; font-family: Liberation Sans;" textLength="86.25px" lengthAdjust="spacingAndGlyphs">WADDINGTON-OT</text>
  </g>
  <polyline points="326.31,230.25 365.14,230.25 365.05,230.25 365.40,230.23 365.74,230.16 366.07,230.04 366.37,229.87 366.64,229.65 366.87,229.39 367.05,229.09 367.19,228.77 367.27,228.43 367.30,228.09 367.30,228.09 367.30,218.33 367.30,218.33 367.27,217.99 367.19,217.65 367.05,217.33 366.87,217.04 366.64,216.78 366.37,216.56 366.07,216.38 365.74,216.26 365.40,216.19 365.14,216.17 326.31,216.17 326.57,216.19 326.22,216.17 325.87,216.22 325.54,216.31 325.23,216.46 324.94,216.66 324.69,216.90 324.48,217.18 324.32,217.49 324.21,217.82 324.15,218.16 324.15,218.33 324.15,228.09 324.15,227.91 324.15,228.26 324.21,228.61 324.32,228.93 324.48,229.24 324.69,229.52 324.94,229.76 325.23,229.96 325.54,230.11 325.87,230.20 326.22,230.25 " style="stroke-width: 0.53; stroke: #5ECD2E; fill: #FFFFFF;" clip-path="url(#cpNi45NzM4NXw3MTMuMDI2fDI4MS4yMjd8Ni45NzM4NQ==)"/>
  <g clip-path="url(#cpNi45NzM4NXw3MTMuMDI2fDI4MS4yMjd8Ni45NzM4NQ==)">
    <text x="327.75" y="226.65" style="font-size: 9.96px; fill: #5ECD2E; font-family: Liberation Sans;" textLength="35.95px" lengthAdjust="spacingAndGlyphs">ECLAIR</text>
  </g>
  <polyline points="394.32,46.43 430.38,46.43 430.30,46.43 430.64,46.42 430.98,46.35 431.31,46.22 431.61,46.05 431.88,45.83 432.11,45.57 432.30,45.28 432.43,44.96 432.51,44.62 432.54,44.27 432.54,44.27 432.54,34.52 432.54,34.52 432.51,34.17 432.43,33.83 432.30,33.51 432.11,33.22 431.88,32.96 431.61,32.74 431.31,32.57 430.98,32.44 430.64,32.37 430.38,32.36 394.32,32.36 394.58,32.37 394.23,32.36 393.89,32.40 393.55,32.50 393.24,32.65 392.95,32.84 392.70,33.08 392.49,33.36 392.33,33.67 392.22,34.00 392.17,34.34 392.16,34.52 392.16,44.27 392.17,44.10 392.17,44.45 392.22,44.79 392.33,45.12 392.49,45.43 392.70,45.70 392.95,45.95 393.24,46.14 393.55,46.29 393.89,46.39 394.23,46.43 " style="stroke-width: 0.53; stroke: #5ECD2E; fill: #FFFFFF;" clip-path="url(#cpNi45NzM4NXw3MTMuMDI2fDI4MS4yMjd8Ni45NzM4NQ==)"/>
  <g clip-path="url(#cpNi45NzM4NXw3MTMuMDI2fDI4MS4yMjd8Ni45NzM4NQ==)">
    <text x="395.76" y="42.83" style="font-size: 9.96px; fill: #5ECD2E; font-family: Liberation Sans;" textLength="33.18px" lengthAdjust="spacingAndGlyphs">StemID</text>
  </g>
  <polyline points="185.61,273.87 216.15,273.87 216.06,273.87 216.41,273.86 216.75,273.79 217.07,273.67 217.37,273.49 217.64,273.27 217.87,273.01 218.06,272.72 218.20,272.40 218.28,272.06 218.31,271.71 218.31,271.71 218.31,261.96 218.31,261.96 218.28,261.61 218.20,261.28 218.06,260.96 217.87,260.66 217.64,260.40 217.37,260.18 217.07,260.01 216.75,259.89 216.41,259.82 216.15,259.80 185.61,259.80 185.87,259.82 185.52,259.80 185.18,259.84 184.84,259.94 184.53,260.09 184.24,260.29 183.99,260.53 183.78,260.81 183.62,261.11 183.51,261.44 183.46,261.79 183.45,261.96 183.45,271.71 183.46,271.54 183.46,271.89 183.51,272.23 183.62,272.56 183.78,272.87 183.99,273.15 184.24,273.39 184.53,273.59 184.84,273.73 185.18,273.83 185.52,273.87 " style="stroke-width: 0.53; stroke: #5ECD2E; fill: #FFFFFF;" clip-path="url(#cpNi45NzM4NXw3MTMuMDI2fDI4MS4yMjd8Ni45NzM4NQ==)"/>
  <g clip-path="url(#cpNi45NzM4NXw3MTMuMDI2fDI4MS4yMjd8Ni45NzM4NQ==)">
    <text x="187.05" y="270.27" style="font-size: 9.96px; fill: #5ECD2E; font-family: Liberation Sans;" textLength="27.66px" lengthAdjust="spacingAndGlyphs">sincell</text>
  </g>
  <polyline points="607.84,213.76 655.53,213.76 655.44,213.75 655.79,213.74 656.13,213.67 656.45,213.55 656.75,213.37 657.02,213.15 657.25,212.89 657.44,212.60 657.58,212.28 657.66,211.94 657.69,211.60 657.69,211.60 657.69,201.84 657.69,201.84 657.66,201.49 657.58,201.16 657.44,200.84 657.25,200.54 657.02,200.28 656.75,200.06 656.45,199.89 656.13,199.77 655.79,199.70 655.53,199.68 607.84,199.68 608.10,199.70 607.76,199.68 607.41,199.72 607.08,199.82 606.76,199.97 606.48,200.17 606.23,200.41 606.02,200.69 605.86,200.99 605.75,201.32 605.69,201.67 605.68,201.84 605.68,211.60 605.69,211.42 605.69,211.77 605.75,212.11 605.86,212.44 606.02,212.75 606.23,213.03 606.48,213.27 606.76,213.47 607.08,213.62 607.41,213.71 607.76,213.75 " style="stroke-width: 0.53; stroke: #CFBF00; fill: #FFFFFF;" clip-path="url(#cpNi45NzM4NXw3MTMuMDI2fDI4MS4yMjd8Ni45NzM4NQ==)"/>
  <g clip-path="url(#cpNi45NzM4NXw3MTMuMDI2fDI4MS4yMjd8Ni45NzM4NQ==)">
    <text x="609.28" y="210.16" style="font-size: 9.96px; fill: #CFBF00; font-family: Liberation Sans;" textLength="44.80px" lengthAdjust="spacingAndGlyphs">GrandPrix</text>
  </g>
  <polyline points="566.47,123.25 600.89,123.25 600.80,123.25 601.15,123.23 601.49,123.16 601.81,123.04 602.12,122.87 602.38,122.65 602.62,122.39 602.80,122.09 602.94,121.77 603.02,121.43 603.05,121.09 603.05,121.09 603.05,111.33 603.05,111.33 603.02,110.99 602.94,110.65 602.80,110.33 602.62,110.04 602.38,109.78 602.12,109.56 601.81,109.38 601.49,109.26 601.15,109.19 600.89,109.17 566.47,109.17 566.73,109.19 566.39,109.17 566.04,109.22 565.71,109.31 565.39,109.46 565.11,109.66 564.86,109.90 564.65,110.18 564.49,110.49 564.38,110.82 564.32,111.16 564.31,111.33 564.31,121.09 564.32,120.91 564.32,121.26 564.38,121.60 564.49,121.93 564.65,122.24 564.86,122.52 565.11,122.76 565.39,122.96 565.71,123.11 566.04,123.20 566.39,123.25 " style="stroke-width: 0.53; stroke: #0073D7; fill: #FFFFFF;" clip-path="url(#cpNi45NzM4NXw3MTMuMDI2fDI4MS4yMjd8Ni45NzM4NQ==)"/>
  <g clip-path="url(#cpNi45NzM4NXw3MTMuMDI2fDI4MS4yMjd8Ni45NzM4NQ==)">
    <text x="567.91" y="119.65" style="font-size: 9.96px; fill: #0073D7; font-family: Liberation Sans;" textLength="31.54px" lengthAdjust="spacingAndGlyphs">scanpy</text>
  </g>
  <polyline points="543.54,45.43 595.68,45.43 595.59,45.43 595.94,45.42 596.28,45.35 596.60,45.22 596.90,45.05 597.17,44.83 597.40,44.57 597.59,44.28 597.73,43.96 597.81,43.62 597.84,43.27 597.84,43.27 597.84,33.52 597.84,33.52 597.81,33.17 597.73,32.83 597.59,32.51 597.40,32.22 597.17,31.96 596.90,31.74 596.60,31.57 596.28,31.44 595.94,31.37 595.68,31.36 543.54,31.36 543.80,31.37 543.46,31.36 543.11,31.40 542.78,31.50 542.46,31.65 542.18,31.84 541.93,32.09 541.72,32.36 541.56,32.67 541.44,33.00 541.39,33.34 541.38,33.52 541.38,43.27 541.39,43.10 541.39,43.45 541.44,43.79 541.56,44.12 541.72,44.43 541.93,44.71 542.18,44.95 542.46,45.14 542.78,45.29 543.11,45.39 543.46,45.43 " style="stroke-width: 0.53; stroke: #AF0DC7; fill: #FFFFFF;" clip-path="url(#cpNi45NzM4NXw3MTMuMDI2fDI4MS4yMjd8Ni45NzM4NQ==)"/>
  <g clip-path="url(#cpNi45NzM4NXw3MTMuMDI2fDI4MS4yMjd8Ni45NzM4NQ==)">
    <text x="544.98" y="41.83" style="font-size: 9.96px; fill: #AF0DC7; font-family: Liberation Sans;" textLength="49.26px" lengthAdjust="spacingAndGlyphs">PhenoPath</text>
  </g>
  <polyline points="559.30,66.78 596.48,66.78 596.39,66.78 596.74,66.76 597.08,66.70 597.40,66.57 597.70,66.40 597.97,66.18 598.20,65.92 598.39,65.62 598.53,65.30 598.61,64.97 598.64,64.62 598.64,64.62 598.64,54.87 598.64,54.87 598.61,54.52 598.53,54.18 598.39,53.86 598.20,53.57 597.97,53.31 597.70,53.09 597.40,52.91 597.08,52.79 596.74,52.72 596.48,52.71 559.30,52.71 559.56,52.72 559.21,52.71 558.86,52.75 558.53,52.85 558.22,53.00 557.93,53.19 557.68,53.43 557.47,53.71 557.31,54.02 557.20,54.35 557.14,54.69 557.14,54.87 557.14,64.62 557.14,64.45 557.14,64.79 557.20,65.14 557.31,65.47 557.47,65.78 557.68,66.05 557.93,66.29 558.22,66.49 558.53,66.64 558.86,66.74 559.21,66.78 " style="stroke-width: 0.53; stroke: #AF0DC7; fill: #FFFFFF;" clip-path="url(#cpNi45NzM4NXw3MTMuMDI2fDI4MS4yMjd8Ni45NzM4NQ==)"/>
  <g clip-path="url(#cpNi45NzM4NXw3MTMuMDI2fDI4MS4yMjd8Ni45NzM4NQ==)">
    <text x="560.74" y="63.18" style="font-size: 9.96px; fill: #AF0DC7; font-family: Liberation Sans;" textLength="34.30px" lengthAdjust="spacingAndGlyphs">SoptSC</text>
  </g>
  <polyline points="362.72,90.72 401.56,90.72 401.47,90.72 401.82,90.70 402.16,90.63 402.48,90.51 402.78,90.33 403.05,90.11 403.28,89.85 403.47,89.56 403.61,89.24 403.69,88.90 403.72,88.56 403.72,88.56 403.72,78.80 403.72,78.80 403.69,78.46 403.61,78.12 403.47,77.80 403.28,77.50 403.05,77.24 402.78,77.02 402.48,76.85 402.16,76.73 401.82,76.66 401.56,76.64 362.72,76.64 362.98,76.66 362.64,76.64 362.29,76.69 361.96,76.78 361.64,76.93 361.36,77.13 361.11,77.37 360.90,77.65 360.74,77.96 360.63,78.28 360.57,78.63 360.56,78.80 360.56,88.56 360.57,88.38 360.57,88.73 360.63,89.07 360.74,89.40 360.90,89.71 361.11,89.99 361.36,90.23 361.64,90.43 361.96,90.58 362.29,90.67 362.64,90.72 " style="stroke-width: 0.53; stroke: #FF8821; fill: #FFFFFF;" clip-path="url(#cpNi45NzM4NXw3MTMuMDI2fDI4MS4yMjd8Ni45NzM4NQ==)"/>
  <g clip-path="url(#cpNi45NzM4NXw3MTMuMDI2fDI4MS4yMjd8Ni45NzM4NQ==)">
    <text x="364.16" y="87.12" style="font-size: 9.96px; fill: #FF8821; font-family: Liberation Sans;" textLength="35.95px" lengthAdjust="spacingAndGlyphs">SLICER</text>
  </g>
  <polyline points="415.14,92.01 453.42,92.01 453.34,92.00 453.68,91.99 454.03,91.92 454.35,91.80 454.65,91.62 454.92,91.40 455.15,91.14 455.34,90.85 455.47,90.53 455.56,90.19 455.58,89.85 455.58,89.85 455.58,80.09 455.58,80.09 455.56,79.74 455.47,79.41 455.34,79.09 455.15,78.79 454.92,78.53 454.65,78.31 454.35,78.14 454.03,78.02 453.68,77.95 453.42,77.93 415.14,77.93 415.40,77.95 415.06,77.93 414.71,77.97 414.38,78.07 414.06,78.22 413.78,78.42 413.53,78.66 413.32,78.94 413.16,79.24 413.05,79.57 412.99,79.92 412.98,80.09 412.98,89.85 412.99,89.67 412.99,90.02 413.05,90.36 413.16,90.69 413.32,91.00 413.53,91.28 413.78,91.52 414.06,91.72 414.38,91.86 414.71,91.96 415.06,92.00 " style="stroke-width: 0.53; stroke: #5ECD2E; fill: #FFFFFF;" clip-path="url(#cpNi45NzM4NXw3MTMuMDI2fDI4MS4yMjd8Ni45NzM4NQ==)"/>
  <g clip-path="url(#cpNi45NzM4NXw3MTMuMDI2fDI4MS4yMjd8Ni45NzM4NQ==)">
    <text x="416.58" y="88.41" style="font-size: 9.96px; fill: #5ECD2E; font-family: Liberation Sans;" textLength="35.40px" lengthAdjust="spacingAndGlyphs">cellTree</text>
  </g>
  <polyline points="270.44,233.55 312.58,233.55 312.50,233.55 312.84,233.54 313.18,233.47 313.51,233.35 313.81,233.17 314.08,232.95 314.31,232.69 314.50,232.40 314.63,232.08 314.72,231.74 314.74,231.39 314.74,231.39 314.74,221.64 314.74,221.64 314.72,221.29 314.63,220.96 314.50,220.64 314.31,220.34 314.08,220.08 313.81,219.86 313.51,219.69 313.18,219.57 312.84,219.50 312.58,219.48 270.44,219.48 270.70,219.50 270.35,219.48 270.00,219.52 269.67,219.62 269.36,219.77 269.07,219.97 268.82,220.21 268.61,220.49 268.45,220.79 268.34,221.12 268.28,221.47 268.28,221.64 268.28,231.39 268.28,231.22 268.28,231.57 268.34,231.91 268.45,232.24 268.61,232.55 268.82,232.83 269.07,233.07 269.36,233.27 269.67,233.41 270.00,233.51 270.35,233.55 " style="stroke-width: 0.53; stroke: #AF0DC7; fill: #FFFFFF;" clip-path="url(#cpNi45NzM4NXw3MTMuMDI2fDI4MS4yMjd8Ni45NzM4NQ==)"/>
  <g clip-path="url(#cpNi45NzM4NXw3MTMuMDI2fDI4MS4yMjd8Ni45NzM4NQ==)">
    <text x="271.88" y="229.95" style="font-size: 9.96px; fill: #AF0DC7; font-family: Liberation Sans;" textLength="39.27px" lengthAdjust="spacingAndGlyphs">Waterfall</text>
  </g>
  <polyline points="459.54,207.40 511.66,207.40 511.57,207.39 511.92,207.38 512.26,207.31 512.58,207.19 512.89,207.01 513.15,206.79 513.39,206.53 513.57,206.24 513.71,205.92 513.79,205.58 513.82,205.24 513.82,205.24 513.82,195.48 513.82,195.48 513.79,195.13 513.71,194.80 513.57,194.48 513.39,194.18 513.15,193.92 512.89,193.70 512.58,193.53 512.26,193.41 511.92,193.34 511.66,193.32 459.54,193.32 459.80,193.34 459.46,193.32 459.11,193.36 458.78,193.46 458.46,193.61 458.18,193.81 457.93,194.05 457.72,194.33 457.56,194.63 457.45,194.96 457.39,195.31 457.38,195.48 457.38,205.24 457.39,205.06 457.39,205.41 457.45,205.75 457.56,206.08 457.72,206.39 457.93,206.67 458.18,206.91 458.46,207.11 458.78,207.26 459.11,207.35 459.46,207.39 " style="stroke-width: 0.53; stroke: #5ECD2E; fill: #FFFFFF;" clip-path="url(#cpNi45NzM4NXw3MTMuMDI2fDI4MS4yMjd8Ni45NzM4NQ==)"/>
  <g clip-path="url(#cpNi45NzM4NXw3MTMuMDI2fDI4MS4yMjd8Ni45NzM4NQ==)">
    <text x="460.98" y="203.80" style="font-size: 9.96px; fill: #5ECD2E; font-family: Liberation Sans;" textLength="49.24px" lengthAdjust="spacingAndGlyphs">k-branches</text>
  </g>
  <polyline points="471.43,277.42 503.08,277.42 502.99,277.41 503.34,277.40 503.68,277.33 504.00,277.21 504.31,277.03 504.58,276.81 504.81,276.55 504.99,276.26 505.13,275.94 505.21,275.60 505.24,275.26 505.24,275.26 505.24,265.50 505.24,265.50 505.21,265.16 505.13,264.82 504.99,264.50 504.81,264.20 504.58,263.94 504.31,263.72 504.00,263.55 503.68,263.43 503.34,263.36 503.08,263.34 471.43,263.34 471.69,263.36 471.35,263.34 471.00,263.39 470.67,263.48 470.35,263.63 470.07,263.83 469.82,264.07 469.61,264.35 469.45,264.65 469.34,264.98 469.28,265.33 469.27,265.50 469.27,275.26 469.28,275.08 469.28,275.43 469.34,275.77 469.45,276.10 469.61,276.41 469.82,276.69 470.07,276.93 470.35,277.13 470.67,277.28 471.00,277.37 471.35,277.41 " style="stroke-width: 0.53; stroke: #5ECD2E; fill: #FFFFFF;" clip-path="url(#cpNi45NzM4NXw3MTMuMDI2fDI4MS4yMjd8Ni45NzM4NQ==)"/>
  <g clip-path="url(#cpNi45NzM4NXw3MTMuMDI2fDI4MS4yMjd8Ni45NzM4NQ==)">
    <text x="472.87" y="273.82" style="font-size: 9.96px; fill: #5ECD2E; font-family: Liberation Sans;" textLength="28.77px" lengthAdjust="spacingAndGlyphs">SLICE</text>
  </g>
  <polyline points="515.03,63.28 547.22,63.28 547.13,63.28 547.48,63.27 547.82,63.20 548.14,63.08 548.44,62.90 548.71,62.68 548.94,62.42 549.13,62.13 549.27,61.81 549.35,61.47 549.38,61.12 549.38,61.12 549.38,51.37 549.38,51.37 549.35,51.02 549.27,50.69 549.13,50.37 548.94,50.07 548.71,49.81 548.44,49.59 548.14,49.42 547.82,49.29 547.48,49.22 547.22,49.21 515.03,49.21 515.29,49.22 514.94,49.21 514.60,49.25 514.26,49.35 513.95,49.50 513.66,49.70 513.41,49.94 513.20,50.21 513.04,50.52 512.93,50.85 512.87,51.20 512.87,51.37 512.87,61.12 512.87,60.95 512.87,61.30 512.93,61.64 513.04,61.97 513.20,62.28 513.41,62.56 513.66,62.80 513.95,62.99 514.26,63.14 514.60,63.24 514.94,63.28 " style="stroke-width: 0.53; stroke: #5ECD2E; fill: #FFFFFF;" clip-path="url(#cpNi45NzM4NXw3MTMuMDI2fDI4MS4yMjd8Ni45NzM4NQ==)"/>
  <g clip-path="url(#cpNi45NzM4NXw3MTMuMDI2fDI4MS4yMjd8Ni45NzM4NQ==)">
    <text x="516.47" y="59.68" style="font-size: 9.96px; fill: #5ECD2E; font-family: Liberation Sans;" textLength="29.31px" lengthAdjust="spacingAndGlyphs">TASIC</text>
  </g>
  <polyline points="638.75,191.28 677.59,191.28 677.51,191.28 677.85,191.26 678.19,191.19 678.52,191.07 678.82,190.90 679.09,190.68 679.32,190.42 679.51,190.12 679.64,189.80 679.73,189.46 679.75,189.12 679.75,189.12 679.75,179.36 679.75,179.36 679.73,179.02 679.64,178.68 679.51,178.36 679.32,178.07 679.09,177.80 678.82,177.59 678.52,177.41 678.19,177.29 677.85,177.22 677.59,177.20 638.75,177.20 639.01,177.22 638.66,177.20 638.32,177.25 637.98,177.34 637.67,177.49 637.38,177.69 637.13,177.93 636.92,178.21 636.76,178.52 636.65,178.85 636.60,179.19 636.59,179.36 636.59,189.12 636.60,188.94 636.60,189.29 636.65,189.63 636.76,189.96 636.92,190.27 637.13,190.55 637.38,190.79 637.67,190.99 637.98,191.14 638.32,191.23 638.66,191.28 " style="stroke-width: 0.53; stroke: #5ECD2E; fill: #FFFFFF;" clip-path="url(#cpNi45NzM4NXw3MTMuMDI2fDI4MS4yMjd8Ni45NzM4NQ==)"/>
  <g clip-path="url(#cpNi45NzM4NXw3MTMuMDI2fDI4MS4yMjd8Ni45NzM4NQ==)">
    <text x="640.19" y="187.68" style="font-size: 9.96px; fill: #5ECD2E; font-family: Liberation Sans;" textLength="35.96px" lengthAdjust="spacingAndGlyphs">scEpath</text>
  </g>
  <polyline points="491.57,164.43 529.30,164.43 529.21,164.43 529.56,164.42 529.90,164.35 530.22,164.22 530.52,164.05 530.79,163.83 531.02,163.57 531.21,163.28 531.34,162.96 531.43,162.62 531.46,162.27 531.46,162.27 531.46,152.52 531.46,152.52 531.43,152.17 531.34,151.83 531.21,151.51 531.02,151.22 530.79,150.96 530.52,150.74 530.22,150.57 529.90,150.44 529.56,150.37 529.30,150.36 491.57,150.36 491.83,150.37 491.48,150.36 491.13,150.40 490.80,150.50 490.49,150.65 490.20,150.85 489.95,151.09 489.74,151.36 489.58,151.67 489.47,152.00 489.41,152.34 489.41,152.52 489.41,162.27 489.41,162.10 489.41,162.45 489.47,162.79 489.58,163.12 489.74,163.43 489.95,163.71 490.20,163.95 490.49,164.14 490.80,164.29 491.13,164.39 491.48,164.43 " style="stroke-width: 0.53; stroke: #AF0DC7; fill: #FFFFFF;" clip-path="url(#cpNi45NzM4NXw3MTMuMDI2fDI4MS4yMjd8Ni45NzM4NQ==)"/>
  <g clip-path="url(#cpNi45NzM4NXw3MTMuMDI2fDI4MS4yMjd8Ni45NzM4NQ==)">
    <text x="493.01" y="160.83" style="font-size: 9.96px; fill: #AF0DC7; font-family: Liberation Sans;" textLength="34.85px" lengthAdjust="spacingAndGlyphs">topslam</text>
  </g>
  <polyline points="602.05,166.24 646.42,166.24 646.34,166.24 646.68,166.22 647.02,166.15 647.35,166.03 647.65,165.86 647.92,165.64 648.15,165.38 648.34,165.08 648.47,164.76 648.56,164.43 648.58,164.08 648.58,164.08 648.58,154.32 648.58,154.32 648.56,153.98 648.47,153.64 648.34,153.32 648.15,153.03 647.92,152.77 647.65,152.55 647.35,152.37 647.02,152.25 646.68,152.18 646.42,152.16 602.05,152.16 602.31,152.18 601.96,152.17 601.62,152.21 601.28,152.30 600.97,152.45 600.68,152.65 600.43,152.89 600.22,153.17 600.06,153.48 599.95,153.81 599.90,154.15 599.89,154.32 599.89,164.08 599.90,163.91 599.90,164.25 599.95,164.60 600.06,164.93 600.22,165.23 600.43,165.51 600.68,165.75 600.97,165.95 601.28,166.10 601.62,166.20 601.96,166.24 " style="stroke-width: 0.53; stroke: #5ECD2E; fill: #FFFFFF;" clip-path="url(#cpNi45NzM4NXw3MTMuMDI2fDI4MS4yMjd8Ni45NzM4NQ==)"/>
  <g clip-path="url(#cpNi45NzM4NXw3MTMuMDI2fDI4MS4yMjd8Ni45NzM4NQ==)">
    <text x="603.49" y="162.64" style="font-size: 9.96px; fill: #5ECD2E; font-family: Liberation Sans;" textLength="41.49px" lengthAdjust="spacingAndGlyphs">p-Creode</text>
  </g>
  <polyline points="372.95,136.16 399.61,136.16 399.52,136.16 399.87,136.14 400.21,136.07 400.54,135.95 400.84,135.78 401.11,135.56 401.34,135.30 401.52,135.00 401.66,134.68 401.74,134.35 401.77,134.00 401.77,134.00 401.77,124.25 401.77,124.25 401.74,123.90 401.66,123.56 401.52,123.24 401.34,122.95 401.11,122.69 400.84,122.47 400.54,122.29 400.21,122.17 399.87,122.10 399.61,122.09 372.95,122.09 373.21,122.10 372.86,122.09 372.51,122.13 372.18,122.23 371.87,122.37 371.58,122.57 371.33,122.81 371.12,123.09 370.96,123.40 370.85,123.73 370.79,124.07 370.79,124.25 370.79,134.00 370.79,133.83 370.79,134.17 370.85,134.52 370.96,134.85 371.12,135.15 371.33,135.43 371.58,135.67 371.87,135.87 372.18,136.02 372.51,136.12 372.86,136.16 " style="stroke-width: 0.53; stroke: #AF0DC7; fill: #FFFFFF;" clip-path="url(#cpNi45NzM4NXw3MTMuMDI2fDI4MS4yMjd8Ni45NzM4NQ==)"/>
  <g clip-path="url(#cpNi45NzM4NXw3MTMuMDI2fDI4MS4yMjd8Ni45NzM4NQ==)">
    <text x="374.39" y="132.56" style="font-size: 9.96px; fill: #AF0DC7; font-family: Liberation Sans;" textLength="23.78px" lengthAdjust="spacingAndGlyphs">SCell</text>
  </g>
  <polyline points="508.54,125.12 544.60,125.12 544.52,125.12 544.86,125.11 545.20,125.04 545.53,124.91 545.83,124.74 546.10,124.52 546.33,124.26 546.51,123.97 546.65,123.65 546.73,123.31 546.76,122.96 546.76,122.96 546.76,113.21 546.76,113.21 546.73,112.86 546.65,112.52 546.51,112.20 546.33,111.91 546.10,111.65 545.83,111.43 545.53,111.26 545.20,111.13 544.86,111.06 544.60,111.05 508.54,111.05 508.80,111.06 508.45,111.05 508.11,111.09 507.77,111.19 507.46,111.34 507.17,111.53 506.92,111.77 506.71,112.05 506.55,112.36 506.44,112.69 506.39,113.03 506.38,113.21 506.38,122.96 506.39,122.79 506.39,123.14 506.44,123.48 506.55,123.81 506.71,124.12 506.92,124.39 507.17,124.63 507.46,124.83 507.77,124.98 508.11,125.08 508.45,125.12 " style="stroke-width: 0.53; stroke: #5ECD2E; fill: #FFFFFF;" clip-path="url(#cpNi45NzM4NXw3MTMuMDI2fDI4MS4yMjd8Ni45NzM4NQ==)"/>
  <g clip-path="url(#cpNi45NzM4NXw3MTMuMDI2fDI4MS4yMjd8Ni45NzM4NQ==)">
    <text x="509.98" y="121.52" style="font-size: 9.96px; fill: #5ECD2E; font-family: Liberation Sans;" textLength="33.18px" lengthAdjust="spacingAndGlyphs">PHATE</text>
  </g>
  <polyline points="409.89,179.66 461.99,179.66 461.90,179.66 462.25,179.65 462.59,179.58 462.92,179.45 463.22,179.28 463.49,179.06 463.72,178.80 463.90,178.51 464.04,178.19 464.12,177.85 464.15,177.50 464.15,177.50 464.15,167.75 464.15,167.75 464.12,167.40 464.04,167.06 463.90,166.74 463.72,166.45 463.49,166.19 463.22,165.97 462.92,165.80 462.59,165.67 462.25,165.60 461.99,165.59 409.89,165.59 410.15,165.60 409.80,165.59 409.46,165.63 409.12,165.73 408.81,165.88 408.52,166.07 408.27,166.32 408.06,166.59 407.90,166.90 407.79,167.23 407.74,167.57 407.73,167.75 407.73,177.50 407.74,177.33 407.74,177.68 407.79,178.02 407.90,178.35 408.06,178.66 408.27,178.93 408.52,179.18 408.81,179.37 409.12,179.52 409.46,179.62 409.80,179.66 " style="stroke-width: 0.53; stroke: #AF0DC7; fill: #FFFFFF;" clip-path="url(#cpNi45NzM4NXw3MTMuMDI2fDI4MS4yMjd8Ni45NzM4NQ==)"/>
  <g clip-path="url(#cpNi45NzM4NXw3MTMuMDI2fDI4MS4yMjd8Ni45NzM4NQ==)">
    <text x="411.33" y="176.06" style="font-size: 9.96px; fill: #AF0DC7; font-family: Liberation Sans;" textLength="49.22px" lengthAdjust="spacingAndGlyphs">WaveCrest</text>
  </g>
  <polyline points="638.34,101.98 680.49,101.98 680.40,101.98 680.75,101.97 681.09,101.90 681.41,101.77 681.71,101.60 681.98,101.38 682.21,101.12 682.40,100.83 682.54,100.51 682.62,100.17 682.65,99.82 682.65,99.82 682.65,90.07 682.65,90.07 682.62,89.72 682.54,89.38 682.40,89.06 682.21,88.77 681.98,88.51 681.71,88.29 681.41,88.12 681.09,87.99 680.75,87.92 680.49,87.91 638.34,87.91 638.60,87.92 638.25,87.91 637.91,87.95 637.57,88.05 637.26,88.20 636.97,88.39 636.72,88.64 636.51,88.91 636.35,89.22 636.24,89.55 636.19,89.89 636.18,90.07 636.18,99.82 636.19,99.65 636.19,100.00 636.24,100.34 636.35,100.67 636.51,100.98 636.72,101.26 636.97,101.50 637.26,101.69 637.57,101.84 637.91,101.94 638.25,101.98 " style="stroke-width: 0.53; stroke: #5ECD2E; fill: #FFFFFF;" clip-path="url(#cpNi45NzM4NXw3MTMuMDI2fDI4MS4yMjd8Ni45NzM4NQ==)"/>
  <g clip-path="url(#cpNi45NzM4NXw3MTMuMDI2fDI4MS4yMjd8Ni45NzM4NQ==)">
    <text x="639.78" y="98.38" style="font-size: 9.96px; fill: #5ECD2E; font-family: Liberation Sans;" textLength="39.27px" lengthAdjust="spacingAndGlyphs">MERLoT</text>
  </g>
  <polyline points="573.51,195.90 612.89,195.90 612.80,195.90 613.15,195.88 613.49,195.81 613.81,195.69 614.11,195.52 614.38,195.30 614.61,195.04 614.80,194.74 614.94,194.42 615.02,194.09 615.05,193.74 615.05,193.74 615.05,183.98 615.05,183.98 615.02,183.64 614.94,183.30 614.80,182.98 614.61,182.69 614.38,182.43 614.11,182.21 613.81,182.03 613.49,181.91 613.15,181.84 612.89,181.82 573.51,181.82 573.77,181.84 573.42,181.83 573.08,181.87 572.74,181.96 572.43,182.11 572.14,182.31 571.89,182.55 571.68,182.83 571.52,183.14 571.41,183.47 571.36,183.81 571.35,183.98 571.35,193.74 571.36,193.57 571.36,193.91 571.41,194.26 571.52,194.59 571.68,194.89 571.89,195.17 572.14,195.41 572.43,195.61 572.74,195.76 573.08,195.86 573.42,195.90 " style="stroke-width: 0.53; stroke: #FF8821; fill: #FFFFFF;" clip-path="url(#cpNi45NzM4NXw3MTMuMDI2fDI4MS4yMjd8Ni45NzM4NQ==)"/>
  <g clip-path="url(#cpNi45NzM4NXw3MTMuMDI2fDI4MS4yMjd8Ni45NzM4NQ==)">
    <text x="574.95" y="192.30" style="font-size: 9.96px; fill: #FF8821; font-family: Liberation Sans;" textLength="36.50px" lengthAdjust="spacingAndGlyphs">B-RGPs</text>
  </g>
  <polyline points="525.93,249.69 558.67,249.69 558.58,249.69 558.93,249.67 559.27,249.60 559.59,249.48 559.89,249.31 560.16,249.09 560.39,248.83 560.58,248.53 560.72,248.21 560.80,247.87 560.83,247.53 560.83,247.53 560.83,237.77 560.83,237.77 560.80,237.43 560.72,237.09 560.58,236.77 560.39,236.47 560.16,236.21 559.89,235.99 559.59,235.82 559.27,235.70 558.93,235.63 558.67,235.61 525.93,235.61 526.19,235.63 525.84,235.61 525.49,235.66 525.16,235.75 524.85,235.90 524.56,236.10 524.31,236.34 524.10,236.62 523.94,236.93 523.83,237.26 523.77,237.60 523.77,237.77 523.77,247.53 523.77,247.35 523.77,247.70 523.83,248.04 523.94,248.37 524.10,248.68 524.31,248.96 524.56,249.20 524.85,249.40 525.16,249.55 525.49,249.64 525.84,249.69 " style="stroke-width: 0.53; stroke: #AF0DC7; fill: #FFFFFF;" clip-path="url(#cpNi45NzM4NXw3MTMuMDI2fDI4MS4yMjd8Ni45NzM4NQ==)"/>
  <g clip-path="url(#cpNi45NzM4NXw3MTMuMDI2fDI4MS4yMjd8Ni45NzM4NQ==)">
    <text x="527.37" y="246.09" style="font-size: 9.96px; fill: #AF0DC7; font-family: Liberation Sans;" textLength="29.86px" lengthAdjust="spacingAndGlyphs">scTDA</text>
  </g>
  <polyline points="511.85,143.26 551.23,143.26 551.14,143.26 551.49,143.25 551.83,143.18 552.15,143.05 552.45,142.88 552.72,142.66 552.95,142.40 553.14,142.11 553.27,141.79 553.36,141.45 553.39,141.10 553.39,141.10 553.39,131.35 553.39,131.35 553.36,131.00 553.27,130.66 553.14,130.34 552.95,130.05 552.72,129.79 552.45,129.57 552.15,129.40 551.83,129.27 551.49,129.20 551.23,129.19 511.85,129.19 512.11,129.20 511.76,129.19 511.42,129.23 511.08,129.33 510.77,129.48 510.48,129.67 510.23,129.91 510.02,130.19 509.86,130.50 509.75,130.83 509.69,131.17 509.69,131.35 509.69,141.10 509.69,140.93 509.69,141.28 509.75,141.62 509.86,141.95 510.02,142.26 510.23,142.53 510.48,142.78 510.77,142.97 511.08,143.12 511.42,143.22 511.76,143.26 " style="stroke-width: 0.53; stroke: #5ECD2E; fill: #FFFFFF;" clip-path="url(#cpNi45NzM4NXw3MTMuMDI2fDI4MS4yMjd8Ni45NzM4NQ==)"/>
  <g clip-path="url(#cpNi45NzM4NXw3MTMuMDI2fDI4MS4yMjd8Ni45NzM4NQ==)">
    <text x="513.29" y="139.66" style="font-size: 9.96px; fill: #5ECD2E; font-family: Liberation Sans;" textLength="36.50px" lengthAdjust="spacingAndGlyphs">SOMSC</text>
  </g>
  <polyline points="550.45,86.66 593.73,86.66 593.65,86.66 593.99,86.64 594.33,86.57 594.66,86.45 594.96,86.28 595.23,86.06 595.46,85.79 595.65,85.50 595.78,85.18 595.87,84.84 595.89,84.50 595.89,84.50 595.89,74.74 595.89,74.74 595.87,74.40 595.78,74.06 595.65,73.74 595.46,73.44 595.23,73.18 594.96,72.96 594.66,72.79 594.33,72.67 593.99,72.60 593.73,72.58 550.45,72.58 550.71,72.60 550.37,72.58 550.02,72.63 549.69,72.72 549.37,72.87 549.09,73.07 548.84,73.31 548.63,73.59 548.47,73.90 548.36,74.23 548.30,74.57 548.29,74.74 548.29,84.50 548.30,84.32 548.30,84.67 548.36,85.01 548.47,85.34 548.63,85.65 548.84,85.93 549.09,86.17 549.37,86.37 549.69,86.52 550.02,86.61 550.37,86.66 " style="stroke-width: 0.53; stroke: #AF0DC7; fill: #FFFFFF;" clip-path="url(#cpNi45NzM4NXw3MTMuMDI2fDI4MS4yMjd8Ni45NzM4NQ==)"/>
  <g clip-path="url(#cpNi45NzM4NXw3MTMuMDI2fDI4MS4yMjd8Ni45NzM4NQ==)">
    <text x="551.89" y="83.06" style="font-size: 9.96px; fill: #AF0DC7; font-family: Liberation Sans;" textLength="40.40px" lengthAdjust="spacingAndGlyphs">HopLand</text>
  </g>
  <polyline points="489.34,85.40 538.14,85.40 538.06,85.40 538.40,85.38 538.74,85.31 539.07,85.19 539.37,85.02 539.64,84.80 539.87,84.54 540.05,84.24 540.19,83.92 540.27,83.58 540.30,83.24 540.30,83.24 540.30,73.48 540.30,73.48 540.27,73.14 540.19,72.80 540.05,72.48 539.87,72.19 539.64,71.93 539.37,71.71 539.07,71.53 538.74,71.41 538.40,71.34 538.14,71.32 489.34,71.32 489.60,71.34 489.25,71.32 488.91,71.37 488.57,71.46 488.26,71.61 487.97,71.81 487.72,72.05 487.52,72.33 487.35,72.64 487.24,72.97 487.19,73.31 487.18,73.48 487.18,83.24 487.19,83.06 487.19,83.41 487.24,83.75 487.35,84.08 487.52,84.39 487.72,84.67 487.97,84.91 488.26,85.11 488.57,85.26 488.91,85.35 489.25,85.40 " style="stroke-width: 0.53; stroke: #5ECD2E; fill: #FFFFFF;" clip-path="url(#cpNi45NzM4NXw3MTMuMDI2fDI4MS4yMjd8Ni45NzM4NQ==)"/>
  <g clip-path="url(#cpNi45NzM4NXw3MTMuMDI2fDI4MS4yMjd8Ni45NzM4NQ==)">
    <text x="490.78" y="81.80" style="font-size: 9.96px; fill: #5ECD2E; font-family: Liberation Sans;" textLength="45.92px" lengthAdjust="spacingAndGlyphs">Monocle 2</text>
  </g>
  <polyline points="546.76,163.75 578.39,163.75 578.31,163.75 578.65,163.74 578.99,163.67 579.32,163.54 579.62,163.37 579.89,163.15 580.12,162.89 580.31,162.60 580.44,162.28 580.52,161.94 580.55,161.59 580.55,161.59 580.55,151.84 580.55,151.84 580.52,151.49 580.44,151.15 580.31,150.83 580.12,150.54 579.89,150.28 579.62,150.06 579.32,149.89 578.99,149.76 578.65,149.69 578.39,149.68 546.76,149.68 547.02,149.69 546.67,149.68 546.32,149.72 545.99,149.82 545.68,149.97 545.39,150.16 545.14,150.40 544.93,150.68 544.77,150.99 544.66,151.32 544.60,151.66 544.60,151.84 544.60,161.59 544.60,161.42 544.60,161.77 544.66,162.11 544.77,162.44 544.93,162.75 545.14,163.02 545.39,163.26 545.68,163.46 545.99,163.61 546.32,163.71 546.67,163.75 " style="stroke-width: 0.53; stroke: #39CCCC; fill: #FFFFFF;" clip-path="url(#cpNi45NzM4NXw3MTMuMDI2fDI4MS4yMjd8Ni45NzM4NQ==)"/>
  <g clip-path="url(#cpNi45NzM4NXw3MTMuMDI2fDI4MS4yMjd8Ni45NzM4NQ==)">
    <text x="548.20" y="160.15" style="font-size: 9.96px; fill: #39CCCC; font-family: Liberation Sans;" textLength="28.76px" lengthAdjust="spacingAndGlyphs">reCAT</text>
  </g>
  <polyline points="430.59,135.03 481.02,135.03 480.93,135.03 481.28,135.01 481.62,134.94 481.95,134.82 482.25,134.64 482.52,134.42 482.75,134.16 482.93,133.87 483.07,133.55 483.15,133.21 483.18,132.87 483.18,132.87 483.18,123.11 483.18,123.11 483.15,122.77 483.07,122.43 482.93,122.11 482.75,121.81 482.52,121.55 482.25,121.33 481.95,121.16 481.62,121.04 481.28,120.97 481.02,120.95 430.59,120.95 430.85,120.97 430.50,120.95 430.15,121.00 429.82,121.09 429.51,121.24 429.22,121.44 428.97,121.68 428.76,121.96 428.60,122.27 428.49,122.60 428.43,122.94 428.43,123.11 428.43,132.87 428.43,132.69 428.43,133.04 428.49,133.38 428.60,133.71 428.76,134.02 428.97,134.30 429.22,134.54 429.51,134.74 429.82,134.89 430.15,134.98 430.50,135.03 " style="stroke-width: 0.53; stroke: #AF0DC7; fill: #FFFFFF;" clip-path="url(#cpNi45NzM4NXw3MTMuMDI2fDI4MS4yMjd8Ni45NzM4NQ==)"/>
  <g clip-path="url(#cpNi45NzM4NXw3MTMuMDI2fDI4MS4yMjd8Ni45NzM4NQ==)">
    <text x="432.03" y="131.43" style="font-size: 9.96px; fill: #AF0DC7; font-family: Liberation Sans;" textLength="47.55px" lengthAdjust="spacingAndGlyphs">SCIMITAR</text>
  </g>
  <polyline points="51.91,270.90 100.71,270.90 100.63,270.90 100.97,270.88 101.31,270.81 101.64,270.69 101.94,270.52 102.21,270.30 102.44,270.04 102.63,269.74 102.76,269.42 102.85,269.08 102.87,268.74 102.87,268.74 102.87,258.98 102.87,258.98 102.85,258.64 102.76,258.30 102.63,257.98 102.44,257.69 102.21,257.43 101.94,257.21 101.64,257.03 101.31,256.91 100.97,256.84 100.71,256.82 51.91,256.82 52.17,256.84 51.83,256.83 51.48,256.87 51.15,256.96 50.83,257.11 50.55,257.31 50.30,257.55 50.09,257.83 49.92,258.14 49.81,258.47 49.76,258.81 49.75,258.98 49.75,268.74 49.76,268.56 49.76,268.91 49.81,269.26 49.92,269.58 50.09,269.89 50.30,270.17 50.55,270.41 50.83,270.61 51.15,270.76 51.48,270.85 51.83,270.90 " style="stroke-width: 0.53; stroke: #5ECD2E; fill: #FFFFFF;" clip-path="url(#cpNi45NzM4NXw3MTMuMDI2fDI4MS4yMjd8Ni45NzM4NQ==)"/>
  <g clip-path="url(#cpNi45NzM4NXw3MTMuMDI2fDI4MS4yMjd8Ni45NzM4NQ==)">
    <text x="53.35" y="267.30" style="font-size: 9.96px; fill: #5ECD2E; font-family: Liberation Sans;" textLength="45.92px" lengthAdjust="spacingAndGlyphs">Monocle 1</text>
  </g>
  <polyline points="345.50,273.77 368.29,273.77 368.20,273.77 368.55,273.75 368.89,273.68 369.22,273.56 369.52,273.39 369.79,273.17 370.02,272.91 370.20,272.61 370.34,272.29 370.42,271.96 370.45,271.61 370.45,271.61 370.45,261.85 370.45,261.85 370.42,261.51 370.34,261.17 370.20,260.85 370.02,260.56 369.79,260.30 369.52,260.08 369.22,259.90 368.89,259.78 368.55,259.71 368.29,259.69 345.50,259.69 345.76,259.71 345.42,259.70 345.07,259.74 344.74,259.83 344.42,259.98 344.14,260.18 343.89,260.42 343.68,260.70 343.52,261.01 343.41,261.34 343.35,261.68 343.34,261.85 343.34,271.61 343.35,271.43 343.35,271.78 343.41,272.13 343.52,272.46 343.68,272.76 343.89,273.04 344.14,273.28 344.42,273.48 344.74,273.63 345.07,273.72 345.42,273.77 " style="stroke-width: 0.53; stroke: #0073D7; fill: #FFFFFF;" clip-path="url(#cpNi45NzM4NXw3MTMuMDI2fDI4MS4yMjd8Ni45NzM4NQ==)"/>
  <g clip-path="url(#cpNi45NzM4NXw3MTMuMDI2fDI4MS4yMjd8Ni45NzM4NQ==)">
    <text x="346.94" y="270.17" style="font-size: 9.96px; fill: #0073D7; font-family: Liberation Sans;" textLength="19.91px" lengthAdjust="spacingAndGlyphs">DPT</text>
  </g>
  <polyline points="544.41,208.23 581.57,208.23 581.48,208.23 581.83,208.22 582.17,208.15 582.50,208.02 582.80,207.85 583.07,207.63 583.30,207.37 583.48,207.08 583.62,206.76 583.70,206.42 583.73,206.07 583.73,206.07 583.73,196.32 583.73,196.32 583.70,195.97 583.62,195.63 583.48,195.31 583.30,195.02 583.07,194.76 582.80,194.54 582.50,194.37 582.17,194.24 581.83,194.17 581.57,194.16 544.41,194.16 544.67,194.17 544.32,194.16 543.97,194.20 543.64,194.30 543.33,194.45 543.04,194.65 542.79,194.89 542.58,195.16 542.42,195.47 542.31,195.80 542.25,196.14 542.25,196.32 542.25,206.07 542.25,205.90 542.25,206.25 542.31,206.59 542.42,206.92 542.58,207.23 542.79,207.51 543.04,207.75 543.33,207.94 543.64,208.09 543.97,208.19 544.32,208.23 " style="stroke-width: 0.53; stroke: #5ECD2E; fill: #FFFFFF;" clip-path="url(#cpNi45NzM4NXw3MTMuMDI2fDI4MS4yMjd8Ni45NzM4NQ==)"/>
  <g clip-path="url(#cpNi45NzM4NXw3MTMuMDI2fDI4MS4yMjd8Ni45NzM4NQ==)">
    <text x="545.85" y="204.63" style="font-size: 9.96px; fill: #5ECD2E; font-family: Liberation Sans;" textLength="34.29px" lengthAdjust="spacingAndGlyphs">FORKS</text>
  </g>
  <polyline points="387.40,113.75 433.99,113.75 433.91,113.75 434.25,113.73 434.59,113.66 434.92,113.54 435.22,113.37 435.49,113.15 435.72,112.89 435.91,112.59 436.04,112.27 436.12,111.94 436.15,111.59 436.15,111.59 436.15,101.83 436.15,101.83 436.12,101.49 436.04,101.15 435.91,100.83 435.72,100.54 435.49,100.28 435.22,100.06 434.92,99.88 434.59,99.76 434.25,99.69 433.99,99.67 387.40,99.67 387.66,99.69 387.31,99.68 386.97,99.72 386.63,99.81 386.32,99.96 386.03,100.16 385.78,100.40 385.57,100.68 385.41,100.99 385.30,101.32 385.24,101.66 385.24,101.83 385.24,111.59 385.24,111.42 385.24,111.76 385.30,112.11 385.41,112.44 385.57,112.74 385.78,113.02 386.03,113.26 386.32,113.46 386.63,113.61 386.97,113.71 387.31,113.75 " style="stroke-width: 0.53; stroke: #AF0DC7; fill: #FFFFFF;" clip-path="url(#cpNi45NzM4NXw3MTMuMDI2fDI4MS4yMjd8Ni45NzM4NQ==)"/>
  <g clip-path="url(#cpNi45NzM4NXw3MTMuMDI2fDI4MS4yMjd8Ni45NzM4NQ==)">
    <text x="388.84" y="110.15" style="font-size: 9.96px; fill: #AF0DC7; font-family: Liberation Sans;" textLength="43.72px" lengthAdjust="spacingAndGlyphs">DeLorean</text>
  </g>
  <polyline points="377.90,223.12 414.52,223.12 414.43,223.12 414.78,223.11 415.12,223.04 415.44,222.91 415.74,222.74 416.01,222.52 416.24,222.26 416.43,221.97 416.57,221.65 416.65,221.31 416.68,220.96 416.68,220.96 416.68,211.21 416.68,211.21 416.65,210.86 416.57,210.52 416.43,210.20 416.24,209.91 416.01,209.65 415.74,209.43 415.44,209.26 415.12,209.13 414.78,209.06 414.52,209.05 377.90,209.05 378.16,209.06 377.82,209.05 377.47,209.09 377.14,209.19 376.82,209.34 376.54,209.53 376.29,209.78 376.08,210.05 375.92,210.36 375.81,210.69 375.75,211.03 375.74,211.21 375.74,220.96 375.75,220.79 375.75,221.14 375.81,221.48 375.92,221.81 376.08,222.12 376.29,222.40 376.54,222.64 376.82,222.83 377.14,222.98 377.47,223.08 377.82,223.12 " style="stroke-width: 0.53; stroke: #5ECD2E; fill: #FFFFFF;" clip-path="url(#cpNi45NzM4NXw3MTMuMDI2fDI4MS4yMjd8Ni45NzM4NQ==)"/>
  <g clip-path="url(#cpNi45NzM4NXw3MTMuMDI2fDI4MS4yMjd8Ni45NzM4NQ==)">
    <text x="379.34" y="219.52" style="font-size: 9.96px; fill: #5ECD2E; font-family: Liberation Sans;" textLength="33.73px" lengthAdjust="spacingAndGlyphs">TSCAN</text>
  </g>
  <polyline points="490.59,184.59 537.72,184.59 537.64,184.59 537.98,184.58 538.32,184.51 538.65,184.38 538.95,184.21 539.22,183.99 539.45,183.73 539.64,183.44 539.77,183.12 539.85,182.78 539.88,182.43 539.88,182.43 539.88,172.68 539.88,172.68 539.85,172.33 539.77,171.99 539.64,171.67 539.45,171.38 539.22,171.12 538.95,170.90 538.65,170.73 538.32,170.60 537.98,170.53 537.72,170.52 490.59,170.52 490.85,170.53 490.50,170.52 490.16,170.56 489.82,170.66 489.51,170.81 489.22,171.00 488.97,171.25 488.76,171.52 488.60,171.83 488.49,172.16 488.44,172.50 488.43,172.68 488.43,182.43 488.44,182.26 488.44,182.61 488.49,182.95 488.60,183.28 488.76,183.59 488.97,183.86 489.22,184.11 489.51,184.30 489.82,184.45 490.16,184.55 490.50,184.59 " style="stroke-width: 0.53; stroke: #5ECD2E; fill: #FFFFFF;" clip-path="url(#cpNi45NzM4NXw3MTMuMDI2fDI4MS4yMjd8Ni45NzM4NQ==)"/>
  <g clip-path="url(#cpNi45NzM4NXw3MTMuMDI2fDI4MS4yMjd8Ni45NzM4NQ==)">
    <text x="492.03" y="180.99" style="font-size: 9.96px; fill: #5ECD2E; font-family: Liberation Sans;" textLength="44.25px" lengthAdjust="spacingAndGlyphs">Granatum</text>
  </g>
  <polyline points="429.61,228.89 484.48,228.89 484.39,228.89 484.74,228.87 485.08,228.80 485.40,228.68 485.71,228.51 485.98,228.29 486.21,228.03 486.39,227.73 486.53,227.41 486.61,227.08 486.64,226.73 486.64,226.73 486.64,216.98 486.64,216.98 486.61,216.63 486.53,216.29 486.39,215.97 486.21,215.68 485.98,215.42 485.71,215.20 485.40,215.02 485.08,214.90 484.74,214.83 484.48,214.82 429.61,214.82 429.87,214.83 429.53,214.82 429.18,214.86 428.85,214.96 428.53,215.10 428.25,215.30 428.00,215.54 427.79,215.82 427.62,216.13 427.51,216.46 427.46,216.80 427.45,216.98 427.45,226.73 427.46,226.56 427.46,226.90 427.51,227.25 427.62,227.58 427.79,227.88 428.00,228.16 428.25,228.40 428.53,228.60 428.85,228.75 429.18,228.85 429.53,228.89 " style="stroke-width: 0.53; stroke: #AF0DC7; fill: #FFFFFF;" clip-path="url(#cpNi45NzM4NXw3MTMuMDI2fDI4MS4yMjd8Ni45NzM4NQ==)"/>
  <g clip-path="url(#cpNi45NzM4NXw3MTMuMDI2fDI4MS4yMjd8Ni45NzM4NQ==)">
    <text x="431.05" y="225.29" style="font-size: 9.96px; fill: #AF0DC7; font-family: Liberation Sans;" textLength="51.99px" lengthAdjust="spacingAndGlyphs">SCORPIUS</text>
  </g>
  <polyline points="239.69,276.93 271.32,276.93 271.24,276.93 271.58,276.92 271.92,276.85 272.25,276.73 272.55,276.55 272.82,276.33 273.05,276.07 273.24,275.78 273.37,275.46 273.46,275.12 273.48,274.77 273.48,274.77 273.48,265.02 273.48,265.02 273.46,264.67 273.37,264.34 273.24,264.02 273.05,263.72 272.82,263.46 272.55,263.24 272.25,263.07 271.92,262.94 271.58,262.88 271.32,262.86 239.69,262.86 239.95,262.88 239.60,262.86 239.26,262.90 238.92,263.00 238.61,263.15 238.32,263.35 238.07,263.59 237.86,263.87 237.70,264.17 237.59,264.50 237.53,264.85 237.53,265.02 237.53,274.77 237.53,274.60 237.53,274.95 237.59,275.29 237.70,275.62 237.86,275.93 238.07,276.21 238.32,276.45 238.61,276.65 238.92,276.79 239.26,276.89 239.60,276.93 " style="stroke-width: 0.53; stroke: #AF0DC7; fill: #FFFFFF;" clip-path="url(#cpNi45NzM4NXw3MTMuMDI2fDI4MS4yMjd8Ni45NzM4NQ==)"/>
  <g clip-path="url(#cpNi45NzM4NXw3MTMuMDI2fDI4MS4yMjd8Ni45NzM4NQ==)">
    <text x="241.13" y="273.33" style="font-size: 9.96px; fill: #AF0DC7; font-family: Liberation Sans;" textLength="28.76px" lengthAdjust="spacingAndGlyphs">NBOR</text>
  </g>
  <polyline points="633.92,252.39 678.28,252.39 678.20,252.39 678.55,252.38 678.89,252.31 679.21,252.19 679.51,252.01 679.78,251.79 680.01,251.53 680.20,251.24 680.33,250.92 680.42,250.58 680.44,250.23 680.44,250.23 680.44,240.48 680.44,240.48 680.42,240.13 680.33,239.80 680.20,239.48 680.01,239.18 679.78,238.92 679.51,238.70 679.21,238.53 678.89,238.41 678.55,238.34 678.28,238.32 633.92,238.32 634.18,238.34 633.83,238.32 633.49,238.36 633.15,238.46 632.84,238.61 632.55,238.81 632.30,239.05 632.09,239.33 631.93,239.63 631.82,239.96 631.77,240.31 631.76,240.48 631.76,250.23 631.77,250.06 631.77,250.41 631.82,250.75 631.93,251.08 632.09,251.39 632.30,251.67 632.55,251.91 632.84,252.11 633.15,252.25 633.49,252.35 633.83,252.39 " style="stroke-width: 0.53; stroke: #FF8821; fill: #FFFFFF;" clip-path="url(#cpNi45NzM4NXw3MTMuMDI2fDI4MS4yMjd8Ni45NzM4NQ==)"/>
  <g clip-path="url(#cpNi45NzM4NXw3MTMuMDI2fDI4MS4yMjd8Ni45NzM4NQ==)">
    <text x="635.36" y="248.79" style="font-size: 9.96px; fill: #FF8821; font-family: Liberation Sans;" textLength="41.48px" lengthAdjust="spacingAndGlyphs">CALISTA</text>
  </g>
  <polyline points="498.46,265.27 537.30,265.27 537.21,265.27 537.56,265.25 537.90,265.18 538.23,265.06 538.53,264.89 538.80,264.67 539.03,264.41 539.21,264.11 539.35,263.79 539.43,263.45 539.46,263.11 539.46,263.11 539.46,253.35 539.46,253.35 539.43,253.01 539.35,252.67 539.21,252.35 539.03,252.06 538.80,251.79 538.53,251.58 538.23,251.40 537.90,251.28 537.56,251.21 537.30,251.19 498.46,251.19 498.72,251.21 498.37,251.19 498.03,251.24 497.69,251.33 497.38,251.48 497.09,251.68 496.84,251.92 496.64,252.20 496.47,252.51 496.36,252.84 496.31,253.18 496.30,253.35 496.30,263.11 496.31,262.93 496.31,263.28 496.36,263.62 496.47,263.95 496.64,264.26 496.84,264.54 497.09,264.78 497.38,264.98 497.69,265.13 498.03,265.22 498.37,265.27 " style="stroke-width: 0.53; stroke: #CFBF00; fill: #FFFFFF;" clip-path="url(#cpNi45NzM4NXw3MTMuMDI2fDI4MS4yMjd8Ni45NzM4NQ==)"/>
  <g clip-path="url(#cpNi45NzM4NXw3MTMuMDI2fDI4MS4yMjd8Ni45NzM4NQ==)">
    <text x="499.90" y="261.67" style="font-size: 9.96px; fill: #CFBF00; font-family: Liberation Sans;" textLength="35.96px" lengthAdjust="spacingAndGlyphs">GPfates</text>
  </g>
  <polyline points="448.26,252.52 484.87,252.52 484.78,252.52 485.13,252.51 485.47,252.44 485.80,252.31 486.10,252.14 486.37,251.92 486.60,251.66 486.78,251.36 486.92,251.04 487.00,250.71 487.03,250.36 487.03,250.36 487.03,240.61 487.03,240.61 487.00,240.26 486.92,239.92 486.78,239.60 486.60,239.31 486.37,239.05 486.10,238.83 485.80,238.65 485.47,238.53 485.13,238.46 484.87,238.45 448.26,238.45 448.52,238.46 448.17,238.45 447.83,238.49 447.49,238.59 447.18,238.74 446.89,238.93 446.64,239.17 446.43,239.45 446.27,239.76 446.16,240.09 446.10,240.43 446.10,240.61 446.10,250.36 446.10,250.19 446.10,250.53 446.16,250.88 446.27,251.21 446.43,251.52 446.64,251.79 446.89,252.03 447.18,252.23 447.49,252.38 447.83,252.48 448.17,252.52 " style="stroke-width: 0.53; stroke: #AF0DC7; fill: #FFFFFF;" clip-path="url(#cpNi45NzM4NXw3MTMuMDI2fDI4MS4yMjd8Ni45NzM4NQ==)"/>
  <g clip-path="url(#cpNi45NzM4NXw3MTMuMDI2fDI4MS4yMjd8Ni45NzM4NQ==)">
    <text x="449.70" y="248.92" style="font-size: 9.96px; fill: #AF0DC7; font-family: Liberation Sans;" textLength="33.73px" lengthAdjust="spacingAndGlyphs">SCENT</text>
  </g>
  <polyline points="604.42,235.52 628.32,235.52 628.24,235.52 628.58,235.51 628.92,235.44 629.25,235.31 629.55,235.14 629.82,234.92 630.05,234.66 630.24,234.37 630.37,234.05 630.46,233.71 630.48,233.36 630.48,233.36 630.48,223.61 630.48,223.61 630.46,223.26 630.37,222.92 630.24,222.60 630.05,222.31 629.82,222.05 629.55,221.83 629.25,221.66 628.92,221.53 628.58,221.46 628.32,221.45 604.42,221.45 604.68,221.46 604.34,221.45 603.99,221.49 603.66,221.59 603.34,221.74 603.06,221.93 602.81,222.17 602.60,222.45 602.44,222.76 602.33,223.09 602.27,223.43 602.26,223.61 602.26,233.36 602.27,233.19 602.27,233.54 602.33,233.88 602.44,234.21 602.60,234.52 602.81,234.79 603.06,235.04 603.34,235.23 603.66,235.38 603.99,235.48 604.34,235.52 " style="stroke-width: 0.53; stroke: #FF4237; fill: #FFFFFF;" clip-path="url(#cpNi45NzM4NXw3MTMuMDI2fDI4MS4yMjd8Ni45NzM4NQ==)"/>
  <g clip-path="url(#cpNi45NzM4NXw3MTMuMDI2fDI4MS4yMjd8Ni45NzM4NQ==)">
    <text x="605.86" y="231.92" style="font-size: 9.96px; fill: #FF4237; font-family: Liberation Sans;" textLength="21.02px" lengthAdjust="spacingAndGlyphs">AGA</text>
  </g>
  <polyline points="510.90,231.01 534.79,231.01 534.70,231.00 535.05,230.99 535.39,230.92 535.72,230.80 536.02,230.62 536.29,230.40 536.52,230.14 536.70,229.85 536.84,229.53 536.92,229.19 536.95,228.85 536.95,228.85 536.95,219.09 536.95,219.09 536.92,218.74 536.84,218.41 536.70,218.09 536.52,217.79 536.29,217.53 536.02,217.31 535.72,217.14 535.39,217.02 535.05,216.95 534.79,216.93 510.90,216.93 511.16,216.95 510.81,216.93 510.47,216.97 510.14,217.07 509.82,217.22 509.54,217.42 509.28,217.66 509.08,217.94 508.91,218.24 508.80,218.57 508.75,218.92 508.74,219.09 508.74,228.85 508.75,228.67 508.75,229.02 508.80,229.36 508.91,229.69 509.08,230.00 509.28,230.28 509.54,230.52 509.82,230.72 510.14,230.86 510.47,230.96 510.81,231.00 " style="stroke-width: 0.53; stroke: #CFBF00; fill: #FFFFFF;" clip-path="url(#cpNi45NzM4NXw3MTMuMDI2fDI4MS4yMjd8Ni45NzM4NQ==)"/>
  <g clip-path="url(#cpNi45NzM4NXw3MTMuMDI2fDI4MS4yMjd8Ni45NzM4NQ==)">
    <text x="512.34" y="227.41" style="font-size: 9.96px; fill: #CFBF00; font-family: Liberation Sans;" textLength="21.01px" lengthAdjust="spacingAndGlyphs">MFA</text>
  </g>
  <polyline points="357.18,252.68 403.79,252.68 403.70,252.68 404.05,252.67 404.39,252.60 404.71,252.48 405.01,252.30 405.28,252.08 405.51,251.82 405.70,251.53 405.84,251.21 405.92,250.87 405.95,250.52 405.95,250.52 405.95,240.77 405.95,240.77 405.92,240.42 405.84,240.08 405.70,239.76 405.51,239.47 405.28,239.21 405.01,238.99 404.71,238.82 404.39,238.69 404.05,238.62 403.79,238.61 357.18,238.61 357.44,238.62 357.10,238.61 356.75,238.65 356.42,238.75 356.10,238.90 355.82,239.10 355.57,239.34 355.36,239.61 355.20,239.92 355.09,240.25 355.03,240.59 355.02,240.77 355.02,250.52 355.03,250.35 355.03,250.70 355.09,251.04 355.20,251.37 355.36,251.68 355.57,251.96 355.82,252.20 356.10,252.39 356.42,252.54 356.75,252.64 357.10,252.68 " style="stroke-width: 0.53; stroke: #AF0DC7; fill: #FFFFFF;" clip-path="url(#cpNi45NzM4NXw3MTMuMDI2fDI4MS4yMjd8Ni45NzM4NQ==)"/>
  <g clip-path="url(#cpNi45NzM4NXw3MTMuMDI2fDI4MS4yMjd8Ni45NzM4NQ==)">
    <text x="358.62" y="249.08" style="font-size: 9.96px; fill: #AF0DC7; font-family: Liberation Sans;" textLength="43.72px" lengthAdjust="spacingAndGlyphs">pseudogp</text>
  </g>
  <polyline points="615.73,274.96 645.16,274.96 645.07,274.96 645.42,274.95 645.76,274.88 646.09,274.76 646.39,274.58 646.66,274.36 646.89,274.10 647.07,273.81 647.21,273.49 647.29,273.15 647.32,272.80 647.32,272.80 647.32,263.05 647.32,263.05 647.29,262.70 647.21,262.36 647.07,262.04 646.89,261.75 646.66,261.49 646.39,261.27 646.09,261.10 645.76,260.97 645.42,260.90 645.16,260.89 615.73,260.89 615.99,260.90 615.64,260.89 615.30,260.93 614.96,261.03 614.65,261.18 614.36,261.38 614.11,261.62 613.90,261.89 613.74,262.20 613.63,262.53 613.58,262.87 613.57,263.05 613.57,272.80 613.58,272.63 613.58,272.98 613.63,273.32 613.74,273.65 613.90,273.96 614.11,274.24 614.36,274.48 614.65,274.67 614.96,274.82 615.30,274.92 615.64,274.96 " style="stroke-width: 0.53; stroke: #AF0DC7; fill: #FFFFFF;" clip-path="url(#cpNi45NzM4NXw3MTMuMDI2fDI4MS4yMjd8Ni45NzM4NQ==)"/>
  <g clip-path="url(#cpNi45NzM4NXw3MTMuMDI2fDI4MS4yMjd8Ni45NzM4NQ==)">
    <text x="617.17" y="271.36" style="font-size: 9.96px; fill: #AF0DC7; font-family: Liberation Sans;" textLength="26.55px" lengthAdjust="spacingAndGlyphs">iCpSc</text>
  </g>
  <polyline points="266.54,255.66 326.41,255.66 326.32,255.66 326.67,255.64 327.01,255.57 327.34,255.45 327.64,255.28 327.91,255.06 328.14,254.80 328.32,254.50 328.46,254.18 328.54,253.84 328.57,253.50 328.57,253.50 328.57,243.74 328.57,243.74 328.54,243.40 328.46,243.06 328.32,242.74 328.14,242.45 327.91,242.19 327.64,241.97 327.34,241.79 327.01,241.67 326.67,241.60 326.41,241.58 266.54,241.58 266.80,241.60 266.45,241.58 266.11,241.63 265.77,241.72 265.46,241.87 265.17,242.07 264.92,242.31 264.71,242.59 264.55,242.90 264.44,243.23 264.39,243.57 264.38,243.74 264.38,253.50 264.39,253.32 264.39,253.67 264.44,254.01 264.55,254.34 264.71,254.65 264.92,254.93 265.17,255.17 265.46,255.37 265.77,255.52 266.11,255.61 266.45,255.66 " style="stroke-width: 0.53; stroke: #AF0DC7; fill: #FFFFFF;" clip-path="url(#cpNi45NzM4NXw3MTMuMDI2fDI4MS4yMjd8Ni45NzM4NQ==)"/>
  <g clip-path="url(#cpNi45NzM4NXw3MTMuMDI2fDI4MS4yMjd8Ni45NzM4NQ==)">
    <text x="267.98" y="252.06" style="font-size: 9.96px; fill: #AF0DC7; font-family: Liberation Sans;" textLength="56.99px" lengthAdjust="spacingAndGlyphs">gpseudotime</text>
  </g>
  <polyline points="568.42,230.71 592.32,230.71 592.23,230.71 592.58,230.70 592.92,230.63 593.25,230.50 593.55,230.33 593.82,230.11 594.05,229.85 594.23,229.56 594.37,229.24 594.45,228.90 594.48,228.55 594.48,228.55 594.48,218.80 594.48,218.80 594.45,218.45 594.37,218.11 594.23,217.79 594.05,217.50 593.82,217.24 593.55,217.02 593.25,216.85 592.92,216.72 592.58,216.65 592.32,216.64 568.42,216.64 568.68,216.65 568.33,216.64 567.99,216.68 567.65,216.78 567.34,216.93 567.05,217.12 566.80,217.36 566.59,217.64 566.43,217.95 566.32,218.28 566.27,218.62 566.26,218.80 566.26,228.55 566.27,228.38 566.27,228.73 566.32,229.07 566.43,229.40 566.59,229.71 566.80,229.98 567.05,230.23 567.34,230.42 567.65,230.57 567.99,230.67 568.33,230.71 " style="stroke-width: 0.53; stroke: #0073D7; fill: #FFFFFF;" clip-path="url(#cpNi45NzM4NXw3MTMuMDI2fDI4MS4yMjd8Ni45NzM4NQ==)"/>
  <g clip-path="url(#cpNi45NzM4NXw3MTMuMDI2fDI4MS4yMjd8Ni45NzM4NQ==)">
    <text x="569.86" y="227.11" style="font-size: 9.96px; fill: #0073D7; font-family: Liberation Sans;" textLength="21.02px" lengthAdjust="spacingAndGlyphs">BGP</text>
  </g>
  <polyline points="568.14,181.31 590.94,181.31 590.85,181.31 591.20,181.29 591.54,181.23 591.87,181.10 592.17,180.93 592.44,180.71 592.67,180.45 592.85,180.15 592.99,179.83 593.07,179.50 593.10,179.15 593.10,179.15 593.10,169.40 593.10,169.40 593.07,169.05 592.99,168.71 592.85,168.39 592.67,168.10 592.44,167.84 592.17,167.62 591.87,167.44 591.54,167.32 591.20,167.25 590.94,167.24 568.14,167.24 568.40,167.25 568.06,167.24 567.71,167.28 567.38,167.38 567.06,167.53 566.78,167.72 566.53,167.96 566.32,168.24 566.16,168.55 566.05,168.88 565.99,169.22 565.98,169.40 565.98,179.15 565.99,178.98 565.99,179.32 566.05,179.67 566.16,180.00 566.32,180.31 566.53,180.58 566.78,180.82 567.06,181.02 567.38,181.17 567.71,181.27 568.06,181.31 " style="stroke-width: 0.53; stroke: #CFBF00; fill: #FFFFFF;" clip-path="url(#cpNi45NzM4NXw3MTMuMDI2fDI4MS4yMjd8Ni45NzM4NQ==)"/>
  <g clip-path="url(#cpNi45NzM4NXw3MTMuMDI2fDI4MS4yMjd8Ni45NzM4NQ==)">
    <text x="569.58" y="177.71" style="font-size: 9.96px; fill: #CFBF00; font-family: Liberation Sans;" textLength="19.92px" lengthAdjust="spacingAndGlyphs">PBA</text>
  </g>
  <polyline points="400.80,158.09 431.35,158.09 431.26,158.09 431.61,158.08 431.95,158.01 432.27,157.89 432.57,157.71 432.84,157.49 433.07,157.23 433.26,156.94 433.40,156.62 433.48,156.28 433.51,155.93 433.51,155.93 433.51,146.18 433.51,146.18 433.48,145.83 433.40,145.49 433.26,145.18 433.07,144.88 432.84,144.62 432.57,144.40 432.27,144.23 431.95,144.10 431.61,144.03 431.35,144.02 400.80,144.02 401.06,144.03 400.72,144.02 400.37,144.06 400.04,144.16 399.72,144.31 399.44,144.51 399.19,144.75 398.98,145.02 398.82,145.33 398.71,145.66 398.65,146.01 398.64,146.18 398.64,155.93 398.65,155.76 398.65,156.11 398.71,156.45 398.82,156.78 398.98,157.09 399.19,157.37 399.44,157.61 399.72,157.80 400.04,157.95 400.37,158.05 400.72,158.09 " style="stroke-width: 0.53; stroke: #5ECD2E; fill: #FFFFFF;" clip-path="url(#cpNi45NzM4NXw3MTMuMDI2fDI4MS4yMjd8Ni45NzM4NQ==)"/>
  <g clip-path="url(#cpNi45NzM4NXw3MTMuMDI2fDI4MS4yMjd8Ni45NzM4NQ==)">
    <text x="402.24" y="154.49" style="font-size: 9.96px; fill: #5ECD2E; font-family: Liberation Sans;" textLength="27.66px" lengthAdjust="spacingAndGlyphs">Mpath</text>
  </g>
  <defs>
    <clipPath id="cpMHw3MjB8MzI0fDA=">
      <rect x="0.00" y="0.00" width="720.00" height="324.00"/>
    </clipPath>
  </defs>
  <polyline points="6.97,281.23 713.03,281.23 " style="stroke-width: 1.07; stroke-linecap: square;" clip-path="url(#cpMHw3MjB8MzI0fDA=)"/>
  <polyline points="39.07,284.71 39.07,281.23 " style="stroke-width: 1.07; stroke-linecap: butt;" clip-path="url(#cpMHw3MjB8MzI0fDA=)"/>
  <polyline points="190.12,284.71 190.12,281.23 " style="stroke-width: 1.07; stroke-linecap: butt;" clip-path="url(#cpMHw3MjB8MzI0fDA=)"/>
  <polyline points="341.17,284.71 341.17,281.23 " style="stroke-width: 1.07; stroke-linecap: butt;" clip-path="url(#cpMHw3MjB8MzI0fDA=)"/>
  <polyline points="492.64,284.71 492.64,281.23 " style="stroke-width: 1.07; stroke-linecap: butt;" clip-path="url(#cpMHw3MjB8MzI0fDA=)"/>
  <polyline points="643.69,284.71 643.69,281.23 " style="stroke-width: 1.07; stroke-linecap: butt;" clip-path="url(#cpMHw3MjB8MzI0fDA=)"/>
  <g clip-path="url(#cpMHw3MjB8MzI0fDA=)">
    <text x="25.72" y="295.95" style="font-size: 12.00px; font-family: Liberation Sans;" textLength="26.70px" lengthAdjust="spacingAndGlyphs">2014</text>
  </g>
  <g clip-path="url(#cpMHw3MjB8MzI0fDA=)">
    <text x="176.77" y="295.95" style="font-size: 12.00px; font-family: Liberation Sans;" textLength="26.70px" lengthAdjust="spacingAndGlyphs">2015</text>
  </g>
  <g clip-path="url(#cpMHw3MjB8MzI0fDA=)">
    <text x="327.82" y="295.95" style="font-size: 12.00px; font-family: Liberation Sans;" textLength="26.70px" lengthAdjust="spacingAndGlyphs">2016</text>
  </g>
  <g clip-path="url(#cpMHw3MjB8MzI0fDA=)">
    <text x="479.29" y="295.95" style="font-size: 12.00px; font-family: Liberation Sans;" textLength="26.70px" lengthAdjust="spacingAndGlyphs">2017</text>
  </g>
  <g clip-path="url(#cpMHw3MjB8MzI0fDA=)">
    <text x="630.34" y="295.95" style="font-size: 12.00px; font-family: Liberation Sans;" textLength="26.70px" lengthAdjust="spacingAndGlyphs">2018</text>
  </g>
  <g clip-path="url(#cpMHw3MjB8MzI0fDA=)">
    <text x="312.13" y="312.80" style="font-size: 14.00px; font-family: Liberation Sans;" textLength="95.74px" lengthAdjust="spacingAndGlyphs">Publishing date</text>
  </g>
</svg>
