<?xml version="1.0" encoding="UTF-8"?>
<svg xmlns="http://www.w3.org/2000/svg" xmlns:xlink="http://www.w3.org/1999/xlink" viewBox="0 0 720.00 252.00">
  <defs>
    <style type="text/css"><![CDATA[
    line, polyline, path, rect, circle {
      fill: none;
      stroke: #000000;
      stroke-linecap: round;
      stroke-linejoin: round;
      stroke-miterlimit: 10.00;
    }
  ]]></style>
  </defs>
  <line x1="291.51" y1="183.41" x2="291.51" y2="209.23" style="stroke-width: 1.07; stroke: #AF0DC7;" clip-path="url(#cpNi45NzM4NXw3MTMuMDI2fDIwOS4yMjd8Ni45NzM4NQ==)"/>
  <line x1="517.88" y1="167.10" x2="517.88" y2="209.23" style="stroke-width: 1.07; stroke: #CFBF00;" clip-path="url(#cpNi45NzM4NXw3MTMuMDI2fDIwOS4yMjd8Ni45NzM4NQ==)"/>
  <line x1="569.61" y1="197.74" x2="569.61" y2="209.23" style="stroke-width: 1.07; stroke: #AF0DC7;" clip-path="url(#cpNi45NzM4NXw3MTMuMDI2fDIwOS4yMjd8Ni45NzM4NQ==)"/>
  <line x1="554.71" y1="181.48" x2="554.71" y2="209.23" style="stroke-width: 1.07; stroke: #AF0DC7;" clip-path="url(#cpNi45NzM4NXw3MTMuMDI2fDIwOS4yMjd8Ni45NzM4NQ==)"/>
  <line x1="487.26" y1="203.36" x2="487.26" y2="209.23" style="stroke-width: 1.07; stroke: #5ECD2E;" clip-path="url(#cpNi45NzM4NXw3MTMuMDI2fDIwOS4yMjd8Ni45NzM4NQ==)"/>
  <line x1="466.56" y1="169.85" x2="466.56" y2="209.23" style="stroke-width: 1.07; stroke: #AF0DC7;" clip-path="url(#cpNi45NzM4NXw3MTMuMDI2fDIwOS4yMjd8Ni45NzM4NQ==)"/>
  <line x1="522.85" y1="147.00" x2="522.85" y2="209.23" style="stroke-width: 1.07; stroke: #CFBF00;" clip-path="url(#cpNi45NzM4NXw3MTMuMDI2fDIwOS4yMjd8Ni45NzM4NQ==)"/>
  <line x1="577.89" y1="162.68" x2="577.89" y2="209.22" style="stroke-width: 1.07; stroke: #AF0DC7;" clip-path="url(#cpNi45NzM4NXw3MTMuMDI2fDIwOS4yMjd8Ni45NzM4NQ==)"/>
  <line x1="406.97" y1="171.01" x2="406.97" y2="209.22" style="stroke-width: 1.07; stroke: #CFBF00;" clip-path="url(#cpNi45NzM4NXw3MTMuMDI2fDIwOS4yMjd8Ni45NzM4NQ==)"/>
  <line x1="410.70" y1="92.04" x2="410.70" y2="209.22" style="stroke-width: 1.07; stroke: #AF0DC7;" clip-path="url(#cpNi45NzM4NXw3MTMuMDI2fDIwOS4yMjd8Ni45NzM4NQ==)"/>
  <line x1="200.88" y1="205.34" x2="200.88" y2="209.22" style="stroke-width: 1.07; stroke: #5ECD2E;" clip-path="url(#cpNi45NzM4NXw3MTMuMDI2fDIwOS4yMjd8Ni45NzM4NQ==)"/>
  <line x1="531.12" y1="202.57" x2="531.12" y2="209.22" style="stroke-width: 1.07; stroke: #5ECD2E;" clip-path="url(#cpNi45NzM4NXw3MTMuMDI2fDIwOS4yMjd8Ni45NzM4NQ==)"/>
  <line x1="651.96" y1="205.55" x2="651.96" y2="209.22" style="stroke-width: 1.07; stroke: #5ECD2E;" clip-path="url(#cpNi45NzM4NXw3MTMuMDI2fDIwOS4yMjd8Ni45NzM4NQ==)"/>
  <line x1="396.21" y1="194.42" x2="396.21" y2="209.22" style="stroke-width: 1.07; stroke: #5ECD2E;" clip-path="url(#cpNi45NzM4NXw3MTMuMDI2fDIwOS4yMjd8Ni45NzM4NQ==)"/>
  <line x1="616.37" y1="183.71" x2="616.37" y2="209.22" style="stroke-width: 1.07; stroke: #FF4237;" clip-path="url(#cpNi45NzM4NXw3MTMuMDI2fDIwOS4yMjd8Ni45NzM4NQ==)"/>
  <line x1="572.09" y1="146.27" x2="572.09" y2="209.22" style="stroke-width: 1.07; stroke: #AF0DC7;" clip-path="url(#cpNi45NzM4NXw3MTMuMDI2fDIwOS4yMjd8Ni45NzM4NQ==)"/>
  <line x1="537.33" y1="127.34" x2="537.33" y2="209.22" style="stroke-width: 1.07; stroke: #5ECD2E;" clip-path="url(#cpNi45NzM4NXw3MTMuMDI2fDIwOS4yMjd8Ni45NzM4NQ==)"/>
  <line x1="457.05" y1="149.23" x2="457.05" y2="209.22" style="stroke-width: 1.07; stroke: #AF0DC7;" clip-path="url(#cpNi45NzM4NXw3MTMuMDI2fDIwOS4yMjd8Ni45NzM4NQ==)"/>
  <line x1="580.37" y1="111.20" x2="580.37" y2="209.22" style="stroke-width: 1.07; stroke: #0073D7;" clip-path="url(#cpNi45NzM4NXw3MTMuMDI2fDIwOS4yMjd8Ni45NzM4NQ==)"/>
  <line x1="656.10" y1="111.99" x2="656.10" y2="209.22" style="stroke-width: 1.07; stroke: #FF8821;" clip-path="url(#cpNi45NzM4NXw3MTMuMDI2fDIwOS4yMjd8Ni45NzM4NQ==)"/>
  <line x1="514.16" y1="108.82" x2="514.16" y2="209.22" style="stroke-width: 1.07; stroke: #5ECD2E;" clip-path="url(#cpNi45NzM4NXw3MTMuMDI2fDIwOS4yMjd8Ni45NzM4NQ==)"/>
  <line x1="76.31" y1="202.83" x2="76.31" y2="209.22" style="stroke-width: 1.07; stroke: #5ECD2E;" clip-path="url(#cpNi45NzM4NXw3MTMuMDI2fDIwOS4yMjd8Ni45NzM4NQ==)"/>
  <line x1="189.29" y1="183.33" x2="189.29" y2="209.22" style="stroke-width: 1.07; stroke: #5ECD2E;" clip-path="url(#cpNi45NzM4NXw3MTMuMDI2fDIwOS4yMjd8Ni45NzM4NQ==)"/>
  <line x1="296.48" y1="161.99" x2="296.48" y2="209.22" style="stroke-width: 1.07; stroke: #AF0DC7;" clip-path="url(#cpNi45NzM4NXw3MTMuMDI2fDIwOS4yMjd8Ni45NzM4NQ==)"/>
  <line x1="416.08" y1="131.29" x2="416.08" y2="209.22" style="stroke-width: 1.07; stroke: #5ECD2E;" clip-path="url(#cpNi45NzM4NXw3MTMuMDI2fDIwOS4yMjd8Ni45NzM4NQ==)"/>
  <line x1="85.83" y1="180.81" x2="85.83" y2="209.22" style="stroke-width: 1.07; stroke: #AF0DC7;" clip-path="url(#cpNi45NzM4NXw3MTMuMDI2fDIwOS4yMjd8Ni45NzM4NQ==)"/>
  <line x1="391.66" y1="150.45" x2="391.66" y2="209.22" style="stroke-width: 1.07; stroke: #0073D7;" clip-path="url(#cpNi45NzM4NXw3MTMuMDI2fDIwOS4yMjd8Ni45NzM4NQ==)"/>
  <line x1="412.35" y1="65.68" x2="412.35" y2="209.22" style="stroke-width: 1.07; stroke: #5ECD2E;" clip-path="url(#cpNi45NzM4NXw3MTMuMDI2fDIwOS4yMjd8Ni45NzM4NQ==)"/>
  <line x1="513.74" y1="75.45" x2="513.74" y2="209.22" style="stroke-width: 1.07; stroke: #5ECD2E;" clip-path="url(#cpNi45NzM4NXw3MTMuMDI2fDIwOS4yMjd8Ni45NzM4NQ==)"/>
  <line x1="380.49" y1="110.19" x2="380.49" y2="209.22" style="stroke-width: 1.07; stroke: #AF0DC7;" clip-path="url(#cpNi45NzM4NXw3MTMuMDI2fDIwOS4yMjd8Ni45NzM4NQ==)"/>
  <line x1="435.94" y1="189.76" x2="435.94" y2="209.22" style="stroke-width: 1.07; stroke: #AF0DC7;" clip-path="url(#cpNi45NzM4NXw3MTMuMDI2fDIwOS4yMjd8Ni45NzM4NQ==)"/>
  <line x1="345.72" y1="205.07" x2="345.72" y2="209.22" style="stroke-width: 1.07; stroke: #5ECD2E;" clip-path="url(#cpNi45NzM4NXw3MTMuMDI2fDIwOS4yMjd8Ni45NzM4NQ==)"/>
  <line x1="564.64" y1="39.30" x2="564.64" y2="209.22" style="stroke-width: 1.07; stroke: #AF0DC7;" clip-path="url(#cpNi45NzM4NXw3MTMuMDI2fDIwOS4yMjd8Ni45NzM4NQ==)"/>
  <line x1="562.57" y1="24.65" x2="562.57" y2="209.21" style="stroke-width: 1.07; stroke: #39CCCC;" clip-path="url(#cpNi45NzM4NXw3MTMuMDI2fDIwOS4yMjd8Ni45NzM4NQ==)"/>
  <line x1="579.54" y1="89.93" x2="579.54" y2="209.21" style="stroke-width: 1.07; stroke: #CFBF00;" clip-path="url(#cpNi45NzM4NXw3MTMuMDI2fDIwOS4yMjd8Ni45NzM4NQ==)"/>
  <line x1="510.43" y1="24.65" x2="510.43" y2="209.21" style="stroke-width: 1.07; stroke: #AF0DC7;" clip-path="url(#cpNi45NzM4NXw3MTMuMDI2fDIwOS4yMjd8Ni45NzM4NQ==)"/>
  <line x1="630.44" y1="158.32" x2="630.44" y2="209.21" style="stroke-width: 1.07; stroke: #AF0DC7;" clip-path="url(#cpNi45NzM4NXw3MTMuMDI2fDIwOS4yMjd8Ni45NzM4NQ==)"/>
  <line x1="382.14" y1="78.32" x2="382.14" y2="209.21" style="stroke-width: 1.07; stroke: #FF8821;" clip-path="url(#cpNi45NzM4NXw3MTMuMDI2fDIwOS4yMjd8Ni45NzM4NQ==)"/>
  <line x1="624.24" y1="132.51" x2="624.24" y2="209.21" style="stroke-width: 1.07; stroke: #5ECD2E;" clip-path="url(#cpNi45NzM4NXw3MTMuMDI2fDIwOS4yMjd8Ni45NzM4NQ==)"/>
  <line x1="603.96" y1="70.55" x2="603.96" y2="209.21" style="stroke-width: 1.07; stroke: #FF8821;" clip-path="url(#cpNi45NzM4NXw3MTMuMDI2fDIwOS4yMjd8Ni45NzM4NQ==)"/>
  <line x1="434.28" y1="112.64" x2="434.28" y2="209.21" style="stroke-width: 1.07; stroke: #5ECD2E;" clip-path="url(#cpNi45NzM4NXw3MTMuMDI2fDIwOS4yMjd8Ni45NzM4NQ==)"/>
  <line x1="356.90" y1="172.95" x2="356.90" y2="209.21" style="stroke-width: 1.07; stroke: #0073D7;" clip-path="url(#cpNi45NzM4NXw3MTMuMDI2fDIwOS4yMjd8Ni45NzM4NQ==)"/>
  <line x1="297.72" y1="139.94" x2="297.72" y2="209.21" style="stroke-width: 1.07; stroke: #AF0DC7;" clip-path="url(#cpNi45NzM4NXw3MTMuMDI2fDIwOS4yMjd8Ni45NzM4NQ==)"/>
  <line x1="485.60" y1="91.09" x2="485.60" y2="209.21" style="stroke-width: 1.07; stroke: #5ECD2E;" clip-path="url(#cpNi45NzM4NXw3MTMuMDI2fDIwOS4yMjd8Ni45NzM4NQ==)"/>
  <line x1="455.80" y1="45.42" x2="455.80" y2="209.21" style="stroke-width: 1.07; stroke: #AF0DC7;" clip-path="url(#cpNi45NzM4NXw3MTMuMDI2fDIwOS4yMjd8Ni45NzM4NQ==)"/>
  <line x1="413.18" y1="24.65" x2="413.18" y2="209.21" style="stroke-width: 1.07; stroke: #AF0DC7;" clip-path="url(#cpNi45NzM4NXw3MTMuMDI2fDIwOS4yMjd8Ni45NzM4NQ==)"/>
  <line x1="583.68" y1="50.78" x2="583.68" y2="209.21" style="stroke-width: 1.07; stroke: #0073D7;" clip-path="url(#cpNi45NzM4NXw3MTMuMDI2fDIwOS4yMjd8Ni45NzM4NQ==)"/>
  <line x1="255.51" y1="204.99" x2="255.51" y2="209.21" style="stroke-width: 1.07; stroke: #AF0DC7;" clip-path="url(#cpNi45NzM4NXw3MTMuMDI2fDIwOS4yMjd8Ni45NzM4NQ==)"/>
  <line x1="542.30" y1="59.83" x2="542.30" y2="209.21" style="stroke-width: 1.07; stroke: #AF0DC7;" clip-path="url(#cpNi45NzM4NXw3MTMuMDI2fDIwOS4yMjd8Ni45NzM4NQ==)"/>
  <line x1="631.69" y1="91.50" x2="631.69" y2="209.21" style="stroke-width: 1.07; stroke: #CFBF00;" clip-path="url(#cpNi45NzM4NXw3MTMuMDI2fDIwOS4yMjd8Ni45NzM4NQ==)"/>
  <line x1="386.28" y1="45.12" x2="386.28" y2="209.21" style="stroke-width: 1.07; stroke: #AF0DC7;" clip-path="url(#cpNi45NzM4NXw3MTMuMDI2fDIwOS4yMjd8Ni45NzM4NQ==)"/>
  <defs>
    <clipPath id="cpNi45NzM4NXw3MTMuMDI2fDIwOS4yMjd8Ni45NzM4NQ==">
      <rect x="6.97" y="6.97" width="706.05" height="202.25"/>
    </clipPath>
  </defs>
  <polyline points="372.95,45.12 399.61,45.12 399.52,45.12 399.87,45.11 400.21,45.04 400.54,44.92 400.84,44.74 401.11,44.52 401.34,44.26 401.52,43.97 401.66,43.65 401.74,43.31 401.77,42.96 401.77,42.96 401.77,33.21 401.77,33.21 401.74,32.86 401.66,32.53 401.52,32.21 401.34,31.91 401.11,31.65 400.84,31.43 400.54,31.26 400.21,31.14 399.87,31.07 399.61,31.05 372.95,31.05 373.21,31.07 372.86,31.05 372.51,31.09 372.18,31.19 371.87,31.34 371.58,31.54 371.33,31.78 371.12,32.06 370.96,32.36 370.85,32.69 370.79,33.04 370.79,33.21 370.79,42.96 370.79,42.79 370.79,43.14 370.85,43.48 370.96,43.81 371.12,44.12 371.33,44.40 371.58,44.64 371.87,44.84 372.18,44.98 372.51,45.08 372.86,45.12 " style="stroke-width: 0.53; stroke: #AF0DC7; fill: #FFFFFF;" clip-path="url(#cpNi45NzM4NXw3MTMuMDI2fDIwOS4yMjd8Ni45NzM4NQ==)"/>
  <g clip-path="url(#cpNi45NzM4NXw3MTMuMDI2fDIwOS4yMjd8Ni45NzM4NQ==)">
    <text x="374.39" y="41.52" style="font-size: 9.96px; fill: #AF0DC7; font-family: Liberation Sans;" textLength="23.78px" lengthAdjust="spacingAndGlyphs">SCell</text>
  </g>
  <polyline points="607.84,91.50 655.53,91.50 655.44,91.49 655.79,91.48 656.13,91.41 656.45,91.29 656.75,91.11 657.02,90.89 657.25,90.63 657.44,90.34 657.58,90.02 657.66,89.68 657.69,89.34 657.69,89.34 657.69,79.58 657.69,79.58 657.66,79.24 657.58,78.90 657.44,78.58 657.25,78.28 657.02,78.02 656.75,77.80 656.45,77.63 656.13,77.51 655.79,77.44 655.53,77.42 607.84,77.42 608.10,77.44 607.76,77.42 607.41,77.47 607.08,77.56 606.76,77.71 606.48,77.91 606.23,78.15 606.02,78.43 605.86,78.74 605.75,79.06 605.69,79.41 605.68,79.58 605.68,89.34 605.69,89.16 605.69,89.51 605.75,89.85 605.86,90.18 606.02,90.49 606.23,90.77 606.48,91.01 606.76,91.21 607.08,91.36 607.41,91.45 607.76,91.49 " style="stroke-width: 0.53; stroke: #CFBF00; fill: #FFFFFF;" clip-path="url(#cpNi45NzM4NXw3MTMuMDI2fDIwOS4yMjd8Ni45NzM4NQ==)"/>
  <g clip-path="url(#cpNi45NzM4NXw3MTMuMDI2fDIwOS4yMjd8Ni45NzM4NQ==)">
    <text x="609.28" y="87.90" style="font-size: 9.96px; fill: #CFBF00; font-family: Liberation Sans;" textLength="44.80px" lengthAdjust="spacingAndGlyphs">GrandPrix</text>
  </g>
  <polyline points="525.93,59.83 558.67,59.83 558.58,59.83 558.93,59.82 559.27,59.75 559.59,59.63 559.89,59.45 560.16,59.23 560.39,58.97 560.58,58.68 560.72,58.36 560.80,58.02 560.83,57.67 560.83,57.67 560.83,47.92 560.83,47.92 560.80,47.57 560.72,47.24 560.58,46.92 560.39,46.62 560.16,46.36 559.89,46.14 559.59,45.97 559.27,45.84 558.93,45.77 558.67,45.76 525.93,45.76 526.19,45.77 525.84,45.76 525.49,45.80 525.16,45.90 524.85,46.05 524.56,46.25 524.31,46.49 524.10,46.76 523.94,47.07 523.83,47.40 523.77,47.75 523.77,47.92 523.77,57.67 523.77,57.50 523.77,57.85 523.83,58.19 523.94,58.52 524.10,58.83 524.31,59.11 524.56,59.35 524.85,59.54 525.16,59.69 525.49,59.79 525.84,59.83 " style="stroke-width: 0.53; stroke: #AF0DC7; fill: #FFFFFF;" clip-path="url(#cpNi45NzM4NXw3MTMuMDI2fDIwOS4yMjd8Ni45NzM4NQ==)"/>
  <g clip-path="url(#cpNi45NzM4NXw3MTMuMDI2fDIwOS4yMjd8Ni45NzM4NQ==)">
    <text x="527.37" y="56.23" style="font-size: 9.96px; fill: #AF0DC7; font-family: Liberation Sans;" textLength="29.86px" lengthAdjust="spacingAndGlyphs">scTDA</text>
  </g>
  <polyline points="239.69,204.99 271.32,204.99 271.24,204.99 271.58,204.97 271.92,204.90 272.25,204.78 272.55,204.61 272.82,204.39 273.05,204.13 273.24,203.83 273.37,203.51 273.46,203.17 273.48,202.83 273.48,202.83 273.48,193.07 273.48,193.07 273.46,192.73 273.37,192.39 273.24,192.07 273.05,191.78 272.82,191.51 272.55,191.29 272.25,191.12 271.92,191.00 271.58,190.93 271.32,190.91 239.69,190.91 239.95,190.93 239.60,190.91 239.26,190.96 238.92,191.05 238.61,191.20 238.32,191.40 238.07,191.64 237.86,191.92 237.70,192.23 237.59,192.56 237.53,192.90 237.53,193.07 237.53,202.83 237.53,202.65 237.53,203.00 237.59,203.34 237.70,203.67 237.86,203.98 238.07,204.26 238.32,204.50 238.61,204.70 238.92,204.85 239.26,204.94 239.60,204.99 " style="stroke-width: 0.53; stroke: #AF0DC7; fill: #FFFFFF;" clip-path="url(#cpNi45NzM4NXw3MTMuMDI2fDIwOS4yMjd8Ni45NzM4NQ==)"/>
  <g clip-path="url(#cpNi45NzM4NXw3MTMuMDI2fDIwOS4yMjd8Ni45NzM4NQ==)">
    <text x="241.13" y="201.39" style="font-size: 9.96px; fill: #AF0DC7; font-family: Liberation Sans;" textLength="28.76px" lengthAdjust="spacingAndGlyphs">NBOR</text>
  </g>
  <polyline points="566.47,50.78 600.89,50.78 600.80,50.77 601.15,50.76 601.49,50.69 601.81,50.57 602.12,50.39 602.38,50.17 602.62,49.91 602.80,49.62 602.94,49.30 603.02,48.96 603.05,48.62 603.05,48.62 603.05,38.86 603.05,38.86 603.02,38.51 602.94,38.18 602.80,37.86 602.62,37.56 602.38,37.30 602.12,37.08 601.81,36.91 601.49,36.79 601.15,36.72 600.89,36.70 566.47,36.70 566.73,36.72 566.39,36.70 566.04,36.74 565.71,36.84 565.39,36.99 565.11,37.19 564.86,37.43 564.65,37.71 564.49,38.01 564.38,38.34 564.32,38.69 564.31,38.86 564.31,48.62 564.32,48.44 564.32,48.79 564.38,49.13 564.49,49.46 564.65,49.77 564.86,50.05 565.11,50.29 565.39,50.49 565.71,50.64 566.04,50.73 566.39,50.77 " style="stroke-width: 0.53; stroke: #0073D7; fill: #FFFFFF;" clip-path="url(#cpNi45NzM4NXw3MTMuMDI2fDIwOS4yMjd8Ni45NzM4NQ==)"/>
  <g clip-path="url(#cpNi45NzM4NXw3MTMuMDI2fDIwOS4yMjd8Ni45NzM4NQ==)">
    <text x="567.91" y="47.18" style="font-size: 9.96px; fill: #0073D7; font-family: Liberation Sans;" textLength="31.54px" lengthAdjust="spacingAndGlyphs">scanpy</text>
  </g>
  <polyline points="400.12,24.65 426.24,24.65 426.15,24.65 426.50,24.63 426.84,24.56 427.16,24.44 427.46,24.27 427.73,24.05 427.96,23.79 428.15,23.49 428.28,23.17 428.37,22.84 428.40,22.49 428.40,22.49 428.40,12.73 428.40,12.73 428.37,12.39 428.28,12.05 428.15,11.73 427.96,11.44 427.73,11.18 427.46,10.96 427.16,10.78 426.84,10.66 426.50,10.59 426.24,10.57 400.12,10.57 400.38,10.59 400.03,10.58 399.69,10.62 399.35,10.71 399.04,10.86 398.75,11.06 398.50,11.30 398.30,11.58 398.13,11.89 398.02,12.22 397.97,12.56 397.96,12.73 397.96,22.49 397.97,22.32 397.97,22.66 398.02,23.01 398.13,23.34 398.30,23.64 398.50,23.92 398.75,24.16 399.04,24.36 399.35,24.51 399.69,24.61 400.03,24.65 " style="stroke-width: 0.53; stroke: #AF0DC7; fill: #FFFFFF;" clip-path="url(#cpNi45NzM4NXw3MTMuMDI2fDIwOS4yMjd8Ni45NzM4NQ==)"/>
  <g clip-path="url(#cpNi45NzM4NXw3MTMuMDI2fDIwOS4yMjd8Ni45NzM4NQ==)">
    <text x="401.56" y="21.05" style="font-size: 9.96px; fill: #AF0DC7; font-family: Liberation Sans;" textLength="23.24px" lengthAdjust="spacingAndGlyphs">Ouija</text>
  </g>
  <polyline points="430.59,45.42 481.02,45.42 480.93,45.41 481.28,45.40 481.62,45.33 481.95,45.21 482.25,45.03 482.52,44.81 482.75,44.55 482.93,44.26 483.07,43.94 483.15,43.60 483.18,43.26 483.18,43.26 483.18,33.50 483.18,33.50 483.15,33.15 483.07,32.82 482.93,32.50 482.75,32.20 482.52,31.94 482.25,31.72 481.95,31.55 481.62,31.43 481.28,31.36 481.02,31.34 430.59,31.34 430.85,31.36 430.50,31.34 430.15,31.39 429.82,31.48 429.51,31.63 429.22,31.83 428.97,32.07 428.76,32.35 428.60,32.65 428.49,32.98 428.43,33.33 428.43,33.50 428.43,43.26 428.43,43.08 428.43,43.43 428.49,43.77 428.60,44.10 428.76,44.41 428.97,44.69 429.22,44.93 429.51,45.13 429.82,45.28 430.15,45.37 430.50,45.41 " style="stroke-width: 0.53; stroke: #AF0DC7; fill: #FFFFFF;" clip-path="url(#cpNi45NzM4NXw3MTMuMDI2fDIwOS4yMjd8Ni45NzM4NQ==)"/>
  <g clip-path="url(#cpNi45NzM4NXw3MTMuMDI2fDIwOS4yMjd8Ni45NzM4NQ==)">
    <text x="432.03" y="41.82" style="font-size: 9.96px; fill: #AF0DC7; font-family: Liberation Sans;" textLength="47.55px" lengthAdjust="spacingAndGlyphs">SCIMITAR</text>
  </g>
  <polyline points="459.54,91.09 511.66,91.09 511.57,91.09 511.92,91.07 512.26,91.01 512.58,90.88 512.89,90.71 513.15,90.49 513.39,90.23 513.57,89.93 513.71,89.61 513.79,89.28 513.82,88.93 513.82,88.93 513.82,79.18 513.82,79.18 513.79,78.83 513.71,78.49 513.57,78.17 513.39,77.88 513.15,77.62 512.89,77.40 512.58,77.22 512.26,77.10 511.92,77.03 511.66,77.02 459.54,77.02 459.80,77.03 459.46,77.02 459.11,77.06 458.78,77.16 458.46,77.30 458.18,77.50 457.93,77.74 457.72,78.02 457.56,78.33 457.45,78.66 457.39,79.00 457.38,79.18 457.38,88.93 457.39,88.76 457.39,89.10 457.45,89.45 457.56,89.78 457.72,90.08 457.93,90.36 458.18,90.60 458.46,90.80 458.78,90.95 459.11,91.05 459.46,91.09 " style="stroke-width: 0.53; stroke: #5ECD2E; fill: #FFFFFF;" clip-path="url(#cpNi45NzM4NXw3MTMuMDI2fDIwOS4yMjd8Ni45NzM4NQ==)"/>
  <g clip-path="url(#cpNi45NzM4NXw3MTMuMDI2fDIwOS4yMjd8Ni45NzM4NQ==)">
    <text x="460.98" y="87.49" style="font-size: 9.96px; fill: #5ECD2E; font-family: Liberation Sans;" textLength="49.24px" lengthAdjust="spacingAndGlyphs">k-branches</text>
  </g>
  <polyline points="276.64,139.94 318.80,139.94 318.71,139.94 319.06,139.93 319.40,139.86 319.72,139.74 320.03,139.56 320.29,139.34 320.53,139.08 320.71,138.79 320.85,138.47 320.93,138.13 320.96,137.78 320.96,137.78 320.96,128.03 320.96,128.03 320.93,127.68 320.85,127.35 320.71,127.03 320.53,126.73 320.29,126.47 320.03,126.25 319.72,126.08 319.40,125.96 319.06,125.89 318.80,125.87 276.64,125.87 276.90,125.89 276.55,125.87 276.20,125.91 275.87,126.01 275.56,126.16 275.27,126.36 275.02,126.60 274.81,126.88 274.65,127.18 274.54,127.51 274.48,127.86 274.48,128.03 274.48,137.78 274.48,137.61 274.48,137.96 274.54,138.30 274.65,138.63 274.81,138.94 275.02,139.22 275.27,139.46 275.56,139.66 275.87,139.80 276.20,139.90 276.55,139.94 " style="stroke-width: 0.53; stroke: #AF0DC7; fill: #FFFFFF;" clip-path="url(#cpNi45NzM4NXw3MTMuMDI2fDIwOS4yMjd8Ni45NzM4NQ==)"/>
  <g clip-path="url(#cpNi45NzM4NXw3MTMuMDI2fDIwOS4yMjd8Ni45NzM4NQ==)">
    <text x="278.08" y="136.34" style="font-size: 9.96px; fill: #AF0DC7; font-family: Liberation Sans;" textLength="39.28px" lengthAdjust="spacingAndGlyphs">embeddr</text>
  </g>
  <polyline points="345.50,172.95 368.29,172.95 368.20,172.95 368.55,172.94 368.89,172.87 369.22,172.75 369.52,172.57 369.79,172.35 370.02,172.09 370.20,171.80 370.34,171.48 370.42,171.14 370.45,170.79 370.45,170.79 370.45,161.04 370.45,161.04 370.42,160.69 370.34,160.35 370.20,160.03 370.02,159.74 369.79,159.48 369.52,159.26 369.22,159.09 368.89,158.96 368.55,158.89 368.29,158.88 345.50,158.88 345.76,158.89 345.42,158.88 345.07,158.92 344.74,159.02 344.42,159.17 344.14,159.37 343.89,159.61 343.68,159.88 343.52,160.19 343.41,160.52 343.35,160.86 343.34,161.04 343.34,170.79 343.35,170.62 343.35,170.97 343.41,171.31 343.52,171.64 343.68,171.95 343.89,172.23 344.14,172.47 344.42,172.66 344.74,172.81 345.07,172.91 345.42,172.95 " style="stroke-width: 0.53; stroke: #0073D7; fill: #FFFFFF;" clip-path="url(#cpNi45NzM4NXw3MTMuMDI2fDIwOS4yMjd8Ni45NzM4NQ==)"/>
  <g clip-path="url(#cpNi45NzM4NXw3MTMuMDI2fDIwOS4yMjd8Ni45NzM4NQ==)">
    <text x="346.94" y="169.35" style="font-size: 9.96px; fill: #0073D7; font-family: Liberation Sans;" textLength="19.91px" lengthAdjust="spacingAndGlyphs">DPT</text>
  </g>
  <polyline points="415.14,112.64 453.42,112.64 453.34,112.64 453.68,112.62 454.03,112.55 454.35,112.43 454.65,112.26 454.92,112.04 455.15,111.78 455.34,111.48 455.47,111.16 455.56,110.83 455.58,110.48 455.58,110.48 455.58,100.72 455.58,100.72 455.56,100.38 455.47,100.04 455.34,99.72 455.15,99.43 454.92,99.17 454.65,98.95 454.35,98.77 454.03,98.65 453.68,98.58 453.42,98.56 415.14,98.56 415.40,98.58 415.06,98.57 414.71,98.61 414.38,98.70 414.06,98.85 413.78,99.05 413.53,99.29 413.32,99.57 413.16,99.88 413.05,100.21 412.99,100.55 412.98,100.72 412.98,110.48 412.99,110.31 412.99,110.65 413.05,111.00 413.16,111.33 413.32,111.63 413.53,111.91 413.78,112.15 414.06,112.35 414.38,112.50 414.71,112.60 415.06,112.64 " style="stroke-width: 0.53; stroke: #5ECD2E; fill: #FFFFFF;" clip-path="url(#cpNi45NzM4NXw3MTMuMDI2fDIwOS4yMjd8Ni45NzM4NQ==)"/>
  <g clip-path="url(#cpNi45NzM4NXw3MTMuMDI2fDIwOS4yMjd8Ni45NzM4NQ==)">
    <text x="416.58" y="109.04" style="font-size: 9.96px; fill: #5ECD2E; font-family: Liberation Sans;" textLength="35.40px" lengthAdjust="spacingAndGlyphs">cellTree</text>
  </g>
  <polyline points="559.39,70.55 648.52,70.55 648.44,70.54 648.78,70.53 649.12,70.46 649.45,70.34 649.75,70.16 650.02,69.94 650.25,69.68 650.44,69.39 650.57,69.07 650.66,68.73 650.68,68.39 650.68,68.39 650.68,58.63 650.68,58.63 650.66,58.28 650.57,57.95 650.44,57.63 650.25,57.33 650.02,57.07 649.75,56.85 649.45,56.68 649.12,56.56 648.78,56.49 648.52,56.47 559.39,56.47 559.65,56.49 559.31,56.47 558.96,56.51 558.63,56.61 558.31,56.76 558.03,56.96 557.78,57.20 557.57,57.48 557.41,57.78 557.30,58.11 557.24,58.46 557.23,58.63 557.23,68.39 557.24,68.21 557.24,68.56 557.30,68.90 557.41,69.23 557.57,69.54 557.78,69.82 558.03,70.06 558.31,70.26 558.63,70.41 558.96,70.50 559.31,70.54 " style="stroke-width: 0.53; stroke: #FF8821; fill: #FFFFFF;" clip-path="url(#cpNi45NzM4NXw3MTMuMDI2fDIwOS4yMjd8Ni45NzM4NQ==)"/>
  <g clip-path="url(#cpNi45NzM4NXw3MTMuMDI2fDIwOS4yMjd8Ni45NzM4NQ==)">
    <text x="560.83" y="66.95" style="font-size: 9.96px; fill: #FF8821; font-family: Liberation Sans;" textLength="86.25px" lengthAdjust="spacingAndGlyphs">WADDINGTON-OT</text>
  </g>
  <polyline points="602.05,132.51 646.42,132.51 646.34,132.51 646.68,132.50 647.02,132.43 647.35,132.31 647.65,132.13 647.92,131.91 648.15,131.65 648.34,131.36 648.47,131.04 648.56,130.70 648.58,130.35 648.58,130.35 648.58,120.60 648.58,120.60 648.56,120.25 648.47,119.92 648.34,119.60 648.15,119.30 647.92,119.04 647.65,118.82 647.35,118.65 647.02,118.52 646.68,118.46 646.42,118.44 602.05,118.44 602.31,118.46 601.96,118.44 601.62,118.48 601.28,118.58 600.97,118.73 600.68,118.93 600.43,119.17 600.22,119.45 600.06,119.75 599.95,120.08 599.90,120.43 599.89,120.60 599.89,130.35 599.90,130.18 599.90,130.53 599.95,130.87 600.06,131.20 600.22,131.51 600.43,131.79 600.68,132.03 600.97,132.23 601.28,132.37 601.62,132.47 601.96,132.51 " style="stroke-width: 0.53; stroke: #5ECD2E; fill: #FFFFFF;" clip-path="url(#cpNi45NzM4NXw3MTMuMDI2fDIwOS4yMjd8Ni45NzM4NQ==)"/>
  <g clip-path="url(#cpNi45NzM4NXw3MTMuMDI2fDIwOS4yMjd8Ni45NzM4NQ==)">
    <text x="603.49" y="128.91" style="font-size: 9.96px; fill: #5ECD2E; font-family: Liberation Sans;" textLength="41.49px" lengthAdjust="spacingAndGlyphs">p-Creode</text>
  </g>
  <polyline points="362.72,78.32 401.56,78.32 401.47,78.32 401.82,78.31 402.16,78.24 402.48,78.12 402.78,77.94 403.05,77.72 403.28,77.46 403.47,77.17 403.61,76.85 403.69,76.51 403.72,76.16 403.72,76.16 403.72,66.41 403.72,66.41 403.69,66.06 403.61,65.73 403.47,65.41 403.28,65.11 403.05,64.85 402.78,64.63 402.48,64.46 402.16,64.34 401.82,64.27 401.56,64.25 362.72,64.25 362.98,64.27 362.64,64.25 362.29,64.29 361.96,64.39 361.64,64.54 361.36,64.74 361.11,64.98 360.90,65.26 360.74,65.56 360.63,65.89 360.57,66.24 360.56,66.41 360.56,76.16 360.57,75.99 360.57,76.34 360.63,76.68 360.74,77.01 360.90,77.32 361.11,77.60 361.36,77.84 361.64,78.04 361.96,78.18 362.29,78.28 362.64,78.32 " style="stroke-width: 0.53; stroke: #FF8821; fill: #FFFFFF;" clip-path="url(#cpNi45NzM4NXw3MTMuMDI2fDIwOS4yMjd8Ni45NzM4NQ==)"/>
  <g clip-path="url(#cpNi45NzM4NXw3MTMuMDI2fDIwOS4yMjd8Ni45NzM4NQ==)">
    <text x="364.16" y="74.72" style="font-size: 9.96px; fill: #FF8821; font-family: Liberation Sans;" textLength="35.95px" lengthAdjust="spacingAndGlyphs">SLICER</text>
  </g>
  <polyline points="615.73,158.32 645.16,158.32 645.07,158.32 645.42,158.30 645.76,158.23 646.09,158.11 646.39,157.93 646.66,157.71 646.89,157.45 647.07,157.16 647.21,156.84 647.29,156.50 647.32,156.16 647.32,156.16 647.32,146.40 647.32,146.40 647.29,146.06 647.21,145.72 647.07,145.40 646.89,145.10 646.66,144.84 646.39,144.62 646.09,144.45 645.76,144.33 645.42,144.26 645.16,144.24 615.73,144.24 615.99,144.26 615.64,144.24 615.30,144.29 614.96,144.38 614.65,144.53 614.36,144.73 614.11,144.97 613.90,145.25 613.74,145.56 613.63,145.89 613.58,146.23 613.57,146.40 613.57,156.16 613.58,155.98 613.58,156.33 613.63,156.67 613.74,157.00 613.90,157.31 614.11,157.59 614.36,157.83 614.65,158.03 614.96,158.18 615.30,158.27 615.64,158.32 " style="stroke-width: 0.53; stroke: #AF0DC7; fill: #FFFFFF;" clip-path="url(#cpNi45NzM4NXw3MTMuMDI2fDIwOS4yMjd8Ni45NzM4NQ==)"/>
  <g clip-path="url(#cpNi45NzM4NXw3MTMuMDI2fDIwOS4yMjd8Ni45NzM4NQ==)">
    <text x="617.17" y="154.72" style="font-size: 9.96px; fill: #AF0DC7; font-family: Liberation Sans;" textLength="26.55px" lengthAdjust="spacingAndGlyphs">iCpSc</text>
  </g>
  <polyline points="491.57,24.65 529.30,24.65 529.21,24.65 529.56,24.63 529.90,24.56 530.22,24.44 530.52,24.27 530.79,24.05 531.02,23.79 531.21,23.49 531.34,23.17 531.43,22.84 531.46,22.49 531.46,22.49 531.46,12.73 531.46,12.73 531.43,12.39 531.34,12.05 531.21,11.73 531.02,11.44 530.79,11.18 530.52,10.96 530.22,10.78 529.90,10.66 529.56,10.59 529.30,10.57 491.57,10.57 491.83,10.59 491.48,10.58 491.13,10.62 490.80,10.71 490.49,10.86 490.20,11.06 489.95,11.30 489.74,11.58 489.58,11.89 489.47,12.22 489.41,12.56 489.41,12.73 489.41,22.49 489.41,22.32 489.41,22.66 489.47,23.01 489.58,23.34 489.74,23.64 489.95,23.92 490.20,24.16 490.49,24.36 490.80,24.51 491.13,24.61 491.48,24.65 " style="stroke-width: 0.53; stroke: #AF0DC7; fill: #FFFFFF;" clip-path="url(#cpNi45NzM4NXw3MTMuMDI2fDIwOS4yMjd8Ni45NzM4NQ==)"/>
  <g clip-path="url(#cpNi45NzM4NXw3MTMuMDI2fDIwOS4yMjd8Ni45NzM4NQ==)">
    <text x="493.01" y="21.05" style="font-size: 9.96px; fill: #AF0DC7; font-family: Liberation Sans;" textLength="34.85px" lengthAdjust="spacingAndGlyphs">topslam</text>
  </g>
  <polyline points="568.14,89.93 590.94,89.93 590.85,89.93 591.20,89.92 591.54,89.85 591.87,89.73 592.17,89.55 592.44,89.33 592.67,89.07 592.85,88.78 592.99,88.46 593.07,88.12 593.10,87.77 593.10,87.77 593.10,78.02 593.10,78.02 593.07,77.67 592.99,77.34 592.85,77.02 592.67,76.72 592.44,76.46 592.17,76.24 591.87,76.07 591.54,75.94 591.20,75.88 590.94,75.86 568.14,75.86 568.40,75.88 568.06,75.86 567.71,75.90 567.38,76.00 567.06,76.15 566.78,76.35 566.53,76.59 566.32,76.87 566.16,77.17 566.05,77.50 565.99,77.85 565.98,78.02 565.98,87.77 565.99,87.60 565.99,87.95 566.05,88.29 566.16,88.62 566.32,88.93 566.53,89.21 566.78,89.45 567.06,89.65 567.38,89.79 567.71,89.89 568.06,89.93 " style="stroke-width: 0.53; stroke: #CFBF00; fill: #FFFFFF;" clip-path="url(#cpNi45NzM4NXw3MTMuMDI2fDIwOS4yMjd8Ni45NzM4NQ==)"/>
  <g clip-path="url(#cpNi45NzM4NXw3MTMuMDI2fDIwOS4yMjd8Ni45NzM4NQ==)">
    <text x="569.58" y="86.33" style="font-size: 9.96px; fill: #CFBF00; font-family: Liberation Sans;" textLength="19.92px" lengthAdjust="spacingAndGlyphs">PBA</text>
  </g>
  <polyline points="546.76,24.65 578.39,24.65 578.31,24.65 578.65,24.63 578.99,24.56 579.32,24.44 579.62,24.27 579.89,24.05 580.12,23.79 580.31,23.49 580.44,23.17 580.52,22.84 580.55,22.49 580.55,22.49 580.55,12.73 580.55,12.73 580.52,12.39 580.44,12.05 580.31,11.73 580.12,11.44 579.89,11.18 579.62,10.96 579.32,10.78 578.99,10.66 578.65,10.59 578.39,10.57 546.76,10.57 547.02,10.59 546.67,10.58 546.32,10.62 545.99,10.71 545.68,10.86 545.39,11.06 545.14,11.30 544.93,11.58 544.77,11.89 544.66,12.22 544.60,12.56 544.60,12.73 544.60,22.49 544.60,22.32 544.60,22.66 544.66,23.01 544.77,23.34 544.93,23.64 545.14,23.92 545.39,24.16 545.68,24.36 545.99,24.51 546.32,24.61 546.67,24.65 " style="stroke-width: 0.53; stroke: #39CCCC; fill: #FFFFFF;" clip-path="url(#cpNi45NzM4NXw3MTMuMDI2fDIwOS4yMjd8Ni45NzM4NQ==)"/>
  <g clip-path="url(#cpNi45NzM4NXw3MTMuMDI2fDIwOS4yMjd8Ni45NzM4NQ==)">
    <text x="548.20" y="21.05" style="font-size: 9.96px; fill: #39CCCC; font-family: Liberation Sans;" textLength="28.76px" lengthAdjust="spacingAndGlyphs">reCAT</text>
  </g>
  <polyline points="538.60,39.30 590.69,39.30 590.60,39.30 590.95,39.28 591.29,39.22 591.62,39.09 591.92,38.92 592.19,38.70 592.42,38.44 592.60,38.14 592.74,37.82 592.82,37.49 592.85,37.14 592.85,37.14 592.85,27.39 592.85,27.39 592.82,27.04 592.74,26.70 592.60,26.38 592.42,26.09 592.19,25.83 591.92,25.61 591.62,25.43 591.29,25.31 590.95,25.24 590.69,25.23 538.60,25.23 538.86,25.24 538.51,25.23 538.17,25.27 537.83,25.37 537.52,25.51 537.23,25.71 536.98,25.95 536.77,26.23 536.61,26.54 536.50,26.87 536.45,27.21 536.44,27.39 536.44,37.14 536.45,36.97 536.45,37.31 536.50,37.66 536.61,37.99 536.77,38.29 536.98,38.57 537.23,38.81 537.52,39.01 537.83,39.16 538.17,39.26 538.51,39.30 " style="stroke-width: 0.53; stroke: #AF0DC7; fill: #FFFFFF;" clip-path="url(#cpNi45NzM4NXw3MTMuMDI2fDIwOS4yMjd8Ni45NzM4NQ==)"/>
  <g clip-path="url(#cpNi45NzM4NXw3MTMuMDI2fDIwOS4yMjd8Ni45NzM4NQ==)">
    <text x="540.04" y="35.70" style="font-size: 9.96px; fill: #AF0DC7; font-family: Liberation Sans;" textLength="49.21px" lengthAdjust="spacingAndGlyphs">MATCHER</text>
  </g>
  <polyline points="326.31,205.07 365.14,205.07 365.05,205.07 365.40,205.06 365.74,204.99 366.07,204.86 366.37,204.69 366.64,204.47 366.87,204.21 367.05,203.92 367.19,203.60 367.27,203.26 367.30,202.91 367.30,202.91 367.30,193.16 367.30,193.16 367.27,192.81 367.19,192.47 367.05,192.15 366.87,191.86 366.64,191.60 366.37,191.38 366.07,191.21 365.74,191.08 365.40,191.01 365.14,191.00 326.31,191.00 326.57,191.01 326.22,191.00 325.87,191.04 325.54,191.14 325.23,191.29 324.94,191.48 324.69,191.73 324.48,192.00 324.32,192.31 324.21,192.64 324.15,192.98 324.15,193.16 324.15,202.91 324.15,202.74 324.15,203.09 324.21,203.43 324.32,203.76 324.48,204.07 324.69,204.35 324.94,204.59 325.23,204.78 325.54,204.93 325.87,205.03 326.22,205.07 " style="stroke-width: 0.53; stroke: #5ECD2E; fill: #FFFFFF;" clip-path="url(#cpNi45NzM4NXw3MTMuMDI2fDIwOS4yMjd8Ni45NzM4NQ==)"/>
  <g clip-path="url(#cpNi45NzM4NXw3MTMuMDI2fDIwOS4yMjd8Ni45NzM4NQ==)">
    <text x="327.75" y="201.47" style="font-size: 9.96px; fill: #5ECD2E; font-family: Liberation Sans;" textLength="35.95px" lengthAdjust="spacingAndGlyphs">ECLAIR</text>
  </g>
  <polyline points="409.89,189.76 461.99,189.76 461.90,189.76 462.25,189.75 462.59,189.68 462.92,189.55 463.22,189.38 463.49,189.16 463.72,188.90 463.90,188.61 464.04,188.29 464.12,187.95 464.15,187.60 464.15,187.60 464.15,177.85 464.15,177.85 464.12,177.50 464.04,177.16 463.90,176.84 463.72,176.55 463.49,176.29 463.22,176.07 462.92,175.90 462.59,175.77 462.25,175.70 461.99,175.69 409.89,175.69 410.15,175.70 409.80,175.69 409.46,175.73 409.12,175.83 408.81,175.98 408.52,176.17 408.27,176.41 408.06,176.69 407.90,177.00 407.79,177.33 407.74,177.67 407.73,177.85 407.73,187.60 407.74,187.43 407.74,187.78 407.79,188.12 407.90,188.45 408.06,188.76 408.27,189.03 408.52,189.27 408.81,189.47 409.12,189.62 409.46,189.72 409.80,189.76 " style="stroke-width: 0.53; stroke: #AF0DC7; fill: #FFFFFF;" clip-path="url(#cpNi45NzM4NXw3MTMuMDI2fDIwOS4yMjd8Ni45NzM4NQ==)"/>
  <g clip-path="url(#cpNi45NzM4NXw3MTMuMDI2fDIwOS4yMjd8Ni45NzM4NQ==)">
    <text x="411.33" y="186.16" style="font-size: 9.96px; fill: #AF0DC7; font-family: Liberation Sans;" textLength="49.22px" lengthAdjust="spacingAndGlyphs">WaveCrest</text>
  </g>
  <polyline points="357.18,110.19 403.79,110.19 403.70,110.19 404.05,110.17 404.39,110.10 404.71,109.98 405.01,109.81 405.28,109.59 405.51,109.33 405.70,109.03 405.84,108.71 405.92,108.38 405.95,108.03 405.95,108.03 405.95,98.28 405.95,98.28 405.92,97.93 405.84,97.59 405.70,97.27 405.51,96.98 405.28,96.72 405.01,96.50 404.71,96.32 404.39,96.20 404.05,96.13 403.79,96.12 357.18,96.12 357.44,96.13 357.10,96.12 356.75,96.16 356.42,96.26 356.10,96.40 355.82,96.60 355.57,96.84 355.36,97.12 355.20,97.43 355.09,97.76 355.03,98.10 355.02,98.28 355.02,108.03 355.03,107.86 355.03,108.20 355.09,108.55 355.20,108.88 355.36,109.18 355.57,109.46 355.82,109.70 356.10,109.90 356.42,110.05 356.75,110.15 357.10,110.19 " style="stroke-width: 0.53; stroke: #AF0DC7; fill: #FFFFFF;" clip-path="url(#cpNi45NzM4NXw3MTMuMDI2fDIwOS4yMjd8Ni45NzM4NQ==)"/>
  <g clip-path="url(#cpNi45NzM4NXw3MTMuMDI2fDIwOS4yMjd8Ni45NzM4NQ==)">
    <text x="358.62" y="106.59" style="font-size: 9.96px; fill: #AF0DC7; font-family: Liberation Sans;" textLength="43.72px" lengthAdjust="spacingAndGlyphs">pseudogp</text>
  </g>
  <polyline points="489.34,75.45 538.14,75.45 538.06,75.44 538.40,75.43 538.74,75.36 539.07,75.24 539.37,75.06 539.64,74.84 539.87,74.58 540.05,74.29 540.19,73.97 540.27,73.63 540.30,73.29 540.30,73.29 540.30,63.53 540.30,63.53 540.27,63.18 540.19,62.85 540.05,62.53 539.87,62.23 539.64,61.97 539.37,61.75 539.07,61.58 538.74,61.46 538.40,61.39 538.14,61.37 489.34,61.37 489.60,61.39 489.25,61.37 488.91,61.41 488.57,61.51 488.26,61.66 487.97,61.86 487.72,62.10 487.52,62.38 487.35,62.68 487.24,63.01 487.19,63.36 487.18,63.53 487.18,73.29 487.19,73.11 487.19,73.46 487.24,73.80 487.35,74.13 487.52,74.44 487.72,74.72 487.97,74.96 488.26,75.16 488.57,75.31 488.91,75.40 489.25,75.44 " style="stroke-width: 0.53; stroke: #5ECD2E; fill: #FFFFFF;" clip-path="url(#cpNi45NzM4NXw3MTMuMDI2fDIwOS4yMjd8Ni45NzM4NQ==)"/>
  <g clip-path="url(#cpNi45NzM4NXw3MTMuMDI2fDIwOS4yMjd8Ni45NzM4NQ==)">
    <text x="490.78" y="71.85" style="font-size: 9.96px; fill: #5ECD2E; font-family: Liberation Sans;" textLength="45.92px" lengthAdjust="spacingAndGlyphs">Monocle 2</text>
  </g>
  <polyline points="394.32,65.68 430.38,65.68 430.30,65.68 430.64,65.67 430.98,65.60 431.31,65.47 431.61,65.30 431.88,65.08 432.11,64.82 432.30,64.53 432.43,64.21 432.51,63.87 432.54,63.52 432.54,63.52 432.54,53.77 432.54,53.77 432.51,53.42 432.43,53.08 432.30,52.76 432.11,52.47 431.88,52.21 431.61,51.99 431.31,51.82 430.98,51.69 430.64,51.62 430.38,51.61 394.32,51.61 394.58,51.62 394.23,51.61 393.89,51.65 393.55,51.75 393.24,51.90 392.95,52.09 392.70,52.34 392.49,52.61 392.33,52.92 392.22,53.25 392.17,53.59 392.16,53.77 392.16,63.52 392.17,63.35 392.17,63.70 392.22,64.04 392.33,64.37 392.49,64.68 392.70,64.96 392.95,65.20 393.24,65.39 393.55,65.54 393.89,65.64 394.23,65.68 " style="stroke-width: 0.53; stroke: #5ECD2E; fill: #FFFFFF;" clip-path="url(#cpNi45NzM4NXw3MTMuMDI2fDIwOS4yMjd8Ni45NzM4NQ==)"/>
  <g clip-path="url(#cpNi45NzM4NXw3MTMuMDI2fDIwOS4yMjd8Ni45NzM4NQ==)">
    <text x="395.76" y="62.08" style="font-size: 9.96px; fill: #5ECD2E; font-family: Liberation Sans;" textLength="33.18px" lengthAdjust="spacingAndGlyphs">StemID</text>
  </g>
  <polyline points="368.09,150.45 415.23,150.45 415.14,150.45 415.49,150.44 415.83,150.37 416.15,150.24 416.46,150.07 416.72,149.85 416.96,149.59 417.14,149.30 417.28,148.98 417.36,148.64 417.39,148.29 417.39,148.29 417.39,138.54 417.39,138.54 417.36,138.19 417.28,137.85 417.14,137.53 416.96,137.24 416.72,136.98 416.46,136.76 416.15,136.59 415.83,136.46 415.49,136.39 415.23,136.38 368.09,136.38 368.35,136.39 368.00,136.38 367.66,136.42 367.32,136.52 367.01,136.67 366.72,136.86 366.47,137.11 366.26,137.38 366.10,137.69 365.99,138.02 365.94,138.36 365.93,138.54 365.93,148.29 365.94,148.12 365.94,148.47 365.99,148.81 366.10,149.14 366.26,149.45 366.47,149.73 366.72,149.97 367.01,150.16 367.32,150.31 367.66,150.41 368.00,150.45 " style="stroke-width: 0.53; stroke: #0073D7; fill: #FFFFFF;" clip-path="url(#cpNi45NzM4NXw3MTMuMDI2fDIwOS4yMjd8Ni45NzM4NQ==)"/>
  <g clip-path="url(#cpNi45NzM4NXw3MTMuMDI2fDIwOS4yMjd8Ni45NzM4NQ==)">
    <text x="369.53" y="146.85" style="font-size: 9.96px; fill: #0073D7; font-family: Liberation Sans;" textLength="44.26px" lengthAdjust="spacingAndGlyphs">Wishbone</text>
  </g>
  <polyline points="59.22,180.81 112.44,180.81 112.35,180.81 112.70,180.79 113.04,180.72 113.37,180.60 113.67,180.43 113.94,180.21 114.17,179.95 114.35,179.65 114.49,179.33 114.57,179.00 114.60,178.65 114.60,178.65 114.60,168.89 114.60,168.89 114.57,168.55 114.49,168.21 114.35,167.89 114.17,167.60 113.94,167.34 113.67,167.12 113.37,166.94 113.04,166.82 112.70,166.75 112.44,166.73 59.22,166.73 59.48,166.75 59.13,166.74 58.79,166.78 58.46,166.87 58.14,167.02 57.86,167.22 57.60,167.46 57.40,167.74 57.23,168.05 57.12,168.38 57.07,168.72 57.06,168.89 57.06,178.65 57.07,178.47 57.07,178.82 57.12,179.17 57.23,179.50 57.40,179.80 57.60,180.08 57.86,180.32 58.14,180.52 58.46,180.67 58.79,180.76 59.13,180.81 " style="stroke-width: 0.53; stroke: #AF0DC7; fill: #FFFFFF;" clip-path="url(#cpNi45NzM4NXw3MTMuMDI2fDIwOS4yMjd8Ni45NzM4NQ==)"/>
  <g clip-path="url(#cpNi45NzM4NXw3MTMuMDI2fDIwOS4yMjd8Ni45NzM4NQ==)">
    <text x="60.66" y="177.21" style="font-size: 9.96px; fill: #AF0DC7; font-family: Liberation Sans;" textLength="50.34px" lengthAdjust="spacingAndGlyphs">Wanderlust</text>
  </g>
  <polyline points="400.80,131.29 431.35,131.29 431.26,131.29 431.61,131.27 431.95,131.20 432.27,131.08 432.57,130.90 432.84,130.68 433.07,130.42 433.26,130.13 433.40,129.81 433.48,129.47 433.51,129.13 433.51,129.13 433.51,119.37 433.51,119.37 433.48,119.03 433.40,118.69 433.26,118.37 433.07,118.07 432.84,117.81 432.57,117.59 432.27,117.42 431.95,117.30 431.61,117.23 431.35,117.21 400.80,117.21 401.06,117.23 400.72,117.21 400.37,117.26 400.04,117.35 399.72,117.50 399.44,117.70 399.19,117.94 398.98,118.22 398.82,118.53 398.71,118.86 398.65,119.20 398.64,119.37 398.64,129.13 398.65,128.95 398.65,129.30 398.71,129.64 398.82,129.97 398.98,130.28 399.19,130.56 399.44,130.80 399.72,131.00 400.04,131.15 400.37,131.24 400.72,131.29 " style="stroke-width: 0.53; stroke: #5ECD2E; fill: #FFFFFF;" clip-path="url(#cpNi45NzM4NXw3MTMuMDI2fDIwOS4yMjd8Ni45NzM4NQ==)"/>
  <g clip-path="url(#cpNi45NzM4NXw3MTMuMDI2fDIwOS4yMjd8Ni45NzM4NQ==)">
    <text x="402.24" y="127.69" style="font-size: 9.96px; fill: #5ECD2E; font-family: Liberation Sans;" textLength="27.66px" lengthAdjust="spacingAndGlyphs">Mpath</text>
  </g>
  <polyline points="266.54,161.99 326.41,161.99 326.32,161.99 326.67,161.98 327.01,161.91 327.34,161.79 327.64,161.61 327.91,161.39 328.14,161.13 328.32,160.84 328.46,160.52 328.54,160.18 328.57,159.83 328.57,159.83 328.57,150.08 328.57,150.08 328.54,149.73 328.46,149.40 328.32,149.08 328.14,148.78 327.91,148.52 327.64,148.30 327.34,148.13 327.01,148.01 326.67,147.94 326.41,147.92 266.54,147.92 266.80,147.94 266.45,147.92 266.11,147.96 265.77,148.06 265.46,148.21 265.17,148.41 264.92,148.65 264.71,148.93 264.55,149.23 264.44,149.56 264.39,149.91 264.38,150.08 264.38,159.83 264.39,159.66 264.39,160.01 264.44,160.35 264.55,160.68 264.71,160.99 264.92,161.27 265.17,161.51 265.46,161.71 265.77,161.85 266.11,161.95 266.45,161.99 " style="stroke-width: 0.53; stroke: #AF0DC7; fill: #FFFFFF;" clip-path="url(#cpNi45NzM4NXw3MTMuMDI2fDIwOS4yMjd8Ni45NzM4NQ==)"/>
  <g clip-path="url(#cpNi45NzM4NXw3MTMuMDI2fDIwOS4yMjd8Ni45NzM4NQ==)">
    <text x="267.98" y="158.39" style="font-size: 9.96px; fill: #AF0DC7; font-family: Liberation Sans;" textLength="56.99px" lengthAdjust="spacingAndGlyphs">gpseudotime</text>
  </g>
  <polyline points="170.71,183.33 207.88,183.33 207.79,183.33 208.14,183.32 208.48,183.25 208.80,183.13 209.10,182.95 209.37,182.73 209.60,182.47 209.79,182.18 209.93,181.86 210.01,181.52 210.04,181.17 210.04,181.17 210.04,171.42 210.04,171.42 210.01,171.07 209.93,170.74 209.79,170.42 209.60,170.12 209.37,169.86 209.10,169.64 208.80,169.47 208.48,169.35 208.14,169.28 207.88,169.26 170.71,169.26 170.97,169.28 170.62,169.26 170.27,169.30 169.94,169.40 169.63,169.55 169.34,169.75 169.09,169.99 168.88,170.27 168.72,170.57 168.61,170.90 168.55,171.25 168.55,171.42 168.55,181.17 168.55,181.00 168.55,181.35 168.61,181.69 168.72,182.02 168.88,182.33 169.09,182.61 169.34,182.85 169.63,183.05 169.94,183.19 170.27,183.29 170.62,183.33 " style="stroke-width: 0.53; stroke: #5ECD2E; fill: #FFFFFF;" clip-path="url(#cpNi45NzM4NXw3MTMuMDI2fDIwOS4yMjd8Ni45NzM4NQ==)"/>
  <g clip-path="url(#cpNi45NzM4NXw3MTMuMDI2fDIwOS4yMjd8Ni45NzM4NQ==)">
    <text x="172.15" y="179.73" style="font-size: 9.96px; fill: #5ECD2E; font-family: Liberation Sans;" textLength="34.29px" lengthAdjust="spacingAndGlyphs">SCUBA</text>
  </g>
  <polyline points="51.91,202.83 100.71,202.83 100.63,202.83 100.97,202.82 101.31,202.75 101.64,202.63 101.94,202.45 102.21,202.23 102.44,201.97 102.63,201.68 102.76,201.36 102.85,201.02 102.87,200.67 102.87,200.67 102.87,190.92 102.87,190.92 102.85,190.57 102.76,190.24 102.63,189.92 102.44,189.62 102.21,189.36 101.94,189.14 101.64,188.97 101.31,188.84 100.97,188.78 100.71,188.76 51.91,188.76 52.17,188.78 51.83,188.76 51.48,188.80 51.15,188.90 50.83,189.05 50.55,189.25 50.30,189.49 50.09,189.77 49.92,190.07 49.81,190.40 49.76,190.75 49.75,190.92 49.75,200.67 49.76,200.50 49.76,200.85 49.81,201.19 49.92,201.52 50.09,201.83 50.30,202.11 50.55,202.35 50.83,202.55 51.15,202.69 51.48,202.79 51.83,202.83 " style="stroke-width: 0.53; stroke: #5ECD2E; fill: #FFFFFF;" clip-path="url(#cpNi45NzM4NXw3MTMuMDI2fDIwOS4yMjd8Ni45NzM4NQ==)"/>
  <g clip-path="url(#cpNi45NzM4NXw3MTMuMDI2fDIwOS4yMjd8Ni45NzM4NQ==)">
    <text x="53.35" y="199.23" style="font-size: 9.96px; fill: #5ECD2E; font-family: Liberation Sans;" textLength="45.92px" lengthAdjust="spacingAndGlyphs">Monocle 1</text>
  </g>
  <polyline points="490.59,108.82 537.72,108.82 537.64,108.82 537.98,108.80 538.32,108.73 538.65,108.61 538.95,108.44 539.22,108.22 539.45,107.96 539.64,107.66 539.77,107.34 539.85,107.00 539.88,106.66 539.88,106.66 539.88,96.90 539.88,96.90 539.85,96.56 539.77,96.22 539.64,95.90 539.45,95.61 539.22,95.35 538.95,95.13 538.65,94.95 538.32,94.83 537.98,94.76 537.72,94.74 490.59,94.74 490.85,94.76 490.50,94.75 490.16,94.79 489.82,94.88 489.51,95.03 489.22,95.23 488.97,95.47 488.76,95.75 488.60,96.06 488.49,96.39 488.44,96.73 488.43,96.90 488.43,106.66 488.44,106.48 488.44,106.83 488.49,107.18 488.60,107.51 488.76,107.81 488.97,108.09 489.22,108.33 489.51,108.53 489.82,108.68 490.16,108.77 490.50,108.82 " style="stroke-width: 0.53; stroke: #5ECD2E; fill: #FFFFFF;" clip-path="url(#cpNi45NzM4NXw3MTMuMDI2fDIwOS4yMjd8Ni45NzM4NQ==)"/>
  <g clip-path="url(#cpNi45NzM4NXw3MTMuMDI2fDIwOS4yMjd8Ni45NzM4NQ==)">
    <text x="492.03" y="105.22" style="font-size: 9.96px; fill: #5ECD2E; font-family: Liberation Sans;" textLength="44.25px" lengthAdjust="spacingAndGlyphs">Granatum</text>
  </g>
  <polyline points="633.92,111.99 678.28,111.99 678.20,111.99 678.55,111.97 678.89,111.91 679.21,111.78 679.51,111.61 679.78,111.39 680.01,111.13 680.20,110.83 680.33,110.51 680.42,110.18 680.44,109.83 680.44,109.83 680.44,100.08 680.44,100.08 680.42,99.73 680.33,99.39 680.20,99.07 680.01,98.78 679.78,98.52 679.51,98.30 679.21,98.12 678.89,98.00 678.55,97.93 678.28,97.92 633.92,97.92 634.18,97.93 633.83,97.92 633.49,97.96 633.15,98.06 632.84,98.20 632.55,98.40 632.30,98.64 632.09,98.92 631.93,99.23 631.82,99.56 631.77,99.90 631.76,100.08 631.76,109.83 631.77,109.66 631.77,110.00 631.82,110.35 631.93,110.68 632.09,110.99 632.30,111.26 632.55,111.50 632.84,111.70 633.15,111.85 633.49,111.95 633.83,111.99 " style="stroke-width: 0.53; stroke: #FF8821; fill: #FFFFFF;" clip-path="url(#cpNi45NzM4NXw3MTMuMDI2fDIwOS4yMjd8Ni45NzM4NQ==)"/>
  <g clip-path="url(#cpNi45NzM4NXw3MTMuMDI2fDIwOS4yMjd8Ni45NzM4NQ==)">
    <text x="635.36" y="108.39" style="font-size: 9.96px; fill: #FF8821; font-family: Liberation Sans;" textLength="41.48px" lengthAdjust="spacingAndGlyphs">CALISTA</text>
  </g>
  <polyline points="568.42,111.20 592.32,111.20 592.23,111.20 592.58,111.18 592.92,111.11 593.25,110.99 593.55,110.82 593.82,110.60 594.05,110.34 594.23,110.04 594.37,109.72 594.45,109.39 594.48,109.04 594.48,109.04 594.48,99.28 594.48,99.28 594.45,98.94 594.37,98.60 594.23,98.28 594.05,97.99 593.82,97.73 593.55,97.51 593.25,97.33 592.92,97.21 592.58,97.14 592.32,97.12 568.42,97.12 568.68,97.14 568.33,97.13 567.99,97.17 567.65,97.27 567.34,97.41 567.05,97.61 566.80,97.85 566.59,98.13 566.43,98.44 566.32,98.77 566.27,99.11 566.26,99.28 566.26,109.04 566.27,108.87 566.27,109.21 566.32,109.56 566.43,109.89 566.59,110.19 566.80,110.47 567.05,110.71 567.34,110.91 567.65,111.06 567.99,111.16 568.33,111.20 " style="stroke-width: 0.53; stroke: #0073D7; fill: #FFFFFF;" clip-path="url(#cpNi45NzM4NXw3MTMuMDI2fDIwOS4yMjd8Ni45NzM4NQ==)"/>
  <g clip-path="url(#cpNi45NzM4NXw3MTMuMDI2fDIwOS4yMjd8Ni45NzM4NQ==)">
    <text x="569.86" y="107.60" style="font-size: 9.96px; fill: #0073D7; font-family: Liberation Sans;" textLength="21.02px" lengthAdjust="spacingAndGlyphs">BGP</text>
  </g>
  <polyline points="429.61,149.23 484.48,149.23 484.39,149.23 484.74,149.21 485.08,149.14 485.40,149.02 485.71,148.85 485.98,148.63 486.21,148.37 486.39,148.07 486.53,147.75 486.61,147.42 486.64,147.07 486.64,147.07 486.64,137.31 486.64,137.31 486.61,136.97 486.53,136.63 486.39,136.31 486.21,136.02 485.98,135.76 485.71,135.54 485.40,135.36 485.08,135.24 484.74,135.17 484.48,135.15 429.61,135.15 429.87,135.17 429.53,135.16 429.18,135.20 428.85,135.29 428.53,135.44 428.25,135.64 428.00,135.88 427.79,136.16 427.62,136.47 427.51,136.80 427.46,137.14 427.45,137.31 427.45,147.07 427.46,146.90 427.46,147.24 427.51,147.59 427.62,147.92 427.79,148.22 428.00,148.50 428.25,148.74 428.53,148.94 428.85,149.09 429.18,149.19 429.53,149.23 " style="stroke-width: 0.53; stroke: #AF0DC7; fill: #FFFFFF;" clip-path="url(#cpNi45NzM4NXw3MTMuMDI2fDIwOS4yMjd8Ni45NzM4NQ==)"/>
  <g clip-path="url(#cpNi45NzM4NXw3MTMuMDI2fDIwOS4yMjd8Ni45NzM4NQ==)">
    <text x="431.05" y="145.63" style="font-size: 9.96px; fill: #AF0DC7; font-family: Liberation Sans;" textLength="51.99px" lengthAdjust="spacingAndGlyphs">SCORPIUS</text>
  </g>
  <polyline points="516.25,127.34 558.41,127.34 558.32,127.33 558.67,127.32 559.01,127.25 559.34,127.13 559.64,126.95 559.91,126.73 560.14,126.47 560.32,126.18 560.46,125.86 560.54,125.52 560.57,125.18 560.57,125.18 560.57,115.42 560.57,115.42 560.54,115.07 560.46,114.74 560.32,114.42 560.14,114.12 559.91,113.86 559.64,113.64 559.34,113.47 559.01,113.35 558.67,113.28 558.41,113.26 516.25,113.26 516.51,113.28 516.16,113.26 515.82,113.30 515.48,113.40 515.17,113.55 514.88,113.75 514.63,113.99 514.42,114.27 514.26,114.57 514.15,114.90 514.10,115.25 514.09,115.42 514.09,125.18 514.10,125.00 514.10,125.35 514.15,125.69 514.26,126.02 514.42,126.33 514.63,126.61 514.88,126.85 515.17,127.05 515.48,127.20 515.82,127.29 516.16,127.33 " style="stroke-width: 0.53; stroke: #5ECD2E; fill: #FFFFFF;" clip-path="url(#cpNi45NzM4NXw3MTMuMDI2fDIwOS4yMjd8Ni45NzM4NQ==)"/>
  <g clip-path="url(#cpNi45NzM4NXw3MTMuMDI2fDIwOS4yMjd8Ni45NzM4NQ==)">
    <text x="517.69" y="123.74" style="font-size: 9.96px; fill: #5ECD2E; font-family: Liberation Sans;" textLength="39.28px" lengthAdjust="spacingAndGlyphs">slingshot</text>
  </g>
  <polyline points="550.45,146.27 593.73,146.27 593.65,146.27 593.99,146.26 594.33,146.19 594.66,146.06 594.96,145.89 595.23,145.67 595.46,145.41 595.65,145.12 595.78,144.80 595.87,144.46 595.89,144.11 595.89,144.11 595.89,134.36 595.89,134.36 595.87,134.01 595.78,133.67 595.65,133.35 595.46,133.06 595.23,132.80 594.96,132.58 594.66,132.41 594.33,132.28 593.99,132.21 593.73,132.20 550.45,132.20 550.71,132.21 550.37,132.20 550.02,132.24 549.69,132.34 549.37,132.49 549.09,132.68 548.84,132.92 548.63,133.20 548.47,133.51 548.36,133.84 548.30,134.18 548.29,134.36 548.29,144.11 548.30,143.94 548.30,144.29 548.36,144.63 548.47,144.96 548.63,145.27 548.84,145.54 549.09,145.78 549.37,145.98 549.69,146.13 550.02,146.23 550.37,146.27 " style="stroke-width: 0.53; stroke: #AF0DC7; fill: #FFFFFF;" clip-path="url(#cpNi45NzM4NXw3MTMuMDI2fDIwOS4yMjd8Ni45NzM4NQ==)"/>
  <g clip-path="url(#cpNi45NzM4NXw3MTMuMDI2fDIwOS4yMjd8Ni45NzM4NQ==)">
    <text x="551.89" y="142.67" style="font-size: 9.96px; fill: #AF0DC7; font-family: Liberation Sans;" textLength="40.40px" lengthAdjust="spacingAndGlyphs">HopLand</text>
  </g>
  <polyline points="604.42,183.71 628.32,183.71 628.24,183.71 628.58,183.69 628.92,183.62 629.25,183.50 629.55,183.33 629.82,183.11 630.05,182.85 630.24,182.55 630.37,182.23 630.46,181.90 630.48,181.55 630.48,181.55 630.48,171.79 630.48,171.79 630.46,171.45 630.37,171.11 630.24,170.79 630.05,170.50 629.82,170.24 629.55,170.02 629.25,169.84 628.92,169.72 628.58,169.65 628.32,169.63 604.42,169.63 604.68,169.65 604.34,169.64 603.99,169.68 603.66,169.77 603.34,169.92 603.06,170.12 602.81,170.36 602.60,170.64 602.44,170.95 602.33,171.28 602.27,171.62 602.26,171.79 602.26,181.55 602.27,181.37 602.27,181.72 602.33,182.07 602.44,182.40 602.60,182.70 602.81,182.98 603.06,183.22 603.34,183.42 603.66,183.57 603.99,183.67 604.34,183.71 " style="stroke-width: 0.53; stroke: #FF4237; fill: #FFFFFF;" clip-path="url(#cpNi45NzM4NXw3MTMuMDI2fDIwOS4yMjd8Ni45NzM4NQ==)"/>
  <g clip-path="url(#cpNi45NzM4NXw3MTMuMDI2fDIwOS4yMjd8Ni45NzM4NQ==)">
    <text x="605.86" y="180.11" style="font-size: 9.96px; fill: #FF4237; font-family: Liberation Sans;" textLength="21.02px" lengthAdjust="spacingAndGlyphs">AGA</text>
  </g>
  <polyline points="377.90,194.42 414.52,194.42 414.43,194.42 414.78,194.40 415.12,194.34 415.44,194.21 415.74,194.04 416.01,193.82 416.24,193.56 416.43,193.26 416.57,192.94 416.65,192.61 416.68,192.26 416.68,192.26 416.68,182.51 416.68,182.51 416.65,182.16 416.57,181.82 416.43,181.50 416.24,181.21 416.01,180.95 415.74,180.73 415.44,180.55 415.12,180.43 414.78,180.36 414.52,180.35 377.90,180.35 378.16,180.36 377.82,180.35 377.47,180.39 377.14,180.49 376.82,180.64 376.54,180.83 376.29,181.07 376.08,181.35 375.92,181.66 375.81,181.99 375.75,182.33 375.74,182.51 375.74,192.26 375.75,192.09 375.75,192.43 375.81,192.78 375.92,193.11 376.08,193.42 376.29,193.69 376.54,193.93 376.82,194.13 377.14,194.28 377.47,194.38 377.82,194.42 " style="stroke-width: 0.53; stroke: #5ECD2E; fill: #FFFFFF;" clip-path="url(#cpNi45NzM4NXw3MTMuMDI2fDIwOS4yMjd8Ni45NzM4NQ==)"/>
  <g clip-path="url(#cpNi45NzM4NXw3MTMuMDI2fDIwOS4yMjd8Ni45NzM4NQ==)">
    <text x="379.34" y="190.82" style="font-size: 9.96px; fill: #5ECD2E; font-family: Liberation Sans;" textLength="33.73px" lengthAdjust="spacingAndGlyphs">TSCAN</text>
  </g>
  <polyline points="622.03,205.55 681.90,205.55 681.81,205.55 682.16,205.54 682.50,205.47 682.83,205.35 683.13,205.17 683.40,204.95 683.63,204.69 683.81,204.40 683.95,204.08 684.03,203.74 684.06,203.39 684.06,203.39 684.06,193.64 684.06,193.64 684.03,193.29 683.95,192.95 683.81,192.64 683.63,192.34 683.40,192.08 683.13,191.86 682.83,191.69 682.50,191.56 682.16,191.49 681.90,191.48 622.03,191.48 622.29,191.49 621.94,191.48 621.60,191.52 621.26,191.62 620.95,191.77 620.66,191.97 620.41,192.21 620.20,192.48 620.04,192.79 619.93,193.12 619.87,193.47 619.87,193.64 619.87,203.39 619.87,203.22 619.87,203.57 619.93,203.91 620.04,204.24 620.20,204.55 620.41,204.83 620.66,205.07 620.95,205.26 621.26,205.41 621.60,205.51 621.94,205.55 " style="stroke-width: 0.53; stroke: #5ECD2E; fill: #FFFFFF;" clip-path="url(#cpNi45NzM4NXw3MTMuMDI2fDIwOS4yMjd8Ni45NzM4NQ==)"/>
  <g clip-path="url(#cpNi45NzM4NXw3MTMuMDI2fDIwOS4yMjd8Ni45NzM4NQ==)">
    <text x="623.47" y="201.95" style="font-size: 9.96px; fill: #5ECD2E; font-family: Liberation Sans;" textLength="56.99px" lengthAdjust="spacingAndGlyphs">Topographer</text>
  </g>
  <polyline points="515.03,202.57 547.22,202.57 547.13,202.57 547.48,202.56 547.82,202.49 548.14,202.37 548.44,202.19 548.71,201.97 548.94,201.71 549.13,201.42 549.27,201.10 549.35,200.76 549.38,200.41 549.38,200.41 549.38,190.66 549.38,190.66 549.35,190.31 549.27,189.98 549.13,189.66 548.94,189.36 548.71,189.10 548.44,188.88 548.14,188.71 547.82,188.58 547.48,188.52 547.22,188.50 515.03,188.50 515.29,188.52 514.94,188.50 514.60,188.54 514.26,188.64 513.95,188.79 513.66,188.99 513.41,189.23 513.20,189.50 513.04,189.81 512.93,190.14 512.87,190.49 512.87,190.66 512.87,200.41 512.87,200.24 512.87,200.59 512.93,200.93 513.04,201.26 513.20,201.57 513.41,201.85 513.66,202.09 513.95,202.28 514.26,202.43 514.60,202.53 514.94,202.57 " style="stroke-width: 0.53; stroke: #5ECD2E; fill: #FFFFFF;" clip-path="url(#cpNi45NzM4NXw3MTMuMDI2fDIwOS4yMjd8Ni45NzM4NQ==)"/>
  <g clip-path="url(#cpNi45NzM4NXw3MTMuMDI2fDIwOS4yMjd8Ni45NzM4NQ==)">
    <text x="516.47" y="198.97" style="font-size: 9.96px; fill: #5ECD2E; font-family: Liberation Sans;" textLength="29.31px" lengthAdjust="spacingAndGlyphs">TASIC</text>
  </g>
  <polyline points="185.61,205.34 216.15,205.34 216.06,205.33 216.41,205.32 216.75,205.25 217.07,205.13 217.37,204.95 217.64,204.73 217.87,204.47 218.06,204.18 218.20,203.86 218.28,203.52 218.31,203.18 218.31,203.18 218.31,193.42 218.31,193.42 218.28,193.07 218.20,192.74 218.06,192.42 217.87,192.12 217.64,191.86 217.37,191.64 217.07,191.47 216.75,191.35 216.41,191.28 216.15,191.26 185.61,191.26 185.87,191.28 185.52,191.26 185.18,191.30 184.84,191.40 184.53,191.55 184.24,191.75 183.99,191.99 183.78,192.27 183.62,192.57 183.51,192.90 183.46,193.25 183.45,193.42 183.45,203.18 183.46,203.00 183.46,203.35 183.51,203.69 183.62,204.02 183.78,204.33 183.99,204.61 184.24,204.85 184.53,205.05 184.84,205.20 185.18,205.29 185.52,205.33 " style="stroke-width: 0.53; stroke: #5ECD2E; fill: #FFFFFF;" clip-path="url(#cpNi45NzM4NXw3MTMuMDI2fDIwOS4yMjd8Ni45NzM4NQ==)"/>
  <g clip-path="url(#cpNi45NzM4NXw3MTMuMDI2fDIwOS4yMjd8Ni45NzM4NQ==)">
    <text x="187.05" y="201.74" style="font-size: 9.96px; fill: #5ECD2E; font-family: Liberation Sans;" textLength="27.66px" lengthAdjust="spacingAndGlyphs">sincell</text>
  </g>
  <polyline points="387.40,92.04 433.99,92.04 433.91,92.04 434.25,92.03 434.59,91.96 434.92,91.83 435.22,91.66 435.49,91.44 435.72,91.18 435.91,90.89 436.04,90.57 436.12,90.23 436.15,89.88 436.15,89.88 436.15,80.13 436.15,80.13 436.12,79.78 436.04,79.44 435.91,79.12 435.72,78.83 435.49,78.57 435.22,78.35 434.92,78.18 434.59,78.05 434.25,77.98 433.99,77.97 387.40,77.97 387.66,77.98 387.31,77.97 386.97,78.01 386.63,78.11 386.32,78.26 386.03,78.45 385.78,78.69 385.57,78.97 385.41,79.28 385.30,79.61 385.24,79.95 385.24,80.13 385.24,89.88 385.24,89.71 385.24,90.06 385.30,90.40 385.41,90.73 385.57,91.04 385.78,91.31 386.03,91.55 386.32,91.75 386.63,91.90 386.97,92.00 387.31,92.04 " style="stroke-width: 0.53; stroke: #AF0DC7; fill: #FFFFFF;" clip-path="url(#cpNi45NzM4NXw3MTMuMDI2fDIwOS4yMjd8Ni45NzM4NQ==)"/>
  <g clip-path="url(#cpNi45NzM4NXw3MTMuMDI2fDIwOS4yMjd8Ni45NzM4NQ==)">
    <text x="388.84" y="88.44" style="font-size: 9.96px; fill: #AF0DC7; font-family: Liberation Sans;" textLength="43.72px" lengthAdjust="spacingAndGlyphs">DeLorean</text>
  </g>
  <polyline points="387.83,171.01 426.11,171.01 426.02,171.01 426.37,171.00 426.71,170.93 427.03,170.80 427.34,170.63 427.60,170.41 427.84,170.15 428.02,169.86 428.16,169.54 428.24,169.20 428.27,168.85 428.27,168.85 428.27,159.10 428.27,159.10 428.24,158.75 428.16,158.41 428.02,158.09 427.84,157.80 427.60,157.54 427.34,157.32 427.03,157.15 426.71,157.02 426.37,156.95 426.11,156.94 387.83,156.94 388.09,156.95 387.75,156.94 387.40,156.98 387.07,157.08 386.75,157.23 386.47,157.42 386.22,157.66 386.01,157.94 385.85,158.25 385.74,158.58 385.68,158.92 385.67,159.10 385.67,168.85 385.68,168.68 385.68,169.03 385.74,169.37 385.85,169.70 386.01,170.01 386.22,170.28 386.47,170.53 386.75,170.72 387.07,170.87 387.40,170.97 387.75,171.01 " style="stroke-width: 0.53; stroke: #CFBF00; fill: #FFFFFF;" clip-path="url(#cpNi45NzM4NXw3MTMuMDI2fDIwOS4yMjd8Ni45NzM4NQ==)"/>
  <g clip-path="url(#cpNi45NzM4NXw3MTMuMDI2fDIwOS4yMjd8Ni45NzM4NQ==)">
    <text x="389.27" y="167.41" style="font-size: 9.96px; fill: #CFBF00; font-family: Liberation Sans;" textLength="35.39px" lengthAdjust="spacingAndGlyphs">SCOUP</text>
  </g>
  <polyline points="559.30,162.68 596.48,162.68 596.39,162.68 596.74,162.67 597.08,162.60 597.40,162.48 597.70,162.30 597.97,162.08 598.20,161.82 598.39,161.53 598.53,161.21 598.61,160.87 598.64,160.52 598.64,160.52 598.64,150.77 598.64,150.77 598.61,150.42 598.53,150.08 598.39,149.76 598.20,149.47 597.97,149.21 597.70,148.99 597.40,148.82 597.08,148.69 596.74,148.62 596.48,148.61 559.30,148.61 559.56,148.62 559.21,148.61 558.86,148.65 558.53,148.75 558.22,148.90 557.93,149.10 557.68,149.34 557.47,149.61 557.31,149.92 557.20,150.25 557.14,150.59 557.14,150.77 557.14,160.52 557.14,160.35 557.14,160.70 557.20,161.04 557.31,161.37 557.47,161.68 557.68,161.96 557.93,162.20 558.22,162.39 558.53,162.54 558.86,162.64 559.21,162.68 " style="stroke-width: 0.53; stroke: #AF0DC7; fill: #FFFFFF;" clip-path="url(#cpNi45NzM4NXw3MTMuMDI2fDIwOS4yMjd8Ni45NzM4NQ==)"/>
  <g clip-path="url(#cpNi45NzM4NXw3MTMuMDI2fDIwOS4yMjd8Ni45NzM4NQ==)">
    <text x="560.74" y="159.08" style="font-size: 9.96px; fill: #AF0DC7; font-family: Liberation Sans;" textLength="34.30px" lengthAdjust="spacingAndGlyphs">SoptSC</text>
  </g>
  <polyline points="510.90,147.00 534.79,147.00 534.70,147.00 535.05,146.98 535.39,146.91 535.72,146.79 536.02,146.62 536.29,146.40 536.52,146.14 536.70,145.84 536.84,145.52 536.92,145.18 536.95,144.84 536.95,144.84 536.95,135.08 536.95,135.08 536.92,134.74 536.84,134.40 536.70,134.08 536.52,133.79 536.29,133.53 536.02,133.31 535.72,133.13 535.39,133.01 535.05,132.94 534.79,132.92 510.90,132.92 511.16,132.94 510.81,132.92 510.47,132.97 510.14,133.06 509.82,133.21 509.54,133.41 509.28,133.65 509.08,133.93 508.91,134.24 508.80,134.57 508.75,134.91 508.74,135.08 508.74,144.84 508.75,144.66 508.75,145.01 508.80,145.35 508.91,145.68 509.08,145.99 509.28,146.27 509.54,146.51 509.82,146.71 510.14,146.86 510.47,146.95 510.81,147.00 " style="stroke-width: 0.53; stroke: #CFBF00; fill: #FFFFFF;" clip-path="url(#cpNi45NzM4NXw3MTMuMDI2fDIwOS4yMjd8Ni45NzM4NQ==)"/>
  <g clip-path="url(#cpNi45NzM4NXw3MTMuMDI2fDIwOS4yMjd8Ni45NzM4NQ==)">
    <text x="512.34" y="143.40" style="font-size: 9.96px; fill: #CFBF00; font-family: Liberation Sans;" textLength="21.01px" lengthAdjust="spacingAndGlyphs">MFA</text>
  </g>
  <polyline points="448.26,169.85 484.87,169.85 484.78,169.85 485.13,169.83 485.47,169.76 485.80,169.64 486.10,169.47 486.37,169.25 486.60,168.99 486.78,168.69 486.92,168.37 487.00,168.04 487.03,167.69 487.03,167.69 487.03,157.93 487.03,157.93 487.00,157.59 486.92,157.25 486.78,156.93 486.60,156.64 486.37,156.38 486.10,156.16 485.80,155.98 485.47,155.86 485.13,155.79 484.87,155.77 448.26,155.77 448.52,155.79 448.17,155.78 447.83,155.82 447.49,155.92 447.18,156.06 446.89,156.26 446.64,156.50 446.43,156.78 446.27,157.09 446.16,157.42 446.10,157.76 446.10,157.93 446.10,167.69 446.10,167.52 446.10,167.86 446.16,168.21 446.27,168.54 446.43,168.84 446.64,169.12 446.89,169.36 447.18,169.56 447.49,169.71 447.83,169.81 448.17,169.85 " style="stroke-width: 0.53; stroke: #AF0DC7; fill: #FFFFFF;" clip-path="url(#cpNi45NzM4NXw3MTMuMDI2fDIwOS4yMjd8Ni45NzM4NQ==)"/>
  <g clip-path="url(#cpNi45NzM4NXw3MTMuMDI2fDIwOS4yMjd8Ni45NzM4NQ==)">
    <text x="449.70" y="166.25" style="font-size: 9.96px; fill: #AF0DC7; font-family: Liberation Sans;" textLength="33.73px" lengthAdjust="spacingAndGlyphs">SCENT</text>
  </g>
  <polyline points="471.43,203.36 503.08,203.36 502.99,203.36 503.34,203.35 503.68,203.28 504.00,203.15 504.31,202.98 504.58,202.76 504.81,202.50 504.99,202.21 505.13,201.89 505.21,201.55 505.24,201.20 505.24,201.20 505.24,191.45 505.24,191.45 505.21,191.10 505.13,190.76 504.99,190.44 504.81,190.15 504.58,189.89 504.31,189.67 504.00,189.50 503.68,189.37 503.34,189.30 503.08,189.29 471.43,189.29 471.69,189.30 471.35,189.29 471.00,189.33 470.67,189.43 470.35,189.58 470.07,189.77 469.82,190.01 469.61,190.29 469.45,190.60 469.34,190.93 469.28,191.27 469.27,191.45 469.27,201.20 469.28,201.03 469.28,201.38 469.34,201.72 469.45,202.05 469.61,202.36 469.82,202.63 470.07,202.88 470.35,203.07 470.67,203.22 471.00,203.32 471.35,203.36 " style="stroke-width: 0.53; stroke: #5ECD2E; fill: #FFFFFF;" clip-path="url(#cpNi45NzM4NXw3MTMuMDI2fDIwOS4yMjd8Ni45NzM4NQ==)"/>
  <g clip-path="url(#cpNi45NzM4NXw3MTMuMDI2fDIwOS4yMjd8Ni45NzM4NQ==)">
    <text x="472.87" y="199.76" style="font-size: 9.96px; fill: #5ECD2E; font-family: Liberation Sans;" textLength="28.77px" lengthAdjust="spacingAndGlyphs">SLICE</text>
  </g>
  <polyline points="532.53,181.48 576.89,181.48 576.80,181.48 577.15,181.46 577.49,181.39 577.81,181.27 578.12,181.10 578.39,180.88 578.62,180.62 578.80,180.32 578.94,180.00 579.02,179.67 579.05,179.32 579.05,179.32 579.05,169.56 579.05,169.56 579.02,169.22 578.94,168.88 578.80,168.56 578.62,168.27 578.39,168.01 578.12,167.79 577.81,167.61 577.49,167.49 577.15,167.42 576.89,167.40 532.53,167.40 532.79,167.42 532.45,167.41 532.10,167.45 531.77,167.54 531.45,167.69 531.17,167.89 530.92,168.13 530.71,168.41 530.55,168.72 530.44,169.05 530.38,169.39 530.37,169.56 530.37,179.32 530.38,179.15 530.38,179.49 530.44,179.84 530.55,180.17 530.71,180.47 530.92,180.75 531.17,180.99 531.45,181.19 531.77,181.34 532.10,181.44 532.45,181.48 " style="stroke-width: 0.53; stroke: #AF0DC7; fill: #FFFFFF;" clip-path="url(#cpNi45NzM4NXw3MTMuMDI2fDIwOS4yMjd8Ni45NzM4NQ==)"/>
  <g clip-path="url(#cpNi45NzM4NXw3MTMuMDI2fDIwOS4yMjd8Ni45NzM4NQ==)">
    <text x="533.97" y="177.88" style="font-size: 9.96px; fill: #AF0DC7; font-family: Liberation Sans;" textLength="41.47px" lengthAdjust="spacingAndGlyphs">UNCURL</text>
  </g>
  <polyline points="543.54,197.74 595.68,197.74 595.59,197.74 595.94,197.73 596.28,197.66 596.60,197.54 596.90,197.36 597.17,197.14 597.40,196.88 597.59,196.59 597.73,196.27 597.81,195.93 597.84,195.58 597.84,195.58 597.84,185.83 597.84,185.83 597.81,185.48 597.73,185.15 597.59,184.83 597.40,184.53 597.17,184.27 596.90,184.05 596.60,183.88 596.28,183.75 595.94,183.69 595.68,183.67 543.54,183.67 543.80,183.69 543.46,183.67 543.11,183.71 542.78,183.81 542.46,183.96 542.18,184.16 541.93,184.40 541.72,184.67 541.56,184.98 541.44,185.31 541.39,185.66 541.38,185.83 541.38,195.58 541.39,195.41 541.39,195.76 541.44,196.10 541.56,196.43 541.72,196.74 541.93,197.02 542.18,197.26 542.46,197.45 542.78,197.60 543.11,197.70 543.46,197.74 " style="stroke-width: 0.53; stroke: #AF0DC7; fill: #FFFFFF;" clip-path="url(#cpNi45NzM4NXw3MTMuMDI2fDIwOS4yMjd8Ni45NzM4NQ==)"/>
  <g clip-path="url(#cpNi45NzM4NXw3MTMuMDI2fDIwOS4yMjd8Ni45NzM4NQ==)">
    <text x="544.98" y="194.14" style="font-size: 9.96px; fill: #AF0DC7; font-family: Liberation Sans;" textLength="49.26px" lengthAdjust="spacingAndGlyphs">PhenoPath</text>
  </g>
  <polyline points="498.46,167.10 537.30,167.10 537.21,167.10 537.56,167.08 537.90,167.01 538.23,166.89 538.53,166.72 538.80,166.50 539.03,166.24 539.21,165.94 539.35,165.62 539.43,165.29 539.46,164.94 539.46,164.94 539.46,155.18 539.46,155.18 539.43,154.84 539.35,154.50 539.21,154.18 539.03,153.89 538.80,153.63 538.53,153.41 538.23,153.23 537.90,153.11 537.56,153.04 537.30,153.02 498.46,153.02 498.72,153.04 498.37,153.03 498.03,153.07 497.69,153.16 497.38,153.31 497.09,153.51 496.84,153.75 496.64,154.03 496.47,154.34 496.36,154.67 496.31,155.01 496.30,155.18 496.30,164.94 496.31,164.77 496.31,165.11 496.36,165.46 496.47,165.79 496.64,166.09 496.84,166.37 497.09,166.61 497.38,166.81 497.69,166.96 498.03,167.06 498.37,167.10 " style="stroke-width: 0.53; stroke: #CFBF00; fill: #FFFFFF;" clip-path="url(#cpNi45NzM4NXw3MTMuMDI2fDIwOS4yMjd8Ni45NzM4NQ==)"/>
  <g clip-path="url(#cpNi45NzM4NXw3MTMuMDI2fDIwOS4yMjd8Ni45NzM4NQ==)">
    <text x="499.90" y="163.50" style="font-size: 9.96px; fill: #CFBF00; font-family: Liberation Sans;" textLength="35.96px" lengthAdjust="spacingAndGlyphs">GPfates</text>
  </g>
  <polyline points="270.44,183.41 312.58,183.41 312.50,183.41 312.84,183.39 313.18,183.32 313.51,183.20 313.81,183.03 314.08,182.81 314.31,182.55 314.50,182.25 314.63,181.93 314.72,181.59 314.74,181.25 314.74,181.25 314.74,171.49 314.74,171.49 314.72,171.15 314.63,170.81 314.50,170.49 314.31,170.20 314.08,169.94 313.81,169.72 313.51,169.54 313.18,169.42 312.84,169.35 312.58,169.33 270.44,169.33 270.70,169.35 270.35,169.33 270.00,169.38 269.67,169.47 269.36,169.62 269.07,169.82 268.82,170.06 268.61,170.34 268.45,170.65 268.34,170.98 268.28,171.32 268.28,171.49 268.28,181.25 268.28,181.07 268.28,181.42 268.34,181.76 268.45,182.09 268.61,182.40 268.82,182.68 269.07,182.92 269.36,183.12 269.67,183.27 270.00,183.36 270.35,183.41 " style="stroke-width: 0.53; stroke: #AF0DC7; fill: #FFFFFF;" clip-path="url(#cpNi45NzM4NXw3MTMuMDI2fDIwOS4yMjd8Ni45NzM4NQ==)"/>
  <g clip-path="url(#cpNi45NzM4NXw3MTMuMDI2fDIwOS4yMjd8Ni45NzM4NQ==)">
    <text x="271.88" y="179.81" style="font-size: 9.96px; fill: #AF0DC7; font-family: Liberation Sans;" textLength="39.27px" lengthAdjust="spacingAndGlyphs">Waterfall</text>
  </g>
  <defs>
    <clipPath id="cpMHw3MjB8MjUyfDA=">
      <rect x="0.00" y="0.00" width="720.00" height="252.00"/>
    </clipPath>
  </defs>
  <polyline points="6.97,209.23 713.03,209.23 " style="stroke-width: 1.07; stroke-linecap: square;" clip-path="url(#cpMHw3MjB8MjUyfDA=)"/>
  <polyline points="39.07,212.71 39.07,209.23 " style="stroke-width: 1.07; stroke-linecap: butt;" clip-path="url(#cpMHw3MjB8MjUyfDA=)"/>
  <polyline points="190.12,212.71 190.12,209.23 " style="stroke-width: 1.07; stroke-linecap: butt;" clip-path="url(#cpMHw3MjB8MjUyfDA=)"/>
  <polyline points="341.17,212.71 341.17,209.23 " style="stroke-width: 1.07; stroke-linecap: butt;" clip-path="url(#cpMHw3MjB8MjUyfDA=)"/>
  <polyline points="492.64,212.71 492.64,209.23 " style="stroke-width: 1.07; stroke-linecap: butt;" clip-path="url(#cpMHw3MjB8MjUyfDA=)"/>
  <polyline points="643.69,212.71 643.69,209.23 " style="stroke-width: 1.07; stroke-linecap: butt;" clip-path="url(#cpMHw3MjB8MjUyfDA=)"/>
  <g clip-path="url(#cpMHw3MjB8MjUyfDA=)">
    <text x="25.72" y="223.95" style="font-size: 12.00px; font-family: Liberation Sans;" textLength="26.70px" lengthAdjust="spacingAndGlyphs">2014</text>
  </g>
  <g clip-path="url(#cpMHw3MjB8MjUyfDA=)">
    <text x="176.77" y="223.95" style="font-size: 12.00px; font-family: Liberation Sans;" textLength="26.70px" lengthAdjust="spacingAndGlyphs">2015</text>
  </g>
  <g clip-path="url(#cpMHw3MjB8MjUyfDA=)">
    <text x="327.82" y="223.95" style="font-size: 12.00px; font-family: Liberation Sans;" textLength="26.70px" lengthAdjust="spacingAndGlyphs">2016</text>
  </g>
  <g clip-path="url(#cpMHw3MjB8MjUyfDA=)">
    <text x="479.29" y="223.95" style="font-size: 12.00px; font-family: Liberation Sans;" textLength="26.70px" lengthAdjust="spacingAndGlyphs">2017</text>
  </g>
  <g clip-path="url(#cpMHw3MjB8MjUyfDA=)">
    <text x="630.34" y="223.95" style="font-size: 12.00px; font-family: Liberation Sans;" textLength="26.70px" lengthAdjust="spacingAndGlyphs">2018</text>
  </g>
  <g clip-path="url(#cpMHw3MjB8MjUyfDA=)">
    <text x="312.13" y="240.80" style="font-size: 14.00px; font-family: Liberation Sans;" textLength="95.74px" lengthAdjust="spacingAndGlyphs">Publishing date</text>
  </g>
</svg>
