<?xml version="1.0" encoding="UTF-8"?>
<svg xmlns="http://www.w3.org/2000/svg" xmlns:xlink="http://www.w3.org/1999/xlink" viewBox="0 0 720.00 252.00">
  <defs>
    <style type="text/css"><![CDATA[
    line, polyline, path, rect, circle {
      fill: none;
      stroke: #000000;
      stroke-linecap: round;
      stroke-linejoin: round;
      stroke-miterlimit: 10.00;
    }
  ]]></style>
  </defs>
  <line x1="630.44" y1="185.24" x2="630.44" y2="209.23" style="stroke-width: 1.07; stroke: #AF0DC7;" clip-path="url(#cpNi45NzM4NXw3MTMuMDI2fDIwOS4yMjd8Ni45NzM4NQ==)"/>
  <line x1="580.37" y1="199.73" x2="580.37" y2="209.23" style="stroke-width: 1.07; stroke: #0073D7;" clip-path="url(#cpNi45NzM4NXw3MTMuMDI2fDIwOS4yMjd8Ni45NzM4NQ==)"/>
  <line x1="658.17" y1="205.63" x2="658.17" y2="209.23" style="stroke-width: 1.07; stroke: #5ECD2E;" clip-path="url(#cpNi45NzM4NXw3MTMuMDI2fDIwOS4yMjd8Ni45NzM4NQ==)"/>
  <line x1="522.85" y1="201.14" x2="522.85" y2="209.23" style="stroke-width: 1.07; stroke: #CFBF00;" clip-path="url(#cpNi45NzM4NXw3MTMuMDI2fDIwOS4yMjd8Ni45NzM4NQ==)"/>
  <line x1="510.43" y1="164.04" x2="510.43" y2="209.23" style="stroke-width: 1.07; stroke: #AF0DC7;" clip-path="url(#cpNi45NzM4NXw3MTMuMDI2fDIwOS4yMjd8Ni45NzM4NQ==)"/>
  <line x1="572.09" y1="153.08" x2="572.09" y2="209.23" style="stroke-width: 1.07; stroke: #AF0DC7;" clip-path="url(#cpNi45NzM4NXw3MTMuMDI2fDIwOS4yMjd8Ni45NzM4NQ==)"/>
  <line x1="651.96" y1="165.55" x2="651.96" y2="209.23" style="stroke-width: 1.07; stroke: #5ECD2E;" clip-path="url(#cpNi45NzM4NXw3MTMuMDI2fDIwOS4yMjd8Ni45NzM4NQ==)"/>
  <line x1="631.69" y1="145.59" x2="631.69" y2="209.22" style="stroke-width: 1.07; stroke: #CFBF00;" clip-path="url(#cpNi45NzM4NXw3MTMuMDI2fDIwOS4yMjd8Ni45NzM4NQ==)"/>
  <line x1="513.74" y1="146.08" x2="513.74" y2="209.22" style="stroke-width: 1.07; stroke: #5ECD2E;" clip-path="url(#cpNi45NzM4NXw3MTMuMDI2fDIwOS4yMjd8Ni45NzM4NQ==)"/>
  <line x1="564.64" y1="136.48" x2="564.64" y2="209.22" style="stroke-width: 1.07; stroke: #AF0DC7;" clip-path="url(#cpNi45NzM4NXw3MTMuMDI2fDIwOS4yMjd8Ni45NzM4NQ==)"/>
  <line x1="579.54" y1="111.86" x2="579.54" y2="209.22" style="stroke-width: 1.07; stroke: #CFBF00;" clip-path="url(#cpNi45NzM4NXw3MTMuMDI2fDIwOS4yMjd8Ni45NzM4NQ==)"/>
  <line x1="413.18" y1="203.46" x2="413.18" y2="209.22" style="stroke-width: 1.07; stroke: #AF0DC7;" clip-path="url(#cpNi45NzM4NXw3MTMuMDI2fDIwOS4yMjd8Ni45NzM4NQ==)"/>
  <line x1="562.99" y1="169.41" x2="562.99" y2="209.22" style="stroke-width: 1.07; stroke: #5ECD2E;" clip-path="url(#cpNi45NzM4NXw3MTMuMDI2fDIwOS4yMjd8Ni45NzM4NQ==)"/>
  <line x1="577.89" y1="68.86" x2="577.89" y2="209.22" style="stroke-width: 1.07; stroke: #AF0DC7;" clip-path="url(#cpNi45NzM4NXw3MTMuMDI2fDIwOS4yMjd8Ni45NzM4NQ==)"/>
  <line x1="542.30" y1="183.80" x2="542.30" y2="209.22" style="stroke-width: 1.07; stroke: #AF0DC7;" clip-path="url(#cpNi45NzM4NXw3MTMuMDI2fDIwOS4yMjd8Ni45NzM4NQ==)"/>
  <line x1="416.08" y1="160.79" x2="416.08" y2="209.22" style="stroke-width: 1.07; stroke: #5ECD2E;" clip-path="url(#cpNi45NzM4NXw3MTMuMDI2fDIwOS4yMjd8Ni45NzM4NQ==)"/>
  <line x1="455.80" y1="200.63" x2="455.80" y2="209.22" style="stroke-width: 1.07; stroke: #AF0DC7;" clip-path="url(#cpNi45NzM4NXw3MTMuMDI2fDIwOS4yMjd8Ni45NzM4NQ==)"/>
  <line x1="457.05" y1="180.29" x2="457.05" y2="209.22" style="stroke-width: 1.07; stroke: #AF0DC7;" clip-path="url(#cpNi45NzM4NXw3MTMuMDI2fDIwOS4yMjd8Ni45NzM4NQ==)"/>
  <line x1="412.35" y1="125.52" x2="412.35" y2="209.22" style="stroke-width: 1.07; stroke: #5ECD2E;" clip-path="url(#cpNi45NzM4NXw3MTMuMDI2fDIwOS4yMjd8Ni45NzM4NQ==)"/>
  <line x1="435.94" y1="104.21" x2="435.94" y2="209.22" style="stroke-width: 1.07; stroke: #AF0DC7;" clip-path="url(#cpNi45NzM4NXw3MTMuMDI2fDIwOS4yMjd8Ni45NzM4NQ==)"/>
  <line x1="624.24" y1="84.10" x2="624.24" y2="209.22" style="stroke-width: 1.07; stroke: #5ECD2E;" clip-path="url(#cpNi45NzM4NXw3MTMuMDI2fDIwOS4yMjd8Ni45NzM4NQ==)"/>
  <line x1="569.61" y1="55.84" x2="569.61" y2="209.22" style="stroke-width: 1.07; stroke: #AF0DC7;" clip-path="url(#cpNi45NzM4NXw3MTMuMDI2fDIwOS4yMjd8Ni45NzM4NQ==)"/>
  <line x1="603.96" y1="125.22" x2="603.96" y2="209.22" style="stroke-width: 1.07; stroke: #FF8821;" clip-path="url(#cpNi45NzM4NXw3MTMuMDI2fDIwOS4yMjd8Ni45NzM4NQ==)"/>
  <line x1="200.88" y1="205.33" x2="200.88" y2="209.22" style="stroke-width: 1.07; stroke: #5ECD2E;" clip-path="url(#cpNi45NzM4NXw3MTMuMDI2fDIwOS4yMjd8Ni45NzM4NQ==)"/>
  <line x1="659.41" y1="124.20" x2="659.41" y2="209.22" style="stroke-width: 1.07; stroke: #5ECD2E;" clip-path="url(#cpNi45NzM4NXw3MTMuMDI2fDIwOS4yMjd8Ni45NzM4NQ==)"/>
  <line x1="514.16" y1="102.05" x2="514.16" y2="209.22" style="stroke-width: 1.07; stroke: #5ECD2E;" clip-path="url(#cpNi45NzM4NXw3MTMuMDI2fDIwOS4yMjd8Ni45NzM4NQ==)"/>
  <line x1="656.10" y1="62.56" x2="656.10" y2="209.22" style="stroke-width: 1.07; stroke: #FF8821;" clip-path="url(#cpNi45NzM4NXw3MTMuMDI2fDIwOS4yMjd8Ni45NzM4NQ==)"/>
  <line x1="554.71" y1="90.55" x2="554.71" y2="209.22" style="stroke-width: 1.07; stroke: #AF0DC7;" clip-path="url(#cpNi45NzM4NXw3MTMuMDI2fDIwOS4yMjd8Ni45NzM4NQ==)"/>
  <line x1="386.28" y1="182.14" x2="386.28" y2="209.22" style="stroke-width: 1.07; stroke: #AF0DC7;" clip-path="url(#cpNi45NzM4NXw3MTMuMDI2fDIwOS4yMjd8Ni45NzM4NQ==)"/>
  <line x1="391.66" y1="140.81" x2="391.66" y2="209.22" style="stroke-width: 1.07; stroke: #0073D7;" clip-path="url(#cpNi45NzM4NXw3MTMuMDI2fDIwOS4yMjd8Ni45NzM4NQ==)"/>
  <line x1="583.68" y1="24.65" x2="583.68" y2="209.22" style="stroke-width: 1.07; stroke: #0073D7;" clip-path="url(#cpNi45NzM4NXw3MTMuMDI2fDIwOS4yMjd8Ni45NzM4NQ==)"/>
  <line x1="616.37" y1="41.50" x2="616.37" y2="209.22" style="stroke-width: 1.07; stroke: #FF4237;" clip-path="url(#cpNi45NzM4NXw3MTMuMDI2fDIwOS4yMjd8Ni45NzM4NQ==)"/>
  <line x1="291.51" y1="183.05" x2="291.51" y2="209.22" style="stroke-width: 1.07; stroke: #AF0DC7;" clip-path="url(#cpNi45NzM4NXw3MTMuMDI2fDIwOS4yMjd8Ni45NzM4NQ==)"/>
  <line x1="410.70" y1="83.19" x2="410.70" y2="209.22" style="stroke-width: 1.07; stroke: #AF0DC7;" clip-path="url(#cpNi45NzM4NXw3MTMuMDI2fDIwOS4yMjd8Ni45NzM4NQ==)"/>
  <line x1="297.72" y1="138.27" x2="297.72" y2="209.22" style="stroke-width: 1.07; stroke: #AF0DC7;" clip-path="url(#cpNi45NzM4NXw3MTMuMDI2fDIwOS4yMjd8Ni45NzM4NQ==)"/>
  <line x1="296.48" y1="116.36" x2="296.48" y2="209.22" style="stroke-width: 1.07; stroke: #AF0DC7;" clip-path="url(#cpNi45NzM4NXw3MTMuMDI2fDIwOS4yMjd8Ni45NzM4NQ==)"/>
  <line x1="76.31" y1="202.83" x2="76.31" y2="209.22" style="stroke-width: 1.07; stroke: #5ECD2E;" clip-path="url(#cpNi45NzM4NXw3MTMuMDI2fDIwOS4yMjd8Ni45NzM4NQ==)"/>
  <line x1="562.57" y1="41.58" x2="562.57" y2="209.22" style="stroke-width: 1.07; stroke: #39CCCC;" clip-path="url(#cpNi45NzM4NXw3MTMuMDI2fDIwOS4yMjd8Ni45NzM4NQ==)"/>
  <line x1="434.28" y1="24.65" x2="434.28" y2="209.22" style="stroke-width: 1.07; stroke: #5ECD2E;" clip-path="url(#cpNi45NzM4NXw3MTMuMDI2fDIwOS4yMjd8Ni45NzM4NQ==)"/>
  <line x1="531.12" y1="120.76" x2="531.12" y2="209.21" style="stroke-width: 1.07; stroke: #5ECD2E;" clip-path="url(#cpNi45NzM4NXw3MTMuMDI2fDIwOS4yMjd8Ni45NzM4NQ==)"/>
  <line x1="466.56" y1="77.30" x2="466.56" y2="209.21" style="stroke-width: 1.07; stroke: #AF0DC7;" clip-path="url(#cpNi45NzM4NXw3MTMuMDI2fDIwOS4yMjd8Ni45NzM4NQ==)"/>
  <line x1="487.26" y1="124.84" x2="487.26" y2="209.21" style="stroke-width: 1.07; stroke: #5ECD2E;" clip-path="url(#cpNi45NzM4NXw3MTMuMDI2fDIwOS4yMjd8Ni45NzM4NQ==)"/>
  <line x1="345.72" y1="161.82" x2="345.72" y2="209.21" style="stroke-width: 1.07; stroke: #5ECD2E;" clip-path="url(#cpNi45NzM4NXw3MTMuMDI2fDIwOS4yMjd8Ni45NzM4NQ==)"/>
  <line x1="356.90" y1="204.74" x2="356.90" y2="209.21" style="stroke-width: 1.07; stroke: #0073D7;" clip-path="url(#cpNi45NzM4NXw3MTMuMDI2fDIwOS4yMjd8Ni45NzM4NQ==)"/>
  <line x1="617.62" y1="102.76" x2="617.62" y2="209.21" style="stroke-width: 1.07; stroke: #AF0DC7;" clip-path="url(#cpNi45NzM4NXw3MTMuMDI2fDIwOS4yMjd8Ni45NzM4NQ==)"/>
  <line x1="189.29" y1="183.34" x2="189.29" y2="209.21" style="stroke-width: 1.07; stroke: #5ECD2E;" clip-path="url(#cpNi45NzM4NXw3MTMuMDI2fDIwOS4yMjd8Ni45NzM4NQ==)"/>
  <line x1="485.60" y1="51.75" x2="485.60" y2="209.21" style="stroke-width: 1.07; stroke: #5ECD2E;" clip-path="url(#cpNi45NzM4NXw3MTMuMDI2fDIwOS4yMjd8Ni45NzM4NQ==)"/>
  <line x1="517.88" y1="24.65" x2="517.88" y2="209.21" style="stroke-width: 1.07; stroke: #CFBF00;" clip-path="url(#cpNi45NzM4NXw3MTMuMDI2fDIwOS4yMjd8Ni45NzM4NQ==)"/>
  <line x1="382.14" y1="104.60" x2="382.14" y2="209.21" style="stroke-width: 1.07; stroke: #FF8821;" clip-path="url(#cpNi45NzM4NXw3MTMuMDI2fDIwOS4yMjd8Ni45NzM4NQ==)"/>
  <line x1="380.49" y1="70.40" x2="380.49" y2="209.21" style="stroke-width: 1.07; stroke: #AF0DC7;" clip-path="url(#cpNi45NzM4NXw3MTMuMDI2fDIwOS4yMjd8Ni45NzM4NQ==)"/>
  <line x1="396.21" y1="54.42" x2="396.21" y2="209.21" style="stroke-width: 1.07; stroke: #5ECD2E;" clip-path="url(#cpNi45NzM4NXw3MTMuMDI2fDIwOS4yMjd8Ni45NzM4NQ==)"/>
  <line x1="85.83" y1="180.78" x2="85.83" y2="209.21" style="stroke-width: 1.07; stroke: #AF0DC7;" clip-path="url(#cpNi45NzM4NXw3MTMuMDI2fDIwOS4yMjd8Ni45NzM4NQ==)"/>
  <line x1="537.33" y1="77.07" x2="537.33" y2="209.21" style="stroke-width: 1.07; stroke: #5ECD2E;" clip-path="url(#cpNi45NzM4NXw3MTMuMDI2fDIwOS4yMjd8Ni45NzM4NQ==)"/>
  <line x1="255.51" y1="204.97" x2="255.51" y2="209.21" style="stroke-width: 1.07; stroke: #AF0DC7;" clip-path="url(#cpNi45NzM4NXw3MTMuMDI2fDIwOS4yMjd8Ni45NzM4NQ==)"/>
  <line x1="406.97" y1="38.08" x2="406.97" y2="209.21" style="stroke-width: 1.07; stroke: #CFBF00;" clip-path="url(#cpNi45NzM4NXw3MTMuMDI2fDIwOS4yMjd8Ni45NzM4NQ==)"/>
  <defs>
    <clipPath id="cpNi45NzM4NXw3MTMuMDI2fDIwOS4yMjd8Ni45NzM4NQ==">
      <rect x="6.97" y="6.97" width="706.05" height="202.25"/>
    </clipPath>
  </defs>
  <polyline points="387.83,38.08 426.11,38.08 426.02,38.08 426.37,38.06 426.71,37.99 427.03,37.87 427.34,37.69 427.60,37.47 427.84,37.21 428.02,36.92 428.16,36.60 428.24,36.26 428.27,35.92 428.27,35.92 428.27,26.16 428.27,26.16 428.24,25.82 428.16,25.48 428.02,25.16 427.84,24.86 427.60,24.60 427.34,24.38 427.03,24.21 426.71,24.09 426.37,24.02 426.11,24.00 387.83,24.00 388.09,24.02 387.75,24.00 387.40,24.05 387.07,24.14 386.75,24.29 386.47,24.49 386.22,24.73 386.01,25.01 385.85,25.32 385.74,25.65 385.68,25.99 385.67,26.16 385.67,35.92 385.68,35.74 385.68,36.09 385.74,36.43 385.85,36.76 386.01,37.07 386.22,37.35 386.47,37.59 386.75,37.79 387.07,37.94 387.40,38.03 387.75,38.08 " style="stroke-width: 0.53; stroke: #CFBF00; fill: #FFFFFF;" clip-path="url(#cpNi45NzM4NXw3MTMuMDI2fDIwOS4yMjd8Ni45NzM4NQ==)"/>
  <g clip-path="url(#cpNi45NzM4NXw3MTMuMDI2fDIwOS4yMjd8Ni45NzM4NQ==)">
    <text x="389.27" y="34.48" style="font-size: 9.96px; fill: #CFBF00; font-family: Liberation Sans;" textLength="35.39px" lengthAdjust="spacingAndGlyphs">SCOUP</text>
  </g>
  <polyline points="239.69,204.97 271.32,204.97 271.24,204.97 271.58,204.95 271.92,204.88 272.25,204.76 272.55,204.58 272.82,204.37 273.05,204.10 273.24,203.81 273.37,203.49 273.46,203.15 273.48,202.81 273.48,202.81 273.48,193.05 273.48,193.05 273.46,192.71 273.37,192.37 273.24,192.05 273.05,191.75 272.82,191.49 272.55,191.27 272.25,191.10 271.92,190.98 271.58,190.91 271.32,190.89 239.69,190.89 239.95,190.91 239.60,190.89 239.26,190.94 238.92,191.03 238.61,191.18 238.32,191.38 238.07,191.62 237.86,191.90 237.70,192.21 237.59,192.54 237.53,192.88 237.53,193.05 237.53,202.81 237.53,202.63 237.53,202.98 237.59,203.32 237.70,203.65 237.86,203.96 238.07,204.24 238.32,204.48 238.61,204.68 238.92,204.83 239.26,204.92 239.60,204.97 " style="stroke-width: 0.53; stroke: #AF0DC7; fill: #FFFFFF;" clip-path="url(#cpNi45NzM4NXw3MTMuMDI2fDIwOS4yMjd8Ni45NzM4NQ==)"/>
  <g clip-path="url(#cpNi45NzM4NXw3MTMuMDI2fDIwOS4yMjd8Ni45NzM4NQ==)">
    <text x="241.13" y="201.37" style="font-size: 9.96px; fill: #AF0DC7; font-family: Liberation Sans;" textLength="28.76px" lengthAdjust="spacingAndGlyphs">NBOR</text>
  </g>
  <polyline points="516.25,77.07 558.41,77.07 558.32,77.07 558.67,77.06 559.01,76.99 559.34,76.86 559.64,76.69 559.91,76.47 560.14,76.21 560.32,75.92 560.46,75.60 560.54,75.26 560.57,74.91 560.57,74.91 560.57,65.16 560.57,65.16 560.54,64.81 560.46,64.47 560.32,64.15 560.14,63.86 559.91,63.60 559.64,63.38 559.34,63.21 559.01,63.08 558.67,63.01 558.41,63.00 516.25,63.00 516.51,63.01 516.16,63.00 515.82,63.04 515.48,63.14 515.17,63.29 514.88,63.48 514.63,63.73 514.42,64.00 514.26,64.31 514.15,64.64 514.10,64.98 514.09,65.16 514.09,74.91 514.10,74.74 514.10,75.09 514.15,75.43 514.26,75.76 514.42,76.07 514.63,76.35 514.88,76.59 515.17,76.78 515.48,76.93 515.82,77.03 516.16,77.07 " style="stroke-width: 0.53; stroke: #5ECD2E; fill: #FFFFFF;" clip-path="url(#cpNi45NzM4NXw3MTMuMDI2fDIwOS4yMjd8Ni45NzM4NQ==)"/>
  <g clip-path="url(#cpNi45NzM4NXw3MTMuMDI2fDIwOS4yMjd8Ni45NzM4NQ==)">
    <text x="517.69" y="73.47" style="font-size: 9.96px; fill: #5ECD2E; font-family: Liberation Sans;" textLength="39.28px" lengthAdjust="spacingAndGlyphs">slingshot</text>
  </g>
  <polyline points="59.22,180.78 112.44,180.78 112.35,180.77 112.70,180.76 113.04,180.69 113.37,180.57 113.67,180.39 113.94,180.17 114.17,179.91 114.35,179.62 114.49,179.30 114.57,178.96 114.60,178.62 114.60,178.62 114.60,168.86 114.60,168.86 114.57,168.51 114.49,168.18 114.35,167.86 114.17,167.56 113.94,167.30 113.67,167.08 113.37,166.91 113.04,166.79 112.70,166.72 112.44,166.70 59.22,166.70 59.48,166.72 59.13,166.70 58.79,166.74 58.46,166.84 58.14,166.99 57.86,167.19 57.60,167.43 57.40,167.71 57.23,168.01 57.12,168.34 57.07,168.69 57.06,168.86 57.06,178.62 57.07,178.44 57.07,178.79 57.12,179.13 57.23,179.46 57.40,179.77 57.60,180.05 57.86,180.29 58.14,180.49 58.46,180.64 58.79,180.73 59.13,180.77 " style="stroke-width: 0.53; stroke: #AF0DC7; fill: #FFFFFF;" clip-path="url(#cpNi45NzM4NXw3MTMuMDI2fDIwOS4yMjd8Ni45NzM4NQ==)"/>
  <g clip-path="url(#cpNi45NzM4NXw3MTMuMDI2fDIwOS4yMjd8Ni45NzM4NQ==)">
    <text x="60.66" y="177.18" style="font-size: 9.96px; fill: #AF0DC7; font-family: Liberation Sans;" textLength="50.34px" lengthAdjust="spacingAndGlyphs">Wanderlust</text>
  </g>
  <polyline points="377.90,54.42 414.52,54.42 414.43,54.41 414.78,54.40 415.12,54.33 415.44,54.21 415.74,54.03 416.01,53.81 416.24,53.55 416.43,53.26 416.57,52.94 416.65,52.60 416.68,52.26 416.68,52.26 416.68,42.50 416.68,42.50 416.65,42.15 416.57,41.82 416.43,41.50 416.24,41.20 416.01,40.94 415.74,40.72 415.44,40.55 415.12,40.43 414.78,40.36 414.52,40.34 377.90,40.34 378.16,40.36 377.82,40.34 377.47,40.38 377.14,40.48 376.82,40.63 376.54,40.83 376.29,41.07 376.08,41.35 375.92,41.65 375.81,41.98 375.75,42.33 375.74,42.50 375.74,52.26 375.75,52.08 375.75,52.43 375.81,52.77 375.92,53.10 376.08,53.41 376.29,53.69 376.54,53.93 376.82,54.13 377.14,54.28 377.47,54.37 377.82,54.41 " style="stroke-width: 0.53; stroke: #5ECD2E; fill: #FFFFFF;" clip-path="url(#cpNi45NzM4NXw3MTMuMDI2fDIwOS4yMjd8Ni45NzM4NQ==)"/>
  <g clip-path="url(#cpNi45NzM4NXw3MTMuMDI2fDIwOS4yMjd8Ni45NzM4NQ==)">
    <text x="379.34" y="50.82" style="font-size: 9.96px; fill: #5ECD2E; font-family: Liberation Sans;" textLength="33.73px" lengthAdjust="spacingAndGlyphs">TSCAN</text>
  </g>
  <polyline points="357.18,70.40 403.79,70.40 403.70,70.40 404.05,70.38 404.39,70.31 404.71,70.19 405.01,70.02 405.28,69.80 405.51,69.54 405.70,69.24 405.84,68.92 405.92,68.59 405.95,68.24 405.95,68.24 405.95,58.48 405.95,58.48 405.92,58.14 405.84,57.80 405.70,57.48 405.51,57.19 405.28,56.93 405.01,56.71 404.71,56.53 404.39,56.41 404.05,56.34 403.79,56.32 357.18,56.32 357.44,56.34 357.10,56.33 356.75,56.37 356.42,56.47 356.10,56.61 355.82,56.81 355.57,57.05 355.36,57.33 355.20,57.64 355.09,57.97 355.03,58.31 355.02,58.48 355.02,68.24 355.03,68.07 355.03,68.41 355.09,68.76 355.20,69.09 355.36,69.39 355.57,69.67 355.82,69.91 356.10,70.11 356.42,70.26 356.75,70.36 357.10,70.40 " style="stroke-width: 0.53; stroke: #AF0DC7; fill: #FFFFFF;" clip-path="url(#cpNi45NzM4NXw3MTMuMDI2fDIwOS4yMjd8Ni45NzM4NQ==)"/>
  <g clip-path="url(#cpNi45NzM4NXw3MTMuMDI2fDIwOS4yMjd8Ni45NzM4NQ==)">
    <text x="358.62" y="66.80" style="font-size: 9.96px; fill: #AF0DC7; font-family: Liberation Sans;" textLength="43.72px" lengthAdjust="spacingAndGlyphs">pseudogp</text>
  </g>
  <polyline points="362.72,104.60 401.56,104.60 401.47,104.60 401.82,104.58 402.16,104.51 402.48,104.39 402.78,104.22 403.05,104.00 403.28,103.74 403.47,103.44 403.61,103.12 403.69,102.78 403.72,102.44 403.72,102.44 403.72,92.68 403.72,92.68 403.69,92.34 403.61,92.00 403.47,91.68 403.28,91.39 403.05,91.13 402.78,90.91 402.48,90.73 402.16,90.61 401.82,90.54 401.56,90.52 362.72,90.52 362.98,90.54 362.64,90.52 362.29,90.57 361.96,90.66 361.64,90.81 361.36,91.01 361.11,91.25 360.90,91.53 360.74,91.84 360.63,92.17 360.57,92.51 360.56,92.68 360.56,102.44 360.57,102.26 360.57,102.61 360.63,102.95 360.74,103.28 360.90,103.59 361.11,103.87 361.36,104.11 361.64,104.31 361.96,104.46 362.29,104.55 362.64,104.60 " style="stroke-width: 0.53; stroke: #FF8821; fill: #FFFFFF;" clip-path="url(#cpNi45NzM4NXw3MTMuMDI2fDIwOS4yMjd8Ni45NzM4NQ==)"/>
  <g clip-path="url(#cpNi45NzM4NXw3MTMuMDI2fDIwOS4yMjd8Ni45NzM4NQ==)">
    <text x="364.16" y="101.00" style="font-size: 9.96px; fill: #FF8821; font-family: Liberation Sans;" textLength="35.95px" lengthAdjust="spacingAndGlyphs">SLICER</text>
  </g>
  <polyline points="498.46,24.65 537.30,24.65 537.21,24.65 537.56,24.63 537.90,24.56 538.23,24.44 538.53,24.27 538.80,24.05 539.03,23.79 539.21,23.49 539.35,23.17 539.43,22.84 539.46,22.49 539.46,22.49 539.46,12.73 539.46,12.73 539.43,12.39 539.35,12.05 539.21,11.73 539.03,11.44 538.80,11.18 538.53,10.96 538.23,10.78 537.90,10.66 537.56,10.59 537.30,10.57 498.46,10.57 498.72,10.59 498.37,10.58 498.03,10.62 497.69,10.71 497.38,10.86 497.09,11.06 496.84,11.30 496.64,11.58 496.47,11.89 496.36,12.22 496.31,12.56 496.30,12.73 496.30,22.49 496.31,22.32 496.31,22.66 496.36,23.01 496.47,23.34 496.64,23.64 496.84,23.92 497.09,24.16 497.38,24.36 497.69,24.51 498.03,24.61 498.37,24.65 " style="stroke-width: 0.53; stroke: #CFBF00; fill: #FFFFFF;" clip-path="url(#cpNi45NzM4NXw3MTMuMDI2fDIwOS4yMjd8Ni45NzM4NQ==)"/>
  <g clip-path="url(#cpNi45NzM4NXw3MTMuMDI2fDIwOS4yMjd8Ni45NzM4NQ==)">
    <text x="499.90" y="21.05" style="font-size: 9.96px; fill: #CFBF00; font-family: Liberation Sans;" textLength="35.96px" lengthAdjust="spacingAndGlyphs">GPfates</text>
  </g>
  <polyline points="459.54,51.75 511.66,51.75 511.57,51.75 511.92,51.73 512.26,51.67 512.58,51.54 512.89,51.37 513.15,51.15 513.39,50.89 513.57,50.59 513.71,50.27 513.79,49.94 513.82,49.59 513.82,49.59 513.82,39.84 513.82,39.84 513.79,39.49 513.71,39.15 513.57,38.83 513.39,38.54 513.15,38.28 512.89,38.06 512.58,37.88 512.26,37.76 511.92,37.69 511.66,37.68 459.54,37.68 459.80,37.69 459.46,37.68 459.11,37.72 458.78,37.82 458.46,37.97 458.18,38.16 457.93,38.40 457.72,38.68 457.56,38.99 457.45,39.32 457.39,39.66 457.38,39.84 457.38,49.59 457.39,49.42 457.39,49.76 457.45,50.11 457.56,50.44 457.72,50.75 457.93,51.02 458.18,51.26 458.46,51.46 458.78,51.61 459.11,51.71 459.46,51.75 " style="stroke-width: 0.53; stroke: #5ECD2E; fill: #FFFFFF;" clip-path="url(#cpNi45NzM4NXw3MTMuMDI2fDIwOS4yMjd8Ni45NzM4NQ==)"/>
  <g clip-path="url(#cpNi45NzM4NXw3MTMuMDI2fDIwOS4yMjd8Ni45NzM4NQ==)">
    <text x="460.98" y="48.15" style="font-size: 9.96px; fill: #5ECD2E; font-family: Liberation Sans;" textLength="49.24px" lengthAdjust="spacingAndGlyphs">k-branches</text>
  </g>
  <polyline points="170.71,183.34 207.88,183.34 207.79,183.33 208.14,183.32 208.48,183.25 208.80,183.13 209.10,182.95 209.37,182.73 209.60,182.47 209.79,182.18 209.93,181.86 210.01,181.52 210.04,181.18 210.04,181.18 210.04,171.42 210.04,171.42 210.01,171.07 209.93,170.74 209.79,170.42 209.60,170.12 209.37,169.86 209.10,169.64 208.80,169.47 208.48,169.35 208.14,169.28 207.88,169.26 170.71,169.26 170.97,169.28 170.62,169.26 170.27,169.30 169.94,169.40 169.63,169.55 169.34,169.75 169.09,169.99 168.88,170.27 168.72,170.57 168.61,170.90 168.55,171.25 168.55,171.42 168.55,181.18 168.55,181.00 168.55,181.35 168.61,181.69 168.72,182.02 168.88,182.33 169.09,182.61 169.34,182.85 169.63,183.05 169.94,183.19 170.27,183.29 170.62,183.33 " style="stroke-width: 0.53; stroke: #5ECD2E; fill: #FFFFFF;" clip-path="url(#cpNi45NzM4NXw3MTMuMDI2fDIwOS4yMjd8Ni45NzM4NQ==)"/>
  <g clip-path="url(#cpNi45NzM4NXw3MTMuMDI2fDIwOS4yMjd8Ni45NzM4NQ==)">
    <text x="172.15" y="179.74" style="font-size: 9.96px; fill: #5ECD2E; font-family: Liberation Sans;" textLength="34.29px" lengthAdjust="spacingAndGlyphs">SCUBA</text>
  </g>
  <polyline points="583.81,102.76 651.42,102.76 651.34,102.76 651.68,102.74 652.02,102.67 652.35,102.55 652.65,102.38 652.92,102.16 653.15,101.90 653.34,101.60 653.47,101.28 653.55,100.95 653.58,100.60 653.58,100.60 653.58,90.85 653.58,90.85 653.55,90.50 653.47,90.16 653.34,89.84 653.15,89.55 652.92,89.29 652.65,89.07 652.35,88.89 652.02,88.77 651.68,88.70 651.42,88.69 583.81,88.69 584.07,88.70 583.72,88.69 583.38,88.73 583.04,88.83 582.73,88.97 582.44,89.17 582.19,89.41 581.98,89.69 581.82,90.00 581.71,90.33 581.66,90.67 581.65,90.85 581.65,100.60 581.66,100.43 581.66,100.77 581.71,101.12 581.82,101.45 581.98,101.75 582.19,102.03 582.44,102.27 582.73,102.47 583.04,102.62 583.38,102.72 583.72,102.76 " style="stroke-width: 0.53; stroke: #AF0DC7; fill: #FFFFFF;" clip-path="url(#cpNi45NzM4NXw3MTMuMDI2fDIwOS4yMjd8Ni45NzM4NQ==)"/>
  <g clip-path="url(#cpNi45NzM4NXw3MTMuMDI2fDIwOS4yMjd8Ni45NzM4NQ==)">
    <text x="585.25" y="99.16" style="font-size: 9.96px; fill: #AF0DC7; font-family: Liberation Sans;" textLength="64.73px" lengthAdjust="spacingAndGlyphs">GPseudoRank</text>
  </g>
  <polyline points="345.50,204.74 368.29,204.74 368.20,204.74 368.55,204.72 368.89,204.65 369.22,204.53 369.52,204.36 369.79,204.14 370.02,203.88 370.20,203.58 370.34,203.26 370.42,202.93 370.45,202.58 370.45,202.58 370.45,192.82 370.45,192.82 370.42,192.48 370.34,192.14 370.20,191.82 370.02,191.53 369.79,191.27 369.52,191.05 369.22,190.87 368.89,190.75 368.55,190.68 368.29,190.66 345.50,190.66 345.76,190.68 345.42,190.67 345.07,190.71 344.74,190.80 344.42,190.95 344.14,191.15 343.89,191.39 343.68,191.67 343.52,191.98 343.41,192.31 343.35,192.65 343.34,192.82 343.34,202.58 343.35,202.40 343.35,202.75 343.41,203.10 343.52,203.43 343.68,203.73 343.89,204.01 344.14,204.25 344.42,204.45 344.74,204.60 345.07,204.70 345.42,204.74 " style="stroke-width: 0.53; stroke: #0073D7; fill: #FFFFFF;" clip-path="url(#cpNi45NzM4NXw3MTMuMDI2fDIwOS4yMjd8Ni45NzM4NQ==)"/>
  <g clip-path="url(#cpNi45NzM4NXw3MTMuMDI2fDIwOS4yMjd8Ni45NzM4NQ==)">
    <text x="346.94" y="201.14" style="font-size: 9.96px; fill: #0073D7; font-family: Liberation Sans;" textLength="19.91px" lengthAdjust="spacingAndGlyphs">DPT</text>
  </g>
  <polyline points="326.31,161.82 365.14,161.82 365.05,161.82 365.40,161.81 365.74,161.74 366.07,161.61 366.37,161.44 366.64,161.22 366.87,160.96 367.05,160.67 367.19,160.35 367.27,160.01 367.30,159.66 367.30,159.66 367.30,149.91 367.30,149.91 367.27,149.56 367.19,149.22 367.05,148.90 366.87,148.61 366.64,148.35 366.37,148.13 366.07,147.96 365.74,147.83 365.40,147.76 365.14,147.75 326.31,147.75 326.57,147.76 326.22,147.75 325.87,147.79 325.54,147.89 325.23,148.04 324.94,148.23 324.69,148.47 324.48,148.75 324.32,149.06 324.21,149.39 324.15,149.73 324.15,149.91 324.15,159.66 324.15,159.49 324.15,159.84 324.21,160.18 324.32,160.51 324.48,160.82 324.69,161.09 324.94,161.33 325.23,161.53 325.54,161.68 325.87,161.78 326.22,161.82 " style="stroke-width: 0.53; stroke: #5ECD2E; fill: #FFFFFF;" clip-path="url(#cpNi45NzM4NXw3MTMuMDI2fDIwOS4yMjd8Ni45NzM4NQ==)"/>
  <g clip-path="url(#cpNi45NzM4NXw3MTMuMDI2fDIwOS4yMjd8Ni45NzM4NQ==)">
    <text x="327.75" y="158.22" style="font-size: 9.96px; fill: #5ECD2E; font-family: Liberation Sans;" textLength="35.95px" lengthAdjust="spacingAndGlyphs">ECLAIR</text>
  </g>
  <polyline points="471.43,124.84 503.08,124.84 502.99,124.84 503.34,124.82 503.68,124.75 504.00,124.63 504.31,124.46 504.58,124.24 504.81,123.98 504.99,123.68 505.13,123.36 505.21,123.03 505.24,122.68 505.24,122.68 505.24,112.92 505.24,112.92 505.21,112.58 505.13,112.24 504.99,111.92 504.81,111.63 504.58,111.37 504.31,111.15 504.00,110.97 503.68,110.85 503.34,110.78 503.08,110.76 471.43,110.76 471.69,110.78 471.35,110.77 471.00,110.81 470.67,110.90 470.35,111.05 470.07,111.25 469.82,111.49 469.61,111.77 469.45,112.08 469.34,112.41 469.28,112.75 469.27,112.92 469.27,122.68 469.28,122.51 469.28,122.85 469.34,123.20 469.45,123.53 469.61,123.83 469.82,124.11 470.07,124.35 470.35,124.55 470.67,124.70 471.00,124.80 471.35,124.84 " style="stroke-width: 0.53; stroke: #5ECD2E; fill: #FFFFFF;" clip-path="url(#cpNi45NzM4NXw3MTMuMDI2fDIwOS4yMjd8Ni45NzM4NQ==)"/>
  <g clip-path="url(#cpNi45NzM4NXw3MTMuMDI2fDIwOS4yMjd8Ni45NzM4NQ==)">
    <text x="472.87" y="121.24" style="font-size: 9.96px; fill: #5ECD2E; font-family: Liberation Sans;" textLength="28.77px" lengthAdjust="spacingAndGlyphs">SLICE</text>
  </g>
  <polyline points="448.26,77.30 484.87,77.30 484.78,77.30 485.13,77.29 485.47,77.22 485.80,77.10 486.10,76.92 486.37,76.70 486.60,76.44 486.78,76.15 486.92,75.83 487.00,75.49 487.03,75.14 487.03,75.14 487.03,65.39 487.03,65.39 487.00,65.04 486.92,64.70 486.78,64.39 486.60,64.09 486.37,63.83 486.10,63.61 485.80,63.44 485.47,63.31 485.13,63.24 484.87,63.23 448.26,63.23 448.52,63.24 448.17,63.23 447.83,63.27 447.49,63.37 447.18,63.52 446.89,63.72 446.64,63.96 446.43,64.23 446.27,64.54 446.16,64.87 446.10,65.22 446.10,65.39 446.10,75.14 446.10,74.97 446.10,75.32 446.16,75.66 446.27,75.99 446.43,76.30 446.64,76.58 446.89,76.82 447.18,77.01 447.49,77.16 447.83,77.26 448.17,77.30 " style="stroke-width: 0.53; stroke: #AF0DC7; fill: #FFFFFF;" clip-path="url(#cpNi45NzM4NXw3MTMuMDI2fDIwOS4yMjd8Ni45NzM4NQ==)"/>
  <g clip-path="url(#cpNi45NzM4NXw3MTMuMDI2fDIwOS4yMjd8Ni45NzM4NQ==)">
    <text x="449.70" y="73.70" style="font-size: 9.96px; fill: #AF0DC7; font-family: Liberation Sans;" textLength="33.73px" lengthAdjust="spacingAndGlyphs">SCENT</text>
  </g>
  <polyline points="515.03,120.76 547.22,120.76 547.13,120.76 547.48,120.75 547.82,120.68 548.14,120.55 548.44,120.38 548.71,120.16 548.94,119.90 549.13,119.60 549.27,119.29 549.35,118.95 549.38,118.60 549.38,118.60 549.38,108.85 549.38,108.85 549.35,108.50 549.27,108.16 549.13,107.84 548.94,107.55 548.71,107.29 548.44,107.07 548.14,106.89 547.82,106.77 547.48,106.70 547.22,106.69 515.03,106.69 515.29,106.70 514.94,106.69 514.60,106.73 514.26,106.83 513.95,106.98 513.66,107.17 513.41,107.41 513.20,107.69 513.04,108.00 512.93,108.33 512.87,108.67 512.87,108.85 512.87,118.60 512.87,118.43 512.87,118.77 512.93,119.12 513.04,119.45 513.20,119.76 513.41,120.03 513.66,120.27 513.95,120.47 514.26,120.62 514.60,120.72 514.94,120.76 " style="stroke-width: 0.53; stroke: #5ECD2E; fill: #FFFFFF;" clip-path="url(#cpNi45NzM4NXw3MTMuMDI2fDIwOS4yMjd8Ni45NzM4NQ==)"/>
  <g clip-path="url(#cpNi45NzM4NXw3MTMuMDI2fDIwOS4yMjd8Ni45NzM4NQ==)">
    <text x="516.47" y="117.16" style="font-size: 9.96px; fill: #5ECD2E; font-family: Liberation Sans;" textLength="29.31px" lengthAdjust="spacingAndGlyphs">TASIC</text>
  </g>
  <polyline points="415.14,24.65 453.42,24.65 453.34,24.65 453.68,24.63 454.03,24.56 454.35,24.44 454.65,24.27 454.92,24.05 455.15,23.79 455.34,23.49 455.47,23.17 455.56,22.84 455.58,22.49 455.58,22.49 455.58,12.73 455.58,12.73 455.56,12.39 455.47,12.05 455.34,11.73 455.15,11.44 454.92,11.18 454.65,10.96 454.35,10.78 454.03,10.66 453.68,10.59 453.42,10.57 415.14,10.57 415.40,10.59 415.06,10.58 414.71,10.62 414.38,10.71 414.06,10.86 413.78,11.06 413.53,11.30 413.32,11.58 413.16,11.89 413.05,12.22 412.99,12.56 412.98,12.73 412.98,22.49 412.99,22.32 412.99,22.66 413.05,23.01 413.16,23.34 413.32,23.64 413.53,23.92 413.78,24.16 414.06,24.36 414.38,24.51 414.71,24.61 415.06,24.65 " style="stroke-width: 0.53; stroke: #5ECD2E; fill: #FFFFFF;" clip-path="url(#cpNi45NzM4NXw3MTMuMDI2fDIwOS4yMjd8Ni45NzM4NQ==)"/>
  <g clip-path="url(#cpNi45NzM4NXw3MTMuMDI2fDIwOS4yMjd8Ni45NzM4NQ==)">
    <text x="416.58" y="21.05" style="font-size: 9.96px; fill: #5ECD2E; font-family: Liberation Sans;" textLength="35.40px" lengthAdjust="spacingAndGlyphs">cellTree</text>
  </g>
  <polyline points="546.76,41.58 578.39,41.58 578.31,41.58 578.65,41.56 578.99,41.49 579.32,41.37 579.62,41.20 579.89,40.98 580.12,40.72 580.31,40.42 580.44,40.10 580.52,39.76 580.55,39.42 580.55,39.42 580.55,29.66 580.55,29.66 580.52,29.32 580.44,28.98 580.31,28.66 580.12,28.37 579.89,28.11 579.62,27.89 579.32,27.71 578.99,27.59 578.65,27.52 578.39,27.50 546.76,27.50 547.02,27.52 546.67,27.51 546.32,27.55 545.99,27.64 545.68,27.79 545.39,27.99 545.14,28.23 544.93,28.51 544.77,28.82 544.66,29.15 544.60,29.49 544.60,29.66 544.60,39.42 544.60,39.24 544.60,39.59 544.66,39.94 544.77,40.27 544.93,40.57 545.14,40.85 545.39,41.09 545.68,41.29 545.99,41.44 546.32,41.53 546.67,41.58 " style="stroke-width: 0.53; stroke: #39CCCC; fill: #FFFFFF;" clip-path="url(#cpNi45NzM4NXw3MTMuMDI2fDIwOS4yMjd8Ni45NzM4NQ==)"/>
  <g clip-path="url(#cpNi45NzM4NXw3MTMuMDI2fDIwOS4yMjd8Ni45NzM4NQ==)">
    <text x="548.20" y="37.98" style="font-size: 9.96px; fill: #39CCCC; font-family: Liberation Sans;" textLength="28.76px" lengthAdjust="spacingAndGlyphs">reCAT</text>
  </g>
  <polyline points="51.91,202.83 100.71,202.83 100.63,202.83 100.97,202.81 101.31,202.75 101.64,202.62 101.94,202.45 102.21,202.23 102.44,201.97 102.63,201.67 102.76,201.35 102.85,201.02 102.87,200.67 102.87,200.67 102.87,190.92 102.87,190.92 102.85,190.57 102.76,190.23 102.63,189.91 102.44,189.62 102.21,189.36 101.94,189.14 101.64,188.96 101.31,188.84 100.97,188.77 100.71,188.76 51.91,188.76 52.17,188.77 51.83,188.76 51.48,188.80 51.15,188.90 50.83,189.04 50.55,189.24 50.30,189.48 50.09,189.76 49.92,190.07 49.81,190.40 49.76,190.74 49.75,190.92 49.75,200.67 49.76,200.50 49.76,200.84 49.81,201.19 49.92,201.52 50.09,201.83 50.30,202.10 50.55,202.34 50.83,202.54 51.15,202.69 51.48,202.79 51.83,202.83 " style="stroke-width: 0.53; stroke: #5ECD2E; fill: #FFFFFF;" clip-path="url(#cpNi45NzM4NXw3MTMuMDI2fDIwOS4yMjd8Ni45NzM4NQ==)"/>
  <g clip-path="url(#cpNi45NzM4NXw3MTMuMDI2fDIwOS4yMjd8Ni45NzM4NQ==)">
    <text x="53.35" y="199.23" style="font-size: 9.96px; fill: #5ECD2E; font-family: Liberation Sans;" textLength="45.92px" lengthAdjust="spacingAndGlyphs">Monocle 1</text>
  </g>
  <polyline points="266.54,116.36 326.41,116.36 326.32,116.36 326.67,116.35 327.01,116.28 327.34,116.15 327.64,115.98 327.91,115.76 328.14,115.50 328.32,115.21 328.46,114.89 328.54,114.55 328.57,114.20 328.57,114.20 328.57,104.45 328.57,104.45 328.54,104.10 328.46,103.76 328.32,103.44 328.14,103.15 327.91,102.89 327.64,102.67 327.34,102.50 327.01,102.37 326.67,102.30 326.41,102.29 266.54,102.29 266.80,102.30 266.45,102.29 266.11,102.33 265.77,102.43 265.46,102.58 265.17,102.77 264.92,103.02 264.71,103.29 264.55,103.60 264.44,103.93 264.39,104.27 264.38,104.45 264.38,114.20 264.39,114.03 264.39,114.38 264.44,114.72 264.55,115.05 264.71,115.36 264.92,115.64 265.17,115.88 265.46,116.07 265.77,116.22 266.11,116.32 266.45,116.36 " style="stroke-width: 0.53; stroke: #AF0DC7; fill: #FFFFFF;" clip-path="url(#cpNi45NzM4NXw3MTMuMDI2fDIwOS4yMjd8Ni45NzM4NQ==)"/>
  <g clip-path="url(#cpNi45NzM4NXw3MTMuMDI2fDIwOS4yMjd8Ni45NzM4NQ==)">
    <text x="267.98" y="112.76" style="font-size: 9.96px; fill: #AF0DC7; font-family: Liberation Sans;" textLength="56.99px" lengthAdjust="spacingAndGlyphs">gpseudotime</text>
  </g>
  <polyline points="276.64,138.27 318.80,138.27 318.71,138.27 319.06,138.26 319.40,138.19 319.72,138.06 320.03,137.89 320.29,137.67 320.53,137.41 320.71,137.12 320.85,136.80 320.93,136.46 320.96,136.11 320.96,136.11 320.96,126.36 320.96,126.36 320.93,126.01 320.85,125.67 320.71,125.35 320.53,125.06 320.29,124.80 320.03,124.58 319.72,124.41 319.40,124.28 319.06,124.21 318.80,124.20 276.64,124.20 276.90,124.21 276.55,124.20 276.20,124.24 275.87,124.34 275.56,124.49 275.27,124.68 275.02,124.92 274.81,125.20 274.65,125.51 274.54,125.84 274.48,126.18 274.48,126.36 274.48,136.11 274.48,135.94 274.48,136.29 274.54,136.63 274.65,136.96 274.81,137.27 275.02,137.54 275.27,137.78 275.56,137.98 275.87,138.13 276.20,138.23 276.55,138.27 " style="stroke-width: 0.53; stroke: #AF0DC7; fill: #FFFFFF;" clip-path="url(#cpNi45NzM4NXw3MTMuMDI2fDIwOS4yMjd8Ni45NzM4NQ==)"/>
  <g clip-path="url(#cpNi45NzM4NXw3MTMuMDI2fDIwOS4yMjd8Ni45NzM4NQ==)">
    <text x="278.08" y="134.67" style="font-size: 9.96px; fill: #AF0DC7; font-family: Liberation Sans;" textLength="39.28px" lengthAdjust="spacingAndGlyphs">embeddr</text>
  </g>
  <polyline points="387.40,83.19 433.99,83.19 433.91,83.19 434.25,83.17 434.59,83.10 434.92,82.98 435.22,82.81 435.49,82.59 435.72,82.33 435.91,82.03 436.04,81.71 436.12,81.38 436.15,81.03 436.15,81.03 436.15,71.27 436.15,71.27 436.12,70.93 436.04,70.59 435.91,70.27 435.72,69.98 435.49,69.72 435.22,69.50 434.92,69.32 434.59,69.20 434.25,69.13 433.99,69.11 387.40,69.11 387.66,69.13 387.31,69.12 386.97,69.16 386.63,69.25 386.32,69.40 386.03,69.60 385.78,69.84 385.57,70.12 385.41,70.43 385.30,70.76 385.24,71.10 385.24,71.27 385.24,81.03 385.24,80.85 385.24,81.20 385.30,81.55 385.41,81.88 385.57,82.18 385.78,82.46 386.03,82.70 386.32,82.90 386.63,83.05 386.97,83.15 387.31,83.19 " style="stroke-width: 0.53; stroke: #AF0DC7; fill: #FFFFFF;" clip-path="url(#cpNi45NzM4NXw3MTMuMDI2fDIwOS4yMjd8Ni45NzM4NQ==)"/>
  <g clip-path="url(#cpNi45NzM4NXw3MTMuMDI2fDIwOS4yMjd8Ni45NzM4NQ==)">
    <text x="388.84" y="79.59" style="font-size: 9.96px; fill: #AF0DC7; font-family: Liberation Sans;" textLength="43.72px" lengthAdjust="spacingAndGlyphs">DeLorean</text>
  </g>
  <polyline points="270.44,183.05 312.58,183.05 312.50,183.04 312.84,183.03 313.18,182.96 313.51,182.84 313.81,182.66 314.08,182.44 314.31,182.18 314.50,181.89 314.63,181.57 314.72,181.23 314.74,180.89 314.74,180.89 314.74,171.13 314.74,171.13 314.72,170.78 314.63,170.45 314.50,170.13 314.31,169.83 314.08,169.57 313.81,169.35 313.51,169.18 313.18,169.06 312.84,168.99 312.58,168.97 270.44,168.97 270.70,168.99 270.35,168.97 270.00,169.01 269.67,169.11 269.36,169.26 269.07,169.46 268.82,169.70 268.61,169.98 268.45,170.28 268.34,170.61 268.28,170.96 268.28,171.13 268.28,180.89 268.28,180.71 268.28,181.06 268.34,181.40 268.45,181.73 268.61,182.04 268.82,182.32 269.07,182.56 269.36,182.76 269.67,182.91 270.00,183.00 270.35,183.04 " style="stroke-width: 0.53; stroke: #AF0DC7; fill: #FFFFFF;" clip-path="url(#cpNi45NzM4NXw3MTMuMDI2fDIwOS4yMjd8Ni45NzM4NQ==)"/>
  <g clip-path="url(#cpNi45NzM4NXw3MTMuMDI2fDIwOS4yMjd8Ni45NzM4NQ==)">
    <text x="271.88" y="179.45" style="font-size: 9.96px; fill: #AF0DC7; font-family: Liberation Sans;" textLength="39.27px" lengthAdjust="spacingAndGlyphs">Waterfall</text>
  </g>
  <polyline points="604.42,41.50 628.32,41.50 628.24,41.50 628.58,41.48 628.92,41.41 629.25,41.29 629.55,41.12 629.82,40.90 630.05,40.64 630.24,40.34 630.37,40.02 630.46,39.69 630.48,39.34 630.48,39.34 630.48,29.58 630.48,29.58 630.46,29.24 630.37,28.90 630.24,28.58 630.05,28.29 629.82,28.03 629.55,27.81 629.25,27.63 628.92,27.51 628.58,27.44 628.32,27.42 604.42,27.42 604.68,27.44 604.34,27.43 603.99,27.47 603.66,27.57 603.34,27.71 603.06,27.91 602.81,28.15 602.60,28.43 602.44,28.74 602.33,29.07 602.27,29.41 602.26,29.58 602.26,39.34 602.27,39.17 602.27,39.51 602.33,39.86 602.44,40.19 602.60,40.49 602.81,40.77 603.06,41.01 603.34,41.21 603.66,41.36 603.99,41.46 604.34,41.50 " style="stroke-width: 0.53; stroke: #FF4237; fill: #FFFFFF;" clip-path="url(#cpNi45NzM4NXw3MTMuMDI2fDIwOS4yMjd8Ni45NzM4NQ==)"/>
  <g clip-path="url(#cpNi45NzM4NXw3MTMuMDI2fDIwOS4yMjd8Ni45NzM4NQ==)">
    <text x="605.86" y="37.90" style="font-size: 9.96px; fill: #FF4237; font-family: Liberation Sans;" textLength="21.02px" lengthAdjust="spacingAndGlyphs">AGA</text>
  </g>
  <polyline points="566.47,24.65 600.89,24.65 600.80,24.65 601.15,24.63 601.49,24.56 601.81,24.44 602.12,24.27 602.38,24.05 602.62,23.79 602.80,23.49 602.94,23.17 603.02,22.84 603.05,22.49 603.05,22.49 603.05,12.73 603.05,12.73 603.02,12.39 602.94,12.05 602.80,11.73 602.62,11.44 602.38,11.18 602.12,10.96 601.81,10.78 601.49,10.66 601.15,10.59 600.89,10.57 566.47,10.57 566.73,10.59 566.39,10.58 566.04,10.62 565.71,10.71 565.39,10.86 565.11,11.06 564.86,11.30 564.65,11.58 564.49,11.89 564.38,12.22 564.32,12.56 564.31,12.73 564.31,22.49 564.32,22.32 564.32,22.66 564.38,23.01 564.49,23.34 564.65,23.64 564.86,23.92 565.11,24.16 565.39,24.36 565.71,24.51 566.04,24.61 566.39,24.65 " style="stroke-width: 0.53; stroke: #0073D7; fill: #FFFFFF;" clip-path="url(#cpNi45NzM4NXw3MTMuMDI2fDIwOS4yMjd8Ni45NzM4NQ==)"/>
  <g clip-path="url(#cpNi45NzM4NXw3MTMuMDI2fDIwOS4yMjd8Ni45NzM4NQ==)">
    <text x="567.91" y="21.05" style="font-size: 9.96px; fill: #0073D7; font-family: Liberation Sans;" textLength="31.54px" lengthAdjust="spacingAndGlyphs">scanpy</text>
  </g>
  <polyline points="368.09,140.81 415.23,140.81 415.14,140.81 415.49,140.80 415.83,140.73 416.15,140.60 416.46,140.43 416.72,140.21 416.96,139.95 417.14,139.66 417.28,139.34 417.36,139.00 417.39,138.65 417.39,138.65 417.39,128.90 417.39,128.90 417.36,128.55 417.28,128.21 417.14,127.89 416.96,127.60 416.72,127.34 416.46,127.12 416.15,126.95 415.83,126.82 415.49,126.75 415.23,126.74 368.09,126.74 368.35,126.75 368.00,126.74 367.66,126.78 367.32,126.88 367.01,127.03 366.72,127.22 366.47,127.46 366.26,127.74 366.10,128.05 365.99,128.38 365.94,128.72 365.93,128.90 365.93,138.65 365.94,138.48 365.94,138.83 365.99,139.17 366.10,139.50 366.26,139.81 366.47,140.08 366.72,140.32 367.01,140.52 367.32,140.67 367.66,140.77 368.00,140.81 " style="stroke-width: 0.53; stroke: #0073D7; fill: #FFFFFF;" clip-path="url(#cpNi45NzM4NXw3MTMuMDI2fDIwOS4yMjd8Ni45NzM4NQ==)"/>
  <g clip-path="url(#cpNi45NzM4NXw3MTMuMDI2fDIwOS4yMjd8Ni45NzM4NQ==)">
    <text x="369.53" y="137.21" style="font-size: 9.96px; fill: #0073D7; font-family: Liberation Sans;" textLength="44.26px" lengthAdjust="spacingAndGlyphs">Wishbone</text>
  </g>
  <polyline points="372.95,182.14 399.61,182.14 399.52,182.14 399.87,182.12 400.21,182.05 400.54,181.93 400.84,181.76 401.11,181.54 401.34,181.28 401.52,180.98 401.66,180.66 401.74,180.33 401.77,179.98 401.77,179.98 401.77,170.23 401.77,170.23 401.74,169.88 401.66,169.54 401.52,169.22 401.34,168.93 401.11,168.67 400.84,168.45 400.54,168.27 400.21,168.15 399.87,168.08 399.61,168.07 372.95,168.07 373.21,168.08 372.86,168.07 372.51,168.11 372.18,168.21 371.87,168.35 371.58,168.55 371.33,168.79 371.12,169.07 370.96,169.38 370.85,169.71 370.79,170.05 370.79,170.23 370.79,179.98 370.79,179.81 370.79,180.15 370.85,180.50 370.96,180.83 371.12,181.13 371.33,181.41 371.58,181.65 371.87,181.85 372.18,182.00 372.51,182.10 372.86,182.14 " style="stroke-width: 0.53; stroke: #AF0DC7; fill: #FFFFFF;" clip-path="url(#cpNi45NzM4NXw3MTMuMDI2fDIwOS4yMjd8Ni45NzM4NQ==)"/>
  <g clip-path="url(#cpNi45NzM4NXw3MTMuMDI2fDIwOS4yMjd8Ni45NzM4NQ==)">
    <text x="374.39" y="178.54" style="font-size: 9.96px; fill: #AF0DC7; font-family: Liberation Sans;" textLength="23.78px" lengthAdjust="spacingAndGlyphs">SCell</text>
  </g>
  <polyline points="532.53,90.55 576.89,90.55 576.80,90.55 577.15,90.53 577.49,90.46 577.81,90.34 578.12,90.16 578.39,89.95 578.62,89.68 578.80,89.39 578.94,89.07 579.02,88.73 579.05,88.39 579.05,88.39 579.05,78.63 579.05,78.63 579.02,78.29 578.94,77.95 578.80,77.63 578.62,77.33 578.39,77.07 578.12,76.85 577.81,76.68 577.49,76.56 577.15,76.49 576.89,76.47 532.53,76.47 532.79,76.49 532.45,76.47 532.10,76.52 531.77,76.61 531.45,76.76 531.17,76.96 530.92,77.20 530.71,77.48 530.55,77.79 530.44,78.12 530.38,78.46 530.37,78.63 530.37,88.39 530.38,88.21 530.38,88.56 530.44,88.90 530.55,89.23 530.71,89.54 530.92,89.82 531.17,90.06 531.45,90.26 531.77,90.41 532.10,90.50 532.45,90.55 " style="stroke-width: 0.53; stroke: #AF0DC7; fill: #FFFFFF;" clip-path="url(#cpNi45NzM4NXw3MTMuMDI2fDIwOS4yMjd8Ni45NzM4NQ==)"/>
  <g clip-path="url(#cpNi45NzM4NXw3MTMuMDI2fDIwOS4yMjd8Ni45NzM4NQ==)">
    <text x="533.97" y="86.95" style="font-size: 9.96px; fill: #AF0DC7; font-family: Liberation Sans;" textLength="41.47px" lengthAdjust="spacingAndGlyphs">UNCURL</text>
  </g>
  <polyline points="633.92,62.56 678.28,62.56 678.20,62.55 678.55,62.54 678.89,62.47 679.21,62.35 679.51,62.17 679.78,61.95 680.01,61.69 680.20,61.40 680.33,61.08 680.42,60.74 680.44,60.40 680.44,60.40 680.44,50.64 680.44,50.64 680.42,50.29 680.33,49.96 680.20,49.64 680.01,49.34 679.78,49.08 679.51,48.86 679.21,48.69 678.89,48.57 678.55,48.50 678.28,48.48 633.92,48.48 634.18,48.50 633.83,48.48 633.49,48.52 633.15,48.62 632.84,48.77 632.55,48.97 632.30,49.21 632.09,49.49 631.93,49.79 631.82,50.12 631.77,50.47 631.76,50.64 631.76,60.40 631.77,60.22 631.77,60.57 631.82,60.91 631.93,61.24 632.09,61.55 632.30,61.83 632.55,62.07 632.84,62.27 633.15,62.41 633.49,62.51 633.83,62.55 " style="stroke-width: 0.53; stroke: #FF8821; fill: #FFFFFF;" clip-path="url(#cpNi45NzM4NXw3MTMuMDI2fDIwOS4yMjd8Ni45NzM4NQ==)"/>
  <g clip-path="url(#cpNi45NzM4NXw3MTMuMDI2fDIwOS4yMjd8Ni45NzM4NQ==)">
    <text x="635.36" y="58.96" style="font-size: 9.96px; fill: #FF8821; font-family: Liberation Sans;" textLength="41.48px" lengthAdjust="spacingAndGlyphs">CALISTA</text>
  </g>
  <polyline points="490.59,102.05 537.72,102.05 537.64,102.05 537.98,102.04 538.32,101.97 538.65,101.84 538.95,101.67 539.22,101.45 539.45,101.19 539.64,100.90 539.77,100.58 539.85,100.24 539.88,99.89 539.88,99.89 539.88,90.14 539.88,90.14 539.85,89.79 539.77,89.45 539.64,89.13 539.45,88.84 539.22,88.58 538.95,88.36 538.65,88.19 538.32,88.06 537.98,87.99 537.72,87.98 490.59,87.98 490.85,87.99 490.50,87.98 490.16,88.02 489.82,88.12 489.51,88.27 489.22,88.46 488.97,88.70 488.76,88.98 488.60,89.29 488.49,89.62 488.44,89.96 488.43,90.14 488.43,99.89 488.44,99.72 488.44,100.07 488.49,100.41 488.60,100.74 488.76,101.05 488.97,101.32 489.22,101.56 489.51,101.76 489.82,101.91 490.16,102.01 490.50,102.05 " style="stroke-width: 0.53; stroke: #5ECD2E; fill: #FFFFFF;" clip-path="url(#cpNi45NzM4NXw3MTMuMDI2fDIwOS4yMjd8Ni45NzM4NQ==)"/>
  <g clip-path="url(#cpNi45NzM4NXw3MTMuMDI2fDIwOS4yMjd8Ni45NzM4NQ==)">
    <text x="492.03" y="98.45" style="font-size: 9.96px; fill: #5ECD2E; font-family: Liberation Sans;" textLength="44.25px" lengthAdjust="spacingAndGlyphs">Granatum</text>
  </g>
  <polyline points="638.34,124.20 680.49,124.20 680.40,124.20 680.75,124.19 681.09,124.12 681.41,124.00 681.71,123.82 681.98,123.60 682.21,123.34 682.40,123.05 682.54,122.73 682.62,122.39 682.65,122.04 682.65,122.04 682.65,112.29 682.65,112.29 682.62,111.94 682.54,111.61 682.40,111.29 682.21,110.99 681.98,110.73 681.71,110.51 681.41,110.34 681.09,110.21 680.75,110.14 680.49,110.13 638.34,110.13 638.60,110.14 638.25,110.13 637.91,110.17 637.57,110.27 637.26,110.42 636.97,110.62 636.72,110.86 636.51,111.13 636.35,111.44 636.24,111.77 636.19,112.12 636.18,112.29 636.18,122.04 636.19,121.87 636.19,122.22 636.24,122.56 636.35,122.89 636.51,123.20 636.72,123.48 636.97,123.72 637.26,123.91 637.57,124.06 637.91,124.16 638.25,124.20 " style="stroke-width: 0.53; stroke: #5ECD2E; fill: #FFFFFF;" clip-path="url(#cpNi45NzM4NXw3MTMuMDI2fDIwOS4yMjd8Ni45NzM4NQ==)"/>
  <g clip-path="url(#cpNi45NzM4NXw3MTMuMDI2fDIwOS4yMjd8Ni45NzM4NQ==)">
    <text x="639.78" y="120.60" style="font-size: 9.96px; fill: #5ECD2E; font-family: Liberation Sans;" textLength="39.27px" lengthAdjust="spacingAndGlyphs">MERLoT</text>
  </g>
  <polyline points="185.61,205.33 216.15,205.33 216.06,205.33 216.41,205.32 216.75,205.25 217.07,205.12 217.37,204.95 217.64,204.73 217.87,204.47 218.06,204.18 218.20,203.86 218.28,203.52 218.31,203.17 218.31,203.17 218.31,193.42 218.31,193.42 218.28,193.07 218.20,192.73 218.06,192.41 217.87,192.12 217.64,191.86 217.37,191.64 217.07,191.47 216.75,191.34 216.41,191.27 216.15,191.26 185.61,191.26 185.87,191.27 185.52,191.26 185.18,191.30 184.84,191.40 184.53,191.55 184.24,191.75 183.99,191.99 183.78,192.26 183.62,192.57 183.51,192.90 183.46,193.24 183.45,193.42 183.45,203.17 183.46,203.00 183.46,203.35 183.51,203.69 183.62,204.02 183.78,204.33 183.99,204.61 184.24,204.85 184.53,205.04 184.84,205.19 185.18,205.29 185.52,205.33 " style="stroke-width: 0.53; stroke: #5ECD2E; fill: #FFFFFF;" clip-path="url(#cpNi45NzM4NXw3MTMuMDI2fDIwOS4yMjd8Ni45NzM4NQ==)"/>
  <g clip-path="url(#cpNi45NzM4NXw3MTMuMDI2fDIwOS4yMjd8Ni45NzM4NQ==)">
    <text x="187.05" y="201.73" style="font-size: 9.96px; fill: #5ECD2E; font-family: Liberation Sans;" textLength="27.66px" lengthAdjust="spacingAndGlyphs">sincell</text>
  </g>
  <polyline points="559.39,125.22 648.52,125.22 648.44,125.21 648.78,125.20 649.12,125.13 649.45,125.01 649.75,124.83 650.02,124.61 650.25,124.35 650.44,124.06 650.57,123.74 650.66,123.40 650.68,123.06 650.68,123.06 650.68,113.30 650.68,113.30 650.66,112.96 650.57,112.62 650.44,112.30 650.25,112.00 650.02,111.74 649.75,111.52 649.45,111.35 649.12,111.23 648.78,111.16 648.52,111.14 559.39,111.14 559.65,111.16 559.31,111.14 558.96,111.19 558.63,111.28 558.31,111.43 558.03,111.63 557.78,111.87 557.57,112.15 557.41,112.45 557.30,112.78 557.24,113.13 557.23,113.30 557.23,123.06 557.24,122.88 557.24,123.23 557.30,123.57 557.41,123.90 557.57,124.21 557.78,124.49 558.03,124.73 558.31,124.93 558.63,125.08 558.96,125.17 559.31,125.21 " style="stroke-width: 0.53; stroke: #FF8821; fill: #FFFFFF;" clip-path="url(#cpNi45NzM4NXw3MTMuMDI2fDIwOS4yMjd8Ni45NzM4NQ==)"/>
  <g clip-path="url(#cpNi45NzM4NXw3MTMuMDI2fDIwOS4yMjd8Ni45NzM4NQ==)">
    <text x="560.83" y="121.62" style="font-size: 9.96px; fill: #FF8821; font-family: Liberation Sans;" textLength="86.25px" lengthAdjust="spacingAndGlyphs">WADDINGTON-OT</text>
  </g>
  <polyline points="543.54,55.84 595.68,55.84 595.59,55.84 595.94,55.83 596.28,55.76 596.60,55.63 596.90,55.46 597.17,55.24 597.40,54.98 597.59,54.68 597.73,54.36 597.81,54.03 597.84,53.68 597.84,53.68 597.84,43.93 597.84,43.93 597.81,43.58 597.73,43.24 597.59,42.92 597.40,42.63 597.17,42.37 596.90,42.15 596.60,41.97 596.28,41.85 595.94,41.78 595.68,41.77 543.54,41.77 543.80,41.78 543.46,41.77 543.11,41.81 542.78,41.91 542.46,42.06 542.18,42.25 541.93,42.49 541.72,42.77 541.56,43.08 541.44,43.41 541.39,43.75 541.38,43.93 541.38,53.68 541.39,53.51 541.39,53.85 541.44,54.20 541.56,54.53 541.72,54.84 541.93,55.11 542.18,55.35 542.46,55.55 542.78,55.70 543.11,55.80 543.46,55.84 " style="stroke-width: 0.53; stroke: #AF0DC7; fill: #FFFFFF;" clip-path="url(#cpNi45NzM4NXw3MTMuMDI2fDIwOS4yMjd8Ni45NzM4NQ==)"/>
  <g clip-path="url(#cpNi45NzM4NXw3MTMuMDI2fDIwOS4yMjd8Ni45NzM4NQ==)">
    <text x="544.98" y="52.24" style="font-size: 9.96px; fill: #AF0DC7; font-family: Liberation Sans;" textLength="49.26px" lengthAdjust="spacingAndGlyphs">PhenoPath</text>
  </g>
  <polyline points="602.05,84.10 646.42,84.10 646.34,84.10 646.68,84.09 647.02,84.02 647.35,83.90 647.65,83.72 647.92,83.50 648.15,83.24 648.34,82.95 648.47,82.63 648.56,82.29 648.58,81.94 648.58,81.94 648.58,72.19 648.58,72.19 648.56,71.84 648.47,71.50 648.34,71.19 648.15,70.89 647.92,70.63 647.65,70.41 647.35,70.24 647.02,70.11 646.68,70.04 646.42,70.03 602.05,70.03 602.31,70.04 601.96,70.03 601.62,70.07 601.28,70.17 600.97,70.32 600.68,70.52 600.43,70.76 600.22,71.03 600.06,71.34 599.95,71.67 599.90,72.02 599.89,72.19 599.89,81.94 599.90,81.77 599.90,82.12 599.95,82.46 600.06,82.79 600.22,83.10 600.43,83.38 600.68,83.62 600.97,83.81 601.28,83.96 601.62,84.06 601.96,84.10 " style="stroke-width: 0.53; stroke: #5ECD2E; fill: #FFFFFF;" clip-path="url(#cpNi45NzM4NXw3MTMuMDI2fDIwOS4yMjd8Ni45NzM4NQ==)"/>
  <g clip-path="url(#cpNi45NzM4NXw3MTMuMDI2fDIwOS4yMjd8Ni45NzM4NQ==)">
    <text x="603.49" y="80.50" style="font-size: 9.96px; fill: #5ECD2E; font-family: Liberation Sans;" textLength="41.49px" lengthAdjust="spacingAndGlyphs">p-Creode</text>
  </g>
  <polyline points="409.89,104.21 461.99,104.21 461.90,104.21 462.25,104.20 462.59,104.13 462.92,104.00 463.22,103.83 463.49,103.61 463.72,103.35 463.90,103.06 464.04,102.74 464.12,102.40 464.15,102.05 464.15,102.05 464.15,92.30 464.15,92.30 464.12,91.95 464.04,91.61 463.90,91.29 463.72,91.00 463.49,90.74 463.22,90.52 462.92,90.35 462.59,90.22 462.25,90.15 461.99,90.14 409.89,90.14 410.15,90.15 409.80,90.14 409.46,90.18 409.12,90.28 408.81,90.43 408.52,90.62 408.27,90.87 408.06,91.14 407.90,91.45 407.79,91.78 407.74,92.12 407.73,92.30 407.73,102.05 407.74,101.88 407.74,102.23 407.79,102.57 407.90,102.90 408.06,103.21 408.27,103.49 408.52,103.73 408.81,103.92 409.12,104.07 409.46,104.17 409.80,104.21 " style="stroke-width: 0.53; stroke: #AF0DC7; fill: #FFFFFF;" clip-path="url(#cpNi45NzM4NXw3MTMuMDI2fDIwOS4yMjd8Ni45NzM4NQ==)"/>
  <g clip-path="url(#cpNi45NzM4NXw3MTMuMDI2fDIwOS4yMjd8Ni45NzM4NQ==)">
    <text x="411.33" y="100.61" style="font-size: 9.96px; fill: #AF0DC7; font-family: Liberation Sans;" textLength="49.22px" lengthAdjust="spacingAndGlyphs">WaveCrest</text>
  </g>
  <polyline points="394.32,125.52 430.38,125.52 430.30,125.51 430.64,125.50 430.98,125.43 431.31,125.31 431.61,125.13 431.88,124.91 432.11,124.65 432.30,124.36 432.43,124.04 432.51,123.70 432.54,123.36 432.54,123.36 432.54,113.60 432.54,113.60 432.51,113.25 432.43,112.92 432.30,112.60 432.11,112.30 431.88,112.04 431.61,111.82 431.31,111.65 430.98,111.53 430.64,111.46 430.38,111.44 394.32,111.44 394.58,111.46 394.23,111.44 393.89,111.49 393.55,111.58 393.24,111.73 392.95,111.93 392.70,112.17 392.49,112.45 392.33,112.75 392.22,113.08 392.17,113.43 392.16,113.60 392.16,123.36 392.17,123.18 392.17,123.53 392.22,123.87 392.33,124.20 392.49,124.51 392.70,124.79 392.95,125.03 393.24,125.23 393.55,125.38 393.89,125.47 394.23,125.51 " style="stroke-width: 0.53; stroke: #5ECD2E; fill: #FFFFFF;" clip-path="url(#cpNi45NzM4NXw3MTMuMDI2fDIwOS4yMjd8Ni45NzM4NQ==)"/>
  <g clip-path="url(#cpNi45NzM4NXw3MTMuMDI2fDIwOS4yMjd8Ni45NzM4NQ==)">
    <text x="395.76" y="121.92" style="font-size: 9.96px; fill: #5ECD2E; font-family: Liberation Sans;" textLength="33.18px" lengthAdjust="spacingAndGlyphs">StemID</text>
  </g>
  <polyline points="429.61,180.29 484.48,180.29 484.39,180.29 484.74,180.28 485.08,180.21 485.40,180.08 485.71,179.91 485.98,179.69 486.21,179.43 486.39,179.14 486.53,178.82 486.61,178.48 486.64,178.13 486.64,178.13 486.64,168.38 486.64,168.38 486.61,168.03 486.53,167.69 486.39,167.37 486.21,167.08 485.98,166.82 485.71,166.60 485.40,166.43 485.08,166.30 484.74,166.23 484.48,166.22 429.61,166.22 429.87,166.23 429.53,166.22 429.18,166.26 428.85,166.36 428.53,166.51 428.25,166.70 428.00,166.95 427.79,167.22 427.62,167.53 427.51,167.86 427.46,168.20 427.45,168.38 427.45,178.13 427.46,177.96 427.46,178.31 427.51,178.65 427.62,178.98 427.79,179.29 428.00,179.56 428.25,179.81 428.53,180.00 428.85,180.15 429.18,180.25 429.53,180.29 " style="stroke-width: 0.53; stroke: #AF0DC7; fill: #FFFFFF;" clip-path="url(#cpNi45NzM4NXw3MTMuMDI2fDIwOS4yMjd8Ni45NzM4NQ==)"/>
  <g clip-path="url(#cpNi45NzM4NXw3MTMuMDI2fDIwOS4yMjd8Ni45NzM4NQ==)">
    <text x="431.05" y="176.69" style="font-size: 9.96px; fill: #AF0DC7; font-family: Liberation Sans;" textLength="51.99px" lengthAdjust="spacingAndGlyphs">SCORPIUS</text>
  </g>
  <polyline points="430.59,200.63 481.02,200.63 480.93,200.63 481.28,200.62 481.62,200.55 481.95,200.42 482.25,200.25 482.52,200.03 482.75,199.77 482.93,199.47 483.07,199.15 483.15,198.82 483.18,198.47 483.18,198.47 483.18,188.72 483.18,188.72 483.15,188.37 483.07,188.03 482.93,187.71 482.75,187.42 482.52,187.16 482.25,186.94 481.95,186.76 481.62,186.64 481.28,186.57 481.02,186.56 430.59,186.56 430.85,186.57 430.50,186.56 430.15,186.60 429.82,186.70 429.51,186.85 429.22,187.04 428.97,187.28 428.76,187.56 428.60,187.87 428.49,188.20 428.43,188.54 428.43,188.72 428.43,198.47 428.43,198.30 428.43,198.64 428.49,198.99 428.60,199.32 428.76,199.63 428.97,199.90 429.22,200.14 429.51,200.34 429.82,200.49 430.15,200.59 430.50,200.63 " style="stroke-width: 0.53; stroke: #AF0DC7; fill: #FFFFFF;" clip-path="url(#cpNi45NzM4NXw3MTMuMDI2fDIwOS4yMjd8Ni45NzM4NQ==)"/>
  <g clip-path="url(#cpNi45NzM4NXw3MTMuMDI2fDIwOS4yMjd8Ni45NzM4NQ==)">
    <text x="432.03" y="197.03" style="font-size: 9.96px; fill: #AF0DC7; font-family: Liberation Sans;" textLength="47.55px" lengthAdjust="spacingAndGlyphs">SCIMITAR</text>
  </g>
  <polyline points="400.80,160.79 431.35,160.79 431.26,160.79 431.61,160.78 431.95,160.71 432.27,160.58 432.57,160.41 432.84,160.19 433.07,159.93 433.26,159.64 433.40,159.32 433.48,158.98 433.51,158.63 433.51,158.63 433.51,148.88 433.51,148.88 433.48,148.53 433.40,148.19 433.26,147.87 433.07,147.58 432.84,147.32 432.57,147.10 432.27,146.93 431.95,146.80 431.61,146.73 431.35,146.72 400.80,146.72 401.06,146.73 400.72,146.72 400.37,146.76 400.04,146.86 399.72,147.01 399.44,147.20 399.19,147.45 398.98,147.72 398.82,148.03 398.71,148.36 398.65,148.70 398.64,148.88 398.64,158.63 398.65,158.46 398.65,158.81 398.71,159.15 398.82,159.48 398.98,159.79 399.19,160.07 399.44,160.31 399.72,160.50 400.04,160.65 400.37,160.75 400.72,160.79 " style="stroke-width: 0.53; stroke: #5ECD2E; fill: #FFFFFF;" clip-path="url(#cpNi45NzM4NXw3MTMuMDI2fDIwOS4yMjd8Ni45NzM4NQ==)"/>
  <g clip-path="url(#cpNi45NzM4NXw3MTMuMDI2fDIwOS4yMjd8Ni45NzM4NQ==)">
    <text x="402.24" y="157.19" style="font-size: 9.96px; fill: #5ECD2E; font-family: Liberation Sans;" textLength="27.66px" lengthAdjust="spacingAndGlyphs">Mpath</text>
  </g>
  <polyline points="525.93,183.80 558.67,183.80 558.58,183.80 558.93,183.79 559.27,183.72 559.59,183.59 559.89,183.42 560.16,183.20 560.39,182.94 560.58,182.64 560.72,182.32 560.80,181.99 560.83,181.64 560.83,181.64 560.83,171.89 560.83,171.89 560.80,171.54 560.72,171.20 560.58,170.88 560.39,170.59 560.16,170.33 559.89,170.11 559.59,169.93 559.27,169.81 558.93,169.74 558.67,169.73 525.93,169.73 526.19,169.74 525.84,169.73 525.49,169.77 525.16,169.87 524.85,170.02 524.56,170.21 524.31,170.45 524.10,170.73 523.94,171.04 523.83,171.37 523.77,171.71 523.77,171.89 523.77,181.64 523.77,181.47 523.77,181.81 523.83,182.16 523.94,182.49 524.10,182.80 524.31,183.07 524.56,183.31 524.85,183.51 525.16,183.66 525.49,183.76 525.84,183.80 " style="stroke-width: 0.53; stroke: #AF0DC7; fill: #FFFFFF;" clip-path="url(#cpNi45NzM4NXw3MTMuMDI2fDIwOS4yMjd8Ni45NzM4NQ==)"/>
  <g clip-path="url(#cpNi45NzM4NXw3MTMuMDI2fDIwOS4yMjd8Ni45NzM4NQ==)">
    <text x="527.37" y="180.20" style="font-size: 9.96px; fill: #AF0DC7; font-family: Liberation Sans;" textLength="29.86px" lengthAdjust="spacingAndGlyphs">scTDA</text>
  </g>
  <polyline points="559.30,68.86 596.48,68.86 596.39,68.86 596.74,68.84 597.08,68.77 597.40,68.65 597.70,68.48 597.97,68.26 598.20,68.00 598.39,67.70 598.53,67.38 598.61,67.04 598.64,66.70 598.64,66.70 598.64,56.94 598.64,56.94 598.61,56.60 598.53,56.26 598.39,55.94 598.20,55.65 597.97,55.39 597.70,55.17 597.40,54.99 597.08,54.87 596.74,54.80 596.48,54.78 559.30,54.78 559.56,54.80 559.21,54.78 558.86,54.83 558.53,54.92 558.22,55.07 557.93,55.27 557.68,55.51 557.47,55.79 557.31,56.10 557.20,56.43 557.14,56.77 557.14,56.94 557.14,66.70 557.14,66.52 557.14,66.87 557.20,67.22 557.31,67.54 557.47,67.85 557.68,68.13 557.93,68.37 558.22,68.57 558.53,68.72 558.86,68.81 559.21,68.86 " style="stroke-width: 0.53; stroke: #AF0DC7; fill: #FFFFFF;" clip-path="url(#cpNi45NzM4NXw3MTMuMDI2fDIwOS4yMjd8Ni45NzM4NQ==)"/>
  <g clip-path="url(#cpNi45NzM4NXw3MTMuMDI2fDIwOS4yMjd8Ni45NzM4NQ==)">
    <text x="560.74" y="65.26" style="font-size: 9.96px; fill: #AF0DC7; font-family: Liberation Sans;" textLength="34.30px" lengthAdjust="spacingAndGlyphs">SoptSC</text>
  </g>
  <polyline points="544.41,169.41 581.57,169.41 581.48,169.41 581.83,169.40 582.17,169.33 582.50,169.20 582.80,169.03 583.07,168.81 583.30,168.55 583.48,168.26 583.62,167.94 583.70,167.60 583.73,167.25 583.73,167.25 583.73,157.50 583.73,157.50 583.70,157.15 583.62,156.81 583.48,156.49 583.30,156.20 583.07,155.94 582.80,155.72 582.50,155.55 582.17,155.42 581.83,155.35 581.57,155.34 544.41,155.34 544.67,155.35 544.32,155.34 543.97,155.38 543.64,155.48 543.33,155.63 543.04,155.82 542.79,156.07 542.58,156.34 542.42,156.65 542.31,156.98 542.25,157.32 542.25,157.50 542.25,167.25 542.25,167.08 542.25,167.43 542.31,167.77 542.42,168.10 542.58,168.41 542.79,168.69 543.04,168.93 543.33,169.12 543.64,169.27 543.97,169.37 544.32,169.41 " style="stroke-width: 0.53; stroke: #5ECD2E; fill: #FFFFFF;" clip-path="url(#cpNi45NzM4NXw3MTMuMDI2fDIwOS4yMjd8Ni45NzM4NQ==)"/>
  <g clip-path="url(#cpNi45NzM4NXw3MTMuMDI2fDIwOS4yMjd8Ni45NzM4NQ==)">
    <text x="545.85" y="165.81" style="font-size: 9.96px; fill: #5ECD2E; font-family: Liberation Sans;" textLength="34.29px" lengthAdjust="spacingAndGlyphs">FORKS</text>
  </g>
  <polyline points="400.12,203.46 426.24,203.46 426.15,203.46 426.50,203.45 426.84,203.38 427.16,203.26 427.46,203.08 427.73,202.86 427.96,202.60 428.15,202.31 428.28,201.99 428.37,201.65 428.40,201.30 428.40,201.30 428.40,191.55 428.40,191.55 428.37,191.20 428.28,190.87 428.15,190.55 427.96,190.25 427.73,189.99 427.46,189.77 427.16,189.60 426.84,189.48 426.50,189.41 426.24,189.39 400.12,189.39 400.38,189.41 400.03,189.39 399.69,189.43 399.35,189.53 399.04,189.68 398.75,189.88 398.50,190.12 398.30,190.40 398.13,190.70 398.02,191.03 397.97,191.38 397.96,191.55 397.96,201.30 397.97,201.13 397.97,201.48 398.02,201.82 398.13,202.15 398.30,202.46 398.50,202.74 398.75,202.98 399.04,203.18 399.35,203.32 399.69,203.42 400.03,203.46 " style="stroke-width: 0.53; stroke: #AF0DC7; fill: #FFFFFF;" clip-path="url(#cpNi45NzM4NXw3MTMuMDI2fDIwOS4yMjd8Ni45NzM4NQ==)"/>
  <g clip-path="url(#cpNi45NzM4NXw3MTMuMDI2fDIwOS4yMjd8Ni45NzM4NQ==)">
    <text x="401.56" y="199.86" style="font-size: 9.96px; fill: #AF0DC7; font-family: Liberation Sans;" textLength="23.24px" lengthAdjust="spacingAndGlyphs">Ouija</text>
  </g>
  <polyline points="568.14,111.86 590.94,111.86 590.85,111.86 591.20,111.85 591.54,111.78 591.87,111.65 592.17,111.48 592.44,111.26 592.67,111.00 592.85,110.71 592.99,110.39 593.07,110.05 593.10,109.70 593.10,109.70 593.10,99.95 593.10,99.95 593.07,99.60 592.99,99.26 592.85,98.94 592.67,98.65 592.44,98.39 592.17,98.17 591.87,98.00 591.54,97.87 591.20,97.80 590.94,97.79 568.14,97.79 568.40,97.80 568.06,97.79 567.71,97.83 567.38,97.93 567.06,98.08 566.78,98.27 566.53,98.52 566.32,98.79 566.16,99.10 566.05,99.43 565.99,99.77 565.98,99.95 565.98,109.70 565.99,109.53 565.99,109.88 566.05,110.22 566.16,110.55 566.32,110.86 566.53,111.14 566.78,111.38 567.06,111.57 567.38,111.72 567.71,111.82 568.06,111.86 " style="stroke-width: 0.53; stroke: #CFBF00; fill: #FFFFFF;" clip-path="url(#cpNi45NzM4NXw3MTMuMDI2fDIwOS4yMjd8Ni45NzM4NQ==)"/>
  <g clip-path="url(#cpNi45NzM4NXw3MTMuMDI2fDIwOS4yMjd8Ni45NzM4NQ==)">
    <text x="569.58" y="108.26" style="font-size: 9.96px; fill: #CFBF00; font-family: Liberation Sans;" textLength="19.92px" lengthAdjust="spacingAndGlyphs">PBA</text>
  </g>
  <polyline points="538.60,136.48 590.69,136.48 590.60,136.48 590.95,136.46 591.29,136.39 591.62,136.27 591.92,136.09 592.19,135.87 592.42,135.61 592.60,135.32 592.74,135.00 592.82,134.66 592.85,134.32 592.85,134.32 592.85,124.56 592.85,124.56 592.82,124.22 592.74,123.88 592.60,123.56 592.42,123.26 592.19,123.00 591.92,122.78 591.62,122.61 591.29,122.49 590.95,122.42 590.69,122.40 538.60,122.40 538.86,122.42 538.51,122.40 538.17,122.45 537.83,122.54 537.52,122.69 537.23,122.89 536.98,123.13 536.77,123.41 536.61,123.72 536.50,124.05 536.45,124.39 536.44,124.56 536.44,134.32 536.45,134.14 536.45,134.49 536.50,134.83 536.61,135.16 536.77,135.47 536.98,135.75 537.23,135.99 537.52,136.19 537.83,136.34 538.17,136.43 538.51,136.48 " style="stroke-width: 0.53; stroke: #AF0DC7; fill: #FFFFFF;" clip-path="url(#cpNi45NzM4NXw3MTMuMDI2fDIwOS4yMjd8Ni45NzM4NQ==)"/>
  <g clip-path="url(#cpNi45NzM4NXw3MTMuMDI2fDIwOS4yMjd8Ni45NzM4NQ==)">
    <text x="540.04" y="132.88" style="font-size: 9.96px; fill: #AF0DC7; font-family: Liberation Sans;" textLength="49.21px" lengthAdjust="spacingAndGlyphs">MATCHER</text>
  </g>
  <polyline points="489.34,146.08 538.14,146.08 538.06,146.08 538.40,146.07 538.74,146.00 539.07,145.88 539.37,145.70 539.64,145.48 539.87,145.22 540.05,144.93 540.19,144.61 540.27,144.27 540.30,143.92 540.30,143.92 540.30,134.17 540.30,134.17 540.27,133.82 540.19,133.49 540.05,133.17 539.87,132.87 539.64,132.61 539.37,132.39 539.07,132.22 538.74,132.09 538.40,132.03 538.14,132.01 489.34,132.01 489.60,132.03 489.25,132.01 488.91,132.05 488.57,132.15 488.26,132.30 487.97,132.50 487.72,132.74 487.52,133.02 487.35,133.32 487.24,133.65 487.19,134.00 487.18,134.17 487.18,143.92 487.19,143.75 487.19,144.10 487.24,144.44 487.35,144.77 487.52,145.08 487.72,145.36 487.97,145.60 488.26,145.80 488.57,145.94 488.91,146.04 489.25,146.08 " style="stroke-width: 0.53; stroke: #5ECD2E; fill: #FFFFFF;" clip-path="url(#cpNi45NzM4NXw3MTMuMDI2fDIwOS4yMjd8Ni45NzM4NQ==)"/>
  <g clip-path="url(#cpNi45NzM4NXw3MTMuMDI2fDIwOS4yMjd8Ni45NzM4NQ==)">
    <text x="490.78" y="142.48" style="font-size: 9.96px; fill: #5ECD2E; font-family: Liberation Sans;" textLength="45.92px" lengthAdjust="spacingAndGlyphs">Monocle 2</text>
  </g>
  <polyline points="607.84,145.59 655.53,145.59 655.44,145.59 655.79,145.58 656.13,145.51 656.45,145.39 656.75,145.21 657.02,144.99 657.25,144.73 657.44,144.44 657.58,144.12 657.66,143.78 657.69,143.43 657.69,143.43 657.69,133.68 657.69,133.68 657.66,133.33 657.58,133.00 657.44,132.68 657.25,132.38 657.02,132.12 656.75,131.90 656.45,131.73 656.13,131.61 655.79,131.54 655.53,131.52 607.84,131.52 608.10,131.54 607.76,131.52 607.41,131.56 607.08,131.66 606.76,131.81 606.48,132.01 606.23,132.25 606.02,132.53 605.86,132.83 605.75,133.16 605.69,133.51 605.68,133.68 605.68,143.43 605.69,143.26 605.69,143.61 605.75,143.95 605.86,144.28 606.02,144.59 606.23,144.87 606.48,145.11 606.76,145.31 607.08,145.45 607.41,145.55 607.76,145.59 " style="stroke-width: 0.53; stroke: #CFBF00; fill: #FFFFFF;" clip-path="url(#cpNi45NzM4NXw3MTMuMDI2fDIwOS4yMjd8Ni45NzM4NQ==)"/>
  <g clip-path="url(#cpNi45NzM4NXw3MTMuMDI2fDIwOS4yMjd8Ni45NzM4NQ==)">
    <text x="609.28" y="141.99" style="font-size: 9.96px; fill: #CFBF00; font-family: Liberation Sans;" textLength="44.80px" lengthAdjust="spacingAndGlyphs">GrandPrix</text>
  </g>
  <polyline points="622.03,165.55 681.90,165.55 681.81,165.55 682.16,165.53 682.50,165.46 682.83,165.34 683.13,165.17 683.40,164.95 683.63,164.69 683.81,164.39 683.95,164.07 684.03,163.74 684.06,163.39 684.06,163.39 684.06,153.63 684.06,153.63 684.03,153.29 683.95,152.95 683.81,152.63 683.63,152.34 683.40,152.08 683.13,151.86 682.83,151.68 682.50,151.56 682.16,151.49 681.90,151.47 622.03,151.47 622.29,151.49 621.94,151.48 621.60,151.52 621.26,151.61 620.95,151.76 620.66,151.96 620.41,152.20 620.20,152.48 620.04,152.79 619.93,153.12 619.87,153.46 619.87,153.63 619.87,163.39 619.87,163.21 619.87,163.56 619.93,163.91 620.04,164.24 620.20,164.54 620.41,164.82 620.66,165.06 620.95,165.26 621.26,165.41 621.60,165.50 621.94,165.55 " style="stroke-width: 0.53; stroke: #5ECD2E; fill: #FFFFFF;" clip-path="url(#cpNi45NzM4NXw3MTMuMDI2fDIwOS4yMjd8Ni45NzM4NQ==)"/>
  <g clip-path="url(#cpNi45NzM4NXw3MTMuMDI2fDIwOS4yMjd8Ni45NzM4NQ==)">
    <text x="623.47" y="161.95" style="font-size: 9.96px; fill: #5ECD2E; font-family: Liberation Sans;" textLength="56.99px" lengthAdjust="spacingAndGlyphs">Topographer</text>
  </g>
  <polyline points="550.45,153.08 593.73,153.08 593.65,153.07 593.99,153.06 594.33,152.99 594.66,152.87 594.96,152.69 595.23,152.47 595.46,152.21 595.65,151.92 595.78,151.60 595.87,151.26 595.89,150.92 595.89,150.92 595.89,141.16 595.89,141.16 595.87,140.81 595.78,140.48 595.65,140.16 595.46,139.86 595.23,139.60 594.96,139.38 594.66,139.21 594.33,139.09 593.99,139.02 593.73,139.00 550.45,139.00 550.71,139.02 550.37,139.00 550.02,139.04 549.69,139.14 549.37,139.29 549.09,139.49 548.84,139.73 548.63,140.01 548.47,140.31 548.36,140.64 548.30,140.99 548.29,141.16 548.29,150.92 548.30,150.74 548.30,151.09 548.36,151.43 548.47,151.76 548.63,152.07 548.84,152.35 549.09,152.59 549.37,152.79 549.69,152.94 550.02,153.03 550.37,153.07 " style="stroke-width: 0.53; stroke: #AF0DC7; fill: #FFFFFF;" clip-path="url(#cpNi45NzM4NXw3MTMuMDI2fDIwOS4yMjd8Ni45NzM4NQ==)"/>
  <g clip-path="url(#cpNi45NzM4NXw3MTMuMDI2fDIwOS4yMjd8Ni45NzM4NQ==)">
    <text x="551.89" y="149.48" style="font-size: 9.96px; fill: #AF0DC7; font-family: Liberation Sans;" textLength="40.40px" lengthAdjust="spacingAndGlyphs">HopLand</text>
  </g>
  <polyline points="491.57,164.04 529.30,164.04 529.21,164.04 529.56,164.03 529.90,163.96 530.22,163.84 530.52,163.66 530.79,163.44 531.02,163.18 531.21,162.89 531.34,162.57 531.43,162.23 531.46,161.88 531.46,161.88 531.46,152.13 531.46,152.13 531.43,151.78 531.34,151.45 531.21,151.13 531.02,150.83 530.79,150.57 530.52,150.35 530.22,150.18 529.90,150.06 529.56,149.99 529.30,149.97 491.57,149.97 491.83,149.99 491.48,149.97 491.13,150.01 490.80,150.11 490.49,150.26 490.20,150.46 489.95,150.70 489.74,150.98 489.58,151.28 489.47,151.61 489.41,151.96 489.41,152.13 489.41,161.88 489.41,161.71 489.41,162.06 489.47,162.40 489.58,162.73 489.74,163.04 489.95,163.32 490.20,163.56 490.49,163.76 490.80,163.90 491.13,164.00 491.48,164.04 " style="stroke-width: 0.53; stroke: #AF0DC7; fill: #FFFFFF;" clip-path="url(#cpNi45NzM4NXw3MTMuMDI2fDIwOS4yMjd8Ni45NzM4NQ==)"/>
  <g clip-path="url(#cpNi45NzM4NXw3MTMuMDI2fDIwOS4yMjd8Ni45NzM4NQ==)">
    <text x="493.01" y="160.44" style="font-size: 9.96px; fill: #AF0DC7; font-family: Liberation Sans;" textLength="34.85px" lengthAdjust="spacingAndGlyphs">topslam</text>
  </g>
  <polyline points="510.90,201.14 534.79,201.14 534.70,201.14 535.05,201.12 535.39,201.05 535.72,200.93 536.02,200.76 536.29,200.54 536.52,200.28 536.70,199.98 536.84,199.66 536.92,199.32 536.95,198.98 536.95,198.98 536.95,189.22 536.95,189.22 536.92,188.88 536.84,188.54 536.70,188.22 536.52,187.93 536.29,187.67 536.02,187.45 535.72,187.27 535.39,187.15 535.05,187.08 534.79,187.06 510.90,187.06 511.16,187.08 510.81,187.06 510.47,187.11 510.14,187.20 509.82,187.35 509.54,187.55 509.28,187.79 509.08,188.07 508.91,188.38 508.80,188.71 508.75,189.05 508.74,189.22 508.74,198.98 508.75,198.80 508.75,199.15 508.80,199.49 508.91,199.82 509.08,200.13 509.28,200.41 509.54,200.65 509.82,200.85 510.14,201.00 510.47,201.09 510.81,201.14 " style="stroke-width: 0.53; stroke: #CFBF00; fill: #FFFFFF;" clip-path="url(#cpNi45NzM4NXw3MTMuMDI2fDIwOS4yMjd8Ni45NzM4NQ==)"/>
  <g clip-path="url(#cpNi45NzM4NXw3MTMuMDI2fDIwOS4yMjd8Ni45NzM4NQ==)">
    <text x="512.34" y="197.54" style="font-size: 9.96px; fill: #CFBF00; font-family: Liberation Sans;" textLength="21.01px" lengthAdjust="spacingAndGlyphs">MFA</text>
  </g>
  <polyline points="638.75,205.63 677.59,205.63 677.51,205.62 677.85,205.61 678.19,205.54 678.52,205.42 678.82,205.24 679.09,205.02 679.32,204.76 679.51,204.47 679.64,204.15 679.73,203.81 679.75,203.47 679.75,203.47 679.75,193.71 679.75,193.71 679.73,193.37 679.64,193.03 679.51,192.71 679.32,192.41 679.09,192.15 678.82,191.93 678.52,191.76 678.19,191.64 677.85,191.57 677.59,191.55 638.75,191.55 639.01,191.57 638.66,191.55 638.32,191.60 637.98,191.69 637.67,191.84 637.38,192.04 637.13,192.28 636.92,192.56 636.76,192.87 636.65,193.19 636.60,193.54 636.59,193.71 636.59,203.47 636.60,203.29 636.60,203.64 636.65,203.98 636.76,204.31 636.92,204.62 637.13,204.90 637.38,205.14 637.67,205.34 637.98,205.49 638.32,205.58 638.66,205.62 " style="stroke-width: 0.53; stroke: #5ECD2E; fill: #FFFFFF;" clip-path="url(#cpNi45NzM4NXw3MTMuMDI2fDIwOS4yMjd8Ni45NzM4NQ==)"/>
  <g clip-path="url(#cpNi45NzM4NXw3MTMuMDI2fDIwOS4yMjd8Ni45NzM4NQ==)">
    <text x="640.19" y="202.03" style="font-size: 9.96px; fill: #5ECD2E; font-family: Liberation Sans;" textLength="35.96px" lengthAdjust="spacingAndGlyphs">scEpath</text>
  </g>
  <polyline points="568.42,199.73 592.32,199.73 592.23,199.73 592.58,199.72 592.92,199.65 593.25,199.53 593.55,199.35 593.82,199.13 594.05,198.87 594.23,198.58 594.37,198.26 594.45,197.92 594.48,197.57 594.48,197.57 594.48,187.82 594.48,187.82 594.45,187.47 594.37,187.14 594.23,186.82 594.05,186.52 593.82,186.26 593.55,186.04 593.25,185.87 592.92,185.75 592.58,185.68 592.32,185.66 568.42,185.66 568.68,185.68 568.33,185.66 567.99,185.70 567.65,185.80 567.34,185.95 567.05,186.15 566.80,186.39 566.59,186.67 566.43,186.97 566.32,187.30 566.27,187.65 566.26,187.82 566.26,197.57 566.27,197.40 566.27,197.75 566.32,198.09 566.43,198.42 566.59,198.73 566.80,199.01 567.05,199.25 567.34,199.45 567.65,199.59 567.99,199.69 568.33,199.73 " style="stroke-width: 0.53; stroke: #0073D7; fill: #FFFFFF;" clip-path="url(#cpNi45NzM4NXw3MTMuMDI2fDIwOS4yMjd8Ni45NzM4NQ==)"/>
  <g clip-path="url(#cpNi45NzM4NXw3MTMuMDI2fDIwOS4yMjd8Ni45NzM4NQ==)">
    <text x="569.86" y="196.13" style="font-size: 9.96px; fill: #0073D7; font-family: Liberation Sans;" textLength="21.02px" lengthAdjust="spacingAndGlyphs">BGP</text>
  </g>
  <polyline points="615.73,185.24 645.16,185.24 645.07,185.24 645.42,185.22 645.76,185.15 646.09,185.03 646.39,184.86 646.66,184.64 646.89,184.38 647.07,184.08 647.21,183.76 647.29,183.42 647.32,183.08 647.32,183.08 647.32,173.32 647.32,173.32 647.29,172.98 647.21,172.64 647.07,172.32 646.89,172.03 646.66,171.77 646.39,171.55 646.09,171.37 645.76,171.25 645.42,171.18 645.16,171.16 615.73,171.16 615.99,171.18 615.64,171.17 615.30,171.21 614.96,171.30 614.65,171.45 614.36,171.65 614.11,171.89 613.90,172.17 613.74,172.48 613.63,172.81 613.58,173.15 613.57,173.32 613.57,183.08 613.58,182.90 613.58,183.25 613.63,183.60 613.74,183.93 613.90,184.23 614.11,184.51 614.36,184.75 614.65,184.95 614.96,185.10 615.30,185.19 615.64,185.24 " style="stroke-width: 0.53; stroke: #AF0DC7; fill: #FFFFFF;" clip-path="url(#cpNi45NzM4NXw3MTMuMDI2fDIwOS4yMjd8Ni45NzM4NQ==)"/>
  <g clip-path="url(#cpNi45NzM4NXw3MTMuMDI2fDIwOS4yMjd8Ni45NzM4NQ==)">
    <text x="617.17" y="181.64" style="font-size: 9.96px; fill: #AF0DC7; font-family: Liberation Sans;" textLength="26.55px" lengthAdjust="spacingAndGlyphs">iCpSc</text>
  </g>
  <defs>
    <clipPath id="cpMHw3MjB8MjUyfDA=">
      <rect x="0.00" y="0.00" width="720.00" height="252.00"/>
    </clipPath>
  </defs>
  <polyline points="6.97,209.23 713.03,209.23 " style="stroke-width: 1.07; stroke-linecap: square;" clip-path="url(#cpMHw3MjB8MjUyfDA=)"/>
  <polyline points="39.07,212.71 39.07,209.23 " style="stroke-width: 1.07; stroke-linecap: butt;" clip-path="url(#cpMHw3MjB8MjUyfDA=)"/>
  <polyline points="190.12,212.71 190.12,209.23 " style="stroke-width: 1.07; stroke-linecap: butt;" clip-path="url(#cpMHw3MjB8MjUyfDA=)"/>
  <polyline points="341.17,212.71 341.17,209.23 " style="stroke-width: 1.07; stroke-linecap: butt;" clip-path="url(#cpMHw3MjB8MjUyfDA=)"/>
  <polyline points="492.64,212.71 492.64,209.23 " style="stroke-width: 1.07; stroke-linecap: butt;" clip-path="url(#cpMHw3MjB8MjUyfDA=)"/>
  <polyline points="643.69,212.71 643.69,209.23 " style="stroke-width: 1.07; stroke-linecap: butt;" clip-path="url(#cpMHw3MjB8MjUyfDA=)"/>
  <g clip-path="url(#cpMHw3MjB8MjUyfDA=)">
    <text x="25.72" y="223.95" style="font-size: 12.00px; font-family: Liberation Sans;" textLength="26.70px" lengthAdjust="spacingAndGlyphs">2014</text>
  </g>
  <g clip-path="url(#cpMHw3MjB8MjUyfDA=)">
    <text x="176.77" y="223.95" style="font-size: 12.00px; font-family: Liberation Sans;" textLength="26.70px" lengthAdjust="spacingAndGlyphs">2015</text>
  </g>
  <g clip-path="url(#cpMHw3MjB8MjUyfDA=)">
    <text x="327.82" y="223.95" style="font-size: 12.00px; font-family: Liberation Sans;" textLength="26.70px" lengthAdjust="spacingAndGlyphs">2016</text>
  </g>
  <g clip-path="url(#cpMHw3MjB8MjUyfDA=)">
    <text x="479.29" y="223.95" style="font-size: 12.00px; font-family: Liberation Sans;" textLength="26.70px" lengthAdjust="spacingAndGlyphs">2017</text>
  </g>
  <g clip-path="url(#cpMHw3MjB8MjUyfDA=)">
    <text x="630.34" y="223.95" style="font-size: 12.00px; font-family: Liberation Sans;" textLength="26.70px" lengthAdjust="spacingAndGlyphs">2018</text>
  </g>
  <g clip-path="url(#cpMHw3MjB8MjUyfDA=)">
    <text x="312.13" y="240.80" style="font-size: 14.00px; font-family: Liberation Sans;" textLength="95.74px" lengthAdjust="spacingAndGlyphs">Publishing date</text>
  </g>
</svg>
