<?xml version="1.0" encoding="UTF-8"?>
<svg xmlns="http://www.w3.org/2000/svg" xmlns:xlink="http://www.w3.org/1999/xlink" viewBox="0 0 720.00 324.00">
  <defs>
    <style type="text/css"><![CDATA[
    line, polyline, path, rect, circle {
      fill: none;
      stroke: #000000;
      stroke-linecap: round;
      stroke-linejoin: round;
      stroke-miterlimit: 10.00;
    }
  ]]></style>
  </defs>
  <line x1="416.08" y1="190.47" x2="416.08" y2="281.23" style="stroke-width: 1.07; stroke: #E8EF04;" clip-path="url(#cpNi45NzM4NXw3MTMuMDI2fDI4MS4yMjd8Ni45NzM4NQ==)"/>
  <line x1="522.85" y1="147.99" x2="522.85" y2="281.23" style="stroke-width: 1.07; stroke: #7FBE00;" clip-path="url(#cpNi45NzM4NXw3MTMuMDI2fDI4MS4yMjd8Ni45NzM4NQ==)"/>
  <line x1="510.43" y1="177.87" x2="510.43" y2="281.22" style="stroke-width: 1.07; stroke: #0278DD;" clip-path="url(#cpNi45NzM4NXw3MTMuMDI2fDI4MS4yMjd8Ni45NzM4NQ==)"/>
  <line x1="200.88" y1="273.89" x2="200.88" y2="281.22" style="stroke-width: 1.07; stroke: #E8EF04;" clip-path="url(#cpNi45NzM4NXw3MTMuMDI2fDI4MS4yMjd8Ni45NzM4NQ==)"/>
  <line x1="542.30" y1="245.49" x2="542.30" y2="281.22" style="stroke-width: 1.07; stroke: #0278DD;" clip-path="url(#cpNi45NzM4NXw3MTMuMDI2fDI4MS4yMjd8Ni45NzM4NQ==)"/>
  <line x1="291.51" y1="255.61" x2="291.51" y2="281.22" style="stroke-width: 1.07; stroke: #0278DD;" clip-path="url(#cpNi45NzM4NXw3MTMuMDI2fDI4MS4yMjd8Ni45NzM4NQ==)"/>
  <line x1="569.61" y1="123.64" x2="569.61" y2="281.22" style="stroke-width: 1.07; stroke: #0278DD;" clip-path="url(#cpNi45NzM4NXw3MTMuMDI2fDI4MS4yMjd8Ni45NzM4NQ==)"/>
  <line x1="624.24" y1="271.74" x2="624.24" y2="281.22" style="stroke-width: 1.07; stroke: #E8EF04;" clip-path="url(#cpNi45NzM4NXw3MTMuMDI2fDI4MS4yMjd8Ni45NzM4NQ==)"/>
  <line x1="391.66" y1="210.66" x2="391.66" y2="281.22" style="stroke-width: 1.07; stroke: #3AD1D1;" clip-path="url(#cpNi45NzM4NXw3MTMuMDI2fDI4MS4yMjd8Ni45NzM4NQ==)"/>
  <line x1="189.29" y1="250.68" x2="189.29" y2="281.22" style="stroke-width: 1.07; stroke: #E8EF04;" clip-path="url(#cpNi45NzM4NXw3MTMuMDI2fDI4MS4yMjd8Ni45NzM4NQ==)"/>
  <line x1="434.28" y1="232.73" x2="434.28" y2="281.22" style="stroke-width: 1.07; stroke: #E8EF04;" clip-path="url(#cpNi45NzM4NXw3MTMuMDI2fDI4MS4yMjd8Ni45NzM4NQ==)"/>
  <line x1="593.20" y1="249.86" x2="593.20" y2="281.22" style="stroke-width: 1.07; stroke: #FF8821;" clip-path="url(#cpNi45NzM4NXw3MTMuMDI2fDI4MS4yMjd8Ni45NzM4NQ==)"/>
  <line x1="537.33" y1="104.31" x2="537.33" y2="281.22" style="stroke-width: 1.07; stroke: #E8EF04;" clip-path="url(#cpNi45NzM4NXw3MTMuMDI2fDI4MS4yMjd8Ni45NzM4NQ==)"/>
  <line x1="554.71" y1="86.39" x2="554.71" y2="281.22" style="stroke-width: 1.07; stroke: #0278DD;" clip-path="url(#cpNi45NzM4NXw3MTMuMDI2fDI4MS4yMjd8Ni45NzM4NQ==)"/>
  <line x1="487.26" y1="271.78" x2="487.26" y2="281.22" style="stroke-width: 1.07; stroke: #E8EF04;" clip-path="url(#cpNi45NzM4NXw3MTMuMDI2fDI4MS4yMjd8Ni45NzM4NQ==)"/>
  <line x1="396.21" y1="124.65" x2="396.21" y2="281.22" style="stroke-width: 1.07; stroke: #E8EF04;" clip-path="url(#cpNi45NzM4NXw3MTMuMDI2fDI4MS4yMjd8Ni45NzM4NQ==)"/>
  <line x1="631.69" y1="224.88" x2="631.69" y2="281.22" style="stroke-width: 1.07; stroke: #7FBE00;" clip-path="url(#cpNi45NzM4NXw3MTMuMDI2fDI4MS4yMjd8Ni45NzM4NQ==)"/>
  <line x1="297.72" y1="232.97" x2="297.72" y2="281.22" style="stroke-width: 1.07; stroke: #0278DD;" clip-path="url(#cpNi45NzM4NXw3MTMuMDI2fDI4MS4yMjd8Ni45NzM4NQ==)"/>
  <line x1="412.35" y1="167.40" x2="412.35" y2="281.22" style="stroke-width: 1.07; stroke: #E8EF04;" clip-path="url(#cpNi45NzM4NXw3MTMuMDI2fDI4MS4yMjd8Ni45NzM4NQ==)"/>
  <line x1="580.37" y1="185.41" x2="580.37" y2="281.22" style="stroke-width: 1.07; stroke: #3AD1D1;" clip-path="url(#cpNi45NzM4NXw3MTMuMDI2fDI4MS4yMjd8Ni45NzM4NQ==)"/>
  <line x1="617.62" y1="206.64" x2="617.62" y2="281.22" style="stroke-width: 1.07; stroke: #0278DD;" clip-path="url(#cpNi45NzM4NXw3MTMuMDI2fDI4MS4yMjd8Ni45NzM4NQ==)"/>
  <line x1="564.64" y1="42.19" x2="564.64" y2="281.22" style="stroke-width: 1.07; stroke: #0278DD;" clip-path="url(#cpNi45NzM4NXw3MTMuMDI2fDI4MS4yMjd8Ni45NzM4NQ==)"/>
  <line x1="406.97" y1="87.02" x2="406.97" y2="281.22" style="stroke-width: 1.07; stroke: #7FBE00;" clip-path="url(#cpNi45NzM4NXw3MTMuMDI2fDI4MS4yMjd8Ni45NzM4NQ==)"/>
  <line x1="345.72" y1="276.46" x2="345.72" y2="281.22" style="stroke-width: 1.07; stroke: #E8EF04;" clip-path="url(#cpNi45NzM4NXw3MTMuMDI2fDI4MS4yMjd8Ni45NzM4NQ==)"/>
  <line x1="517.88" y1="224.73" x2="517.88" y2="281.22" style="stroke-width: 1.07; stroke: #7FBE00;" clip-path="url(#cpNi45NzM4NXw3MTMuMDI2fDI4MS4yMjd8Ni45NzM4NQ==)"/>
  <line x1="514.16" y1="263.81" x2="514.16" y2="281.22" style="stroke-width: 1.07; stroke: #E8EF04;" clip-path="url(#cpNi45NzM4NXw3MTMuMDI2fDI4MS4yMjd8Ni45NzM4NQ==)"/>
  <line x1="651.96" y1="249.54" x2="651.96" y2="281.21" style="stroke-width: 1.07; stroke: #E8EF04;" clip-path="url(#cpNi45NzM4NXw3MTMuMDI2fDI4MS4yMjd8Ni45NzM4NQ==)"/>
  <line x1="577.89" y1="67.44" x2="577.89" y2="281.21" style="stroke-width: 1.07; stroke: #0278DD;" clip-path="url(#cpNi45NzM4NXw3MTMuMDI2fDI4MS4yMjd8Ni45NzM4NQ==)"/>
  <line x1="616.37" y1="94.99" x2="616.37" y2="281.21" style="stroke-width: 1.07; stroke: #CA0565;" clip-path="url(#cpNi45NzM4NXw3MTMuMDI2fDI4MS4yMjd8Ni45NzM4NQ==)"/>
  <line x1="630.44" y1="144.29" x2="630.44" y2="281.21" style="stroke-width: 1.07; stroke: #0278DD;" clip-path="url(#cpNi45NzM4NXw3MTMuMDI2fDI4MS4yMjd8Ni45NzM4NQ==)"/>
  <line x1="656.10" y1="187.22" x2="656.10" y2="281.21" style="stroke-width: 1.07; stroke: #FF4237;" clip-path="url(#cpNi45NzM4NXw3MTMuMDI2fDI4MS4yMjd8Ni45NzM4NQ==)"/>
  <line x1="513.74" y1="125.85" x2="513.74" y2="281.21" style="stroke-width: 1.07; stroke: #E8EF04;" clip-path="url(#cpNi45NzM4NXw3MTMuMDI2fDI4MS4yMjd8Ni45NzM4NQ==)"/>
  <line x1="413.18" y1="44.22" x2="413.18" y2="281.21" style="stroke-width: 1.07; stroke: #0278DD;" clip-path="url(#cpNi45NzM4NXw3MTMuMDI2fDI4MS4yMjd8Ni45NzM4NQ==)"/>
  <line x1="583.68" y1="143.69" x2="583.68" y2="281.21" style="stroke-width: 1.07; stroke: #3AD1D1;" clip-path="url(#cpNi45NzM4NXw3MTMuMDI2fDI4MS4yMjd8Ni45NzM4NQ==)"/>
  <line x1="435.94" y1="107.54" x2="435.94" y2="281.21" style="stroke-width: 1.07; stroke: #0278DD;" clip-path="url(#cpNi45NzM4NXw3MTMuMDI2fDI4MS4yMjd8Ni45NzM4NQ==)"/>
  <line x1="76.31" y1="270.90" x2="76.31" y2="281.21" style="stroke-width: 1.07; stroke: #E8EF04;" clip-path="url(#cpNi45NzM4NXw3MTMuMDI2fDI4MS4yMjd8Ni45NzM4NQ==)"/>
  <line x1="85.83" y1="249.07" x2="85.83" y2="281.21" style="stroke-width: 1.07; stroke: #0278DD;" clip-path="url(#cpNi45NzM4NXw3MTMuMDI2fDI4MS4yMjd8Ni45NzM4NQ==)"/>
  <line x1="410.70" y1="24.65" x2="410.70" y2="281.21" style="stroke-width: 1.07; stroke: #0278DD;" clip-path="url(#cpNi45NzM4NXw3MTMuMDI2fDI4MS4yMjd8Ni45NzM4NQ==)"/>
  <line x1="455.80" y1="253.04" x2="455.80" y2="281.21" style="stroke-width: 1.07; stroke: #0278DD;" clip-path="url(#cpNi45NzM4NXw3MTMuMDI2fDI4MS4yMjd8Ni45NzM4NQ==)"/>
  <line x1="380.49" y1="253.72" x2="380.49" y2="281.21" style="stroke-width: 1.07; stroke: #0278DD;" clip-path="url(#cpNi45NzM4NXw3MTMuMDI2fDI4MS4yMjd8Ni45NzM4NQ==)"/>
  <line x1="386.28" y1="146.12" x2="386.28" y2="281.21" style="stroke-width: 1.07; stroke: #0278DD;" clip-path="url(#cpNi45NzM4NXw3MTMuMDI2fDI4MS4yMjd8Ni45NzM4NQ==)"/>
  <line x1="531.12" y1="68.26" x2="531.12" y2="281.21" style="stroke-width: 1.07; stroke: #E8EF04;" clip-path="url(#cpNi45NzM4NXw3MTMuMDI2fDI4MS4yMjd8Ni45NzM4NQ==)"/>
  <line x1="457.05" y1="146.37" x2="457.05" y2="281.21" style="stroke-width: 1.07; stroke: #0278DD;" clip-path="url(#cpNi45NzM4NXw3MTMuMDI2fDI4MS4yMjd8Ni45NzM4NQ==)"/>
  <line x1="485.60" y1="200.58" x2="485.60" y2="281.21" style="stroke-width: 1.07; stroke: #E8EF04;" clip-path="url(#cpNi45NzM4NXw3MTMuMDI2fDI4MS4yMjd8Ni45NzM4NQ==)"/>
  <line x1="603.96" y1="164.40" x2="603.96" y2="281.21" style="stroke-width: 1.07; stroke: #FF4237;" clip-path="url(#cpNi45NzM4NXw3MTMuMDI2fDI4MS4yMjd8Ni45NzM4NQ==)"/>
  <line x1="296.48" y1="209.95" x2="296.48" y2="281.21" style="stroke-width: 1.07; stroke: #0278DD;" clip-path="url(#cpNi45NzM4NXw3MTMuMDI2fDI4MS4yMjd8Ni45NzM4NQ==)"/>
  <line x1="572.09" y1="24.65" x2="572.09" y2="281.20" style="stroke-width: 1.07; stroke: #0278DD;" clip-path="url(#cpNi45NzM4NXw3MTMuMDI2fDI4MS4yMjd8Ni45NzM4NQ==)"/>
  <line x1="356.90" y1="183.49" x2="356.90" y2="281.20" style="stroke-width: 1.07; stroke: #3AD1D1;" clip-path="url(#cpNi45NzM4NXw3MTMuMDI2fDI4MS4yMjd8Ni45NzM4NQ==)"/>
  <line x1="382.14" y1="66.04" x2="382.14" y2="281.20" style="stroke-width: 1.07; stroke: #FF4237;" clip-path="url(#cpNi45NzM4NXw3MTMuMDI2fDI4MS4yMjd8Ni45NzM4NQ==)"/>
  <line x1="255.51" y1="277.35" x2="255.51" y2="281.20" style="stroke-width: 1.07; stroke: #0278DD;" clip-path="url(#cpNi45NzM4NXw3MTMuMDI2fDI4MS4yMjd8Ni45NzM4NQ==)"/>
  <line x1="526.57" y1="24.65" x2="526.57" y2="281.20" style="stroke-width: 1.07; stroke: #E8EF04;" clip-path="url(#cpNi45NzM4NXw3MTMuMDI2fDI4MS4yMjd8Ni45NzM4NQ==)"/>
  <line x1="466.56" y1="81.19" x2="466.56" y2="281.20" style="stroke-width: 1.07; stroke: #0278DD;" clip-path="url(#cpNi45NzM4NXw3MTMuMDI2fDI4MS4yMjd8Ni45NzM4NQ==)"/>
  <line x1="531.54" y1="47.78" x2="531.54" y2="281.20" style="stroke-width: 1.07; stroke: #E8EF04;" clip-path="url(#cpNi45NzM4NXw3MTMuMDI2fDI4MS4yMjd8Ni45NzM4NQ==)"/>
  <line x1="562.57" y1="204.81" x2="562.57" y2="281.20" style="stroke-width: 1.07; stroke: #003D76;" clip-path="url(#cpNi45NzM4NXw3MTMuMDI2fDI4MS4yMjd8Ni45NzM4NQ==)"/>
  <line x1="658.17" y1="166.00" x2="658.17" y2="281.20" style="stroke-width: 1.07; stroke: #E8EF04;" clip-path="url(#cpNi45NzM4NXw3MTMuMDI2fDI4MS4yMjd8Ni45NzM4NQ==)"/>
  <line x1="579.54" y1="226.54" x2="579.54" y2="281.20" style="stroke-width: 1.07; stroke: #7FBE00;" clip-path="url(#cpNi45NzM4NXw3MTMuMDI2fDI4MS4yMjd8Ni45NzM4NQ==)"/>
  <line x1="562.99" y1="167.88" x2="562.99" y2="281.20" style="stroke-width: 1.07; stroke: #E8EF04;" clip-path="url(#cpNi45NzM4NXw3MTMuMDI2fDI4MS4yMjd8Ni45NzM4NQ==)"/>
  <line x1="659.41" y1="127.17" x2="659.41" y2="281.20" style="stroke-width: 1.07; stroke: #E8EF04;" clip-path="url(#cpNi45NzM4NXw3MTMuMDI2fDI4MS4yMjd8Ni45NzM4NQ==)"/>
  <defs>
    <clipPath id="cpNi45NzM4NXw3MTMuMDI2fDI4MS4yMjd8Ni45NzM4NQ==">
      <rect x="6.97" y="6.97" width="706.05" height="274.25"/>
    </clipPath>
  </defs>
  <polyline points="638.34,127.17 680.49,127.17 680.40,127.17 680.75,127.16 681.09,127.09 681.41,126.97 681.71,126.79 681.98,126.57 682.21,126.31 682.40,126.02 682.54,125.70 682.62,125.36 682.65,125.01 682.65,125.01 682.65,115.26 682.65,115.26 682.62,114.91 682.54,114.57 682.40,114.26 682.21,113.96 681.98,113.70 681.71,113.48 681.41,113.31 681.09,113.18 680.75,113.11 680.49,113.10 638.34,113.10 638.60,113.11 638.25,113.10 637.91,113.14 637.57,113.24 637.26,113.39 636.97,113.59 636.72,113.83 636.51,114.10 636.35,114.41 636.24,114.74 636.19,115.09 636.18,115.26 636.18,125.01 636.19,124.84 636.19,125.19 636.24,125.53 636.35,125.86 636.51,126.17 636.72,126.45 636.97,126.69 637.26,126.88 637.57,127.03 637.91,127.13 638.25,127.17 " style="stroke-width: 0.53; stroke: #E8EF04; fill: #FFFFFF;" clip-path="url(#cpNi45NzM4NXw3MTMuMDI2fDI4MS4yMjd8Ni45NzM4NQ==)"/>
  <g clip-path="url(#cpNi45NzM4NXw3MTMuMDI2fDI4MS4yMjd8Ni45NzM4NQ==)">
    <text x="639.78" y="123.57" style="font-size: 9.96px; fill: #E8EF04; font-family: Liberation Sans;" textLength="39.27px" lengthAdjust="spacingAndGlyphs">MERLoT</text>
  </g>
  <polyline points="544.41,167.88 581.57,167.88 581.48,167.88 581.83,167.86 582.17,167.79 582.50,167.67 582.80,167.50 583.07,167.28 583.30,167.02 583.48,166.72 583.62,166.40 583.70,166.07 583.73,165.72 583.73,165.72 583.73,155.97 583.73,155.97 583.70,155.62 583.62,155.28 583.48,154.96 583.30,154.67 583.07,154.41 582.80,154.19 582.50,154.01 582.17,153.89 581.83,153.82 581.57,153.81 544.41,153.81 544.67,153.82 544.32,153.81 543.97,153.85 543.64,153.95 543.33,154.09 543.04,154.29 542.79,154.53 542.58,154.81 542.42,155.12 542.31,155.45 542.25,155.79 542.25,155.97 542.25,165.72 542.25,165.55 542.25,165.89 542.31,166.24 542.42,166.57 542.58,166.87 542.79,167.15 543.04,167.39 543.33,167.59 543.64,167.74 543.97,167.84 544.32,167.88 " style="stroke-width: 0.53; stroke: #E8EF04; fill: #FFFFFF;" clip-path="url(#cpNi45NzM4NXw3MTMuMDI2fDI4MS4yMjd8Ni45NzM4NQ==)"/>
  <g clip-path="url(#cpNi45NzM4NXw3MTMuMDI2fDI4MS4yMjd8Ni45NzM4NQ==)">
    <text x="545.85" y="164.28" style="font-size: 9.96px; fill: #E8EF04; font-family: Liberation Sans;" textLength="34.29px" lengthAdjust="spacingAndGlyphs">FORKS</text>
  </g>
  <polyline points="568.14,226.54 590.94,226.54 590.85,226.54 591.20,226.53 591.54,226.46 591.87,226.34 592.17,226.16 592.44,225.94 592.67,225.68 592.85,225.39 592.99,225.07 593.07,224.73 593.10,224.38 593.10,224.38 593.10,214.63 593.10,214.63 593.07,214.28 592.99,213.95 592.85,213.63 592.67,213.33 592.44,213.07 592.17,212.85 591.87,212.68 591.54,212.55 591.20,212.49 590.94,212.47 568.14,212.47 568.40,212.49 568.06,212.47 567.71,212.51 567.38,212.61 567.06,212.76 566.78,212.96 566.53,213.20 566.32,213.48 566.16,213.78 566.05,214.11 565.99,214.46 565.98,214.63 565.98,224.38 565.99,224.21 565.99,224.56 566.05,224.90 566.16,225.23 566.32,225.54 566.53,225.82 566.78,226.06 567.06,226.26 567.38,226.40 567.71,226.50 568.06,226.54 " style="stroke-width: 0.53; stroke: #7FBE00; fill: #FFFFFF;" clip-path="url(#cpNi45NzM4NXw3MTMuMDI2fDI4MS4yMjd8Ni45NzM4NQ==)"/>
  <g clip-path="url(#cpNi45NzM4NXw3MTMuMDI2fDI4MS4yMjd8Ni45NzM4NQ==)">
    <text x="569.58" y="222.94" style="font-size: 9.96px; fill: #7FBE00; font-family: Liberation Sans;" textLength="19.92px" lengthAdjust="spacingAndGlyphs">PBA</text>
  </g>
  <polyline points="638.75,166.00 677.59,166.00 677.51,166.00 677.85,165.99 678.19,165.92 678.52,165.79 678.82,165.62 679.09,165.40 679.32,165.14 679.51,164.85 679.64,164.53 679.73,164.19 679.75,163.84 679.75,163.84 679.75,154.09 679.75,154.09 679.73,153.74 679.64,153.40 679.51,153.08 679.32,152.79 679.09,152.53 678.82,152.31 678.52,152.14 678.19,152.01 677.85,151.94 677.59,151.93 638.75,151.93 639.01,151.94 638.66,151.93 638.32,151.97 637.98,152.07 637.67,152.22 637.38,152.42 637.13,152.66 636.92,152.93 636.76,153.24 636.65,153.57 636.60,153.91 636.59,154.09 636.59,163.84 636.60,163.67 636.60,164.02 636.65,164.36 636.76,164.69 636.92,165.00 637.13,165.28 637.38,165.52 637.67,165.71 637.98,165.86 638.32,165.96 638.66,166.00 " style="stroke-width: 0.53; stroke: #E8EF04; fill: #FFFFFF;" clip-path="url(#cpNi45NzM4NXw3MTMuMDI2fDI4MS4yMjd8Ni45NzM4NQ==)"/>
  <g clip-path="url(#cpNi45NzM4NXw3MTMuMDI2fDI4MS4yMjd8Ni45NzM4NQ==)">
    <text x="640.19" y="162.40" style="font-size: 9.96px; fill: #E8EF04; font-family: Liberation Sans;" textLength="35.96px" lengthAdjust="spacingAndGlyphs">scEpath</text>
  </g>
  <polyline points="546.76,204.81 578.39,204.81 578.31,204.81 578.65,204.79 578.99,204.73 579.32,204.60 579.62,204.43 579.89,204.21 580.12,203.95 580.31,203.65 580.44,203.33 580.52,203.00 580.55,202.65 580.55,202.65 580.55,192.90 580.55,192.90 580.52,192.55 580.44,192.21 580.31,191.89 580.12,191.60 579.89,191.34 579.62,191.12 579.32,190.94 578.99,190.82 578.65,190.75 578.39,190.74 546.76,190.74 547.02,190.75 546.67,190.74 546.32,190.78 545.99,190.88 545.68,191.02 545.39,191.22 545.14,191.46 544.93,191.74 544.77,192.05 544.66,192.38 544.60,192.72 544.60,192.90 544.60,202.65 544.60,202.48 544.60,202.82 544.66,203.17 544.77,203.50 544.93,203.81 545.14,204.08 545.39,204.32 545.68,204.52 545.99,204.67 546.32,204.77 546.67,204.81 " style="stroke-width: 0.53; stroke: #003D76; fill: #FFFFFF;" clip-path="url(#cpNi45NzM4NXw3MTMuMDI2fDI4MS4yMjd8Ni45NzM4NQ==)"/>
  <g clip-path="url(#cpNi45NzM4NXw3MTMuMDI2fDI4MS4yMjd8Ni45NzM4NQ==)">
    <text x="548.20" y="201.21" style="font-size: 9.96px; fill: #003D76; font-family: Liberation Sans;" textLength="28.76px" lengthAdjust="spacingAndGlyphs">reCAT</text>
  </g>
  <polyline points="511.85,47.78 551.23,47.78 551.14,47.78 551.49,47.77 551.83,47.70 552.15,47.57 552.45,47.40 552.72,47.18 552.95,46.92 553.14,46.63 553.27,46.31 553.36,45.97 553.39,45.62 553.39,45.62 553.39,35.87 553.39,35.87 553.36,35.52 553.27,35.18 553.14,34.86 552.95,34.57 552.72,34.31 552.45,34.09 552.15,33.92 551.83,33.79 551.49,33.72 551.23,33.71 511.85,33.71 512.11,33.72 511.76,33.71 511.42,33.75 511.08,33.85 510.77,34.00 510.48,34.19 510.23,34.44 510.02,34.71 509.86,35.02 509.75,35.35 509.69,35.69 509.69,35.87 509.69,45.62 509.69,45.45 509.69,45.80 509.75,46.14 509.86,46.47 510.02,46.78 510.23,47.06 510.48,47.30 510.77,47.49 511.08,47.64 511.42,47.74 511.76,47.78 " style="stroke-width: 0.53; stroke: #E8EF04; fill: #FFFFFF;" clip-path="url(#cpNi45NzM4NXw3MTMuMDI2fDI4MS4yMjd8Ni45NzM4NQ==)"/>
  <g clip-path="url(#cpNi45NzM4NXw3MTMuMDI2fDI4MS4yMjd8Ni45NzM4NQ==)">
    <text x="513.29" y="44.18" style="font-size: 9.96px; fill: #E8EF04; font-family: Liberation Sans;" textLength="36.50px" lengthAdjust="spacingAndGlyphs">SOMSC</text>
  </g>
  <polyline points="448.26,81.19 484.87,81.19 484.78,81.19 485.13,81.18 485.47,81.11 485.80,80.98 486.10,80.81 486.37,80.59 486.60,80.33 486.78,80.04 486.92,79.72 487.00,79.38 487.03,79.03 487.03,79.03 487.03,69.28 487.03,69.28 487.00,68.93 486.92,68.59 486.78,68.27 486.60,67.98 486.37,67.72 486.10,67.50 485.80,67.33 485.47,67.20 485.13,67.13 484.87,67.12 448.26,67.12 448.52,67.13 448.17,67.12 447.83,67.16 447.49,67.26 447.18,67.41 446.89,67.60 446.64,67.84 446.43,68.12 446.27,68.43 446.16,68.76 446.10,69.10 446.10,69.28 446.10,79.03 446.10,78.86 446.10,79.21 446.16,79.55 446.27,79.88 446.43,80.19 446.64,80.46 446.89,80.71 447.18,80.90 447.49,81.05 447.83,81.15 448.17,81.19 " style="stroke-width: 0.53; stroke: #0278DD; fill: #FFFFFF;" clip-path="url(#cpNi45NzM4NXw3MTMuMDI2fDI4MS4yMjd8Ni45NzM4NQ==)"/>
  <g clip-path="url(#cpNi45NzM4NXw3MTMuMDI2fDI4MS4yMjd8Ni45NzM4NQ==)">
    <text x="449.70" y="77.59" style="font-size: 9.96px; fill: #0278DD; font-family: Liberation Sans;" textLength="33.73px" lengthAdjust="spacingAndGlyphs">SCENT</text>
  </g>
  <polyline points="508.54,24.65 544.60,24.65 544.52,24.65 544.86,24.63 545.20,24.56 545.53,24.44 545.83,24.27 546.10,24.05 546.33,23.79 546.51,23.49 546.65,23.17 546.73,22.84 546.76,22.49 546.76,22.49 546.76,12.73 546.76,12.73 546.73,12.39 546.65,12.05 546.51,11.73 546.33,11.44 546.10,11.18 545.83,10.96 545.53,10.78 545.20,10.66 544.86,10.59 544.60,10.57 508.54,10.57 508.80,10.59 508.45,10.58 508.11,10.62 507.77,10.71 507.46,10.86 507.17,11.06 506.92,11.30 506.71,11.58 506.55,11.89 506.44,12.22 506.39,12.56 506.38,12.73 506.38,22.49 506.39,22.32 506.39,22.66 506.44,23.01 506.55,23.34 506.71,23.64 506.92,23.92 507.17,24.16 507.46,24.36 507.77,24.51 508.11,24.61 508.45,24.65 " style="stroke-width: 0.53; stroke: #E8EF04; fill: #FFFFFF;" clip-path="url(#cpNi45NzM4NXw3MTMuMDI2fDI4MS4yMjd8Ni45NzM4NQ==)"/>
  <g clip-path="url(#cpNi45NzM4NXw3MTMuMDI2fDI4MS4yMjd8Ni45NzM4NQ==)">
    <text x="509.98" y="21.05" style="font-size: 9.96px; fill: #E8EF04; font-family: Liberation Sans;" textLength="33.18px" lengthAdjust="spacingAndGlyphs">PHATE</text>
  </g>
  <polyline points="239.69,277.35 271.32,277.35 271.24,277.35 271.58,277.34 271.92,277.27 272.25,277.15 272.55,276.97 272.82,276.75 273.05,276.49 273.24,276.20 273.37,275.88 273.46,275.54 273.48,275.19 273.48,275.19 273.48,265.44 273.48,265.44 273.46,265.09 273.37,264.75 273.24,264.44 273.05,264.14 272.82,263.88 272.55,263.66 272.25,263.49 271.92,263.36 271.58,263.29 271.32,263.28 239.69,263.28 239.95,263.29 239.60,263.28 239.26,263.32 238.92,263.42 238.61,263.57 238.32,263.77 238.07,264.01 237.86,264.28 237.70,264.59 237.59,264.92 237.53,265.27 237.53,265.44 237.53,275.19 237.53,275.02 237.53,275.37 237.59,275.71 237.70,276.04 237.86,276.35 238.07,276.63 238.32,276.87 238.61,277.06 238.92,277.21 239.26,277.31 239.60,277.35 " style="stroke-width: 0.53; stroke: #0278DD; fill: #FFFFFF;" clip-path="url(#cpNi45NzM4NXw3MTMuMDI2fDI4MS4yMjd8Ni45NzM4NQ==)"/>
  <g clip-path="url(#cpNi45NzM4NXw3MTMuMDI2fDI4MS4yMjd8Ni45NzM4NQ==)">
    <text x="241.13" y="273.75" style="font-size: 9.96px; fill: #0278DD; font-family: Liberation Sans;" textLength="28.76px" lengthAdjust="spacingAndGlyphs">NBOR</text>
  </g>
  <polyline points="362.72,66.04 401.56,66.04 401.47,66.04 401.82,66.03 402.16,65.96 402.48,65.83 402.78,65.66 403.05,65.44 403.28,65.18 403.47,64.89 403.61,64.57 403.69,64.23 403.72,63.88 403.72,63.88 403.72,54.13 403.72,54.13 403.69,53.78 403.61,53.44 403.47,53.12 403.28,52.83 403.05,52.57 402.78,52.35 402.48,52.18 402.16,52.05 401.82,51.98 401.56,51.97 362.72,51.97 362.98,51.98 362.64,51.97 362.29,52.01 361.96,52.11 361.64,52.26 361.36,52.45 361.11,52.69 360.90,52.97 360.74,53.28 360.63,53.61 360.57,53.95 360.56,54.13 360.56,63.88 360.57,63.71 360.57,64.06 360.63,64.40 360.74,64.73 360.90,65.04 361.11,65.31 361.36,65.55 361.64,65.75 361.96,65.90 362.29,66.00 362.64,66.04 " style="stroke-width: 0.53; stroke: #FF4237; fill: #FFFFFF;" clip-path="url(#cpNi45NzM4NXw3MTMuMDI2fDI4MS4yMjd8Ni45NzM4NQ==)"/>
  <g clip-path="url(#cpNi45NzM4NXw3MTMuMDI2fDI4MS4yMjd8Ni45NzM4NQ==)">
    <text x="364.16" y="62.44" style="font-size: 9.96px; fill: #FF4237; font-family: Liberation Sans;" textLength="35.95px" lengthAdjust="spacingAndGlyphs">SLICER</text>
  </g>
  <polyline points="345.50,183.49 368.29,183.49 368.20,183.49 368.55,183.48 368.89,183.41 369.22,183.28 369.52,183.11 369.79,182.89 370.02,182.63 370.20,182.34 370.34,182.02 370.42,181.68 370.45,181.33 370.45,181.33 370.45,171.58 370.45,171.58 370.42,171.23 370.34,170.89 370.20,170.57 370.02,170.28 369.79,170.02 369.52,169.80 369.22,169.63 368.89,169.50 368.55,169.43 368.29,169.42 345.50,169.42 345.76,169.43 345.42,169.42 345.07,169.46 344.74,169.56 344.42,169.71 344.14,169.91 343.89,170.15 343.68,170.42 343.52,170.73 343.41,171.06 343.35,171.40 343.34,171.58 343.34,181.33 343.35,181.16 343.35,181.51 343.41,181.85 343.52,182.18 343.68,182.49 343.89,182.77 344.14,183.01 344.42,183.20 344.74,183.35 345.07,183.45 345.42,183.49 " style="stroke-width: 0.53; stroke: #3AD1D1; fill: #FFFFFF;" clip-path="url(#cpNi45NzM4NXw3MTMuMDI2fDI4MS4yMjd8Ni45NzM4NQ==)"/>
  <g clip-path="url(#cpNi45NzM4NXw3MTMuMDI2fDI4MS4yMjd8Ni45NzM4NQ==)">
    <text x="346.94" y="179.89" style="font-size: 9.96px; fill: #3AD1D1; font-family: Liberation Sans;" textLength="19.91px" lengthAdjust="spacingAndGlyphs">DPT</text>
  </g>
  <polyline points="550.45,24.65 593.73,24.65 593.65,24.65 593.99,24.63 594.33,24.56 594.66,24.44 594.96,24.27 595.23,24.05 595.46,23.79 595.65,23.49 595.78,23.17 595.87,22.84 595.89,22.49 595.89,22.49 595.89,12.73 595.89,12.73 595.87,12.39 595.78,12.05 595.65,11.73 595.46,11.44 595.23,11.18 594.96,10.96 594.66,10.78 594.33,10.66 593.99,10.59 593.73,10.57 550.45,10.57 550.71,10.59 550.37,10.58 550.02,10.62 549.69,10.71 549.37,10.86 549.09,11.06 548.84,11.30 548.63,11.58 548.47,11.89 548.36,12.22 548.30,12.56 548.29,12.73 548.29,22.49 548.30,22.32 548.30,22.66 548.36,23.01 548.47,23.34 548.63,23.64 548.84,23.92 549.09,24.16 549.37,24.36 549.69,24.51 550.02,24.61 550.37,24.65 " style="stroke-width: 0.53; stroke: #0278DD; fill: #FFFFFF;" clip-path="url(#cpNi45NzM4NXw3MTMuMDI2fDI4MS4yMjd8Ni45NzM4NQ==)"/>
  <g clip-path="url(#cpNi45NzM4NXw3MTMuMDI2fDI4MS4yMjd8Ni45NzM4NQ==)">
    <text x="551.89" y="21.05" style="font-size: 9.96px; fill: #0278DD; font-family: Liberation Sans;" textLength="40.40px" lengthAdjust="spacingAndGlyphs">HopLand</text>
  </g>
  <polyline points="266.54,209.95 326.41,209.95 326.32,209.95 326.67,209.94 327.01,209.87 327.34,209.74 327.64,209.57 327.91,209.35 328.14,209.09 328.32,208.80 328.46,208.48 328.54,208.14 328.57,207.79 328.57,207.79 328.57,198.04 328.57,198.04 328.54,197.69 328.46,197.35 328.32,197.03 328.14,196.74 327.91,196.48 327.64,196.26 327.34,196.09 327.01,195.96 326.67,195.89 326.41,195.88 266.54,195.88 266.80,195.89 266.45,195.88 266.11,195.92 265.77,196.02 265.46,196.17 265.17,196.36 264.92,196.61 264.71,196.88 264.55,197.19 264.44,197.52 264.39,197.86 264.38,198.04 264.38,207.79 264.39,207.62 264.39,207.97 264.44,208.31 264.55,208.64 264.71,208.95 264.92,209.23 265.17,209.47 265.46,209.66 265.77,209.81 266.11,209.91 266.45,209.95 " style="stroke-width: 0.53; stroke: #0278DD; fill: #FFFFFF;" clip-path="url(#cpNi45NzM4NXw3MTMuMDI2fDI4MS4yMjd8Ni45NzM4NQ==)"/>
  <g clip-path="url(#cpNi45NzM4NXw3MTMuMDI2fDI4MS4yMjd8Ni45NzM4NQ==)">
    <text x="267.98" y="206.35" style="font-size: 9.96px; fill: #0278DD; font-family: Liberation Sans;" textLength="56.99px" lengthAdjust="spacingAndGlyphs">gpseudotime</text>
  </g>
  <polyline points="559.39,164.40 648.52,164.40 648.44,164.39 648.78,164.38 649.12,164.31 649.45,164.19 649.75,164.01 650.02,163.79 650.25,163.53 650.44,163.24 650.57,162.92 650.66,162.58 650.68,162.24 650.68,162.24 650.68,152.48 650.68,152.48 650.66,152.13 650.57,151.80 650.44,151.48 650.25,151.18 650.02,150.92 649.75,150.70 649.45,150.53 649.12,150.41 648.78,150.34 648.52,150.32 559.39,150.32 559.65,150.34 559.31,150.32 558.96,150.37 558.63,150.46 558.31,150.61 558.03,150.81 557.78,151.05 557.57,151.33 557.41,151.63 557.30,151.96 557.24,152.31 557.23,152.48 557.23,162.24 557.24,162.06 557.24,162.41 557.30,162.75 557.41,163.08 557.57,163.39 557.78,163.67 558.03,163.91 558.31,164.11 558.63,164.26 558.96,164.35 559.31,164.39 " style="stroke-width: 0.53; stroke: #FF4237; fill: #FFFFFF;" clip-path="url(#cpNi45NzM4NXw3MTMuMDI2fDI4MS4yMjd8Ni45NzM4NQ==)"/>
  <g clip-path="url(#cpNi45NzM4NXw3MTMuMDI2fDI4MS4yMjd8Ni45NzM4NQ==)">
    <text x="560.83" y="160.80" style="font-size: 9.96px; fill: #FF4237; font-family: Liberation Sans;" textLength="86.25px" lengthAdjust="spacingAndGlyphs">WADDINGTON-OT</text>
  </g>
  <polyline points="459.54,200.58 511.66,200.58 511.57,200.58 511.92,200.57 512.26,200.50 512.58,200.38 512.89,200.20 513.15,199.98 513.39,199.72 513.57,199.43 513.71,199.11 513.79,198.77 513.82,198.42 513.82,198.42 513.82,188.67 513.82,188.67 513.79,188.32 513.71,187.99 513.57,187.67 513.39,187.37 513.15,187.11 512.89,186.89 512.58,186.72 512.26,186.59 511.92,186.53 511.66,186.51 459.54,186.51 459.80,186.53 459.46,186.51 459.11,186.55 458.78,186.65 458.46,186.80 458.18,187.00 457.93,187.24 457.72,187.52 457.56,187.82 457.45,188.15 457.39,188.50 457.38,188.67 457.38,198.42 457.39,198.25 457.39,198.60 457.45,198.94 457.56,199.27 457.72,199.58 457.93,199.86 458.18,200.10 458.46,200.30 458.78,200.44 459.11,200.54 459.46,200.58 " style="stroke-width: 0.53; stroke: #E8EF04; fill: #FFFFFF;" clip-path="url(#cpNi45NzM4NXw3MTMuMDI2fDI4MS4yMjd8Ni45NzM4NQ==)"/>
  <g clip-path="url(#cpNi45NzM4NXw3MTMuMDI2fDI4MS4yMjd8Ni45NzM4NQ==)">
    <text x="460.98" y="196.98" style="font-size: 9.96px; fill: #E8EF04; font-family: Liberation Sans;" textLength="49.24px" lengthAdjust="spacingAndGlyphs">k-branches</text>
  </g>
  <polyline points="429.61,146.37 484.48,146.37 484.39,146.37 484.74,146.36 485.08,146.29 485.40,146.17 485.71,145.99 485.98,145.77 486.21,145.51 486.39,145.22 486.53,144.90 486.61,144.56 486.64,144.21 486.64,144.21 486.64,134.46 486.64,134.46 486.61,134.11 486.53,133.77 486.39,133.46 486.21,133.16 485.98,132.90 485.71,132.68 485.40,132.51 485.08,132.38 484.74,132.31 484.48,132.30 429.61,132.30 429.87,132.31 429.53,132.30 429.18,132.34 428.85,132.44 428.53,132.59 428.25,132.79 428.00,133.03 427.79,133.30 427.62,133.61 427.51,133.94 427.46,134.29 427.45,134.46 427.45,144.21 427.46,144.04 427.46,144.39 427.51,144.73 427.62,145.06 427.79,145.37 428.00,145.65 428.25,145.89 428.53,146.08 428.85,146.23 429.18,146.33 429.53,146.37 " style="stroke-width: 0.53; stroke: #0278DD; fill: #FFFFFF;" clip-path="url(#cpNi45NzM4NXw3MTMuMDI2fDI4MS4yMjd8Ni45NzM4NQ==)"/>
  <g clip-path="url(#cpNi45NzM4NXw3MTMuMDI2fDI4MS4yMjd8Ni45NzM4NQ==)">
    <text x="431.05" y="142.77" style="font-size: 9.96px; fill: #0278DD; font-family: Liberation Sans;" textLength="51.99px" lengthAdjust="spacingAndGlyphs">SCORPIUS</text>
  </g>
  <polyline points="515.03,68.26 547.22,68.26 547.13,68.25 547.48,68.24 547.82,68.17 548.14,68.05 548.44,67.87 548.71,67.65 548.94,67.39 549.13,67.10 549.27,66.78 549.35,66.44 549.38,66.10 549.38,66.10 549.38,56.34 549.38,56.34 549.35,55.99 549.27,55.66 549.13,55.34 548.94,55.04 548.71,54.78 548.44,54.56 548.14,54.39 547.82,54.27 547.48,54.20 547.22,54.18 515.03,54.18 515.29,54.20 514.94,54.18 514.60,54.22 514.26,54.32 513.95,54.47 513.66,54.67 513.41,54.91 513.20,55.19 513.04,55.49 512.93,55.82 512.87,56.17 512.87,56.34 512.87,66.10 512.87,65.92 512.87,66.27 512.93,66.61 513.04,66.94 513.20,67.25 513.41,67.53 513.66,67.77 513.95,67.97 514.26,68.12 514.60,68.21 514.94,68.25 " style="stroke-width: 0.53; stroke: #E8EF04; fill: #FFFFFF;" clip-path="url(#cpNi45NzM4NXw3MTMuMDI2fDI4MS4yMjd8Ni45NzM4NQ==)"/>
  <g clip-path="url(#cpNi45NzM4NXw3MTMuMDI2fDI4MS4yMjd8Ni45NzM4NQ==)">
    <text x="516.47" y="64.66" style="font-size: 9.96px; fill: #E8EF04; font-family: Liberation Sans;" textLength="29.31px" lengthAdjust="spacingAndGlyphs">TASIC</text>
  </g>
  <polyline points="372.95,146.12 399.61,146.12 399.52,146.12 399.87,146.10 400.21,146.03 400.54,145.91 400.84,145.74 401.11,145.52 401.34,145.26 401.52,144.96 401.66,144.64 401.74,144.31 401.77,143.96 401.77,143.96 401.77,134.20 401.77,134.20 401.74,133.86 401.66,133.52 401.52,133.20 401.34,132.91 401.11,132.65 400.84,132.43 400.54,132.25 400.21,132.13 399.87,132.06 399.61,132.04 372.95,132.04 373.21,132.06 372.86,132.05 372.51,132.09 372.18,132.18 371.87,132.33 371.58,132.53 371.33,132.77 371.12,133.05 370.96,133.36 370.85,133.69 370.79,134.03 370.79,134.20 370.79,143.96 370.79,143.79 370.79,144.13 370.85,144.48 370.96,144.81 371.12,145.11 371.33,145.39 371.58,145.63 371.87,145.83 372.18,145.98 372.51,146.08 372.86,146.12 " style="stroke-width: 0.53; stroke: #0278DD; fill: #FFFFFF;" clip-path="url(#cpNi45NzM4NXw3MTMuMDI2fDI4MS4yMjd8Ni45NzM4NQ==)"/>
  <g clip-path="url(#cpNi45NzM4NXw3MTMuMDI2fDI4MS4yMjd8Ni45NzM4NQ==)">
    <text x="374.39" y="142.52" style="font-size: 9.96px; fill: #0278DD; font-family: Liberation Sans;" textLength="23.78px" lengthAdjust="spacingAndGlyphs">SCell</text>
  </g>
  <polyline points="357.18,253.72 403.79,253.72 403.70,253.71 404.05,253.70 404.39,253.63 404.71,253.51 405.01,253.33 405.28,253.11 405.51,252.85 405.70,252.56 405.84,252.24 405.92,251.90 405.95,251.56 405.95,251.56 405.95,241.80 405.95,241.80 405.92,241.46 405.84,241.12 405.70,240.80 405.51,240.50 405.28,240.24 405.01,240.02 404.71,239.85 404.39,239.73 404.05,239.66 403.79,239.64 357.18,239.64 357.44,239.66 357.10,239.64 356.75,239.69 356.42,239.78 356.10,239.93 355.82,240.13 355.57,240.37 355.36,240.65 355.20,240.95 355.09,241.28 355.03,241.63 355.02,241.80 355.02,251.56 355.03,251.38 355.03,251.73 355.09,252.07 355.20,252.40 355.36,252.71 355.57,252.99 355.82,253.23 356.10,253.43 356.42,253.58 356.75,253.67 357.10,253.71 " style="stroke-width: 0.53; stroke: #0278DD; fill: #FFFFFF;" clip-path="url(#cpNi45NzM4NXw3MTMuMDI2fDI4MS4yMjd8Ni45NzM4NQ==)"/>
  <g clip-path="url(#cpNi45NzM4NXw3MTMuMDI2fDI4MS4yMjd8Ni45NzM4NQ==)">
    <text x="358.62" y="250.12" style="font-size: 9.96px; fill: #0278DD; font-family: Liberation Sans;" textLength="43.72px" lengthAdjust="spacingAndGlyphs">pseudogp</text>
  </g>
  <polyline points="430.59,253.04 481.02,253.04 480.93,253.04 481.28,253.02 481.62,252.95 481.95,252.83 482.25,252.66 482.52,252.44 482.75,252.18 482.93,251.88 483.07,251.56 483.15,251.22 483.18,250.88 483.18,250.88 483.18,241.12 483.18,241.12 483.15,240.78 483.07,240.44 482.93,240.12 482.75,239.82 482.52,239.56 482.25,239.34 481.95,239.17 481.62,239.05 481.28,238.98 481.02,238.96 430.59,238.96 430.85,238.98 430.50,238.96 430.15,239.01 429.82,239.10 429.51,239.25 429.22,239.45 428.97,239.69 428.76,239.97 428.60,240.28 428.49,240.61 428.43,240.95 428.43,241.12 428.43,250.88 428.43,250.70 428.43,251.05 428.49,251.39 428.60,251.72 428.76,252.03 428.97,252.31 429.22,252.55 429.51,252.75 429.82,252.90 430.15,252.99 430.50,253.04 " style="stroke-width: 0.53; stroke: #0278DD; fill: #FFFFFF;" clip-path="url(#cpNi45NzM4NXw3MTMuMDI2fDI4MS4yMjd8Ni45NzM4NQ==)"/>
  <g clip-path="url(#cpNi45NzM4NXw3MTMuMDI2fDI4MS4yMjd8Ni45NzM4NQ==)">
    <text x="432.03" y="249.44" style="font-size: 9.96px; fill: #0278DD; font-family: Liberation Sans;" textLength="47.55px" lengthAdjust="spacingAndGlyphs">SCIMITAR</text>
  </g>
  <polyline points="387.40,24.65 433.99,24.65 433.91,24.65 434.25,24.63 434.59,24.56 434.92,24.44 435.22,24.27 435.49,24.05 435.72,23.79 435.91,23.49 436.04,23.17 436.12,22.84 436.15,22.49 436.15,22.49 436.15,12.73 436.15,12.73 436.12,12.39 436.04,12.05 435.91,11.73 435.72,11.44 435.49,11.18 435.22,10.96 434.92,10.78 434.59,10.66 434.25,10.59 433.99,10.57 387.40,10.57 387.66,10.59 387.31,10.58 386.97,10.62 386.63,10.71 386.32,10.86 386.03,11.06 385.78,11.30 385.57,11.58 385.41,11.89 385.30,12.22 385.24,12.56 385.24,12.73 385.24,22.49 385.24,22.32 385.24,22.66 385.30,23.01 385.41,23.34 385.57,23.64 385.78,23.92 386.03,24.16 386.32,24.36 386.63,24.51 386.97,24.61 387.31,24.65 " style="stroke-width: 0.53; stroke: #0278DD; fill: #FFFFFF;" clip-path="url(#cpNi45NzM4NXw3MTMuMDI2fDI4MS4yMjd8Ni45NzM4NQ==)"/>
  <g clip-path="url(#cpNi45NzM4NXw3MTMuMDI2fDI4MS4yMjd8Ni45NzM4NQ==)">
    <text x="388.84" y="21.05" style="font-size: 9.96px; fill: #0278DD; font-family: Liberation Sans;" textLength="43.72px" lengthAdjust="spacingAndGlyphs">DeLorean</text>
  </g>
  <polyline points="59.22,249.07 112.44,249.07 112.35,249.07 112.70,249.05 113.04,248.99 113.37,248.86 113.67,248.69 113.94,248.47 114.17,248.21 114.35,247.91 114.49,247.59 114.57,247.26 114.60,246.91 114.60,246.91 114.60,237.16 114.60,237.16 114.57,236.81 114.49,236.47 114.35,236.15 114.17,235.86 113.94,235.60 113.67,235.38 113.37,235.20 113.04,235.08 112.70,235.01 112.44,235.00 59.22,235.00 59.48,235.01 59.13,235.00 58.79,235.04 58.46,235.14 58.14,235.28 57.86,235.48 57.60,235.72 57.40,236.00 57.23,236.31 57.12,236.64 57.07,236.98 57.06,237.16 57.06,246.91 57.07,246.74 57.07,247.08 57.12,247.43 57.23,247.76 57.40,248.06 57.60,248.34 57.86,248.58 58.14,248.78 58.46,248.93 58.79,249.03 59.13,249.07 " style="stroke-width: 0.53; stroke: #0278DD; fill: #FFFFFF;" clip-path="url(#cpNi45NzM4NXw3MTMuMDI2fDI4MS4yMjd8Ni45NzM4NQ==)"/>
  <g clip-path="url(#cpNi45NzM4NXw3MTMuMDI2fDI4MS4yMjd8Ni45NzM4NQ==)">
    <text x="60.66" y="245.47" style="font-size: 9.96px; fill: #0278DD; font-family: Liberation Sans;" textLength="50.34px" lengthAdjust="spacingAndGlyphs">Wanderlust</text>
  </g>
  <polyline points="51.91,270.90 100.71,270.90 100.63,270.89 100.97,270.88 101.31,270.81 101.64,270.69 101.94,270.51 102.21,270.29 102.44,270.03 102.63,269.74 102.76,269.42 102.85,269.08 102.87,268.74 102.87,268.74 102.87,258.98 102.87,258.98 102.85,258.63 102.76,258.30 102.63,257.98 102.44,257.68 102.21,257.42 101.94,257.20 101.64,257.03 101.31,256.91 100.97,256.84 100.71,256.82 51.91,256.82 52.17,256.84 51.83,256.82 51.48,256.86 51.15,256.96 50.83,257.11 50.55,257.31 50.30,257.55 50.09,257.83 49.92,258.13 49.81,258.46 49.76,258.81 49.75,258.98 49.75,268.74 49.76,268.56 49.76,268.91 49.81,269.25 49.92,269.58 50.09,269.89 50.30,270.17 50.55,270.41 50.83,270.61 51.15,270.75 51.48,270.85 51.83,270.89 " style="stroke-width: 0.53; stroke: #E8EF04; fill: #FFFFFF;" clip-path="url(#cpNi45NzM4NXw3MTMuMDI2fDI4MS4yMjd8Ni45NzM4NQ==)"/>
  <g clip-path="url(#cpNi45NzM4NXw3MTMuMDI2fDI4MS4yMjd8Ni45NzM4NQ==)">
    <text x="53.35" y="267.30" style="font-size: 9.96px; fill: #E8EF04; font-family: Liberation Sans;" textLength="45.92px" lengthAdjust="spacingAndGlyphs">Monocle 1</text>
  </g>
  <polyline points="409.89,107.54 461.99,107.54 461.90,107.54 462.25,107.52 462.59,107.45 462.92,107.33 463.22,107.16 463.49,106.94 463.72,106.68 463.90,106.38 464.04,106.06 464.12,105.72 464.15,105.38 464.15,105.38 464.15,95.62 464.15,95.62 464.12,95.28 464.04,94.94 463.90,94.62 463.72,94.32 463.49,94.06 463.22,93.84 462.92,93.67 462.59,93.55 462.25,93.48 461.99,93.46 409.89,93.46 410.15,93.48 409.80,93.46 409.46,93.51 409.12,93.60 408.81,93.75 408.52,93.95 408.27,94.19 408.06,94.47 407.90,94.78 407.79,95.11 407.74,95.45 407.73,95.62 407.73,105.38 407.74,105.20 407.74,105.55 407.79,105.89 407.90,106.22 408.06,106.53 408.27,106.81 408.52,107.05 408.81,107.25 409.12,107.40 409.46,107.49 409.80,107.54 " style="stroke-width: 0.53; stroke: #0278DD; fill: #FFFFFF;" clip-path="url(#cpNi45NzM4NXw3MTMuMDI2fDI4MS4yMjd8Ni45NzM4NQ==)"/>
  <g clip-path="url(#cpNi45NzM4NXw3MTMuMDI2fDI4MS4yMjd8Ni45NzM4NQ==)">
    <text x="411.33" y="103.94" style="font-size: 9.96px; fill: #0278DD; font-family: Liberation Sans;" textLength="49.22px" lengthAdjust="spacingAndGlyphs">WaveCrest</text>
  </g>
  <polyline points="566.47,143.69 600.89,143.69 600.80,143.69 601.15,143.67 601.49,143.61 601.81,143.48 602.12,143.31 602.38,143.09 602.62,142.83 602.80,142.53 602.94,142.21 603.02,141.88 603.05,141.53 603.05,141.53 603.05,131.78 603.05,131.78 603.02,131.43 602.94,131.09 602.80,130.77 602.62,130.48 602.38,130.22 602.12,130.00 601.81,129.82 601.49,129.70 601.15,129.63 600.89,129.62 566.47,129.62 566.73,129.63 566.39,129.62 566.04,129.66 565.71,129.76 565.39,129.90 565.11,130.10 564.86,130.34 564.65,130.62 564.49,130.93 564.38,131.26 564.32,131.60 564.31,131.78 564.31,141.53 564.32,141.36 564.32,141.70 564.38,142.05 564.49,142.38 564.65,142.68 564.86,142.96 565.11,143.20 565.39,143.40 565.71,143.55 566.04,143.65 566.39,143.69 " style="stroke-width: 0.53; stroke: #3AD1D1; fill: #FFFFFF;" clip-path="url(#cpNi45NzM4NXw3MTMuMDI2fDI4MS4yMjd8Ni45NzM4NQ==)"/>
  <g clip-path="url(#cpNi45NzM4NXw3MTMuMDI2fDI4MS4yMjd8Ni45NzM4NQ==)">
    <text x="567.91" y="140.09" style="font-size: 9.96px; fill: #3AD1D1; font-family: Liberation Sans;" textLength="31.54px" lengthAdjust="spacingAndGlyphs">scanpy</text>
  </g>
  <polyline points="400.12,44.22 426.24,44.22 426.15,44.22 426.50,44.20 426.84,44.13 427.16,44.01 427.46,43.84 427.73,43.62 427.96,43.36 428.15,43.06 428.28,42.74 428.37,42.40 428.40,42.06 428.40,42.06 428.40,32.30 428.40,32.30 428.37,31.96 428.28,31.62 428.15,31.30 427.96,31.01 427.73,30.74 427.46,30.53 427.16,30.35 426.84,30.23 426.50,30.16 426.24,30.14 400.12,30.14 400.38,30.16 400.03,30.14 399.69,30.19 399.35,30.28 399.04,30.43 398.75,30.63 398.50,30.87 398.30,31.15 398.13,31.46 398.02,31.79 397.97,32.13 397.96,32.30 397.96,42.06 397.97,41.88 397.97,42.23 398.02,42.57 398.13,42.90 398.30,43.21 398.50,43.49 398.75,43.73 399.04,43.93 399.35,44.08 399.69,44.17 400.03,44.22 " style="stroke-width: 0.53; stroke: #0278DD; fill: #FFFFFF;" clip-path="url(#cpNi45NzM4NXw3MTMuMDI2fDI4MS4yMjd8Ni45NzM4NQ==)"/>
  <g clip-path="url(#cpNi45NzM4NXw3MTMuMDI2fDI4MS4yMjd8Ni45NzM4NQ==)">
    <text x="401.56" y="40.62" style="font-size: 9.96px; fill: #0278DD; font-family: Liberation Sans;" textLength="23.24px" lengthAdjust="spacingAndGlyphs">Ouija</text>
  </g>
  <polyline points="489.34,125.85 538.14,125.85 538.06,125.85 538.40,125.84 538.74,125.77 539.07,125.64 539.37,125.47 539.64,125.25 539.87,124.99 540.05,124.70 540.19,124.38 540.27,124.04 540.30,123.69 540.30,123.69 540.30,113.94 540.30,113.94 540.27,113.59 540.19,113.25 540.05,112.93 539.87,112.64 539.64,112.38 539.37,112.16 539.07,111.99 538.74,111.86 538.40,111.79 538.14,111.78 489.34,111.78 489.60,111.79 489.25,111.78 488.91,111.82 488.57,111.92 488.26,112.07 487.97,112.26 487.72,112.51 487.52,112.78 487.35,113.09 487.24,113.42 487.19,113.76 487.18,113.94 487.18,123.69 487.19,123.52 487.19,123.87 487.24,124.21 487.35,124.54 487.52,124.85 487.72,125.12 487.97,125.37 488.26,125.56 488.57,125.71 488.91,125.81 489.25,125.85 " style="stroke-width: 0.53; stroke: #E8EF04; fill: #FFFFFF;" clip-path="url(#cpNi45NzM4NXw3MTMuMDI2fDI4MS4yMjd8Ni45NzM4NQ==)"/>
  <g clip-path="url(#cpNi45NzM4NXw3MTMuMDI2fDI4MS4yMjd8Ni45NzM4NQ==)">
    <text x="490.78" y="122.25" style="font-size: 9.96px; fill: #E8EF04; font-family: Liberation Sans;" textLength="45.92px" lengthAdjust="spacingAndGlyphs">Monocle 2</text>
  </g>
  <polyline points="633.92,187.22 678.28,187.22 678.20,187.22 678.55,187.20 678.89,187.14 679.21,187.01 679.51,186.84 679.78,186.62 680.01,186.36 680.20,186.06 680.33,185.74 680.42,185.41 680.44,185.06 680.44,185.06 680.44,175.31 680.44,175.31 680.42,174.96 680.33,174.62 680.20,174.30 680.01,174.01 679.78,173.75 679.51,173.53 679.21,173.35 678.89,173.23 678.55,173.16 678.28,173.15 633.92,173.15 634.18,173.16 633.83,173.15 633.49,173.19 633.15,173.29 632.84,173.43 632.55,173.63 632.30,173.87 632.09,174.15 631.93,174.46 631.82,174.79 631.77,175.13 631.76,175.31 631.76,185.06 631.77,184.89 631.77,185.23 631.82,185.58 631.93,185.91 632.09,186.21 632.30,186.49 632.55,186.73 632.84,186.93 633.15,187.08 633.49,187.18 633.83,187.22 " style="stroke-width: 0.53; stroke: #FF4237; fill: #FFFFFF;" clip-path="url(#cpNi45NzM4NXw3MTMuMDI2fDI4MS4yMjd8Ni45NzM4NQ==)"/>
  <g clip-path="url(#cpNi45NzM4NXw3MTMuMDI2fDI4MS4yMjd8Ni45NzM4NQ==)">
    <text x="635.36" y="183.62" style="font-size: 9.96px; fill: #FF4237; font-family: Liberation Sans;" textLength="41.48px" lengthAdjust="spacingAndGlyphs">CALISTA</text>
  </g>
  <polyline points="615.73,144.29 645.16,144.29 645.07,144.29 645.42,144.27 645.76,144.20 646.09,144.08 646.39,143.91 646.66,143.69 646.89,143.43 647.07,143.13 647.21,142.81 647.29,142.47 647.32,142.13 647.32,142.13 647.32,132.37 647.32,132.37 647.29,132.03 647.21,131.69 647.07,131.37 646.89,131.08 646.66,130.82 646.39,130.60 646.09,130.42 645.76,130.30 645.42,130.23 645.16,130.21 615.73,130.21 615.99,130.23 615.64,130.21 615.30,130.26 614.96,130.35 614.65,130.50 614.36,130.70 614.11,130.94 613.90,131.22 613.74,131.53 613.63,131.86 613.58,132.20 613.57,132.37 613.57,142.13 613.58,141.95 613.58,142.30 613.63,142.64 613.74,142.97 613.90,143.28 614.11,143.56 614.36,143.80 614.65,144.00 614.96,144.15 615.30,144.24 615.64,144.29 " style="stroke-width: 0.53; stroke: #0278DD; fill: #FFFFFF;" clip-path="url(#cpNi45NzM4NXw3MTMuMDI2fDI4MS4yMjd8Ni45NzM4NQ==)"/>
  <g clip-path="url(#cpNi45NzM4NXw3MTMuMDI2fDI4MS4yMjd8Ni45NzM4NQ==)">
    <text x="617.17" y="140.69" style="font-size: 9.96px; fill: #0278DD; font-family: Liberation Sans;" textLength="26.55px" lengthAdjust="spacingAndGlyphs">iCpSc</text>
  </g>
  <polyline points="604.42,94.99 628.32,94.99 628.24,94.99 628.58,94.98 628.92,94.91 629.25,94.78 629.55,94.61 629.82,94.39 630.05,94.13 630.24,93.84 630.37,93.52 630.46,93.18 630.48,92.83 630.48,92.83 630.48,83.08 630.48,83.08 630.46,82.73 630.37,82.39 630.24,82.07 630.05,81.78 629.82,81.52 629.55,81.30 629.25,81.12 628.92,81.00 628.58,80.93 628.32,80.92 604.42,80.92 604.68,80.93 604.34,80.92 603.99,80.96 603.66,81.06 603.34,81.21 603.06,81.40 602.81,81.64 602.60,81.92 602.44,82.23 602.33,82.56 602.27,82.90 602.26,83.08 602.26,92.83 602.27,92.66 602.27,93.01 602.33,93.35 602.44,93.68 602.60,93.99 602.81,94.26 603.06,94.50 603.34,94.70 603.66,94.85 603.99,94.95 604.34,94.99 " style="stroke-width: 0.53; stroke: #CA0565; fill: #FFFFFF;" clip-path="url(#cpNi45NzM4NXw3MTMuMDI2fDI4MS4yMjd8Ni45NzM4NQ==)"/>
  <g clip-path="url(#cpNi45NzM4NXw3MTMuMDI2fDI4MS4yMjd8Ni45NzM4NQ==)">
    <text x="605.86" y="91.39" style="font-size: 9.96px; fill: #CA0565; font-family: Liberation Sans;" textLength="21.02px" lengthAdjust="spacingAndGlyphs">AGA</text>
  </g>
  <polyline points="559.30,67.44 596.48,67.44 596.39,67.44 596.74,67.42 597.08,67.35 597.40,67.23 597.70,67.05 597.97,66.83 598.20,66.57 598.39,66.28 598.53,65.96 598.61,65.62 598.64,65.28 598.64,65.28 598.64,55.52 598.64,55.52 598.61,55.18 598.53,54.84 598.39,54.52 598.20,54.22 597.97,53.96 597.70,53.74 597.40,53.57 597.08,53.45 596.74,53.38 596.48,53.36 559.30,53.36 559.56,53.38 559.21,53.36 558.86,53.41 558.53,53.50 558.22,53.65 557.93,53.85 557.68,54.09 557.47,54.37 557.31,54.68 557.20,55.01 557.14,55.35 557.14,55.52 557.14,65.28 557.14,65.10 557.14,65.45 557.20,65.79 557.31,66.12 557.47,66.43 557.68,66.71 557.93,66.95 558.22,67.15 558.53,67.30 558.86,67.39 559.21,67.44 " style="stroke-width: 0.53; stroke: #0278DD; fill: #FFFFFF;" clip-path="url(#cpNi45NzM4NXw3MTMuMDI2fDI4MS4yMjd8Ni45NzM4NQ==)"/>
  <g clip-path="url(#cpNi45NzM4NXw3MTMuMDI2fDI4MS4yMjd8Ni45NzM4NQ==)">
    <text x="560.74" y="63.84" style="font-size: 9.96px; fill: #0278DD; font-family: Liberation Sans;" textLength="34.30px" lengthAdjust="spacingAndGlyphs">SoptSC</text>
  </g>
  <polyline points="622.03,249.54 681.90,249.54 681.81,249.54 682.16,249.52 682.50,249.46 682.83,249.33 683.13,249.16 683.40,248.94 683.63,248.68 683.81,248.38 683.95,248.06 684.03,247.73 684.06,247.38 684.06,247.38 684.06,237.63 684.06,237.63 684.03,237.28 683.95,236.94 683.81,236.62 683.63,236.33 683.40,236.07 683.13,235.85 682.83,235.67 682.50,235.55 682.16,235.48 681.90,235.47 622.03,235.47 622.29,235.48 621.94,235.47 621.60,235.51 621.26,235.61 620.95,235.75 620.66,235.95 620.41,236.19 620.20,236.47 620.04,236.78 619.93,237.11 619.87,237.45 619.87,237.63 619.87,247.38 619.87,247.21 619.87,247.55 619.93,247.90 620.04,248.23 620.20,248.54 620.41,248.81 620.66,249.05 620.95,249.25 621.26,249.40 621.60,249.50 621.94,249.54 " style="stroke-width: 0.53; stroke: #E8EF04; fill: #FFFFFF;" clip-path="url(#cpNi45NzM4NXw3MTMuMDI2fDI4MS4yMjd8Ni45NzM4NQ==)"/>
  <g clip-path="url(#cpNi45NzM4NXw3MTMuMDI2fDI4MS4yMjd8Ni45NzM4NQ==)">
    <text x="623.47" y="245.94" style="font-size: 9.96px; fill: #E8EF04; font-family: Liberation Sans;" textLength="56.99px" lengthAdjust="spacingAndGlyphs">Topographer</text>
  </g>
  <polyline points="490.59,263.81 537.72,263.81 537.64,263.80 537.98,263.79 538.32,263.72 538.65,263.60 538.95,263.42 539.22,263.20 539.45,262.94 539.64,262.65 539.77,262.33 539.85,261.99 539.88,261.65 539.88,261.65 539.88,251.89 539.88,251.89 539.85,251.55 539.77,251.21 539.64,250.89 539.45,250.59 539.22,250.33 538.95,250.11 538.65,249.94 538.32,249.82 537.98,249.75 537.72,249.73 490.59,249.73 490.85,249.75 490.50,249.73 490.16,249.78 489.82,249.87 489.51,250.02 489.22,250.22 488.97,250.46 488.76,250.74 488.60,251.04 488.49,251.37 488.44,251.72 488.43,251.89 488.43,261.65 488.44,261.47 488.44,261.82 488.49,262.16 488.60,262.49 488.76,262.80 488.97,263.08 489.22,263.32 489.51,263.52 489.82,263.67 490.16,263.76 490.50,263.80 " style="stroke-width: 0.53; stroke: #E8EF04; fill: #FFFFFF;" clip-path="url(#cpNi45NzM4NXw3MTMuMDI2fDI4MS4yMjd8Ni45NzM4NQ==)"/>
  <g clip-path="url(#cpNi45NzM4NXw3MTMuMDI2fDI4MS4yMjd8Ni45NzM4NQ==)">
    <text x="492.03" y="260.21" style="font-size: 9.96px; fill: #E8EF04; font-family: Liberation Sans;" textLength="44.25px" lengthAdjust="spacingAndGlyphs">Granatum</text>
  </g>
  <polyline points="498.46,224.73 537.30,224.73 537.21,224.73 537.56,224.72 537.90,224.65 538.23,224.53 538.53,224.35 538.80,224.13 539.03,223.87 539.21,223.58 539.35,223.26 539.43,222.92 539.46,222.57 539.46,222.57 539.46,212.82 539.46,212.82 539.43,212.47 539.35,212.14 539.21,211.82 539.03,211.52 538.80,211.26 538.53,211.04 538.23,210.87 537.90,210.74 537.56,210.68 537.30,210.66 498.46,210.66 498.72,210.68 498.37,210.66 498.03,210.70 497.69,210.80 497.38,210.95 497.09,211.15 496.84,211.39 496.64,211.66 496.47,211.97 496.36,212.30 496.31,212.65 496.30,212.82 496.30,222.57 496.31,222.40 496.31,222.75 496.36,223.09 496.47,223.42 496.64,223.73 496.84,224.01 497.09,224.25 497.38,224.44 497.69,224.59 498.03,224.69 498.37,224.73 " style="stroke-width: 0.53; stroke: #7FBE00; fill: #FFFFFF;" clip-path="url(#cpNi45NzM4NXw3MTMuMDI2fDI4MS4yMjd8Ni45NzM4NQ==)"/>
  <g clip-path="url(#cpNi45NzM4NXw3MTMuMDI2fDI4MS4yMjd8Ni45NzM4NQ==)">
    <text x="499.90" y="221.13" style="font-size: 9.96px; fill: #7FBE00; font-family: Liberation Sans;" textLength="35.96px" lengthAdjust="spacingAndGlyphs">GPfates</text>
  </g>
  <polyline points="326.31,276.46 365.14,276.46 365.05,276.46 365.40,276.44 365.74,276.37 366.07,276.25 366.37,276.08 366.64,275.86 366.87,275.60 367.05,275.30 367.19,274.98 367.27,274.65 367.30,274.30 367.30,274.30 367.30,264.55 367.30,264.55 367.27,264.20 367.19,263.86 367.05,263.54 366.87,263.25 366.64,262.99 366.37,262.77 366.07,262.59 365.74,262.47 365.40,262.40 365.14,262.39 326.31,262.39 326.57,262.40 326.22,262.39 325.87,262.43 325.54,262.53 325.23,262.67 324.94,262.87 324.69,263.11 324.48,263.39 324.32,263.70 324.21,264.03 324.15,264.37 324.15,264.55 324.15,274.30 324.15,274.13 324.15,274.47 324.21,274.82 324.32,275.15 324.48,275.45 324.69,275.73 324.94,275.97 325.23,276.17 325.54,276.32 325.87,276.42 326.22,276.46 " style="stroke-width: 0.53; stroke: #E8EF04; fill: #FFFFFF;" clip-path="url(#cpNi45NzM4NXw3MTMuMDI2fDI4MS4yMjd8Ni45NzM4NQ==)"/>
  <g clip-path="url(#cpNi45NzM4NXw3MTMuMDI2fDI4MS4yMjd8Ni45NzM4NQ==)">
    <text x="327.75" y="272.86" style="font-size: 9.96px; fill: #E8EF04; font-family: Liberation Sans;" textLength="35.95px" lengthAdjust="spacingAndGlyphs">ECLAIR</text>
  </g>
  <polyline points="387.83,87.02 426.11,87.02 426.02,87.02 426.37,87.01 426.71,86.94 427.03,86.81 427.34,86.64 427.60,86.42 427.84,86.16 428.02,85.87 428.16,85.55 428.24,85.21 428.27,84.86 428.27,84.86 428.27,75.11 428.27,75.11 428.24,74.76 428.16,74.42 428.02,74.10 427.84,73.81 427.60,73.55 427.34,73.33 427.03,73.16 426.71,73.03 426.37,72.96 426.11,72.95 387.83,72.95 388.09,72.96 387.75,72.95 387.40,72.99 387.07,73.09 386.75,73.24 386.47,73.43 386.22,73.67 386.01,73.95 385.85,74.26 385.74,74.59 385.68,74.93 385.67,75.11 385.67,84.86 385.68,84.69 385.68,85.04 385.74,85.38 385.85,85.71 386.01,86.02 386.22,86.29 386.47,86.53 386.75,86.73 387.07,86.88 387.40,86.98 387.75,87.02 " style="stroke-width: 0.53; stroke: #7FBE00; fill: #FFFFFF;" clip-path="url(#cpNi45NzM4NXw3MTMuMDI2fDI4MS4yMjd8Ni45NzM4NQ==)"/>
  <g clip-path="url(#cpNi45NzM4NXw3MTMuMDI2fDI4MS4yMjd8Ni45NzM4NQ==)">
    <text x="389.27" y="83.42" style="font-size: 9.96px; fill: #7FBE00; font-family: Liberation Sans;" textLength="35.39px" lengthAdjust="spacingAndGlyphs">SCOUP</text>
  </g>
  <polyline points="538.60,42.19 590.69,42.19 590.60,42.19 590.95,42.18 591.29,42.11 591.62,41.98 591.92,41.81 592.19,41.59 592.42,41.33 592.60,41.04 592.74,40.72 592.82,40.38 592.85,40.03 592.85,40.03 592.85,30.28 592.85,30.28 592.82,29.93 592.74,29.59 592.60,29.27 592.42,28.98 592.19,28.72 591.92,28.50 591.62,28.33 591.29,28.20 590.95,28.13 590.69,28.12 538.60,28.12 538.86,28.13 538.51,28.12 538.17,28.16 537.83,28.26 537.52,28.41 537.23,28.61 536.98,28.85 536.77,29.12 536.61,29.43 536.50,29.76 536.45,30.10 536.44,30.28 536.44,40.03 536.45,39.86 536.45,40.21 536.50,40.55 536.61,40.88 536.77,41.19 536.98,41.47 537.23,41.71 537.52,41.90 537.83,42.05 538.17,42.15 538.51,42.19 " style="stroke-width: 0.53; stroke: #0278DD; fill: #FFFFFF;" clip-path="url(#cpNi45NzM4NXw3MTMuMDI2fDI4MS4yMjd8Ni45NzM4NQ==)"/>
  <g clip-path="url(#cpNi45NzM4NXw3MTMuMDI2fDI4MS4yMjd8Ni45NzM4NQ==)">
    <text x="540.04" y="38.59" style="font-size: 9.96px; fill: #0278DD; font-family: Liberation Sans;" textLength="49.21px" lengthAdjust="spacingAndGlyphs">MATCHER</text>
  </g>
  <polyline points="583.81,206.64 651.42,206.64 651.34,206.64 651.68,206.63 652.02,206.56 652.35,206.44 652.65,206.26 652.92,206.04 653.15,205.78 653.34,205.49 653.47,205.17 653.55,204.83 653.58,204.48 653.58,204.48 653.58,194.73 653.58,194.73 653.55,194.38 653.47,194.05 653.34,193.73 653.15,193.43 652.92,193.17 652.65,192.95 652.35,192.78 652.02,192.65 651.68,192.59 651.42,192.57 583.81,192.57 584.07,192.59 583.72,192.57 583.38,192.61 583.04,192.71 582.73,192.86 582.44,193.06 582.19,193.30 581.98,193.58 581.82,193.88 581.71,194.21 581.66,194.56 581.65,194.73 581.65,204.48 581.66,204.31 581.66,204.66 581.71,205.00 581.82,205.33 581.98,205.64 582.19,205.92 582.44,206.16 582.73,206.36 583.04,206.50 583.38,206.60 583.72,206.64 " style="stroke-width: 0.53; stroke: #0278DD; fill: #FFFFFF;" clip-path="url(#cpNi45NzM4NXw3MTMuMDI2fDI4MS4yMjd8Ni45NzM4NQ==)"/>
  <g clip-path="url(#cpNi45NzM4NXw3MTMuMDI2fDI4MS4yMjd8Ni45NzM4NQ==)">
    <text x="585.25" y="203.04" style="font-size: 9.96px; fill: #0278DD; font-family: Liberation Sans;" textLength="64.73px" lengthAdjust="spacingAndGlyphs">GPseudoRank</text>
  </g>
  <polyline points="568.42,185.41 592.32,185.41 592.23,185.41 592.58,185.40 592.92,185.33 593.25,185.20 593.55,185.03 593.82,184.81 594.05,184.55 594.23,184.25 594.37,183.93 594.45,183.60 594.48,183.25 594.48,183.25 594.48,173.50 594.48,173.50 594.45,173.15 594.37,172.81 594.23,172.49 594.05,172.20 593.82,171.94 593.55,171.72 593.25,171.54 592.92,171.42 592.58,171.35 592.32,171.34 568.42,171.34 568.68,171.35 568.33,171.34 567.99,171.38 567.65,171.48 567.34,171.63 567.05,171.82 566.80,172.06 566.59,172.34 566.43,172.65 566.32,172.98 566.27,173.32 566.26,173.50 566.26,183.25 566.27,183.08 566.27,183.42 566.32,183.77 566.43,184.10 566.59,184.41 566.80,184.68 567.05,184.92 567.34,185.12 567.65,185.27 567.99,185.37 568.33,185.41 " style="stroke-width: 0.53; stroke: #3AD1D1; fill: #FFFFFF;" clip-path="url(#cpNi45NzM4NXw3MTMuMDI2fDI4MS4yMjd8Ni45NzM4NQ==)"/>
  <g clip-path="url(#cpNi45NzM4NXw3MTMuMDI2fDI4MS4yMjd8Ni45NzM4NQ==)">
    <text x="569.86" y="181.81" style="font-size: 9.96px; fill: #3AD1D1; font-family: Liberation Sans;" textLength="21.02px" lengthAdjust="spacingAndGlyphs">BGP</text>
  </g>
  <polyline points="394.32,167.40 430.38,167.40 430.30,167.40 430.64,167.39 430.98,167.32 431.31,167.19 431.61,167.02 431.88,166.80 432.11,166.54 432.30,166.25 432.43,165.93 432.51,165.59 432.54,165.24 432.54,165.24 432.54,155.49 432.54,155.49 432.51,155.14 432.43,154.80 432.30,154.48 432.11,154.19 431.88,153.93 431.61,153.71 431.31,153.54 430.98,153.41 430.64,153.34 430.38,153.33 394.32,153.33 394.58,153.34 394.23,153.33 393.89,153.37 393.55,153.47 393.24,153.62 392.95,153.81 392.70,154.05 392.49,154.33 392.33,154.64 392.22,154.97 392.17,155.31 392.16,155.49 392.16,165.24 392.17,165.07 392.17,165.42 392.22,165.76 392.33,166.09 392.49,166.40 392.70,166.67 392.95,166.92 393.24,167.11 393.55,167.26 393.89,167.36 394.23,167.40 " style="stroke-width: 0.53; stroke: #E8EF04; fill: #FFFFFF;" clip-path="url(#cpNi45NzM4NXw3MTMuMDI2fDI4MS4yMjd8Ni45NzM4NQ==)"/>
  <g clip-path="url(#cpNi45NzM4NXw3MTMuMDI2fDI4MS4yMjd8Ni45NzM4NQ==)">
    <text x="395.76" y="163.80" style="font-size: 9.96px; fill: #E8EF04; font-family: Liberation Sans;" textLength="33.18px" lengthAdjust="spacingAndGlyphs">StemID</text>
  </g>
  <polyline points="276.64,232.97 318.80,232.97 318.71,232.97 319.06,232.95 319.40,232.88 319.72,232.76 320.03,232.59 320.29,232.37 320.53,232.11 320.71,231.81 320.85,231.49 320.93,231.15 320.96,230.81 320.96,230.81 320.96,221.05 320.96,221.05 320.93,220.71 320.85,220.37 320.71,220.05 320.53,219.75 320.29,219.49 320.03,219.27 319.72,219.10 319.40,218.98 319.06,218.91 318.80,218.89 276.64,218.89 276.90,218.91 276.55,218.89 276.20,218.94 275.87,219.03 275.56,219.18 275.27,219.38 275.02,219.62 274.81,219.90 274.65,220.21 274.54,220.54 274.48,220.88 274.48,221.05 274.48,230.81 274.48,230.63 274.48,230.98 274.54,231.32 274.65,231.65 274.81,231.96 275.02,232.24 275.27,232.48 275.56,232.68 275.87,232.83 276.20,232.92 276.55,232.97 " style="stroke-width: 0.53; stroke: #0278DD; fill: #FFFFFF;" clip-path="url(#cpNi45NzM4NXw3MTMuMDI2fDI4MS4yMjd8Ni45NzM4NQ==)"/>
  <g clip-path="url(#cpNi45NzM4NXw3MTMuMDI2fDI4MS4yMjd8Ni45NzM4NQ==)">
    <text x="278.08" y="229.37" style="font-size: 9.96px; fill: #0278DD; font-family: Liberation Sans;" textLength="39.28px" lengthAdjust="spacingAndGlyphs">embeddr</text>
  </g>
  <polyline points="607.84,224.88 655.53,224.88 655.44,224.88 655.79,224.86 656.13,224.79 656.45,224.67 656.75,224.50 657.02,224.28 657.25,224.02 657.44,223.72 657.58,223.40 657.66,223.06 657.69,222.72 657.69,222.72 657.69,212.96 657.69,212.96 657.66,212.62 657.58,212.28 657.44,211.96 657.25,211.67 657.02,211.41 656.75,211.19 656.45,211.01 656.13,210.89 655.79,210.82 655.53,210.80 607.84,210.80 608.10,210.82 607.76,210.81 607.41,210.85 607.08,210.94 606.76,211.09 606.48,211.29 606.23,211.53 606.02,211.81 605.86,212.12 605.75,212.45 605.69,212.79 605.68,212.96 605.68,222.72 605.69,222.54 605.69,222.89 605.75,223.24 605.86,223.57 606.02,223.87 606.23,224.15 606.48,224.39 606.76,224.59 607.08,224.74 607.41,224.83 607.76,224.88 " style="stroke-width: 0.53; stroke: #7FBE00; fill: #FFFFFF;" clip-path="url(#cpNi45NzM4NXw3MTMuMDI2fDI4MS4yMjd8Ni45NzM4NQ==)"/>
  <g clip-path="url(#cpNi45NzM4NXw3MTMuMDI2fDI4MS4yMjd8Ni45NzM4NQ==)">
    <text x="609.28" y="221.28" style="font-size: 9.96px; fill: #7FBE00; font-family: Liberation Sans;" textLength="44.80px" lengthAdjust="spacingAndGlyphs">GrandPrix</text>
  </g>
  <polyline points="377.90,124.65 414.52,124.65 414.43,124.65 414.78,124.63 415.12,124.56 415.44,124.44 415.74,124.26 416.01,124.05 416.24,123.78 416.43,123.49 416.57,123.17 416.65,122.83 416.68,122.49 416.68,122.49 416.68,112.73 416.68,112.73 416.65,112.39 416.57,112.05 416.43,111.73 416.24,111.43 416.01,111.17 415.74,110.95 415.44,110.78 415.12,110.66 414.78,110.59 414.52,110.57 377.90,110.57 378.16,110.59 377.82,110.57 377.47,110.62 377.14,110.71 376.82,110.86 376.54,111.06 376.29,111.30 376.08,111.58 375.92,111.89 375.81,112.22 375.75,112.56 375.74,112.73 375.74,122.49 375.75,122.31 375.75,122.66 375.81,123.00 375.92,123.33 376.08,123.64 376.29,123.92 376.54,124.16 376.82,124.36 377.14,124.51 377.47,124.60 377.82,124.65 " style="stroke-width: 0.53; stroke: #E8EF04; fill: #FFFFFF;" clip-path="url(#cpNi45NzM4NXw3MTMuMDI2fDI4MS4yMjd8Ni45NzM4NQ==)"/>
  <g clip-path="url(#cpNi45NzM4NXw3MTMuMDI2fDI4MS4yMjd8Ni45NzM4NQ==)">
    <text x="379.34" y="121.05" style="font-size: 9.96px; fill: #E8EF04; font-family: Liberation Sans;" textLength="33.73px" lengthAdjust="spacingAndGlyphs">TSCAN</text>
  </g>
  <polyline points="471.43,271.78 503.08,271.78 502.99,271.77 503.34,271.76 503.68,271.69 504.00,271.57 504.31,271.39 504.58,271.17 504.81,270.91 504.99,270.62 505.13,270.30 505.21,269.96 505.24,269.62 505.24,269.62 505.24,259.86 505.24,259.86 505.21,259.51 505.13,259.18 504.99,258.86 504.81,258.56 504.58,258.30 504.31,258.08 504.00,257.91 503.68,257.79 503.34,257.72 503.08,257.70 471.43,257.70 471.69,257.72 471.35,257.70 471.00,257.74 470.67,257.84 470.35,257.99 470.07,258.19 469.82,258.43 469.61,258.71 469.45,259.01 469.34,259.34 469.28,259.69 469.27,259.86 469.27,269.62 469.28,269.44 469.28,269.79 469.34,270.13 469.45,270.46 469.61,270.77 469.82,271.05 470.07,271.29 470.35,271.49 470.67,271.64 471.00,271.73 471.35,271.77 " style="stroke-width: 0.53; stroke: #E8EF04; fill: #FFFFFF;" clip-path="url(#cpNi45NzM4NXw3MTMuMDI2fDI4MS4yMjd8Ni45NzM4NQ==)"/>
  <g clip-path="url(#cpNi45NzM4NXw3MTMuMDI2fDI4MS4yMjd8Ni45NzM4NQ==)">
    <text x="472.87" y="268.18" style="font-size: 9.96px; fill: #E8EF04; font-family: Liberation Sans;" textLength="28.77px" lengthAdjust="spacingAndGlyphs">SLICE</text>
  </g>
  <polyline points="532.53,86.39 576.89,86.39 576.80,86.39 577.15,86.38 577.49,86.31 577.81,86.18 578.12,86.01 578.39,85.79 578.62,85.53 578.80,85.24 578.94,84.92 579.02,84.58 579.05,84.23 579.05,84.23 579.05,74.48 579.05,74.48 579.02,74.13 578.94,73.79 578.80,73.47 578.62,73.18 578.39,72.92 578.12,72.70 577.81,72.53 577.49,72.40 577.15,72.33 576.89,72.32 532.53,72.32 532.79,72.33 532.45,72.32 532.10,72.36 531.77,72.46 531.45,72.61 531.17,72.81 530.92,73.05 530.71,73.32 530.55,73.63 530.44,73.96 530.38,74.30 530.37,74.48 530.37,84.23 530.38,84.06 530.38,84.41 530.44,84.75 530.55,85.08 530.71,85.39 530.92,85.67 531.17,85.91 531.45,86.10 531.77,86.25 532.10,86.35 532.45,86.39 " style="stroke-width: 0.53; stroke: #0278DD; fill: #FFFFFF;" clip-path="url(#cpNi45NzM4NXw3MTMuMDI2fDI4MS4yMjd8Ni45NzM4NQ==)"/>
  <g clip-path="url(#cpNi45NzM4NXw3MTMuMDI2fDI4MS4yMjd8Ni45NzM4NQ==)">
    <text x="533.97" y="82.79" style="font-size: 9.96px; fill: #0278DD; font-family: Liberation Sans;" textLength="41.47px" lengthAdjust="spacingAndGlyphs">UNCURL</text>
  </g>
  <polyline points="516.25,104.31 558.41,104.31 558.32,104.30 558.67,104.29 559.01,104.22 559.34,104.10 559.64,103.92 559.91,103.70 560.14,103.44 560.32,103.15 560.46,102.83 560.54,102.49 560.57,102.15 560.57,102.15 560.57,92.39 560.57,92.39 560.54,92.05 560.46,91.71 560.32,91.39 560.14,91.09 559.91,90.83 559.64,90.61 559.34,90.44 559.01,90.32 558.67,90.25 558.41,90.23 516.25,90.23 516.51,90.25 516.16,90.23 515.82,90.28 515.48,90.37 515.17,90.52 514.88,90.72 514.63,90.96 514.42,91.24 514.26,91.54 514.15,91.87 514.10,92.22 514.09,92.39 514.09,102.15 514.10,101.97 514.10,102.32 514.15,102.66 514.26,102.99 514.42,103.30 514.63,103.58 514.88,103.82 515.17,104.02 515.48,104.17 515.82,104.26 516.16,104.30 " style="stroke-width: 0.53; stroke: #E8EF04; fill: #FFFFFF;" clip-path="url(#cpNi45NzM4NXw3MTMuMDI2fDI4MS4yMjd8Ni45NzM4NQ==)"/>
  <g clip-path="url(#cpNi45NzM4NXw3MTMuMDI2fDI4MS4yMjd8Ni45NzM4NQ==)">
    <text x="517.69" y="100.71" style="font-size: 9.96px; fill: #E8EF04; font-family: Liberation Sans;" textLength="39.28px" lengthAdjust="spacingAndGlyphs">slingshot</text>
  </g>
  <polyline points="573.51,249.86 612.89,249.86 612.80,249.86 613.15,249.85 613.49,249.78 613.81,249.65 614.11,249.48 614.38,249.26 614.61,249.00 614.80,248.71 614.94,248.39 615.02,248.05 615.05,247.70 615.05,247.70 615.05,237.95 615.05,237.95 615.02,237.60 614.94,237.26 614.80,236.94 614.61,236.65 614.38,236.39 614.11,236.17 613.81,236.00 613.49,235.87 613.15,235.80 612.89,235.79 573.51,235.79 573.77,235.80 573.42,235.79 573.08,235.83 572.74,235.93 572.43,236.08 572.14,236.27 571.89,236.52 571.68,236.79 571.52,237.10 571.41,237.43 571.36,237.77 571.35,237.95 571.35,247.70 571.36,247.53 571.36,247.88 571.41,248.22 571.52,248.55 571.68,248.86 571.89,249.14 572.14,249.38 572.43,249.57 572.74,249.72 573.08,249.82 573.42,249.86 " style="stroke-width: 0.53; stroke: #FF8821; fill: #FFFFFF;" clip-path="url(#cpNi45NzM4NXw3MTMuMDI2fDI4MS4yMjd8Ni45NzM4NQ==)"/>
  <g clip-path="url(#cpNi45NzM4NXw3MTMuMDI2fDI4MS4yMjd8Ni45NzM4NQ==)">
    <text x="574.95" y="246.26" style="font-size: 9.96px; fill: #FF8821; font-family: Liberation Sans;" textLength="36.50px" lengthAdjust="spacingAndGlyphs">B-RGPs</text>
  </g>
  <polyline points="415.14,232.73 453.42,232.73 453.34,232.73 453.68,232.72 454.03,232.65 454.35,232.53 454.65,232.35 454.92,232.13 455.15,231.87 455.34,231.58 455.47,231.26 455.56,230.92 455.58,230.57 455.58,230.57 455.58,220.82 455.58,220.82 455.56,220.47 455.47,220.13 455.34,219.81 455.15,219.52 454.92,219.26 454.65,219.04 454.35,218.87 454.03,218.74 453.68,218.67 453.42,218.66 415.14,218.66 415.40,218.67 415.06,218.66 414.71,218.70 414.38,218.80 414.06,218.95 413.78,219.15 413.53,219.39 413.32,219.66 413.16,219.97 413.05,220.30 412.99,220.64 412.98,220.82 412.98,230.57 412.99,230.40 412.99,230.75 413.05,231.09 413.16,231.42 413.32,231.73 413.53,232.01 413.78,232.25 414.06,232.44 414.38,232.59 414.71,232.69 415.06,232.73 " style="stroke-width: 0.53; stroke: #E8EF04; fill: #FFFFFF;" clip-path="url(#cpNi45NzM4NXw3MTMuMDI2fDI4MS4yMjd8Ni45NzM4NQ==)"/>
  <g clip-path="url(#cpNi45NzM4NXw3MTMuMDI2fDI4MS4yMjd8Ni45NzM4NQ==)">
    <text x="416.58" y="229.13" style="font-size: 9.96px; fill: #E8EF04; font-family: Liberation Sans;" textLength="35.40px" lengthAdjust="spacingAndGlyphs">cellTree</text>
  </g>
  <polyline points="170.71,250.68 207.88,250.68 207.79,250.67 208.14,250.66 208.48,250.59 208.80,250.47 209.10,250.29 209.37,250.07 209.60,249.81 209.79,249.52 209.93,249.20 210.01,248.86 210.04,248.52 210.04,248.52 210.04,238.76 210.04,238.76 210.01,238.41 209.93,238.08 209.79,237.76 209.60,237.46 209.37,237.20 209.10,236.98 208.80,236.81 208.48,236.69 208.14,236.62 207.88,236.60 170.71,236.60 170.97,236.62 170.62,236.60 170.27,236.64 169.94,236.74 169.63,236.89 169.34,237.09 169.09,237.33 168.88,237.61 168.72,237.91 168.61,238.24 168.55,238.59 168.55,238.76 168.55,248.52 168.55,248.34 168.55,248.69 168.61,249.03 168.72,249.36 168.88,249.67 169.09,249.95 169.34,250.19 169.63,250.39 169.94,250.54 170.27,250.63 170.62,250.67 " style="stroke-width: 0.53; stroke: #E8EF04; fill: #FFFFFF;" clip-path="url(#cpNi45NzM4NXw3MTMuMDI2fDI4MS4yMjd8Ni45NzM4NQ==)"/>
  <g clip-path="url(#cpNi45NzM4NXw3MTMuMDI2fDI4MS4yMjd8Ni45NzM4NQ==)">
    <text x="172.15" y="247.08" style="font-size: 9.96px; fill: #E8EF04; font-family: Liberation Sans;" textLength="34.29px" lengthAdjust="spacingAndGlyphs">SCUBA</text>
  </g>
  <polyline points="368.09,210.66 415.23,210.66 415.14,210.66 415.49,210.65 415.83,210.58 416.15,210.45 416.46,210.28 416.72,210.06 416.96,209.80 417.14,209.51 417.28,209.19 417.36,208.85 417.39,208.50 417.39,208.50 417.39,198.75 417.39,198.75 417.36,198.40 417.28,198.06 417.14,197.74 416.96,197.45 416.72,197.19 416.46,196.97 416.15,196.80 415.83,196.67 415.49,196.60 415.23,196.59 368.09,196.59 368.35,196.60 368.00,196.59 367.66,196.63 367.32,196.73 367.01,196.88 366.72,197.07 366.47,197.31 366.26,197.59 366.10,197.90 365.99,198.23 365.94,198.57 365.93,198.75 365.93,208.50 365.94,208.33 365.94,208.68 365.99,209.02 366.10,209.35 366.26,209.66 366.47,209.93 366.72,210.17 367.01,210.37 367.32,210.52 367.66,210.62 368.00,210.66 " style="stroke-width: 0.53; stroke: #3AD1D1; fill: #FFFFFF;" clip-path="url(#cpNi45NzM4NXw3MTMuMDI2fDI4MS4yMjd8Ni45NzM4NQ==)"/>
  <g clip-path="url(#cpNi45NzM4NXw3MTMuMDI2fDI4MS4yMjd8Ni45NzM4NQ==)">
    <text x="369.53" y="207.06" style="font-size: 9.96px; fill: #3AD1D1; font-family: Liberation Sans;" textLength="44.26px" lengthAdjust="spacingAndGlyphs">Wishbone</text>
  </g>
  <polyline points="602.05,271.74 646.42,271.74 646.34,271.74 646.68,271.72 647.02,271.65 647.35,271.53 647.65,271.36 647.92,271.14 648.15,270.88 648.34,270.58 648.47,270.26 648.56,269.93 648.58,269.58 648.58,269.58 648.58,259.83 648.58,259.83 648.56,259.48 648.47,259.14 648.34,258.82 648.15,258.53 647.92,258.27 647.65,258.05 647.35,257.87 647.02,257.75 646.68,257.68 646.42,257.67 602.05,257.67 602.31,257.68 601.96,257.67 601.62,257.71 601.28,257.81 600.97,257.95 600.68,258.15 600.43,258.39 600.22,258.67 600.06,258.98 599.95,259.31 599.90,259.65 599.89,259.83 599.89,269.58 599.90,269.41 599.90,269.75 599.95,270.10 600.06,270.43 600.22,270.73 600.43,271.01 600.68,271.25 600.97,271.45 601.28,271.60 601.62,271.70 601.96,271.74 " style="stroke-width: 0.53; stroke: #E8EF04; fill: #FFFFFF;" clip-path="url(#cpNi45NzM4NXw3MTMuMDI2fDI4MS4yMjd8Ni45NzM4NQ==)"/>
  <g clip-path="url(#cpNi45NzM4NXw3MTMuMDI2fDI4MS4yMjd8Ni45NzM4NQ==)">
    <text x="603.49" y="268.14" style="font-size: 9.96px; fill: #E8EF04; font-family: Liberation Sans;" textLength="41.49px" lengthAdjust="spacingAndGlyphs">p-Creode</text>
  </g>
  <polyline points="543.54,123.64 595.68,123.64 595.59,123.64 595.94,123.62 596.28,123.55 596.60,123.43 596.90,123.25 597.17,123.03 597.40,122.77 597.59,122.48 597.73,122.16 597.81,121.82 597.84,121.48 597.84,121.48 597.84,111.72 597.84,111.72 597.81,111.38 597.73,111.04 597.59,110.72 597.40,110.42 597.17,110.16 596.90,109.94 596.60,109.77 596.28,109.65 595.94,109.58 595.68,109.56 543.54,109.56 543.80,109.58 543.46,109.56 543.11,109.61 542.78,109.70 542.46,109.85 542.18,110.05 541.93,110.29 541.72,110.57 541.56,110.88 541.44,111.20 541.39,111.55 541.38,111.72 541.38,121.48 541.39,121.30 541.39,121.65 541.44,121.99 541.56,122.32 541.72,122.63 541.93,122.91 542.18,123.15 542.46,123.35 542.78,123.50 543.11,123.59 543.46,123.64 " style="stroke-width: 0.53; stroke: #0278DD; fill: #FFFFFF;" clip-path="url(#cpNi45NzM4NXw3MTMuMDI2fDI4MS4yMjd8Ni45NzM4NQ==)"/>
  <g clip-path="url(#cpNi45NzM4NXw3MTMuMDI2fDI4MS4yMjd8Ni45NzM4NQ==)">
    <text x="544.98" y="120.04" style="font-size: 9.96px; fill: #0278DD; font-family: Liberation Sans;" textLength="49.26px" lengthAdjust="spacingAndGlyphs">PhenoPath</text>
  </g>
  <polyline points="270.44,255.61 312.58,255.61 312.50,255.61 312.84,255.60 313.18,255.53 313.51,255.40 313.81,255.23 314.08,255.01 314.31,254.75 314.50,254.45 314.63,254.13 314.72,253.80 314.74,253.45 314.74,253.45 314.74,243.70 314.74,243.70 314.72,243.35 314.63,243.01 314.50,242.69 314.31,242.40 314.08,242.14 313.81,241.92 313.51,241.74 313.18,241.62 312.84,241.55 312.58,241.54 270.44,241.54 270.70,241.55 270.35,241.54 270.00,241.58 269.67,241.68 269.36,241.83 269.07,242.02 268.82,242.26 268.61,242.54 268.45,242.85 268.34,243.18 268.28,243.52 268.28,243.70 268.28,253.45 268.28,253.28 268.28,253.62 268.34,253.97 268.45,254.30 268.61,254.61 268.82,254.88 269.07,255.12 269.36,255.32 269.67,255.47 270.00,255.57 270.35,255.61 " style="stroke-width: 0.53; stroke: #0278DD; fill: #FFFFFF;" clip-path="url(#cpNi45NzM4NXw3MTMuMDI2fDI4MS4yMjd8Ni45NzM4NQ==)"/>
  <g clip-path="url(#cpNi45NzM4NXw3MTMuMDI2fDI4MS4yMjd8Ni45NzM4NQ==)">
    <text x="271.88" y="252.01" style="font-size: 9.96px; fill: #0278DD; font-family: Liberation Sans;" textLength="39.27px" lengthAdjust="spacingAndGlyphs">Waterfall</text>
  </g>
  <polyline points="525.93,245.49 558.67,245.49 558.58,245.48 558.93,245.47 559.27,245.40 559.59,245.28 559.89,245.10 560.16,244.88 560.39,244.62 560.58,244.33 560.72,244.01 560.80,243.67 560.83,243.33 560.83,243.33 560.83,233.57 560.83,233.57 560.80,233.23 560.72,232.89 560.58,232.57 560.39,232.27 560.16,232.01 559.89,231.79 559.59,231.62 559.27,231.50 558.93,231.43 558.67,231.41 525.93,231.41 526.19,231.43 525.84,231.41 525.49,231.46 525.16,231.55 524.85,231.70 524.56,231.90 524.31,232.14 524.10,232.42 523.94,232.73 523.83,233.05 523.77,233.40 523.77,233.57 523.77,243.33 523.77,243.15 523.77,243.50 523.83,243.84 523.94,244.17 524.10,244.48 524.31,244.76 524.56,245.00 524.85,245.20 525.16,245.35 525.49,245.44 525.84,245.48 " style="stroke-width: 0.53; stroke: #0278DD; fill: #FFFFFF;" clip-path="url(#cpNi45NzM4NXw3MTMuMDI2fDI4MS4yMjd8Ni45NzM4NQ==)"/>
  <g clip-path="url(#cpNi45NzM4NXw3MTMuMDI2fDI4MS4yMjd8Ni45NzM4NQ==)">
    <text x="527.37" y="241.89" style="font-size: 9.96px; fill: #0278DD; font-family: Liberation Sans;" textLength="29.86px" lengthAdjust="spacingAndGlyphs">scTDA</text>
  </g>
  <polyline points="185.61,273.89 216.15,273.89 216.06,273.89 216.41,273.87 216.75,273.80 217.07,273.68 217.37,273.51 217.64,273.29 217.87,273.03 218.06,272.73 218.20,272.41 218.28,272.07 218.31,271.73 218.31,271.73 218.31,261.97 218.31,261.97 218.28,261.63 218.20,261.29 218.06,260.97 217.87,260.67 217.64,260.41 217.37,260.19 217.07,260.02 216.75,259.90 216.41,259.83 216.15,259.81 185.61,259.81 185.87,259.83 185.52,259.81 185.18,259.86 184.84,259.95 184.53,260.10 184.24,260.30 183.99,260.54 183.78,260.82 183.62,261.13 183.51,261.46 183.46,261.80 183.45,261.97 183.45,271.73 183.46,271.55 183.46,271.90 183.51,272.24 183.62,272.57 183.78,272.88 183.99,273.16 184.24,273.40 184.53,273.60 184.84,273.75 185.18,273.84 185.52,273.89 " style="stroke-width: 0.53; stroke: #E8EF04; fill: #FFFFFF;" clip-path="url(#cpNi45NzM4NXw3MTMuMDI2fDI4MS4yMjd8Ni45NzM4NQ==)"/>
  <g clip-path="url(#cpNi45NzM4NXw3MTMuMDI2fDI4MS4yMjd8Ni45NzM4NQ==)">
    <text x="187.05" y="270.29" style="font-size: 9.96px; fill: #E8EF04; font-family: Liberation Sans;" textLength="27.66px" lengthAdjust="spacingAndGlyphs">sincell</text>
  </g>
  <polyline points="491.57,177.87 529.30,177.87 529.21,177.87 529.56,177.86 529.90,177.79 530.22,177.67 530.52,177.49 530.79,177.27 531.02,177.01 531.21,176.72 531.34,176.40 531.43,176.06 531.46,175.71 531.46,175.71 531.46,165.96 531.46,165.96 531.43,165.61 531.34,165.28 531.21,164.96 531.02,164.66 530.79,164.40 530.52,164.18 530.22,164.01 529.90,163.88 529.56,163.82 529.30,163.80 491.57,163.80 491.83,163.82 491.48,163.80 491.13,163.84 490.80,163.94 490.49,164.09 490.20,164.29 489.95,164.53 489.74,164.80 489.58,165.11 489.47,165.44 489.41,165.79 489.41,165.96 489.41,175.71 489.41,175.54 489.41,175.89 489.47,176.23 489.58,176.56 489.74,176.87 489.95,177.15 490.20,177.39 490.49,177.59 490.80,177.73 491.13,177.83 491.48,177.87 " style="stroke-width: 0.53; stroke: #0278DD; fill: #FFFFFF;" clip-path="url(#cpNi45NzM4NXw3MTMuMDI2fDI4MS4yMjd8Ni45NzM4NQ==)"/>
  <g clip-path="url(#cpNi45NzM4NXw3MTMuMDI2fDI4MS4yMjd8Ni45NzM4NQ==)">
    <text x="493.01" y="174.27" style="font-size: 9.96px; fill: #0278DD; font-family: Liberation Sans;" textLength="34.85px" lengthAdjust="spacingAndGlyphs">topslam</text>
  </g>
  <polyline points="510.90,147.99 534.79,147.99 534.70,147.99 535.05,147.98 535.39,147.91 535.72,147.78 536.02,147.61 536.29,147.39 536.52,147.13 536.70,146.84 536.84,146.52 536.92,146.18 536.95,145.83 536.95,145.83 536.95,136.08 536.95,136.08 536.92,135.73 536.84,135.39 536.70,135.07 536.52,134.78 536.29,134.52 536.02,134.30 535.72,134.13 535.39,134.00 535.05,133.93 534.79,133.92 510.90,133.92 511.16,133.93 510.81,133.92 510.47,133.96 510.14,134.06 509.82,134.21 509.54,134.40 509.28,134.65 509.08,134.92 508.91,135.23 508.80,135.56 508.75,135.90 508.74,136.08 508.74,145.83 508.75,145.66 508.75,146.01 508.80,146.35 508.91,146.68 509.08,146.99 509.28,147.27 509.54,147.51 509.82,147.70 510.14,147.85 510.47,147.95 510.81,147.99 " style="stroke-width: 0.53; stroke: #7FBE00; fill: #FFFFFF;" clip-path="url(#cpNi45NzM4NXw3MTMuMDI2fDI4MS4yMjd8Ni45NzM4NQ==)"/>
  <g clip-path="url(#cpNi45NzM4NXw3MTMuMDI2fDI4MS4yMjd8Ni45NzM4NQ==)">
    <text x="512.34" y="144.39" style="font-size: 9.96px; fill: #7FBE00; font-family: Liberation Sans;" textLength="21.01px" lengthAdjust="spacingAndGlyphs">MFA</text>
  </g>
  <polyline points="400.80,190.47 431.35,190.47 431.26,190.47 431.61,190.46 431.95,190.39 432.27,190.26 432.57,190.09 432.84,189.87 433.07,189.61 433.26,189.32 433.40,189.00 433.48,188.66 433.51,188.31 433.51,188.31 433.51,178.56 433.51,178.56 433.48,178.21 433.40,177.87 433.26,177.55 433.07,177.26 432.84,177.00 432.57,176.78 432.27,176.61 431.95,176.48 431.61,176.41 431.35,176.40 400.80,176.40 401.06,176.41 400.72,176.40 400.37,176.44 400.04,176.54 399.72,176.69 399.44,176.88 399.19,177.13 398.98,177.40 398.82,177.71 398.71,178.04 398.65,178.38 398.64,178.56 398.64,188.31 398.65,188.14 398.65,188.49 398.71,188.83 398.82,189.16 398.98,189.47 399.19,189.74 399.44,189.99 399.72,190.18 400.04,190.33 400.37,190.43 400.72,190.47 " style="stroke-width: 0.53; stroke: #E8EF04; fill: #FFFFFF;" clip-path="url(#cpNi45NzM4NXw3MTMuMDI2fDI4MS4yMjd8Ni45NzM4NQ==)"/>
  <g clip-path="url(#cpNi45NzM4NXw3MTMuMDI2fDI4MS4yMjd8Ni45NzM4NQ==)">
    <text x="402.24" y="186.87" style="font-size: 9.96px; fill: #E8EF04; font-family: Liberation Sans;" textLength="27.66px" lengthAdjust="spacingAndGlyphs">Mpath</text>
  </g>
  <defs>
    <clipPath id="cpMHw3MjB8MzI0fDA=">
      <rect x="0.00" y="0.00" width="720.00" height="324.00"/>
    </clipPath>
  </defs>
  <polyline points="6.97,281.23 713.03,281.23 " style="stroke-width: 1.07; stroke-linecap: square;" clip-path="url(#cpMHw3MjB8MzI0fDA=)"/>
  <polyline points="39.07,284.71 39.07,281.23 " style="stroke-width: 1.07; stroke-linecap: butt;" clip-path="url(#cpMHw3MjB8MzI0fDA=)"/>
  <polyline points="190.12,284.71 190.12,281.23 " style="stroke-width: 1.07; stroke-linecap: butt;" clip-path="url(#cpMHw3MjB8MzI0fDA=)"/>
  <polyline points="341.17,284.71 341.17,281.23 " style="stroke-width: 1.07; stroke-linecap: butt;" clip-path="url(#cpMHw3MjB8MzI0fDA=)"/>
  <polyline points="492.64,284.71 492.64,281.23 " style="stroke-width: 1.07; stroke-linecap: butt;" clip-path="url(#cpMHw3MjB8MzI0fDA=)"/>
  <polyline points="643.69,284.71 643.69,281.23 " style="stroke-width: 1.07; stroke-linecap: butt;" clip-path="url(#cpMHw3MjB8MzI0fDA=)"/>
  <g clip-path="url(#cpMHw3MjB8MzI0fDA=)">
    <text x="25.72" y="295.95" style="font-size: 12.00px; font-family: Liberation Sans;" textLength="26.70px" lengthAdjust="spacingAndGlyphs">2014</text>
  </g>
  <g clip-path="url(#cpMHw3MjB8MzI0fDA=)">
    <text x="176.77" y="295.95" style="font-size: 12.00px; font-family: Liberation Sans;" textLength="26.70px" lengthAdjust="spacingAndGlyphs">2015</text>
  </g>
  <g clip-path="url(#cpMHw3MjB8MzI0fDA=)">
    <text x="327.82" y="295.95" style="font-size: 12.00px; font-family: Liberation Sans;" textLength="26.70px" lengthAdjust="spacingAndGlyphs">2016</text>
  </g>
  <g clip-path="url(#cpMHw3MjB8MzI0fDA=)">
    <text x="479.29" y="295.95" style="font-size: 12.00px; font-family: Liberation Sans;" textLength="26.70px" lengthAdjust="spacingAndGlyphs">2017</text>
  </g>
  <g clip-path="url(#cpMHw3MjB8MzI0fDA=)">
    <text x="630.34" y="295.95" style="font-size: 12.00px; font-family: Liberation Sans;" textLength="26.70px" lengthAdjust="spacingAndGlyphs">2018</text>
  </g>
  <g clip-path="url(#cpMHw3MjB8MzI0fDA=)">
    <text x="312.13" y="312.80" style="font-size: 14.00px; font-family: Liberation Sans;" textLength="95.74px" lengthAdjust="spacingAndGlyphs">Publishing date</text>
  </g>
</svg>
