<?xml version="1.0" encoding="UTF-8"?>
<svg xmlns="http://www.w3.org/2000/svg" xmlns:xlink="http://www.w3.org/1999/xlink" viewBox="0 0 720.00 252.00">
  <defs>
    <style type="text/css"><![CDATA[
    line, polyline, path, rect, circle {
      fill: none;
      stroke: #000000;
      stroke-linecap: round;
      stroke-linejoin: round;
      stroke-miterlimit: 10.00;
    }
  ]]></style>
  </defs>
  <line x1="638.76" y1="196.64" x2="638.76" y2="209.23" style="stroke-width: 1.07; stroke: #FF8821;" clip-path="url(#cpNi45NzM4NXw3MTMuMDI2fDIwOS4yMjd8Ni45NzM4NQ==)"/>
  <line x1="547.38" y1="182.37" x2="547.38" y2="209.23" style="stroke-width: 1.07; stroke: #CFBF00;" clip-path="url(#cpNi45NzM4NXw3MTMuMDI2fDIwOS4yMjd8Ni45NzM4NQ==)"/>
  <line x1="612.84" y1="184.51" x2="612.84" y2="209.22" style="stroke-width: 1.07; stroke: #CFBF00;" clip-path="url(#cpNi45NzM4NXw3MTMuMDI2fDIwOS4yMjd8Ni45NzM4NQ==)"/>
  <line x1="586.48" y1="163.32" x2="586.48" y2="209.22" style="stroke-width: 1.07; stroke: #AF0DC7;" clip-path="url(#cpNi45NzM4NXw3MTMuMDI2fDIwOS4yMjd8Ni45NzM4NQ==)"/>
  <line x1="210.85" y1="205.13" x2="210.85" y2="209.22" style="stroke-width: 1.07; stroke: #5ECD2E;" clip-path="url(#cpNi45NzM4NXw3MTMuMDI2fDIwOS4yMjd8Ni45NzM4NQ==)"/>
  <line x1="313.65" y1="183.79" x2="313.65" y2="209.22" style="stroke-width: 1.07; stroke: #AF0DC7;" clip-path="url(#cpNi45NzM4NXw3MTMuMDI2fDIwOS4yMjd8Ni45NzM4NQ==)"/>
  <line x1="429.63" y1="161.96" x2="429.63" y2="209.22" style="stroke-width: 1.07; stroke: #CFBF00;" clip-path="url(#cpNi45NzM4NXw3MTMuMDI2fDIwOS4yMjd8Ni45NzM4NQ==)"/>
  <line x1="568.02" y1="127.41" x2="568.02" y2="209.22" style="stroke-width: 1.07; stroke: #5ECD2E;" clip-path="url(#cpNi45NzM4NXw3MTMuMDI2fDIwOS4yMjd8Ni45NzM4NQ==)"/>
  <line x1="543.42" y1="142.29" x2="543.42" y2="209.22" style="stroke-width: 1.07; stroke: #5ECD2E;" clip-path="url(#cpNi45NzM4NXw3MTMuMDI2fDIwOS4yMjd8Ni45NzM4NQ==)"/>
  <line x1="88.71" y1="202.85" x2="88.71" y2="209.22" style="stroke-width: 1.07; stroke: #AF0DC7;" clip-path="url(#cpNi45NzM4NXw3MTMuMDI2fDIwOS4yMjd8Ni45NzM4NQ==)"/>
  <line x1="78.61" y1="180.94" x2="78.61" y2="209.22" style="stroke-width: 1.07; stroke: #5ECD2E;" clip-path="url(#cpNi45NzM4NXw3MTMuMDI2fDIwOS4yMjd8Ni45NzM4NQ==)"/>
  <line x1="513.11" y1="162.43" x2="513.11" y2="209.22" style="stroke-width: 1.07; stroke: #5ECD2E;" clip-path="url(#cpNi45NzM4NXw3MTMuMDI2fDIwOS4yMjd8Ni45NzM4NQ==)"/>
  <line x1="651.94" y1="173.53" x2="651.94" y2="209.22" style="stroke-width: 1.07; stroke: #FF4237;" clip-path="url(#cpNi45NzM4NXw3MTMuMDI2fDIwOS4yMjd8Ni45NzM4NQ==)"/>
  <line x1="613.71" y1="139.29" x2="613.71" y2="209.22" style="stroke-width: 1.07; stroke: #0073D7;" clip-path="url(#cpNi45NzM4NXw3MTMuMDI2fDIwOS4yMjd8Ni45NzM4NQ==)"/>
  <line x1="307.06" y1="162.33" x2="307.06" y2="209.22" style="stroke-width: 1.07; stroke: #AF0DC7;" clip-path="url(#cpNi45NzM4NXw3MTMuMDI2fDIwOS4yMjd8Ni45NzM4NQ==)"/>
  <line x1="542.98" y1="81.18" x2="542.98" y2="209.22" style="stroke-width: 1.07; stroke: #5ECD2E;" clip-path="url(#cpNi45NzM4NXw3MTMuMDI2fDIwOS4yMjd8Ni45NzM4NQ==)"/>
  <line x1="552.65" y1="104.90" x2="552.65" y2="209.22" style="stroke-width: 1.07; stroke: #CFBF00;" clip-path="url(#cpNi45NzM4NXw3MTMuMDI2fDIwOS4yMjd8Ni45NzM4NQ==)"/>
  <line x1="439.30" y1="104.25" x2="439.30" y2="209.22" style="stroke-width: 1.07; stroke: #5ECD2E;" clip-path="url(#cpNi45NzM4NXw3MTMuMDI2fDIwOS4yMjd8Ni45NzM4NQ==)"/>
  <line x1="481.48" y1="183.14" x2="481.48" y2="209.22" style="stroke-width: 1.07; stroke: #AF0DC7;" clip-path="url(#cpNi45NzM4NXw3MTMuMDI2fDIwOS4yMjd8Ni45NzM4NQ==)"/>
  <line x1="561.43" y1="24.65" x2="561.43" y2="209.22" style="stroke-width: 1.07; stroke: #5ECD2E;" clip-path="url(#cpNi45NzM4NXw3MTMuMDI2fDIwOS4yMjd8Ni45NzM4NQ==)"/>
  <line x1="514.86" y1="204.70" x2="514.86" y2="209.22" style="stroke-width: 1.07; stroke: #5ECD2E;" clip-path="url(#cpNi45NzM4NXw3MTMuMDI2fDIwOS4yMjd8Ni45NzM4NQ==)"/>
  <line x1="604.93" y1="117.46" x2="604.93" y2="209.22" style="stroke-width: 1.07; stroke: #AF0DC7;" clip-path="url(#cpNi45NzM4NXw3MTMuMDI2fDIwOS4yMjd8Ni45NzM4NQ==)"/>
  <line x1="403.27" y1="181.95" x2="403.27" y2="209.22" style="stroke-width: 1.07; stroke: #FF8821;" clip-path="url(#cpNi45NzM4NXw3MTMuMDI2fDIwOS4yMjd8Ni45NzM4NQ==)"/>
  <line x1="407.67" y1="143.05" x2="407.67" y2="209.22" style="stroke-width: 1.07; stroke: #AF0DC7;" clip-path="url(#cpNi45NzM4NXw3MTMuMDI2fDIwOS4yMjd8Ni45NzM4NQ==)"/>
  <line x1="597.02" y1="45.75" x2="597.02" y2="209.22" style="stroke-width: 1.07; stroke: #AF0DC7;" clip-path="url(#cpNi45NzM4NXw3MTMuMDI2fDIwOS4yMjd8Ni45NzM4NQ==)"/>
  <line x1="433.59" y1="121.46" x2="433.59" y2="209.22" style="stroke-width: 1.07; stroke: #AF0DC7;" clip-path="url(#cpNi45NzM4NXw3MTMuMDI2fDIwOS4yMjd8Ni45NzM4NQ==)"/>
  <line x1="436.22" y1="197.34" x2="436.22" y2="209.22" style="stroke-width: 1.07; stroke: #AF0DC7;" clip-path="url(#cpNi45NzM4NXw3MTMuMDI2fDIwOS4yMjd8Ni45NzM4NQ==)"/>
  <line x1="668.19" y1="151.85" x2="668.19" y2="209.22" style="stroke-width: 1.07; stroke: #CFBF00;" clip-path="url(#cpNi45NzM4NXw3MTMuMDI2fDIwOS4yMjd8Ni45NzM4NQ==)"/>
  <line x1="458.63" y1="140.99" x2="458.63" y2="209.21" style="stroke-width: 1.07; stroke: #5ECD2E;" clip-path="url(#cpNi45NzM4NXw3MTMuMDI2fDIwOS4yMjd8Ni45NzM4NQ==)"/>
  <line x1="401.52" y1="83.13" x2="401.52" y2="209.21" style="stroke-width: 1.07; stroke: #AF0DC7;" clip-path="url(#cpNi45NzM4NXw3MTMuMDI2fDIwOS4yMjd8Ni45NzM4NQ==)"/>
  <line x1="573.30" y1="198.33" x2="573.30" y2="209.21" style="stroke-width: 1.07; stroke: #AF0DC7;" clip-path="url(#cpNi45NzM4NXw3MTMuMDI2fDIwOS4yMjd8Ni45NzM4NQ==)"/>
  <line x1="376.47" y1="202.90" x2="376.47" y2="209.21" style="stroke-width: 1.07; stroke: #0073D7;" clip-path="url(#cpNi45NzM4NXw3MTMuMDI2fDIwOS4yMjd8Ni45NzM4NQ==)"/>
  <line x1="660.28" y1="129.71" x2="660.28" y2="209.21" style="stroke-width: 1.07; stroke: #5ECD2E;" clip-path="url(#cpNi45NzM4NXw3MTMuMDI2fDIwOS4yMjd8Ni45NzM4NQ==)"/>
  <line x1="268.84" y1="205.55" x2="268.84" y2="209.21" style="stroke-width: 1.07; stroke: #AF0DC7;" clip-path="url(#cpNi45NzM4NXw3MTMuMDI2fDIwOS4yMjd8Ni45NzM4NQ==)"/>
  <line x1="418.21" y1="62.22" x2="418.21" y2="209.21" style="stroke-width: 1.07; stroke: #5ECD2E;" clip-path="url(#cpNi45NzM4NXw3MTMuMDI2fDIwOS4yMjd8Ni45NzM4NQ==)"/>
  <line x1="312.33" y1="97.08" x2="312.33" y2="209.21" style="stroke-width: 1.07; stroke: #AF0DC7;" clip-path="url(#cpNi45NzM4NXw3MTMuMDI2fDIwOS4yMjd8Ni45NzM4NQ==)"/>
  <line x1="666.87" y1="107.91" x2="666.87" y2="209.21" style="stroke-width: 1.07; stroke: #AF0DC7;" clip-path="url(#cpNi45NzM4NXw3MTMuMDI2fDIwOS4yMjd8Ni45NzM4NQ==)"/>
  <line x1="492.90" y1="118.27" x2="492.90" y2="209.21" style="stroke-width: 1.07; stroke: #AF0DC7;" clip-path="url(#cpNi45NzM4NXw3MTMuMDI2fDIwOS4yMjd8Ni45NzM4NQ==)"/>
  <line x1="594.82" y1="81.82" x2="594.82" y2="209.21" style="stroke-width: 1.07; stroke: #39CCCC;" clip-path="url(#cpNi45NzM4NXw3MTMuMDI2fDIwOS4yMjd8Ni45NzM4NQ==)"/>
  <line x1="539.47" y1="46.04" x2="539.47" y2="209.21" style="stroke-width: 1.07; stroke: #AF0DC7;" clip-path="url(#cpNi45NzM4NXw3MTMuMDI2fDIwOS4yMjd8Ni45NzM4NQ==)"/>
  <line x1="617.23" y1="63.93" x2="617.23" y2="209.21" style="stroke-width: 1.07; stroke: #0073D7;" clip-path="url(#cpNi45NzM4NXw3MTMuMDI2fDIwOS4yMjd8Ni45NzM4NQ==)"/>
  <line x1="198.55" y1="183.46" x2="198.55" y2="209.21" style="stroke-width: 1.07; stroke: #5ECD2E;" clip-path="url(#cpNi45NzM4NXw3MTMuMDI2fDIwOS4yMjd8Ni45NzM4NQ==)"/>
  <line x1="435.35" y1="24.65" x2="435.35" y2="209.21" style="stroke-width: 1.07; stroke: #5ECD2E;" clip-path="url(#cpNi45NzM4NXw3MTMuMDI2fDIwOS4yMjd8Ni45NzM4NQ==)"/>
  <line x1="482.79" y1="61.19" x2="482.79" y2="209.21" style="stroke-width: 1.07; stroke: #AF0DC7;" clip-path="url(#cpNi45NzM4NXw3MTMuMDI2fDIwOS4yMjd8Ni45NzM4NQ==)"/>
  <line x1="413.38" y1="43.10" x2="413.38" y2="209.21" style="stroke-width: 1.07; stroke: #0073D7;" clip-path="url(#cpNi45NzM4NXw3MTMuMDI2fDIwOS4yMjd8Ni45NzM4NQ==)"/>
  <line x1="611.08" y1="24.65" x2="611.08" y2="209.21" style="stroke-width: 1.07; stroke: #AF0DC7;" clip-path="url(#cpNi45NzM4NXw3MTMuMDI2fDIwOS4yMjd8Ni45NzM4NQ==)"/>
  <line x1="602.29" y1="101.01" x2="602.29" y2="209.21" style="stroke-width: 1.07; stroke: #AF0DC7;" clip-path="url(#cpNi45NzM4NXw3MTMuMDI2fDIwOS4yMjd8Ni45NzM4NQ==)"/>
  <line x1="460.39" y1="83.11" x2="460.39" y2="209.21" style="stroke-width: 1.07; stroke: #AF0DC7;" clip-path="url(#cpNi45NzM4NXw3MTMuMDI2fDIwOS4yMjd8Ni45NzM4NQ==)"/>
  <line x1="364.61" y1="122.67" x2="364.61" y2="209.21" style="stroke-width: 1.07; stroke: #5ECD2E;" clip-path="url(#cpNi45NzM4NXw3MTMuMDI2fDIwOS4yMjd8Ni45NzM4NQ==)"/>
  <defs>
    <clipPath id="cpNi45NzM4NXw3MTMuMDI2fDIwOS4yMjd8Ni45NzM4NQ==">
      <rect x="6.97" y="6.97" width="706.05" height="202.25"/>
    </clipPath>
  </defs>
  <polyline points="345.20,122.67 384.03,122.67 383.94,122.67 384.29,122.65 384.63,122.58 384.96,122.46 385.26,122.29 385.53,122.07 385.76,121.81 385.94,121.51 386.08,121.19 386.16,120.86 386.19,120.51 386.19,120.51 386.19,110.75 386.19,110.75 386.16,110.41 386.08,110.07 385.94,109.75 385.76,109.46 385.53,109.20 385.26,108.98 384.96,108.80 384.63,108.68 384.29,108.61 384.03,108.59 345.20,108.59 345.46,108.61 345.11,108.60 344.76,108.64 344.43,108.73 344.12,108.88 343.83,109.08 343.58,109.32 343.37,109.60 343.21,109.91 343.10,110.24 343.04,110.58 343.04,110.75 343.04,120.51 343.04,120.34 343.04,120.68 343.10,121.03 343.21,121.36 343.37,121.66 343.58,121.94 343.83,122.18 344.12,122.38 344.43,122.53 344.76,122.63 345.11,122.67 " style="stroke-width: 0.53; stroke: #5ECD2E; fill: #FFFFFF;" clip-path="url(#cpNi45NzM4NXw3MTMuMDI2fDIwOS4yMjd8Ni45NzM4NQ==)"/>
  <g clip-path="url(#cpNi45NzM4NXw3MTMuMDI2fDIwOS4yMjd8Ni45NzM4NQ==)">
    <text x="346.64" y="119.07" style="font-size: 9.96px; fill: #5ECD2E; font-family: Liberation Sans;" textLength="35.95px" lengthAdjust="spacingAndGlyphs">ECLAIR</text>
  </g>
  <polyline points="434.34,83.11 486.44,83.11 486.35,83.11 486.70,83.09 487.04,83.02 487.36,82.90 487.67,82.72 487.93,82.50 488.17,82.24 488.35,81.95 488.49,81.63 488.57,81.29 488.60,80.95 488.60,80.95 488.60,71.19 488.60,71.19 488.57,70.85 488.49,70.51 488.35,70.19 488.17,69.89 487.93,69.63 487.67,69.41 487.36,69.24 487.04,69.12 486.70,69.05 486.44,69.03 434.34,69.03 434.60,69.05 434.25,69.03 433.90,69.08 433.57,69.17 433.26,69.32 432.97,69.52 432.72,69.76 432.51,70.04 432.35,70.35 432.24,70.67 432.18,71.02 432.18,71.19 432.18,80.95 432.18,80.77 432.18,81.12 432.24,81.46 432.35,81.79 432.51,82.10 432.72,82.38 432.97,82.62 433.26,82.82 433.57,82.97 433.90,83.06 434.25,83.11 " style="stroke-width: 0.53; stroke: #AF0DC7; fill: #FFFFFF;" clip-path="url(#cpNi45NzM4NXw3MTMuMDI2fDIwOS4yMjd8Ni45NzM4NQ==)"/>
  <g clip-path="url(#cpNi45NzM4NXw3MTMuMDI2fDIwOS4yMjd8Ni45NzM4NQ==)">
    <text x="435.78" y="79.51" style="font-size: 9.96px; fill: #AF0DC7; font-family: Liberation Sans;" textLength="49.22px" lengthAdjust="spacingAndGlyphs">WaveCrest</text>
  </g>
  <polyline points="576.22,101.01 628.36,101.01 628.27,101.01 628.62,100.99 628.96,100.93 629.29,100.80 629.59,100.63 629.86,100.41 630.09,100.15 630.27,99.85 630.41,99.53 630.49,99.20 630.52,98.85 630.52,98.85 630.52,89.10 630.52,89.10 630.49,88.75 630.41,88.41 630.27,88.09 630.09,87.80 629.86,87.54 629.59,87.32 629.29,87.14 628.96,87.02 628.62,86.95 628.36,86.94 576.22,86.94 576.48,86.95 576.14,86.94 575.79,86.98 575.46,87.08 575.14,87.22 574.86,87.42 574.61,87.66 574.40,87.94 574.24,88.25 574.13,88.58 574.07,88.92 574.06,89.10 574.06,98.85 574.07,98.68 574.07,99.02 574.13,99.37 574.24,99.70 574.40,100.00 574.61,100.28 574.86,100.52 575.14,100.72 575.46,100.87 575.79,100.97 576.14,101.01 " style="stroke-width: 0.53; stroke: #AF0DC7; fill: #FFFFFF;" clip-path="url(#cpNi45NzM4NXw3MTMuMDI2fDIwOS4yMjd8Ni45NzM4NQ==)"/>
  <g clip-path="url(#cpNi45NzM4NXw3MTMuMDI2fDIwOS4yMjd8Ni45NzM4NQ==)">
    <text x="577.66" y="97.41" style="font-size: 9.96px; fill: #AF0DC7; font-family: Liberation Sans;" textLength="49.26px" lengthAdjust="spacingAndGlyphs">PhenoPath</text>
  </g>
  <polyline points="592.49,24.65 629.67,24.65 629.58,24.65 629.93,24.63 630.27,24.56 630.60,24.44 630.90,24.27 631.17,24.05 631.40,23.79 631.58,23.49 631.72,23.17 631.80,22.84 631.83,22.49 631.83,22.49 631.83,12.73 631.83,12.73 631.80,12.39 631.72,12.05 631.58,11.73 631.40,11.44 631.17,11.18 630.90,10.96 630.60,10.78 630.27,10.66 629.93,10.59 629.67,10.57 592.49,10.57 592.75,10.59 592.40,10.58 592.06,10.62 591.72,10.71 591.41,10.86 591.12,11.06 590.87,11.30 590.66,11.58 590.50,11.89 590.39,12.22 590.34,12.56 590.33,12.73 590.33,22.49 590.34,22.32 590.34,22.66 590.39,23.01 590.50,23.34 590.66,23.64 590.87,23.92 591.12,24.16 591.41,24.36 591.72,24.51 592.06,24.61 592.40,24.65 " style="stroke-width: 0.53; stroke: #AF0DC7; fill: #FFFFFF;" clip-path="url(#cpNi45NzM4NXw3MTMuMDI2fDIwOS4yMjd8Ni45NzM4NQ==)"/>
  <g clip-path="url(#cpNi45NzM4NXw3MTMuMDI2fDIwOS4yMjd8Ni45NzM4NQ==)">
    <text x="593.93" y="21.05" style="font-size: 9.96px; fill: #AF0DC7; font-family: Liberation Sans;" textLength="34.30px" lengthAdjust="spacingAndGlyphs">SoptSC</text>
  </g>
  <polyline points="389.81,43.10 436.95,43.10 436.86,43.09 437.21,43.08 437.55,43.01 437.87,42.89 438.18,42.71 438.44,42.49 438.68,42.23 438.86,41.94 439.00,41.62 439.08,41.28 439.11,40.94 439.11,40.94 439.11,31.18 439.11,31.18 439.08,30.83 439.00,30.50 438.86,30.18 438.68,29.88 438.44,29.62 438.18,29.40 437.87,29.23 437.55,29.11 437.21,29.04 436.95,29.02 389.81,29.02 390.07,29.04 389.72,29.02 389.38,29.06 389.04,29.16 388.73,29.31 388.44,29.51 388.19,29.75 387.98,30.03 387.82,30.33 387.71,30.66 387.66,31.01 387.65,31.18 387.65,40.94 387.66,40.76 387.66,41.11 387.71,41.45 387.82,41.78 387.98,42.09 388.19,42.37 388.44,42.61 388.73,42.81 389.04,42.95 389.38,43.05 389.72,43.09 " style="stroke-width: 0.53; stroke: #0073D7; fill: #FFFFFF;" clip-path="url(#cpNi45NzM4NXw3MTMuMDI2fDIwOS4yMjd8Ni45NzM4NQ==)"/>
  <g clip-path="url(#cpNi45NzM4NXw3MTMuMDI2fDIwOS4yMjd8Ni45NzM4NQ==)">
    <text x="391.25" y="39.50" style="font-size: 9.96px; fill: #0073D7; font-family: Liberation Sans;" textLength="44.26px" lengthAdjust="spacingAndGlyphs">Wishbone</text>
  </g>
  <polyline points="455.36,61.19 510.23,61.19 510.14,61.19 510.49,61.18 510.83,61.11 511.15,60.99 511.45,60.81 511.72,60.59 511.95,60.33 512.14,60.04 512.28,59.72 512.36,59.38 512.39,59.03 512.39,59.03 512.39,49.28 512.39,49.28 512.36,48.93 512.28,48.60 512.14,48.28 511.95,47.98 511.72,47.72 511.45,47.50 511.15,47.33 510.83,47.20 510.49,47.13 510.23,47.12 455.36,47.12 455.62,47.13 455.27,47.12 454.93,47.16 454.59,47.26 454.28,47.41 453.99,47.61 453.74,47.85 453.53,48.12 453.37,48.43 453.26,48.76 453.21,49.11 453.20,49.28 453.20,59.03 453.21,58.86 453.21,59.21 453.26,59.55 453.37,59.88 453.53,60.19 453.74,60.47 453.99,60.71 454.28,60.90 454.59,61.05 454.93,61.15 455.27,61.19 " style="stroke-width: 0.53; stroke: #AF0DC7; fill: #FFFFFF;" clip-path="url(#cpNi45NzM4NXw3MTMuMDI2fDIwOS4yMjd8Ni45NzM4NQ==)"/>
  <g clip-path="url(#cpNi45NzM4NXw3MTMuMDI2fDIwOS4yMjd8Ni45NzM4NQ==)">
    <text x="456.80" y="57.59" style="font-size: 9.96px; fill: #AF0DC7; font-family: Liberation Sans;" textLength="51.99px" lengthAdjust="spacingAndGlyphs">SCORPIUS</text>
  </g>
  <polyline points="417.31,24.65 453.38,24.65 453.29,24.65 453.64,24.63 453.98,24.56 454.30,24.44 454.60,24.27 454.87,24.05 455.10,23.79 455.29,23.49 455.43,23.17 455.51,22.84 455.54,22.49 455.54,22.49 455.54,12.73 455.54,12.73 455.51,12.39 455.43,12.05 455.29,11.73 455.10,11.44 454.87,11.18 454.60,10.96 454.30,10.78 453.98,10.66 453.64,10.59 453.38,10.57 417.31,10.57 417.57,10.59 417.23,10.58 416.88,10.62 416.55,10.71 416.23,10.86 415.95,11.06 415.70,11.30 415.49,11.58 415.33,11.89 415.22,12.22 415.16,12.56 415.15,12.73 415.15,22.49 415.16,22.32 415.16,22.66 415.22,23.01 415.33,23.34 415.49,23.64 415.70,23.92 415.95,24.16 416.23,24.36 416.55,24.51 416.88,24.61 417.23,24.65 " style="stroke-width: 0.53; stroke: #5ECD2E; fill: #FFFFFF;" clip-path="url(#cpNi45NzM4NXw3MTMuMDI2fDIwOS4yMjd8Ni45NzM4NQ==)"/>
  <g clip-path="url(#cpNi45NzM4NXw3MTMuMDI2fDIwOS4yMjd8Ni45NzM4NQ==)">
    <text x="418.75" y="21.05" style="font-size: 9.96px; fill: #5ECD2E; font-family: Liberation Sans;" textLength="33.18px" lengthAdjust="spacingAndGlyphs">StemID</text>
  </g>
  <polyline points="179.96,183.46 217.13,183.46 217.04,183.46 217.39,183.45 217.73,183.38 218.06,183.26 218.36,183.08 218.63,182.86 218.86,182.60 219.04,182.31 219.18,181.99 219.26,181.65 219.29,181.30 219.29,181.30 219.29,171.55 219.29,171.55 219.26,171.20 219.18,170.86 219.04,170.54 218.86,170.25 218.63,169.99 218.36,169.77 218.06,169.60 217.73,169.47 217.39,169.40 217.13,169.39 179.96,169.39 180.22,169.40 179.87,169.39 179.53,169.43 179.19,169.53 178.88,169.68 178.59,169.88 178.34,170.12 178.13,170.39 177.97,170.70 177.86,171.03 177.81,171.37 177.80,171.55 177.80,181.30 177.81,181.13 177.81,181.48 177.86,181.82 177.97,182.15 178.13,182.46 178.34,182.74 178.59,182.98 178.88,183.17 179.19,183.32 179.53,183.42 179.87,183.46 " style="stroke-width: 0.53; stroke: #5ECD2E; fill: #FFFFFF;" clip-path="url(#cpNi45NzM4NXw3MTMuMDI2fDIwOS4yMjd8Ni45NzM4NQ==)"/>
  <g clip-path="url(#cpNi45NzM4NXw3MTMuMDI2fDIwOS4yMjd8Ni45NzM4NQ==)">
    <text x="181.40" y="179.86" style="font-size: 9.96px; fill: #5ECD2E; font-family: Liberation Sans;" textLength="34.29px" lengthAdjust="spacingAndGlyphs">SCUBA</text>
  </g>
  <polyline points="600.02,63.93 634.44,63.93 634.35,63.93 634.70,63.91 635.04,63.84 635.36,63.72 635.66,63.55 635.93,63.33 636.16,63.07 636.35,62.77 636.49,62.45 636.57,62.12 636.60,61.77 636.60,61.77 636.60,52.01 636.60,52.01 636.57,51.67 636.49,51.33 636.35,51.01 636.16,50.72 635.93,50.46 635.66,50.24 635.36,50.06 635.04,49.94 634.70,49.87 634.44,49.85 600.02,49.85 600.28,49.87 599.93,49.86 599.59,49.90 599.26,49.99 598.94,50.14 598.66,50.34 598.40,50.58 598.20,50.86 598.03,51.17 597.92,51.50 597.87,51.84 597.86,52.01 597.86,61.77 597.87,61.60 597.87,61.94 597.92,62.29 598.03,62.62 598.20,62.92 598.40,63.20 598.66,63.44 598.94,63.64 599.26,63.79 599.59,63.89 599.93,63.93 " style="stroke-width: 0.53; stroke: #0073D7; fill: #FFFFFF;" clip-path="url(#cpNi45NzM4NXw3MTMuMDI2fDIwOS4yMjd8Ni45NzM4NQ==)"/>
  <g clip-path="url(#cpNi45NzM4NXw3MTMuMDI2fDIwOS4yMjd8Ni45NzM4NQ==)">
    <text x="601.46" y="60.33" style="font-size: 9.96px; fill: #0073D7; font-family: Liberation Sans;" textLength="31.54px" lengthAdjust="spacingAndGlyphs">scanpy</text>
  </g>
  <polyline points="520.60,46.04 558.33,46.04 558.25,46.03 558.59,46.02 558.93,45.95 559.26,45.83 559.56,45.65 559.83,45.43 560.06,45.17 560.25,44.88 560.38,44.56 560.46,44.22 560.49,43.88 560.49,43.88 560.49,34.12 560.49,34.12 560.46,33.77 560.38,33.44 560.25,33.12 560.06,32.82 559.83,32.56 559.56,32.34 559.26,32.17 558.93,32.05 558.59,31.98 558.33,31.96 520.60,31.96 520.86,31.98 520.52,31.96 520.17,32.00 519.84,32.10 519.52,32.25 519.24,32.45 518.99,32.69 518.78,32.97 518.62,33.27 518.51,33.60 518.45,33.95 518.44,34.12 518.44,43.88 518.45,43.70 518.45,44.05 518.51,44.39 518.62,44.72 518.78,45.03 518.99,45.31 519.24,45.55 519.52,45.75 519.84,45.90 520.17,45.99 520.52,46.03 " style="stroke-width: 0.53; stroke: #AF0DC7; fill: #FFFFFF;" clip-path="url(#cpNi45NzM4NXw3MTMuMDI2fDIwOS4yMjd8Ni45NzM4NQ==)"/>
  <g clip-path="url(#cpNi45NzM4NXw3MTMuMDI2fDIwOS4yMjd8Ni45NzM4NQ==)">
    <text x="522.04" y="42.44" style="font-size: 9.96px; fill: #AF0DC7; font-family: Liberation Sans;" textLength="34.85px" lengthAdjust="spacingAndGlyphs">topslam</text>
  </g>
  <polyline points="579.01,81.82 610.64,81.82 610.55,81.82 610.90,81.81 611.24,81.74 611.57,81.62 611.87,81.44 612.14,81.22 612.37,80.96 612.55,80.67 612.69,80.35 612.77,80.01 612.80,79.66 612.80,79.66 612.80,69.91 612.80,69.91 612.77,69.56 612.69,69.22 612.55,68.90 612.37,68.61 612.14,68.35 611.87,68.13 611.57,67.96 611.24,67.83 610.90,67.76 610.64,67.75 579.01,67.75 579.27,67.76 578.92,67.75 578.57,67.79 578.24,67.89 577.93,68.04 577.64,68.24 577.39,68.48 577.18,68.75 577.02,69.06 576.91,69.39 576.85,69.73 576.85,69.91 576.85,79.66 576.85,79.49 576.85,79.84 576.91,80.18 577.02,80.51 577.18,80.82 577.39,81.10 577.64,81.34 577.93,81.53 578.24,81.68 578.57,81.78 578.92,81.82 " style="stroke-width: 0.53; stroke: #39CCCC; fill: #FFFFFF;" clip-path="url(#cpNi45NzM4NXw3MTMuMDI2fDIwOS4yMjd8Ni45NzM4NQ==)"/>
  <g clip-path="url(#cpNi45NzM4NXw3MTMuMDI2fDIwOS4yMjd8Ni45NzM4NQ==)">
    <text x="580.45" y="78.22" style="font-size: 9.96px; fill: #39CCCC; font-family: Liberation Sans;" textLength="28.76px" lengthAdjust="spacingAndGlyphs">reCAT</text>
  </g>
  <polyline points="474.59,118.27 511.20,118.27 511.12,118.27 511.47,118.25 511.81,118.18 512.13,118.06 512.43,117.89 512.70,117.67 512.93,117.41 513.12,117.11 513.25,116.79 513.34,116.45 513.36,116.11 513.36,116.11 513.36,106.35 513.36,106.35 513.34,106.01 513.25,105.67 513.12,105.35 512.93,105.05 512.70,104.79 512.43,104.57 512.13,104.40 511.81,104.28 511.47,104.21 511.20,104.19 474.59,104.19 474.85,104.21 474.50,104.19 474.16,104.24 473.83,104.33 473.51,104.48 473.23,104.68 472.98,104.92 472.77,105.20 472.60,105.51 472.49,105.84 472.44,106.18 472.43,106.35 472.43,116.11 472.44,115.93 472.44,116.28 472.49,116.62 472.60,116.95 472.77,117.26 472.98,117.54 473.23,117.78 473.51,117.98 473.83,118.13 474.16,118.22 474.50,118.27 " style="stroke-width: 0.53; stroke: #AF0DC7; fill: #FFFFFF;" clip-path="url(#cpNi45NzM4NXw3MTMuMDI2fDIwOS4yMjd8Ni45NzM4NQ==)"/>
  <g clip-path="url(#cpNi45NzM4NXw3MTMuMDI2fDIwOS4yMjd8Ni45NzM4NQ==)">
    <text x="476.03" y="114.67" style="font-size: 9.96px; fill: #AF0DC7; font-family: Liberation Sans;" textLength="33.73px" lengthAdjust="spacingAndGlyphs">SCENT</text>
  </g>
  <polyline points="652.16,107.91 681.59,107.91 681.50,107.91 681.85,107.89 682.19,107.82 682.52,107.70 682.82,107.53 683.09,107.31 683.32,107.05 683.50,106.75 683.64,106.43 683.72,106.10 683.75,105.75 683.75,105.75 683.75,95.99 683.75,95.99 683.72,95.65 683.64,95.31 683.50,94.99 683.32,94.70 683.09,94.44 682.82,94.22 682.52,94.04 682.19,93.92 681.85,93.85 681.59,93.83 652.16,93.83 652.42,93.85 652.07,93.84 651.73,93.88 651.39,93.98 651.08,94.12 650.79,94.32 650.54,94.56 650.33,94.84 650.17,95.15 650.06,95.48 650.01,95.82 650.00,95.99 650.00,105.75 650.01,105.58 650.01,105.92 650.06,106.27 650.17,106.60 650.33,106.90 650.54,107.18 650.79,107.42 651.08,107.62 651.39,107.77 651.73,107.87 652.07,107.91 " style="stroke-width: 0.53; stroke: #AF0DC7; fill: #FFFFFF;" clip-path="url(#cpNi45NzM4NXw3MTMuMDI2fDIwOS4yMjd8Ni45NzM4NQ==)"/>
  <g clip-path="url(#cpNi45NzM4NXw3MTMuMDI2fDIwOS4yMjd8Ni45NzM4NQ==)">
    <text x="653.60" y="104.31" style="font-size: 9.96px; fill: #AF0DC7; font-family: Liberation Sans;" textLength="26.55px" lengthAdjust="spacingAndGlyphs">iCpSc</text>
  </g>
  <polyline points="282.40,97.08 342.27,97.08 342.18,97.08 342.53,97.07 342.87,97.00 343.19,96.87 343.50,96.70 343.76,96.48 344.00,96.22 344.18,95.92 344.32,95.60 344.40,95.27 344.43,94.92 344.43,94.92 344.43,85.17 344.43,85.17 344.40,84.82 344.32,84.48 344.18,84.16 344.00,83.87 343.76,83.61 343.50,83.39 343.19,83.21 342.87,83.09 342.53,83.02 342.27,83.01 282.40,83.01 282.66,83.02 282.31,83.01 281.96,83.05 281.63,83.15 281.32,83.30 281.03,83.49 280.78,83.73 280.57,84.01 280.41,84.32 280.30,84.65 280.24,84.99 280.24,85.17 280.24,94.92 280.24,94.75 280.24,95.09 280.30,95.44 280.41,95.77 280.57,96.08 280.78,96.35 281.03,96.59 281.32,96.79 281.63,96.94 281.96,97.04 282.31,97.08 " style="stroke-width: 0.53; stroke: #AF0DC7; fill: #FFFFFF;" clip-path="url(#cpNi45NzM4NXw3MTMuMDI2fDIwOS4yMjd8Ni45NzM4NQ==)"/>
  <g clip-path="url(#cpNi45NzM4NXw3MTMuMDI2fDIwOS4yMjd8Ni45NzM4NQ==)">
    <text x="283.84" y="93.48" style="font-size: 9.96px; fill: #AF0DC7; font-family: Liberation Sans;" textLength="56.99px" lengthAdjust="spacingAndGlyphs">gpseudotime</text>
  </g>
  <polyline points="399.91,62.22 436.52,62.22 436.43,62.22 436.78,62.21 437.12,62.14 437.44,62.01 437.75,61.84 438.01,61.62 438.24,61.36 438.43,61.07 438.57,60.75 438.65,60.41 438.68,60.06 438.68,60.06 438.68,50.31 438.68,50.31 438.65,49.96 438.57,49.62 438.43,49.30 438.24,49.01 438.01,48.75 437.75,48.53 437.44,48.36 437.12,48.23 436.78,48.16 436.52,48.15 399.91,48.15 400.17,48.16 399.82,48.15 399.47,48.19 399.14,48.29 398.83,48.44 398.54,48.63 398.29,48.87 398.08,49.15 397.92,49.46 397.81,49.79 397.75,50.13 397.75,50.31 397.75,60.06 397.75,59.89 397.75,60.24 397.81,60.58 397.92,60.91 398.08,61.22 398.29,61.49 398.54,61.73 398.83,61.93 399.14,62.08 399.47,62.18 399.82,62.22 " style="stroke-width: 0.53; stroke: #5ECD2E; fill: #FFFFFF;" clip-path="url(#cpNi45NzM4NXw3MTMuMDI2fDIwOS4yMjd8Ni45NzM4NQ==)"/>
  <g clip-path="url(#cpNi45NzM4NXw3MTMuMDI2fDIwOS4yMjd8Ni45NzM4NQ==)">
    <text x="401.35" y="58.62" style="font-size: 9.96px; fill: #5ECD2E; font-family: Liberation Sans;" textLength="33.73px" lengthAdjust="spacingAndGlyphs">TSCAN</text>
  </g>
  <polyline points="253.02,205.55 284.66,205.55 284.57,205.55 284.92,205.54 285.26,205.47 285.58,205.34 285.88,205.17 286.15,204.95 286.38,204.69 286.57,204.40 286.71,204.08 286.79,203.74 286.82,203.39 286.82,203.39 286.82,193.64 286.82,193.64 286.79,193.29 286.71,192.95 286.57,192.63 286.38,192.34 286.15,192.08 285.88,191.86 285.58,191.69 285.26,191.56 284.92,191.49 284.66,191.48 253.02,191.48 253.28,191.49 252.93,191.48 252.59,191.52 252.25,191.62 251.94,191.77 251.65,191.96 251.40,192.20 251.19,192.48 251.03,192.79 250.92,193.12 250.87,193.46 250.86,193.64 250.86,203.39 250.87,203.22 250.87,203.57 250.92,203.91 251.03,204.24 251.19,204.55 251.40,204.82 251.65,205.07 251.94,205.26 252.25,205.41 252.59,205.51 252.93,205.55 " style="stroke-width: 0.53; stroke: #AF0DC7; fill: #FFFFFF;" clip-path="url(#cpNi45NzM4NXw3MTMuMDI2fDIwOS4yMjd8Ni45NzM4NQ==)"/>
  <g clip-path="url(#cpNi45NzM4NXw3MTMuMDI2fDIwOS4yMjd8Ni45NzM4NQ==)">
    <text x="254.46" y="201.95" style="font-size: 9.96px; fill: #AF0DC7; font-family: Liberation Sans;" textLength="28.76px" lengthAdjust="spacingAndGlyphs">NBOR</text>
  </g>
  <polyline points="638.10,129.71 682.47,129.71 682.38,129.71 682.73,129.70 683.07,129.63 683.40,129.50 683.70,129.33 683.97,129.11 684.20,128.85 684.38,128.56 684.52,128.24 684.60,127.90 684.63,127.55 684.63,127.55 684.63,117.80 684.63,117.80 684.60,117.45 684.52,117.11 684.38,116.79 684.20,116.50 683.97,116.24 683.70,116.02 683.40,115.85 683.07,115.72 682.73,115.65 682.47,115.64 638.10,115.64 638.36,115.65 638.01,115.64 637.67,115.68 637.33,115.78 637.02,115.93 636.73,116.13 636.48,116.37 636.27,116.64 636.11,116.95 636.00,117.28 635.94,117.62 635.94,117.80 635.94,127.55 635.94,127.38 635.94,127.73 636.00,128.07 636.11,128.40 636.27,128.71 636.48,128.99 636.73,129.23 637.02,129.42 637.33,129.57 637.67,129.67 638.01,129.71 " style="stroke-width: 0.53; stroke: #5ECD2E; fill: #FFFFFF;" clip-path="url(#cpNi45NzM4NXw3MTMuMDI2fDIwOS4yMjd8Ni45NzM4NQ==)"/>
  <g clip-path="url(#cpNi45NzM4NXw3MTMuMDI2fDIwOS4yMjd8Ni45NzM4NQ==)">
    <text x="639.54" y="126.11" style="font-size: 9.96px; fill: #5ECD2E; font-family: Liberation Sans;" textLength="41.49px" lengthAdjust="spacingAndGlyphs">p-Creode</text>
  </g>
  <polyline points="365.08,202.90 387.87,202.90 387.78,202.89 388.13,202.88 388.47,202.81 388.79,202.69 389.10,202.51 389.36,202.29 389.59,202.03 389.78,201.74 389.92,201.42 390.00,201.08 390.03,200.74 390.03,200.74 390.03,190.98 390.03,190.98 390.00,190.63 389.92,190.30 389.78,189.98 389.59,189.68 389.36,189.42 389.10,189.20 388.79,189.03 388.47,188.91 388.13,188.84 387.87,188.82 365.08,188.82 365.34,188.84 364.99,188.82 364.65,188.86 364.32,188.96 364.00,189.11 363.72,189.31 363.47,189.55 363.26,189.83 363.09,190.13 362.98,190.46 362.93,190.81 362.92,190.98 362.92,200.74 362.93,200.56 362.93,200.91 362.98,201.25 363.09,201.58 363.26,201.89 363.47,202.17 363.72,202.41 364.00,202.61 364.32,202.75 364.65,202.85 364.99,202.89 " style="stroke-width: 0.53; stroke: #0073D7; fill: #FFFFFF;" clip-path="url(#cpNi45NzM4NXw3MTMuMDI2fDIwOS4yMjd8Ni45NzM4NQ==)"/>
  <g clip-path="url(#cpNi45NzM4NXw3MTMuMDI2fDIwOS4yMjd8Ni45NzM4NQ==)">
    <text x="366.52" y="199.30" style="font-size: 9.96px; fill: #0073D7; font-family: Liberation Sans;" textLength="19.91px" lengthAdjust="spacingAndGlyphs">DPT</text>
  </g>
  <polyline points="556.93,198.33 589.67,198.33 589.58,198.33 589.93,198.32 590.27,198.25 590.59,198.12 590.89,197.95 591.16,197.73 591.39,197.47 591.58,197.18 591.71,196.86 591.80,196.52 591.83,196.17 591.83,196.17 591.83,186.42 591.83,186.42 591.80,186.07 591.71,185.73 591.58,185.41 591.39,185.12 591.16,184.86 590.89,184.64 590.59,184.47 590.27,184.34 589.93,184.27 589.67,184.26 556.93,184.26 557.19,184.27 556.84,184.26 556.49,184.30 556.16,184.40 555.85,184.55 555.56,184.74 555.31,184.98 555.10,185.26 554.94,185.57 554.83,185.90 554.77,186.24 554.77,186.42 554.77,196.17 554.77,196.00 554.77,196.35 554.83,196.69 554.94,197.02 555.10,197.33 555.31,197.60 555.56,197.84 555.85,198.04 556.16,198.19 556.49,198.29 556.84,198.33 " style="stroke-width: 0.53; stroke: #AF0DC7; fill: #FFFFFF;" clip-path="url(#cpNi45NzM4NXw3MTMuMDI2fDIwOS4yMjd8Ni45NzM4NQ==)"/>
  <g clip-path="url(#cpNi45NzM4NXw3MTMuMDI2fDIwOS4yMjd8Ni45NzM4NQ==)">
    <text x="558.37" y="194.73" style="font-size: 9.96px; fill: #AF0DC7; font-family: Liberation Sans;" textLength="29.86px" lengthAdjust="spacingAndGlyphs">scTDA</text>
  </g>
  <polyline points="378.21,83.13 424.82,83.13 424.73,83.13 425.08,83.12 425.42,83.05 425.75,82.92 426.05,82.75 426.32,82.53 426.55,82.27 426.73,81.98 426.87,81.66 426.95,81.32 426.98,80.97 426.98,80.97 426.98,71.22 426.98,71.22 426.95,70.87 426.87,70.53 426.73,70.21 426.55,69.92 426.32,69.66 426.05,69.44 425.75,69.27 425.42,69.14 425.08,69.07 424.82,69.06 378.21,69.06 378.47,69.07 378.13,69.06 377.78,69.10 377.45,69.20 377.13,69.35 376.85,69.54 376.60,69.79 376.39,70.06 376.23,70.37 376.12,70.70 376.06,71.04 376.05,71.22 376.05,80.97 376.06,80.80 376.06,81.15 376.12,81.49 376.23,81.82 376.39,82.13 376.60,82.41 376.85,82.65 377.13,82.84 377.45,82.99 377.78,83.09 378.13,83.13 " style="stroke-width: 0.53; stroke: #AF0DC7; fill: #FFFFFF;" clip-path="url(#cpNi45NzM4NXw3MTMuMDI2fDIwOS4yMjd8Ni45NzM4NQ==)"/>
  <g clip-path="url(#cpNi45NzM4NXw3MTMuMDI2fDIwOS4yMjd8Ni45NzM4NQ==)">
    <text x="379.65" y="79.53" style="font-size: 9.96px; fill: #AF0DC7; font-family: Liberation Sans;" textLength="43.72px" lengthAdjust="spacingAndGlyphs">pseudogp</text>
  </g>
  <polyline points="439.49,140.99 477.77,140.99 477.68,140.99 478.03,140.97 478.37,140.90 478.70,140.78 479.00,140.61 479.27,140.39 479.50,140.13 479.68,139.83 479.82,139.51 479.90,139.18 479.93,138.83 479.93,138.83 479.93,129.07 479.93,129.07 479.90,128.73 479.82,128.39 479.68,128.07 479.50,127.78 479.27,127.52 479.00,127.30 478.70,127.12 478.37,127.00 478.03,126.93 477.77,126.91 439.49,126.91 439.75,126.93 439.40,126.92 439.06,126.96 438.72,127.05 438.41,127.20 438.12,127.40 437.87,127.64 437.66,127.92 437.50,128.23 437.39,128.56 437.34,128.90 437.33,129.07 437.33,138.83 437.34,138.66 437.34,139.00 437.39,139.35 437.50,139.68 437.66,139.98 437.87,140.26 438.12,140.50 438.41,140.70 438.72,140.85 439.06,140.95 439.40,140.99 " style="stroke-width: 0.53; stroke: #5ECD2E; fill: #FFFFFF;" clip-path="url(#cpNi45NzM4NXw3MTMuMDI2fDIwOS4yMjd8Ni45NzM4NQ==)"/>
  <g clip-path="url(#cpNi45NzM4NXw3MTMuMDI2fDIwOS4yMjd8Ni45NzM4NQ==)">
    <text x="440.93" y="137.39" style="font-size: 9.96px; fill: #5ECD2E; font-family: Liberation Sans;" textLength="35.40px" lengthAdjust="spacingAndGlyphs">cellTree</text>
  </g>
  <polyline points="644.35,151.85 692.03,151.85 691.95,151.84 692.29,151.83 692.63,151.76 692.96,151.64 693.26,151.46 693.53,151.24 693.76,150.98 693.95,150.69 694.08,150.37 694.17,150.03 694.19,149.69 694.19,149.69 694.19,139.93 694.19,139.93 694.17,139.58 694.08,139.25 693.95,138.93 693.76,138.63 693.53,138.37 693.26,138.15 692.96,137.98 692.63,137.86 692.29,137.79 692.03,137.77 644.35,137.77 644.61,137.79 644.26,137.77 643.92,137.81 643.58,137.91 643.27,138.06 642.98,138.26 642.73,138.50 642.52,138.78 642.36,139.08 642.25,139.41 642.20,139.76 642.19,139.93 642.19,149.69 642.20,149.51 642.20,149.86 642.25,150.20 642.36,150.53 642.52,150.84 642.73,151.12 642.98,151.36 643.27,151.56 643.58,151.71 643.92,151.80 644.26,151.84 " style="stroke-width: 0.53; stroke: #CFBF00; fill: #FFFFFF;" clip-path="url(#cpNi45NzM4NXw3MTMuMDI2fDIwOS4yMjd8Ni45NzM4NQ==)"/>
  <g clip-path="url(#cpNi45NzM4NXw3MTMuMDI2fDIwOS4yMjd8Ni45NzM4NQ==)">
    <text x="645.79" y="148.25" style="font-size: 9.96px; fill: #CFBF00; font-family: Liberation Sans;" textLength="44.80px" lengthAdjust="spacingAndGlyphs">GrandPrix</text>
  </g>
  <polyline points="423.17,197.34 449.28,197.34 449.19,197.33 449.54,197.32 449.88,197.25 450.21,197.13 450.51,196.95 450.78,196.73 451.01,196.47 451.19,196.18 451.33,195.86 451.41,195.52 451.44,195.18 451.44,195.18 451.44,185.42 451.44,185.42 451.41,185.07 451.33,184.74 451.19,184.42 451.01,184.12 450.78,183.86 450.51,183.64 450.21,183.47 449.88,183.35 449.54,183.28 449.28,183.26 423.17,183.26 423.43,183.28 423.08,183.26 422.73,183.30 422.40,183.40 422.09,183.55 421.80,183.75 421.55,183.99 421.34,184.27 421.18,184.57 421.07,184.90 421.01,185.25 421.01,185.42 421.01,195.18 421.01,195.00 421.01,195.35 421.07,195.69 421.18,196.02 421.34,196.33 421.55,196.61 421.80,196.85 422.09,197.05 422.40,197.20 422.73,197.29 423.08,197.33 " style="stroke-width: 0.53; stroke: #AF0DC7; fill: #FFFFFF;" clip-path="url(#cpNi45NzM4NXw3MTMuMDI2fDIwOS4yMjd8Ni45NzM4NQ==)"/>
  <g clip-path="url(#cpNi45NzM4NXw3MTMuMDI2fDIwOS4yMjd8Ni45NzM4NQ==)">
    <text x="424.61" y="193.74" style="font-size: 9.96px; fill: #AF0DC7; font-family: Liberation Sans;" textLength="23.24px" lengthAdjust="spacingAndGlyphs">Ouija</text>
  </g>
  <polyline points="410.29,121.46 456.89,121.46 456.80,121.46 457.15,121.45 457.49,121.38 457.81,121.26 458.11,121.08 458.38,120.86 458.61,120.60 458.80,120.31 458.93,119.99 459.02,119.65 459.05,119.30 459.05,119.30 459.05,109.55 459.05,109.55 459.02,109.20 458.93,108.87 458.80,108.55 458.61,108.25 458.38,107.99 458.11,107.77 457.81,107.60 457.49,107.47 457.15,107.40 456.89,107.39 410.29,107.39 410.55,107.40 410.20,107.39 409.86,107.43 409.52,107.53 409.21,107.68 408.92,107.88 408.67,108.12 408.47,108.39 408.30,108.70 408.19,109.03 408.14,109.38 408.13,109.55 408.13,119.30 408.14,119.13 408.14,119.48 408.19,119.82 408.30,120.15 408.47,120.46 408.67,120.74 408.92,120.98 409.21,121.17 409.52,121.32 409.86,121.42 410.20,121.46 " style="stroke-width: 0.53; stroke: #AF0DC7; fill: #FFFFFF;" clip-path="url(#cpNi45NzM4NXw3MTMuMDI2fDIwOS4yMjd8Ni45NzM4NQ==)"/>
  <g clip-path="url(#cpNi45NzM4NXw3MTMuMDI2fDIwOS4yMjd8Ni45NzM4NQ==)">
    <text x="411.73" y="117.86" style="font-size: 9.96px; fill: #AF0DC7; font-family: Liberation Sans;" textLength="43.72px" lengthAdjust="spacingAndGlyphs">DeLorean</text>
  </g>
  <polyline points="570.97,45.75 623.07,45.75 622.98,45.75 623.33,45.73 623.67,45.66 623.99,45.54 624.29,45.37 624.56,45.15 624.79,44.89 624.98,44.59 625.11,44.27 625.20,43.94 625.23,43.59 625.23,43.59 625.23,33.83 625.23,33.83 625.20,33.49 625.11,33.15 624.98,32.83 624.79,32.54 624.56,32.28 624.29,32.06 623.99,31.88 623.67,31.76 623.33,31.69 623.07,31.67 570.97,31.67 571.23,31.69 570.89,31.68 570.54,31.72 570.21,31.82 569.89,31.96 569.61,32.16 569.36,32.40 569.15,32.68 568.99,32.99 568.88,33.32 568.82,33.66 568.81,33.83 568.81,43.59 568.82,43.42 568.82,43.76 568.88,44.11 568.99,44.44 569.15,44.74 569.36,45.02 569.61,45.26 569.89,45.46 570.21,45.61 570.54,45.71 570.89,45.75 " style="stroke-width: 0.53; stroke: #AF0DC7; fill: #FFFFFF;" clip-path="url(#cpNi45NzM4NXw3MTMuMDI2fDIwOS4yMjd8Ni45NzM4NQ==)"/>
  <g clip-path="url(#cpNi45NzM4NXw3MTMuMDI2fDIwOS4yMjd8Ni45NzM4NQ==)">
    <text x="572.41" y="42.15" style="font-size: 9.96px; fill: #AF0DC7; font-family: Liberation Sans;" textLength="49.21px" lengthAdjust="spacingAndGlyphs">MATCHER</text>
  </g>
  <polyline points="394.34,143.05 421.00,143.05 420.91,143.04 421.26,143.03 421.60,142.96 421.93,142.84 422.23,142.66 422.50,142.44 422.73,142.18 422.91,141.89 423.05,141.57 423.13,141.23 423.16,140.89 423.16,140.89 423.16,131.13 423.16,131.13 423.13,130.78 423.05,130.45 422.91,130.13 422.73,129.83 422.50,129.57 422.23,129.35 421.93,129.18 421.60,129.06 421.26,128.99 421.00,128.97 394.34,128.97 394.60,128.99 394.25,128.97 393.90,129.01 393.57,129.11 393.26,129.26 392.97,129.46 392.72,129.70 392.51,129.98 392.35,130.28 392.24,130.61 392.18,130.96 392.18,131.13 392.18,140.89 392.18,140.71 392.18,141.06 392.24,141.40 392.35,141.73 392.51,142.04 392.72,142.32 392.97,142.56 393.26,142.76 393.57,142.91 393.90,143.00 394.25,143.04 " style="stroke-width: 0.53; stroke: #AF0DC7; fill: #FFFFFF;" clip-path="url(#cpNi45NzM4NXw3MTMuMDI2fDIwOS4yMjd8Ni45NzM4NQ==)"/>
  <g clip-path="url(#cpNi45NzM4NXw3MTMuMDI2fDIwOS4yMjd8Ni45NzM4NQ==)">
    <text x="395.78" y="139.45" style="font-size: 9.96px; fill: #AF0DC7; font-family: Liberation Sans;" textLength="23.78px" lengthAdjust="spacingAndGlyphs">SCell</text>
  </g>
  <polyline points="383.86,181.95 422.69,181.95 422.60,181.95 422.95,181.94 423.29,181.87 423.62,181.74 423.92,181.57 424.19,181.35 424.42,181.09 424.60,180.80 424.74,180.48 424.82,180.14 424.85,179.79 424.85,179.79 424.85,170.04 424.85,170.04 424.82,169.69 424.74,169.35 424.60,169.03 424.42,168.74 424.19,168.48 423.92,168.26 423.62,168.09 423.29,167.96 422.95,167.89 422.69,167.88 383.86,167.88 384.12,167.89 383.77,167.88 383.43,167.92 383.09,168.02 382.78,168.17 382.49,168.36 382.24,168.61 382.03,168.88 381.87,169.19 381.76,169.52 381.70,169.86 381.70,170.04 381.70,179.79 381.70,179.62 381.70,179.97 381.76,180.31 381.87,180.64 382.03,180.95 382.24,181.23 382.49,181.47 382.78,181.66 383.09,181.81 383.43,181.91 383.77,181.95 " style="stroke-width: 0.53; stroke: #FF8821; fill: #FFFFFF;" clip-path="url(#cpNi45NzM4NXw3MTMuMDI2fDIwOS4yMjd8Ni45NzM4NQ==)"/>
  <g clip-path="url(#cpNi45NzM4NXw3MTMuMDI2fDIwOS4yMjd8Ni45NzM4NQ==)">
    <text x="385.30" y="178.35" style="font-size: 9.96px; fill: #FF8821; font-family: Liberation Sans;" textLength="35.95px" lengthAdjust="spacingAndGlyphs">SLICER</text>
  </g>
  <polyline points="583.29,117.46 626.57,117.46 626.48,117.46 626.83,117.45 627.17,117.38 627.49,117.26 627.80,117.08 628.06,116.86 628.30,116.60 628.48,116.31 628.62,115.99 628.70,115.65 628.73,115.30 628.73,115.30 628.73,105.55 628.73,105.55 628.70,105.20 628.62,104.87 628.48,104.55 628.30,104.25 628.06,103.99 627.80,103.77 627.49,103.60 627.17,103.47 626.83,103.41 626.57,103.39 583.29,103.39 583.55,103.41 583.20,103.39 582.86,103.43 582.52,103.53 582.21,103.68 581.92,103.88 581.67,104.12 581.46,104.40 581.30,104.70 581.19,105.03 581.13,105.38 581.13,105.55 581.13,115.30 581.13,115.13 581.13,115.48 581.19,115.82 581.30,116.15 581.46,116.46 581.67,116.74 581.92,116.98 582.21,117.18 582.52,117.32 582.86,117.42 583.20,117.46 " style="stroke-width: 0.53; stroke: #AF0DC7; fill: #FFFFFF;" clip-path="url(#cpNi45NzM4NXw3MTMuMDI2fDIwOS4yMjd8Ni45NzM4NQ==)"/>
  <g clip-path="url(#cpNi45NzM4NXw3MTMuMDI2fDIwOS4yMjd8Ni45NzM4NQ==)">
    <text x="584.73" y="113.86" style="font-size: 9.96px; fill: #AF0DC7; font-family: Liberation Sans;" textLength="40.40px" lengthAdjust="spacingAndGlyphs">HopLand</text>
  </g>
  <polyline points="499.04,204.70 530.69,204.70 530.60,204.70 530.95,204.69 531.29,204.62 531.61,204.50 531.91,204.32 532.18,204.10 532.41,203.84 532.60,203.55 532.74,203.23 532.82,202.89 532.85,202.54 532.85,202.54 532.85,192.79 532.85,192.79 532.82,192.44 532.74,192.10 532.60,191.78 532.41,191.49 532.18,191.23 531.91,191.01 531.61,190.84 531.29,190.71 530.95,190.64 530.69,190.63 499.04,190.63 499.30,190.64 498.96,190.63 498.61,190.67 498.28,190.77 497.96,190.92 497.68,191.12 497.43,191.36 497.22,191.63 497.05,191.94 496.94,192.27 496.89,192.61 496.88,192.79 496.88,202.54 496.89,202.37 496.89,202.72 496.94,203.06 497.05,203.39 497.22,203.70 497.43,203.98 497.68,204.22 497.96,204.41 498.28,204.56 498.61,204.66 498.96,204.70 " style="stroke-width: 0.53; stroke: #5ECD2E; fill: #FFFFFF;" clip-path="url(#cpNi45NzM4NXw3MTMuMDI2fDIwOS4yMjd8Ni45NzM4NQ==)"/>
  <g clip-path="url(#cpNi45NzM4NXw3MTMuMDI2fDIwOS4yMjd8Ni45NzM4NQ==)">
    <text x="500.48" y="201.10" style="font-size: 9.96px; fill: #5ECD2E; font-family: Liberation Sans;" textLength="28.77px" lengthAdjust="spacingAndGlyphs">SLICE</text>
  </g>
  <polyline points="545.34,24.65 577.53,24.65 577.44,24.65 577.79,24.63 578.13,24.56 578.46,24.44 578.76,24.27 579.03,24.05 579.26,23.79 579.44,23.49 579.58,23.17 579.66,22.84 579.69,22.49 579.69,22.49 579.69,12.73 579.69,12.73 579.66,12.39 579.58,12.05 579.44,11.73 579.26,11.44 579.03,11.18 578.76,10.96 578.46,10.78 578.13,10.66 577.79,10.59 577.53,10.57 545.34,10.57 545.60,10.59 545.25,10.58 544.91,10.62 544.57,10.71 544.26,10.86 543.97,11.06 543.72,11.30 543.51,11.58 543.35,11.89 543.24,12.22 543.19,12.56 543.18,12.73 543.18,22.49 543.19,22.32 543.19,22.66 543.24,23.01 543.35,23.34 543.51,23.64 543.72,23.92 543.97,24.16 544.26,24.36 544.57,24.51 544.91,24.61 545.25,24.65 " style="stroke-width: 0.53; stroke: #5ECD2E; fill: #FFFFFF;" clip-path="url(#cpNi45NzM4NXw3MTMuMDI2fDIwOS4yMjd8Ni45NzM4NQ==)"/>
  <g clip-path="url(#cpNi45NzM4NXw3MTMuMDI2fDIwOS4yMjd8Ni45NzM4NQ==)">
    <text x="546.78" y="21.05" style="font-size: 9.96px; fill: #5ECD2E; font-family: Liberation Sans;" textLength="29.31px" lengthAdjust="spacingAndGlyphs">TASIC</text>
  </g>
  <polyline points="456.26,183.14 506.69,183.14 506.61,183.14 506.95,183.13 507.29,183.06 507.62,182.94 507.92,182.76 508.19,182.54 508.42,182.28 508.61,181.99 508.74,181.67 508.82,181.33 508.85,180.98 508.85,180.98 508.85,171.23 508.85,171.23 508.82,170.88 508.74,170.55 508.61,170.23 508.42,169.93 508.19,169.67 507.92,169.45 507.62,169.28 507.29,169.16 506.95,169.09 506.69,169.07 456.26,169.07 456.52,169.09 456.17,169.07 455.83,169.11 455.49,169.21 455.18,169.36 454.89,169.56 454.64,169.80 454.43,170.08 454.27,170.38 454.16,170.71 454.11,171.06 454.10,171.23 454.10,180.98 454.11,180.81 454.11,181.16 454.16,181.50 454.27,181.83 454.43,182.14 454.64,182.42 454.89,182.66 455.18,182.86 455.49,183.00 455.83,183.10 456.17,183.14 " style="stroke-width: 0.53; stroke: #AF0DC7; fill: #FFFFFF;" clip-path="url(#cpNi45NzM4NXw3MTMuMDI2fDIwOS4yMjd8Ni45NzM4NQ==)"/>
  <g clip-path="url(#cpNi45NzM4NXw3MTMuMDI2fDIwOS4yMjd8Ni45NzM4NQ==)">
    <text x="457.70" y="179.54" style="font-size: 9.96px; fill: #AF0DC7; font-family: Liberation Sans;" textLength="47.55px" lengthAdjust="spacingAndGlyphs">SCIMITAR</text>
  </g>
  <polyline points="424.03,104.25 454.57,104.25 454.48,104.25 454.83,104.23 455.17,104.16 455.50,104.04 455.80,103.87 456.07,103.65 456.30,103.39 456.48,103.09 456.62,102.77 456.70,102.44 456.73,102.09 456.73,102.09 456.73,92.33 456.73,92.33 456.70,91.99 456.62,91.65 456.48,91.33 456.30,91.04 456.07,90.78 455.80,90.56 455.50,90.38 455.17,90.26 454.83,90.19 454.57,90.17 424.03,90.17 424.29,90.19 423.94,90.18 423.60,90.22 423.26,90.31 422.95,90.46 422.66,90.66 422.41,90.90 422.20,91.18 422.04,91.49 421.93,91.82 421.88,92.16 421.87,92.33 421.87,102.09 421.88,101.92 421.88,102.26 421.93,102.61 422.04,102.94 422.20,103.24 422.41,103.52 422.66,103.76 422.95,103.96 423.26,104.11 423.60,104.21 423.94,104.25 " style="stroke-width: 0.53; stroke: #5ECD2E; fill: #FFFFFF;" clip-path="url(#cpNi45NzM4NXw3MTMuMDI2fDIwOS4yMjd8Ni45NzM4NQ==)"/>
  <g clip-path="url(#cpNi45NzM4NXw3MTMuMDI2fDIwOS4yMjd8Ni45NzM4NQ==)">
    <text x="425.47" y="100.65" style="font-size: 9.96px; fill: #5ECD2E; font-family: Liberation Sans;" textLength="27.66px" lengthAdjust="spacingAndGlyphs">Mpath</text>
  </g>
  <polyline points="540.70,104.90 564.59,104.90 564.51,104.90 564.85,104.89 565.19,104.82 565.52,104.70 565.82,104.52 566.09,104.30 566.32,104.04 566.50,103.75 566.64,103.43 566.72,103.09 566.75,102.74 566.75,102.74 566.75,92.99 566.75,92.99 566.72,92.64 566.64,92.31 566.50,91.99 566.32,91.69 566.09,91.43 565.82,91.21 565.52,91.04 565.19,90.91 564.85,90.85 564.59,90.83 540.70,90.83 540.96,90.85 540.62,90.83 540.27,90.87 539.94,90.97 539.62,91.12 539.34,91.32 539.09,91.56 538.88,91.84 538.72,92.14 538.61,92.47 538.55,92.82 538.54,92.99 538.54,102.74 538.55,102.57 538.55,102.92 538.61,103.26 538.72,103.59 538.88,103.90 539.09,104.18 539.34,104.42 539.62,104.62 539.94,104.76 540.27,104.86 540.62,104.90 " style="stroke-width: 0.53; stroke: #CFBF00; fill: #FFFFFF;" clip-path="url(#cpNi45NzM4NXw3MTMuMDI2fDIwOS4yMjd8Ni45NzM4NQ==)"/>
  <g clip-path="url(#cpNi45NzM4NXw3MTMuMDI2fDIwOS4yMjd8Ni45NzM4NQ==)">
    <text x="542.14" y="101.30" style="font-size: 9.96px; fill: #CFBF00; font-family: Liberation Sans;" textLength="21.01px" lengthAdjust="spacingAndGlyphs">MFA</text>
  </g>
  <polyline points="518.58,81.18 567.38,81.18 567.30,81.18 567.64,81.16 567.98,81.09 568.31,80.97 568.61,80.80 568.88,80.58 569.11,80.32 569.30,80.02 569.43,79.70 569.52,79.36 569.54,79.02 569.54,79.02 569.54,69.26 569.54,69.26 569.52,68.92 569.43,68.58 569.30,68.26 569.11,67.97 568.88,67.71 568.61,67.49 568.31,67.31 567.98,67.19 567.64,67.12 567.38,67.10 518.58,67.10 518.84,67.12 518.49,67.10 518.15,67.15 517.82,67.24 517.50,67.39 517.22,67.59 516.96,67.83 516.76,68.11 516.59,68.42 516.48,68.75 516.43,69.09 516.42,69.26 516.42,79.02 516.43,78.84 516.43,79.19 516.48,79.53 516.59,79.86 516.76,80.17 516.96,80.45 517.22,80.69 517.50,80.89 517.82,81.04 518.15,81.13 518.49,81.18 " style="stroke-width: 0.53; stroke: #5ECD2E; fill: #FFFFFF;" clip-path="url(#cpNi45NzM4NXw3MTMuMDI2fDIwOS4yMjd8Ni45NzM4NQ==)"/>
  <g clip-path="url(#cpNi45NzM4NXw3MTMuMDI2fDIwOS4yMjd8Ni45NzM4NQ==)">
    <text x="520.02" y="77.58" style="font-size: 9.96px; fill: #5ECD2E; font-family: Liberation Sans;" textLength="45.92px" lengthAdjust="spacingAndGlyphs">Monocle 2</text>
  </g>
  <polyline points="285.99,162.33 328.13,162.33 328.05,162.33 328.39,162.31 328.74,162.24 329.06,162.12 329.36,161.95 329.63,161.73 329.86,161.47 330.05,161.17 330.18,160.85 330.27,160.51 330.29,160.17 330.29,160.17 330.29,150.41 330.29,150.41 330.27,150.07 330.18,149.73 330.05,149.41 329.86,149.12 329.63,148.86 329.36,148.64 329.06,148.46 328.74,148.34 328.39,148.27 328.13,148.25 285.99,148.25 286.25,148.27 285.90,148.25 285.55,148.30 285.22,148.39 284.91,148.54 284.62,148.74 284.37,148.98 284.16,149.26 284.00,149.57 283.89,149.90 283.83,150.24 283.83,150.41 283.83,160.17 283.83,159.99 283.83,160.34 283.89,160.68 284.00,161.01 284.16,161.32 284.37,161.60 284.62,161.84 284.91,162.04 285.22,162.19 285.55,162.28 285.90,162.33 " style="stroke-width: 0.53; stroke: #AF0DC7; fill: #FFFFFF;" clip-path="url(#cpNi45NzM4NXw3MTMuMDI2fDIwOS4yMjd8Ni45NzM4NQ==)"/>
  <g clip-path="url(#cpNi45NzM4NXw3MTMuMDI2fDIwOS4yMjd8Ni45NzM4NQ==)">
    <text x="287.43" y="158.73" style="font-size: 9.96px; fill: #AF0DC7; font-family: Liberation Sans;" textLength="39.27px" lengthAdjust="spacingAndGlyphs">Waterfall</text>
  </g>
  <polyline points="601.77,139.29 625.66,139.29 625.58,139.28 625.92,139.27 626.27,139.20 626.59,139.08 626.89,138.90 627.16,138.68 627.39,138.42 627.58,138.13 627.71,137.81 627.80,137.47 627.82,137.13 627.82,137.13 627.82,127.37 627.82,127.37 627.80,127.02 627.71,126.69 627.58,126.37 627.39,126.07 627.16,125.81 626.89,125.59 626.59,125.42 626.27,125.30 625.92,125.23 625.66,125.21 601.77,125.21 602.03,125.23 601.68,125.21 601.33,125.25 601.00,125.35 600.69,125.50 600.40,125.70 600.15,125.94 599.94,126.22 599.78,126.52 599.67,126.85 599.61,127.20 599.61,127.37 599.61,137.13 599.61,136.95 599.61,137.30 599.67,137.64 599.78,137.97 599.94,138.28 600.15,138.56 600.40,138.80 600.69,139.00 601.00,139.15 601.33,139.24 601.68,139.28 " style="stroke-width: 0.53; stroke: #0073D7; fill: #FFFFFF;" clip-path="url(#cpNi45NzM4NXw3MTMuMDI2fDIwOS4yMjd8Ni45NzM4NQ==)"/>
  <g clip-path="url(#cpNi45NzM4NXw3MTMuMDI2fDIwOS4yMjd8Ni45NzM4NQ==)">
    <text x="603.21" y="135.69" style="font-size: 9.96px; fill: #0073D7; font-family: Liberation Sans;" textLength="21.02px" lengthAdjust="spacingAndGlyphs">BGP</text>
  </g>
  <polyline points="639.99,173.53 663.89,173.53 663.80,173.53 664.15,173.51 664.49,173.44 664.81,173.32 665.11,173.15 665.38,172.93 665.61,172.67 665.80,172.37 665.94,172.05 666.02,171.72 666.05,171.37 666.05,171.37 666.05,161.62 666.05,161.62 666.02,161.27 665.94,160.93 665.80,160.61 665.61,160.32 665.38,160.06 665.11,159.84 664.81,159.66 664.49,159.54 664.15,159.47 663.89,159.46 639.99,159.46 640.25,159.47 639.90,159.46 639.56,159.50 639.22,159.60 638.91,159.74 638.62,159.94 638.37,160.18 638.16,160.46 638.00,160.77 637.89,161.10 637.83,161.44 637.83,161.62 637.83,171.37 637.83,171.20 637.83,171.54 637.89,171.89 638.00,172.22 638.16,172.52 638.37,172.80 638.62,173.04 638.91,173.24 639.22,173.39 639.56,173.49 639.90,173.53 " style="stroke-width: 0.53; stroke: #FF4237; fill: #FFFFFF;" clip-path="url(#cpNi45NzM4NXw3MTMuMDI2fDIwOS4yMjd8Ni45NzM4NQ==)"/>
  <g clip-path="url(#cpNi45NzM4NXw3MTMuMDI2fDIwOS4yMjd8Ni45NzM4NQ==)">
    <text x="641.43" y="169.93" style="font-size: 9.96px; fill: #FF4237; font-family: Liberation Sans;" textLength="21.02px" lengthAdjust="spacingAndGlyphs">AGA</text>
  </g>
  <polyline points="487.05,162.43 539.17,162.43 539.08,162.43 539.43,162.41 539.77,162.34 540.09,162.22 540.39,162.05 540.66,161.83 540.89,161.57 541.08,161.27 541.21,160.95 541.30,160.61 541.33,160.27 541.33,160.27 541.33,150.51 541.33,150.51 541.30,150.17 541.21,149.83 541.08,149.51 540.89,149.22 540.66,148.95 540.39,148.73 540.09,148.56 539.77,148.44 539.43,148.37 539.17,148.35 487.05,148.35 487.31,148.37 486.96,148.35 486.62,148.40 486.28,148.49 485.97,148.64 485.68,148.84 485.43,149.08 485.22,149.36 485.06,149.67 484.95,150.00 484.90,150.34 484.89,150.51 484.89,160.27 484.90,160.09 484.90,160.44 484.95,160.78 485.06,161.11 485.22,161.42 485.43,161.70 485.68,161.94 485.97,162.14 486.28,162.29 486.62,162.38 486.96,162.43 " style="stroke-width: 0.53; stroke: #5ECD2E; fill: #FFFFFF;" clip-path="url(#cpNi45NzM4NXw3MTMuMDI2fDIwOS4yMjd8Ni45NzM4NQ==)"/>
  <g clip-path="url(#cpNi45NzM4NXw3MTMuMDI2fDIwOS4yMjd8Ni45NzM4NQ==)">
    <text x="488.49" y="158.83" style="font-size: 9.96px; fill: #5ECD2E; font-family: Liberation Sans;" textLength="49.24px" lengthAdjust="spacingAndGlyphs">k-branches</text>
  </g>
  <polyline points="54.21,180.94 103.01,180.94 102.92,180.94 103.27,180.92 103.61,180.85 103.93,180.73 104.23,180.56 104.50,180.34 104.73,180.08 104.92,179.78 105.06,179.46 105.14,179.12 105.17,178.78 105.17,178.78 105.17,169.02 105.17,169.02 105.14,168.68 105.06,168.34 104.92,168.02 104.73,167.73 104.50,167.46 104.23,167.25 103.93,167.07 103.61,166.95 103.27,166.88 103.01,166.86 54.21,166.86 54.47,166.88 54.12,166.86 53.77,166.91 53.44,167.00 53.13,167.15 52.84,167.35 52.59,167.59 52.38,167.87 52.22,168.18 52.11,168.51 52.05,168.85 52.05,169.02 52.05,178.78 52.05,178.60 52.05,178.95 52.11,179.29 52.22,179.62 52.38,179.93 52.59,180.21 52.84,180.45 53.13,180.65 53.44,180.80 53.77,180.89 54.12,180.94 " style="stroke-width: 0.53; stroke: #5ECD2E; fill: #FFFFFF;" clip-path="url(#cpNi45NzM4NXw3MTMuMDI2fDIwOS4yMjd8Ni45NzM4NQ==)"/>
  <g clip-path="url(#cpNi45NzM4NXw3MTMuMDI2fDIwOS4yMjd8Ni45NzM4NQ==)">
    <text x="55.65" y="177.34" style="font-size: 9.96px; fill: #5ECD2E; font-family: Liberation Sans;" textLength="45.92px" lengthAdjust="spacingAndGlyphs">Monocle 1</text>
  </g>
  <polyline points="62.10,202.85 115.32,202.85 115.23,202.85 115.58,202.83 115.92,202.77 116.25,202.64 116.55,202.47 116.82,202.25 117.05,201.99 117.23,201.69 117.37,201.37 117.45,201.04 117.48,200.69 117.48,200.69 117.48,190.94 117.48,190.94 117.45,190.59 117.37,190.25 117.23,189.93 117.05,189.64 116.82,189.38 116.55,189.16 116.25,188.98 115.92,188.86 115.58,188.79 115.32,188.78 62.10,188.78 62.36,188.79 62.02,188.78 61.67,188.82 61.34,188.92 61.02,189.07 60.74,189.26 60.49,189.50 60.28,189.78 60.12,190.09 60.00,190.42 59.95,190.76 59.94,190.94 59.94,200.69 59.95,200.52 59.95,200.86 60.00,201.21 60.12,201.54 60.28,201.85 60.49,202.12 60.74,202.36 61.02,202.56 61.34,202.71 61.67,202.81 62.02,202.85 " style="stroke-width: 0.53; stroke: #AF0DC7; fill: #FFFFFF;" clip-path="url(#cpNi45NzM4NXw3MTMuMDI2fDIwOS4yMjd8Ni45NzM4NQ==)"/>
  <g clip-path="url(#cpNi45NzM4NXw3MTMuMDI2fDIwOS4yMjd8Ni45NzM4NQ==)">
    <text x="63.54" y="199.25" style="font-size: 9.96px; fill: #AF0DC7; font-family: Liberation Sans;" textLength="50.34px" lengthAdjust="spacingAndGlyphs">Wanderlust</text>
  </g>
  <polyline points="519.85,142.29 566.99,142.29 566.90,142.28 567.25,142.27 567.59,142.20 567.91,142.08 568.22,141.90 568.49,141.68 568.72,141.42 568.90,141.13 569.04,140.81 569.12,140.47 569.15,140.13 569.15,140.13 569.15,130.37 569.15,130.37 569.12,130.03 569.04,129.69 568.90,129.37 568.72,129.07 568.49,128.81 568.22,128.59 567.91,128.42 567.59,128.30 567.25,128.23 566.99,128.21 519.85,128.21 520.11,128.23 519.77,128.21 519.42,128.26 519.09,128.35 518.77,128.50 518.49,128.70 518.24,128.94 518.03,129.22 517.87,129.53 517.76,129.85 517.70,130.20 517.69,130.37 517.69,140.13 517.70,139.95 517.70,140.30 517.76,140.64 517.87,140.97 518.03,141.28 518.24,141.56 518.49,141.80 518.77,142.00 519.09,142.15 519.42,142.24 519.77,142.28 " style="stroke-width: 0.53; stroke: #5ECD2E; fill: #FFFFFF;" clip-path="url(#cpNi45NzM4NXw3MTMuMDI2fDIwOS4yMjd8Ni45NzM4NQ==)"/>
  <g clip-path="url(#cpNi45NzM4NXw3MTMuMDI2fDIwOS4yMjd8Ni45NzM4NQ==)">
    <text x="521.29" y="138.69" style="font-size: 9.96px; fill: #5ECD2E; font-family: Liberation Sans;" textLength="44.25px" lengthAdjust="spacingAndGlyphs">Granatum</text>
  </g>
  <polyline points="546.94,127.41 589.11,127.41 589.02,127.40 589.37,127.39 589.71,127.32 590.03,127.20 590.33,127.02 590.60,126.80 590.83,126.54 591.02,126.25 591.15,125.93 591.24,125.59 591.27,125.25 591.27,125.25 591.27,115.49 591.27,115.49 591.24,115.14 591.15,114.81 591.02,114.49 590.83,114.19 590.60,113.93 590.33,113.71 590.03,113.54 589.71,113.42 589.37,113.35 589.11,113.33 546.94,113.33 547.20,113.35 546.86,113.33 546.51,113.38 546.18,113.47 545.86,113.62 545.58,113.82 545.33,114.06 545.12,114.34 544.96,114.64 544.85,114.97 544.79,115.32 544.78,115.49 544.78,125.25 544.79,125.07 544.79,125.42 544.85,125.76 544.96,126.09 545.12,126.40 545.33,126.68 545.58,126.92 545.86,127.12 546.18,127.27 546.51,127.36 546.86,127.40 " style="stroke-width: 0.53; stroke: #5ECD2E; fill: #FFFFFF;" clip-path="url(#cpNi45NzM4NXw3MTMuMDI2fDIwOS4yMjd8Ni45NzM4NQ==)"/>
  <g clip-path="url(#cpNi45NzM4NXw3MTMuMDI2fDIwOS4yMjd8Ni45NzM4NQ==)">
    <text x="548.38" y="123.81" style="font-size: 9.96px; fill: #5ECD2E; font-family: Liberation Sans;" textLength="39.28px" lengthAdjust="spacingAndGlyphs">slingshot</text>
  </g>
  <polyline points="410.50,161.96 448.77,161.96 448.68,161.96 449.03,161.95 449.37,161.88 449.70,161.76 450.00,161.58 450.27,161.36 450.50,161.10 450.68,160.81 450.82,160.49 450.90,160.15 450.93,159.80 450.93,159.80 450.93,150.05 450.93,150.05 450.90,149.70 450.82,149.37 450.68,149.05 450.50,148.75 450.27,148.49 450.00,148.27 449.70,148.10 449.37,147.98 449.03,147.91 448.77,147.89 410.50,147.89 410.76,147.91 410.41,147.89 410.06,147.93 409.73,148.03 409.42,148.18 409.13,148.38 408.88,148.62 408.67,148.90 408.51,149.20 408.40,149.53 408.34,149.88 408.34,150.05 408.34,159.80 408.34,159.63 408.34,159.98 408.40,160.32 408.51,160.65 408.67,160.96 408.88,161.24 409.13,161.48 409.42,161.68 409.73,161.82 410.06,161.92 410.41,161.96 " style="stroke-width: 0.53; stroke: #CFBF00; fill: #FFFFFF;" clip-path="url(#cpNi45NzM4NXw3MTMuMDI2fDIwOS4yMjd8Ni45NzM4NQ==)"/>
  <g clip-path="url(#cpNi45NzM4NXw3MTMuMDI2fDIwOS4yMjd8Ni45NzM4NQ==)">
    <text x="411.94" y="158.36" style="font-size: 9.96px; fill: #CFBF00; font-family: Liberation Sans;" textLength="35.39px" lengthAdjust="spacingAndGlyphs">SCOUP</text>
  </g>
  <polyline points="292.57,183.79 334.73,183.79 334.64,183.79 334.99,183.78 335.33,183.71 335.66,183.58 335.96,183.41 336.23,183.19 336.46,182.93 336.64,182.64 336.78,182.32 336.86,181.98 336.89,181.63 336.89,181.63 336.89,171.88 336.89,171.88 336.86,171.53 336.78,171.19 336.64,170.87 336.46,170.58 336.23,170.32 335.96,170.10 335.66,169.93 335.33,169.80 334.99,169.73 334.73,169.72 292.57,169.72 292.83,169.73 292.48,169.72 292.14,169.76 291.80,169.86 291.49,170.01 291.20,170.20 290.95,170.45 290.74,170.72 290.58,171.03 290.47,171.36 290.42,171.70 290.41,171.88 290.41,181.63 290.42,181.46 290.42,181.81 290.47,182.15 290.58,182.48 290.74,182.79 290.95,183.06 291.20,183.31 291.49,183.50 291.80,183.65 292.14,183.75 292.48,183.79 " style="stroke-width: 0.53; stroke: #AF0DC7; fill: #FFFFFF;" clip-path="url(#cpNi45NzM4NXw3MTMuMDI2fDIwOS4yMjd8Ni45NzM4NQ==)"/>
  <g clip-path="url(#cpNi45NzM4NXw3MTMuMDI2fDIwOS4yMjd8Ni45NzM4NQ==)">
    <text x="294.01" y="180.19" style="font-size: 9.96px; fill: #AF0DC7; font-family: Liberation Sans;" textLength="39.28px" lengthAdjust="spacingAndGlyphs">embeddr</text>
  </g>
  <polyline points="195.58,205.13 226.12,205.13 226.03,205.13 226.38,205.11 226.72,205.04 227.04,204.92 227.34,204.74 227.61,204.52 227.84,204.26 228.03,203.97 228.16,203.65 228.25,203.31 228.28,202.97 228.28,202.97 228.28,193.21 228.28,193.21 228.25,192.87 228.16,192.53 228.03,192.21 227.84,191.91 227.61,191.65 227.34,191.43 227.04,191.26 226.72,191.14 226.38,191.07 226.12,191.05 195.58,191.05 195.84,191.07 195.49,191.05 195.15,191.10 194.81,191.19 194.50,191.34 194.21,191.54 193.96,191.78 193.75,192.06 193.59,192.37 193.48,192.69 193.42,193.04 193.42,193.21 193.42,202.97 193.42,202.79 193.42,203.14 193.48,203.48 193.59,203.81 193.75,204.12 193.96,204.40 194.21,204.64 194.50,204.84 194.81,204.99 195.15,205.08 195.49,205.13 " style="stroke-width: 0.53; stroke: #5ECD2E; fill: #FFFFFF;" clip-path="url(#cpNi45NzM4NXw3MTMuMDI2fDIwOS4yMjd8Ni45NzM4NQ==)"/>
  <g clip-path="url(#cpNi45NzM4NXw3MTMuMDI2fDIwOS4yMjd8Ni45NzM4NQ==)">
    <text x="197.02" y="201.53" style="font-size: 9.96px; fill: #5ECD2E; font-family: Liberation Sans;" textLength="27.66px" lengthAdjust="spacingAndGlyphs">sincell</text>
  </g>
  <polyline points="564.30,163.32 608.65,163.32 608.57,163.32 608.91,163.30 609.25,163.23 609.58,163.11 609.88,162.94 610.15,162.72 610.38,162.46 610.57,162.16 610.70,161.84 610.79,161.51 610.81,161.16 610.81,161.16 610.81,151.40 610.81,151.40 610.79,151.06 610.70,150.72 610.57,150.40 610.38,150.11 610.15,149.85 609.88,149.63 609.58,149.45 609.25,149.33 608.91,149.26 608.65,149.24 564.30,149.24 564.56,149.26 564.21,149.25 563.87,149.29 563.53,149.39 563.22,149.53 562.93,149.73 562.68,149.97 562.47,150.25 562.31,150.56 562.20,150.89 562.15,151.23 562.14,151.40 562.14,161.16 562.15,160.99 562.15,161.33 562.20,161.68 562.31,162.01 562.47,162.31 562.68,162.59 562.93,162.83 563.22,163.03 563.53,163.18 563.87,163.28 564.21,163.32 " style="stroke-width: 0.53; stroke: #AF0DC7; fill: #FFFFFF;" clip-path="url(#cpNi45NzM4NXw3MTMuMDI2fDIwOS4yMjd8Ni45NzM4NQ==)"/>
  <g clip-path="url(#cpNi45NzM4NXw3MTMuMDI2fDIwOS4yMjd8Ni45NzM4NQ==)">
    <text x="565.74" y="159.72" style="font-size: 9.96px; fill: #AF0DC7; font-family: Liberation Sans;" textLength="41.47px" lengthAdjust="spacingAndGlyphs">UNCURL</text>
  </g>
  <polyline points="601.44,184.51 624.23,184.51 624.15,184.51 624.49,184.49 624.84,184.42 625.16,184.30 625.46,184.13 625.73,183.91 625.96,183.65 626.15,183.35 626.28,183.03 626.37,182.70 626.39,182.35 626.39,182.35 626.39,172.59 626.39,172.59 626.37,172.25 626.28,171.91 626.15,171.59 625.96,171.30 625.73,171.04 625.46,170.82 625.16,170.64 624.84,170.52 624.49,170.45 624.23,170.43 601.44,170.43 601.70,170.45 601.35,170.44 601.01,170.48 600.67,170.57 600.36,170.72 600.07,170.92 599.82,171.16 599.61,171.44 599.45,171.75 599.34,172.08 599.29,172.42 599.28,172.59 599.28,182.35 599.29,182.17 599.29,182.52 599.34,182.87 599.45,183.20 599.61,183.50 599.82,183.78 600.07,184.02 600.36,184.22 600.67,184.37 601.01,184.47 601.35,184.51 " style="stroke-width: 0.53; stroke: #CFBF00; fill: #FFFFFF;" clip-path="url(#cpNi45NzM4NXw3MTMuMDI2fDIwOS4yMjd8Ni45NzM4NQ==)"/>
  <g clip-path="url(#cpNi45NzM4NXw3MTMuMDI2fDIwOS4yMjd8Ni45NzM4NQ==)">
    <text x="602.88" y="180.91" style="font-size: 9.96px; fill: #CFBF00; font-family: Liberation Sans;" textLength="19.92px" lengthAdjust="spacingAndGlyphs">PBA</text>
  </g>
  <polyline points="527.96,182.37 566.79,182.37 566.71,182.37 567.06,182.36 567.40,182.29 567.72,182.16 568.02,181.99 568.29,181.77 568.52,181.51 568.71,181.21 568.84,180.89 568.93,180.56 568.95,180.21 568.95,180.21 568.95,170.46 568.95,170.46 568.93,170.11 568.84,169.77 568.71,169.45 568.52,169.16 568.29,168.90 568.02,168.68 567.72,168.50 567.40,168.38 567.06,168.31 566.79,168.30 527.96,168.30 528.22,168.31 527.87,168.30 527.52,168.34 527.19,168.44 526.88,168.59 526.59,168.78 526.34,169.02 526.13,169.30 525.97,169.61 525.86,169.94 525.80,170.28 525.80,170.46 525.80,180.21 525.80,180.04 525.80,180.38 525.86,180.73 525.97,181.06 526.13,181.37 526.34,181.64 526.59,181.88 526.88,182.08 527.19,182.23 527.52,182.33 527.87,182.37 " style="stroke-width: 0.53; stroke: #CFBF00; fill: #FFFFFF;" clip-path="url(#cpNi45NzM4NXw3MTMuMDI2fDIwOS4yMjd8Ni45NzM4NQ==)"/>
  <g clip-path="url(#cpNi45NzM4NXw3MTMuMDI2fDIwOS4yMjd8Ni45NzM4NQ==)">
    <text x="529.40" y="178.77" style="font-size: 9.96px; fill: #CFBF00; font-family: Liberation Sans;" textLength="35.96px" lengthAdjust="spacingAndGlyphs">GPfates</text>
  </g>
  <polyline points="594.19,196.64 683.32,196.64 683.23,196.64 683.58,196.63 683.92,196.56 684.25,196.43 684.55,196.26 684.82,196.04 685.05,195.78 685.23,195.49 685.37,195.17 685.45,194.83 685.48,194.48 685.48,194.48 685.48,184.73 685.48,184.73 685.45,184.38 685.37,184.04 685.23,183.72 685.05,183.43 684.82,183.17 684.55,182.95 684.25,182.78 683.92,182.65 683.58,182.58 683.32,182.57 594.19,182.57 594.45,182.58 594.11,182.57 593.76,182.61 593.43,182.71 593.11,182.86 592.83,183.05 592.58,183.30 592.37,183.57 592.21,183.88 592.10,184.21 592.04,184.55 592.03,184.73 592.03,194.48 592.04,194.31 592.04,194.66 592.10,195.00 592.21,195.33 592.37,195.64 592.58,195.91 592.83,196.16 593.11,196.35 593.43,196.50 593.76,196.60 594.11,196.64 " style="stroke-width: 0.53; stroke: #FF8821; fill: #FFFFFF;" clip-path="url(#cpNi45NzM4NXw3MTMuMDI2fDIwOS4yMjd8Ni45NzM4NQ==)"/>
  <g clip-path="url(#cpNi45NzM4NXw3MTMuMDI2fDIwOS4yMjd8Ni45NzM4NQ==)">
    <text x="595.63" y="193.04" style="font-size: 9.96px; fill: #FF8821; font-family: Liberation Sans;" textLength="86.25px" lengthAdjust="spacingAndGlyphs">WADDINGTON-OT</text>
  </g>
  <defs>
    <clipPath id="cpMHw3MjB8MjUyfDA=">
      <rect x="0.00" y="0.00" width="720.00" height="252.00"/>
    </clipPath>
  </defs>
  <polyline points="6.97,209.23 713.03,209.23 " style="stroke-width: 1.07; stroke-linecap: square;" clip-path="url(#cpMHw3MjB8MjUyfDA=)"/>
  <polyline points="39.07,212.71 39.07,209.23 " style="stroke-width: 1.07; stroke-linecap: butt;" clip-path="url(#cpMHw3MjB8MjUyfDA=)"/>
  <polyline points="199.42,212.71 199.42,209.23 " style="stroke-width: 1.07; stroke-linecap: butt;" clip-path="url(#cpMHw3MjB8MjUyfDA=)"/>
  <polyline points="359.78,212.71 359.78,209.23 " style="stroke-width: 1.07; stroke-linecap: butt;" clip-path="url(#cpMHw3MjB8MjUyfDA=)"/>
  <polyline points="520.58,212.71 520.58,209.23 " style="stroke-width: 1.07; stroke-linecap: butt;" clip-path="url(#cpMHw3MjB8MjUyfDA=)"/>
  <polyline points="680.93,212.71 680.93,209.23 " style="stroke-width: 1.07; stroke-linecap: butt;" clip-path="url(#cpMHw3MjB8MjUyfDA=)"/>
  <g clip-path="url(#cpMHw3MjB8MjUyfDA=)">
    <text x="25.72" y="223.95" style="font-size: 12.00px; font-family: Liberation Sans;" textLength="26.70px" lengthAdjust="spacingAndGlyphs">2014</text>
  </g>
  <g clip-path="url(#cpMHw3MjB8MjUyfDA=)">
    <text x="186.08" y="223.95" style="font-size: 12.00px; font-family: Liberation Sans;" textLength="26.70px" lengthAdjust="spacingAndGlyphs">2015</text>
  </g>
  <g clip-path="url(#cpMHw3MjB8MjUyfDA=)">
    <text x="346.43" y="223.95" style="font-size: 12.00px; font-family: Liberation Sans;" textLength="26.70px" lengthAdjust="spacingAndGlyphs">2016</text>
  </g>
  <g clip-path="url(#cpMHw3MjB8MjUyfDA=)">
    <text x="507.23" y="223.95" style="font-size: 12.00px; font-family: Liberation Sans;" textLength="26.70px" lengthAdjust="spacingAndGlyphs">2017</text>
  </g>
  <g clip-path="url(#cpMHw3MjB8MjUyfDA=)">
    <text x="667.59" y="223.95" style="font-size: 12.00px; font-family: Liberation Sans;" textLength="26.70px" lengthAdjust="spacingAndGlyphs">2018</text>
  </g>
  <g clip-path="url(#cpMHw3MjB8MjUyfDA=)">
    <text x="312.13" y="240.80" style="font-size: 14.00px; font-family: Liberation Sans;" textLength="95.74px" lengthAdjust="spacingAndGlyphs">Publishing date</text>
  </g>
</svg>
