<?xml version="1.0" encoding="UTF-8"?>
<svg xmlns="http://www.w3.org/2000/svg" xmlns:xlink="http://www.w3.org/1999/xlink" viewBox="0 0 720.00 252.00">
  <defs>
    <style type="text/css"><![CDATA[
    line, polyline, path, rect, circle {
      fill: none;
      stroke: #000000;
      stroke-linecap: round;
      stroke-linejoin: round;
      stroke-miterlimit: 10.00;
    }
  ]]></style>
  </defs>
  <line x1="547.38" y1="205.63" x2="547.38" y2="209.23" style="stroke-width: 1.07; stroke: #CFBF00;" clip-path="url(#cpNi45NzM4NXw3MTMuMDI2fDIwOS4yMjd8Ni45NzM4NQ==)"/>
  <line x1="597.02" y1="200.16" x2="597.02" y2="209.23" style="stroke-width: 1.07; stroke: #AF0DC7;" clip-path="url(#cpNi45NzM4NXw3MTMuMDI2fDIwOS4yMjd8Ni45NzM4NQ==)"/>
  <line x1="513.11" y1="139.84" x2="513.11" y2="209.23" style="stroke-width: 1.07; stroke: #5ECD2E;" clip-path="url(#cpNi45NzM4NXw3MTMuMDI2fDIwOS4yMjd8Ni45NzM4NQ==)"/>
  <line x1="482.79" y1="199.85" x2="482.79" y2="209.23" style="stroke-width: 1.07; stroke: #AF0DC7;" clip-path="url(#cpNi45NzM4NXw3MTMuMDI2fDIwOS4yMjd8Ni45NzM4NQ==)"/>
  <line x1="612.84" y1="178.91" x2="612.84" y2="209.22" style="stroke-width: 1.07; stroke: #CFBF00;" clip-path="url(#cpNi45NzM4NXw3MTMuMDI2fDIwOS4yMjd8Ni45NzM4NQ==)"/>
  <line x1="458.63" y1="171.35" x2="458.63" y2="209.22" style="stroke-width: 1.07; stroke: #5ECD2E;" clip-path="url(#cpNi45NzM4NXw3MTMuMDI2fDIwOS4yMjd8Ni45NzM4NQ==)"/>
  <line x1="403.27" y1="203.38" x2="403.27" y2="209.22" style="stroke-width: 1.07; stroke: #FF8821;" clip-path="url(#cpNi45NzM4NXw3MTMuMDI2fDIwOS4yMjd8Ni45NzM4NQ==)"/>
  <line x1="407.67" y1="162.73" x2="407.67" y2="209.22" style="stroke-width: 1.07; stroke: #AF0DC7;" clip-path="url(#cpNi45NzM4NXw3MTMuMDI2fDIwOS4yMjd8Ni45NzM4NQ==)"/>
  <line x1="376.47" y1="184.27" x2="376.47" y2="209.22" style="stroke-width: 1.07; stroke: #0073D7;" clip-path="url(#cpNi45NzM4NXw3MTMuMDI2fDIwOS4yMjd8Ni45NzM4NQ==)"/>
  <line x1="210.85" y1="205.13" x2="210.85" y2="209.22" style="stroke-width: 1.07; stroke: #5ECD2E;" clip-path="url(#cpNi45NzM4NXw3MTMuMDI2fDIwOS4yMjd8Ni45NzM4NQ==)"/>
  <line x1="268.84" y1="204.89" x2="268.84" y2="209.22" style="stroke-width: 1.07; stroke: #AF0DC7;" clip-path="url(#cpNi45NzM4NXw3MTMuMDI2fDIwOS4yMjd8Ni45NzM4NQ==)"/>
  <line x1="651.94" y1="205.51" x2="651.94" y2="209.22" style="stroke-width: 1.07; stroke: #FF4237;" clip-path="url(#cpNi45NzM4NXw3MTMuMDI2fDIwOS4yMjd8Ni45NzM4NQ==)"/>
  <line x1="492.90" y1="99.18" x2="492.90" y2="209.22" style="stroke-width: 1.07; stroke: #AF0DC7;" clip-path="url(#cpNi45NzM4NXw3MTMuMDI2fDIwOS4yMjd8Ni45NzM4NQ==)"/>
  <line x1="660.28" y1="183.86" x2="660.28" y2="209.22" style="stroke-width: 1.07; stroke: #5ECD2E;" clip-path="url(#cpNi45NzM4NXw3MTMuMDI2fDIwOS4yMjd8Ni45NzM4NQ==)"/>
  <line x1="418.21" y1="93.51" x2="418.21" y2="209.22" style="stroke-width: 1.07; stroke: #5ECD2E;" clip-path="url(#cpNi45NzM4NXw3MTMuMDI2fDIwOS4yMjd8Ni45NzM4NQ==)"/>
  <line x1="78.61" y1="202.85" x2="78.61" y2="209.22" style="stroke-width: 1.07; stroke: #5ECD2E;" clip-path="url(#cpNi45NzM4NXw3MTMuMDI2fDIwOS4yMjd8Ni45NzM4NQ==)"/>
  <line x1="613.71" y1="158.74" x2="613.71" y2="209.22" style="stroke-width: 1.07; stroke: #0073D7;" clip-path="url(#cpNi45NzM4NXw3MTMuMDI2fDIwOS4yMjd8Ni45NzM4NQ==)"/>
  <line x1="481.48" y1="77.89" x2="481.48" y2="209.22" style="stroke-width: 1.07; stroke: #AF0DC7;" clip-path="url(#cpNi45NzM4NXw3MTMuMDI2fDIwOS4yMjd8Ni45NzM4NQ==)"/>
  <line x1="561.43" y1="179.26" x2="561.43" y2="209.22" style="stroke-width: 1.07; stroke: #5ECD2E;" clip-path="url(#cpNi45NzM4NXw3MTMuMDI2fDIwOS4yMjd8Ni45NzM4NQ==)"/>
  <line x1="666.87" y1="161.96" x2="666.87" y2="209.22" style="stroke-width: 1.07; stroke: #AF0DC7;" clip-path="url(#cpNi45NzM4NXw3MTMuMDI2fDIwOS4yMjd8Ni45NzM4NQ==)"/>
  <line x1="198.55" y1="183.46" x2="198.55" y2="209.22" style="stroke-width: 1.07; stroke: #5ECD2E;" clip-path="url(#cpNi45NzM4NXw3MTMuMDI2fDIwOS4yMjd8Ni45NzM4NQ==)"/>
  <line x1="668.19" y1="67.10" x2="668.19" y2="209.22" style="stroke-width: 1.07; stroke: #CFBF00;" clip-path="url(#cpNi45NzM4NXw3MTMuMDI2fDIwOS4yMjd8Ni45NzM4NQ==)"/>
  <line x1="552.65" y1="97.66" x2="552.65" y2="209.22" style="stroke-width: 1.07; stroke: #CFBF00;" clip-path="url(#cpNi45NzM4NXw3MTMuMDI2fDIwOS4yMjd8Ni45NzM4NQ==)"/>
  <line x1="433.59" y1="184.89" x2="433.59" y2="209.22" style="stroke-width: 1.07; stroke: #AF0DC7;" clip-path="url(#cpNi45NzM4NXw3MTMuMDI2fDIwOS4yMjd8Ni45NzM4NQ==)"/>
  <line x1="539.47" y1="118.79" x2="539.47" y2="209.22" style="stroke-width: 1.07; stroke: #AF0DC7;" clip-path="url(#cpNi45NzM4NXw3MTMuMDI2fDIwOS4yMjd8Ni45NzM4NQ==)"/>
  <line x1="514.86" y1="174.76" x2="514.86" y2="209.22" style="stroke-width: 1.07; stroke: #5ECD2E;" clip-path="url(#cpNi45NzM4NXw3MTMuMDI2fDIwOS4yMjd8Ni45NzM4NQ==)"/>
  <line x1="573.30" y1="158.46" x2="573.30" y2="209.21" style="stroke-width: 1.07; stroke: #AF0DC7;" clip-path="url(#cpNi45NzM4NXw3MTMuMDI2fDIwOS4yMjd8Ni45NzM4NQ==)"/>
  <line x1="617.23" y1="95.70" x2="617.23" y2="209.21" style="stroke-width: 1.07; stroke: #0073D7;" clip-path="url(#cpNi45NzM4NXw3MTMuMDI2fDIwOS4yMjd8Ni45NzM4NQ==)"/>
  <line x1="611.08" y1="65.23" x2="611.08" y2="209.21" style="stroke-width: 1.07; stroke: #AF0DC7;" clip-path="url(#cpNi45NzM4NXw3MTMuMDI2fDIwOS4yMjd8Ni45NzM4NQ==)"/>
  <line x1="401.52" y1="73.35" x2="401.52" y2="209.21" style="stroke-width: 1.07; stroke: #AF0DC7;" clip-path="url(#cpNi45NzM4NXw3MTMuMDI2fDIwOS4yMjd8Ni45NzM4NQ==)"/>
  <line x1="88.71" y1="180.92" x2="88.71" y2="209.21" style="stroke-width: 1.07; stroke: #AF0DC7;" clip-path="url(#cpNi45NzM4NXw3MTMuMDI2fDIwOS4yMjd8Ni45NzM4NQ==)"/>
  <line x1="586.48" y1="137.13" x2="586.48" y2="209.21" style="stroke-width: 1.07; stroke: #AF0DC7;" clip-path="url(#cpNi45NzM4NXw3MTMuMDI2fDIwOS4yMjd8Ni45NzM4NQ==)"/>
  <line x1="429.63" y1="114.26" x2="429.63" y2="209.21" style="stroke-width: 1.07; stroke: #CFBF00;" clip-path="url(#cpNi45NzM4NXw3MTMuMDI2fDIwOS4yMjd8Ni45NzM4NQ==)"/>
  <line x1="602.29" y1="116.18" x2="602.29" y2="209.21" style="stroke-width: 1.07; stroke: #AF0DC7;" clip-path="url(#cpNi45NzM4NXw3MTMuMDI2fDIwOS4yMjd8Ni45NzM4NQ==)"/>
  <line x1="364.61" y1="142.95" x2="364.61" y2="209.21" style="stroke-width: 1.07; stroke: #5ECD2E;" clip-path="url(#cpNi45NzM4NXw3MTMuMDI2fDIwOS4yMjd8Ni45NzM4NQ==)"/>
  <line x1="594.82" y1="24.65" x2="594.82" y2="209.21" style="stroke-width: 1.07; stroke: #39CCCC;" clip-path="url(#cpNi45NzM4NXw3MTMuMDI2fDIwOS4yMjd8Ni45NzM4NQ==)"/>
  <line x1="436.22" y1="135.40" x2="436.22" y2="209.21" style="stroke-width: 1.07; stroke: #AF0DC7;" clip-path="url(#cpNi45NzM4NXw3MTMuMDI2fDIwOS4yMjd8Ni45NzM4NQ==)"/>
  <line x1="638.76" y1="136.78" x2="638.76" y2="209.21" style="stroke-width: 1.07; stroke: #FF8821;" clip-path="url(#cpNi45NzM4NXw3MTMuMDI2fDIwOS4yMjd8Ni45NzM4NQ==)"/>
  <line x1="413.38" y1="40.17" x2="413.38" y2="209.21" style="stroke-width: 1.07; stroke: #0073D7;" clip-path="url(#cpNi45NzM4NXw3MTMuMDI2fDIwOS4yMjd8Ni45NzM4NQ==)"/>
  <line x1="460.39" y1="154.94" x2="460.39" y2="209.21" style="stroke-width: 1.07; stroke: #AF0DC7;" clip-path="url(#cpNi45NzM4NXw3MTMuMDI2fDIwOS4yMjd8Ni45NzM4NQ==)"/>
  <line x1="568.02" y1="76.57" x2="568.02" y2="209.21" style="stroke-width: 1.07; stroke: #5ECD2E;" clip-path="url(#cpNi45NzM4NXw3MTMuMDI2fDIwOS4yMjd8Ni45NzM4NQ==)"/>
  <line x1="543.42" y1="27.28" x2="543.42" y2="209.21" style="stroke-width: 1.07; stroke: #5ECD2E;" clip-path="url(#cpNi45NzM4NXw3MTMuMDI2fDIwOS4yMjd8Ni45NzM4NQ==)"/>
  <line x1="439.30" y1="24.65" x2="439.30" y2="209.21" style="stroke-width: 1.07; stroke: #5ECD2E;" clip-path="url(#cpNi45NzM4NXw3MTMuMDI2fDIwOS4yMjd8Ni45NzM4NQ==)"/>
  <line x1="435.35" y1="56.19" x2="435.35" y2="209.21" style="stroke-width: 1.07; stroke: #5ECD2E;" clip-path="url(#cpNi45NzM4NXw3MTMuMDI2fDIwOS4yMjd8Ni45NzM4NQ==)"/>
  <line x1="312.33" y1="183.32" x2="312.33" y2="209.21" style="stroke-width: 1.07; stroke: #AF0DC7;" clip-path="url(#cpNi45NzM4NXw3MTMuMDI2fDIwOS4yMjd8Ni45NzM4NQ==)"/>
  <line x1="307.06" y1="161.22" x2="307.06" y2="209.21" style="stroke-width: 1.07; stroke: #AF0DC7;" clip-path="url(#cpNi45NzM4NXw3MTMuMDI2fDIwOS4yMjd8Ni45NzM4NQ==)"/>
  <line x1="604.93" y1="44.81" x2="604.93" y2="209.21" style="stroke-width: 1.07; stroke: #AF0DC7;" clip-path="url(#cpNi45NzM4NXw3MTMuMDI2fDIwOS4yMjd8Ni45NzM4NQ==)"/>
  <line x1="542.98" y1="55.70" x2="542.98" y2="209.21" style="stroke-width: 1.07; stroke: #5ECD2E;" clip-path="url(#cpNi45NzM4NXw3MTMuMDI2fDIwOS4yMjd8Ni45NzM4NQ==)"/>
  <line x1="313.65" y1="123.25" x2="313.65" y2="209.21" style="stroke-width: 1.07; stroke: #AF0DC7;" clip-path="url(#cpNi45NzM4NXw3MTMuMDI2fDIwOS4yMjd8Ni45NzM4NQ==)"/>
  <defs>
    <clipPath id="cpNi45NzM4NXw3MTMuMDI2fDIwOS4yMjd8Ni45NzM4NQ==">
      <rect x="6.97" y="6.97" width="706.05" height="202.25"/>
    </clipPath>
  </defs>
  <polyline points="292.57,123.25 334.73,123.25 334.64,123.25 334.99,123.24 335.33,123.17 335.66,123.04 335.96,122.87 336.23,122.65 336.46,122.39 336.64,122.10 336.78,121.78 336.86,121.44 336.89,121.09 336.89,121.09 336.89,111.34 336.89,111.34 336.86,110.99 336.78,110.65 336.64,110.33 336.46,110.04 336.23,109.78 335.96,109.56 335.66,109.39 335.33,109.26 334.99,109.19 334.73,109.18 292.57,109.18 292.83,109.19 292.48,109.18 292.14,109.22 291.80,109.32 291.49,109.47 291.20,109.66 290.95,109.91 290.74,110.18 290.58,110.49 290.47,110.82 290.42,111.16 290.41,111.34 290.41,121.09 290.42,120.92 290.42,121.27 290.47,121.61 290.58,121.94 290.74,122.25 290.95,122.53 291.20,122.77 291.49,122.96 291.80,123.11 292.14,123.21 292.48,123.25 " style="stroke-width: 0.53; stroke: #AF0DC7; fill: #FFFFFF;" clip-path="url(#cpNi45NzM4NXw3MTMuMDI2fDIwOS4yMjd8Ni45NzM4NQ==)"/>
  <g clip-path="url(#cpNi45NzM4NXw3MTMuMDI2fDIwOS4yMjd8Ni45NzM4NQ==)">
    <text x="294.01" y="119.65" style="font-size: 9.96px; fill: #AF0DC7; font-family: Liberation Sans;" textLength="39.28px" lengthAdjust="spacingAndGlyphs">embeddr</text>
  </g>
  <polyline points="518.58,55.70 567.38,55.70 567.30,55.69 567.64,55.68 567.98,55.61 568.31,55.49 568.61,55.31 568.88,55.09 569.11,54.83 569.30,54.54 569.43,54.22 569.52,53.88 569.54,53.54 569.54,53.54 569.54,43.78 569.54,43.78 569.52,43.43 569.43,43.10 569.30,42.78 569.11,42.48 568.88,42.22 568.61,42.00 568.31,41.83 567.98,41.71 567.64,41.64 567.38,41.62 518.58,41.62 518.84,41.64 518.49,41.62 518.15,41.66 517.82,41.76 517.50,41.91 517.22,42.11 516.96,42.35 516.76,42.63 516.59,42.93 516.48,43.26 516.43,43.61 516.42,43.78 516.42,53.54 516.43,53.36 516.43,53.71 516.48,54.05 516.59,54.38 516.76,54.69 516.96,54.97 517.22,55.21 517.50,55.41 517.82,55.56 518.15,55.65 518.49,55.69 " style="stroke-width: 0.53; stroke: #5ECD2E; fill: #FFFFFF;" clip-path="url(#cpNi45NzM4NXw3MTMuMDI2fDIwOS4yMjd8Ni45NzM4NQ==)"/>
  <g clip-path="url(#cpNi45NzM4NXw3MTMuMDI2fDIwOS4yMjd8Ni45NzM4NQ==)">
    <text x="520.02" y="52.10" style="font-size: 9.96px; fill: #5ECD2E; font-family: Liberation Sans;" textLength="45.92px" lengthAdjust="spacingAndGlyphs">Monocle 2</text>
  </g>
  <polyline points="583.29,44.81 626.57,44.81 626.48,44.81 626.83,44.80 627.17,44.73 627.49,44.60 627.80,44.43 628.06,44.21 628.30,43.95 628.48,43.66 628.62,43.34 628.70,43.00 628.73,42.65 628.73,42.65 628.73,32.90 628.73,32.90 628.70,32.55 628.62,32.21 628.48,31.89 628.30,31.60 628.06,31.34 627.80,31.12 627.49,30.95 627.17,30.82 626.83,30.75 626.57,30.74 583.29,30.74 583.55,30.75 583.20,30.74 582.86,30.78 582.52,30.88 582.21,31.03 581.92,31.23 581.67,31.47 581.46,31.74 581.30,32.05 581.19,32.38 581.13,32.72 581.13,32.90 581.13,42.65 581.13,42.48 581.13,42.83 581.19,43.17 581.30,43.50 581.46,43.81 581.67,44.09 581.92,44.33 582.21,44.52 582.52,44.67 582.86,44.77 583.20,44.81 " style="stroke-width: 0.53; stroke: #AF0DC7; fill: #FFFFFF;" clip-path="url(#cpNi45NzM4NXw3MTMuMDI2fDIwOS4yMjd8Ni45NzM4NQ==)"/>
  <g clip-path="url(#cpNi45NzM4NXw3MTMuMDI2fDIwOS4yMjd8Ni45NzM4NQ==)">
    <text x="584.73" y="41.21" style="font-size: 9.96px; fill: #AF0DC7; font-family: Liberation Sans;" textLength="40.40px" lengthAdjust="spacingAndGlyphs">HopLand</text>
  </g>
  <polyline points="285.99,161.22 328.13,161.22 328.05,161.22 328.39,161.21 328.74,161.14 329.06,161.02 329.36,160.84 329.63,160.62 329.86,160.36 330.05,160.07 330.18,159.75 330.27,159.41 330.29,159.06 330.29,159.06 330.29,149.31 330.29,149.31 330.27,148.96 330.18,148.62 330.05,148.30 329.86,148.01 329.63,147.75 329.36,147.53 329.06,147.36 328.74,147.23 328.39,147.16 328.13,147.15 285.99,147.15 286.25,147.16 285.90,147.15 285.55,147.19 285.22,147.29 284.91,147.44 284.62,147.64 284.37,147.88 284.16,148.15 284.00,148.46 283.89,148.79 283.83,149.13 283.83,149.31 283.83,159.06 283.83,158.89 283.83,159.24 283.89,159.58 284.00,159.91 284.16,160.22 284.37,160.50 284.62,160.74 284.91,160.93 285.22,161.08 285.55,161.18 285.90,161.22 " style="stroke-width: 0.53; stroke: #AF0DC7; fill: #FFFFFF;" clip-path="url(#cpNi45NzM4NXw3MTMuMDI2fDIwOS4yMjd8Ni45NzM4NQ==)"/>
  <g clip-path="url(#cpNi45NzM4NXw3MTMuMDI2fDIwOS4yMjd8Ni45NzM4NQ==)">
    <text x="287.43" y="157.62" style="font-size: 9.96px; fill: #AF0DC7; font-family: Liberation Sans;" textLength="39.27px" lengthAdjust="spacingAndGlyphs">Waterfall</text>
  </g>
  <polyline points="282.40,183.32 342.27,183.32 342.18,183.32 342.53,183.30 342.87,183.23 343.19,183.11 343.50,182.94 343.76,182.72 344.00,182.46 344.18,182.16 344.32,181.84 344.40,181.51 344.43,181.16 344.43,181.16 344.43,171.41 344.43,171.41 344.40,171.06 344.32,170.72 344.18,170.40 344.00,170.11 343.76,169.85 343.50,169.63 343.19,169.45 342.87,169.33 342.53,169.26 342.27,169.25 282.40,169.25 282.66,169.26 282.31,169.25 281.96,169.29 281.63,169.39 281.32,169.53 281.03,169.73 280.78,169.97 280.57,170.25 280.41,170.56 280.30,170.89 280.24,171.23 280.24,171.41 280.24,181.16 280.24,180.99 280.24,181.33 280.30,181.68 280.41,182.01 280.57,182.31 280.78,182.59 281.03,182.83 281.32,183.03 281.63,183.18 281.96,183.28 282.31,183.32 " style="stroke-width: 0.53; stroke: #AF0DC7; fill: #FFFFFF;" clip-path="url(#cpNi45NzM4NXw3MTMuMDI2fDIwOS4yMjd8Ni45NzM4NQ==)"/>
  <g clip-path="url(#cpNi45NzM4NXw3MTMuMDI2fDIwOS4yMjd8Ni45NzM4NQ==)">
    <text x="283.84" y="179.72" style="font-size: 9.96px; fill: #AF0DC7; font-family: Liberation Sans;" textLength="56.99px" lengthAdjust="spacingAndGlyphs">gpseudotime</text>
  </g>
  <polyline points="417.31,56.19 453.38,56.19 453.29,56.19 453.64,56.17 453.98,56.10 454.30,55.98 454.60,55.81 454.87,55.59 455.10,55.33 455.29,55.03 455.43,54.71 455.51,54.38 455.54,54.03 455.54,54.03 455.54,44.28 455.54,44.28 455.51,43.93 455.43,43.59 455.29,43.27 455.10,42.98 454.87,42.72 454.60,42.50 454.30,42.32 453.98,42.20 453.64,42.13 453.38,42.12 417.31,42.12 417.57,42.13 417.23,42.12 416.88,42.16 416.55,42.26 416.23,42.40 415.95,42.60 415.70,42.84 415.49,43.12 415.33,43.43 415.22,43.76 415.16,44.10 415.15,44.28 415.15,54.03 415.16,53.86 415.16,54.20 415.22,54.55 415.33,54.88 415.49,55.18 415.70,55.46 415.95,55.70 416.23,55.90 416.55,56.05 416.88,56.15 417.23,56.19 " style="stroke-width: 0.53; stroke: #5ECD2E; fill: #FFFFFF;" clip-path="url(#cpNi45NzM4NXw3MTMuMDI2fDIwOS4yMjd8Ni45NzM4NQ==)"/>
  <g clip-path="url(#cpNi45NzM4NXw3MTMuMDI2fDIwOS4yMjd8Ni45NzM4NQ==)">
    <text x="418.75" y="52.59" style="font-size: 9.96px; fill: #5ECD2E; font-family: Liberation Sans;" textLength="33.18px" lengthAdjust="spacingAndGlyphs">StemID</text>
  </g>
  <polyline points="424.03,24.65 454.57,24.65 454.48,24.65 454.83,24.63 455.17,24.56 455.50,24.44 455.80,24.27 456.07,24.05 456.30,23.79 456.48,23.49 456.62,23.17 456.70,22.84 456.73,22.49 456.73,22.49 456.73,12.73 456.73,12.73 456.70,12.39 456.62,12.05 456.48,11.73 456.30,11.44 456.07,11.18 455.80,10.96 455.50,10.78 455.17,10.66 454.83,10.59 454.57,10.57 424.03,10.57 424.29,10.59 423.94,10.58 423.60,10.62 423.26,10.71 422.95,10.86 422.66,11.06 422.41,11.30 422.20,11.58 422.04,11.89 421.93,12.22 421.88,12.56 421.87,12.73 421.87,22.49 421.88,22.32 421.88,22.66 421.93,23.01 422.04,23.34 422.20,23.64 422.41,23.92 422.66,24.16 422.95,24.36 423.26,24.51 423.60,24.61 423.94,24.65 " style="stroke-width: 0.53; stroke: #5ECD2E; fill: #FFFFFF;" clip-path="url(#cpNi45NzM4NXw3MTMuMDI2fDIwOS4yMjd8Ni45NzM4NQ==)"/>
  <g clip-path="url(#cpNi45NzM4NXw3MTMuMDI2fDIwOS4yMjd8Ni45NzM4NQ==)">
    <text x="425.47" y="21.05" style="font-size: 9.96px; fill: #5ECD2E; font-family: Liberation Sans;" textLength="27.66px" lengthAdjust="spacingAndGlyphs">Mpath</text>
  </g>
  <polyline points="519.85,27.28 566.99,27.28 566.90,27.28 567.25,27.27 567.59,27.20 567.91,27.07 568.22,26.90 568.49,26.68 568.72,26.42 568.90,26.13 569.04,25.81 569.12,25.47 569.15,25.12 569.15,25.12 569.15,15.37 569.15,15.37 569.12,15.02 569.04,14.68 568.90,14.36 568.72,14.07 568.49,13.81 568.22,13.59 567.91,13.42 567.59,13.29 567.25,13.22 566.99,13.21 519.85,13.21 520.11,13.22 519.77,13.21 519.42,13.25 519.09,13.35 518.77,13.50 518.49,13.69 518.24,13.94 518.03,14.21 517.87,14.52 517.76,14.85 517.70,15.19 517.69,15.37 517.69,25.12 517.70,24.95 517.70,25.30 517.76,25.64 517.87,25.97 518.03,26.28 518.24,26.56 518.49,26.80 518.77,26.99 519.09,27.14 519.42,27.24 519.77,27.28 " style="stroke-width: 0.53; stroke: #5ECD2E; fill: #FFFFFF;" clip-path="url(#cpNi45NzM4NXw3MTMuMDI2fDIwOS4yMjd8Ni45NzM4NQ==)"/>
  <g clip-path="url(#cpNi45NzM4NXw3MTMuMDI2fDIwOS4yMjd8Ni45NzM4NQ==)">
    <text x="521.29" y="23.68" style="font-size: 9.96px; fill: #5ECD2E; font-family: Liberation Sans;" textLength="44.25px" lengthAdjust="spacingAndGlyphs">Granatum</text>
  </g>
  <polyline points="546.94,76.57 589.11,76.57 589.02,76.57 589.37,76.56 589.71,76.49 590.03,76.37 590.33,76.19 590.60,75.97 590.83,75.71 591.02,75.42 591.15,75.10 591.24,74.76 591.27,74.41 591.27,74.41 591.27,64.66 591.27,64.66 591.24,64.31 591.15,63.97 591.02,63.65 590.83,63.36 590.60,63.10 590.33,62.88 590.03,62.71 589.71,62.58 589.37,62.51 589.11,62.50 546.94,62.50 547.20,62.51 546.86,62.50 546.51,62.54 546.18,62.64 545.86,62.79 545.58,62.99 545.33,63.23 545.12,63.50 544.96,63.81 544.85,64.14 544.79,64.48 544.78,64.66 544.78,74.41 544.79,74.24 544.79,74.59 544.85,74.93 544.96,75.26 545.12,75.57 545.33,75.85 545.58,76.09 545.86,76.28 546.18,76.43 546.51,76.53 546.86,76.57 " style="stroke-width: 0.53; stroke: #5ECD2E; fill: #FFFFFF;" clip-path="url(#cpNi45NzM4NXw3MTMuMDI2fDIwOS4yMjd8Ni45NzM4NQ==)"/>
  <g clip-path="url(#cpNi45NzM4NXw3MTMuMDI2fDIwOS4yMjd8Ni45NzM4NQ==)">
    <text x="548.38" y="72.97" style="font-size: 9.96px; fill: #5ECD2E; font-family: Liberation Sans;" textLength="39.28px" lengthAdjust="spacingAndGlyphs">slingshot</text>
  </g>
  <polyline points="434.34,154.94 486.44,154.94 486.35,154.94 486.70,154.93 487.04,154.86 487.36,154.74 487.67,154.56 487.93,154.34 488.17,154.08 488.35,153.79 488.49,153.47 488.57,153.13 488.60,152.78 488.60,152.78 488.60,143.03 488.60,143.03 488.57,142.68 488.49,142.35 488.35,142.03 488.17,141.73 487.93,141.47 487.67,141.25 487.36,141.08 487.04,140.96 486.70,140.89 486.44,140.87 434.34,140.87 434.60,140.89 434.25,140.87 433.90,140.91 433.57,141.01 433.26,141.16 432.97,141.36 432.72,141.60 432.51,141.88 432.35,142.18 432.24,142.51 432.18,142.86 432.18,143.03 432.18,152.78 432.18,152.61 432.18,152.96 432.24,153.30 432.35,153.63 432.51,153.94 432.72,154.22 432.97,154.46 433.26,154.66 433.57,154.80 433.90,154.90 434.25,154.94 " style="stroke-width: 0.53; stroke: #AF0DC7; fill: #FFFFFF;" clip-path="url(#cpNi45NzM4NXw3MTMuMDI2fDIwOS4yMjd8Ni45NzM4NQ==)"/>
  <g clip-path="url(#cpNi45NzM4NXw3MTMuMDI2fDIwOS4yMjd8Ni45NzM4NQ==)">
    <text x="435.78" y="151.34" style="font-size: 9.96px; fill: #AF0DC7; font-family: Liberation Sans;" textLength="49.22px" lengthAdjust="spacingAndGlyphs">WaveCrest</text>
  </g>
  <polyline points="389.81,40.17 436.95,40.17 436.86,40.17 437.21,40.16 437.55,40.09 437.87,39.97 438.18,39.79 438.44,39.57 438.68,39.31 438.86,39.02 439.00,38.70 439.08,38.36 439.11,38.01 439.11,38.01 439.11,28.26 439.11,28.26 439.08,27.91 439.00,27.57 438.86,27.26 438.68,26.96 438.44,26.70 438.18,26.48 437.87,26.31 437.55,26.18 437.21,26.11 436.95,26.10 389.81,26.10 390.07,26.11 389.72,26.10 389.38,26.14 389.04,26.24 388.73,26.39 388.44,26.59 388.19,26.83 387.98,27.10 387.82,27.41 387.71,27.74 387.66,28.09 387.65,28.26 387.65,38.01 387.66,37.84 387.66,38.19 387.71,38.53 387.82,38.86 387.98,39.17 388.19,39.45 388.44,39.69 388.73,39.88 389.04,40.03 389.38,40.13 389.72,40.17 " style="stroke-width: 0.53; stroke: #0073D7; fill: #FFFFFF;" clip-path="url(#cpNi45NzM4NXw3MTMuMDI2fDIwOS4yMjd8Ni45NzM4NQ==)"/>
  <g clip-path="url(#cpNi45NzM4NXw3MTMuMDI2fDIwOS4yMjd8Ni45NzM4NQ==)">
    <text x="391.25" y="36.57" style="font-size: 9.96px; fill: #0073D7; font-family: Liberation Sans;" textLength="44.26px" lengthAdjust="spacingAndGlyphs">Wishbone</text>
  </g>
  <polyline points="594.19,136.78 683.32,136.78 683.23,136.78 683.58,136.76 683.92,136.70 684.25,136.57 684.55,136.40 684.82,136.18 685.05,135.92 685.23,135.62 685.37,135.30 685.45,134.97 685.48,134.62 685.48,134.62 685.48,124.87 685.48,124.87 685.45,124.52 685.37,124.18 685.23,123.86 685.05,123.57 684.82,123.31 684.55,123.09 684.25,122.91 683.92,122.79 683.58,122.72 683.32,122.71 594.19,122.71 594.45,122.72 594.11,122.71 593.76,122.75 593.43,122.85 593.11,122.99 592.83,123.19 592.58,123.43 592.37,123.71 592.21,124.02 592.10,124.35 592.04,124.69 592.03,124.87 592.03,134.62 592.04,134.45 592.04,134.79 592.10,135.14 592.21,135.47 592.37,135.77 592.58,136.05 592.83,136.29 593.11,136.49 593.43,136.64 593.76,136.74 594.11,136.78 " style="stroke-width: 0.53; stroke: #FF8821; fill: #FFFFFF;" clip-path="url(#cpNi45NzM4NXw3MTMuMDI2fDIwOS4yMjd8Ni45NzM4NQ==)"/>
  <g clip-path="url(#cpNi45NzM4NXw3MTMuMDI2fDIwOS4yMjd8Ni45NzM4NQ==)">
    <text x="595.63" y="133.18" style="font-size: 9.96px; fill: #FF8821; font-family: Liberation Sans;" textLength="86.25px" lengthAdjust="spacingAndGlyphs">WADDINGTON-OT</text>
  </g>
  <polyline points="423.17,135.40 449.28,135.40 449.19,135.39 449.54,135.38 449.88,135.31 450.21,135.19 450.51,135.01 450.78,134.79 451.01,134.53 451.19,134.24 451.33,133.92 451.41,133.58 451.44,133.24 451.44,133.24 451.44,123.48 451.44,123.48 451.41,123.13 451.33,122.80 451.19,122.48 451.01,122.18 450.78,121.92 450.51,121.70 450.21,121.53 449.88,121.41 449.54,121.34 449.28,121.32 423.17,121.32 423.43,121.34 423.08,121.32 422.73,121.36 422.40,121.46 422.09,121.61 421.80,121.81 421.55,122.05 421.34,122.33 421.18,122.63 421.07,122.96 421.01,123.31 421.01,123.48 421.01,133.24 421.01,133.06 421.01,133.41 421.07,133.75 421.18,134.08 421.34,134.39 421.55,134.67 421.80,134.91 422.09,135.11 422.40,135.26 422.73,135.35 423.08,135.39 " style="stroke-width: 0.53; stroke: #AF0DC7; fill: #FFFFFF;" clip-path="url(#cpNi45NzM4NXw3MTMuMDI2fDIwOS4yMjd8Ni45NzM4NQ==)"/>
  <g clip-path="url(#cpNi45NzM4NXw3MTMuMDI2fDIwOS4yMjd8Ni45NzM4NQ==)">
    <text x="424.61" y="131.80" style="font-size: 9.96px; fill: #AF0DC7; font-family: Liberation Sans;" textLength="23.24px" lengthAdjust="spacingAndGlyphs">Ouija</text>
  </g>
  <polyline points="579.01,24.65 610.64,24.65 610.55,24.65 610.90,24.63 611.24,24.56 611.57,24.44 611.87,24.27 612.14,24.05 612.37,23.79 612.55,23.49 612.69,23.17 612.77,22.84 612.80,22.49 612.80,22.49 612.80,12.73 612.80,12.73 612.77,12.39 612.69,12.05 612.55,11.73 612.37,11.44 612.14,11.18 611.87,10.96 611.57,10.78 611.24,10.66 610.90,10.59 610.64,10.57 579.01,10.57 579.27,10.59 578.92,10.58 578.57,10.62 578.24,10.71 577.93,10.86 577.64,11.06 577.39,11.30 577.18,11.58 577.02,11.89 576.91,12.22 576.85,12.56 576.85,12.73 576.85,22.49 576.85,22.32 576.85,22.66 576.91,23.01 577.02,23.34 577.18,23.64 577.39,23.92 577.64,24.16 577.93,24.36 578.24,24.51 578.57,24.61 578.92,24.65 " style="stroke-width: 0.53; stroke: #39CCCC; fill: #FFFFFF;" clip-path="url(#cpNi45NzM4NXw3MTMuMDI2fDIwOS4yMjd8Ni45NzM4NQ==)"/>
  <g clip-path="url(#cpNi45NzM4NXw3MTMuMDI2fDIwOS4yMjd8Ni45NzM4NQ==)">
    <text x="580.45" y="21.05" style="font-size: 9.96px; fill: #39CCCC; font-family: Liberation Sans;" textLength="28.76px" lengthAdjust="spacingAndGlyphs">reCAT</text>
  </g>
  <polyline points="345.20,142.95 384.03,142.95 383.94,142.94 384.29,142.93 384.63,142.86 384.96,142.74 385.26,142.56 385.53,142.34 385.76,142.08 385.94,141.79 386.08,141.47 386.16,141.13 386.19,140.79 386.19,140.79 386.19,131.03 386.19,131.03 386.16,130.68 386.08,130.35 385.94,130.03 385.76,129.73 385.53,129.47 385.26,129.25 384.96,129.08 384.63,128.96 384.29,128.89 384.03,128.87 345.20,128.87 345.46,128.89 345.11,128.87 344.76,128.91 344.43,129.01 344.12,129.16 343.83,129.36 343.58,129.60 343.37,129.88 343.21,130.18 343.10,130.51 343.04,130.86 343.04,131.03 343.04,140.79 343.04,140.61 343.04,140.96 343.10,141.30 343.21,141.63 343.37,141.94 343.58,142.22 343.83,142.46 344.12,142.66 344.43,142.81 344.76,142.90 345.11,142.94 " style="stroke-width: 0.53; stroke: #5ECD2E; fill: #FFFFFF;" clip-path="url(#cpNi45NzM4NXw3MTMuMDI2fDIwOS4yMjd8Ni45NzM4NQ==)"/>
  <g clip-path="url(#cpNi45NzM4NXw3MTMuMDI2fDIwOS4yMjd8Ni45NzM4NQ==)">
    <text x="346.64" y="139.35" style="font-size: 9.96px; fill: #5ECD2E; font-family: Liberation Sans;" textLength="35.95px" lengthAdjust="spacingAndGlyphs">ECLAIR</text>
  </g>
  <polyline points="576.22,116.18 628.36,116.18 628.27,116.18 628.62,116.17 628.96,116.10 629.29,115.98 629.59,115.80 629.86,115.58 630.09,115.32 630.27,115.03 630.41,114.71 630.49,114.37 630.52,114.02 630.52,114.02 630.52,104.27 630.52,104.27 630.49,103.92 630.41,103.58 630.27,103.26 630.09,102.97 629.86,102.71 629.59,102.49 629.29,102.32 628.96,102.19 628.62,102.12 628.36,102.11 576.22,102.11 576.48,102.12 576.14,102.11 575.79,102.15 575.46,102.25 575.14,102.40 574.86,102.60 574.61,102.84 574.40,103.11 574.24,103.42 574.13,103.75 574.07,104.09 574.06,104.27 574.06,114.02 574.07,113.85 574.07,114.20 574.13,114.54 574.24,114.87 574.40,115.18 574.61,115.46 574.86,115.70 575.14,115.89 575.46,116.04 575.79,116.14 576.14,116.18 " style="stroke-width: 0.53; stroke: #AF0DC7; fill: #FFFFFF;" clip-path="url(#cpNi45NzM4NXw3MTMuMDI2fDIwOS4yMjd8Ni45NzM4NQ==)"/>
  <g clip-path="url(#cpNi45NzM4NXw3MTMuMDI2fDIwOS4yMjd8Ni45NzM4NQ==)">
    <text x="577.66" y="112.58" style="font-size: 9.96px; fill: #AF0DC7; font-family: Liberation Sans;" textLength="49.26px" lengthAdjust="spacingAndGlyphs">PhenoPath</text>
  </g>
  <polyline points="410.50,114.26 448.77,114.26 448.68,114.26 449.03,114.24 449.37,114.17 449.70,114.05 450.00,113.88 450.27,113.66 450.50,113.40 450.68,113.10 450.82,112.78 450.90,112.44 450.93,112.10 450.93,112.10 450.93,102.34 450.93,102.34 450.90,102.00 450.82,101.66 450.68,101.34 450.50,101.04 450.27,100.78 450.00,100.56 449.70,100.39 449.37,100.27 449.03,100.20 448.77,100.18 410.50,100.18 410.76,100.20 410.41,100.18 410.06,100.23 409.73,100.32 409.42,100.47 409.13,100.67 408.88,100.91 408.67,101.19 408.51,101.50 408.40,101.83 408.34,102.17 408.34,102.34 408.34,112.10 408.34,111.92 408.34,112.27 408.40,112.61 408.51,112.94 408.67,113.25 408.88,113.53 409.13,113.77 409.42,113.97 409.73,114.12 410.06,114.21 410.41,114.26 " style="stroke-width: 0.53; stroke: #CFBF00; fill: #FFFFFF;" clip-path="url(#cpNi45NzM4NXw3MTMuMDI2fDIwOS4yMjd8Ni45NzM4NQ==)"/>
  <g clip-path="url(#cpNi45NzM4NXw3MTMuMDI2fDIwOS4yMjd8Ni45NzM4NQ==)">
    <text x="411.94" y="110.66" style="font-size: 9.96px; fill: #CFBF00; font-family: Liberation Sans;" textLength="35.39px" lengthAdjust="spacingAndGlyphs">SCOUP</text>
  </g>
  <polyline points="564.30,137.13 608.65,137.13 608.57,137.13 608.91,137.11 609.25,137.04 609.58,136.92 609.88,136.75 610.15,136.53 610.38,136.27 610.57,135.97 610.70,135.65 610.79,135.32 610.81,134.97 610.81,134.97 610.81,125.21 610.81,125.21 610.79,124.87 610.70,124.53 610.57,124.21 610.38,123.92 610.15,123.66 609.88,123.44 609.58,123.26 609.25,123.14 608.91,123.07 608.65,123.05 564.30,123.05 564.56,123.07 564.21,123.06 563.87,123.10 563.53,123.19 563.22,123.34 562.93,123.54 562.68,123.78 562.47,124.06 562.31,124.37 562.20,124.70 562.15,125.04 562.14,125.21 562.14,134.97 562.15,134.79 562.15,135.14 562.20,135.49 562.31,135.82 562.47,136.12 562.68,136.40 562.93,136.64 563.22,136.84 563.53,136.99 563.87,137.08 564.21,137.13 " style="stroke-width: 0.53; stroke: #AF0DC7; fill: #FFFFFF;" clip-path="url(#cpNi45NzM4NXw3MTMuMDI2fDIwOS4yMjd8Ni45NzM4NQ==)"/>
  <g clip-path="url(#cpNi45NzM4NXw3MTMuMDI2fDIwOS4yMjd8Ni45NzM4NQ==)">
    <text x="565.74" y="133.53" style="font-size: 9.96px; fill: #AF0DC7; font-family: Liberation Sans;" textLength="41.47px" lengthAdjust="spacingAndGlyphs">UNCURL</text>
  </g>
  <polyline points="62.10,180.92 115.32,180.92 115.23,180.92 115.58,180.90 115.92,180.83 116.25,180.71 116.55,180.54 116.82,180.32 117.05,180.06 117.23,179.76 117.37,179.44 117.45,179.11 117.48,178.76 117.48,178.76 117.48,169.00 117.48,169.00 117.45,168.66 117.37,168.32 117.23,168.00 117.05,167.71 116.82,167.45 116.55,167.23 116.25,167.05 115.92,166.93 115.58,166.86 115.32,166.84 62.10,166.84 62.36,166.86 62.02,166.85 61.67,166.89 61.34,166.98 61.02,167.13 60.74,167.33 60.49,167.57 60.28,167.85 60.12,168.16 60.00,168.49 59.95,168.83 59.94,169.00 59.94,178.76 59.95,178.59 59.95,178.93 60.00,179.28 60.12,179.61 60.28,179.91 60.49,180.19 60.74,180.43 61.02,180.63 61.34,180.78 61.67,180.88 62.02,180.92 " style="stroke-width: 0.53; stroke: #AF0DC7; fill: #FFFFFF;" clip-path="url(#cpNi45NzM4NXw3MTMuMDI2fDIwOS4yMjd8Ni45NzM4NQ==)"/>
  <g clip-path="url(#cpNi45NzM4NXw3MTMuMDI2fDIwOS4yMjd8Ni45NzM4NQ==)">
    <text x="63.54" y="177.32" style="font-size: 9.96px; fill: #AF0DC7; font-family: Liberation Sans;" textLength="50.34px" lengthAdjust="spacingAndGlyphs">Wanderlust</text>
  </g>
  <polyline points="378.21,73.35 424.82,73.35 424.73,73.35 425.08,73.34 425.42,73.27 425.75,73.15 426.05,72.97 426.32,72.75 426.55,72.49 426.73,72.20 426.87,71.88 426.95,71.54 426.98,71.19 426.98,71.19 426.98,61.44 426.98,61.44 426.95,61.09 426.87,60.75 426.73,60.44 426.55,60.14 426.32,59.88 426.05,59.66 425.75,59.49 425.42,59.36 425.08,59.29 424.82,59.28 378.21,59.28 378.47,59.29 378.13,59.28 377.78,59.32 377.45,59.42 377.13,59.57 376.85,59.77 376.60,60.01 376.39,60.28 376.23,60.59 376.12,60.92 376.06,61.27 376.05,61.44 376.05,71.19 376.06,71.02 376.06,71.37 376.12,71.71 376.23,72.04 376.39,72.35 376.60,72.63 376.85,72.87 377.13,73.06 377.45,73.21 377.78,73.31 378.13,73.35 " style="stroke-width: 0.53; stroke: #AF0DC7; fill: #FFFFFF;" clip-path="url(#cpNi45NzM4NXw3MTMuMDI2fDIwOS4yMjd8Ni45NzM4NQ==)"/>
  <g clip-path="url(#cpNi45NzM4NXw3MTMuMDI2fDIwOS4yMjd8Ni45NzM4NQ==)">
    <text x="379.65" y="69.75" style="font-size: 9.96px; fill: #AF0DC7; font-family: Liberation Sans;" textLength="43.72px" lengthAdjust="spacingAndGlyphs">pseudogp</text>
  </g>
  <polyline points="592.49,65.23 629.67,65.23 629.58,65.22 629.93,65.21 630.27,65.14 630.60,65.02 630.90,64.84 631.17,64.62 631.40,64.36 631.58,64.07 631.72,63.75 631.80,63.41 631.83,63.07 631.83,63.07 631.83,53.31 631.83,53.31 631.80,52.96 631.72,52.63 631.58,52.31 631.40,52.01 631.17,51.75 630.90,51.53 630.60,51.36 630.27,51.24 629.93,51.17 629.67,51.15 592.49,51.15 592.75,51.17 592.40,51.15 592.06,51.19 591.72,51.29 591.41,51.44 591.12,51.64 590.87,51.88 590.66,52.16 590.50,52.46 590.39,52.79 590.34,53.14 590.33,53.31 590.33,63.07 590.34,62.89 590.34,63.24 590.39,63.58 590.50,63.91 590.66,64.22 590.87,64.50 591.12,64.74 591.41,64.94 591.72,65.09 592.06,65.18 592.40,65.22 " style="stroke-width: 0.53; stroke: #AF0DC7; fill: #FFFFFF;" clip-path="url(#cpNi45NzM4NXw3MTMuMDI2fDIwOS4yMjd8Ni45NzM4NQ==)"/>
  <g clip-path="url(#cpNi45NzM4NXw3MTMuMDI2fDIwOS4yMjd8Ni45NzM4NQ==)">
    <text x="593.93" y="61.63" style="font-size: 9.96px; fill: #AF0DC7; font-family: Liberation Sans;" textLength="34.30px" lengthAdjust="spacingAndGlyphs">SoptSC</text>
  </g>
  <polyline points="600.02,95.70 634.44,95.70 634.35,95.69 634.70,95.68 635.04,95.61 635.36,95.49 635.66,95.31 635.93,95.09 636.16,94.83 636.35,94.54 636.49,94.22 636.57,93.88 636.60,93.54 636.60,93.54 636.60,83.78 636.60,83.78 636.57,83.43 636.49,83.10 636.35,82.78 636.16,82.48 635.93,82.22 635.66,82.00 635.36,81.83 635.04,81.71 634.70,81.64 634.44,81.62 600.02,81.62 600.28,81.64 599.93,81.62 599.59,81.66 599.26,81.76 598.94,81.91 598.66,82.11 598.40,82.35 598.20,82.63 598.03,82.93 597.92,83.26 597.87,83.61 597.86,83.78 597.86,93.54 597.87,93.36 597.87,93.71 597.92,94.05 598.03,94.38 598.20,94.69 598.40,94.97 598.66,95.21 598.94,95.41 599.26,95.56 599.59,95.65 599.93,95.69 " style="stroke-width: 0.53; stroke: #0073D7; fill: #FFFFFF;" clip-path="url(#cpNi45NzM4NXw3MTMuMDI2fDIwOS4yMjd8Ni45NzM4NQ==)"/>
  <g clip-path="url(#cpNi45NzM4NXw3MTMuMDI2fDIwOS4yMjd8Ni45NzM4NQ==)">
    <text x="601.46" y="92.10" style="font-size: 9.96px; fill: #0073D7; font-family: Liberation Sans;" textLength="31.54px" lengthAdjust="spacingAndGlyphs">scanpy</text>
  </g>
  <polyline points="556.93,158.46 589.67,158.46 589.58,158.46 589.93,158.45 590.27,158.38 590.59,158.25 590.89,158.08 591.16,157.86 591.39,157.60 591.58,157.31 591.71,156.99 591.80,156.65 591.83,156.30 591.83,156.30 591.83,146.55 591.83,146.55 591.80,146.20 591.71,145.86 591.58,145.54 591.39,145.25 591.16,144.99 590.89,144.77 590.59,144.60 590.27,144.47 589.93,144.40 589.67,144.39 556.93,144.39 557.19,144.40 556.84,144.39 556.49,144.43 556.16,144.53 555.85,144.68 555.56,144.87 555.31,145.12 555.10,145.39 554.94,145.70 554.83,146.03 554.77,146.37 554.77,146.55 554.77,156.30 554.77,156.13 554.77,156.48 554.83,156.82 554.94,157.15 555.10,157.46 555.31,157.74 555.56,157.98 555.85,158.17 556.16,158.32 556.49,158.42 556.84,158.46 " style="stroke-width: 0.53; stroke: #AF0DC7; fill: #FFFFFF;" clip-path="url(#cpNi45NzM4NXw3MTMuMDI2fDIwOS4yMjd8Ni45NzM4NQ==)"/>
  <g clip-path="url(#cpNi45NzM4NXw3MTMuMDI2fDIwOS4yMjd8Ni45NzM4NQ==)">
    <text x="558.37" y="154.86" style="font-size: 9.96px; fill: #AF0DC7; font-family: Liberation Sans;" textLength="29.86px" lengthAdjust="spacingAndGlyphs">scTDA</text>
  </g>
  <polyline points="499.04,174.76 530.69,174.76 530.60,174.76 530.95,174.75 531.29,174.68 531.61,174.55 531.91,174.38 532.18,174.16 532.41,173.90 532.60,173.61 532.74,173.29 532.82,172.95 532.85,172.60 532.85,172.60 532.85,162.85 532.85,162.85 532.82,162.50 532.74,162.16 532.60,161.84 532.41,161.55 532.18,161.29 531.91,161.07 531.61,160.90 531.29,160.77 530.95,160.70 530.69,160.69 499.04,160.69 499.30,160.70 498.96,160.69 498.61,160.73 498.28,160.83 497.96,160.98 497.68,161.17 497.43,161.42 497.22,161.69 497.05,162.00 496.94,162.33 496.89,162.67 496.88,162.85 496.88,172.60 496.89,172.43 496.89,172.78 496.94,173.12 497.05,173.45 497.22,173.76 497.43,174.04 497.68,174.28 497.96,174.47 498.28,174.62 498.61,174.72 498.96,174.76 " style="stroke-width: 0.53; stroke: #5ECD2E; fill: #FFFFFF;" clip-path="url(#cpNi45NzM4NXw3MTMuMDI2fDIwOS4yMjd8Ni45NzM4NQ==)"/>
  <g clip-path="url(#cpNi45NzM4NXw3MTMuMDI2fDIwOS4yMjd8Ni45NzM4NQ==)">
    <text x="500.48" y="171.16" style="font-size: 9.96px; fill: #5ECD2E; font-family: Liberation Sans;" textLength="28.77px" lengthAdjust="spacingAndGlyphs">SLICE</text>
  </g>
  <polyline points="520.60,118.79 558.33,118.79 558.25,118.79 558.59,118.77 558.93,118.70 559.26,118.58 559.56,118.41 559.83,118.19 560.06,117.93 560.25,117.63 560.38,117.31 560.46,116.98 560.49,116.63 560.49,116.63 560.49,106.87 560.49,106.87 560.46,106.53 560.38,106.19 560.25,105.87 560.06,105.58 559.83,105.32 559.56,105.10 559.26,104.92 558.93,104.80 558.59,104.73 558.33,104.71 520.60,104.71 520.86,104.73 520.52,104.72 520.17,104.76 519.84,104.85 519.52,105.00 519.24,105.20 518.99,105.44 518.78,105.72 518.62,106.03 518.51,106.36 518.45,106.70 518.44,106.87 518.44,116.63 518.45,116.46 518.45,116.80 518.51,117.15 518.62,117.48 518.78,117.78 518.99,118.06 519.24,118.30 519.52,118.50 519.84,118.65 520.17,118.75 520.52,118.79 " style="stroke-width: 0.53; stroke: #AF0DC7; fill: #FFFFFF;" clip-path="url(#cpNi45NzM4NXw3MTMuMDI2fDIwOS4yMjd8Ni45NzM4NQ==)"/>
  <g clip-path="url(#cpNi45NzM4NXw3MTMuMDI2fDIwOS4yMjd8Ni45NzM4NQ==)">
    <text x="522.04" y="115.19" style="font-size: 9.96px; fill: #AF0DC7; font-family: Liberation Sans;" textLength="34.85px" lengthAdjust="spacingAndGlyphs">topslam</text>
  </g>
  <polyline points="410.29,184.89 456.89,184.89 456.80,184.89 457.15,184.88 457.49,184.81 457.81,184.68 458.11,184.51 458.38,184.29 458.61,184.03 458.80,183.74 458.93,183.42 459.02,183.08 459.05,182.73 459.05,182.73 459.05,172.98 459.05,172.98 459.02,172.63 458.93,172.29 458.80,171.97 458.61,171.68 458.38,171.42 458.11,171.20 457.81,171.03 457.49,170.90 457.15,170.83 456.89,170.82 410.29,170.82 410.55,170.83 410.20,170.82 409.86,170.86 409.52,170.96 409.21,171.11 408.92,171.30 408.67,171.54 408.47,171.82 408.30,172.13 408.19,172.46 408.14,172.80 408.13,172.98 408.13,182.73 408.14,182.56 408.14,182.91 408.19,183.25 408.30,183.58 408.47,183.89 408.67,184.16 408.92,184.41 409.21,184.60 409.52,184.75 409.86,184.85 410.20,184.89 " style="stroke-width: 0.53; stroke: #AF0DC7; fill: #FFFFFF;" clip-path="url(#cpNi45NzM4NXw3MTMuMDI2fDIwOS4yMjd8Ni45NzM4NQ==)"/>
  <g clip-path="url(#cpNi45NzM4NXw3MTMuMDI2fDIwOS4yMjd8Ni45NzM4NQ==)">
    <text x="411.73" y="181.29" style="font-size: 9.96px; fill: #AF0DC7; font-family: Liberation Sans;" textLength="43.72px" lengthAdjust="spacingAndGlyphs">DeLorean</text>
  </g>
  <polyline points="540.70,97.66 564.59,97.66 564.51,97.66 564.85,97.65 565.19,97.58 565.52,97.46 565.82,97.28 566.09,97.06 566.32,96.80 566.50,96.51 566.64,96.19 566.72,95.85 566.75,95.50 566.75,95.50 566.75,85.75 566.75,85.75 566.72,85.40 566.64,85.07 566.50,84.75 566.32,84.45 566.09,84.19 565.82,83.97 565.52,83.80 565.19,83.67 564.85,83.61 564.59,83.59 540.70,83.59 540.96,83.61 540.62,83.59 540.27,83.63 539.94,83.73 539.62,83.88 539.34,84.08 539.09,84.32 538.88,84.60 538.72,84.90 538.61,85.23 538.55,85.58 538.54,85.75 538.54,95.50 538.55,95.33 538.55,95.68 538.61,96.02 538.72,96.35 538.88,96.66 539.09,96.94 539.34,97.18 539.62,97.38 539.94,97.52 540.27,97.62 540.62,97.66 " style="stroke-width: 0.53; stroke: #CFBF00; fill: #FFFFFF;" clip-path="url(#cpNi45NzM4NXw3MTMuMDI2fDIwOS4yMjd8Ni45NzM4NQ==)"/>
  <g clip-path="url(#cpNi45NzM4NXw3MTMuMDI2fDIwOS4yMjd8Ni45NzM4NQ==)">
    <text x="542.14" y="94.06" style="font-size: 9.96px; fill: #CFBF00; font-family: Liberation Sans;" textLength="21.01px" lengthAdjust="spacingAndGlyphs">MFA</text>
  </g>
  <polyline points="644.35,67.10 692.03,67.10 691.95,67.10 692.29,67.09 692.63,67.02 692.96,66.89 693.26,66.72 693.53,66.50 693.76,66.24 693.95,65.95 694.08,65.63 694.17,65.29 694.19,64.94 694.19,64.94 694.19,55.19 694.19,55.19 694.17,54.84 694.08,54.50 693.95,54.18 693.76,53.89 693.53,53.63 693.26,53.41 692.96,53.23 692.63,53.11 692.29,53.04 692.03,53.03 644.35,53.03 644.61,53.04 644.26,53.03 643.92,53.07 643.58,53.17 643.27,53.32 642.98,53.51 642.73,53.75 642.52,54.03 642.36,54.34 642.25,54.67 642.20,55.01 642.19,55.19 642.19,64.94 642.20,64.77 642.20,65.12 642.25,65.46 642.36,65.79 642.52,66.10 642.73,66.37 642.98,66.61 643.27,66.81 643.58,66.96 643.92,67.06 644.26,67.10 " style="stroke-width: 0.53; stroke: #CFBF00; fill: #FFFFFF;" clip-path="url(#cpNi45NzM4NXw3MTMuMDI2fDIwOS4yMjd8Ni45NzM4NQ==)"/>
  <g clip-path="url(#cpNi45NzM4NXw3MTMuMDI2fDIwOS4yMjd8Ni45NzM4NQ==)">
    <text x="645.79" y="63.50" style="font-size: 9.96px; fill: #CFBF00; font-family: Liberation Sans;" textLength="44.80px" lengthAdjust="spacingAndGlyphs">GrandPrix</text>
  </g>
  <polyline points="179.96,183.46 217.13,183.46 217.04,183.46 217.39,183.45 217.73,183.38 218.06,183.26 218.36,183.08 218.63,182.86 218.86,182.60 219.04,182.31 219.18,181.99 219.26,181.65 219.29,181.30 219.29,181.30 219.29,171.55 219.29,171.55 219.26,171.20 219.18,170.87 219.04,170.55 218.86,170.25 218.63,169.99 218.36,169.77 218.06,169.60 217.73,169.47 217.39,169.41 217.13,169.39 179.96,169.39 180.22,169.41 179.87,169.39 179.53,169.43 179.19,169.53 178.88,169.68 178.59,169.88 178.34,170.12 178.13,170.40 177.97,170.70 177.86,171.03 177.81,171.38 177.80,171.55 177.80,181.30 177.81,181.13 177.81,181.48 177.86,181.82 177.97,182.15 178.13,182.46 178.34,182.74 178.59,182.98 178.88,183.18 179.19,183.32 179.53,183.42 179.87,183.46 " style="stroke-width: 0.53; stroke: #5ECD2E; fill: #FFFFFF;" clip-path="url(#cpNi45NzM4NXw3MTMuMDI2fDIwOS4yMjd8Ni45NzM4NQ==)"/>
  <g clip-path="url(#cpNi45NzM4NXw3MTMuMDI2fDIwOS4yMjd8Ni45NzM4NQ==)">
    <text x="181.40" y="179.86" style="font-size: 9.96px; fill: #5ECD2E; font-family: Liberation Sans;" textLength="34.29px" lengthAdjust="spacingAndGlyphs">SCUBA</text>
  </g>
  <polyline points="652.16,161.96 681.59,161.96 681.50,161.96 681.85,161.94 682.19,161.87 682.52,161.75 682.82,161.58 683.09,161.36 683.32,161.10 683.50,160.80 683.64,160.48 683.72,160.14 683.75,159.80 683.75,159.80 683.75,150.04 683.75,150.04 683.72,149.70 683.64,149.36 683.50,149.04 683.32,148.74 683.09,148.48 682.82,148.26 682.52,148.09 682.19,147.97 681.85,147.90 681.59,147.88 652.16,147.88 652.42,147.90 652.07,147.88 651.73,147.93 651.39,148.02 651.08,148.17 650.79,148.37 650.54,148.61 650.33,148.89 650.17,149.20 650.06,149.53 650.01,149.87 650.00,150.04 650.00,159.80 650.01,159.62 650.01,159.97 650.06,160.31 650.17,160.64 650.33,160.95 650.54,161.23 650.79,161.47 651.08,161.67 651.39,161.82 651.73,161.91 652.07,161.96 " style="stroke-width: 0.53; stroke: #AF0DC7; fill: #FFFFFF;" clip-path="url(#cpNi45NzM4NXw3MTMuMDI2fDIwOS4yMjd8Ni45NzM4NQ==)"/>
  <g clip-path="url(#cpNi45NzM4NXw3MTMuMDI2fDIwOS4yMjd8Ni45NzM4NQ==)">
    <text x="653.60" y="158.36" style="font-size: 9.96px; fill: #AF0DC7; font-family: Liberation Sans;" textLength="26.55px" lengthAdjust="spacingAndGlyphs">iCpSc</text>
  </g>
  <polyline points="545.34,179.26 577.53,179.26 577.44,179.26 577.79,179.24 578.13,179.17 578.46,179.05 578.76,178.88 579.03,178.66 579.26,178.40 579.44,178.10 579.58,177.78 579.66,177.45 579.69,177.10 579.69,177.10 579.69,167.34 579.69,167.34 579.66,167.00 579.58,166.66 579.44,166.34 579.26,166.05 579.03,165.79 578.76,165.57 578.46,165.39 578.13,165.27 577.79,165.20 577.53,165.18 545.34,165.18 545.60,165.20 545.25,165.19 544.91,165.23 544.57,165.32 544.26,165.47 543.97,165.67 543.72,165.91 543.51,166.19 543.35,166.50 543.24,166.83 543.19,167.17 543.18,167.34 543.18,177.10 543.19,176.93 543.19,177.27 543.24,177.62 543.35,177.95 543.51,178.25 543.72,178.53 543.97,178.77 544.26,178.97 544.57,179.12 544.91,179.22 545.25,179.26 " style="stroke-width: 0.53; stroke: #5ECD2E; fill: #FFFFFF;" clip-path="url(#cpNi45NzM4NXw3MTMuMDI2fDIwOS4yMjd8Ni45NzM4NQ==)"/>
  <g clip-path="url(#cpNi45NzM4NXw3MTMuMDI2fDIwOS4yMjd8Ni45NzM4NQ==)">
    <text x="546.78" y="175.66" style="font-size: 9.96px; fill: #5ECD2E; font-family: Liberation Sans;" textLength="29.31px" lengthAdjust="spacingAndGlyphs">TASIC</text>
  </g>
  <polyline points="456.26,77.89 506.69,77.89 506.61,77.89 506.95,77.88 507.29,77.81 507.62,77.69 507.92,77.51 508.19,77.29 508.42,77.03 508.61,76.74 508.74,76.42 508.82,76.08 508.85,75.73 508.85,75.73 508.85,65.98 508.85,65.98 508.82,65.63 508.74,65.30 508.61,64.98 508.42,64.68 508.19,64.42 507.92,64.20 507.62,64.03 507.29,63.90 506.95,63.83 506.69,63.82 456.26,63.82 456.52,63.83 456.17,63.82 455.83,63.86 455.49,63.96 455.18,64.11 454.89,64.31 454.64,64.55 454.43,64.82 454.27,65.13 454.16,65.46 454.11,65.81 454.10,65.98 454.10,75.73 454.11,75.56 454.11,75.91 454.16,76.25 454.27,76.58 454.43,76.89 454.64,77.17 454.89,77.41 455.18,77.60 455.49,77.75 455.83,77.85 456.17,77.89 " style="stroke-width: 0.53; stroke: #AF0DC7; fill: #FFFFFF;" clip-path="url(#cpNi45NzM4NXw3MTMuMDI2fDIwOS4yMjd8Ni45NzM4NQ==)"/>
  <g clip-path="url(#cpNi45NzM4NXw3MTMuMDI2fDIwOS4yMjd8Ni45NzM4NQ==)">
    <text x="457.70" y="74.29" style="font-size: 9.96px; fill: #AF0DC7; font-family: Liberation Sans;" textLength="47.55px" lengthAdjust="spacingAndGlyphs">SCIMITAR</text>
  </g>
  <polyline points="601.77,158.74 625.66,158.74 625.58,158.74 625.92,158.72 626.27,158.65 626.59,158.53 626.89,158.36 627.16,158.14 627.39,157.88 627.58,157.58 627.71,157.26 627.80,156.92 627.82,156.58 627.82,156.58 627.82,146.82 627.82,146.82 627.80,146.48 627.71,146.14 627.58,145.82 627.39,145.53 627.16,145.27 626.89,145.05 626.59,144.87 626.27,144.75 625.92,144.68 625.66,144.66 601.77,144.66 602.03,144.68 601.68,144.67 601.33,144.71 601.00,144.80 600.69,144.95 600.40,145.15 600.15,145.39 599.94,145.67 599.78,145.98 599.67,146.31 599.61,146.65 599.61,146.82 599.61,156.58 599.61,156.40 599.61,156.75 599.67,157.10 599.78,157.42 599.94,157.73 600.15,158.01 600.40,158.25 600.69,158.45 601.00,158.60 601.33,158.69 601.68,158.74 " style="stroke-width: 0.53; stroke: #0073D7; fill: #FFFFFF;" clip-path="url(#cpNi45NzM4NXw3MTMuMDI2fDIwOS4yMjd8Ni45NzM4NQ==)"/>
  <g clip-path="url(#cpNi45NzM4NXw3MTMuMDI2fDIwOS4yMjd8Ni45NzM4NQ==)">
    <text x="603.21" y="155.14" style="font-size: 9.96px; fill: #0073D7; font-family: Liberation Sans;" textLength="21.02px" lengthAdjust="spacingAndGlyphs">BGP</text>
  </g>
  <polyline points="54.21,202.85 103.01,202.85 102.92,202.85 103.27,202.83 103.61,202.76 103.93,202.64 104.23,202.47 104.50,202.25 104.73,201.99 104.92,201.69 105.06,201.37 105.14,201.04 105.17,200.69 105.17,200.69 105.17,190.93 105.17,190.93 105.14,190.59 105.06,190.25 104.92,189.93 104.73,189.64 104.50,189.38 104.23,189.16 103.93,188.98 103.61,188.86 103.27,188.79 103.01,188.77 54.21,188.77 54.47,188.79 54.12,188.78 53.77,188.82 53.44,188.91 53.13,189.06 52.84,189.26 52.59,189.50 52.38,189.78 52.22,190.09 52.11,190.42 52.05,190.76 52.05,190.93 52.05,200.69 52.05,200.51 52.05,200.86 52.11,201.21 52.22,201.54 52.38,201.84 52.59,202.12 52.84,202.36 53.13,202.56 53.44,202.71 53.77,202.81 54.12,202.85 " style="stroke-width: 0.53; stroke: #5ECD2E; fill: #FFFFFF;" clip-path="url(#cpNi45NzM4NXw3MTMuMDI2fDIwOS4yMjd8Ni45NzM4NQ==)"/>
  <g clip-path="url(#cpNi45NzM4NXw3MTMuMDI2fDIwOS4yMjd8Ni45NzM4NQ==)">
    <text x="55.65" y="199.25" style="font-size: 9.96px; fill: #5ECD2E; font-family: Liberation Sans;" textLength="45.92px" lengthAdjust="spacingAndGlyphs">Monocle 1</text>
  </g>
  <polyline points="399.91,93.51 436.52,93.51 436.43,93.51 436.78,93.49 437.12,93.42 437.44,93.30 437.75,93.13 438.01,92.91 438.24,92.65 438.43,92.35 438.57,92.03 438.65,91.70 438.68,91.35 438.68,91.35 438.68,81.59 438.68,81.59 438.65,81.25 438.57,80.91 438.43,80.59 438.24,80.30 438.01,80.04 437.75,79.82 437.44,79.64 437.12,79.52 436.78,79.45 436.52,79.43 399.91,79.43 400.17,79.45 399.82,79.44 399.47,79.48 399.14,79.57 398.83,79.72 398.54,79.92 398.29,80.16 398.08,80.44 397.92,80.75 397.81,81.08 397.75,81.42 397.75,81.59 397.75,91.35 397.75,91.18 397.75,91.52 397.81,91.87 397.92,92.20 398.08,92.50 398.29,92.78 398.54,93.02 398.83,93.22 399.14,93.37 399.47,93.47 399.82,93.51 " style="stroke-width: 0.53; stroke: #5ECD2E; fill: #FFFFFF;" clip-path="url(#cpNi45NzM4NXw3MTMuMDI2fDIwOS4yMjd8Ni45NzM4NQ==)"/>
  <g clip-path="url(#cpNi45NzM4NXw3MTMuMDI2fDIwOS4yMjd8Ni45NzM4NQ==)">
    <text x="401.35" y="89.91" style="font-size: 9.96px; fill: #5ECD2E; font-family: Liberation Sans;" textLength="33.73px" lengthAdjust="spacingAndGlyphs">TSCAN</text>
  </g>
  <polyline points="638.10,183.86 682.47,183.86 682.38,183.86 682.73,183.84 683.07,183.77 683.40,183.65 683.70,183.48 683.97,183.26 684.20,183.00 684.38,182.70 684.52,182.38 684.60,182.05 684.63,181.70 684.63,181.70 684.63,171.94 684.63,171.94 684.60,171.60 684.52,171.26 684.38,170.94 684.20,170.65 683.97,170.39 683.70,170.17 683.40,169.99 683.07,169.87 682.73,169.80 682.47,169.78 638.10,169.78 638.36,169.80 638.01,169.79 637.67,169.83 637.33,169.92 637.02,170.07 636.73,170.27 636.48,170.51 636.27,170.79 636.11,171.10 636.00,171.43 635.94,171.77 635.94,171.94 635.94,181.70 635.94,181.52 635.94,181.87 636.00,182.22 636.11,182.55 636.27,182.85 636.48,183.13 636.73,183.37 637.02,183.57 637.33,183.72 637.67,183.82 638.01,183.86 " style="stroke-width: 0.53; stroke: #5ECD2E; fill: #FFFFFF;" clip-path="url(#cpNi45NzM4NXw3MTMuMDI2fDIwOS4yMjd8Ni45NzM4NQ==)"/>
  <g clip-path="url(#cpNi45NzM4NXw3MTMuMDI2fDIwOS4yMjd8Ni45NzM4NQ==)">
    <text x="639.54" y="180.26" style="font-size: 9.96px; fill: #5ECD2E; font-family: Liberation Sans;" textLength="41.49px" lengthAdjust="spacingAndGlyphs">p-Creode</text>
  </g>
  <polyline points="474.59,99.18 511.20,99.18 511.12,99.17 511.47,99.16 511.81,99.09 512.13,98.97 512.43,98.79 512.70,98.57 512.93,98.31 513.12,98.02 513.25,97.70 513.34,97.36 513.36,97.02 513.36,97.02 513.36,87.26 513.36,87.26 513.34,86.91 513.25,86.58 513.12,86.26 512.93,85.96 512.70,85.70 512.43,85.48 512.13,85.31 511.81,85.19 511.47,85.12 511.20,85.10 474.59,85.10 474.85,85.12 474.50,85.10 474.16,85.14 473.83,85.24 473.51,85.39 473.23,85.59 472.98,85.83 472.77,86.11 472.60,86.41 472.49,86.74 472.44,87.09 472.43,87.26 472.43,97.02 472.44,96.84 472.44,97.19 472.49,97.53 472.60,97.86 472.77,98.17 472.98,98.45 473.23,98.69 473.51,98.89 473.83,99.04 474.16,99.13 474.50,99.17 " style="stroke-width: 0.53; stroke: #AF0DC7; fill: #FFFFFF;" clip-path="url(#cpNi45NzM4NXw3MTMuMDI2fDIwOS4yMjd8Ni45NzM4NQ==)"/>
  <g clip-path="url(#cpNi45NzM4NXw3MTMuMDI2fDIwOS4yMjd8Ni45NzM4NQ==)">
    <text x="476.03" y="95.58" style="font-size: 9.96px; fill: #AF0DC7; font-family: Liberation Sans;" textLength="33.73px" lengthAdjust="spacingAndGlyphs">SCENT</text>
  </g>
  <polyline points="639.99,205.51 663.89,205.51 663.80,205.51 664.15,205.49 664.49,205.42 664.81,205.30 665.11,205.13 665.38,204.91 665.61,204.65 665.80,204.35 665.94,204.03 666.02,203.70 666.05,203.35 666.05,203.35 666.05,193.60 666.05,193.60 666.02,193.25 665.94,192.91 665.80,192.59 665.61,192.30 665.38,192.04 665.11,191.82 664.81,191.64 664.49,191.52 664.15,191.45 663.89,191.44 639.99,191.44 640.25,191.45 639.90,191.44 639.56,191.48 639.22,191.58 638.91,191.72 638.62,191.92 638.37,192.16 638.16,192.44 638.00,192.75 637.89,193.08 637.83,193.42 637.83,193.60 637.83,203.35 637.83,203.18 637.83,203.52 637.89,203.87 638.00,204.20 638.16,204.50 638.37,204.78 638.62,205.02 638.91,205.22 639.22,205.37 639.56,205.47 639.90,205.51 " style="stroke-width: 0.53; stroke: #FF4237; fill: #FFFFFF;" clip-path="url(#cpNi45NzM4NXw3MTMuMDI2fDIwOS4yMjd8Ni45NzM4NQ==)"/>
  <g clip-path="url(#cpNi45NzM4NXw3MTMuMDI2fDIwOS4yMjd8Ni45NzM4NQ==)">
    <text x="641.43" y="201.91" style="font-size: 9.96px; fill: #FF4237; font-family: Liberation Sans;" textLength="21.02px" lengthAdjust="spacingAndGlyphs">AGA</text>
  </g>
  <polyline points="253.02,204.89 284.66,204.89 284.57,204.88 284.92,204.87 285.26,204.80 285.58,204.68 285.88,204.50 286.15,204.28 286.38,204.02 286.57,203.73 286.71,203.41 286.79,203.07 286.82,202.73 286.82,202.73 286.82,192.97 286.82,192.97 286.79,192.63 286.71,192.29 286.57,191.97 286.38,191.67 286.15,191.41 285.88,191.19 285.58,191.02 285.26,190.90 284.92,190.83 284.66,190.81 253.02,190.81 253.28,190.83 252.93,190.81 252.59,190.86 252.25,190.95 251.94,191.10 251.65,191.30 251.40,191.54 251.19,191.82 251.03,192.12 250.92,192.45 250.87,192.80 250.86,192.97 250.86,202.73 250.87,202.55 250.87,202.90 250.92,203.24 251.03,203.57 251.19,203.88 251.40,204.16 251.65,204.40 251.94,204.60 252.25,204.75 252.59,204.84 252.93,204.88 " style="stroke-width: 0.53; stroke: #AF0DC7; fill: #FFFFFF;" clip-path="url(#cpNi45NzM4NXw3MTMuMDI2fDIwOS4yMjd8Ni45NzM4NQ==)"/>
  <g clip-path="url(#cpNi45NzM4NXw3MTMuMDI2fDIwOS4yMjd8Ni45NzM4NQ==)">
    <text x="254.46" y="201.29" style="font-size: 9.96px; fill: #AF0DC7; font-family: Liberation Sans;" textLength="28.76px" lengthAdjust="spacingAndGlyphs">NBOR</text>
  </g>
  <polyline points="195.58,205.13 226.12,205.13 226.03,205.13 226.38,205.11 226.72,205.04 227.04,204.92 227.34,204.75 227.61,204.53 227.84,204.27 228.03,203.97 228.16,203.65 228.25,203.32 228.28,202.97 228.28,202.97 228.28,193.21 228.28,193.21 228.25,192.87 228.16,192.53 228.03,192.21 227.84,191.92 227.61,191.66 227.34,191.44 227.04,191.26 226.72,191.14 226.38,191.07 226.12,191.05 195.58,191.05 195.84,191.07 195.49,191.06 195.15,191.10 194.81,191.19 194.50,191.34 194.21,191.54 193.96,191.78 193.75,192.06 193.59,192.37 193.48,192.70 193.42,193.04 193.42,193.21 193.42,202.97 193.42,202.79 193.42,203.14 193.48,203.49 193.59,203.82 193.75,204.12 193.96,204.40 194.21,204.64 194.50,204.84 194.81,204.99 195.15,205.08 195.49,205.13 " style="stroke-width: 0.53; stroke: #5ECD2E; fill: #FFFFFF;" clip-path="url(#cpNi45NzM4NXw3MTMuMDI2fDIwOS4yMjd8Ni45NzM4NQ==)"/>
  <g clip-path="url(#cpNi45NzM4NXw3MTMuMDI2fDIwOS4yMjd8Ni45NzM4NQ==)">
    <text x="197.02" y="201.53" style="font-size: 9.96px; fill: #5ECD2E; font-family: Liberation Sans;" textLength="27.66px" lengthAdjust="spacingAndGlyphs">sincell</text>
  </g>
  <polyline points="365.08,184.27 387.87,184.27 387.78,184.27 388.13,184.25 388.47,184.18 388.79,184.06 389.10,183.88 389.36,183.66 389.59,183.40 389.78,183.11 389.92,182.79 390.00,182.45 390.03,182.11 390.03,182.11 390.03,172.35 390.03,172.35 390.00,172.01 389.92,171.67 389.78,171.35 389.59,171.05 389.36,170.79 389.10,170.57 388.79,170.40 388.47,170.28 388.13,170.21 387.87,170.19 365.08,170.19 365.34,170.21 364.99,170.19 364.65,170.24 364.32,170.33 364.00,170.48 363.72,170.68 363.47,170.92 363.26,171.20 363.09,171.51 362.98,171.84 362.93,172.18 362.92,172.35 362.92,182.11 362.93,181.93 362.93,182.28 362.98,182.62 363.09,182.95 363.26,183.26 363.47,183.54 363.72,183.78 364.00,183.98 364.32,184.13 364.65,184.22 364.99,184.27 " style="stroke-width: 0.53; stroke: #0073D7; fill: #FFFFFF;" clip-path="url(#cpNi45NzM4NXw3MTMuMDI2fDIwOS4yMjd8Ni45NzM4NQ==)"/>
  <g clip-path="url(#cpNi45NzM4NXw3MTMuMDI2fDIwOS4yMjd8Ni45NzM4NQ==)">
    <text x="366.52" y="180.67" style="font-size: 9.96px; fill: #0073D7; font-family: Liberation Sans;" textLength="19.91px" lengthAdjust="spacingAndGlyphs">DPT</text>
  </g>
  <polyline points="394.34,162.73 421.00,162.73 420.91,162.72 421.26,162.71 421.60,162.64 421.93,162.52 422.23,162.34 422.50,162.12 422.73,161.86 422.91,161.57 423.05,161.25 423.13,160.91 423.16,160.57 423.16,160.57 423.16,150.81 423.16,150.81 423.13,150.46 423.05,150.13 422.91,149.81 422.73,149.51 422.50,149.25 422.23,149.03 421.93,148.86 421.60,148.74 421.26,148.67 421.00,148.65 394.34,148.65 394.60,148.67 394.25,148.65 393.90,148.69 393.57,148.79 393.26,148.94 392.97,149.14 392.72,149.38 392.51,149.66 392.35,149.96 392.24,150.29 392.18,150.64 392.18,150.81 392.18,160.57 392.18,160.39 392.18,160.74 392.24,161.08 392.35,161.41 392.51,161.72 392.72,162.00 392.97,162.24 393.26,162.44 393.57,162.59 393.90,162.68 394.25,162.72 " style="stroke-width: 0.53; stroke: #AF0DC7; fill: #FFFFFF;" clip-path="url(#cpNi45NzM4NXw3MTMuMDI2fDIwOS4yMjd8Ni45NzM4NQ==)"/>
  <g clip-path="url(#cpNi45NzM4NXw3MTMuMDI2fDIwOS4yMjd8Ni45NzM4NQ==)">
    <text x="395.78" y="159.13" style="font-size: 9.96px; fill: #AF0DC7; font-family: Liberation Sans;" textLength="23.78px" lengthAdjust="spacingAndGlyphs">SCell</text>
  </g>
  <polyline points="383.86,203.38 422.69,203.38 422.60,203.38 422.95,203.37 423.29,203.30 423.62,203.18 423.92,203.00 424.19,202.78 424.42,202.52 424.60,202.23 424.74,201.91 424.82,201.57 424.85,201.22 424.85,201.22 424.85,191.47 424.85,191.47 424.82,191.12 424.74,190.79 424.60,190.47 424.42,190.17 424.19,189.91 423.92,189.69 423.62,189.52 423.29,189.39 422.95,189.33 422.69,189.31 383.86,189.31 384.12,189.33 383.77,189.31 383.43,189.35 383.09,189.45 382.78,189.60 382.49,189.80 382.24,190.04 382.03,190.32 381.87,190.62 381.76,190.95 381.70,191.30 381.70,191.47 381.70,201.22 381.70,201.05 381.70,201.40 381.76,201.74 381.87,202.07 382.03,202.38 382.24,202.66 382.49,202.90 382.78,203.10 383.09,203.24 383.43,203.34 383.77,203.38 " style="stroke-width: 0.53; stroke: #FF8821; fill: #FFFFFF;" clip-path="url(#cpNi45NzM4NXw3MTMuMDI2fDIwOS4yMjd8Ni45NzM4NQ==)"/>
  <g clip-path="url(#cpNi45NzM4NXw3MTMuMDI2fDIwOS4yMjd8Ni45NzM4NQ==)">
    <text x="385.30" y="199.78" style="font-size: 9.96px; fill: #FF8821; font-family: Liberation Sans;" textLength="35.95px" lengthAdjust="spacingAndGlyphs">SLICER</text>
  </g>
  <polyline points="439.49,171.35 477.77,171.35 477.68,171.35 478.03,171.34 478.37,171.27 478.70,171.14 479.00,170.97 479.27,170.75 479.50,170.49 479.68,170.19 479.82,169.87 479.90,169.54 479.93,169.19 479.93,169.19 479.93,159.44 479.93,159.44 479.90,159.09 479.82,158.75 479.68,158.43 479.50,158.14 479.27,157.88 479.00,157.66 478.70,157.48 478.37,157.36 478.03,157.29 477.77,157.28 439.49,157.28 439.75,157.29 439.40,157.28 439.06,157.32 438.72,157.42 438.41,157.57 438.12,157.76 437.87,158.00 437.66,158.28 437.50,158.59 437.39,158.92 437.34,159.26 437.33,159.44 437.33,169.19 437.34,169.02 437.34,169.36 437.39,169.71 437.50,170.04 437.66,170.35 437.87,170.62 438.12,170.86 438.41,171.06 438.72,171.21 439.06,171.31 439.40,171.35 " style="stroke-width: 0.53; stroke: #5ECD2E; fill: #FFFFFF;" clip-path="url(#cpNi45NzM4NXw3MTMuMDI2fDIwOS4yMjd8Ni45NzM4NQ==)"/>
  <g clip-path="url(#cpNi45NzM4NXw3MTMuMDI2fDIwOS4yMjd8Ni45NzM4NQ==)">
    <text x="440.93" y="167.75" style="font-size: 9.96px; fill: #5ECD2E; font-family: Liberation Sans;" textLength="35.40px" lengthAdjust="spacingAndGlyphs">cellTree</text>
  </g>
  <polyline points="601.44,178.91 624.23,178.91 624.15,178.90 624.49,178.89 624.84,178.82 625.16,178.70 625.46,178.52 625.73,178.30 625.96,178.04 626.15,177.75 626.28,177.43 626.37,177.09 626.39,176.75 626.39,176.75 626.39,166.99 626.39,166.99 626.37,166.64 626.28,166.31 626.15,165.99 625.96,165.69 625.73,165.43 625.46,165.21 625.16,165.04 624.84,164.92 624.49,164.85 624.23,164.83 601.44,164.83 601.70,164.85 601.35,164.83 601.01,164.87 600.67,164.97 600.36,165.12 600.07,165.32 599.82,165.56 599.61,165.84 599.45,166.14 599.34,166.47 599.29,166.82 599.28,166.99 599.28,176.75 599.29,176.57 599.29,176.92 599.34,177.26 599.45,177.59 599.61,177.90 599.82,178.18 600.07,178.42 600.36,178.62 600.67,178.77 601.01,178.86 601.35,178.90 " style="stroke-width: 0.53; stroke: #CFBF00; fill: #FFFFFF;" clip-path="url(#cpNi45NzM4NXw3MTMuMDI2fDIwOS4yMjd8Ni45NzM4NQ==)"/>
  <g clip-path="url(#cpNi45NzM4NXw3MTMuMDI2fDIwOS4yMjd8Ni45NzM4NQ==)">
    <text x="602.88" y="175.31" style="font-size: 9.96px; fill: #CFBF00; font-family: Liberation Sans;" textLength="19.92px" lengthAdjust="spacingAndGlyphs">PBA</text>
  </g>
  <polyline points="455.36,199.85 510.23,199.85 510.14,199.85 510.49,199.84 510.83,199.77 511.15,199.64 511.45,199.47 511.72,199.25 511.95,198.99 512.14,198.70 512.28,198.38 512.36,198.04 512.39,197.69 512.39,197.69 512.39,187.94 512.39,187.94 512.36,187.59 512.28,187.25 512.14,186.93 511.95,186.64 511.72,186.38 511.45,186.16 511.15,185.99 510.83,185.86 510.49,185.79 510.23,185.78 455.36,185.78 455.62,185.79 455.27,185.78 454.93,185.82 454.59,185.92 454.28,186.07 453.99,186.26 453.74,186.50 453.53,186.78 453.37,187.09 453.26,187.42 453.21,187.76 453.20,187.94 453.20,197.69 453.21,197.52 453.21,197.87 453.26,198.21 453.37,198.54 453.53,198.85 453.74,199.12 453.99,199.37 454.28,199.56 454.59,199.71 454.93,199.81 455.27,199.85 " style="stroke-width: 0.53; stroke: #AF0DC7; fill: #FFFFFF;" clip-path="url(#cpNi45NzM4NXw3MTMuMDI2fDIwOS4yMjd8Ni45NzM4NQ==)"/>
  <g clip-path="url(#cpNi45NzM4NXw3MTMuMDI2fDIwOS4yMjd8Ni45NzM4NQ==)">
    <text x="456.80" y="196.25" style="font-size: 9.96px; fill: #AF0DC7; font-family: Liberation Sans;" textLength="51.99px" lengthAdjust="spacingAndGlyphs">SCORPIUS</text>
  </g>
  <polyline points="487.05,139.84 539.17,139.84 539.08,139.84 539.43,139.82 539.77,139.75 540.09,139.63 540.39,139.46 540.66,139.24 540.89,138.98 541.08,138.68 541.21,138.36 541.30,138.02 541.33,137.68 541.33,137.68 541.33,127.92 541.33,127.92 541.30,127.58 541.21,127.24 541.08,126.92 540.89,126.62 540.66,126.36 540.39,126.14 540.09,125.97 539.77,125.85 539.43,125.78 539.17,125.76 487.05,125.76 487.31,125.78 486.96,125.76 486.62,125.81 486.28,125.90 485.97,126.05 485.68,126.25 485.43,126.49 485.22,126.77 485.06,127.08 484.95,127.41 484.90,127.75 484.89,127.92 484.89,137.68 484.90,137.50 484.90,137.85 484.95,138.19 485.06,138.52 485.22,138.83 485.43,139.11 485.68,139.35 485.97,139.55 486.28,139.70 486.62,139.79 486.96,139.84 " style="stroke-width: 0.53; stroke: #5ECD2E; fill: #FFFFFF;" clip-path="url(#cpNi45NzM4NXw3MTMuMDI2fDIwOS4yMjd8Ni45NzM4NQ==)"/>
  <g clip-path="url(#cpNi45NzM4NXw3MTMuMDI2fDIwOS4yMjd8Ni45NzM4NQ==)">
    <text x="488.49" y="136.24" style="font-size: 9.96px; fill: #5ECD2E; font-family: Liberation Sans;" textLength="49.24px" lengthAdjust="spacingAndGlyphs">k-branches</text>
  </g>
  <polyline points="570.97,200.16 623.07,200.16 622.98,200.16 623.33,200.14 623.67,200.07 623.99,199.95 624.29,199.78 624.56,199.56 624.79,199.30 624.98,199.00 625.11,198.68 625.20,198.35 625.23,198.00 625.23,198.00 625.23,188.24 625.23,188.24 625.20,187.90 625.11,187.56 624.98,187.24 624.79,186.95 624.56,186.69 624.29,186.47 623.99,186.29 623.67,186.17 623.33,186.10 623.07,186.08 570.97,186.08 571.23,186.10 570.89,186.09 570.54,186.13 570.21,186.22 569.89,186.37 569.61,186.57 569.36,186.81 569.15,187.09 568.99,187.40 568.88,187.73 568.82,188.07 568.81,188.24 568.81,198.00 568.82,197.82 568.82,198.17 568.88,198.52 568.99,198.85 569.15,199.15 569.36,199.43 569.61,199.67 569.89,199.87 570.21,200.02 570.54,200.11 570.89,200.16 " style="stroke-width: 0.53; stroke: #AF0DC7; fill: #FFFFFF;" clip-path="url(#cpNi45NzM4NXw3MTMuMDI2fDIwOS4yMjd8Ni45NzM4NQ==)"/>
  <g clip-path="url(#cpNi45NzM4NXw3MTMuMDI2fDIwOS4yMjd8Ni45NzM4NQ==)">
    <text x="572.41" y="196.56" style="font-size: 9.96px; fill: #AF0DC7; font-family: Liberation Sans;" textLength="49.21px" lengthAdjust="spacingAndGlyphs">MATCHER</text>
  </g>
  <polyline points="527.96,205.63 566.79,205.63 566.71,205.62 567.06,205.61 567.40,205.54 567.72,205.42 568.02,205.24 568.29,205.02 568.52,204.76 568.71,204.47 568.84,204.15 568.93,203.81 568.95,203.47 568.95,203.47 568.95,193.71 568.95,193.71 568.93,193.37 568.84,193.03 568.71,192.71 568.52,192.41 568.29,192.15 568.02,191.93 567.72,191.76 567.40,191.64 567.06,191.57 566.79,191.55 527.96,191.55 528.22,191.57 527.87,191.55 527.52,191.60 527.19,191.69 526.88,191.84 526.59,192.04 526.34,192.28 526.13,192.56 525.97,192.87 525.86,193.19 525.80,193.54 525.80,193.71 525.80,203.47 525.80,203.29 525.80,203.64 525.86,203.98 525.97,204.31 526.13,204.62 526.34,204.90 526.59,205.14 526.88,205.34 527.19,205.49 527.52,205.58 527.87,205.62 " style="stroke-width: 0.53; stroke: #CFBF00; fill: #FFFFFF;" clip-path="url(#cpNi45NzM4NXw3MTMuMDI2fDIwOS4yMjd8Ni45NzM4NQ==)"/>
  <g clip-path="url(#cpNi45NzM4NXw3MTMuMDI2fDIwOS4yMjd8Ni45NzM4NQ==)">
    <text x="529.40" y="202.03" style="font-size: 9.96px; fill: #CFBF00; font-family: Liberation Sans;" textLength="35.96px" lengthAdjust="spacingAndGlyphs">GPfates</text>
  </g>
  <defs>
    <clipPath id="cpMHw3MjB8MjUyfDA=">
      <rect x="0.00" y="0.00" width="720.00" height="252.00"/>
    </clipPath>
  </defs>
  <polyline points="6.97,209.23 713.03,209.23 " style="stroke-width: 1.07; stroke-linecap: square;" clip-path="url(#cpMHw3MjB8MjUyfDA=)"/>
  <polyline points="39.07,212.71 39.07,209.23 " style="stroke-width: 1.07; stroke-linecap: butt;" clip-path="url(#cpMHw3MjB8MjUyfDA=)"/>
  <polyline points="199.42,212.71 199.42,209.23 " style="stroke-width: 1.07; stroke-linecap: butt;" clip-path="url(#cpMHw3MjB8MjUyfDA=)"/>
  <polyline points="359.78,212.71 359.78,209.23 " style="stroke-width: 1.07; stroke-linecap: butt;" clip-path="url(#cpMHw3MjB8MjUyfDA=)"/>
  <polyline points="520.58,212.71 520.58,209.23 " style="stroke-width: 1.07; stroke-linecap: butt;" clip-path="url(#cpMHw3MjB8MjUyfDA=)"/>
  <polyline points="680.93,212.71 680.93,209.23 " style="stroke-width: 1.07; stroke-linecap: butt;" clip-path="url(#cpMHw3MjB8MjUyfDA=)"/>
  <g clip-path="url(#cpMHw3MjB8MjUyfDA=)">
    <text x="25.72" y="223.95" style="font-size: 12.00px; font-family: Liberation Sans;" textLength="26.70px" lengthAdjust="spacingAndGlyphs">2014</text>
  </g>
  <g clip-path="url(#cpMHw3MjB8MjUyfDA=)">
    <text x="186.08" y="223.95" style="font-size: 12.00px; font-family: Liberation Sans;" textLength="26.70px" lengthAdjust="spacingAndGlyphs">2015</text>
  </g>
  <g clip-path="url(#cpMHw3MjB8MjUyfDA=)">
    <text x="346.43" y="223.95" style="font-size: 12.00px; font-family: Liberation Sans;" textLength="26.70px" lengthAdjust="spacingAndGlyphs">2016</text>
  </g>
  <g clip-path="url(#cpMHw3MjB8MjUyfDA=)">
    <text x="507.23" y="223.95" style="font-size: 12.00px; font-family: Liberation Sans;" textLength="26.70px" lengthAdjust="spacingAndGlyphs">2017</text>
  </g>
  <g clip-path="url(#cpMHw3MjB8MjUyfDA=)">
    <text x="667.59" y="223.95" style="font-size: 12.00px; font-family: Liberation Sans;" textLength="26.70px" lengthAdjust="spacingAndGlyphs">2018</text>
  </g>
  <g clip-path="url(#cpMHw3MjB8MjUyfDA=)">
    <text x="312.13" y="240.80" style="font-size: 14.00px; font-family: Liberation Sans;" textLength="95.74px" lengthAdjust="spacingAndGlyphs">Publishing date</text>
  </g>
</svg>
