<?xml version="1.0" encoding="UTF-8"?>
<svg xmlns="http://www.w3.org/2000/svg" xmlns:xlink="http://www.w3.org/1999/xlink" viewBox="0 0 720.00 252.00">
  <defs>
    <style type="text/css"><![CDATA[
    line, polyline, path, rect, circle {
      fill: none;
      stroke: #000000;
      stroke-linecap: round;
      stroke-linejoin: round;
      stroke-miterlimit: 10.00;
    }
  ]]></style>
  </defs>
  <line x1="597.02" y1="183.94" x2="597.02" y2="209.23" style="stroke-width: 1.07; stroke: #AF0DC7;" clip-path="url(#cpNi45NzM4NXw3MTMuMDI2fDIwOS4yMjd8Ni45NzM4NQ==)"/>
  <line x1="482.79" y1="183.92" x2="482.79" y2="209.23" style="stroke-width: 1.07; stroke: #AF0DC7;" clip-path="url(#cpNi45NzM4NXw3MTMuMDI2fDIwOS4yMjd8Ni45NzM4NQ==)"/>
  <line x1="542.98" y1="184.70" x2="542.98" y2="209.23" style="stroke-width: 1.07; stroke: #5ECD2E;" clip-path="url(#cpNi45NzM4NXw3MTMuMDI2fDIwOS4yMjd8Ni45NzM4NQ==)"/>
  <line x1="513.11" y1="142.34" x2="513.11" y2="209.23" style="stroke-width: 1.07; stroke: #5ECD2E;" clip-path="url(#cpNi45NzM4NXw3MTMuMDI2fDIwOS4yMjd8Ni45NzM4NQ==)"/>
  <line x1="364.61" y1="204.63" x2="364.61" y2="209.23" style="stroke-width: 1.07; stroke: #5ECD2E;" clip-path="url(#cpNi45NzM4NXw3MTMuMDI2fDIwOS4yMjd8Ni45NzM4NQ==)"/>
  <line x1="552.65" y1="162.72" x2="552.65" y2="209.23" style="stroke-width: 1.07; stroke: #CFBF00;" clip-path="url(#cpNi45NzM4NXw3MTMuMDI2fDIwOS4yMjd8Ni45NzM4NQ==)"/>
  <line x1="418.21" y1="182.89" x2="418.21" y2="209.23" style="stroke-width: 1.07; stroke: #5ECD2E;" clip-path="url(#cpNi45NzM4NXw3MTMuMDI2fDIwOS4yMjd8Ni45NzM4NQ==)"/>
  <line x1="617.23" y1="201.95" x2="617.23" y2="209.22" style="stroke-width: 1.07; stroke: #0073D7;" clip-path="url(#cpNi45NzM4NXw3MTMuMDI2fDIwOS4yMjd8Ni45NzM4NQ==)"/>
  <line x1="439.30" y1="203.33" x2="439.30" y2="209.22" style="stroke-width: 1.07; stroke: #5ECD2E;" clip-path="url(#cpNi45NzM4NXw3MTMuMDI2fDIwOS4yMjd8Ni45NzM4NQ==)"/>
  <line x1="666.87" y1="205.28" x2="666.87" y2="209.22" style="stroke-width: 1.07; stroke: #AF0DC7;" clip-path="url(#cpNi45NzM4NXw3MTMuMDI2fDIwOS4yMjd8Ni45NzM4NQ==)"/>
  <line x1="668.19" y1="149.84" x2="668.19" y2="209.22" style="stroke-width: 1.07; stroke: #CFBF00;" clip-path="url(#cpNi45NzM4NXw3MTMuMDI2fDIwOS4yMjd8Ni45NzM4NQ==)"/>
  <line x1="433.59" y1="162.24" x2="433.59" y2="209.22" style="stroke-width: 1.07; stroke: #AF0DC7;" clip-path="url(#cpNi45NzM4NXw3MTMuMDI2fDIwOS4yMjd8Ni45NzM4NQ==)"/>
  <line x1="312.33" y1="182.13" x2="312.33" y2="209.22" style="stroke-width: 1.07; stroke: #AF0DC7;" clip-path="url(#cpNi45NzM4NXw3MTMuMDI2fDIwOS4yMjd8Ni45NzM4NQ==)"/>
  <line x1="307.06" y1="160.81" x2="307.06" y2="209.22" style="stroke-width: 1.07; stroke: #AF0DC7;" clip-path="url(#cpNi45NzM4NXw3MTMuMDI2fDIwOS4yMjd8Ni45NzM4NQ==)"/>
  <line x1="458.63" y1="142.40" x2="458.63" y2="209.22" style="stroke-width: 1.07; stroke: #5ECD2E;" clip-path="url(#cpNi45NzM4NXw3MTMuMDI2fDIwOS4yMjd8Ni45NzM4NQ==)"/>
  <line x1="429.63" y1="69.58" x2="429.63" y2="209.22" style="stroke-width: 1.07; stroke: #CFBF00;" clip-path="url(#cpNi45NzM4NXw3MTMuMDI2fDIwOS4yMjd8Ni45NzM4NQ==)"/>
  <line x1="376.47" y1="183.07" x2="376.47" y2="209.22" style="stroke-width: 1.07; stroke: #0073D7;" clip-path="url(#cpNi45NzM4NXw3MTMuMDI2fDIwOS4yMjd8Ni45NzM4NQ==)"/>
  <line x1="602.29" y1="157.60" x2="602.29" y2="209.22" style="stroke-width: 1.07; stroke: #AF0DC7;" clip-path="url(#cpNi45NzM4NXw3MTMuMDI2fDIwOS4yMjd8Ni45NzM4NQ==)"/>
  <line x1="594.82" y1="125.39" x2="594.82" y2="209.22" style="stroke-width: 1.07; stroke: #39CCCC;" clip-path="url(#cpNi45NzM4NXw3MTMuMDI2fDIwOS4yMjd8Ni45NzM4NQ==)"/>
  <line x1="460.39" y1="122.34" x2="460.39" y2="209.22" style="stroke-width: 1.07; stroke: #AF0DC7;" clip-path="url(#cpNi45NzM4NXw3MTMuMDI2fDIwOS4yMjd8Ni45NzM4NQ==)"/>
  <line x1="638.76" y1="172.60" x2="638.76" y2="209.22" style="stroke-width: 1.07; stroke: #FF8821;" clip-path="url(#cpNi45NzM4NXw3MTMuMDI2fDIwOS4yMjd8Ni45NzM4NQ==)"/>
  <line x1="604.93" y1="106.82" x2="604.93" y2="209.22" style="stroke-width: 1.07; stroke: #AF0DC7;" clip-path="url(#cpNi45NzM4NXw3MTMuMDI2fDIwOS4yMjd8Ni45NzM4NQ==)"/>
  <line x1="78.61" y1="205.63" x2="78.61" y2="209.22" style="stroke-width: 1.07; stroke: #5ECD2E;" clip-path="url(#cpNi45NzM4NXw3MTMuMDI2fDIwOS4yMjd8Ni45NzM4NQ==)"/>
  <line x1="198.55" y1="205.13" x2="198.55" y2="209.22" style="stroke-width: 1.07; stroke: #5ECD2E;" clip-path="url(#cpNi45NzM4NXw3MTMuMDI2fDIwOS4yMjd8Ni45NzM4NQ==)"/>
  <line x1="543.42" y1="120.36" x2="543.42" y2="209.22" style="stroke-width: 1.07; stroke: #5ECD2E;" clip-path="url(#cpNi45NzM4NXw3MTMuMDI2fDIwOS4yMjd8Ni45NzM4NQ==)"/>
  <line x1="492.90" y1="162.99" x2="492.90" y2="209.22" style="stroke-width: 1.07; stroke: #AF0DC7;" clip-path="url(#cpNi45NzM4NXw3MTMuMDI2fDIwOS4yMjd8Ni45NzM4NQ==)"/>
  <line x1="407.67" y1="137.95" x2="407.67" y2="209.22" style="stroke-width: 1.07; stroke: #AF0DC7;" clip-path="url(#cpNi45NzM4NXw3MTMuMDI2fDIwOS4yMjd8Ni45NzM4NQ==)"/>
  <line x1="210.85" y1="183.46" x2="210.85" y2="209.22" style="stroke-width: 1.07; stroke: #5ECD2E;" clip-path="url(#cpNi45NzM4NXw3MTMuMDI2fDIwOS4yMjd8Ni45NzM4NQ==)"/>
  <line x1="514.86" y1="205.63" x2="514.86" y2="209.21" style="stroke-width: 1.07; stroke: #5ECD2E;" clip-path="url(#cpNi45NzM4NXw3MTMuMDI2fDIwOS4yMjd8Ni45NzM4NQ==)"/>
  <line x1="435.35" y1="52.87" x2="435.35" y2="209.21" style="stroke-width: 1.07; stroke: #5ECD2E;" clip-path="url(#cpNi45NzM4NXw3MTMuMDI2fDIwOS4yMjd8Ni45NzM4NQ==)"/>
  <line x1="401.52" y1="89.11" x2="401.52" y2="209.21" style="stroke-width: 1.07; stroke: #AF0DC7;" clip-path="url(#cpNi45NzM4NXw3MTMuMDI2fDIwOS4yMjd8Ni45NzM4NQ==)"/>
  <line x1="612.84" y1="45.47" x2="612.84" y2="209.21" style="stroke-width: 1.07; stroke: #CFBF00;" clip-path="url(#cpNi45NzM4NXw3MTMuMDI2fDIwOS4yMjd8Ni45NzM4NQ==)"/>
  <line x1="586.48" y1="85.34" x2="586.48" y2="209.21" style="stroke-width: 1.07; stroke: #AF0DC7;" clip-path="url(#cpNi45NzM4NXw3MTMuMDI2fDIwOS4yMjd8Ni45NzM4NQ==)"/>
  <line x1="651.94" y1="128.26" x2="651.94" y2="209.21" style="stroke-width: 1.07; stroke: #FF4237;" clip-path="url(#cpNi45NzM4NXw3MTMuMDI2fDIwOS4yMjd8Ni45NzM4NQ==)"/>
  <line x1="547.38" y1="24.65" x2="547.38" y2="209.21" style="stroke-width: 1.07; stroke: #CFBF00;" clip-path="url(#cpNi45NzM4NXw3MTMuMDI2fDIwOS4yMjd8Ni45NzM4NQ==)"/>
  <line x1="611.08" y1="24.65" x2="611.08" y2="209.21" style="stroke-width: 1.07; stroke: #AF0DC7;" clip-path="url(#cpNi45NzM4NXw3MTMuMDI2fDIwOS4yMjd8Ni45NzM4NQ==)"/>
  <line x1="436.22" y1="107.03" x2="436.22" y2="209.21" style="stroke-width: 1.07; stroke: #AF0DC7;" clip-path="url(#cpNi45NzM4NXw3MTMuMDI2fDIwOS4yMjd8Ni45NzM4NQ==)"/>
  <line x1="561.43" y1="98.55" x2="561.43" y2="209.21" style="stroke-width: 1.07; stroke: #5ECD2E;" clip-path="url(#cpNi45NzM4NXw3MTMuMDI2fDIwOS4yMjd8Ni45NzM4NQ==)"/>
  <line x1="660.28" y1="105.95" x2="660.28" y2="209.21" style="stroke-width: 1.07; stroke: #5ECD2E;" clip-path="url(#cpNi45NzM4NXw3MTMuMDI2fDIwOS4yMjd8Ni45NzM4NQ==)"/>
  <line x1="613.71" y1="66.42" x2="613.71" y2="209.21" style="stroke-width: 1.07; stroke: #0073D7;" clip-path="url(#cpNi45NzM4NXw3MTMuMDI2fDIwOS4yMjd8Ni45NzM4NQ==)"/>
  <line x1="413.38" y1="24.65" x2="413.38" y2="209.21" style="stroke-width: 1.07; stroke: #0073D7;" clip-path="url(#cpNi45NzM4NXw3MTMuMDI2fDIwOS4yMjd8Ni45NzM4NQ==)"/>
  <line x1="313.65" y1="139.34" x2="313.65" y2="209.21" style="stroke-width: 1.07; stroke: #AF0DC7;" clip-path="url(#cpNi45NzM4NXw3MTMuMDI2fDIwOS4yMjd8Ni45NzM4NQ==)"/>
  <line x1="403.27" y1="41.09" x2="403.27" y2="209.21" style="stroke-width: 1.07; stroke: #FF8821;" clip-path="url(#cpNi45NzM4NXw3MTMuMDI2fDIwOS4yMjd8Ni45NzM4NQ==)"/>
  <line x1="539.47" y1="67.09" x2="539.47" y2="209.21" style="stroke-width: 1.07; stroke: #AF0DC7;" clip-path="url(#cpNi45NzM4NXw3MTMuMDI2fDIwOS4yMjd8Ni45NzM4NQ==)"/>
  <line x1="268.84" y1="204.88" x2="268.84" y2="209.21" style="stroke-width: 1.07; stroke: #AF0DC7;" clip-path="url(#cpNi45NzM4NXw3MTMuMDI2fDIwOS4yMjd8Ni45NzM4NQ==)"/>
  <line x1="568.02" y1="141.11" x2="568.02" y2="209.21" style="stroke-width: 1.07; stroke: #5ECD2E;" clip-path="url(#cpNi45NzM4NXw3MTMuMDI2fDIwOS4yMjd8Ni45NzM4NQ==)"/>
  <line x1="573.30" y1="47.34" x2="573.30" y2="209.21" style="stroke-width: 1.07; stroke: #AF0DC7;" clip-path="url(#cpNi45NzM4NXw3MTMuMDI2fDIwOS4yMjd8Ni45NzM4NQ==)"/>
  <line x1="481.48" y1="86.88" x2="481.48" y2="209.21" style="stroke-width: 1.07; stroke: #AF0DC7;" clip-path="url(#cpNi45NzM4NXw3MTMuMDI2fDIwOS4yMjd8Ni45NzM4NQ==)"/>
  <line x1="88.71" y1="184.71" x2="88.71" y2="209.21" style="stroke-width: 1.07; stroke: #AF0DC7;" clip-path="url(#cpNi45NzM4NXw3MTMuMDI2fDIwOS4yMjd8Ni45NzM4NQ==)"/>
  <defs>
    <clipPath id="cpNi45NzM4NXw3MTMuMDI2fDIwOS4yMjd8Ni45NzM4NQ==">
      <rect x="6.97" y="6.97" width="706.05" height="202.25"/>
    </clipPath>
  </defs>
  <polyline points="62.10,184.71 115.32,184.71 115.23,184.71 115.58,184.70 115.92,184.63 116.25,184.51 116.55,184.33 116.82,184.11 117.05,183.85 117.23,183.56 117.37,183.24 117.45,182.90 117.48,182.55 117.48,182.55 117.48,172.80 117.48,172.80 117.45,172.45 117.37,172.12 117.23,171.80 117.05,171.50 116.82,171.24 116.55,171.02 116.25,170.85 115.92,170.72 115.58,170.66 115.32,170.64 62.10,170.64 62.36,170.66 62.02,170.64 61.67,170.68 61.34,170.78 61.02,170.93 60.74,171.13 60.49,171.37 60.28,171.65 60.12,171.95 60.00,172.28 59.95,172.63 59.94,172.80 59.94,182.55 59.95,182.38 59.95,182.73 60.00,183.07 60.12,183.40 60.28,183.71 60.49,183.99 60.74,184.23 61.02,184.43 61.34,184.57 61.67,184.67 62.02,184.71 " style="stroke-width: 0.53; stroke: #AF0DC7; fill: #FFFFFF;" clip-path="url(#cpNi45NzM4NXw3MTMuMDI2fDIwOS4yMjd8Ni45NzM4NQ==)"/>
  <g clip-path="url(#cpNi45NzM4NXw3MTMuMDI2fDIwOS4yMjd8Ni45NzM4NQ==)">
    <text x="63.54" y="181.11" style="font-size: 9.96px; fill: #AF0DC7; font-family: Liberation Sans;" textLength="50.34px" lengthAdjust="spacingAndGlyphs">Wanderlust</text>
  </g>
  <polyline points="456.26,86.88 506.69,86.88 506.61,86.87 506.95,86.86 507.29,86.79 507.62,86.67 507.92,86.49 508.19,86.27 508.42,86.01 508.61,85.72 508.74,85.40 508.82,85.06 508.85,84.72 508.85,84.72 508.85,74.96 508.85,74.96 508.82,74.61 508.74,74.28 508.61,73.96 508.42,73.66 508.19,73.40 507.92,73.18 507.62,73.01 507.29,72.89 506.95,72.82 506.69,72.80 456.26,72.80 456.52,72.82 456.17,72.80 455.83,72.84 455.49,72.94 455.18,73.09 454.89,73.29 454.64,73.53 454.43,73.81 454.27,74.11 454.16,74.44 454.11,74.79 454.10,74.96 454.10,84.72 454.11,84.54 454.11,84.89 454.16,85.23 454.27,85.56 454.43,85.87 454.64,86.15 454.89,86.39 455.18,86.59 455.49,86.74 455.83,86.83 456.17,86.87 " style="stroke-width: 0.53; stroke: #AF0DC7; fill: #FFFFFF;" clip-path="url(#cpNi45NzM4NXw3MTMuMDI2fDIwOS4yMjd8Ni45NzM4NQ==)"/>
  <g clip-path="url(#cpNi45NzM4NXw3MTMuMDI2fDIwOS4yMjd8Ni45NzM4NQ==)">
    <text x="457.70" y="83.28" style="font-size: 9.96px; fill: #AF0DC7; font-family: Liberation Sans;" textLength="47.55px" lengthAdjust="spacingAndGlyphs">SCIMITAR</text>
  </g>
  <polyline points="556.93,47.34 589.67,47.34 589.58,47.34 589.93,47.32 590.27,47.25 590.59,47.13 590.89,46.96 591.16,46.74 591.39,46.48 591.58,46.18 591.71,45.86 591.80,45.52 591.83,45.18 591.83,45.18 591.83,35.42 591.83,35.42 591.80,35.08 591.71,34.74 591.58,34.42 591.39,34.13 591.16,33.86 590.89,33.65 590.59,33.47 590.27,33.35 589.93,33.28 589.67,33.26 556.93,33.26 557.19,33.28 556.84,33.26 556.49,33.31 556.16,33.40 555.85,33.55 555.56,33.75 555.31,33.99 555.10,34.27 554.94,34.58 554.83,34.91 554.77,35.25 554.77,35.42 554.77,45.18 554.77,45.00 554.77,45.35 554.83,45.69 554.94,46.02 555.10,46.33 555.31,46.61 555.56,46.85 555.85,47.05 556.16,47.20 556.49,47.29 556.84,47.34 " style="stroke-width: 0.53; stroke: #AF0DC7; fill: #FFFFFF;" clip-path="url(#cpNi45NzM4NXw3MTMuMDI2fDIwOS4yMjd8Ni45NzM4NQ==)"/>
  <g clip-path="url(#cpNi45NzM4NXw3MTMuMDI2fDIwOS4yMjd8Ni45NzM4NQ==)">
    <text x="558.37" y="43.74" style="font-size: 9.96px; fill: #AF0DC7; font-family: Liberation Sans;" textLength="29.86px" lengthAdjust="spacingAndGlyphs">scTDA</text>
  </g>
  <polyline points="546.94,141.11 589.11,141.11 589.02,141.11 589.37,141.09 589.71,141.02 590.03,140.90 590.33,140.72 590.60,140.51 590.83,140.24 591.02,139.95 591.15,139.63 591.24,139.29 591.27,138.95 591.27,138.95 591.27,129.19 591.27,129.19 591.24,128.85 591.15,128.51 591.02,128.19 590.83,127.89 590.60,127.63 590.33,127.41 590.03,127.24 589.71,127.12 589.37,127.05 589.11,127.03 546.94,127.03 547.20,127.05 546.86,127.03 546.51,127.08 546.18,127.17 545.86,127.32 545.58,127.52 545.33,127.76 545.12,128.04 544.96,128.35 544.85,128.68 544.79,129.02 544.78,129.19 544.78,138.95 544.79,138.77 544.79,139.12 544.85,139.46 544.96,139.79 545.12,140.10 545.33,140.38 545.58,140.62 545.86,140.82 546.18,140.97 546.51,141.06 546.86,141.11 " style="stroke-width: 0.53; stroke: #5ECD2E; fill: #FFFFFF;" clip-path="url(#cpNi45NzM4NXw3MTMuMDI2fDIwOS4yMjd8Ni45NzM4NQ==)"/>
  <g clip-path="url(#cpNi45NzM4NXw3MTMuMDI2fDIwOS4yMjd8Ni45NzM4NQ==)">
    <text x="548.38" y="137.51" style="font-size: 9.96px; fill: #5ECD2E; font-family: Liberation Sans;" textLength="39.28px" lengthAdjust="spacingAndGlyphs">slingshot</text>
  </g>
  <polyline points="253.02,204.88 284.66,204.88 284.57,204.88 284.92,204.87 285.26,204.80 285.58,204.67 285.88,204.50 286.15,204.28 286.38,204.02 286.57,203.72 286.71,203.41 286.79,203.07 286.82,202.72 286.82,202.72 286.82,192.97 286.82,192.97 286.79,192.62 286.71,192.28 286.57,191.96 286.38,191.67 286.15,191.41 285.88,191.19 285.58,191.01 285.26,190.89 284.92,190.82 284.66,190.81 253.02,190.81 253.28,190.82 252.93,190.81 252.59,190.85 252.25,190.95 251.94,191.10 251.65,191.29 251.40,191.53 251.19,191.81 251.03,192.12 250.92,192.45 250.87,192.79 250.86,192.97 250.86,202.72 250.87,202.55 250.87,202.89 250.92,203.24 251.03,203.57 251.19,203.88 251.40,204.15 251.65,204.39 251.94,204.59 252.25,204.74 252.59,204.84 252.93,204.88 " style="stroke-width: 0.53; stroke: #AF0DC7; fill: #FFFFFF;" clip-path="url(#cpNi45NzM4NXw3MTMuMDI2fDIwOS4yMjd8Ni45NzM4NQ==)"/>
  <g clip-path="url(#cpNi45NzM4NXw3MTMuMDI2fDIwOS4yMjd8Ni45NzM4NQ==)">
    <text x="254.46" y="201.28" style="font-size: 9.96px; fill: #AF0DC7; font-family: Liberation Sans;" textLength="28.76px" lengthAdjust="spacingAndGlyphs">NBOR</text>
  </g>
  <polyline points="520.60,67.09 558.33,67.09 558.25,67.09 558.59,67.07 558.93,67.00 559.26,66.88 559.56,66.71 559.83,66.49 560.06,66.23 560.25,65.93 560.38,65.61 560.46,65.28 560.49,64.93 560.49,64.93 560.49,55.17 560.49,55.17 560.46,54.83 560.38,54.49 560.25,54.17 560.06,53.88 559.83,53.62 559.56,53.40 559.26,53.22 558.93,53.10 558.59,53.03 558.33,53.01 520.60,53.01 520.86,53.03 520.52,53.02 520.17,53.06 519.84,53.15 519.52,53.30 519.24,53.50 518.99,53.74 518.78,54.02 518.62,54.33 518.51,54.66 518.45,55.00 518.44,55.17 518.44,64.93 518.45,64.76 518.45,65.10 518.51,65.45 518.62,65.78 518.78,66.08 518.99,66.36 519.24,66.60 519.52,66.80 519.84,66.95 520.17,67.05 520.52,67.09 " style="stroke-width: 0.53; stroke: #AF0DC7; fill: #FFFFFF;" clip-path="url(#cpNi45NzM4NXw3MTMuMDI2fDIwOS4yMjd8Ni45NzM4NQ==)"/>
  <g clip-path="url(#cpNi45NzM4NXw3MTMuMDI2fDIwOS4yMjd8Ni45NzM4NQ==)">
    <text x="522.04" y="63.49" style="font-size: 9.96px; fill: #AF0DC7; font-family: Liberation Sans;" textLength="34.85px" lengthAdjust="spacingAndGlyphs">topslam</text>
  </g>
  <polyline points="383.86,41.09 422.69,41.09 422.60,41.09 422.95,41.07 423.29,41.00 423.62,40.88 423.92,40.71 424.19,40.49 424.42,40.23 424.60,39.93 424.74,39.61 424.82,39.27 424.85,38.93 424.85,38.93 424.85,29.17 424.85,29.17 424.82,28.83 424.74,28.49 424.60,28.17 424.42,27.88 424.19,27.61 423.92,27.40 423.62,27.22 423.29,27.10 422.95,27.03 422.69,27.01 383.86,27.01 384.12,27.03 383.77,27.01 383.43,27.06 383.09,27.15 382.78,27.30 382.49,27.50 382.24,27.74 382.03,28.02 381.87,28.33 381.76,28.66 381.70,29.00 381.70,29.17 381.70,38.93 381.70,38.75 381.70,39.10 381.76,39.44 381.87,39.77 382.03,40.08 382.24,40.36 382.49,40.60 382.78,40.80 383.09,40.95 383.43,41.04 383.77,41.09 " style="stroke-width: 0.53; stroke: #FF8821; fill: #FFFFFF;" clip-path="url(#cpNi45NzM4NXw3MTMuMDI2fDIwOS4yMjd8Ni45NzM4NQ==)"/>
  <g clip-path="url(#cpNi45NzM4NXw3MTMuMDI2fDIwOS4yMjd8Ni45NzM4NQ==)">
    <text x="385.30" y="37.49" style="font-size: 9.96px; fill: #FF8821; font-family: Liberation Sans;" textLength="35.95px" lengthAdjust="spacingAndGlyphs">SLICER</text>
  </g>
  <polyline points="292.57,139.34 334.73,139.34 334.64,139.34 334.99,139.33 335.33,139.26 335.66,139.13 335.96,138.96 336.23,138.74 336.46,138.48 336.64,138.19 336.78,137.87 336.86,137.53 336.89,137.18 336.89,137.18 336.89,127.43 336.89,127.43 336.86,127.08 336.78,126.74 336.64,126.42 336.46,126.13 336.23,125.87 335.96,125.65 335.66,125.48 335.33,125.35 334.99,125.28 334.73,125.27 292.57,125.27 292.83,125.28 292.48,125.27 292.14,125.31 291.80,125.41 291.49,125.56 291.20,125.75 290.95,125.99 290.74,126.27 290.58,126.58 290.47,126.91 290.42,127.25 290.41,127.43 290.41,137.18 290.42,137.01 290.42,137.36 290.47,137.70 290.58,138.03 290.74,138.34 290.95,138.61 291.20,138.85 291.49,139.05 291.80,139.20 292.14,139.30 292.48,139.34 " style="stroke-width: 0.53; stroke: #AF0DC7; fill: #FFFFFF;" clip-path="url(#cpNi45NzM4NXw3MTMuMDI2fDIwOS4yMjd8Ni45NzM4NQ==)"/>
  <g clip-path="url(#cpNi45NzM4NXw3MTMuMDI2fDIwOS4yMjd8Ni45NzM4NQ==)">
    <text x="294.01" y="135.74" style="font-size: 9.96px; fill: #AF0DC7; font-family: Liberation Sans;" textLength="39.28px" lengthAdjust="spacingAndGlyphs">embeddr</text>
  </g>
  <polyline points="389.81,24.65 436.95,24.65 436.86,24.65 437.21,24.63 437.55,24.56 437.87,24.44 438.18,24.27 438.44,24.05 438.68,23.79 438.86,23.49 439.00,23.17 439.08,22.84 439.11,22.49 439.11,22.49 439.11,12.73 439.11,12.73 439.08,12.39 439.00,12.05 438.86,11.73 438.68,11.44 438.44,11.18 438.18,10.96 437.87,10.78 437.55,10.66 437.21,10.59 436.95,10.57 389.81,10.57 390.07,10.59 389.72,10.58 389.38,10.62 389.04,10.71 388.73,10.86 388.44,11.06 388.19,11.30 387.98,11.58 387.82,11.89 387.71,12.22 387.66,12.56 387.65,12.73 387.65,22.49 387.66,22.32 387.66,22.66 387.71,23.01 387.82,23.34 387.98,23.64 388.19,23.92 388.44,24.16 388.73,24.36 389.04,24.51 389.38,24.61 389.72,24.65 " style="stroke-width: 0.53; stroke: #0073D7; fill: #FFFFFF;" clip-path="url(#cpNi45NzM4NXw3MTMuMDI2fDIwOS4yMjd8Ni45NzM4NQ==)"/>
  <g clip-path="url(#cpNi45NzM4NXw3MTMuMDI2fDIwOS4yMjd8Ni45NzM4NQ==)">
    <text x="391.25" y="21.05" style="font-size: 9.96px; fill: #0073D7; font-family: Liberation Sans;" textLength="44.26px" lengthAdjust="spacingAndGlyphs">Wishbone</text>
  </g>
  <polyline points="601.77,66.42 625.66,66.42 625.58,66.42 625.92,66.41 626.27,66.34 626.59,66.21 626.89,66.04 627.16,65.82 627.39,65.56 627.58,65.27 627.71,64.95 627.80,64.61 627.82,64.26 627.82,64.26 627.82,54.51 627.82,54.51 627.80,54.16 627.71,53.82 627.58,53.50 627.39,53.21 627.16,52.95 626.89,52.73 626.59,52.55 626.27,52.43 625.92,52.36 625.66,52.35 601.77,52.35 602.03,52.36 601.68,52.35 601.33,52.39 601.00,52.49 600.69,52.64 600.40,52.83 600.15,53.07 599.94,53.35 599.78,53.66 599.67,53.99 599.61,54.33 599.61,54.51 599.61,64.26 599.61,64.09 599.61,64.44 599.67,64.78 599.78,65.11 599.94,65.42 600.15,65.69 600.40,65.93 600.69,66.13 601.00,66.28 601.33,66.38 601.68,66.42 " style="stroke-width: 0.53; stroke: #0073D7; fill: #FFFFFF;" clip-path="url(#cpNi45NzM4NXw3MTMuMDI2fDIwOS4yMjd8Ni45NzM4NQ==)"/>
  <g clip-path="url(#cpNi45NzM4NXw3MTMuMDI2fDIwOS4yMjd8Ni45NzM4NQ==)">
    <text x="603.21" y="62.82" style="font-size: 9.96px; fill: #0073D7; font-family: Liberation Sans;" textLength="21.02px" lengthAdjust="spacingAndGlyphs">BGP</text>
  </g>
  <polyline points="638.10,105.95 682.47,105.95 682.38,105.94 682.73,105.93 683.07,105.86 683.40,105.74 683.70,105.56 683.97,105.34 684.20,105.08 684.38,104.79 684.52,104.47 684.60,104.13 684.63,103.79 684.63,103.79 684.63,94.03 684.63,94.03 684.60,93.68 684.52,93.35 684.38,93.03 684.20,92.73 683.97,92.47 683.70,92.25 683.40,92.08 683.07,91.96 682.73,91.89 682.47,91.87 638.10,91.87 638.36,91.89 638.01,91.87 637.67,91.91 637.33,92.01 637.02,92.16 636.73,92.36 636.48,92.60 636.27,92.88 636.11,93.18 636.00,93.51 635.94,93.86 635.94,94.03 635.94,103.79 635.94,103.61 635.94,103.96 636.00,104.30 636.11,104.63 636.27,104.94 636.48,105.22 636.73,105.46 637.02,105.66 637.33,105.81 637.67,105.90 638.01,105.94 " style="stroke-width: 0.53; stroke: #5ECD2E; fill: #FFFFFF;" clip-path="url(#cpNi45NzM4NXw3MTMuMDI2fDIwOS4yMjd8Ni45NzM4NQ==)"/>
  <g clip-path="url(#cpNi45NzM4NXw3MTMuMDI2fDIwOS4yMjd8Ni45NzM4NQ==)">
    <text x="639.54" y="102.35" style="font-size: 9.96px; fill: #5ECD2E; font-family: Liberation Sans;" textLength="41.49px" lengthAdjust="spacingAndGlyphs">p-Creode</text>
  </g>
  <polyline points="545.34,98.55 577.53,98.55 577.44,98.55 577.79,98.54 578.13,98.47 578.46,98.34 578.76,98.17 579.03,97.95 579.26,97.69 579.44,97.40 579.58,97.08 579.66,96.74 579.69,96.39 579.69,96.39 579.69,86.64 579.69,86.64 579.66,86.29 579.58,85.95 579.44,85.63 579.26,85.34 579.03,85.08 578.76,84.86 578.46,84.69 578.13,84.56 577.79,84.49 577.53,84.48 545.34,84.48 545.60,84.49 545.25,84.48 544.91,84.52 544.57,84.62 544.26,84.77 543.97,84.96 543.72,85.21 543.51,85.48 543.35,85.79 543.24,86.12 543.19,86.46 543.18,86.64 543.18,96.39 543.19,96.22 543.19,96.57 543.24,96.91 543.35,97.24 543.51,97.55 543.72,97.83 543.97,98.07 544.26,98.26 544.57,98.41 544.91,98.51 545.25,98.55 " style="stroke-width: 0.53; stroke: #5ECD2E; fill: #FFFFFF;" clip-path="url(#cpNi45NzM4NXw3MTMuMDI2fDIwOS4yMjd8Ni45NzM4NQ==)"/>
  <g clip-path="url(#cpNi45NzM4NXw3MTMuMDI2fDIwOS4yMjd8Ni45NzM4NQ==)">
    <text x="546.78" y="94.95" style="font-size: 9.96px; fill: #5ECD2E; font-family: Liberation Sans;" textLength="29.31px" lengthAdjust="spacingAndGlyphs">TASIC</text>
  </g>
  <polyline points="423.17,107.03 449.28,107.03 449.19,107.03 449.54,107.01 449.88,106.94 450.21,106.82 450.51,106.65 450.78,106.43 451.01,106.17 451.19,105.87 451.33,105.55 451.41,105.21 451.44,104.87 451.44,104.87 451.44,95.11 451.44,95.11 451.41,94.77 451.33,94.43 451.19,94.11 451.01,93.82 450.78,93.56 450.51,93.34 450.21,93.16 449.88,93.04 449.54,92.97 449.28,92.95 423.17,92.95 423.43,92.97 423.08,92.96 422.73,93.00 422.40,93.09 422.09,93.24 421.80,93.44 421.55,93.68 421.34,93.96 421.18,94.27 421.07,94.60 421.01,94.94 421.01,95.11 421.01,104.87 421.01,104.69 421.01,105.04 421.07,105.39 421.18,105.72 421.34,106.02 421.55,106.30 421.80,106.54 422.09,106.74 422.40,106.89 422.73,106.98 423.08,107.03 " style="stroke-width: 0.53; stroke: #AF0DC7; fill: #FFFFFF;" clip-path="url(#cpNi45NzM4NXw3MTMuMDI2fDIwOS4yMjd8Ni45NzM4NQ==)"/>
  <g clip-path="url(#cpNi45NzM4NXw3MTMuMDI2fDIwOS4yMjd8Ni45NzM4NQ==)">
    <text x="424.61" y="103.43" style="font-size: 9.96px; fill: #AF0DC7; font-family: Liberation Sans;" textLength="23.24px" lengthAdjust="spacingAndGlyphs">Ouija</text>
  </g>
  <polyline points="592.49,24.65 629.67,24.65 629.58,24.65 629.93,24.63 630.27,24.56 630.60,24.44 630.90,24.27 631.17,24.05 631.40,23.79 631.58,23.49 631.72,23.17 631.80,22.84 631.83,22.49 631.83,22.49 631.83,12.73 631.83,12.73 631.80,12.39 631.72,12.05 631.58,11.73 631.40,11.44 631.17,11.18 630.90,10.96 630.60,10.78 630.27,10.66 629.93,10.59 629.67,10.57 592.49,10.57 592.75,10.59 592.40,10.58 592.06,10.62 591.72,10.71 591.41,10.86 591.12,11.06 590.87,11.30 590.66,11.58 590.50,11.89 590.39,12.22 590.34,12.56 590.33,12.73 590.33,22.49 590.34,22.32 590.34,22.66 590.39,23.01 590.50,23.34 590.66,23.64 590.87,23.92 591.12,24.16 591.41,24.36 591.72,24.51 592.06,24.61 592.40,24.65 " style="stroke-width: 0.53; stroke: #AF0DC7; fill: #FFFFFF;" clip-path="url(#cpNi45NzM4NXw3MTMuMDI2fDIwOS4yMjd8Ni45NzM4NQ==)"/>
  <g clip-path="url(#cpNi45NzM4NXw3MTMuMDI2fDIwOS4yMjd8Ni45NzM4NQ==)">
    <text x="593.93" y="21.05" style="font-size: 9.96px; fill: #AF0DC7; font-family: Liberation Sans;" textLength="34.30px" lengthAdjust="spacingAndGlyphs">SoptSC</text>
  </g>
  <polyline points="527.96,24.65 566.79,24.65 566.71,24.65 567.06,24.63 567.40,24.56 567.72,24.44 568.02,24.27 568.29,24.05 568.52,23.79 568.71,23.49 568.84,23.17 568.93,22.84 568.95,22.49 568.95,22.49 568.95,12.73 568.95,12.73 568.93,12.39 568.84,12.05 568.71,11.73 568.52,11.44 568.29,11.18 568.02,10.96 567.72,10.78 567.40,10.66 567.06,10.59 566.79,10.57 527.96,10.57 528.22,10.59 527.87,10.58 527.52,10.62 527.19,10.71 526.88,10.86 526.59,11.06 526.34,11.30 526.13,11.58 525.97,11.89 525.86,12.22 525.80,12.56 525.80,12.73 525.80,22.49 525.80,22.32 525.80,22.66 525.86,23.01 525.97,23.34 526.13,23.64 526.34,23.92 526.59,24.16 526.88,24.36 527.19,24.51 527.52,24.61 527.87,24.65 " style="stroke-width: 0.53; stroke: #CFBF00; fill: #FFFFFF;" clip-path="url(#cpNi45NzM4NXw3MTMuMDI2fDIwOS4yMjd8Ni45NzM4NQ==)"/>
  <g clip-path="url(#cpNi45NzM4NXw3MTMuMDI2fDIwOS4yMjd8Ni45NzM4NQ==)">
    <text x="529.40" y="21.05" style="font-size: 9.96px; fill: #CFBF00; font-family: Liberation Sans;" textLength="35.96px" lengthAdjust="spacingAndGlyphs">GPfates</text>
  </g>
  <polyline points="639.99,128.26 663.89,128.26 663.80,128.26 664.15,128.24 664.49,128.17 664.81,128.05 665.11,127.87 665.38,127.65 665.61,127.39 665.80,127.10 665.94,126.78 666.02,126.44 666.05,126.10 666.05,126.10 666.05,116.34 666.05,116.34 666.02,116.00 665.94,115.66 665.80,115.34 665.61,115.04 665.38,114.78 665.11,114.56 664.81,114.39 664.49,114.27 664.15,114.20 663.89,114.18 639.99,114.18 640.25,114.20 639.90,114.18 639.56,114.23 639.22,114.32 638.91,114.47 638.62,114.67 638.37,114.91 638.16,115.19 638.00,115.50 637.89,115.83 637.83,116.17 637.83,116.34 637.83,126.10 637.83,125.92 637.83,126.27 637.89,126.61 638.00,126.94 638.16,127.25 638.37,127.53 638.62,127.77 638.91,127.97 639.22,128.12 639.56,128.21 639.90,128.26 " style="stroke-width: 0.53; stroke: #FF4237; fill: #FFFFFF;" clip-path="url(#cpNi45NzM4NXw3MTMuMDI2fDIwOS4yMjd8Ni45NzM4NQ==)"/>
  <g clip-path="url(#cpNi45NzM4NXw3MTMuMDI2fDIwOS4yMjd8Ni45NzM4NQ==)">
    <text x="641.43" y="124.66" style="font-size: 9.96px; fill: #FF4237; font-family: Liberation Sans;" textLength="21.02px" lengthAdjust="spacingAndGlyphs">AGA</text>
  </g>
  <polyline points="564.30,85.34 608.65,85.34 608.57,85.34 608.91,85.32 609.25,85.25 609.58,85.13 609.88,84.96 610.15,84.74 610.38,84.48 610.57,84.18 610.70,83.86 610.79,83.53 610.81,83.18 610.81,83.18 610.81,73.42 610.81,73.42 610.79,73.08 610.70,72.74 610.57,72.42 610.38,72.13 610.15,71.87 609.88,71.65 609.58,71.47 609.25,71.35 608.91,71.28 608.65,71.26 564.30,71.26 564.56,71.28 564.21,71.27 563.87,71.31 563.53,71.40 563.22,71.55 562.93,71.75 562.68,71.99 562.47,72.27 562.31,72.58 562.20,72.91 562.15,73.25 562.14,73.42 562.14,83.18 562.15,83.01 562.15,83.35 562.20,83.70 562.31,84.03 562.47,84.33 562.68,84.61 562.93,84.85 563.22,85.05 563.53,85.20 563.87,85.30 564.21,85.34 " style="stroke-width: 0.53; stroke: #AF0DC7; fill: #FFFFFF;" clip-path="url(#cpNi45NzM4NXw3MTMuMDI2fDIwOS4yMjd8Ni45NzM4NQ==)"/>
  <g clip-path="url(#cpNi45NzM4NXw3MTMuMDI2fDIwOS4yMjd8Ni45NzM4NQ==)">
    <text x="565.74" y="81.74" style="font-size: 9.96px; fill: #AF0DC7; font-family: Liberation Sans;" textLength="41.47px" lengthAdjust="spacingAndGlyphs">UNCURL</text>
  </g>
  <polyline points="601.44,45.47 624.23,45.47 624.15,45.46 624.49,45.45 624.84,45.38 625.16,45.26 625.46,45.08 625.73,44.86 625.96,44.60 626.15,44.31 626.28,43.99 626.37,43.65 626.39,43.31 626.39,43.31 626.39,33.55 626.39,33.55 626.37,33.20 626.28,32.87 626.15,32.55 625.96,32.25 625.73,31.99 625.46,31.77 625.16,31.60 624.84,31.48 624.49,31.41 624.23,31.39 601.44,31.39 601.70,31.41 601.35,31.39 601.01,31.43 600.67,31.53 600.36,31.68 600.07,31.88 599.82,32.12 599.61,32.40 599.45,32.70 599.34,33.03 599.29,33.38 599.28,33.55 599.28,43.31 599.29,43.13 599.29,43.48 599.34,43.82 599.45,44.15 599.61,44.46 599.82,44.74 600.07,44.98 600.36,45.18 600.67,45.33 601.01,45.42 601.35,45.46 " style="stroke-width: 0.53; stroke: #CFBF00; fill: #FFFFFF;" clip-path="url(#cpNi45NzM4NXw3MTMuMDI2fDIwOS4yMjd8Ni45NzM4NQ==)"/>
  <g clip-path="url(#cpNi45NzM4NXw3MTMuMDI2fDIwOS4yMjd8Ni45NzM4NQ==)">
    <text x="602.88" y="41.87" style="font-size: 9.96px; fill: #CFBF00; font-family: Liberation Sans;" textLength="19.92px" lengthAdjust="spacingAndGlyphs">PBA</text>
  </g>
  <polyline points="378.21,89.11 424.82,89.11 424.73,89.11 425.08,89.10 425.42,89.03 425.75,88.90 426.05,88.73 426.32,88.51 426.55,88.25 426.73,87.96 426.87,87.64 426.95,87.30 426.98,86.95 426.98,86.95 426.98,77.20 426.98,77.20 426.95,76.85 426.87,76.51 426.73,76.19 426.55,75.90 426.32,75.64 426.05,75.42 425.75,75.25 425.42,75.12 425.08,75.05 424.82,75.04 378.21,75.04 378.47,75.05 378.13,75.04 377.78,75.08 377.45,75.18 377.13,75.33 376.85,75.53 376.60,75.77 376.39,76.04 376.23,76.35 376.12,76.68 376.06,77.02 376.05,77.20 376.05,86.95 376.06,86.78 376.06,87.13 376.12,87.47 376.23,87.80 376.39,88.11 376.60,88.39 376.85,88.63 377.13,88.82 377.45,88.97 377.78,89.07 378.13,89.11 " style="stroke-width: 0.53; stroke: #AF0DC7; fill: #FFFFFF;" clip-path="url(#cpNi45NzM4NXw3MTMuMDI2fDIwOS4yMjd8Ni45NzM4NQ==)"/>
  <g clip-path="url(#cpNi45NzM4NXw3MTMuMDI2fDIwOS4yMjd8Ni45NzM4NQ==)">
    <text x="379.65" y="85.51" style="font-size: 9.96px; fill: #AF0DC7; font-family: Liberation Sans;" textLength="43.72px" lengthAdjust="spacingAndGlyphs">pseudogp</text>
  </g>
  <polyline points="417.31,52.87 453.38,52.87 453.29,52.86 453.64,52.85 453.98,52.78 454.30,52.66 454.60,52.48 454.87,52.26 455.10,52.00 455.29,51.71 455.43,51.39 455.51,51.05 455.54,50.71 455.54,50.71 455.54,40.95 455.54,40.95 455.51,40.60 455.43,40.27 455.29,39.95 455.10,39.65 454.87,39.39 454.60,39.17 454.30,39.00 453.98,38.88 453.64,38.81 453.38,38.79 417.31,38.79 417.57,38.81 417.23,38.79 416.88,38.84 416.55,38.93 416.23,39.08 415.95,39.28 415.70,39.52 415.49,39.80 415.33,40.10 415.22,40.43 415.16,40.78 415.15,40.95 415.15,50.71 415.16,50.53 415.16,50.88 415.22,51.22 415.33,51.55 415.49,51.86 415.70,52.14 415.95,52.38 416.23,52.58 416.55,52.73 416.88,52.82 417.23,52.86 " style="stroke-width: 0.53; stroke: #5ECD2E; fill: #FFFFFF;" clip-path="url(#cpNi45NzM4NXw3MTMuMDI2fDIwOS4yMjd8Ni45NzM4NQ==)"/>
  <g clip-path="url(#cpNi45NzM4NXw3MTMuMDI2fDIwOS4yMjd8Ni45NzM4NQ==)">
    <text x="418.75" y="49.27" style="font-size: 9.96px; fill: #5ECD2E; font-family: Liberation Sans;" textLength="33.18px" lengthAdjust="spacingAndGlyphs">StemID</text>
  </g>
  <polyline points="499.04,205.63 530.69,205.63 530.60,205.62 530.95,205.61 531.29,205.54 531.61,205.42 531.91,205.24 532.18,205.02 532.41,204.76 532.60,204.47 532.74,204.15 532.82,203.81 532.85,203.47 532.85,203.47 532.85,193.71 532.85,193.71 532.82,193.37 532.74,193.03 532.60,192.71 532.41,192.41 532.18,192.15 531.91,191.93 531.61,191.76 531.29,191.64 530.95,191.57 530.69,191.55 499.04,191.55 499.30,191.57 498.96,191.55 498.61,191.60 498.28,191.69 497.96,191.84 497.68,192.04 497.43,192.28 497.22,192.56 497.05,192.87 496.94,193.19 496.89,193.54 496.88,193.71 496.88,203.47 496.89,203.29 496.89,203.64 496.94,203.98 497.05,204.31 497.22,204.62 497.43,204.90 497.68,205.14 497.96,205.34 498.28,205.49 498.61,205.58 498.96,205.62 " style="stroke-width: 0.53; stroke: #5ECD2E; fill: #FFFFFF;" clip-path="url(#cpNi45NzM4NXw3MTMuMDI2fDIwOS4yMjd8Ni45NzM4NQ==)"/>
  <g clip-path="url(#cpNi45NzM4NXw3MTMuMDI2fDIwOS4yMjd8Ni45NzM4NQ==)">
    <text x="500.48" y="202.03" style="font-size: 9.96px; fill: #5ECD2E; font-family: Liberation Sans;" textLength="28.77px" lengthAdjust="spacingAndGlyphs">SLICE</text>
  </g>
  <polyline points="195.58,183.46 226.12,183.46 226.03,183.46 226.38,183.45 226.72,183.38 227.04,183.26 227.34,183.08 227.61,182.86 227.84,182.60 228.03,182.31 228.16,181.99 228.25,181.65 228.28,181.30 228.28,181.30 228.28,171.55 228.28,171.55 228.25,171.20 228.16,170.86 228.03,170.54 227.84,170.25 227.61,169.99 227.34,169.77 227.04,169.60 226.72,169.47 226.38,169.40 226.12,169.39 195.58,169.39 195.84,169.40 195.49,169.39 195.15,169.43 194.81,169.53 194.50,169.68 194.21,169.88 193.96,170.12 193.75,170.39 193.59,170.70 193.48,171.03 193.42,171.37 193.42,171.55 193.42,181.30 193.42,181.13 193.42,181.48 193.48,181.82 193.59,182.15 193.75,182.46 193.96,182.74 194.21,182.98 194.50,183.17 194.81,183.32 195.15,183.42 195.49,183.46 " style="stroke-width: 0.53; stroke: #5ECD2E; fill: #FFFFFF;" clip-path="url(#cpNi45NzM4NXw3MTMuMDI2fDIwOS4yMjd8Ni45NzM4NQ==)"/>
  <g clip-path="url(#cpNi45NzM4NXw3MTMuMDI2fDIwOS4yMjd8Ni45NzM4NQ==)">
    <text x="197.02" y="179.86" style="font-size: 9.96px; fill: #5ECD2E; font-family: Liberation Sans;" textLength="27.66px" lengthAdjust="spacingAndGlyphs">sincell</text>
  </g>
  <polyline points="394.34,137.95 421.00,137.95 420.91,137.95 421.26,137.93 421.60,137.86 421.93,137.74 422.23,137.57 422.50,137.35 422.73,137.09 422.91,136.79 423.05,136.47 423.13,136.14 423.16,135.79 423.16,135.79 423.16,126.03 423.16,126.03 423.13,125.69 423.05,125.35 422.91,125.03 422.73,124.74 422.50,124.48 422.23,124.26 421.93,124.08 421.60,123.96 421.26,123.89 421.00,123.87 394.34,123.87 394.60,123.89 394.25,123.88 393.90,123.92 393.57,124.01 393.26,124.16 392.97,124.36 392.72,124.60 392.51,124.88 392.35,125.19 392.24,125.52 392.18,125.86 392.18,126.03 392.18,135.79 392.18,135.61 392.18,135.96 392.24,136.31 392.35,136.64 392.51,136.94 392.72,137.22 392.97,137.46 393.26,137.66 393.57,137.81 393.90,137.90 394.25,137.95 " style="stroke-width: 0.53; stroke: #AF0DC7; fill: #FFFFFF;" clip-path="url(#cpNi45NzM4NXw3MTMuMDI2fDIwOS4yMjd8Ni45NzM4NQ==)"/>
  <g clip-path="url(#cpNi45NzM4NXw3MTMuMDI2fDIwOS4yMjd8Ni45NzM4NQ==)">
    <text x="395.78" y="134.35" style="font-size: 9.96px; fill: #AF0DC7; font-family: Liberation Sans;" textLength="23.78px" lengthAdjust="spacingAndGlyphs">SCell</text>
  </g>
  <polyline points="474.59,162.99 511.20,162.99 511.12,162.99 511.47,162.97 511.81,162.90 512.13,162.78 512.43,162.61 512.70,162.39 512.93,162.13 513.12,161.83 513.25,161.51 513.34,161.18 513.36,160.83 513.36,160.83 513.36,151.07 513.36,151.07 513.34,150.73 513.25,150.39 513.12,150.07 512.93,149.78 512.70,149.52 512.43,149.30 512.13,149.12 511.81,149.00 511.47,148.93 511.20,148.91 474.59,148.91 474.85,148.93 474.50,148.92 474.16,148.96 473.83,149.06 473.51,149.20 473.23,149.40 472.98,149.64 472.77,149.92 472.60,150.23 472.49,150.56 472.44,150.90 472.43,151.07 472.43,160.83 472.44,160.66 472.44,161.00 472.49,161.35 472.60,161.68 472.77,161.98 472.98,162.26 473.23,162.50 473.51,162.70 473.83,162.85 474.16,162.95 474.50,162.99 " style="stroke-width: 0.53; stroke: #AF0DC7; fill: #FFFFFF;" clip-path="url(#cpNi45NzM4NXw3MTMuMDI2fDIwOS4yMjd8Ni45NzM4NQ==)"/>
  <g clip-path="url(#cpNi45NzM4NXw3MTMuMDI2fDIwOS4yMjd8Ni45NzM4NQ==)">
    <text x="476.03" y="159.39" style="font-size: 9.96px; fill: #AF0DC7; font-family: Liberation Sans;" textLength="33.73px" lengthAdjust="spacingAndGlyphs">SCENT</text>
  </g>
  <polyline points="519.85,120.36 566.99,120.36 566.90,120.35 567.25,120.34 567.59,120.27 567.91,120.15 568.22,119.97 568.49,119.75 568.72,119.49 568.90,119.20 569.04,118.88 569.12,118.54 569.15,118.20 569.15,118.20 569.15,108.44 569.15,108.44 569.12,108.09 569.04,107.76 568.90,107.44 568.72,107.14 568.49,106.88 568.22,106.66 567.91,106.49 567.59,106.37 567.25,106.30 566.99,106.28 519.85,106.28 520.11,106.30 519.77,106.28 519.42,106.32 519.09,106.42 518.77,106.57 518.49,106.77 518.24,107.01 518.03,107.29 517.87,107.59 517.76,107.92 517.70,108.27 517.69,108.44 517.69,118.20 517.70,118.02 517.70,118.37 517.76,118.71 517.87,119.04 518.03,119.35 518.24,119.63 518.49,119.87 518.77,120.07 519.09,120.22 519.42,120.31 519.77,120.35 " style="stroke-width: 0.53; stroke: #5ECD2E; fill: #FFFFFF;" clip-path="url(#cpNi45NzM4NXw3MTMuMDI2fDIwOS4yMjd8Ni45NzM4NQ==)"/>
  <g clip-path="url(#cpNi45NzM4NXw3MTMuMDI2fDIwOS4yMjd8Ni45NzM4NQ==)">
    <text x="521.29" y="116.76" style="font-size: 9.96px; fill: #5ECD2E; font-family: Liberation Sans;" textLength="44.25px" lengthAdjust="spacingAndGlyphs">Granatum</text>
  </g>
  <polyline points="179.96,205.13 217.13,205.13 217.04,205.12 217.39,205.11 217.73,205.04 218.06,204.92 218.36,204.74 218.63,204.52 218.86,204.26 219.04,203.97 219.18,203.65 219.26,203.31 219.29,202.97 219.29,202.97 219.29,193.21 219.29,193.21 219.26,192.87 219.18,192.53 219.04,192.21 218.86,191.91 218.63,191.65 218.36,191.43 218.06,191.26 217.73,191.14 217.39,191.07 217.13,191.05 179.96,191.05 180.22,191.07 179.87,191.05 179.53,191.10 179.19,191.19 178.88,191.34 178.59,191.54 178.34,191.78 178.13,192.06 177.97,192.37 177.86,192.69 177.81,193.04 177.80,193.21 177.80,202.97 177.81,202.79 177.81,203.14 177.86,203.48 177.97,203.81 178.13,204.12 178.34,204.40 178.59,204.64 178.88,204.84 179.19,204.99 179.53,205.08 179.87,205.12 " style="stroke-width: 0.53; stroke: #5ECD2E; fill: #FFFFFF;" clip-path="url(#cpNi45NzM4NXw3MTMuMDI2fDIwOS4yMjd8Ni45NzM4NQ==)"/>
  <g clip-path="url(#cpNi45NzM4NXw3MTMuMDI2fDIwOS4yMjd8Ni45NzM4NQ==)">
    <text x="181.40" y="201.53" style="font-size: 9.96px; fill: #5ECD2E; font-family: Liberation Sans;" textLength="34.29px" lengthAdjust="spacingAndGlyphs">SCUBA</text>
  </g>
  <polyline points="54.21,205.63 103.01,205.63 102.92,205.62 103.27,205.61 103.61,205.54 103.93,205.42 104.23,205.24 104.50,205.02 104.73,204.76 104.92,204.47 105.06,204.15 105.14,203.81 105.17,203.47 105.17,203.47 105.17,193.71 105.17,193.71 105.14,193.37 105.06,193.03 104.92,192.71 104.73,192.41 104.50,192.15 104.23,191.93 103.93,191.76 103.61,191.64 103.27,191.57 103.01,191.55 54.21,191.55 54.47,191.57 54.12,191.55 53.77,191.60 53.44,191.69 53.13,191.84 52.84,192.04 52.59,192.28 52.38,192.56 52.22,192.87 52.11,193.19 52.05,193.54 52.05,193.71 52.05,203.47 52.05,203.29 52.05,203.64 52.11,203.98 52.22,204.31 52.38,204.62 52.59,204.90 52.84,205.14 53.13,205.34 53.44,205.49 53.77,205.58 54.12,205.62 " style="stroke-width: 0.53; stroke: #5ECD2E; fill: #FFFFFF;" clip-path="url(#cpNi45NzM4NXw3MTMuMDI2fDIwOS4yMjd8Ni45NzM4NQ==)"/>
  <g clip-path="url(#cpNi45NzM4NXw3MTMuMDI2fDIwOS4yMjd8Ni45NzM4NQ==)">
    <text x="55.65" y="202.03" style="font-size: 9.96px; fill: #5ECD2E; font-family: Liberation Sans;" textLength="45.92px" lengthAdjust="spacingAndGlyphs">Monocle 1</text>
  </g>
  <polyline points="583.29,106.82 626.57,106.82 626.48,106.82 626.83,106.81 627.17,106.74 627.49,106.62 627.80,106.44 628.06,106.22 628.30,105.96 628.48,105.67 628.62,105.35 628.70,105.01 628.73,104.66 628.73,104.66 628.73,94.91 628.73,94.91 628.70,94.56 628.62,94.23 628.48,93.91 628.30,93.61 628.06,93.35 627.80,93.13 627.49,92.96 627.17,92.83 626.83,92.76 626.57,92.75 583.29,92.75 583.55,92.76 583.20,92.75 582.86,92.79 582.52,92.89 582.21,93.04 581.92,93.24 581.67,93.48 581.46,93.75 581.30,94.06 581.19,94.39 581.13,94.74 581.13,94.91 581.13,104.66 581.13,104.49 581.13,104.84 581.19,105.18 581.30,105.51 581.46,105.82 581.67,106.10 581.92,106.34 582.21,106.53 582.52,106.68 582.86,106.78 583.20,106.82 " style="stroke-width: 0.53; stroke: #AF0DC7; fill: #FFFFFF;" clip-path="url(#cpNi45NzM4NXw3MTMuMDI2fDIwOS4yMjd8Ni45NzM4NQ==)"/>
  <g clip-path="url(#cpNi45NzM4NXw3MTMuMDI2fDIwOS4yMjd8Ni45NzM4NQ==)">
    <text x="584.73" y="103.22" style="font-size: 9.96px; fill: #AF0DC7; font-family: Liberation Sans;" textLength="40.40px" lengthAdjust="spacingAndGlyphs">HopLand</text>
  </g>
  <polyline points="594.19,172.60 683.32,172.60 683.23,172.60 683.58,172.58 683.92,172.51 684.25,172.39 684.55,172.22 684.82,172.00 685.05,171.74 685.23,171.44 685.37,171.12 685.45,170.78 685.48,170.44 685.48,170.44 685.48,160.68 685.48,160.68 685.45,160.34 685.37,160.00 685.23,159.68 685.05,159.39 684.82,159.13 684.55,158.91 684.25,158.73 683.92,158.61 683.58,158.54 683.32,158.52 594.19,158.52 594.45,158.54 594.11,158.52 593.76,158.57 593.43,158.66 593.11,158.81 592.83,159.01 592.58,159.25 592.37,159.53 592.21,159.84 592.10,160.17 592.04,160.51 592.03,160.68 592.03,170.44 592.04,170.26 592.04,170.61 592.10,170.95 592.21,171.28 592.37,171.59 592.58,171.87 592.83,172.11 593.11,172.31 593.43,172.46 593.76,172.55 594.11,172.60 " style="stroke-width: 0.53; stroke: #FF8821; fill: #FFFFFF;" clip-path="url(#cpNi45NzM4NXw3MTMuMDI2fDIwOS4yMjd8Ni45NzM4NQ==)"/>
  <g clip-path="url(#cpNi45NzM4NXw3MTMuMDI2fDIwOS4yMjd8Ni45NzM4NQ==)">
    <text x="595.63" y="169.00" style="font-size: 9.96px; fill: #FF8821; font-family: Liberation Sans;" textLength="86.25px" lengthAdjust="spacingAndGlyphs">WADDINGTON-OT</text>
  </g>
  <polyline points="434.34,122.34 486.44,122.34 486.35,122.34 486.70,122.33 487.04,122.26 487.36,122.14 487.67,121.96 487.93,121.74 488.17,121.48 488.35,121.19 488.49,120.87 488.57,120.53 488.60,120.18 488.60,120.18 488.60,110.43 488.60,110.43 488.57,110.08 488.49,109.74 488.35,109.43 488.17,109.13 487.93,108.87 487.67,108.65 487.36,108.48 487.04,108.35 486.70,108.28 486.44,108.27 434.34,108.27 434.60,108.28 434.25,108.27 433.90,108.31 433.57,108.41 433.26,108.56 432.97,108.76 432.72,109.00 432.51,109.27 432.35,109.58 432.24,109.91 432.18,110.26 432.18,110.43 432.18,120.18 432.18,120.01 432.18,120.36 432.24,120.70 432.35,121.03 432.51,121.34 432.72,121.62 432.97,121.86 433.26,122.05 433.57,122.20 433.90,122.30 434.25,122.34 " style="stroke-width: 0.53; stroke: #AF0DC7; fill: #FFFFFF;" clip-path="url(#cpNi45NzM4NXw3MTMuMDI2fDIwOS4yMjd8Ni45NzM4NQ==)"/>
  <g clip-path="url(#cpNi45NzM4NXw3MTMuMDI2fDIwOS4yMjd8Ni45NzM4NQ==)">
    <text x="435.78" y="118.74" style="font-size: 9.96px; fill: #AF0DC7; font-family: Liberation Sans;" textLength="49.22px" lengthAdjust="spacingAndGlyphs">WaveCrest</text>
  </g>
  <polyline points="579.01,125.39 610.64,125.39 610.55,125.38 610.90,125.37 611.24,125.30 611.57,125.18 611.87,125.00 612.14,124.78 612.37,124.52 612.55,124.23 612.69,123.91 612.77,123.57 612.80,123.23 612.80,123.23 612.80,113.47 612.80,113.47 612.77,113.12 612.69,112.79 612.55,112.47 612.37,112.17 612.14,111.91 611.87,111.69 611.57,111.52 611.24,111.40 610.90,111.33 610.64,111.31 579.01,111.31 579.27,111.33 578.92,111.31 578.57,111.35 578.24,111.45 577.93,111.60 577.64,111.80 577.39,112.04 577.18,112.32 577.02,112.62 576.91,112.95 576.85,113.30 576.85,113.47 576.85,123.23 576.85,123.05 576.85,123.40 576.91,123.74 577.02,124.07 577.18,124.38 577.39,124.66 577.64,124.90 577.93,125.10 578.24,125.24 578.57,125.34 578.92,125.38 " style="stroke-width: 0.53; stroke: #39CCCC; fill: #FFFFFF;" clip-path="url(#cpNi45NzM4NXw3MTMuMDI2fDIwOS4yMjd8Ni45NzM4NQ==)"/>
  <g clip-path="url(#cpNi45NzM4NXw3MTMuMDI2fDIwOS4yMjd8Ni45NzM4NQ==)">
    <text x="580.45" y="121.79" style="font-size: 9.96px; fill: #39CCCC; font-family: Liberation Sans;" textLength="28.76px" lengthAdjust="spacingAndGlyphs">reCAT</text>
  </g>
  <polyline points="576.22,157.60 628.36,157.60 628.27,157.60 628.62,157.58 628.96,157.51 629.29,157.39 629.59,157.22 629.86,157.00 630.09,156.74 630.27,156.44 630.41,156.12 630.49,155.79 630.52,155.44 630.52,155.44 630.52,145.68 630.52,145.68 630.49,145.34 630.41,145.00 630.27,144.68 630.09,144.39 629.86,144.13 629.59,143.91 629.29,143.73 628.96,143.61 628.62,143.54 628.36,143.52 576.22,143.52 576.48,143.54 576.14,143.53 575.79,143.57 575.46,143.66 575.14,143.81 574.86,144.01 574.61,144.25 574.40,144.53 574.24,144.84 574.13,145.17 574.07,145.51 574.06,145.68 574.06,155.44 574.07,155.27 574.07,155.61 574.13,155.96 574.24,156.29 574.40,156.59 574.61,156.87 574.86,157.11 575.14,157.31 575.46,157.46 575.79,157.56 576.14,157.60 " style="stroke-width: 0.53; stroke: #AF0DC7; fill: #FFFFFF;" clip-path="url(#cpNi45NzM4NXw3MTMuMDI2fDIwOS4yMjd8Ni45NzM4NQ==)"/>
  <g clip-path="url(#cpNi45NzM4NXw3MTMuMDI2fDIwOS4yMjd8Ni45NzM4NQ==)">
    <text x="577.66" y="154.00" style="font-size: 9.96px; fill: #AF0DC7; font-family: Liberation Sans;" textLength="49.26px" lengthAdjust="spacingAndGlyphs">PhenoPath</text>
  </g>
  <polyline points="365.08,183.07 387.87,183.07 387.78,183.07 388.13,183.06 388.47,182.99 388.79,182.86 389.10,182.69 389.36,182.47 389.59,182.21 389.78,181.92 389.92,181.60 390.00,181.26 390.03,180.91 390.03,180.91 390.03,171.16 390.03,171.16 390.00,170.81 389.92,170.47 389.78,170.15 389.59,169.86 389.36,169.60 389.10,169.38 388.79,169.21 388.47,169.08 388.13,169.01 387.87,169.00 365.08,169.00 365.34,169.01 364.99,169.00 364.65,169.04 364.32,169.14 364.00,169.29 363.72,169.49 363.47,169.73 363.26,170.00 363.09,170.31 362.98,170.64 362.93,170.98 362.92,171.16 362.92,180.91 362.93,180.74 362.93,181.09 362.98,181.43 363.09,181.76 363.26,182.07 363.47,182.35 363.72,182.59 364.00,182.78 364.32,182.93 364.65,183.03 364.99,183.07 " style="stroke-width: 0.53; stroke: #0073D7; fill: #FFFFFF;" clip-path="url(#cpNi45NzM4NXw3MTMuMDI2fDIwOS4yMjd8Ni45NzM4NQ==)"/>
  <g clip-path="url(#cpNi45NzM4NXw3MTMuMDI2fDIwOS4yMjd8Ni45NzM4NQ==)">
    <text x="366.52" y="179.47" style="font-size: 9.96px; fill: #0073D7; font-family: Liberation Sans;" textLength="19.91px" lengthAdjust="spacingAndGlyphs">DPT</text>
  </g>
  <polyline points="410.50,69.58 448.77,69.58 448.68,69.57 449.03,69.56 449.37,69.49 449.70,69.37 450.00,69.19 450.27,68.97 450.50,68.71 450.68,68.42 450.82,68.10 450.90,67.76 450.93,67.42 450.93,67.42 450.93,57.66 450.93,57.66 450.90,57.31 450.82,56.98 450.68,56.66 450.50,56.36 450.27,56.10 450.00,55.88 449.70,55.71 449.37,55.59 449.03,55.52 448.77,55.50 410.50,55.50 410.76,55.52 410.41,55.50 410.06,55.54 409.73,55.64 409.42,55.79 409.13,55.99 408.88,56.23 408.67,56.51 408.51,56.81 408.40,57.14 408.34,57.49 408.34,57.66 408.34,67.42 408.34,67.24 408.34,67.59 408.40,67.93 408.51,68.26 408.67,68.57 408.88,68.85 409.13,69.09 409.42,69.29 409.73,69.43 410.06,69.53 410.41,69.57 " style="stroke-width: 0.53; stroke: #CFBF00; fill: #FFFFFF;" clip-path="url(#cpNi45NzM4NXw3MTMuMDI2fDIwOS4yMjd8Ni45NzM4NQ==)"/>
  <g clip-path="url(#cpNi45NzM4NXw3MTMuMDI2fDIwOS4yMjd8Ni45NzM4NQ==)">
    <text x="411.94" y="65.98" style="font-size: 9.96px; fill: #CFBF00; font-family: Liberation Sans;" textLength="35.39px" lengthAdjust="spacingAndGlyphs">SCOUP</text>
  </g>
  <polyline points="439.49,142.40 477.77,142.40 477.68,142.40 478.03,142.39 478.37,142.32 478.70,142.19 479.00,142.02 479.27,141.80 479.50,141.54 479.68,141.25 479.82,140.93 479.90,140.59 479.93,140.24 479.93,140.24 479.93,130.49 479.93,130.49 479.90,130.14 479.82,129.80 479.68,129.48 479.50,129.19 479.27,128.93 479.00,128.71 478.70,128.54 478.37,128.41 478.03,128.34 477.77,128.33 439.49,128.33 439.75,128.34 439.40,128.33 439.06,128.37 438.72,128.47 438.41,128.62 438.12,128.81 437.87,129.06 437.66,129.33 437.50,129.64 437.39,129.97 437.34,130.31 437.33,130.49 437.33,140.24 437.34,140.07 437.34,140.42 437.39,140.76 437.50,141.09 437.66,141.40 437.87,141.68 438.12,141.92 438.41,142.11 438.72,142.26 439.06,142.36 439.40,142.40 " style="stroke-width: 0.53; stroke: #5ECD2E; fill: #FFFFFF;" clip-path="url(#cpNi45NzM4NXw3MTMuMDI2fDIwOS4yMjd8Ni45NzM4NQ==)"/>
  <g clip-path="url(#cpNi45NzM4NXw3MTMuMDI2fDIwOS4yMjd8Ni45NzM4NQ==)">
    <text x="440.93" y="138.80" style="font-size: 9.96px; fill: #5ECD2E; font-family: Liberation Sans;" textLength="35.40px" lengthAdjust="spacingAndGlyphs">cellTree</text>
  </g>
  <polyline points="285.99,160.81 328.13,160.81 328.05,160.80 328.39,160.79 328.74,160.72 329.06,160.60 329.36,160.42 329.63,160.20 329.86,159.94 330.05,159.65 330.18,159.33 330.27,158.99 330.29,158.65 330.29,158.65 330.29,148.89 330.29,148.89 330.27,148.54 330.18,148.21 330.05,147.89 329.86,147.59 329.63,147.33 329.36,147.11 329.06,146.94 328.74,146.82 328.39,146.75 328.13,146.73 285.99,146.73 286.25,146.75 285.90,146.73 285.55,146.78 285.22,146.87 284.91,147.02 284.62,147.22 284.37,147.46 284.16,147.74 284.00,148.04 283.89,148.37 283.83,148.72 283.83,148.89 283.83,158.65 283.83,158.47 283.83,158.82 283.89,159.16 284.00,159.49 284.16,159.80 284.37,160.08 284.62,160.32 284.91,160.52 285.22,160.67 285.55,160.76 285.90,160.80 " style="stroke-width: 0.53; stroke: #AF0DC7; fill: #FFFFFF;" clip-path="url(#cpNi45NzM4NXw3MTMuMDI2fDIwOS4yMjd8Ni45NzM4NQ==)"/>
  <g clip-path="url(#cpNi45NzM4NXw3MTMuMDI2fDIwOS4yMjd8Ni45NzM4NQ==)">
    <text x="287.43" y="157.21" style="font-size: 9.96px; fill: #AF0DC7; font-family: Liberation Sans;" textLength="39.27px" lengthAdjust="spacingAndGlyphs">Waterfall</text>
  </g>
  <polyline points="282.40,182.13 342.27,182.13 342.18,182.13 342.53,182.11 342.87,182.05 343.19,181.92 343.50,181.75 343.76,181.53 344.00,181.27 344.18,180.97 344.32,180.65 344.40,180.32 344.43,179.97 344.43,179.97 344.43,170.22 344.43,170.22 344.40,169.87 344.32,169.53 344.18,169.21 344.00,168.92 343.76,168.66 343.50,168.44 343.19,168.26 342.87,168.14 342.53,168.07 342.27,168.06 282.40,168.06 282.66,168.07 282.31,168.06 281.96,168.10 281.63,168.20 281.32,168.34 281.03,168.54 280.78,168.78 280.57,169.06 280.41,169.37 280.30,169.70 280.24,170.04 280.24,170.22 280.24,179.97 280.24,179.80 280.24,180.14 280.30,180.49 280.41,180.82 280.57,181.13 280.78,181.40 281.03,181.64 281.32,181.84 281.63,181.99 281.96,182.09 282.31,182.13 " style="stroke-width: 0.53; stroke: #AF0DC7; fill: #FFFFFF;" clip-path="url(#cpNi45NzM4NXw3MTMuMDI2fDIwOS4yMjd8Ni45NzM4NQ==)"/>
  <g clip-path="url(#cpNi45NzM4NXw3MTMuMDI2fDIwOS4yMjd8Ni45NzM4NQ==)">
    <text x="283.84" y="178.53" style="font-size: 9.96px; fill: #AF0DC7; font-family: Liberation Sans;" textLength="56.99px" lengthAdjust="spacingAndGlyphs">gpseudotime</text>
  </g>
  <polyline points="410.29,162.24 456.89,162.24 456.80,162.24 457.15,162.22 457.49,162.15 457.81,162.03 458.11,161.86 458.38,161.64 458.61,161.38 458.80,161.08 458.93,160.76 459.02,160.43 459.05,160.08 459.05,160.08 459.05,150.32 459.05,150.32 459.02,149.98 458.93,149.64 458.80,149.32 458.61,149.03 458.38,148.77 458.11,148.55 457.81,148.37 457.49,148.25 457.15,148.18 456.89,148.16 410.29,148.16 410.55,148.18 410.20,148.17 409.86,148.21 409.52,148.30 409.21,148.45 408.92,148.65 408.67,148.89 408.47,149.17 408.30,149.48 408.19,149.81 408.14,150.15 408.13,150.32 408.13,160.08 408.14,159.91 408.14,160.25 408.19,160.60 408.30,160.93 408.47,161.23 408.67,161.51 408.92,161.75 409.21,161.95 409.52,162.10 409.86,162.20 410.20,162.24 " style="stroke-width: 0.53; stroke: #AF0DC7; fill: #FFFFFF;" clip-path="url(#cpNi45NzM4NXw3MTMuMDI2fDIwOS4yMjd8Ni45NzM4NQ==)"/>
  <g clip-path="url(#cpNi45NzM4NXw3MTMuMDI2fDIwOS4yMjd8Ni45NzM4NQ==)">
    <text x="411.73" y="158.64" style="font-size: 9.96px; fill: #AF0DC7; font-family: Liberation Sans;" textLength="43.72px" lengthAdjust="spacingAndGlyphs">DeLorean</text>
  </g>
  <polyline points="644.35,149.84 692.03,149.84 691.95,149.83 692.29,149.82 692.63,149.75 692.96,149.63 693.26,149.45 693.53,149.23 693.76,148.97 693.95,148.68 694.08,148.36 694.17,148.02 694.19,147.68 694.19,147.68 694.19,137.92 694.19,137.92 694.17,137.57 694.08,137.24 693.95,136.92 693.76,136.62 693.53,136.36 693.26,136.14 692.96,135.97 692.63,135.85 692.29,135.78 692.03,135.76 644.35,135.76 644.61,135.78 644.26,135.76 643.92,135.81 643.58,135.90 643.27,136.05 642.98,136.25 642.73,136.49 642.52,136.77 642.36,137.07 642.25,137.40 642.20,137.75 642.19,137.92 642.19,147.68 642.20,147.50 642.20,147.85 642.25,148.19 642.36,148.52 642.52,148.83 642.73,149.11 642.98,149.35 643.27,149.55 643.58,149.70 643.92,149.79 644.26,149.83 " style="stroke-width: 0.53; stroke: #CFBF00; fill: #FFFFFF;" clip-path="url(#cpNi45NzM4NXw3MTMuMDI2fDIwOS4yMjd8Ni45NzM4NQ==)"/>
  <g clip-path="url(#cpNi45NzM4NXw3MTMuMDI2fDIwOS4yMjd8Ni45NzM4NQ==)">
    <text x="645.79" y="146.24" style="font-size: 9.96px; fill: #CFBF00; font-family: Liberation Sans;" textLength="44.80px" lengthAdjust="spacingAndGlyphs">GrandPrix</text>
  </g>
  <polyline points="652.16,205.28 681.59,205.28 681.50,205.28 681.85,205.26 682.19,205.19 682.52,205.07 682.82,204.90 683.09,204.68 683.32,204.42 683.50,204.12 683.64,203.80 683.72,203.46 683.75,203.12 683.75,203.12 683.75,193.36 683.75,193.36 683.72,193.02 683.64,192.68 683.50,192.36 683.32,192.07 683.09,191.81 682.82,191.59 682.52,191.41 682.19,191.29 681.85,191.22 681.59,191.20 652.16,191.20 652.42,191.22 652.07,191.21 651.73,191.25 651.39,191.34 651.08,191.49 650.79,191.69 650.54,191.93 650.33,192.21 650.17,192.52 650.06,192.85 650.01,193.19 650.00,193.36 650.00,203.12 650.01,202.94 650.01,203.29 650.06,203.64 650.17,203.96 650.33,204.27 650.54,204.55 650.79,204.79 651.08,204.99 651.39,205.14 651.73,205.23 652.07,205.28 " style="stroke-width: 0.53; stroke: #AF0DC7; fill: #FFFFFF;" clip-path="url(#cpNi45NzM4NXw3MTMuMDI2fDIwOS4yMjd8Ni45NzM4NQ==)"/>
  <g clip-path="url(#cpNi45NzM4NXw3MTMuMDI2fDIwOS4yMjd8Ni45NzM4NQ==)">
    <text x="653.60" y="201.68" style="font-size: 9.96px; fill: #AF0DC7; font-family: Liberation Sans;" textLength="26.55px" lengthAdjust="spacingAndGlyphs">iCpSc</text>
  </g>
  <polyline points="424.03,203.33 454.57,203.33 454.48,203.33 454.83,203.31 455.17,203.24 455.50,203.12 455.80,202.95 456.07,202.73 456.30,202.47 456.48,202.17 456.62,201.85 456.70,201.52 456.73,201.17 456.73,201.17 456.73,191.41 456.73,191.41 456.70,191.07 456.62,190.73 456.48,190.41 456.30,190.12 456.07,189.86 455.80,189.64 455.50,189.46 455.17,189.34 454.83,189.27 454.57,189.25 424.03,189.25 424.29,189.27 423.94,189.26 423.60,189.30 423.26,189.39 422.95,189.54 422.66,189.74 422.41,189.98 422.20,190.26 422.04,190.57 421.93,190.90 421.88,191.24 421.87,191.41 421.87,201.17 421.88,201.00 421.88,201.34 421.93,201.69 422.04,202.02 422.20,202.32 422.41,202.60 422.66,202.84 422.95,203.04 423.26,203.19 423.60,203.29 423.94,203.33 " style="stroke-width: 0.53; stroke: #5ECD2E; fill: #FFFFFF;" clip-path="url(#cpNi45NzM4NXw3MTMuMDI2fDIwOS4yMjd8Ni45NzM4NQ==)"/>
  <g clip-path="url(#cpNi45NzM4NXw3MTMuMDI2fDIwOS4yMjd8Ni45NzM4NQ==)">
    <text x="425.47" y="199.73" style="font-size: 9.96px; fill: #5ECD2E; font-family: Liberation Sans;" textLength="27.66px" lengthAdjust="spacingAndGlyphs">Mpath</text>
  </g>
  <polyline points="600.02,201.95 634.44,201.95 634.35,201.94 634.70,201.93 635.04,201.86 635.36,201.74 635.66,201.56 635.93,201.34 636.16,201.08 636.35,200.79 636.49,200.47 636.57,200.13 636.60,199.79 636.60,199.79 636.60,190.03 636.60,190.03 636.57,189.68 636.49,189.35 636.35,189.03 636.16,188.73 635.93,188.47 635.66,188.25 635.36,188.08 635.04,187.96 634.70,187.89 634.44,187.87 600.02,187.87 600.28,187.89 599.93,187.87 599.59,187.91 599.26,188.01 598.94,188.16 598.66,188.36 598.40,188.60 598.20,188.88 598.03,189.18 597.92,189.51 597.87,189.86 597.86,190.03 597.86,199.79 597.87,199.61 597.87,199.96 597.92,200.30 598.03,200.63 598.20,200.94 598.40,201.22 598.66,201.46 598.94,201.66 599.26,201.81 599.59,201.90 599.93,201.94 " style="stroke-width: 0.53; stroke: #0073D7; fill: #FFFFFF;" clip-path="url(#cpNi45NzM4NXw3MTMuMDI2fDIwOS4yMjd8Ni45NzM4NQ==)"/>
  <g clip-path="url(#cpNi45NzM4NXw3MTMuMDI2fDIwOS4yMjd8Ni45NzM4NQ==)">
    <text x="601.46" y="198.35" style="font-size: 9.96px; fill: #0073D7; font-family: Liberation Sans;" textLength="31.54px" lengthAdjust="spacingAndGlyphs">scanpy</text>
  </g>
  <polyline points="399.91,182.89 436.52,182.89 436.43,182.89 436.78,182.88 437.12,182.81 437.44,182.68 437.75,182.51 438.01,182.29 438.24,182.03 438.43,181.74 438.57,181.42 438.65,181.08 438.68,180.73 438.68,180.73 438.68,170.98 438.68,170.98 438.65,170.63 438.57,170.29 438.43,169.97 438.24,169.68 438.01,169.42 437.75,169.20 437.44,169.03 437.12,168.90 436.78,168.83 436.52,168.82 399.91,168.82 400.17,168.83 399.82,168.82 399.47,168.86 399.14,168.96 398.83,169.11 398.54,169.31 398.29,169.55 398.08,169.82 397.92,170.13 397.81,170.46 397.75,170.80 397.75,170.98 397.75,180.73 397.75,180.56 397.75,180.91 397.81,181.25 397.92,181.58 398.08,181.89 398.29,182.17 398.54,182.41 398.83,182.60 399.14,182.75 399.47,182.85 399.82,182.89 " style="stroke-width: 0.53; stroke: #5ECD2E; fill: #FFFFFF;" clip-path="url(#cpNi45NzM4NXw3MTMuMDI2fDIwOS4yMjd8Ni45NzM4NQ==)"/>
  <g clip-path="url(#cpNi45NzM4NXw3MTMuMDI2fDIwOS4yMjd8Ni45NzM4NQ==)">
    <text x="401.35" y="179.29" style="font-size: 9.96px; fill: #5ECD2E; font-family: Liberation Sans;" textLength="33.73px" lengthAdjust="spacingAndGlyphs">TSCAN</text>
  </g>
  <polyline points="540.70,162.72 564.59,162.72 564.51,162.72 564.85,162.71 565.19,162.64 565.52,162.51 565.82,162.34 566.09,162.12 566.32,161.86 566.50,161.57 566.64,161.25 566.72,160.91 566.75,160.56 566.75,160.56 566.75,150.81 566.75,150.81 566.72,150.46 566.64,150.12 566.50,149.80 566.32,149.51 566.09,149.25 565.82,149.03 565.52,148.86 565.19,148.73 564.85,148.66 564.59,148.65 540.70,148.65 540.96,148.66 540.62,148.65 540.27,148.69 539.94,148.79 539.62,148.94 539.34,149.13 539.09,149.38 538.88,149.65 538.72,149.96 538.61,150.29 538.55,150.63 538.54,150.81 538.54,160.56 538.55,160.39 538.55,160.74 538.61,161.08 538.72,161.41 538.88,161.72 539.09,162.00 539.34,162.24 539.62,162.43 539.94,162.58 540.27,162.68 540.62,162.72 " style="stroke-width: 0.53; stroke: #CFBF00; fill: #FFFFFF;" clip-path="url(#cpNi45NzM4NXw3MTMuMDI2fDIwOS4yMjd8Ni45NzM4NQ==)"/>
  <g clip-path="url(#cpNi45NzM4NXw3MTMuMDI2fDIwOS4yMjd8Ni45NzM4NQ==)">
    <text x="542.14" y="159.12" style="font-size: 9.96px; fill: #CFBF00; font-family: Liberation Sans;" textLength="21.01px" lengthAdjust="spacingAndGlyphs">MFA</text>
  </g>
  <polyline points="345.20,204.63 384.03,204.63 383.94,204.63 384.29,204.61 384.63,204.54 384.96,204.42 385.26,204.25 385.53,204.03 385.76,203.77 385.94,203.47 386.08,203.15 386.16,202.81 386.19,202.47 386.19,202.47 386.19,192.71 386.19,192.71 386.16,192.37 386.08,192.03 385.94,191.71 385.76,191.41 385.53,191.15 385.26,190.93 384.96,190.76 384.63,190.64 384.29,190.57 384.03,190.55 345.20,190.55 345.46,190.57 345.11,190.55 344.76,190.60 344.43,190.69 344.12,190.84 343.83,191.04 343.58,191.28 343.37,191.56 343.21,191.87 343.10,192.20 343.04,192.54 343.04,192.71 343.04,202.47 343.04,202.29 343.04,202.64 343.10,202.98 343.21,203.31 343.37,203.62 343.58,203.90 343.83,204.14 344.12,204.34 344.43,204.49 344.76,204.58 345.11,204.63 " style="stroke-width: 0.53; stroke: #5ECD2E; fill: #FFFFFF;" clip-path="url(#cpNi45NzM4NXw3MTMuMDI2fDIwOS4yMjd8Ni45NzM4NQ==)"/>
  <g clip-path="url(#cpNi45NzM4NXw3MTMuMDI2fDIwOS4yMjd8Ni45NzM4NQ==)">
    <text x="346.64" y="201.03" style="font-size: 9.96px; fill: #5ECD2E; font-family: Liberation Sans;" textLength="35.95px" lengthAdjust="spacingAndGlyphs">ECLAIR</text>
  </g>
  <polyline points="487.05,142.34 539.17,142.34 539.08,142.34 539.43,142.32 539.77,142.25 540.09,142.13 540.39,141.96 540.66,141.74 540.89,141.48 541.08,141.18 541.21,140.86 541.30,140.52 541.33,140.18 541.33,140.18 541.33,130.42 541.33,130.42 541.30,130.08 541.21,129.74 541.08,129.42 540.89,129.13 540.66,128.86 540.39,128.65 540.09,128.47 539.77,128.35 539.43,128.28 539.17,128.26 487.05,128.26 487.31,128.28 486.96,128.26 486.62,128.31 486.28,128.40 485.97,128.55 485.68,128.75 485.43,128.99 485.22,129.27 485.06,129.58 484.95,129.91 484.90,130.25 484.89,130.42 484.89,140.18 484.90,140.00 484.90,140.35 484.95,140.69 485.06,141.02 485.22,141.33 485.43,141.61 485.68,141.85 485.97,142.05 486.28,142.20 486.62,142.29 486.96,142.34 " style="stroke-width: 0.53; stroke: #5ECD2E; fill: #FFFFFF;" clip-path="url(#cpNi45NzM4NXw3MTMuMDI2fDIwOS4yMjd8Ni45NzM4NQ==)"/>
  <g clip-path="url(#cpNi45NzM4NXw3MTMuMDI2fDIwOS4yMjd8Ni45NzM4NQ==)">
    <text x="488.49" y="138.74" style="font-size: 9.96px; fill: #5ECD2E; font-family: Liberation Sans;" textLength="49.24px" lengthAdjust="spacingAndGlyphs">k-branches</text>
  </g>
  <polyline points="518.58,184.70 567.38,184.70 567.30,184.70 567.64,184.69 567.98,184.62 568.31,184.49 568.61,184.32 568.88,184.10 569.11,183.84 569.30,183.55 569.43,183.23 569.52,182.89 569.54,182.54 569.54,182.54 569.54,172.79 569.54,172.79 569.52,172.44 569.43,172.10 569.30,171.78 569.11,171.49 568.88,171.23 568.61,171.01 568.31,170.84 567.98,170.71 567.64,170.64 567.38,170.63 518.58,170.63 518.84,170.64 518.49,170.63 518.15,170.67 517.82,170.77 517.50,170.92 517.22,171.11 516.96,171.35 516.76,171.63 516.59,171.94 516.48,172.27 516.43,172.61 516.42,172.79 516.42,182.54 516.43,182.37 516.43,182.72 516.48,183.06 516.59,183.39 516.76,183.70 516.96,183.97 517.22,184.21 517.50,184.41 517.82,184.56 518.15,184.66 518.49,184.70 " style="stroke-width: 0.53; stroke: #5ECD2E; fill: #FFFFFF;" clip-path="url(#cpNi45NzM4NXw3MTMuMDI2fDIwOS4yMjd8Ni45NzM4NQ==)"/>
  <g clip-path="url(#cpNi45NzM4NXw3MTMuMDI2fDIwOS4yMjd8Ni45NzM4NQ==)">
    <text x="520.02" y="181.10" style="font-size: 9.96px; fill: #5ECD2E; font-family: Liberation Sans;" textLength="45.92px" lengthAdjust="spacingAndGlyphs">Monocle 2</text>
  </g>
  <polyline points="455.36,183.92 510.23,183.92 510.14,183.91 510.49,183.90 510.83,183.83 511.15,183.71 511.45,183.53 511.72,183.31 511.95,183.05 512.14,182.76 512.28,182.44 512.36,182.10 512.39,181.76 512.39,181.76 512.39,172.00 512.39,172.00 512.36,171.65 512.28,171.32 512.14,171.00 511.95,170.70 511.72,170.44 511.45,170.22 511.15,170.05 510.83,169.93 510.49,169.86 510.23,169.84 455.36,169.84 455.62,169.86 455.27,169.84 454.93,169.88 454.59,169.98 454.28,170.13 453.99,170.33 453.74,170.57 453.53,170.85 453.37,171.15 453.26,171.48 453.21,171.83 453.20,172.00 453.20,181.76 453.21,181.58 453.21,181.93 453.26,182.27 453.37,182.60 453.53,182.91 453.74,183.19 453.99,183.43 454.28,183.63 454.59,183.78 454.93,183.87 455.27,183.91 " style="stroke-width: 0.53; stroke: #AF0DC7; fill: #FFFFFF;" clip-path="url(#cpNi45NzM4NXw3MTMuMDI2fDIwOS4yMjd8Ni45NzM4NQ==)"/>
  <g clip-path="url(#cpNi45NzM4NXw3MTMuMDI2fDIwOS4yMjd8Ni45NzM4NQ==)">
    <text x="456.80" y="180.32" style="font-size: 9.96px; fill: #AF0DC7; font-family: Liberation Sans;" textLength="51.99px" lengthAdjust="spacingAndGlyphs">SCORPIUS</text>
  </g>
  <polyline points="570.97,183.94 623.07,183.94 622.98,183.94 623.33,183.92 623.67,183.85 623.99,183.73 624.29,183.56 624.56,183.34 624.79,183.08 624.98,182.78 625.11,182.46 625.20,182.13 625.23,181.78 625.23,181.78 625.23,172.02 625.23,172.02 625.20,171.68 625.11,171.34 624.98,171.02 624.79,170.73 624.56,170.47 624.29,170.25 623.99,170.07 623.67,169.95 623.33,169.88 623.07,169.86 570.97,169.86 571.23,169.88 570.89,169.87 570.54,169.91 570.21,170.00 569.89,170.15 569.61,170.35 569.36,170.59 569.15,170.87 568.99,171.18 568.88,171.51 568.82,171.85 568.81,172.02 568.81,181.78 568.82,181.61 568.82,181.95 568.88,182.30 568.99,182.63 569.15,182.93 569.36,183.21 569.61,183.45 569.89,183.65 570.21,183.80 570.54,183.90 570.89,183.94 " style="stroke-width: 0.53; stroke: #AF0DC7; fill: #FFFFFF;" clip-path="url(#cpNi45NzM4NXw3MTMuMDI2fDIwOS4yMjd8Ni45NzM4NQ==)"/>
  <g clip-path="url(#cpNi45NzM4NXw3MTMuMDI2fDIwOS4yMjd8Ni45NzM4NQ==)">
    <text x="572.41" y="180.34" style="font-size: 9.96px; fill: #AF0DC7; font-family: Liberation Sans;" textLength="49.21px" lengthAdjust="spacingAndGlyphs">MATCHER</text>
  </g>
  <defs>
    <clipPath id="cpMHw3MjB8MjUyfDA=">
      <rect x="0.00" y="0.00" width="720.00" height="252.00"/>
    </clipPath>
  </defs>
  <polyline points="6.97,209.23 713.03,209.23 " style="stroke-width: 1.07; stroke-linecap: square;" clip-path="url(#cpMHw3MjB8MjUyfDA=)"/>
  <polyline points="39.07,212.71 39.07,209.23 " style="stroke-width: 1.07; stroke-linecap: butt;" clip-path="url(#cpMHw3MjB8MjUyfDA=)"/>
  <polyline points="199.42,212.71 199.42,209.23 " style="stroke-width: 1.07; stroke-linecap: butt;" clip-path="url(#cpMHw3MjB8MjUyfDA=)"/>
  <polyline points="359.78,212.71 359.78,209.23 " style="stroke-width: 1.07; stroke-linecap: butt;" clip-path="url(#cpMHw3MjB8MjUyfDA=)"/>
  <polyline points="520.58,212.71 520.58,209.23 " style="stroke-width: 1.07; stroke-linecap: butt;" clip-path="url(#cpMHw3MjB8MjUyfDA=)"/>
  <polyline points="680.93,212.71 680.93,209.23 " style="stroke-width: 1.07; stroke-linecap: butt;" clip-path="url(#cpMHw3MjB8MjUyfDA=)"/>
  <g clip-path="url(#cpMHw3MjB8MjUyfDA=)">
    <text x="25.72" y="223.95" style="font-size: 12.00px; font-family: Liberation Sans;" textLength="26.70px" lengthAdjust="spacingAndGlyphs">2014</text>
  </g>
  <g clip-path="url(#cpMHw3MjB8MjUyfDA=)">
    <text x="186.08" y="223.95" style="font-size: 12.00px; font-family: Liberation Sans;" textLength="26.70px" lengthAdjust="spacingAndGlyphs">2015</text>
  </g>
  <g clip-path="url(#cpMHw3MjB8MjUyfDA=)">
    <text x="346.43" y="223.95" style="font-size: 12.00px; font-family: Liberation Sans;" textLength="26.70px" lengthAdjust="spacingAndGlyphs">2016</text>
  </g>
  <g clip-path="url(#cpMHw3MjB8MjUyfDA=)">
    <text x="507.23" y="223.95" style="font-size: 12.00px; font-family: Liberation Sans;" textLength="26.70px" lengthAdjust="spacingAndGlyphs">2017</text>
  </g>
  <g clip-path="url(#cpMHw3MjB8MjUyfDA=)">
    <text x="667.59" y="223.95" style="font-size: 12.00px; font-family: Liberation Sans;" textLength="26.70px" lengthAdjust="spacingAndGlyphs">2018</text>
  </g>
  <g clip-path="url(#cpMHw3MjB8MjUyfDA=)">
    <text x="312.13" y="240.80" style="font-size: 14.00px; font-family: Liberation Sans;" textLength="95.74px" lengthAdjust="spacingAndGlyphs">Publishing date</text>
  </g>
</svg>
