<?xml version="1.0" encoding="UTF-8"?>
<svg xmlns="http://www.w3.org/2000/svg" xmlns:xlink="http://www.w3.org/1999/xlink" viewBox="0 0 720.00 252.00">
  <defs>
    <style type="text/css"><![CDATA[
    line, polyline, path, rect, circle {
      fill: none;
      stroke: #000000;
      stroke-linecap: round;
      stroke-linejoin: round;
      stroke-miterlimit: 10.00;
    }
  ]]></style>
  </defs>
  <line x1="594.82" y1="88.85" x2="594.82" y2="209.23" style="stroke-width: 1.07; stroke: #39CCCC;" clip-path="url(#cpNi45NzM4NXw3MTMuMDI2fDIwOS4yMjd8Ni45NzM4NQ==)"/>
  <line x1="88.71" y1="202.85" x2="88.71" y2="209.23" style="stroke-width: 1.07; stroke: #AF0DC7;" clip-path="url(#cpNi45NzM4NXw3MTMuMDI2fDIwOS4yMjd8Ni45NzM4NQ==)"/>
  <line x1="407.67" y1="184.24" x2="407.67" y2="209.23" style="stroke-width: 1.07; stroke: #AF0DC7;" clip-path="url(#cpNi45NzM4NXw3MTMuMDI2fDIwOS4yMjd8Ni45NzM4NQ==)"/>
  <line x1="78.61" y1="180.95" x2="78.61" y2="209.22" style="stroke-width: 1.07; stroke: #5ECD2E;" clip-path="url(#cpNi45NzM4NXw3MTMuMDI2fDIwOS4yMjd8Ni45NzM4NQ==)"/>
  <line x1="492.90" y1="162.38" x2="492.90" y2="209.22" style="stroke-width: 1.07; stroke: #AF0DC7;" clip-path="url(#cpNi45NzM4NXw3MTMuMDI2fDIwOS4yMjd8Ni45NzM4NQ==)"/>
  <line x1="436.22" y1="205.39" x2="436.22" y2="209.22" style="stroke-width: 1.07; stroke: #AF0DC7;" clip-path="url(#cpNi45NzM4NXw3MTMuMDI2fDIwOS4yMjd8Ni45NzM4NQ==)"/>
  <line x1="539.47" y1="183.96" x2="539.47" y2="209.22" style="stroke-width: 1.07; stroke: #AF0DC7;" clip-path="url(#cpNi45NzM4NXw3MTMuMDI2fDIwOS4yMjd8Ni45NzM4NQ==)"/>
  <line x1="602.29" y1="183.88" x2="602.29" y2="209.22" style="stroke-width: 1.07; stroke: #AF0DC7;" clip-path="url(#cpNi45NzM4NXw3MTMuMDI2fDIwOS4yMjd8Ni45NzM4NQ==)"/>
  <line x1="568.02" y1="165.53" x2="568.02" y2="209.22" style="stroke-width: 1.07; stroke: #5ECD2E;" clip-path="url(#cpNi45NzM4NXw3MTMuMDI2fDIwOS4yMjd8Ni45NzM4NQ==)"/>
  <line x1="660.28" y1="166.02" x2="660.28" y2="209.22" style="stroke-width: 1.07; stroke: #5ECD2E;" clip-path="url(#cpNi45NzM4NXw3MTMuMDI2fDIwOS4yMjd8Ni45NzM4NQ==)"/>
  <line x1="460.39" y1="183.10" x2="460.39" y2="209.22" style="stroke-width: 1.07; stroke: #AF0DC7;" clip-path="url(#cpNi45NzM4NXw3MTMuMDI2fDIwOS4yMjd8Ni45NzM4NQ==)"/>
  <line x1="268.84" y1="204.94" x2="268.84" y2="209.22" style="stroke-width: 1.07; stroke: #AF0DC7;" clip-path="url(#cpNi45NzM4NXw3MTMuMDI2fDIwOS4yMjd8Ni45NzM4NQ==)"/>
  <line x1="403.27" y1="141.44" x2="403.27" y2="209.22" style="stroke-width: 1.07; stroke: #FF8821;" clip-path="url(#cpNi45NzM4NXw3MTMuMDI2fDIwOS4yMjd8Ni45NzM4NQ==)"/>
  <line x1="668.19" y1="144.76" x2="668.19" y2="209.22" style="stroke-width: 1.07; stroke: #CFBF00;" clip-path="url(#cpNi45NzM4NXw3MTMuMDI2fDIwOS4yMjd8Ni45NzM4NQ==)"/>
  <line x1="210.85" y1="205.13" x2="210.85" y2="209.22" style="stroke-width: 1.07; stroke: #5ECD2E;" clip-path="url(#cpNi45NzM4NXw3MTMuMDI2fDIwOS4yMjd8Ni45NzM4NQ==)"/>
  <line x1="458.63" y1="141.04" x2="458.63" y2="209.22" style="stroke-width: 1.07; stroke: #5ECD2E;" clip-path="url(#cpNi45NzM4NXw3MTMuMDI2fDIwOS4yMjd8Ni45NzM4NQ==)"/>
  <line x1="435.35" y1="120.36" x2="435.35" y2="209.22" style="stroke-width: 1.07; stroke: #5ECD2E;" clip-path="url(#cpNi45NzM4NXw3MTMuMDI2fDIwOS4yMjd8Ni45NzM4NQ==)"/>
  <line x1="542.98" y1="139.65" x2="542.98" y2="209.22" style="stroke-width: 1.07; stroke: #5ECD2E;" clip-path="url(#cpNi45NzM4NXw3MTMuMDI2fDIwOS4yMjd8Ni45NzM4NQ==)"/>
  <line x1="597.02" y1="155.11" x2="597.02" y2="209.22" style="stroke-width: 1.07; stroke: #AF0DC7;" clip-path="url(#cpNi45NzM4NXw3MTMuMDI2fDIwOS4yMjd8Ni45NzM4NQ==)"/>
  <line x1="307.06" y1="182.96" x2="307.06" y2="209.22" style="stroke-width: 1.07; stroke: #AF0DC7;" clip-path="url(#cpNi45NzM4NXw3MTMuMDI2fDIwOS4yMjd8Ni45NzM4NQ==)"/>
  <line x1="586.48" y1="203.62" x2="586.48" y2="209.22" style="stroke-width: 1.07; stroke: #AF0DC7;" clip-path="url(#cpNi45NzM4NXw3MTMuMDI2fDIwOS4yMjd8Ni45NzM4NQ==)"/>
  <line x1="666.87" y1="99.22" x2="666.87" y2="209.22" style="stroke-width: 1.07; stroke: #AF0DC7;" clip-path="url(#cpNi45NzM4NXw3MTMuMDI2fDIwOS4yMjd8Ni45NzM4NQ==)"/>
  <line x1="198.55" y1="183.46" x2="198.55" y2="209.22" style="stroke-width: 1.07; stroke: #5ECD2E;" clip-path="url(#cpNi45NzM4NXw3MTMuMDI2fDIwOS4yMjd8Ni45NzM4NQ==)"/>
  <line x1="364.61" y1="205.10" x2="364.61" y2="209.21" style="stroke-width: 1.07; stroke: #5ECD2E;" clip-path="url(#cpNi45NzM4NXw3MTMuMDI2fDIwOS4yMjd8Ni45NzM4NQ==)"/>
  <line x1="481.48" y1="98.56" x2="481.48" y2="209.21" style="stroke-width: 1.07; stroke: #AF0DC7;" clip-path="url(#cpNi45NzM4NXw3MTMuMDI2fDIwOS4yMjd8Ni45NzM4NQ==)"/>
  <line x1="604.93" y1="136.76" x2="604.93" y2="209.21" style="stroke-width: 1.07; stroke: #AF0DC7;" clip-path="url(#cpNi45NzM4NXw3MTMuMDI2fDIwOS4yMjd8Ni45NzM4NQ==)"/>
  <line x1="513.11" y1="118.66" x2="513.11" y2="209.21" style="stroke-width: 1.07; stroke: #5ECD2E;" clip-path="url(#cpNi45NzM4NXw3MTMuMDI2fDIwOS4yMjd8Ni45NzM4NQ==)"/>
  <line x1="514.86" y1="204.83" x2="514.86" y2="209.21" style="stroke-width: 1.07; stroke: #5ECD2E;" clip-path="url(#cpNi45NzM4NXw3MTMuMDI2fDIwOS4yMjd8Ni45NzM4NQ==)"/>
  <line x1="313.65" y1="161.10" x2="313.65" y2="209.21" style="stroke-width: 1.07; stroke: #AF0DC7;" clip-path="url(#cpNi45NzM4NXw3MTMuMDI2fDIwOS4yMjd8Ni45NzM4NQ==)"/>
  <line x1="482.79" y1="77.70" x2="482.79" y2="209.21" style="stroke-width: 1.07; stroke: #AF0DC7;" clip-path="url(#cpNi45NzM4NXw3MTMuMDI2fDIwOS4yMjd8Ni45NzM4NQ==)"/>
  <line x1="401.52" y1="105.26" x2="401.52" y2="209.21" style="stroke-width: 1.07; stroke: #AF0DC7;" clip-path="url(#cpNi45NzM4NXw3MTMuMDI2fDIwOS4yMjd8Ni45NzM4NQ==)"/>
  <line x1="418.21" y1="86.45" x2="418.21" y2="209.21" style="stroke-width: 1.07; stroke: #5ECD2E;" clip-path="url(#cpNi45NzM4NXw3MTMuMDI2fDIwOS4yMjd8Ni45NzM4NQ==)"/>
  <line x1="413.38" y1="24.65" x2="413.38" y2="209.21" style="stroke-width: 1.07; stroke: #0073D7;" clip-path="url(#cpNi45NzM4NXw3MTMuMDI2fDIwOS4yMjd8Ni45NzM4NQ==)"/>
  <line x1="429.63" y1="67.27" x2="429.63" y2="209.21" style="stroke-width: 1.07; stroke: #CFBF00;" clip-path="url(#cpNi45NzM4NXw3MTMuMDI2fDIwOS4yMjd8Ni45NzM4NQ==)"/>
  <line x1="547.38" y1="88.40" x2="547.38" y2="209.21" style="stroke-width: 1.07; stroke: #CFBF00;" clip-path="url(#cpNi45NzM4NXw3MTMuMDI2fDIwOS4yMjd8Ni45NzM4NQ==)"/>
  <line x1="561.43" y1="67.73" x2="561.43" y2="209.21" style="stroke-width: 1.07; stroke: #5ECD2E;" clip-path="url(#cpNi45NzM4NXw3MTMuMDI2fDIwOS4yMjd8Ni45NzM4NQ==)"/>
  <line x1="613.71" y1="106.14" x2="613.71" y2="209.21" style="stroke-width: 1.07; stroke: #0073D7;" clip-path="url(#cpNi45NzM4NXw3MTMuMDI2fDIwOS4yMjd8Ni45NzM4NQ==)"/>
  <line x1="612.84" y1="67.54" x2="612.84" y2="209.21" style="stroke-width: 1.07; stroke: #CFBF00;" clip-path="url(#cpNi45NzM4NXw3MTMuMDI2fDIwOS4yMjd8Ni45NzM4NQ==)"/>
  <line x1="543.42" y1="24.65" x2="543.42" y2="209.21" style="stroke-width: 1.07; stroke: #5ECD2E;" clip-path="url(#cpNi45NzM4NXw3MTMuMDI2fDIwOS4yMjd8Ni45NzM4NQ==)"/>
  <line x1="573.30" y1="110.50" x2="573.30" y2="209.21" style="stroke-width: 1.07; stroke: #AF0DC7;" clip-path="url(#cpNi45NzM4NXw3MTMuMDI2fDIwOS4yMjd8Ni45NzM4NQ==)"/>
  <line x1="312.33" y1="139.16" x2="312.33" y2="209.21" style="stroke-width: 1.07; stroke: #AF0DC7;" clip-path="url(#cpNi45NzM4NXw3MTMuMDI2fDIwOS4yMjd8Ni45NzM4NQ==)"/>
  <line x1="376.47" y1="162.65" x2="376.47" y2="209.21" style="stroke-width: 1.07; stroke: #0073D7;" clip-path="url(#cpNi45NzM4NXw3MTMuMDI2fDIwOS4yMjd8Ni45NzM4NQ==)"/>
  <line x1="651.94" y1="205.59" x2="651.94" y2="209.21" style="stroke-width: 1.07; stroke: #FF4237;" clip-path="url(#cpNi45NzM4NXw3MTMuMDI2fDIwOS4yMjd8Ni45NzM4NQ==)"/>
  <line x1="552.65" y1="46.27" x2="552.65" y2="209.21" style="stroke-width: 1.07; stroke: #CFBF00;" clip-path="url(#cpNi45NzM4NXw3MTMuMDI2fDIwOS4yMjd8Ni45NzM4NQ==)"/>
  <line x1="439.30" y1="36.75" x2="439.30" y2="209.21" style="stroke-width: 1.07; stroke: #5ECD2E;" clip-path="url(#cpNi45NzM4NXw3MTMuMDI2fDIwOS4yMjd8Ni45NzM4NQ==)"/>
  <line x1="433.59" y1="51.98" x2="433.59" y2="209.21" style="stroke-width: 1.07; stroke: #AF0DC7;" clip-path="url(#cpNi45NzM4NXw3MTMuMDI2fDIwOS4yMjd8Ni45NzM4NQ==)"/>
  <line x1="638.76" y1="122.85" x2="638.76" y2="209.21" style="stroke-width: 1.07; stroke: #FF8821;" clip-path="url(#cpNi45NzM4NXw3MTMuMDI2fDIwOS4yMjd8Ni45NzM4NQ==)"/>
  <line x1="617.23" y1="47.56" x2="617.23" y2="209.21" style="stroke-width: 1.07; stroke: #0073D7;" clip-path="url(#cpNi45NzM4NXw3MTMuMDI2fDIwOS4yMjd8Ni45NzM4NQ==)"/>
  <line x1="611.08" y1="30.39" x2="611.08" y2="209.21" style="stroke-width: 1.07; stroke: #AF0DC7;" clip-path="url(#cpNi45NzM4NXw3MTMuMDI2fDIwOS4yMjd8Ni45NzM4NQ==)"/>
  <defs>
    <clipPath id="cpNi45NzM4NXw3MTMuMDI2fDIwOS4yMjd8Ni45NzM4NQ==">
      <rect x="6.97" y="6.97" width="706.05" height="202.25"/>
    </clipPath>
  </defs>
  <polyline points="592.49,30.39 629.67,30.39 629.58,30.39 629.93,30.38 630.27,30.31 630.60,30.18 630.90,30.01 631.17,29.79 631.40,29.53 631.58,29.23 631.72,28.92 631.80,28.58 631.83,28.23 631.83,28.23 631.83,18.48 631.83,18.48 631.80,18.13 631.72,17.79 631.58,17.47 631.40,17.18 631.17,16.92 630.90,16.70 630.60,16.52 630.27,16.40 629.93,16.33 629.67,16.32 592.49,16.32 592.75,16.33 592.40,16.32 592.06,16.36 591.72,16.46 591.41,16.61 591.12,16.80 590.87,17.04 590.66,17.32 590.50,17.63 590.39,17.96 590.34,18.30 590.33,18.48 590.33,28.23 590.34,28.06 590.34,28.40 590.39,28.75 590.50,29.08 590.66,29.39 590.87,29.66 591.12,29.90 591.41,30.10 591.72,30.25 592.06,30.35 592.40,30.39 " style="stroke-width: 0.53; stroke: #AF0DC7; fill: #FFFFFF;" clip-path="url(#cpNi45NzM4NXw3MTMuMDI2fDIwOS4yMjd8Ni45NzM4NQ==)"/>
  <g clip-path="url(#cpNi45NzM4NXw3MTMuMDI2fDIwOS4yMjd8Ni45NzM4NQ==)">
    <text x="593.93" y="26.79" style="font-size: 9.96px; fill: #AF0DC7; font-family: Liberation Sans;" textLength="34.30px" lengthAdjust="spacingAndGlyphs">SoptSC</text>
  </g>
  <polyline points="600.02,47.56 634.44,47.56 634.35,47.56 634.70,47.54 635.04,47.47 635.36,47.35 635.66,47.18 635.93,46.96 636.16,46.70 636.35,46.40 636.49,46.08 636.57,45.75 636.60,45.40 636.60,45.40 636.60,35.64 636.60,35.64 636.57,35.30 636.49,34.96 636.35,34.64 636.16,34.35 635.93,34.09 635.66,33.87 635.36,33.69 635.04,33.57 634.70,33.50 634.44,33.48 600.02,33.48 600.28,33.50 599.93,33.49 599.59,33.53 599.26,33.62 598.94,33.77 598.66,33.97 598.40,34.21 598.20,34.49 598.03,34.80 597.92,35.13 597.87,35.47 597.86,35.64 597.86,45.40 597.87,45.23 597.87,45.57 597.92,45.92 598.03,46.25 598.20,46.55 598.40,46.83 598.66,47.07 598.94,47.27 599.26,47.42 599.59,47.52 599.93,47.56 " style="stroke-width: 0.53; stroke: #0073D7; fill: #FFFFFF;" clip-path="url(#cpNi45NzM4NXw3MTMuMDI2fDIwOS4yMjd8Ni45NzM4NQ==)"/>
  <g clip-path="url(#cpNi45NzM4NXw3MTMuMDI2fDIwOS4yMjd8Ni45NzM4NQ==)">
    <text x="601.46" y="43.96" style="font-size: 9.96px; fill: #0073D7; font-family: Liberation Sans;" textLength="31.54px" lengthAdjust="spacingAndGlyphs">scanpy</text>
  </g>
  <polyline points="594.19,122.85 683.32,122.85 683.23,122.85 683.58,122.84 683.92,122.77 684.25,122.64 684.55,122.47 684.82,122.25 685.05,121.99 685.23,121.70 685.37,121.38 685.45,121.04 685.48,120.69 685.48,120.69 685.48,110.94 685.48,110.94 685.45,110.59 685.37,110.25 685.23,109.93 685.05,109.64 684.82,109.38 684.55,109.16 684.25,108.99 683.92,108.86 683.58,108.79 683.32,108.78 594.19,108.78 594.45,108.79 594.11,108.78 593.76,108.82 593.43,108.92 593.11,109.07 592.83,109.26 592.58,109.50 592.37,109.78 592.21,110.09 592.10,110.42 592.04,110.76 592.03,110.94 592.03,120.69 592.04,120.52 592.04,120.87 592.10,121.21 592.21,121.54 592.37,121.85 592.58,122.12 592.83,122.37 593.11,122.56 593.43,122.71 593.76,122.81 594.11,122.85 " style="stroke-width: 0.53; stroke: #FF8821; fill: #FFFFFF;" clip-path="url(#cpNi45NzM4NXw3MTMuMDI2fDIwOS4yMjd8Ni45NzM4NQ==)"/>
  <g clip-path="url(#cpNi45NzM4NXw3MTMuMDI2fDIwOS4yMjd8Ni45NzM4NQ==)">
    <text x="595.63" y="119.25" style="font-size: 9.96px; fill: #FF8821; font-family: Liberation Sans;" textLength="86.25px" lengthAdjust="spacingAndGlyphs">WADDINGTON-OT</text>
  </g>
  <polyline points="410.29,51.98 456.89,51.98 456.80,51.98 457.15,51.97 457.49,51.90 457.81,51.78 458.11,51.60 458.38,51.38 458.61,51.12 458.80,50.83 458.93,50.51 459.02,50.17 459.05,49.82 459.05,49.82 459.05,40.07 459.05,40.07 459.02,39.72 458.93,39.38 458.80,39.06 458.61,38.77 458.38,38.51 458.11,38.29 457.81,38.12 457.49,37.99 457.15,37.92 456.89,37.91 410.29,37.91 410.55,37.92 410.20,37.91 409.86,37.95 409.52,38.05 409.21,38.20 408.92,38.40 408.67,38.64 408.47,38.91 408.30,39.22 408.19,39.55 408.14,39.89 408.13,40.07 408.13,49.82 408.14,49.65 408.14,50.00 408.19,50.34 408.30,50.67 408.47,50.98 408.67,51.26 408.92,51.50 409.21,51.69 409.52,51.84 409.86,51.94 410.20,51.98 " style="stroke-width: 0.53; stroke: #AF0DC7; fill: #FFFFFF;" clip-path="url(#cpNi45NzM4NXw3MTMuMDI2fDIwOS4yMjd8Ni45NzM4NQ==)"/>
  <g clip-path="url(#cpNi45NzM4NXw3MTMuMDI2fDIwOS4yMjd8Ni45NzM4NQ==)">
    <text x="411.73" y="48.38" style="font-size: 9.96px; fill: #AF0DC7; font-family: Liberation Sans;" textLength="43.72px" lengthAdjust="spacingAndGlyphs">DeLorean</text>
  </g>
  <polyline points="424.03,36.75 454.57,36.75 454.48,36.74 454.83,36.73 455.17,36.66 455.50,36.54 455.80,36.36 456.07,36.14 456.30,35.88 456.48,35.59 456.62,35.27 456.70,34.93 456.73,34.59 456.73,34.59 456.73,24.83 456.73,24.83 456.70,24.48 456.62,24.15 456.48,23.83 456.30,23.53 456.07,23.27 455.80,23.05 455.50,22.88 455.17,22.76 454.83,22.69 454.57,22.67 424.03,22.67 424.29,22.69 423.94,22.67 423.60,22.72 423.26,22.81 422.95,22.96 422.66,23.16 422.41,23.40 422.20,23.68 422.04,23.98 421.93,24.31 421.88,24.66 421.87,24.83 421.87,34.59 421.88,34.41 421.88,34.76 421.93,35.10 422.04,35.43 422.20,35.74 422.41,36.02 422.66,36.26 422.95,36.46 423.26,36.61 423.60,36.70 423.94,36.74 " style="stroke-width: 0.53; stroke: #5ECD2E; fill: #FFFFFF;" clip-path="url(#cpNi45NzM4NXw3MTMuMDI2fDIwOS4yMjd8Ni45NzM4NQ==)"/>
  <g clip-path="url(#cpNi45NzM4NXw3MTMuMDI2fDIwOS4yMjd8Ni45NzM4NQ==)">
    <text x="425.47" y="33.15" style="font-size: 9.96px; fill: #5ECD2E; font-family: Liberation Sans;" textLength="27.66px" lengthAdjust="spacingAndGlyphs">Mpath</text>
  </g>
  <polyline points="540.70,46.27 564.59,46.27 564.51,46.26 564.85,46.25 565.19,46.18 565.52,46.06 565.82,45.88 566.09,45.66 566.32,45.40 566.50,45.11 566.64,44.79 566.72,44.45 566.75,44.11 566.75,44.11 566.75,34.35 566.75,34.35 566.72,34.00 566.64,33.67 566.50,33.35 566.32,33.05 566.09,32.79 565.82,32.57 565.52,32.40 565.19,32.28 564.85,32.21 564.59,32.19 540.70,32.19 540.96,32.21 540.62,32.19 540.27,32.23 539.94,32.33 539.62,32.48 539.34,32.68 539.09,32.92 538.88,33.20 538.72,33.50 538.61,33.83 538.55,34.18 538.54,34.35 538.54,44.11 538.55,43.93 538.55,44.28 538.61,44.62 538.72,44.95 538.88,45.26 539.09,45.54 539.34,45.78 539.62,45.98 539.94,46.12 540.27,46.22 540.62,46.26 " style="stroke-width: 0.53; stroke: #CFBF00; fill: #FFFFFF;" clip-path="url(#cpNi45NzM4NXw3MTMuMDI2fDIwOS4yMjd8Ni45NzM4NQ==)"/>
  <g clip-path="url(#cpNi45NzM4NXw3MTMuMDI2fDIwOS4yMjd8Ni45NzM4NQ==)">
    <text x="542.14" y="42.67" style="font-size: 9.96px; fill: #CFBF00; font-family: Liberation Sans;" textLength="21.01px" lengthAdjust="spacingAndGlyphs">MFA</text>
  </g>
  <polyline points="639.99,205.59 663.89,205.59 663.80,205.59 664.15,205.57 664.49,205.50 664.81,205.38 665.11,205.21 665.38,204.99 665.61,204.73 665.80,204.43 665.94,204.11 666.02,203.77 666.05,203.43 666.05,203.43 666.05,193.67 666.05,193.67 666.02,193.33 665.94,192.99 665.80,192.67 665.61,192.37 665.38,192.11 665.11,191.89 664.81,191.72 664.49,191.60 664.15,191.53 663.89,191.51 639.99,191.51 640.25,191.53 639.90,191.51 639.56,191.56 639.22,191.65 638.91,191.80 638.62,192.00 638.37,192.24 638.16,192.52 638.00,192.83 637.89,193.16 637.83,193.50 637.83,193.67 637.83,203.43 637.83,203.25 637.83,203.60 637.89,203.94 638.00,204.27 638.16,204.58 638.37,204.86 638.62,205.10 638.91,205.30 639.22,205.45 639.56,205.54 639.90,205.59 " style="stroke-width: 0.53; stroke: #FF4237; fill: #FFFFFF;" clip-path="url(#cpNi45NzM4NXw3MTMuMDI2fDIwOS4yMjd8Ni45NzM4NQ==)"/>
  <g clip-path="url(#cpNi45NzM4NXw3MTMuMDI2fDIwOS4yMjd8Ni45NzM4NQ==)">
    <text x="641.43" y="201.99" style="font-size: 9.96px; fill: #FF4237; font-family: Liberation Sans;" textLength="21.02px" lengthAdjust="spacingAndGlyphs">AGA</text>
  </g>
  <polyline points="365.08,162.65 387.87,162.65 387.78,162.65 388.13,162.63 388.47,162.56 388.79,162.44 389.10,162.26 389.36,162.05 389.59,161.78 389.78,161.49 389.92,161.17 390.00,160.83 390.03,160.49 390.03,160.49 390.03,150.73 390.03,150.73 390.00,150.39 389.92,150.05 389.78,149.73 389.59,149.43 389.36,149.17 389.10,148.95 388.79,148.78 388.47,148.66 388.13,148.59 387.87,148.57 365.08,148.57 365.34,148.59 364.99,148.57 364.65,148.62 364.32,148.71 364.00,148.86 363.72,149.06 363.47,149.30 363.26,149.58 363.09,149.89 362.98,150.22 362.93,150.56 362.92,150.73 362.92,160.49 362.93,160.31 362.93,160.66 362.98,161.00 363.09,161.33 363.26,161.64 363.47,161.92 363.72,162.16 364.00,162.36 364.32,162.51 364.65,162.60 364.99,162.65 " style="stroke-width: 0.53; stroke: #0073D7; fill: #FFFFFF;" clip-path="url(#cpNi45NzM4NXw3MTMuMDI2fDIwOS4yMjd8Ni45NzM4NQ==)"/>
  <g clip-path="url(#cpNi45NzM4NXw3MTMuMDI2fDIwOS4yMjd8Ni45NzM4NQ==)">
    <text x="366.52" y="159.05" style="font-size: 9.96px; fill: #0073D7; font-family: Liberation Sans;" textLength="19.91px" lengthAdjust="spacingAndGlyphs">DPT</text>
  </g>
  <polyline points="282.40,139.16 342.27,139.16 342.18,139.16 342.53,139.14 342.87,139.07 343.19,138.95 343.50,138.78 343.76,138.56 344.00,138.30 344.18,138.00 344.32,137.68 344.40,137.34 344.43,137.00 344.43,137.00 344.43,127.24 344.43,127.24 344.40,126.90 344.32,126.56 344.18,126.24 344.00,125.95 343.76,125.69 343.50,125.47 343.19,125.29 342.87,125.17 342.53,125.10 342.27,125.08 282.40,125.08 282.66,125.10 282.31,125.08 281.96,125.13 281.63,125.22 281.32,125.37 281.03,125.57 280.78,125.81 280.57,126.09 280.41,126.40 280.30,126.73 280.24,127.07 280.24,127.24 280.24,137.00 280.24,136.82 280.24,137.17 280.30,137.52 280.41,137.84 280.57,138.15 280.78,138.43 281.03,138.67 281.32,138.87 281.63,139.02 281.96,139.11 282.31,139.16 " style="stroke-width: 0.53; stroke: #AF0DC7; fill: #FFFFFF;" clip-path="url(#cpNi45NzM4NXw3MTMuMDI2fDIwOS4yMjd8Ni45NzM4NQ==)"/>
  <g clip-path="url(#cpNi45NzM4NXw3MTMuMDI2fDIwOS4yMjd8Ni45NzM4NQ==)">
    <text x="283.84" y="135.56" style="font-size: 9.96px; fill: #AF0DC7; font-family: Liberation Sans;" textLength="56.99px" lengthAdjust="spacingAndGlyphs">gpseudotime</text>
  </g>
  <polyline points="556.93,110.50 589.67,110.50 589.58,110.50 589.93,110.48 590.27,110.42 590.59,110.29 590.89,110.12 591.16,109.90 591.39,109.64 591.58,109.34 591.71,109.02 591.80,108.69 591.83,108.34 591.83,108.34 591.83,98.59 591.83,98.59 591.80,98.24 591.71,97.90 591.58,97.58 591.39,97.29 591.16,97.03 590.89,96.81 590.59,96.63 590.27,96.51 589.93,96.44 589.67,96.43 556.93,96.43 557.19,96.44 556.84,96.43 556.49,96.47 556.16,96.57 555.85,96.71 555.56,96.91 555.31,97.15 555.10,97.43 554.94,97.74 554.83,98.07 554.77,98.41 554.77,98.59 554.77,108.34 554.77,108.17 554.77,108.51 554.83,108.86 554.94,109.19 555.10,109.49 555.31,109.77 555.56,110.01 555.85,110.21 556.16,110.36 556.49,110.46 556.84,110.50 " style="stroke-width: 0.53; stroke: #AF0DC7; fill: #FFFFFF;" clip-path="url(#cpNi45NzM4NXw3MTMuMDI2fDIwOS4yMjd8Ni45NzM4NQ==)"/>
  <g clip-path="url(#cpNi45NzM4NXw3MTMuMDI2fDIwOS4yMjd8Ni45NzM4NQ==)">
    <text x="558.37" y="106.90" style="font-size: 9.96px; fill: #AF0DC7; font-family: Liberation Sans;" textLength="29.86px" lengthAdjust="spacingAndGlyphs">scTDA</text>
  </g>
  <polyline points="519.85,24.65 566.99,24.65 566.90,24.65 567.25,24.63 567.59,24.56 567.91,24.44 568.22,24.27 568.49,24.05 568.72,23.79 568.90,23.49 569.04,23.17 569.12,22.84 569.15,22.49 569.15,22.49 569.15,12.73 569.15,12.73 569.12,12.39 569.04,12.05 568.90,11.73 568.72,11.44 568.49,11.18 568.22,10.96 567.91,10.78 567.59,10.66 567.25,10.59 566.99,10.57 519.85,10.57 520.11,10.59 519.77,10.58 519.42,10.62 519.09,10.71 518.77,10.86 518.49,11.06 518.24,11.30 518.03,11.58 517.87,11.89 517.76,12.22 517.70,12.56 517.69,12.73 517.69,22.49 517.70,22.32 517.70,22.66 517.76,23.01 517.87,23.34 518.03,23.64 518.24,23.92 518.49,24.16 518.77,24.36 519.09,24.51 519.42,24.61 519.77,24.65 " style="stroke-width: 0.53; stroke: #5ECD2E; fill: #FFFFFF;" clip-path="url(#cpNi45NzM4NXw3MTMuMDI2fDIwOS4yMjd8Ni45NzM4NQ==)"/>
  <g clip-path="url(#cpNi45NzM4NXw3MTMuMDI2fDIwOS4yMjd8Ni45NzM4NQ==)">
    <text x="521.29" y="21.05" style="font-size: 9.96px; fill: #5ECD2E; font-family: Liberation Sans;" textLength="44.25px" lengthAdjust="spacingAndGlyphs">Granatum</text>
  </g>
  <polyline points="601.44,67.54 624.23,67.54 624.15,67.54 624.49,67.53 624.84,67.46 625.16,67.33 625.46,67.16 625.73,66.94 625.96,66.68 626.15,66.39 626.28,66.07 626.37,65.73 626.39,65.38 626.39,65.38 626.39,55.63 626.39,55.63 626.37,55.28 626.28,54.94 626.15,54.62 625.96,54.33 625.73,54.07 625.46,53.85 625.16,53.68 624.84,53.55 624.49,53.48 624.23,53.47 601.44,53.47 601.70,53.48 601.35,53.47 601.01,53.51 600.67,53.61 600.36,53.76 600.07,53.95 599.82,54.20 599.61,54.47 599.45,54.78 599.34,55.11 599.29,55.45 599.28,55.63 599.28,65.38 599.29,65.21 599.29,65.56 599.34,65.90 599.45,66.23 599.61,66.54 599.82,66.82 600.07,67.06 600.36,67.25 600.67,67.40 601.01,67.50 601.35,67.54 " style="stroke-width: 0.53; stroke: #CFBF00; fill: #FFFFFF;" clip-path="url(#cpNi45NzM4NXw3MTMuMDI2fDIwOS4yMjd8Ni45NzM4NQ==)"/>
  <g clip-path="url(#cpNi45NzM4NXw3MTMuMDI2fDIwOS4yMjd8Ni45NzM4NQ==)">
    <text x="602.88" y="63.94" style="font-size: 9.96px; fill: #CFBF00; font-family: Liberation Sans;" textLength="19.92px" lengthAdjust="spacingAndGlyphs">PBA</text>
  </g>
  <polyline points="601.77,106.14 625.66,106.14 625.58,106.14 625.92,106.13 626.27,106.06 626.59,105.93 626.89,105.76 627.16,105.54 627.39,105.28 627.58,104.99 627.71,104.67 627.80,104.33 627.82,103.98 627.82,103.98 627.82,94.23 627.82,94.23 627.80,93.88 627.71,93.54 627.58,93.22 627.39,92.93 627.16,92.67 626.89,92.45 626.59,92.28 626.27,92.15 625.92,92.08 625.66,92.07 601.77,92.07 602.03,92.08 601.68,92.07 601.33,92.11 601.00,92.21 600.69,92.36 600.40,92.55 600.15,92.80 599.94,93.07 599.78,93.38 599.67,93.71 599.61,94.05 599.61,94.23 599.61,103.98 599.61,103.81 599.61,104.16 599.67,104.50 599.78,104.83 599.94,105.14 600.15,105.41 600.40,105.66 600.69,105.85 601.00,106.00 601.33,106.10 601.68,106.14 " style="stroke-width: 0.53; stroke: #0073D7; fill: #FFFFFF;" clip-path="url(#cpNi45NzM4NXw3MTMuMDI2fDIwOS4yMjd8Ni45NzM4NQ==)"/>
  <g clip-path="url(#cpNi45NzM4NXw3MTMuMDI2fDIwOS4yMjd8Ni45NzM4NQ==)">
    <text x="603.21" y="102.54" style="font-size: 9.96px; fill: #0073D7; font-family: Liberation Sans;" textLength="21.02px" lengthAdjust="spacingAndGlyphs">BGP</text>
  </g>
  <polyline points="545.34,67.73 577.53,67.73 577.44,67.73 577.79,67.72 578.13,67.65 578.46,67.52 578.76,67.35 579.03,67.13 579.26,66.87 579.44,66.58 579.58,66.26 579.66,65.92 579.69,65.57 579.69,65.57 579.69,55.82 579.69,55.82 579.66,55.47 579.58,55.13 579.44,54.81 579.26,54.52 579.03,54.26 578.76,54.04 578.46,53.87 578.13,53.74 577.79,53.67 577.53,53.66 545.34,53.66 545.60,53.67 545.25,53.66 544.91,53.70 544.57,53.80 544.26,53.95 543.97,54.14 543.72,54.39 543.51,54.66 543.35,54.97 543.24,55.30 543.19,55.64 543.18,55.82 543.18,65.57 543.19,65.40 543.19,65.75 543.24,66.09 543.35,66.42 543.51,66.73 543.72,67.01 543.97,67.25 544.26,67.44 544.57,67.59 544.91,67.69 545.25,67.73 " style="stroke-width: 0.53; stroke: #5ECD2E; fill: #FFFFFF;" clip-path="url(#cpNi45NzM4NXw3MTMuMDI2fDIwOS4yMjd8Ni45NzM4NQ==)"/>
  <g clip-path="url(#cpNi45NzM4NXw3MTMuMDI2fDIwOS4yMjd8Ni45NzM4NQ==)">
    <text x="546.78" y="64.13" style="font-size: 9.96px; fill: #5ECD2E; font-family: Liberation Sans;" textLength="29.31px" lengthAdjust="spacingAndGlyphs">TASIC</text>
  </g>
  <polyline points="527.96,88.40 566.79,88.40 566.71,88.39 567.06,88.38 567.40,88.31 567.72,88.19 568.02,88.01 568.29,87.79 568.52,87.53 568.71,87.24 568.84,86.92 568.93,86.58 568.95,86.24 568.95,86.24 568.95,76.48 568.95,76.48 568.93,76.13 568.84,75.80 568.71,75.48 568.52,75.18 568.29,74.92 568.02,74.70 567.72,74.53 567.40,74.41 567.06,74.34 566.79,74.32 527.96,74.32 528.22,74.34 527.87,74.32 527.52,74.36 527.19,74.46 526.88,74.61 526.59,74.81 526.34,75.05 526.13,75.33 525.97,75.63 525.86,75.96 525.80,76.31 525.80,76.48 525.80,86.24 525.80,86.06 525.80,86.41 525.86,86.75 525.97,87.08 526.13,87.39 526.34,87.67 526.59,87.91 526.88,88.11 527.19,88.26 527.52,88.35 527.87,88.39 " style="stroke-width: 0.53; stroke: #CFBF00; fill: #FFFFFF;" clip-path="url(#cpNi45NzM4NXw3MTMuMDI2fDIwOS4yMjd8Ni45NzM4NQ==)"/>
  <g clip-path="url(#cpNi45NzM4NXw3MTMuMDI2fDIwOS4yMjd8Ni45NzM4NQ==)">
    <text x="529.40" y="84.80" style="font-size: 9.96px; fill: #CFBF00; font-family: Liberation Sans;" textLength="35.96px" lengthAdjust="spacingAndGlyphs">GPfates</text>
  </g>
  <polyline points="410.50,67.27 448.77,67.27 448.68,67.27 449.03,67.25 449.37,67.18 449.70,67.06 450.00,66.89 450.27,66.67 450.50,66.41 450.68,66.11 450.82,65.79 450.90,65.45 450.93,65.11 450.93,65.11 450.93,55.35 450.93,55.35 450.90,55.01 450.82,54.67 450.68,54.35 450.50,54.06 450.27,53.80 450.00,53.58 449.70,53.40 449.37,53.28 449.03,53.21 448.77,53.19 410.50,53.19 410.76,53.21 410.41,53.19 410.06,53.24 409.73,53.33 409.42,53.48 409.13,53.68 408.88,53.92 408.67,54.20 408.51,54.51 408.40,54.84 408.34,55.18 408.34,55.35 408.34,65.11 408.34,64.93 408.34,65.28 408.40,65.62 408.51,65.95 408.67,66.26 408.88,66.54 409.13,66.78 409.42,66.98 409.73,67.13 410.06,67.22 410.41,67.27 " style="stroke-width: 0.53; stroke: #CFBF00; fill: #FFFFFF;" clip-path="url(#cpNi45NzM4NXw3MTMuMDI2fDIwOS4yMjd8Ni45NzM4NQ==)"/>
  <g clip-path="url(#cpNi45NzM4NXw3MTMuMDI2fDIwOS4yMjd8Ni45NzM4NQ==)">
    <text x="411.94" y="63.67" style="font-size: 9.96px; fill: #CFBF00; font-family: Liberation Sans;" textLength="35.39px" lengthAdjust="spacingAndGlyphs">SCOUP</text>
  </g>
  <polyline points="389.81,24.65 436.95,24.65 436.86,24.65 437.21,24.63 437.55,24.56 437.87,24.44 438.18,24.27 438.44,24.05 438.68,23.79 438.86,23.49 439.00,23.17 439.08,22.84 439.11,22.49 439.11,22.49 439.11,12.73 439.11,12.73 439.08,12.39 439.00,12.05 438.86,11.73 438.68,11.44 438.44,11.18 438.18,10.96 437.87,10.78 437.55,10.66 437.21,10.59 436.95,10.57 389.81,10.57 390.07,10.59 389.72,10.58 389.38,10.62 389.04,10.71 388.73,10.86 388.44,11.06 388.19,11.30 387.98,11.58 387.82,11.89 387.71,12.22 387.66,12.56 387.65,12.73 387.65,22.49 387.66,22.32 387.66,22.66 387.71,23.01 387.82,23.34 387.98,23.64 388.19,23.92 388.44,24.16 388.73,24.36 389.04,24.51 389.38,24.61 389.72,24.65 " style="stroke-width: 0.53; stroke: #0073D7; fill: #FFFFFF;" clip-path="url(#cpNi45NzM4NXw3MTMuMDI2fDIwOS4yMjd8Ni45NzM4NQ==)"/>
  <g clip-path="url(#cpNi45NzM4NXw3MTMuMDI2fDIwOS4yMjd8Ni45NzM4NQ==)">
    <text x="391.25" y="21.05" style="font-size: 9.96px; fill: #0073D7; font-family: Liberation Sans;" textLength="44.26px" lengthAdjust="spacingAndGlyphs">Wishbone</text>
  </g>
  <polyline points="399.91,86.45 436.52,86.45 436.43,86.45 436.78,86.43 437.12,86.36 437.44,86.24 437.75,86.07 438.01,85.85 438.24,85.59 438.43,85.29 438.57,84.97 438.65,84.64 438.68,84.29 438.68,84.29 438.68,74.53 438.68,74.53 438.65,74.19 438.57,73.85 438.43,73.53 438.24,73.24 438.01,72.98 437.75,72.76 437.44,72.58 437.12,72.46 436.78,72.39 436.52,72.37 399.91,72.37 400.17,72.39 399.82,72.38 399.47,72.42 399.14,72.51 398.83,72.66 398.54,72.86 398.29,73.10 398.08,73.38 397.92,73.69 397.81,74.02 397.75,74.36 397.75,74.53 397.75,84.29 397.75,84.12 397.75,84.46 397.81,84.81 397.92,85.14 398.08,85.44 398.29,85.72 398.54,85.96 398.83,86.16 399.14,86.31 399.47,86.41 399.82,86.45 " style="stroke-width: 0.53; stroke: #5ECD2E; fill: #FFFFFF;" clip-path="url(#cpNi45NzM4NXw3MTMuMDI2fDIwOS4yMjd8Ni45NzM4NQ==)"/>
  <g clip-path="url(#cpNi45NzM4NXw3MTMuMDI2fDIwOS4yMjd8Ni45NzM4NQ==)">
    <text x="401.35" y="82.85" style="font-size: 9.96px; fill: #5ECD2E; font-family: Liberation Sans;" textLength="33.73px" lengthAdjust="spacingAndGlyphs">TSCAN</text>
  </g>
  <polyline points="378.21,105.26 424.82,105.26 424.73,105.26 425.08,105.25 425.42,105.18 425.75,105.05 426.05,104.88 426.32,104.66 426.55,104.40 426.73,104.11 426.87,103.79 426.95,103.45 426.98,103.10 426.98,103.10 426.98,93.35 426.98,93.35 426.95,93.00 426.87,92.66 426.73,92.34 426.55,92.05 426.32,91.79 426.05,91.57 425.75,91.40 425.42,91.27 425.08,91.20 424.82,91.19 378.21,91.19 378.47,91.20 378.13,91.19 377.78,91.23 377.45,91.33 377.13,91.48 376.85,91.68 376.60,91.92 376.39,92.19 376.23,92.50 376.12,92.83 376.06,93.17 376.05,93.35 376.05,103.10 376.06,102.93 376.06,103.28 376.12,103.62 376.23,103.95 376.39,104.26 376.60,104.54 376.85,104.78 377.13,104.97 377.45,105.12 377.78,105.22 378.13,105.26 " style="stroke-width: 0.53; stroke: #AF0DC7; fill: #FFFFFF;" clip-path="url(#cpNi45NzM4NXw3MTMuMDI2fDIwOS4yMjd8Ni45NzM4NQ==)"/>
  <g clip-path="url(#cpNi45NzM4NXw3MTMuMDI2fDIwOS4yMjd8Ni45NzM4NQ==)">
    <text x="379.65" y="101.66" style="font-size: 9.96px; fill: #AF0DC7; font-family: Liberation Sans;" textLength="43.72px" lengthAdjust="spacingAndGlyphs">pseudogp</text>
  </g>
  <polyline points="455.36,77.70 510.23,77.70 510.14,77.70 510.49,77.68 510.83,77.62 511.15,77.49 511.45,77.32 511.72,77.10 511.95,76.84 512.14,76.54 512.28,76.22 512.36,75.89 512.39,75.54 512.39,75.54 512.39,65.79 512.39,65.79 512.36,65.44 512.28,65.10 512.14,64.78 511.95,64.49 511.72,64.23 511.45,64.01 511.15,63.83 510.83,63.71 510.49,63.64 510.23,63.63 455.36,63.63 455.62,63.64 455.27,63.63 454.93,63.67 454.59,63.77 454.28,63.91 453.99,64.11 453.74,64.35 453.53,64.63 453.37,64.94 453.26,65.27 453.21,65.61 453.20,65.79 453.20,75.54 453.21,75.37 453.21,75.71 453.26,76.06 453.37,76.39 453.53,76.70 453.74,76.97 453.99,77.21 454.28,77.41 454.59,77.56 454.93,77.66 455.27,77.70 " style="stroke-width: 0.53; stroke: #AF0DC7; fill: #FFFFFF;" clip-path="url(#cpNi45NzM4NXw3MTMuMDI2fDIwOS4yMjd8Ni45NzM4NQ==)"/>
  <g clip-path="url(#cpNi45NzM4NXw3MTMuMDI2fDIwOS4yMjd8Ni45NzM4NQ==)">
    <text x="456.80" y="74.10" style="font-size: 9.96px; fill: #AF0DC7; font-family: Liberation Sans;" textLength="51.99px" lengthAdjust="spacingAndGlyphs">SCORPIUS</text>
  </g>
  <polyline points="292.57,161.10 334.73,161.10 334.64,161.10 334.99,161.09 335.33,161.02 335.66,160.90 335.96,160.72 336.23,160.50 336.46,160.24 336.64,159.95 336.78,159.63 336.86,159.29 336.89,158.94 336.89,158.94 336.89,149.19 336.89,149.19 336.86,148.84 336.78,148.51 336.64,148.19 336.46,147.89 336.23,147.63 335.96,147.41 335.66,147.24 335.33,147.11 334.99,147.05 334.73,147.03 292.57,147.03 292.83,147.05 292.48,147.03 292.14,147.07 291.80,147.17 291.49,147.32 291.20,147.52 290.95,147.76 290.74,148.04 290.58,148.34 290.47,148.67 290.42,149.02 290.41,149.19 290.41,158.94 290.42,158.77 290.42,159.12 290.47,159.46 290.58,159.79 290.74,160.10 290.95,160.38 291.20,160.62 291.49,160.82 291.80,160.96 292.14,161.06 292.48,161.10 " style="stroke-width: 0.53; stroke: #AF0DC7; fill: #FFFFFF;" clip-path="url(#cpNi45NzM4NXw3MTMuMDI2fDIwOS4yMjd8Ni45NzM4NQ==)"/>
  <g clip-path="url(#cpNi45NzM4NXw3MTMuMDI2fDIwOS4yMjd8Ni45NzM4NQ==)">
    <text x="294.01" y="157.50" style="font-size: 9.96px; fill: #AF0DC7; font-family: Liberation Sans;" textLength="39.28px" lengthAdjust="spacingAndGlyphs">embeddr</text>
  </g>
  <polyline points="499.04,204.83 530.69,204.83 530.60,204.83 530.95,204.81 531.29,204.74 531.61,204.62 531.91,204.45 532.18,204.23 532.41,203.97 532.60,203.67 532.74,203.35 532.82,203.01 532.85,202.67 532.85,202.67 532.85,192.91 532.85,192.91 532.82,192.57 532.74,192.23 532.60,191.91 532.41,191.61 532.18,191.35 531.91,191.13 531.61,190.96 531.29,190.84 530.95,190.77 530.69,190.75 499.04,190.75 499.30,190.77 498.96,190.75 498.61,190.80 498.28,190.89 497.96,191.04 497.68,191.24 497.43,191.48 497.22,191.76 497.05,192.07 496.94,192.40 496.89,192.74 496.88,192.91 496.88,202.67 496.89,202.49 496.89,202.84 496.94,203.18 497.05,203.51 497.22,203.82 497.43,204.10 497.68,204.34 497.96,204.54 498.28,204.69 498.61,204.78 498.96,204.83 " style="stroke-width: 0.53; stroke: #5ECD2E; fill: #FFFFFF;" clip-path="url(#cpNi45NzM4NXw3MTMuMDI2fDIwOS4yMjd8Ni45NzM4NQ==)"/>
  <g clip-path="url(#cpNi45NzM4NXw3MTMuMDI2fDIwOS4yMjd8Ni45NzM4NQ==)">
    <text x="500.48" y="201.23" style="font-size: 9.96px; fill: #5ECD2E; font-family: Liberation Sans;" textLength="28.77px" lengthAdjust="spacingAndGlyphs">SLICE</text>
  </g>
  <polyline points="487.05,118.66 539.17,118.66 539.08,118.66 539.43,118.64 539.77,118.57 540.09,118.45 540.39,118.28 540.66,118.06 540.89,117.80 541.08,117.50 541.21,117.18 541.30,116.84 541.33,116.50 541.33,116.50 541.33,106.74 541.33,106.74 541.30,106.40 541.21,106.06 541.08,105.74 540.89,105.45 540.66,105.19 540.39,104.97 540.09,104.79 539.77,104.67 539.43,104.60 539.17,104.58 487.05,104.58 487.31,104.60 486.96,104.58 486.62,104.63 486.28,104.72 485.97,104.87 485.68,105.07 485.43,105.31 485.22,105.59 485.06,105.90 484.95,106.23 484.90,106.57 484.89,106.74 484.89,116.50 484.90,116.32 484.90,116.67 484.95,117.01 485.06,117.34 485.22,117.65 485.43,117.93 485.68,118.17 485.97,118.37 486.28,118.52 486.62,118.61 486.96,118.66 " style="stroke-width: 0.53; stroke: #5ECD2E; fill: #FFFFFF;" clip-path="url(#cpNi45NzM4NXw3MTMuMDI2fDIwOS4yMjd8Ni45NzM4NQ==)"/>
  <g clip-path="url(#cpNi45NzM4NXw3MTMuMDI2fDIwOS4yMjd8Ni45NzM4NQ==)">
    <text x="488.49" y="115.06" style="font-size: 9.96px; fill: #5ECD2E; font-family: Liberation Sans;" textLength="49.24px" lengthAdjust="spacingAndGlyphs">k-branches</text>
  </g>
  <polyline points="583.29,136.76 626.57,136.76 626.48,136.76 626.83,136.74 627.17,136.67 627.49,136.55 627.80,136.38 628.06,136.16 628.30,135.90 628.48,135.60 628.62,135.28 628.70,134.95 628.73,134.60 628.73,134.60 628.73,124.84 628.73,124.84 628.70,124.50 628.62,124.16 628.48,123.84 628.30,123.55 628.06,123.29 627.80,123.07 627.49,122.89 627.17,122.77 626.83,122.70 626.57,122.68 583.29,122.68 583.55,122.70 583.20,122.69 582.86,122.73 582.52,122.83 582.21,122.97 581.92,123.17 581.67,123.41 581.46,123.69 581.30,124.00 581.19,124.33 581.13,124.67 581.13,124.84 581.13,134.60 581.13,134.43 581.13,134.77 581.19,135.12 581.30,135.45 581.46,135.75 581.67,136.03 581.92,136.27 582.21,136.47 582.52,136.62 582.86,136.72 583.20,136.76 " style="stroke-width: 0.53; stroke: #AF0DC7; fill: #FFFFFF;" clip-path="url(#cpNi45NzM4NXw3MTMuMDI2fDIwOS4yMjd8Ni45NzM4NQ==)"/>
  <g clip-path="url(#cpNi45NzM4NXw3MTMuMDI2fDIwOS4yMjd8Ni45NzM4NQ==)">
    <text x="584.73" y="133.16" style="font-size: 9.96px; fill: #AF0DC7; font-family: Liberation Sans;" textLength="40.40px" lengthAdjust="spacingAndGlyphs">HopLand</text>
  </g>
  <polyline points="456.26,98.56 506.69,98.56 506.61,98.56 506.95,98.54 507.29,98.47 507.62,98.35 507.92,98.18 508.19,97.96 508.42,97.70 508.61,97.40 508.74,97.08 508.82,96.74 508.85,96.40 508.85,96.40 508.85,86.64 508.85,86.64 508.82,86.30 508.74,85.96 508.61,85.64 508.42,85.35 508.19,85.09 507.92,84.87 507.62,84.69 507.29,84.57 506.95,84.50 506.69,84.48 456.26,84.48 456.52,84.50 456.17,84.49 455.83,84.53 455.49,84.62 455.18,84.77 454.89,84.97 454.64,85.21 454.43,85.49 454.27,85.80 454.16,86.13 454.11,86.47 454.10,86.64 454.10,96.40 454.11,96.22 454.11,96.57 454.16,96.92 454.27,97.24 454.43,97.55 454.64,97.83 454.89,98.07 455.18,98.27 455.49,98.42 455.83,98.51 456.17,98.56 " style="stroke-width: 0.53; stroke: #AF0DC7; fill: #FFFFFF;" clip-path="url(#cpNi45NzM4NXw3MTMuMDI2fDIwOS4yMjd8Ni45NzM4NQ==)"/>
  <g clip-path="url(#cpNi45NzM4NXw3MTMuMDI2fDIwOS4yMjd8Ni45NzM4NQ==)">
    <text x="457.70" y="94.96" style="font-size: 9.96px; fill: #AF0DC7; font-family: Liberation Sans;" textLength="47.55px" lengthAdjust="spacingAndGlyphs">SCIMITAR</text>
  </g>
  <polyline points="345.20,205.10 384.03,205.10 383.94,205.09 384.29,205.08 384.63,205.01 384.96,204.89 385.26,204.71 385.53,204.49 385.76,204.23 385.94,203.94 386.08,203.62 386.16,203.28 386.19,202.94 386.19,202.94 386.19,193.18 386.19,193.18 386.16,192.83 386.08,192.50 385.94,192.18 385.76,191.88 385.53,191.62 385.26,191.40 384.96,191.23 384.63,191.11 384.29,191.04 384.03,191.02 345.20,191.02 345.46,191.04 345.11,191.02 344.76,191.06 344.43,191.16 344.12,191.31 343.83,191.51 343.58,191.75 343.37,192.03 343.21,192.33 343.10,192.66 343.04,193.01 343.04,193.18 343.04,202.94 343.04,202.76 343.04,203.11 343.10,203.45 343.21,203.78 343.37,204.09 343.58,204.37 343.83,204.61 344.12,204.81 344.43,204.96 344.76,205.05 345.11,205.09 " style="stroke-width: 0.53; stroke: #5ECD2E; fill: #FFFFFF;" clip-path="url(#cpNi45NzM4NXw3MTMuMDI2fDIwOS4yMjd8Ni45NzM4NQ==)"/>
  <g clip-path="url(#cpNi45NzM4NXw3MTMuMDI2fDIwOS4yMjd8Ni45NzM4NQ==)">
    <text x="346.64" y="201.50" style="font-size: 9.96px; fill: #5ECD2E; font-family: Liberation Sans;" textLength="35.95px" lengthAdjust="spacingAndGlyphs">ECLAIR</text>
  </g>
  <polyline points="179.96,183.46 217.13,183.46 217.04,183.46 217.39,183.45 217.73,183.38 218.06,183.26 218.36,183.08 218.63,182.86 218.86,182.60 219.04,182.31 219.18,181.99 219.26,181.65 219.29,181.30 219.29,181.30 219.29,171.55 219.29,171.55 219.26,171.20 219.18,170.86 219.04,170.55 218.86,170.25 218.63,169.99 218.36,169.77 218.06,169.60 217.73,169.47 217.39,169.40 217.13,169.39 179.96,169.39 180.22,169.40 179.87,169.39 179.53,169.43 179.19,169.53 178.88,169.68 178.59,169.88 178.34,170.12 178.13,170.39 177.97,170.70 177.86,171.03 177.81,171.38 177.80,171.55 177.80,181.30 177.81,181.13 177.81,181.48 177.86,181.82 177.97,182.15 178.13,182.46 178.34,182.74 178.59,182.98 178.88,183.17 179.19,183.32 179.53,183.42 179.87,183.46 " style="stroke-width: 0.53; stroke: #5ECD2E; fill: #FFFFFF;" clip-path="url(#cpNi45NzM4NXw3MTMuMDI2fDIwOS4yMjd8Ni45NzM4NQ==)"/>
  <g clip-path="url(#cpNi45NzM4NXw3MTMuMDI2fDIwOS4yMjd8Ni45NzM4NQ==)">
    <text x="181.40" y="179.86" style="font-size: 9.96px; fill: #5ECD2E; font-family: Liberation Sans;" textLength="34.29px" lengthAdjust="spacingAndGlyphs">SCUBA</text>
  </g>
  <polyline points="652.16,99.22 681.59,99.22 681.50,99.22 681.85,99.20 682.19,99.13 682.52,99.01 682.82,98.84 683.09,98.62 683.32,98.36 683.50,98.06 683.64,97.74 683.72,97.41 683.75,97.06 683.75,97.06 683.75,87.30 683.75,87.30 683.72,86.96 683.64,86.62 683.50,86.30 683.32,86.01 683.09,85.75 682.82,85.53 682.52,85.35 682.19,85.23 681.85,85.16 681.59,85.14 652.16,85.14 652.42,85.16 652.07,85.15 651.73,85.19 651.39,85.29 651.08,85.43 650.79,85.63 650.54,85.87 650.33,86.15 650.17,86.46 650.06,86.79 650.01,87.13 650.00,87.30 650.00,97.06 650.01,96.89 650.01,97.23 650.06,97.58 650.17,97.91 650.33,98.21 650.54,98.49 650.79,98.73 651.08,98.93 651.39,99.08 651.73,99.18 652.07,99.22 " style="stroke-width: 0.53; stroke: #AF0DC7; fill: #FFFFFF;" clip-path="url(#cpNi45NzM4NXw3MTMuMDI2fDIwOS4yMjd8Ni45NzM4NQ==)"/>
  <g clip-path="url(#cpNi45NzM4NXw3MTMuMDI2fDIwOS4yMjd8Ni45NzM4NQ==)">
    <text x="653.60" y="95.62" style="font-size: 9.96px; fill: #AF0DC7; font-family: Liberation Sans;" textLength="26.55px" lengthAdjust="spacingAndGlyphs">iCpSc</text>
  </g>
  <polyline points="564.30,203.62 608.65,203.62 608.57,203.61 608.91,203.60 609.25,203.53 609.58,203.41 609.88,203.23 610.15,203.01 610.38,202.75 610.57,202.46 610.70,202.14 610.79,201.80 610.81,201.46 610.81,201.46 610.81,191.70 610.81,191.70 610.79,191.35 610.70,191.02 610.57,190.70 610.38,190.40 610.15,190.14 609.88,189.92 609.58,189.75 609.25,189.63 608.91,189.56 608.65,189.54 564.30,189.54 564.56,189.56 564.21,189.54 563.87,189.58 563.53,189.68 563.22,189.83 562.93,190.03 562.68,190.27 562.47,190.55 562.31,190.85 562.20,191.18 562.15,191.53 562.14,191.70 562.14,201.46 562.15,201.28 562.15,201.63 562.20,201.97 562.31,202.30 562.47,202.61 562.68,202.89 562.93,203.13 563.22,203.33 563.53,203.48 563.87,203.57 564.21,203.61 " style="stroke-width: 0.53; stroke: #AF0DC7; fill: #FFFFFF;" clip-path="url(#cpNi45NzM4NXw3MTMuMDI2fDIwOS4yMjd8Ni45NzM4NQ==)"/>
  <g clip-path="url(#cpNi45NzM4NXw3MTMuMDI2fDIwOS4yMjd8Ni45NzM4NQ==)">
    <text x="565.74" y="200.02" style="font-size: 9.96px; fill: #AF0DC7; font-family: Liberation Sans;" textLength="41.47px" lengthAdjust="spacingAndGlyphs">UNCURL</text>
  </g>
  <polyline points="285.99,182.96 328.13,182.96 328.05,182.96 328.39,182.94 328.74,182.87 329.06,182.75 329.36,182.58 329.63,182.36 329.86,182.10 330.05,181.80 330.18,181.48 330.27,181.14 330.29,180.80 330.29,180.80 330.29,171.04 330.29,171.04 330.27,170.70 330.18,170.36 330.05,170.04 329.86,169.75 329.63,169.49 329.36,169.27 329.06,169.09 328.74,168.97 328.39,168.90 328.13,168.88 285.99,168.88 286.25,168.90 285.90,168.88 285.55,168.93 285.22,169.02 284.91,169.17 284.62,169.37 284.37,169.61 284.16,169.89 284.00,170.20 283.89,170.53 283.83,170.87 283.83,171.04 283.83,180.80 283.83,180.62 283.83,180.97 283.89,181.32 284.00,181.64 284.16,181.95 284.37,182.23 284.62,182.47 284.91,182.67 285.22,182.82 285.55,182.91 285.90,182.96 " style="stroke-width: 0.53; stroke: #AF0DC7; fill: #FFFFFF;" clip-path="url(#cpNi45NzM4NXw3MTMuMDI2fDIwOS4yMjd8Ni45NzM4NQ==)"/>
  <g clip-path="url(#cpNi45NzM4NXw3MTMuMDI2fDIwOS4yMjd8Ni45NzM4NQ==)">
    <text x="287.43" y="179.36" style="font-size: 9.96px; fill: #AF0DC7; font-family: Liberation Sans;" textLength="39.27px" lengthAdjust="spacingAndGlyphs">Waterfall</text>
  </g>
  <polyline points="570.97,155.11 623.07,155.11 622.98,155.11 623.33,155.10 623.67,155.03 623.99,154.90 624.29,154.73 624.56,154.51 624.79,154.25 624.98,153.96 625.11,153.64 625.20,153.30 625.23,152.95 625.23,152.95 625.23,143.20 625.23,143.20 625.20,142.85 625.11,142.51 624.98,142.19 624.79,141.90 624.56,141.64 624.29,141.42 623.99,141.25 623.67,141.12 623.33,141.05 623.07,141.04 570.97,141.04 571.23,141.05 570.89,141.04 570.54,141.08 570.21,141.18 569.89,141.33 569.61,141.52 569.36,141.77 569.15,142.04 568.99,142.35 568.88,142.68 568.82,143.02 568.81,143.20 568.81,152.95 568.82,152.78 568.82,153.13 568.88,153.47 568.99,153.80 569.15,154.11 569.36,154.38 569.61,154.63 569.89,154.82 570.21,154.97 570.54,155.07 570.89,155.11 " style="stroke-width: 0.53; stroke: #AF0DC7; fill: #FFFFFF;" clip-path="url(#cpNi45NzM4NXw3MTMuMDI2fDIwOS4yMjd8Ni45NzM4NQ==)"/>
  <g clip-path="url(#cpNi45NzM4NXw3MTMuMDI2fDIwOS4yMjd8Ni45NzM4NQ==)">
    <text x="572.41" y="151.51" style="font-size: 9.96px; fill: #AF0DC7; font-family: Liberation Sans;" textLength="49.21px" lengthAdjust="spacingAndGlyphs">MATCHER</text>
  </g>
  <polyline points="518.58,139.65 567.38,139.65 567.30,139.64 567.64,139.63 567.98,139.56 568.31,139.44 568.61,139.26 568.88,139.04 569.11,138.78 569.30,138.49 569.43,138.17 569.52,137.83 569.54,137.49 569.54,137.49 569.54,127.73 569.54,127.73 569.52,127.38 569.43,127.05 569.30,126.73 569.11,126.43 568.88,126.17 568.61,125.95 568.31,125.78 567.98,125.66 567.64,125.59 567.38,125.57 518.58,125.57 518.84,125.59 518.49,125.57 518.15,125.61 517.82,125.71 517.50,125.86 517.22,126.06 516.96,126.30 516.76,126.58 516.59,126.88 516.48,127.21 516.43,127.56 516.42,127.73 516.42,137.49 516.43,137.31 516.43,137.66 516.48,138.00 516.59,138.33 516.76,138.64 516.96,138.92 517.22,139.16 517.50,139.36 517.82,139.50 518.15,139.60 518.49,139.64 " style="stroke-width: 0.53; stroke: #5ECD2E; fill: #FFFFFF;" clip-path="url(#cpNi45NzM4NXw3MTMuMDI2fDIwOS4yMjd8Ni45NzM4NQ==)"/>
  <g clip-path="url(#cpNi45NzM4NXw3MTMuMDI2fDIwOS4yMjd8Ni45NzM4NQ==)">
    <text x="520.02" y="136.05" style="font-size: 9.96px; fill: #5ECD2E; font-family: Liberation Sans;" textLength="45.92px" lengthAdjust="spacingAndGlyphs">Monocle 2</text>
  </g>
  <polyline points="417.31,120.36 453.38,120.36 453.29,120.36 453.64,120.34 453.98,120.27 454.30,120.15 454.60,119.98 454.87,119.76 455.10,119.50 455.29,119.20 455.43,118.88 455.51,118.54 455.54,118.20 455.54,118.20 455.54,108.44 455.54,108.44 455.51,108.10 455.43,107.76 455.29,107.44 455.10,107.15 454.87,106.89 454.60,106.67 454.30,106.49 453.98,106.37 453.64,106.30 453.38,106.28 417.31,106.28 417.57,106.30 417.23,106.29 416.88,106.33 416.55,106.42 416.23,106.57 415.95,106.77 415.70,107.01 415.49,107.29 415.33,107.60 415.22,107.93 415.16,108.27 415.15,108.44 415.15,118.20 415.16,118.02 415.16,118.37 415.22,118.72 415.33,119.05 415.49,119.35 415.70,119.63 415.95,119.87 416.23,120.07 416.55,120.22 416.88,120.31 417.23,120.36 " style="stroke-width: 0.53; stroke: #5ECD2E; fill: #FFFFFF;" clip-path="url(#cpNi45NzM4NXw3MTMuMDI2fDIwOS4yMjd8Ni45NzM4NQ==)"/>
  <g clip-path="url(#cpNi45NzM4NXw3MTMuMDI2fDIwOS4yMjd8Ni45NzM4NQ==)">
    <text x="418.75" y="116.76" style="font-size: 9.96px; fill: #5ECD2E; font-family: Liberation Sans;" textLength="33.18px" lengthAdjust="spacingAndGlyphs">StemID</text>
  </g>
  <polyline points="439.49,141.04 477.77,141.04 477.68,141.04 478.03,141.03 478.37,140.96 478.70,140.83 479.00,140.66 479.27,140.44 479.50,140.18 479.68,139.88 479.82,139.57 479.90,139.23 479.93,138.88 479.93,138.88 479.93,129.13 479.93,129.13 479.90,128.78 479.82,128.44 479.68,128.12 479.50,127.83 479.27,127.57 479.00,127.35 478.70,127.17 478.37,127.05 478.03,126.98 477.77,126.97 439.49,126.97 439.75,126.98 439.40,126.97 439.06,127.01 438.72,127.11 438.41,127.26 438.12,127.45 437.87,127.69 437.66,127.97 437.50,128.28 437.39,128.61 437.34,128.95 437.33,129.13 437.33,138.88 437.34,138.71 437.34,139.05 437.39,139.40 437.50,139.73 437.66,140.04 437.87,140.31 438.12,140.55 438.41,140.75 438.72,140.90 439.06,141.00 439.40,141.04 " style="stroke-width: 0.53; stroke: #5ECD2E; fill: #FFFFFF;" clip-path="url(#cpNi45NzM4NXw3MTMuMDI2fDIwOS4yMjd8Ni45NzM4NQ==)"/>
  <g clip-path="url(#cpNi45NzM4NXw3MTMuMDI2fDIwOS4yMjd8Ni45NzM4NQ==)">
    <text x="440.93" y="137.44" style="font-size: 9.96px; fill: #5ECD2E; font-family: Liberation Sans;" textLength="35.40px" lengthAdjust="spacingAndGlyphs">cellTree</text>
  </g>
  <polyline points="195.58,205.13 226.12,205.13 226.03,205.13 226.38,205.11 226.72,205.04 227.04,204.92 227.34,204.74 227.61,204.52 227.84,204.26 228.03,203.97 228.16,203.65 228.25,203.31 228.28,202.97 228.28,202.97 228.28,193.21 228.28,193.21 228.25,192.87 228.16,192.53 228.03,192.21 227.84,191.91 227.61,191.65 227.34,191.43 227.04,191.26 226.72,191.14 226.38,191.07 226.12,191.05 195.58,191.05 195.84,191.07 195.49,191.05 195.15,191.10 194.81,191.19 194.50,191.34 194.21,191.54 193.96,191.78 193.75,192.06 193.59,192.37 193.48,192.70 193.42,193.04 193.42,193.21 193.42,202.97 193.42,202.79 193.42,203.14 193.48,203.48 193.59,203.81 193.75,204.12 193.96,204.40 194.21,204.64 194.50,204.84 194.81,204.99 195.15,205.08 195.49,205.13 " style="stroke-width: 0.53; stroke: #5ECD2E; fill: #FFFFFF;" clip-path="url(#cpNi45NzM4NXw3MTMuMDI2fDIwOS4yMjd8Ni45NzM4NQ==)"/>
  <g clip-path="url(#cpNi45NzM4NXw3MTMuMDI2fDIwOS4yMjd8Ni45NzM4NQ==)">
    <text x="197.02" y="201.53" style="font-size: 9.96px; fill: #5ECD2E; font-family: Liberation Sans;" textLength="27.66px" lengthAdjust="spacingAndGlyphs">sincell</text>
  </g>
  <polyline points="644.35,144.76 692.03,144.76 691.95,144.75 692.29,144.74 692.63,144.67 692.96,144.55 693.26,144.37 693.53,144.15 693.76,143.89 693.95,143.60 694.08,143.28 694.17,142.94 694.19,142.60 694.19,142.60 694.19,132.84 694.19,132.84 694.17,132.49 694.08,132.16 693.95,131.84 693.76,131.54 693.53,131.28 693.26,131.06 692.96,130.89 692.63,130.77 692.29,130.70 692.03,130.68 644.35,130.68 644.61,130.70 644.26,130.68 643.92,130.72 643.58,130.82 643.27,130.97 642.98,131.17 642.73,131.41 642.52,131.69 642.36,131.99 642.25,132.32 642.20,132.67 642.19,132.84 642.19,142.60 642.20,142.42 642.20,142.77 642.25,143.11 642.36,143.44 642.52,143.75 642.73,144.03 642.98,144.27 643.27,144.47 643.58,144.61 643.92,144.71 644.26,144.75 " style="stroke-width: 0.53; stroke: #CFBF00; fill: #FFFFFF;" clip-path="url(#cpNi45NzM4NXw3MTMuMDI2fDIwOS4yMjd8Ni45NzM4NQ==)"/>
  <g clip-path="url(#cpNi45NzM4NXw3MTMuMDI2fDIwOS4yMjd8Ni45NzM4NQ==)">
    <text x="645.79" y="141.16" style="font-size: 9.96px; fill: #CFBF00; font-family: Liberation Sans;" textLength="44.80px" lengthAdjust="spacingAndGlyphs">GrandPrix</text>
  </g>
  <polyline points="383.86,141.44 422.69,141.44 422.60,141.44 422.95,141.43 423.29,141.36 423.62,141.23 423.92,141.06 424.19,140.84 424.42,140.58 424.60,140.29 424.74,139.97 424.82,139.63 424.85,139.28 424.85,139.28 424.85,129.53 424.85,129.53 424.82,129.18 424.74,128.84 424.60,128.52 424.42,128.23 424.19,127.97 423.92,127.75 423.62,127.58 423.29,127.45 422.95,127.38 422.69,127.37 383.86,127.37 384.12,127.38 383.77,127.37 383.43,127.41 383.09,127.51 382.78,127.66 382.49,127.85 382.24,128.10 382.03,128.37 381.87,128.68 381.76,129.01 381.70,129.35 381.70,129.53 381.70,139.28 381.70,139.11 381.70,139.46 381.76,139.80 381.87,140.13 382.03,140.44 382.24,140.71 382.49,140.96 382.78,141.15 383.09,141.30 383.43,141.40 383.77,141.44 " style="stroke-width: 0.53; stroke: #FF8821; fill: #FFFFFF;" clip-path="url(#cpNi45NzM4NXw3MTMuMDI2fDIwOS4yMjd8Ni45NzM4NQ==)"/>
  <g clip-path="url(#cpNi45NzM4NXw3MTMuMDI2fDIwOS4yMjd8Ni45NzM4NQ==)">
    <text x="385.30" y="137.84" style="font-size: 9.96px; fill: #FF8821; font-family: Liberation Sans;" textLength="35.95px" lengthAdjust="spacingAndGlyphs">SLICER</text>
  </g>
  <polyline points="253.02,204.94 284.66,204.94 284.57,204.94 284.92,204.92 285.26,204.85 285.58,204.73 285.88,204.56 286.15,204.34 286.38,204.08 286.57,203.78 286.71,203.46 286.79,203.12 286.82,202.78 286.82,202.78 286.82,193.02 286.82,193.02 286.79,192.68 286.71,192.34 286.57,192.02 286.38,191.73 286.15,191.46 285.88,191.25 285.58,191.07 285.26,190.95 284.92,190.88 284.66,190.86 253.02,190.86 253.28,190.88 252.93,190.86 252.59,190.91 252.25,191.00 251.94,191.15 251.65,191.35 251.40,191.59 251.19,191.87 251.03,192.18 250.92,192.51 250.87,192.85 250.86,193.02 250.86,202.78 250.87,202.60 250.87,202.95 250.92,203.29 251.03,203.62 251.19,203.93 251.40,204.21 251.65,204.45 251.94,204.65 252.25,204.80 252.59,204.89 252.93,204.94 " style="stroke-width: 0.53; stroke: #AF0DC7; fill: #FFFFFF;" clip-path="url(#cpNi45NzM4NXw3MTMuMDI2fDIwOS4yMjd8Ni45NzM4NQ==)"/>
  <g clip-path="url(#cpNi45NzM4NXw3MTMuMDI2fDIwOS4yMjd8Ni45NzM4NQ==)">
    <text x="254.46" y="201.34" style="font-size: 9.96px; fill: #AF0DC7; font-family: Liberation Sans;" textLength="28.76px" lengthAdjust="spacingAndGlyphs">NBOR</text>
  </g>
  <polyline points="434.34,183.10 486.44,183.10 486.35,183.10 486.70,183.09 487.04,183.02 487.36,182.89 487.67,182.72 487.93,182.50 488.17,182.24 488.35,181.95 488.49,181.63 488.57,181.29 488.60,180.94 488.60,180.94 488.60,171.19 488.60,171.19 488.57,170.84 488.49,170.50 488.35,170.18 488.17,169.89 487.93,169.63 487.67,169.41 487.36,169.24 487.04,169.11 486.70,169.04 486.44,169.03 434.34,169.03 434.60,169.04 434.25,169.03 433.90,169.07 433.57,169.17 433.26,169.32 432.97,169.51 432.72,169.75 432.51,170.03 432.35,170.34 432.24,170.67 432.18,171.01 432.18,171.19 432.18,180.94 432.18,180.77 432.18,181.12 432.24,181.46 432.35,181.79 432.51,182.10 432.72,182.37 432.97,182.62 433.26,182.81 433.57,182.96 433.90,183.06 434.25,183.10 " style="stroke-width: 0.53; stroke: #AF0DC7; fill: #FFFFFF;" clip-path="url(#cpNi45NzM4NXw3MTMuMDI2fDIwOS4yMjd8Ni45NzM4NQ==)"/>
  <g clip-path="url(#cpNi45NzM4NXw3MTMuMDI2fDIwOS4yMjd8Ni45NzM4NQ==)">
    <text x="435.78" y="179.50" style="font-size: 9.96px; fill: #AF0DC7; font-family: Liberation Sans;" textLength="49.22px" lengthAdjust="spacingAndGlyphs">WaveCrest</text>
  </g>
  <polyline points="638.10,166.02 682.47,166.02 682.38,166.01 682.73,166.00 683.07,165.93 683.40,165.81 683.70,165.63 683.97,165.41 684.20,165.15 684.38,164.86 684.52,164.54 684.60,164.20 684.63,163.86 684.63,163.86 684.63,154.10 684.63,154.10 684.60,153.75 684.52,153.42 684.38,153.10 684.20,152.80 683.97,152.54 683.70,152.32 683.40,152.15 683.07,152.03 682.73,151.96 682.47,151.94 638.10,151.94 638.36,151.96 638.01,151.94 637.67,151.98 637.33,152.08 637.02,152.23 636.73,152.43 636.48,152.67 636.27,152.95 636.11,153.25 636.00,153.58 635.94,153.93 635.94,154.10 635.94,163.86 635.94,163.68 635.94,164.03 636.00,164.37 636.11,164.70 636.27,165.01 636.48,165.29 636.73,165.53 637.02,165.73 637.33,165.87 637.67,165.97 638.01,166.01 " style="stroke-width: 0.53; stroke: #5ECD2E; fill: #FFFFFF;" clip-path="url(#cpNi45NzM4NXw3MTMuMDI2fDIwOS4yMjd8Ni45NzM4NQ==)"/>
  <g clip-path="url(#cpNi45NzM4NXw3MTMuMDI2fDIwOS4yMjd8Ni45NzM4NQ==)">
    <text x="639.54" y="162.42" style="font-size: 9.96px; fill: #5ECD2E; font-family: Liberation Sans;" textLength="41.49px" lengthAdjust="spacingAndGlyphs">p-Creode</text>
  </g>
  <polyline points="546.94,165.53 589.11,165.53 589.02,165.53 589.37,165.51 589.71,165.44 590.03,165.32 590.33,165.14 590.60,164.92 590.83,164.66 591.02,164.37 591.15,164.05 591.24,163.71 591.27,163.37 591.27,163.37 591.27,153.61 591.27,153.61 591.24,153.27 591.15,152.93 591.02,152.61 590.83,152.31 590.60,152.05 590.33,151.83 590.03,151.66 589.71,151.54 589.37,151.47 589.11,151.45 546.94,151.45 547.20,151.47 546.86,151.45 546.51,151.50 546.18,151.59 545.86,151.74 545.58,151.94 545.33,152.18 545.12,152.46 544.96,152.77 544.85,153.09 544.79,153.44 544.78,153.61 544.78,163.37 544.79,163.19 544.79,163.54 544.85,163.88 544.96,164.21 545.12,164.52 545.33,164.80 545.58,165.04 545.86,165.24 546.18,165.39 546.51,165.48 546.86,165.53 " style="stroke-width: 0.53; stroke: #5ECD2E; fill: #FFFFFF;" clip-path="url(#cpNi45NzM4NXw3MTMuMDI2fDIwOS4yMjd8Ni45NzM4NQ==)"/>
  <g clip-path="url(#cpNi45NzM4NXw3MTMuMDI2fDIwOS4yMjd8Ni45NzM4NQ==)">
    <text x="548.38" y="161.93" style="font-size: 9.96px; fill: #5ECD2E; font-family: Liberation Sans;" textLength="39.28px" lengthAdjust="spacingAndGlyphs">slingshot</text>
  </g>
  <polyline points="576.22,183.88 628.36,183.88 628.27,183.88 628.62,183.86 628.96,183.79 629.29,183.67 629.59,183.49 629.86,183.27 630.09,183.01 630.27,182.72 630.41,182.40 630.49,182.06 630.52,181.72 630.52,181.72 630.52,171.96 630.52,171.96 630.49,171.62 630.41,171.28 630.27,170.96 630.09,170.66 629.86,170.40 629.59,170.18 629.29,170.01 628.96,169.89 628.62,169.82 628.36,169.80 576.22,169.80 576.48,169.82 576.14,169.80 575.79,169.85 575.46,169.94 575.14,170.09 574.86,170.29 574.61,170.53 574.40,170.81 574.24,171.12 574.13,171.45 574.07,171.79 574.06,171.96 574.06,181.72 574.07,181.54 574.07,181.89 574.13,182.23 574.24,182.56 574.40,182.87 574.61,183.15 574.86,183.39 575.14,183.59 575.46,183.74 575.79,183.83 576.14,183.88 " style="stroke-width: 0.53; stroke: #AF0DC7; fill: #FFFFFF;" clip-path="url(#cpNi45NzM4NXw3MTMuMDI2fDIwOS4yMjd8Ni45NzM4NQ==)"/>
  <g clip-path="url(#cpNi45NzM4NXw3MTMuMDI2fDIwOS4yMjd8Ni45NzM4NQ==)">
    <text x="577.66" y="180.28" style="font-size: 9.96px; fill: #AF0DC7; font-family: Liberation Sans;" textLength="49.26px" lengthAdjust="spacingAndGlyphs">PhenoPath</text>
  </g>
  <polyline points="520.60,183.96 558.33,183.96 558.25,183.95 558.59,183.94 558.93,183.87 559.26,183.75 559.56,183.57 559.83,183.35 560.06,183.09 560.25,182.80 560.38,182.48 560.46,182.14 560.49,181.80 560.49,181.80 560.49,172.04 560.49,172.04 560.46,171.69 560.38,171.36 560.25,171.04 560.06,170.74 559.83,170.48 559.56,170.26 559.26,170.09 558.93,169.97 558.59,169.90 558.33,169.88 520.60,169.88 520.86,169.90 520.52,169.88 520.17,169.92 519.84,170.02 519.52,170.17 519.24,170.37 518.99,170.61 518.78,170.89 518.62,171.19 518.51,171.52 518.45,171.87 518.44,172.04 518.44,181.80 518.45,181.62 518.45,181.97 518.51,182.31 518.62,182.64 518.78,182.95 518.99,183.23 519.24,183.47 519.52,183.67 519.84,183.81 520.17,183.91 520.52,183.95 " style="stroke-width: 0.53; stroke: #AF0DC7; fill: #FFFFFF;" clip-path="url(#cpNi45NzM4NXw3MTMuMDI2fDIwOS4yMjd8Ni45NzM4NQ==)"/>
  <g clip-path="url(#cpNi45NzM4NXw3MTMuMDI2fDIwOS4yMjd8Ni45NzM4NQ==)">
    <text x="522.04" y="180.36" style="font-size: 9.96px; fill: #AF0DC7; font-family: Liberation Sans;" textLength="34.85px" lengthAdjust="spacingAndGlyphs">topslam</text>
  </g>
  <polyline points="423.17,205.39 449.28,205.39 449.19,205.39 449.54,205.37 449.88,205.30 450.21,205.18 450.51,205.01 450.78,204.79 451.01,204.53 451.19,204.23 451.33,203.91 451.41,203.58 451.44,203.23 451.44,203.23 451.44,193.47 451.44,193.47 451.41,193.13 451.33,192.79 451.19,192.47 451.01,192.18 450.78,191.92 450.51,191.70 450.21,191.52 449.88,191.40 449.54,191.33 449.28,191.31 423.17,191.31 423.43,191.33 423.08,191.32 422.73,191.36 422.40,191.45 422.09,191.60 421.80,191.80 421.55,192.04 421.34,192.32 421.18,192.63 421.07,192.96 421.01,193.30 421.01,193.47 421.01,203.23 421.01,203.06 421.01,203.40 421.07,203.75 421.18,204.08 421.34,204.38 421.55,204.66 421.80,204.90 422.09,205.10 422.40,205.25 422.73,205.35 423.08,205.39 " style="stroke-width: 0.53; stroke: #AF0DC7; fill: #FFFFFF;" clip-path="url(#cpNi45NzM4NXw3MTMuMDI2fDIwOS4yMjd8Ni45NzM4NQ==)"/>
  <g clip-path="url(#cpNi45NzM4NXw3MTMuMDI2fDIwOS4yMjd8Ni45NzM4NQ==)">
    <text x="424.61" y="201.79" style="font-size: 9.96px; fill: #AF0DC7; font-family: Liberation Sans;" textLength="23.24px" lengthAdjust="spacingAndGlyphs">Ouija</text>
  </g>
  <polyline points="474.59,162.38 511.20,162.38 511.12,162.38 511.47,162.37 511.81,162.30 512.13,162.17 512.43,162.00 512.70,161.78 512.93,161.52 513.12,161.23 513.25,160.91 513.34,160.57 513.36,160.22 513.36,160.22 513.36,150.47 513.36,150.47 513.34,150.12 513.25,149.78 513.12,149.46 512.93,149.17 512.70,148.91 512.43,148.69 512.13,148.51 511.81,148.39 511.47,148.32 511.20,148.31 474.59,148.31 474.85,148.32 474.50,148.31 474.16,148.35 473.83,148.45 473.51,148.60 473.23,148.79 472.98,149.03 472.77,149.31 472.60,149.62 472.49,149.95 472.44,150.29 472.43,150.47 472.43,160.22 472.44,160.05 472.44,160.40 472.49,160.74 472.60,161.07 472.77,161.38 472.98,161.65 473.23,161.89 473.51,162.09 473.83,162.24 474.16,162.34 474.50,162.38 " style="stroke-width: 0.53; stroke: #AF0DC7; fill: #FFFFFF;" clip-path="url(#cpNi45NzM4NXw3MTMuMDI2fDIwOS4yMjd8Ni45NzM4NQ==)"/>
  <g clip-path="url(#cpNi45NzM4NXw3MTMuMDI2fDIwOS4yMjd8Ni45NzM4NQ==)">
    <text x="476.03" y="158.78" style="font-size: 9.96px; fill: #AF0DC7; font-family: Liberation Sans;" textLength="33.73px" lengthAdjust="spacingAndGlyphs">SCENT</text>
  </g>
  <polyline points="54.21,180.95 103.01,180.95 102.92,180.95 103.27,180.94 103.61,180.87 103.93,180.74 104.23,180.57 104.50,180.35 104.73,180.09 104.92,179.79 105.06,179.47 105.14,179.14 105.17,178.79 105.17,178.79 105.17,169.04 105.17,169.04 105.14,168.69 105.06,168.35 104.92,168.03 104.73,167.74 104.50,167.48 104.23,167.26 103.93,167.08 103.61,166.96 103.27,166.89 103.01,166.88 54.21,166.88 54.47,166.89 54.12,166.88 53.77,166.92 53.44,167.02 53.13,167.17 52.84,167.36 52.59,167.60 52.38,167.88 52.22,168.19 52.11,168.52 52.05,168.86 52.05,169.04 52.05,178.79 52.05,178.62 52.05,178.96 52.11,179.31 52.22,179.64 52.38,179.95 52.59,180.22 52.84,180.46 53.13,180.66 53.44,180.81 53.77,180.91 54.12,180.95 " style="stroke-width: 0.53; stroke: #5ECD2E; fill: #FFFFFF;" clip-path="url(#cpNi45NzM4NXw3MTMuMDI2fDIwOS4yMjd8Ni45NzM4NQ==)"/>
  <g clip-path="url(#cpNi45NzM4NXw3MTMuMDI2fDIwOS4yMjd8Ni45NzM4NQ==)">
    <text x="55.65" y="177.35" style="font-size: 9.96px; fill: #5ECD2E; font-family: Liberation Sans;" textLength="45.92px" lengthAdjust="spacingAndGlyphs">Monocle 1</text>
  </g>
  <polyline points="394.34,184.24 421.00,184.24 420.91,184.24 421.26,184.23 421.60,184.16 421.93,184.03 422.23,183.86 422.50,183.64 422.73,183.38 422.91,183.08 423.05,182.77 423.13,182.43 423.16,182.08 423.16,182.08 423.16,172.33 423.16,172.33 423.13,171.98 423.05,171.64 422.91,171.32 422.73,171.03 422.50,170.77 422.23,170.55 421.93,170.37 421.60,170.25 421.26,170.18 421.00,170.17 394.34,170.17 394.60,170.18 394.25,170.17 393.90,170.21 393.57,170.31 393.26,170.46 392.97,170.65 392.72,170.89 392.51,171.17 392.35,171.48 392.24,171.81 392.18,172.15 392.18,172.33 392.18,182.08 392.18,181.91 392.18,182.25 392.24,182.60 392.35,182.93 392.51,183.24 392.72,183.51 392.97,183.75 393.26,183.95 393.57,184.10 393.90,184.20 394.25,184.24 " style="stroke-width: 0.53; stroke: #AF0DC7; fill: #FFFFFF;" clip-path="url(#cpNi45NzM4NXw3MTMuMDI2fDIwOS4yMjd8Ni45NzM4NQ==)"/>
  <g clip-path="url(#cpNi45NzM4NXw3MTMuMDI2fDIwOS4yMjd8Ni45NzM4NQ==)">
    <text x="395.78" y="180.64" style="font-size: 9.96px; fill: #AF0DC7; font-family: Liberation Sans;" textLength="23.78px" lengthAdjust="spacingAndGlyphs">SCell</text>
  </g>
  <polyline points="62.10,202.85 115.32,202.85 115.23,202.85 115.58,202.84 115.92,202.77 116.25,202.64 116.55,202.47 116.82,202.25 117.05,201.99 117.23,201.70 117.37,201.38 117.45,201.04 117.48,200.69 117.48,200.69 117.48,190.94 117.48,190.94 117.45,190.59 117.37,190.25 117.23,189.93 117.05,189.64 116.82,189.38 116.55,189.16 116.25,188.99 115.92,188.86 115.58,188.79 115.32,188.78 62.10,188.78 62.36,188.79 62.02,188.78 61.67,188.82 61.34,188.92 61.02,189.07 60.74,189.26 60.49,189.51 60.28,189.78 60.12,190.09 60.00,190.42 59.95,190.76 59.94,190.94 59.94,200.69 59.95,200.52 59.95,200.87 60.00,201.21 60.12,201.54 60.28,201.85 60.49,202.12 60.74,202.37 61.02,202.56 61.34,202.71 61.67,202.81 62.02,202.85 " style="stroke-width: 0.53; stroke: #AF0DC7; fill: #FFFFFF;" clip-path="url(#cpNi45NzM4NXw3MTMuMDI2fDIwOS4yMjd8Ni45NzM4NQ==)"/>
  <g clip-path="url(#cpNi45NzM4NXw3MTMuMDI2fDIwOS4yMjd8Ni45NzM4NQ==)">
    <text x="63.54" y="199.25" style="font-size: 9.96px; fill: #AF0DC7; font-family: Liberation Sans;" textLength="50.34px" lengthAdjust="spacingAndGlyphs">Wanderlust</text>
  </g>
  <polyline points="579.01,88.85 610.64,88.85 610.55,88.85 610.90,88.84 611.24,88.77 611.57,88.64 611.87,88.47 612.14,88.25 612.37,87.99 612.55,87.69 612.69,87.38 612.77,87.04 612.80,86.69 612.80,86.69 612.80,76.94 612.80,76.94 612.77,76.59 612.69,76.25 612.55,75.93 612.37,75.64 612.14,75.38 611.87,75.16 611.57,74.98 611.24,74.86 610.90,74.79 610.64,74.78 579.01,74.78 579.27,74.79 578.92,74.78 578.57,74.82 578.24,74.92 577.93,75.07 577.64,75.26 577.39,75.50 577.18,75.78 577.02,76.09 576.91,76.42 576.85,76.76 576.85,76.94 576.85,86.69 576.85,86.52 576.85,86.86 576.91,87.21 577.02,87.54 577.18,87.85 577.39,88.12 577.64,88.36 577.93,88.56 578.24,88.71 578.57,88.81 578.92,88.85 " style="stroke-width: 0.53; stroke: #39CCCC; fill: #FFFFFF;" clip-path="url(#cpNi45NzM4NXw3MTMuMDI2fDIwOS4yMjd8Ni45NzM4NQ==)"/>
  <g clip-path="url(#cpNi45NzM4NXw3MTMuMDI2fDIwOS4yMjd8Ni45NzM4NQ==)">
    <text x="580.45" y="85.25" style="font-size: 9.96px; fill: #39CCCC; font-family: Liberation Sans;" textLength="28.76px" lengthAdjust="spacingAndGlyphs">reCAT</text>
  </g>
  <defs>
    <clipPath id="cpMHw3MjB8MjUyfDA=">
      <rect x="0.00" y="0.00" width="720.00" height="252.00"/>
    </clipPath>
  </defs>
  <polyline points="6.97,209.23 713.03,209.23 " style="stroke-width: 1.07; stroke-linecap: square;" clip-path="url(#cpMHw3MjB8MjUyfDA=)"/>
  <polyline points="39.07,212.71 39.07,209.23 " style="stroke-width: 1.07; stroke-linecap: butt;" clip-path="url(#cpMHw3MjB8MjUyfDA=)"/>
  <polyline points="199.42,212.71 199.42,209.23 " style="stroke-width: 1.07; stroke-linecap: butt;" clip-path="url(#cpMHw3MjB8MjUyfDA=)"/>
  <polyline points="359.78,212.71 359.78,209.23 " style="stroke-width: 1.07; stroke-linecap: butt;" clip-path="url(#cpMHw3MjB8MjUyfDA=)"/>
  <polyline points="520.58,212.71 520.58,209.23 " style="stroke-width: 1.07; stroke-linecap: butt;" clip-path="url(#cpMHw3MjB8MjUyfDA=)"/>
  <polyline points="680.93,212.71 680.93,209.23 " style="stroke-width: 1.07; stroke-linecap: butt;" clip-path="url(#cpMHw3MjB8MjUyfDA=)"/>
  <g clip-path="url(#cpMHw3MjB8MjUyfDA=)">
    <text x="25.72" y="223.95" style="font-size: 12.00px; font-family: Liberation Sans;" textLength="26.70px" lengthAdjust="spacingAndGlyphs">2014</text>
  </g>
  <g clip-path="url(#cpMHw3MjB8MjUyfDA=)">
    <text x="186.08" y="223.95" style="font-size: 12.00px; font-family: Liberation Sans;" textLength="26.70px" lengthAdjust="spacingAndGlyphs">2015</text>
  </g>
  <g clip-path="url(#cpMHw3MjB8MjUyfDA=)">
    <text x="346.43" y="223.95" style="font-size: 12.00px; font-family: Liberation Sans;" textLength="26.70px" lengthAdjust="spacingAndGlyphs">2016</text>
  </g>
  <g clip-path="url(#cpMHw3MjB8MjUyfDA=)">
    <text x="507.23" y="223.95" style="font-size: 12.00px; font-family: Liberation Sans;" textLength="26.70px" lengthAdjust="spacingAndGlyphs">2017</text>
  </g>
  <g clip-path="url(#cpMHw3MjB8MjUyfDA=)">
    <text x="667.59" y="223.95" style="font-size: 12.00px; font-family: Liberation Sans;" textLength="26.70px" lengthAdjust="spacingAndGlyphs">2018</text>
  </g>
  <g clip-path="url(#cpMHw3MjB8MjUyfDA=)">
    <text x="312.13" y="240.80" style="font-size: 14.00px; font-family: Liberation Sans;" textLength="95.74px" lengthAdjust="spacingAndGlyphs">Publishing date</text>
  </g>
</svg>
