<?xml version="1.0" encoding="UTF-8"?>
<svg xmlns="http://www.w3.org/2000/svg" xmlns:xlink="http://www.w3.org/1999/xlink" viewBox="0 0 720.00 252.00">
  <defs>
    <style type="text/css"><![CDATA[
    line, polyline, path, rect, circle {
      fill: none;
      stroke: #000000;
      stroke-linecap: round;
      stroke-linejoin: round;
      stroke-miterlimit: 10.00;
    }
  ]]></style>
  </defs>
  <line x1="458.63" y1="202.60" x2="458.63" y2="209.23" style="stroke-width: 1.07; stroke: #5ECD2E;" clip-path="url(#cpNi45NzM4NXw3MTMuMDI2fDIwOS4yMjd8Ni45NzM4NQ==)"/>
  <line x1="612.84" y1="202.13" x2="612.84" y2="209.23" style="stroke-width: 1.07; stroke: #CFBF00;" clip-path="url(#cpNi45NzM4NXw3MTMuMDI2fDIwOS4yMjd8Ni45NzM4NQ==)"/>
  <line x1="403.27" y1="204.82" x2="403.27" y2="209.23" style="stroke-width: 1.07; stroke: #FF8821;" clip-path="url(#cpNi45NzM4NXw3MTMuMDI2fDIwOS4yMjd8Ni45NzM4NQ==)"/>
  <line x1="597.02" y1="138.01" x2="597.02" y2="209.23" style="stroke-width: 1.07; stroke: #AF0DC7;" clip-path="url(#cpNi45NzM4NXw3MTMuMDI2fDIwOS4yMjd8Ni45NzM4NQ==)"/>
  <line x1="573.30" y1="205.63" x2="573.30" y2="209.23" style="stroke-width: 1.07; stroke: #AF0DC7;" clip-path="url(#cpNi45NzM4NXw3MTMuMDI2fDIwOS4yMjd8Ni45NzM4NQ==)"/>
  <line x1="210.85" y1="205.13" x2="210.85" y2="209.23" style="stroke-width: 1.07; stroke: #5ECD2E;" clip-path="url(#cpNi45NzM4NXw3MTMuMDI2fDIwOS4yMjd8Ni45NzM4NQ==)"/>
  <line x1="660.28" y1="200.73" x2="660.28" y2="209.23" style="stroke-width: 1.07; stroke: #5ECD2E;" clip-path="url(#cpNi45NzM4NXw3MTMuMDI2fDIwOS4yMjd8Ni45NzM4NQ==)"/>
  <line x1="418.21" y1="162.34" x2="418.21" y2="209.23" style="stroke-width: 1.07; stroke: #5ECD2E;" clip-path="url(#cpNi45NzM4NXw3MTMuMDI2fDIwOS4yMjd8Ni45NzM4NQ==)"/>
  <line x1="88.71" y1="202.85" x2="88.71" y2="209.22" style="stroke-width: 1.07; stroke: #AF0DC7;" clip-path="url(#cpNi45NzM4NXw3MTMuMDI2fDIwOS4yMjd8Ni45NzM4NQ==)"/>
  <line x1="401.52" y1="120.91" x2="401.52" y2="209.22" style="stroke-width: 1.07; stroke: #AF0DC7;" clip-path="url(#cpNi45NzM4NXw3MTMuMDI2fDIwOS4yMjd8Ni45NzM4NQ==)"/>
  <line x1="439.30" y1="183.08" x2="439.30" y2="209.22" style="stroke-width: 1.07; stroke: #5ECD2E;" clip-path="url(#cpNi45NzM4NXw3MTMuMDI2fDIwOS4yMjd8Ni45NzM4NQ==)"/>
  <line x1="638.76" y1="119.61" x2="638.76" y2="209.22" style="stroke-width: 1.07; stroke: #FF8821;" clip-path="url(#cpNi45NzM4NXw3MTMuMDI2fDIwOS4yMjd8Ni45NzM4NQ==)"/>
  <line x1="482.79" y1="163.46" x2="482.79" y2="209.22" style="stroke-width: 1.07; stroke: #AF0DC7;" clip-path="url(#cpNi45NzM4NXw3MTMuMDI2fDIwOS4yMjd8Ni45NzM4NQ==)"/>
  <line x1="514.86" y1="203.58" x2="514.86" y2="209.22" style="stroke-width: 1.07; stroke: #5ECD2E;" clip-path="url(#cpNi45NzM4NXw3MTMuMDI2fDIwOS4yMjd8Ni45NzM4NQ==)"/>
  <line x1="460.39" y1="120.76" x2="460.39" y2="209.22" style="stroke-width: 1.07; stroke: #AF0DC7;" clip-path="url(#cpNi45NzM4NXw3MTMuMDI2fDIwOS4yMjd8Ni45NzM4NQ==)"/>
  <line x1="547.38" y1="184.90" x2="547.38" y2="209.22" style="stroke-width: 1.07; stroke: #CFBF00;" clip-path="url(#cpNi45NzM4NXw3MTMuMDI2fDIwOS4yMjd8Ni45NzM4NQ==)"/>
  <line x1="364.61" y1="177.50" x2="364.61" y2="209.22" style="stroke-width: 1.07; stroke: #5ECD2E;" clip-path="url(#cpNi45NzM4NXw3MTMuMDI2fDIwOS4yMjd8Ni45NzM4NQ==)"/>
  <line x1="413.38" y1="61.23" x2="413.38" y2="209.22" style="stroke-width: 1.07; stroke: #0073D7;" clip-path="url(#cpNi45NzM4NXw3MTMuMDI2fDIwOS4yMjd8Ni45NzM4NQ==)"/>
  <line x1="78.61" y1="180.94" x2="78.61" y2="209.22" style="stroke-width: 1.07; stroke: #5ECD2E;" clip-path="url(#cpNi45NzM4NXw3MTMuMDI2fDIwOS4yMjd8Ni45NzM4NQ==)"/>
  <line x1="313.65" y1="156.07" x2="313.65" y2="209.22" style="stroke-width: 1.07; stroke: #AF0DC7;" clip-path="url(#cpNi45NzM4NXw3MTMuMDI2fDIwOS4yMjd8Ni45NzM4NQ==)"/>
  <line x1="312.33" y1="134.02" x2="312.33" y2="209.22" style="stroke-width: 1.07; stroke: #AF0DC7;" clip-path="url(#cpNi45NzM4NXw3MTMuMDI2fDIwOS4yMjd8Ni45NzM4NQ==)"/>
  <line x1="539.47" y1="168.74" x2="539.47" y2="209.22" style="stroke-width: 1.07; stroke: #AF0DC7;" clip-path="url(#cpNi45NzM4NXw3MTMuMDI2fDIwOS4yMjd8Ni45NzM4NQ==)"/>
  <line x1="435.35" y1="100.03" x2="435.35" y2="209.22" style="stroke-width: 1.07; stroke: #5ECD2E;" clip-path="url(#cpNi45NzM4NXw3MTMuMDI2fDIwOS4yMjd8Ni45NzM4NQ==)"/>
  <line x1="561.43" y1="152.02" x2="561.43" y2="209.22" style="stroke-width: 1.07; stroke: #5ECD2E;" clip-path="url(#cpNi45NzM4NXw3MTMuMDI2fDIwOS4yMjd8Ni45NzM4NQ==)"/>
  <line x1="586.48" y1="103.53" x2="586.48" y2="209.22" style="stroke-width: 1.07; stroke: #AF0DC7;" clip-path="url(#cpNi45NzM4NXw3MTMuMDI2fDIwOS4yMjd8Ni45NzM4NQ==)"/>
  <line x1="613.71" y1="180.19" x2="613.71" y2="209.22" style="stroke-width: 1.07; stroke: #0073D7;" clip-path="url(#cpNi45NzM4NXw3MTMuMDI2fDIwOS4yMjd8Ni45NzM4NQ==)"/>
  <line x1="492.90" y1="141.94" x2="492.90" y2="209.21" style="stroke-width: 1.07; stroke: #AF0DC7;" clip-path="url(#cpNi45NzM4NXw3MTMuMDI2fDIwOS4yMjd8Ni45NzM4NQ==)"/>
  <line x1="617.23" y1="66.50" x2="617.23" y2="209.21" style="stroke-width: 1.07; stroke: #0073D7;" clip-path="url(#cpNi45NzM4NXw3MTMuMDI2fDIwOS4yMjd8Ni45NzM4NQ==)"/>
  <line x1="542.98" y1="73.62" x2="542.98" y2="209.21" style="stroke-width: 1.07; stroke: #5ECD2E;" clip-path="url(#cpNi45NzM4NXw3MTMuMDI2fDIwOS4yMjd8Ni45NzM4NQ==)"/>
  <line x1="602.29" y1="86.90" x2="602.29" y2="209.21" style="stroke-width: 1.07; stroke: #AF0DC7;" clip-path="url(#cpNi45NzM4NXw3MTMuMDI2fDIwOS4yMjd8Ni45NzM4NQ==)"/>
  <line x1="611.08" y1="159.59" x2="611.08" y2="209.21" style="stroke-width: 1.07; stroke: #AF0DC7;" clip-path="url(#cpNi45NzM4NXw3MTMuMDI2fDIwOS4yMjd8Ni45NzM4NQ==)"/>
  <line x1="651.94" y1="181.96" x2="651.94" y2="209.21" style="stroke-width: 1.07; stroke: #FF4237;" clip-path="url(#cpNi45NzM4NXw3MTMuMDI2fDIwOS4yMjd8Ni45NzM4NQ==)"/>
  <line x1="433.59" y1="82.41" x2="433.59" y2="209.21" style="stroke-width: 1.07; stroke: #AF0DC7;" clip-path="url(#cpNi45NzM4NXw3MTMuMDI2fDIwOS4yMjd8Ni45NzM4NQ==)"/>
  <line x1="668.19" y1="158.30" x2="668.19" y2="209.21" style="stroke-width: 1.07; stroke: #CFBF00;" clip-path="url(#cpNi45NzM4NXw3MTMuMDI2fDIwOS4yMjd8Ni45NzM4NQ==)"/>
  <line x1="481.48" y1="61.40" x2="481.48" y2="209.21" style="stroke-width: 1.07; stroke: #AF0DC7;" clip-path="url(#cpNi45NzM4NXw3MTMuMDI2fDIwOS4yMjd8Ni45NzM4NQ==)"/>
  <line x1="552.65" y1="124.18" x2="552.65" y2="209.21" style="stroke-width: 1.07; stroke: #CFBF00;" clip-path="url(#cpNi45NzM4NXw3MTMuMDI2fDIwOS4yMjd8Ni45NzM4NQ==)"/>
  <line x1="568.02" y1="52.93" x2="568.02" y2="209.21" style="stroke-width: 1.07; stroke: #5ECD2E;" clip-path="url(#cpNi45NzM4NXw3MTMuMDI2fDIwOS4yMjd8Ni45NzM4NQ==)"/>
  <line x1="543.42" y1="29.75" x2="543.42" y2="209.21" style="stroke-width: 1.07; stroke: #5ECD2E;" clip-path="url(#cpNi45NzM4NXw3MTMuMDI2fDIwOS4yMjd8Ni45NzM4NQ==)"/>
  <line x1="604.93" y1="42.17" x2="604.93" y2="209.21" style="stroke-width: 1.07; stroke: #AF0DC7;" clip-path="url(#cpNi45NzM4NXw3MTMuMDI2fDIwOS4yMjd8Ni45NzM4NQ==)"/>
  <line x1="436.22" y1="141.93" x2="436.22" y2="209.21" style="stroke-width: 1.07; stroke: #AF0DC7;" clip-path="url(#cpNi45NzM4NXw3MTMuMDI2fDIwOS4yMjd8Ni45NzM4NQ==)"/>
  <line x1="666.87" y1="96.64" x2="666.87" y2="209.21" style="stroke-width: 1.07; stroke: #AF0DC7;" clip-path="url(#cpNi45NzM4NXw3MTMuMDI2fDIwOS4yMjd8Ni45NzM4NQ==)"/>
  <line x1="594.82" y1="24.65" x2="594.82" y2="209.21" style="stroke-width: 1.07; stroke: #39CCCC;" clip-path="url(#cpNi45NzM4NXw3MTMuMDI2fDIwOS4yMjd8Ni45NzM4NQ==)"/>
  <line x1="268.84" y1="205.56" x2="268.84" y2="209.21" style="stroke-width: 1.07; stroke: #AF0DC7;" clip-path="url(#cpNi45NzM4NXw3MTMuMDI2fDIwOS4yMjd8Ni45NzM4NQ==)"/>
  <line x1="307.06" y1="112.05" x2="307.06" y2="209.21" style="stroke-width: 1.07; stroke: #AF0DC7;" clip-path="url(#cpNi45NzM4NXw3MTMuMDI2fDIwOS4yMjd8Ni45NzM4NQ==)"/>
  <line x1="376.47" y1="155.84" x2="376.47" y2="209.21" style="stroke-width: 1.07; stroke: #0073D7;" clip-path="url(#cpNi45NzM4NXw3MTMuMDI2fDIwOS4yMjd8Ni45NzM4NQ==)"/>
  <line x1="407.67" y1="24.65" x2="407.67" y2="209.21" style="stroke-width: 1.07; stroke: #AF0DC7;" clip-path="url(#cpNi45NzM4NXw3MTMuMDI2fDIwOS4yMjd8Ni45NzM4NQ==)"/>
  <line x1="198.55" y1="183.46" x2="198.55" y2="209.21" style="stroke-width: 1.07; stroke: #5ECD2E;" clip-path="url(#cpNi45NzM4NXw3MTMuMDI2fDIwOS4yMjd8Ni45NzM4NQ==)"/>
  <line x1="429.63" y1="40.10" x2="429.63" y2="209.21" style="stroke-width: 1.07; stroke: #CFBF00;" clip-path="url(#cpNi45NzM4NXw3MTMuMDI2fDIwOS4yMjd8Ni45NzM4NQ==)"/>
  <line x1="513.11" y1="100.29" x2="513.11" y2="209.21" style="stroke-width: 1.07; stroke: #5ECD2E;" clip-path="url(#cpNi45NzM4NXw3MTMuMDI2fDIwOS4yMjd8Ni45NzM4NQ==)"/>
  <defs>
    <clipPath id="cpNi45NzM4NXw3MTMuMDI2fDIwOS4yMjd8Ni45NzM4NQ==">
      <rect x="6.97" y="6.97" width="706.05" height="202.25"/>
    </clipPath>
  </defs>
  <polyline points="487.05,100.29 539.17,100.29 539.08,100.29 539.43,100.28 539.77,100.21 540.09,100.09 540.39,99.91 540.66,99.69 540.89,99.43 541.08,99.14 541.21,98.82 541.30,98.48 541.33,98.13 541.33,98.13 541.33,88.38 541.33,88.38 541.30,88.03 541.21,87.70 541.08,87.38 540.89,87.08 540.66,86.82 540.39,86.60 540.09,86.43 539.77,86.31 539.43,86.24 539.17,86.22 487.05,86.22 487.31,86.24 486.96,86.22 486.62,86.26 486.28,86.36 485.97,86.51 485.68,86.71 485.43,86.95 485.22,87.23 485.06,87.53 484.95,87.86 484.90,88.21 484.89,88.38 484.89,98.13 484.90,97.96 484.90,98.31 484.95,98.65 485.06,98.98 485.22,99.29 485.43,99.57 485.68,99.81 485.97,100.01 486.28,100.15 486.62,100.25 486.96,100.29 " style="stroke-width: 0.53; stroke: #5ECD2E; fill: #FFFFFF;" clip-path="url(#cpNi45NzM4NXw3MTMuMDI2fDIwOS4yMjd8Ni45NzM4NQ==)"/>
  <g clip-path="url(#cpNi45NzM4NXw3MTMuMDI2fDIwOS4yMjd8Ni45NzM4NQ==)">
    <text x="488.49" y="96.69" style="font-size: 9.96px; fill: #5ECD2E; font-family: Liberation Sans;" textLength="49.24px" lengthAdjust="spacingAndGlyphs">k-branches</text>
  </g>
  <polyline points="410.50,40.10 448.77,40.10 448.68,40.10 449.03,40.09 449.37,40.02 449.70,39.90 450.00,39.72 450.27,39.50 450.50,39.24 450.68,38.95 450.82,38.63 450.90,38.29 450.93,37.94 450.93,37.94 450.93,28.19 450.93,28.19 450.90,27.84 450.82,27.51 450.68,27.19 450.50,26.89 450.27,26.63 450.00,26.41 449.70,26.24 449.37,26.11 449.03,26.05 448.77,26.03 410.50,26.03 410.76,26.05 410.41,26.03 410.06,26.07 409.73,26.17 409.42,26.32 409.13,26.52 408.88,26.76 408.67,27.03 408.51,27.34 408.40,27.67 408.34,28.02 408.34,28.19 408.34,37.94 408.34,37.77 408.34,38.12 408.40,38.46 408.51,38.79 408.67,39.10 408.88,39.38 409.13,39.62 409.42,39.81 409.73,39.96 410.06,40.06 410.41,40.10 " style="stroke-width: 0.53; stroke: #CFBF00; fill: #FFFFFF;" clip-path="url(#cpNi45NzM4NXw3MTMuMDI2fDIwOS4yMjd8Ni45NzM4NQ==)"/>
  <g clip-path="url(#cpNi45NzM4NXw3MTMuMDI2fDIwOS4yMjd8Ni45NzM4NQ==)">
    <text x="411.94" y="36.50" style="font-size: 9.96px; fill: #CFBF00; font-family: Liberation Sans;" textLength="35.39px" lengthAdjust="spacingAndGlyphs">SCOUP</text>
  </g>
  <polyline points="179.96,183.46 217.13,183.46 217.04,183.46 217.39,183.45 217.73,183.38 218.06,183.26 218.36,183.08 218.63,182.86 218.86,182.60 219.04,182.31 219.18,181.99 219.26,181.65 219.29,181.30 219.29,181.30 219.29,171.55 219.29,171.55 219.26,171.20 219.18,170.86 219.04,170.54 218.86,170.25 218.63,169.99 218.36,169.77 218.06,169.60 217.73,169.47 217.39,169.40 217.13,169.39 179.96,169.39 180.22,169.40 179.87,169.39 179.53,169.43 179.19,169.53 178.88,169.68 178.59,169.88 178.34,170.12 178.13,170.39 177.97,170.70 177.86,171.03 177.81,171.37 177.80,171.55 177.80,181.30 177.81,181.13 177.81,181.48 177.86,181.82 177.97,182.15 178.13,182.46 178.34,182.74 178.59,182.98 178.88,183.17 179.19,183.32 179.53,183.42 179.87,183.46 " style="stroke-width: 0.53; stroke: #5ECD2E; fill: #FFFFFF;" clip-path="url(#cpNi45NzM4NXw3MTMuMDI2fDIwOS4yMjd8Ni45NzM4NQ==)"/>
  <g clip-path="url(#cpNi45NzM4NXw3MTMuMDI2fDIwOS4yMjd8Ni45NzM4NQ==)">
    <text x="181.40" y="179.86" style="font-size: 9.96px; fill: #5ECD2E; font-family: Liberation Sans;" textLength="34.29px" lengthAdjust="spacingAndGlyphs">SCUBA</text>
  </g>
  <polyline points="394.34,24.65 421.00,24.65 420.91,24.65 421.26,24.63 421.60,24.56 421.93,24.44 422.23,24.27 422.50,24.05 422.73,23.79 422.91,23.49 423.05,23.17 423.13,22.84 423.16,22.49 423.16,22.49 423.16,12.73 423.16,12.73 423.13,12.39 423.05,12.05 422.91,11.73 422.73,11.44 422.50,11.18 422.23,10.96 421.93,10.78 421.60,10.66 421.26,10.59 421.00,10.57 394.34,10.57 394.60,10.59 394.25,10.58 393.90,10.62 393.57,10.71 393.26,10.86 392.97,11.06 392.72,11.30 392.51,11.58 392.35,11.89 392.24,12.22 392.18,12.56 392.18,12.73 392.18,22.49 392.18,22.32 392.18,22.66 392.24,23.01 392.35,23.34 392.51,23.64 392.72,23.92 392.97,24.16 393.26,24.36 393.57,24.51 393.90,24.61 394.25,24.65 " style="stroke-width: 0.53; stroke: #AF0DC7; fill: #FFFFFF;" clip-path="url(#cpNi45NzM4NXw3MTMuMDI2fDIwOS4yMjd8Ni45NzM4NQ==)"/>
  <g clip-path="url(#cpNi45NzM4NXw3MTMuMDI2fDIwOS4yMjd8Ni45NzM4NQ==)">
    <text x="395.78" y="21.05" style="font-size: 9.96px; fill: #AF0DC7; font-family: Liberation Sans;" textLength="23.78px" lengthAdjust="spacingAndGlyphs">SCell</text>
  </g>
  <polyline points="365.08,155.84 387.87,155.84 387.78,155.83 388.13,155.82 388.47,155.75 388.79,155.63 389.10,155.45 389.36,155.23 389.59,154.97 389.78,154.68 389.92,154.36 390.00,154.02 390.03,153.68 390.03,153.68 390.03,143.92 390.03,143.92 390.00,143.57 389.92,143.24 389.78,142.92 389.59,142.62 389.36,142.36 389.10,142.14 388.79,141.97 388.47,141.85 388.13,141.78 387.87,141.76 365.08,141.76 365.34,141.78 364.99,141.76 364.65,141.80 364.32,141.90 364.00,142.05 363.72,142.25 363.47,142.49 363.26,142.77 363.09,143.07 362.98,143.40 362.93,143.75 362.92,143.92 362.92,153.68 362.93,153.50 362.93,153.85 362.98,154.19 363.09,154.52 363.26,154.83 363.47,155.11 363.72,155.35 364.00,155.55 364.32,155.70 364.65,155.79 364.99,155.83 " style="stroke-width: 0.53; stroke: #0073D7; fill: #FFFFFF;" clip-path="url(#cpNi45NzM4NXw3MTMuMDI2fDIwOS4yMjd8Ni45NzM4NQ==)"/>
  <g clip-path="url(#cpNi45NzM4NXw3MTMuMDI2fDIwOS4yMjd8Ni45NzM4NQ==)">
    <text x="366.52" y="152.24" style="font-size: 9.96px; fill: #0073D7; font-family: Liberation Sans;" textLength="19.91px" lengthAdjust="spacingAndGlyphs">DPT</text>
  </g>
  <polyline points="285.99,112.05 328.13,112.05 328.05,112.04 328.39,112.03 328.74,111.96 329.06,111.84 329.36,111.66 329.63,111.44 329.86,111.18 330.05,110.89 330.18,110.57 330.27,110.23 330.29,109.89 330.29,109.89 330.29,100.13 330.29,100.13 330.27,99.78 330.18,99.45 330.05,99.13 329.86,98.83 329.63,98.57 329.36,98.35 329.06,98.18 328.74,98.06 328.39,97.99 328.13,97.97 285.99,97.97 286.25,97.99 285.90,97.97 285.55,98.01 285.22,98.11 284.91,98.26 284.62,98.46 284.37,98.70 284.16,98.98 284.00,99.28 283.89,99.61 283.83,99.96 283.83,100.13 283.83,109.89 283.83,109.71 283.83,110.06 283.89,110.40 284.00,110.73 284.16,111.04 284.37,111.32 284.62,111.56 284.91,111.76 285.22,111.90 285.55,112.00 285.90,112.04 " style="stroke-width: 0.53; stroke: #AF0DC7; fill: #FFFFFF;" clip-path="url(#cpNi45NzM4NXw3MTMuMDI2fDIwOS4yMjd8Ni45NzM4NQ==)"/>
  <g clip-path="url(#cpNi45NzM4NXw3MTMuMDI2fDIwOS4yMjd8Ni45NzM4NQ==)">
    <text x="287.43" y="108.45" style="font-size: 9.96px; fill: #AF0DC7; font-family: Liberation Sans;" textLength="39.27px" lengthAdjust="spacingAndGlyphs">Waterfall</text>
  </g>
  <polyline points="253.02,205.56 284.66,205.56 284.57,205.56 284.92,205.55 285.26,205.48 285.58,205.35 285.88,205.18 286.15,204.96 286.38,204.70 286.57,204.41 286.71,204.09 286.79,203.75 286.82,203.40 286.82,203.40 286.82,193.65 286.82,193.65 286.79,193.30 286.71,192.96 286.57,192.64 286.38,192.35 286.15,192.09 285.88,191.87 285.58,191.70 285.26,191.57 284.92,191.50 284.66,191.49 253.02,191.49 253.28,191.50 252.93,191.49 252.59,191.53 252.25,191.63 251.94,191.78 251.65,191.97 251.40,192.22 251.19,192.49 251.03,192.80 250.92,193.13 250.87,193.47 250.86,193.65 250.86,203.40 250.87,203.23 250.87,203.58 250.92,203.92 251.03,204.25 251.19,204.56 251.40,204.84 251.65,205.08 251.94,205.27 252.25,205.42 252.59,205.52 252.93,205.56 " style="stroke-width: 0.53; stroke: #AF0DC7; fill: #FFFFFF;" clip-path="url(#cpNi45NzM4NXw3MTMuMDI2fDIwOS4yMjd8Ni45NzM4NQ==)"/>
  <g clip-path="url(#cpNi45NzM4NXw3MTMuMDI2fDIwOS4yMjd8Ni45NzM4NQ==)">
    <text x="254.46" y="201.96" style="font-size: 9.96px; fill: #AF0DC7; font-family: Liberation Sans;" textLength="28.76px" lengthAdjust="spacingAndGlyphs">NBOR</text>
  </g>
  <polyline points="579.01,24.65 610.64,24.65 610.55,24.65 610.90,24.63 611.24,24.56 611.57,24.44 611.87,24.27 612.14,24.05 612.37,23.79 612.55,23.49 612.69,23.17 612.77,22.84 612.80,22.49 612.80,22.49 612.80,12.73 612.80,12.73 612.77,12.39 612.69,12.05 612.55,11.73 612.37,11.44 612.14,11.18 611.87,10.96 611.57,10.78 611.24,10.66 610.90,10.59 610.64,10.57 579.01,10.57 579.27,10.59 578.92,10.58 578.57,10.62 578.24,10.71 577.93,10.86 577.64,11.06 577.39,11.30 577.18,11.58 577.02,11.89 576.91,12.22 576.85,12.56 576.85,12.73 576.85,22.49 576.85,22.32 576.85,22.66 576.91,23.01 577.02,23.34 577.18,23.64 577.39,23.92 577.64,24.16 577.93,24.36 578.24,24.51 578.57,24.61 578.92,24.65 " style="stroke-width: 0.53; stroke: #39CCCC; fill: #FFFFFF;" clip-path="url(#cpNi45NzM4NXw3MTMuMDI2fDIwOS4yMjd8Ni45NzM4NQ==)"/>
  <g clip-path="url(#cpNi45NzM4NXw3MTMuMDI2fDIwOS4yMjd8Ni45NzM4NQ==)">
    <text x="580.45" y="21.05" style="font-size: 9.96px; fill: #39CCCC; font-family: Liberation Sans;" textLength="28.76px" lengthAdjust="spacingAndGlyphs">reCAT</text>
  </g>
  <polyline points="652.16,96.64 681.59,96.64 681.50,96.64 681.85,96.63 682.19,96.56 682.52,96.43 682.82,96.26 683.09,96.04 683.32,95.78 683.50,95.49 683.64,95.17 683.72,94.83 683.75,94.48 683.75,94.48 683.75,84.73 683.75,84.73 683.72,84.38 683.64,84.04 683.50,83.72 683.32,83.43 683.09,83.17 682.82,82.95 682.52,82.78 682.19,82.65 681.85,82.58 681.59,82.57 652.16,82.57 652.42,82.58 652.07,82.57 651.73,82.61 651.39,82.71 651.08,82.86 650.79,83.05 650.54,83.29 650.33,83.57 650.17,83.88 650.06,84.21 650.01,84.55 650.00,84.73 650.00,94.48 650.01,94.31 650.01,94.66 650.06,95.00 650.17,95.33 650.33,95.64 650.54,95.91 650.79,96.16 651.08,96.35 651.39,96.50 651.73,96.60 652.07,96.64 " style="stroke-width: 0.53; stroke: #AF0DC7; fill: #FFFFFF;" clip-path="url(#cpNi45NzM4NXw3MTMuMDI2fDIwOS4yMjd8Ni45NzM4NQ==)"/>
  <g clip-path="url(#cpNi45NzM4NXw3MTMuMDI2fDIwOS4yMjd8Ni45NzM4NQ==)">
    <text x="653.60" y="93.04" style="font-size: 9.96px; fill: #AF0DC7; font-family: Liberation Sans;" textLength="26.55px" lengthAdjust="spacingAndGlyphs">iCpSc</text>
  </g>
  <polyline points="423.17,141.93 449.28,141.93 449.19,141.93 449.54,141.91 449.88,141.84 450.21,141.72 450.51,141.54 450.78,141.32 451.01,141.06 451.19,140.77 451.33,140.45 451.41,140.11 451.44,139.77 451.44,139.77 451.44,130.01 451.44,130.01 451.41,129.67 451.33,129.33 451.19,129.01 451.01,128.71 450.78,128.45 450.51,128.23 450.21,128.06 449.88,127.94 449.54,127.87 449.28,127.85 423.17,127.85 423.43,127.87 423.08,127.85 422.73,127.90 422.40,127.99 422.09,128.14 421.80,128.34 421.55,128.58 421.34,128.86 421.18,129.17 421.07,129.50 421.01,129.84 421.01,130.01 421.01,139.77 421.01,139.59 421.01,139.94 421.07,140.28 421.18,140.61 421.34,140.92 421.55,141.20 421.80,141.44 422.09,141.64 422.40,141.79 422.73,141.88 423.08,141.93 " style="stroke-width: 0.53; stroke: #AF0DC7; fill: #FFFFFF;" clip-path="url(#cpNi45NzM4NXw3MTMuMDI2fDIwOS4yMjd8Ni45NzM4NQ==)"/>
  <g clip-path="url(#cpNi45NzM4NXw3MTMuMDI2fDIwOS4yMjd8Ni45NzM4NQ==)">
    <text x="424.61" y="138.33" style="font-size: 9.96px; fill: #AF0DC7; font-family: Liberation Sans;" textLength="23.24px" lengthAdjust="spacingAndGlyphs">Ouija</text>
  </g>
  <polyline points="583.29,42.17 626.57,42.17 626.48,42.17 626.83,42.16 627.17,42.09 627.49,41.96 627.80,41.79 628.06,41.57 628.30,41.31 628.48,41.02 628.62,40.70 628.70,40.36 628.73,40.01 628.73,40.01 628.73,30.26 628.73,30.26 628.70,29.91 628.62,29.57 628.48,29.25 628.30,28.96 628.06,28.70 627.80,28.48 627.49,28.31 627.17,28.18 626.83,28.11 626.57,28.10 583.29,28.10 583.55,28.11 583.20,28.10 582.86,28.14 582.52,28.24 582.21,28.39 581.92,28.58 581.67,28.82 581.46,29.10 581.30,29.41 581.19,29.74 581.13,30.08 581.13,30.26 581.13,40.01 581.13,39.84 581.13,40.19 581.19,40.53 581.30,40.86 581.46,41.17 581.67,41.44 581.92,41.68 582.21,41.88 582.52,42.03 582.86,42.13 583.20,42.17 " style="stroke-width: 0.53; stroke: #AF0DC7; fill: #FFFFFF;" clip-path="url(#cpNi45NzM4NXw3MTMuMDI2fDIwOS4yMjd8Ni45NzM4NQ==)"/>
  <g clip-path="url(#cpNi45NzM4NXw3MTMuMDI2fDIwOS4yMjd8Ni45NzM4NQ==)">
    <text x="584.73" y="38.57" style="font-size: 9.96px; fill: #AF0DC7; font-family: Liberation Sans;" textLength="40.40px" lengthAdjust="spacingAndGlyphs">HopLand</text>
  </g>
  <polyline points="519.85,29.75 566.99,29.75 566.90,29.75 567.25,29.74 567.59,29.67 567.91,29.54 568.22,29.37 568.49,29.15 568.72,28.89 568.90,28.60 569.04,28.28 569.12,27.94 569.15,27.59 569.15,27.59 569.15,17.84 569.15,17.84 569.12,17.49 569.04,17.15 568.90,16.83 568.72,16.54 568.49,16.28 568.22,16.06 567.91,15.89 567.59,15.76 567.25,15.69 566.99,15.68 519.85,15.68 520.11,15.69 519.77,15.68 519.42,15.72 519.09,15.82 518.77,15.97 518.49,16.17 518.24,16.41 518.03,16.68 517.87,16.99 517.76,17.32 517.70,17.66 517.69,17.84 517.69,27.59 517.70,27.42 517.70,27.77 517.76,28.11 517.87,28.44 518.03,28.75 518.24,29.03 518.49,29.27 518.77,29.46 519.09,29.61 519.42,29.71 519.77,29.75 " style="stroke-width: 0.53; stroke: #5ECD2E; fill: #FFFFFF;" clip-path="url(#cpNi45NzM4NXw3MTMuMDI2fDIwOS4yMjd8Ni45NzM4NQ==)"/>
  <g clip-path="url(#cpNi45NzM4NXw3MTMuMDI2fDIwOS4yMjd8Ni45NzM4NQ==)">
    <text x="521.29" y="26.15" style="font-size: 9.96px; fill: #5ECD2E; font-family: Liberation Sans;" textLength="44.25px" lengthAdjust="spacingAndGlyphs">Granatum</text>
  </g>
  <polyline points="546.94,52.93 589.11,52.93 589.02,52.93 589.37,52.91 589.71,52.84 590.03,52.72 590.33,52.54 590.60,52.32 590.83,52.06 591.02,51.77 591.15,51.45 591.24,51.11 591.27,50.77 591.27,50.77 591.27,41.01 591.27,41.01 591.24,40.67 591.15,40.33 591.02,40.01 590.83,39.71 590.60,39.45 590.33,39.23 590.03,39.06 589.71,38.94 589.37,38.87 589.11,38.85 546.94,38.85 547.20,38.87 546.86,38.85 546.51,38.90 546.18,38.99 545.86,39.14 545.58,39.34 545.33,39.58 545.12,39.86 544.96,40.17 544.85,40.49 544.79,40.84 544.78,41.01 544.78,50.77 544.79,50.59 544.79,50.94 544.85,51.28 544.96,51.61 545.12,51.92 545.33,52.20 545.58,52.44 545.86,52.64 546.18,52.79 546.51,52.88 546.86,52.93 " style="stroke-width: 0.53; stroke: #5ECD2E; fill: #FFFFFF;" clip-path="url(#cpNi45NzM4NXw3MTMuMDI2fDIwOS4yMjd8Ni45NzM4NQ==)"/>
  <g clip-path="url(#cpNi45NzM4NXw3MTMuMDI2fDIwOS4yMjd8Ni45NzM4NQ==)">
    <text x="548.38" y="49.33" style="font-size: 9.96px; fill: #5ECD2E; font-family: Liberation Sans;" textLength="39.28px" lengthAdjust="spacingAndGlyphs">slingshot</text>
  </g>
  <polyline points="540.70,124.18 564.59,124.18 564.51,124.18 564.85,124.16 565.19,124.09 565.52,123.97 565.82,123.80 566.09,123.58 566.32,123.32 566.50,123.02 566.64,122.70 566.72,122.37 566.75,122.02 566.75,122.02 566.75,112.27 566.75,112.27 566.72,111.92 566.64,111.58 566.50,111.26 566.32,110.97 566.09,110.71 565.82,110.49 565.52,110.31 565.19,110.19 564.85,110.12 564.59,110.11 540.70,110.11 540.96,110.12 540.62,110.11 540.27,110.15 539.94,110.25 539.62,110.39 539.34,110.59 539.09,110.83 538.88,111.11 538.72,111.42 538.61,111.75 538.55,112.09 538.54,112.27 538.54,122.02 538.55,121.85 538.55,122.19 538.61,122.54 538.72,122.87 538.88,123.17 539.09,123.45 539.34,123.69 539.62,123.89 539.94,124.04 540.27,124.14 540.62,124.18 " style="stroke-width: 0.53; stroke: #CFBF00; fill: #FFFFFF;" clip-path="url(#cpNi45NzM4NXw3MTMuMDI2fDIwOS4yMjd8Ni45NzM4NQ==)"/>
  <g clip-path="url(#cpNi45NzM4NXw3MTMuMDI2fDIwOS4yMjd8Ni45NzM4NQ==)">
    <text x="542.14" y="120.58" style="font-size: 9.96px; fill: #CFBF00; font-family: Liberation Sans;" textLength="21.01px" lengthAdjust="spacingAndGlyphs">MFA</text>
  </g>
  <polyline points="456.26,61.40 506.69,61.40 506.61,61.40 506.95,61.38 507.29,61.31 507.62,61.19 507.92,61.02 508.19,60.80 508.42,60.54 508.61,60.24 508.74,59.92 508.82,59.59 508.85,59.24 508.85,59.24 508.85,49.48 508.85,49.48 508.82,49.14 508.74,48.80 508.61,48.48 508.42,48.19 508.19,47.93 507.92,47.71 507.62,47.53 507.29,47.41 506.95,47.34 506.69,47.32 456.26,47.32 456.52,47.34 456.17,47.33 455.83,47.37 455.49,47.47 455.18,47.61 454.89,47.81 454.64,48.05 454.43,48.33 454.27,48.64 454.16,48.97 454.11,49.31 454.10,49.48 454.10,59.24 454.11,59.07 454.11,59.41 454.16,59.76 454.27,60.09 454.43,60.39 454.64,60.67 454.89,60.91 455.18,61.11 455.49,61.26 455.83,61.36 456.17,61.40 " style="stroke-width: 0.53; stroke: #AF0DC7; fill: #FFFFFF;" clip-path="url(#cpNi45NzM4NXw3MTMuMDI2fDIwOS4yMjd8Ni45NzM4NQ==)"/>
  <g clip-path="url(#cpNi45NzM4NXw3MTMuMDI2fDIwOS4yMjd8Ni45NzM4NQ==)">
    <text x="457.70" y="57.80" style="font-size: 9.96px; fill: #AF0DC7; font-family: Liberation Sans;" textLength="47.55px" lengthAdjust="spacingAndGlyphs">SCIMITAR</text>
  </g>
  <polyline points="644.35,158.30 692.03,158.30 691.95,158.29 692.29,158.28 692.63,158.21 692.96,158.09 693.26,157.91 693.53,157.69 693.76,157.43 693.95,157.14 694.08,156.82 694.17,156.48 694.19,156.14 694.19,156.14 694.19,146.38 694.19,146.38 694.17,146.03 694.08,145.70 693.95,145.38 693.76,145.08 693.53,144.82 693.26,144.60 692.96,144.43 692.63,144.31 692.29,144.24 692.03,144.22 644.35,144.22 644.61,144.24 644.26,144.22 643.92,144.26 643.58,144.36 643.27,144.51 642.98,144.71 642.73,144.95 642.52,145.23 642.36,145.53 642.25,145.86 642.20,146.21 642.19,146.38 642.19,156.14 642.20,155.96 642.20,156.31 642.25,156.65 642.36,156.98 642.52,157.29 642.73,157.57 642.98,157.81 643.27,158.01 643.58,158.15 643.92,158.25 644.26,158.29 " style="stroke-width: 0.53; stroke: #CFBF00; fill: #FFFFFF;" clip-path="url(#cpNi45NzM4NXw3MTMuMDI2fDIwOS4yMjd8Ni45NzM4NQ==)"/>
  <g clip-path="url(#cpNi45NzM4NXw3MTMuMDI2fDIwOS4yMjd8Ni45NzM4NQ==)">
    <text x="645.79" y="154.70" style="font-size: 9.96px; fill: #CFBF00; font-family: Liberation Sans;" textLength="44.80px" lengthAdjust="spacingAndGlyphs">GrandPrix</text>
  </g>
  <polyline points="410.29,82.41 456.89,82.41 456.80,82.41 457.15,82.40 457.49,82.33 457.81,82.20 458.11,82.03 458.38,81.81 458.61,81.55 458.80,81.26 458.93,80.94 459.02,80.60 459.05,80.25 459.05,80.25 459.05,70.50 459.05,70.50 459.02,70.15 458.93,69.81 458.80,69.49 458.61,69.20 458.38,68.94 458.11,68.72 457.81,68.55 457.49,68.42 457.15,68.35 456.89,68.34 410.29,68.34 410.55,68.35 410.20,68.34 409.86,68.38 409.52,68.48 409.21,68.63 408.92,68.82 408.67,69.06 408.47,69.34 408.30,69.65 408.19,69.98 408.14,70.32 408.13,70.50 408.13,80.25 408.14,80.08 408.14,80.43 408.19,80.77 408.30,81.10 408.47,81.41 408.67,81.68 408.92,81.92 409.21,82.12 409.52,82.27 409.86,82.37 410.20,82.41 " style="stroke-width: 0.53; stroke: #AF0DC7; fill: #FFFFFF;" clip-path="url(#cpNi45NzM4NXw3MTMuMDI2fDIwOS4yMjd8Ni45NzM4NQ==)"/>
  <g clip-path="url(#cpNi45NzM4NXw3MTMuMDI2fDIwOS4yMjd8Ni45NzM4NQ==)">
    <text x="411.73" y="78.81" style="font-size: 9.96px; fill: #AF0DC7; font-family: Liberation Sans;" textLength="43.72px" lengthAdjust="spacingAndGlyphs">DeLorean</text>
  </g>
  <polyline points="639.99,181.96 663.89,181.96 663.80,181.96 664.15,181.94 664.49,181.87 664.81,181.75 665.11,181.58 665.38,181.36 665.61,181.10 665.80,180.80 665.94,180.48 666.02,180.15 666.05,179.80 666.05,179.80 666.05,170.04 666.05,170.04 666.02,169.70 665.94,169.36 665.80,169.04 665.61,168.75 665.38,168.49 665.11,168.27 664.81,168.09 664.49,167.97 664.15,167.90 663.89,167.88 639.99,167.88 640.25,167.90 639.90,167.89 639.56,167.93 639.22,168.02 638.91,168.17 638.62,168.37 638.37,168.61 638.16,168.89 638.00,169.20 637.89,169.53 637.83,169.87 637.83,170.04 637.83,179.80 637.83,179.63 637.83,179.97 637.89,180.32 638.00,180.65 638.16,180.95 638.37,181.23 638.62,181.47 638.91,181.67 639.22,181.82 639.56,181.92 639.90,181.96 " style="stroke-width: 0.53; stroke: #FF4237; fill: #FFFFFF;" clip-path="url(#cpNi45NzM4NXw3MTMuMDI2fDIwOS4yMjd8Ni45NzM4NQ==)"/>
  <g clip-path="url(#cpNi45NzM4NXw3MTMuMDI2fDIwOS4yMjd8Ni45NzM4NQ==)">
    <text x="641.43" y="178.36" style="font-size: 9.96px; fill: #FF4237; font-family: Liberation Sans;" textLength="21.02px" lengthAdjust="spacingAndGlyphs">AGA</text>
  </g>
  <polyline points="592.49,159.59 629.67,159.59 629.58,159.59 629.93,159.57 630.27,159.50 630.60,159.38 630.90,159.21 631.17,158.99 631.40,158.73 631.58,158.43 631.72,158.11 631.80,157.78 631.83,157.43 631.83,157.43 631.83,147.67 631.83,147.67 631.80,147.33 631.72,146.99 631.58,146.67 631.40,146.38 631.17,146.12 630.90,145.90 630.60,145.72 630.27,145.60 629.93,145.53 629.67,145.51 592.49,145.51 592.75,145.53 592.40,145.52 592.06,145.56 591.72,145.65 591.41,145.80 591.12,146.00 590.87,146.24 590.66,146.52 590.50,146.83 590.39,147.16 590.34,147.50 590.33,147.67 590.33,157.43 590.34,157.26 590.34,157.60 590.39,157.95 590.50,158.28 590.66,158.58 590.87,158.86 591.12,159.10 591.41,159.30 591.72,159.45 592.06,159.55 592.40,159.59 " style="stroke-width: 0.53; stroke: #AF0DC7; fill: #FFFFFF;" clip-path="url(#cpNi45NzM4NXw3MTMuMDI2fDIwOS4yMjd8Ni45NzM4NQ==)"/>
  <g clip-path="url(#cpNi45NzM4NXw3MTMuMDI2fDIwOS4yMjd8Ni45NzM4NQ==)">
    <text x="593.93" y="155.99" style="font-size: 9.96px; fill: #AF0DC7; font-family: Liberation Sans;" textLength="34.30px" lengthAdjust="spacingAndGlyphs">SoptSC</text>
  </g>
  <polyline points="576.22,86.90 628.36,86.90 628.27,86.90 628.62,86.89 628.96,86.82 629.29,86.69 629.59,86.52 629.86,86.30 630.09,86.04 630.27,85.75 630.41,85.43 630.49,85.09 630.52,84.74 630.52,84.74 630.52,74.99 630.52,74.99 630.49,74.64 630.41,74.30 630.27,73.98 630.09,73.69 629.86,73.43 629.59,73.21 629.29,73.04 628.96,72.91 628.62,72.84 628.36,72.83 576.22,72.83 576.48,72.84 576.14,72.83 575.79,72.87 575.46,72.97 575.14,73.12 574.86,73.32 574.61,73.56 574.40,73.83 574.24,74.14 574.13,74.47 574.07,74.81 574.06,74.99 574.06,84.74 574.07,84.57 574.07,84.92 574.13,85.26 574.24,85.59 574.40,85.90 574.61,86.18 574.86,86.42 575.14,86.61 575.46,86.76 575.79,86.86 576.14,86.90 " style="stroke-width: 0.53; stroke: #AF0DC7; fill: #FFFFFF;" clip-path="url(#cpNi45NzM4NXw3MTMuMDI2fDIwOS4yMjd8Ni45NzM4NQ==)"/>
  <g clip-path="url(#cpNi45NzM4NXw3MTMuMDI2fDIwOS4yMjd8Ni45NzM4NQ==)">
    <text x="577.66" y="83.30" style="font-size: 9.96px; fill: #AF0DC7; font-family: Liberation Sans;" textLength="49.26px" lengthAdjust="spacingAndGlyphs">PhenoPath</text>
  </g>
  <polyline points="518.58,73.62 567.38,73.62 567.30,73.62 567.64,73.60 567.98,73.53 568.31,73.41 568.61,73.24 568.88,73.02 569.11,72.76 569.30,72.46 569.43,72.14 569.52,71.80 569.54,71.46 569.54,71.46 569.54,61.70 569.54,61.70 569.52,61.36 569.43,61.02 569.30,60.70 569.11,60.41 568.88,60.15 568.61,59.93 568.31,59.75 567.98,59.63 567.64,59.56 567.38,59.54 518.58,59.54 518.84,59.56 518.49,59.54 518.15,59.59 517.82,59.68 517.50,59.83 517.22,60.03 516.96,60.27 516.76,60.55 516.59,60.86 516.48,61.19 516.43,61.53 516.42,61.70 516.42,71.46 516.43,71.28 516.43,71.63 516.48,71.98 516.59,72.30 516.76,72.61 516.96,72.89 517.22,73.13 517.50,73.33 517.82,73.48 518.15,73.57 518.49,73.62 " style="stroke-width: 0.53; stroke: #5ECD2E; fill: #FFFFFF;" clip-path="url(#cpNi45NzM4NXw3MTMuMDI2fDIwOS4yMjd8Ni45NzM4NQ==)"/>
  <g clip-path="url(#cpNi45NzM4NXw3MTMuMDI2fDIwOS4yMjd8Ni45NzM4NQ==)">
    <text x="520.02" y="70.02" style="font-size: 9.96px; fill: #5ECD2E; font-family: Liberation Sans;" textLength="45.92px" lengthAdjust="spacingAndGlyphs">Monocle 2</text>
  </g>
  <polyline points="600.02,66.50 634.44,66.50 634.35,66.50 634.70,66.48 635.04,66.42 635.36,66.29 635.66,66.12 635.93,65.90 636.16,65.64 636.35,65.34 636.49,65.02 636.57,64.69 636.60,64.34 636.60,64.34 636.60,54.59 636.60,54.59 636.57,54.24 636.49,53.90 636.35,53.58 636.16,53.29 635.93,53.03 635.66,52.81 635.36,52.63 635.04,52.51 634.70,52.44 634.44,52.43 600.02,52.43 600.28,52.44 599.93,52.43 599.59,52.47 599.26,52.57 598.94,52.72 598.66,52.91 598.40,53.15 598.20,53.43 598.03,53.74 597.92,54.07 597.87,54.41 597.86,54.59 597.86,64.34 597.87,64.17 597.87,64.51 597.92,64.86 598.03,65.19 598.20,65.50 598.40,65.77 598.66,66.01 598.94,66.21 599.26,66.36 599.59,66.46 599.93,66.50 " style="stroke-width: 0.53; stroke: #0073D7; fill: #FFFFFF;" clip-path="url(#cpNi45NzM4NXw3MTMuMDI2fDIwOS4yMjd8Ni45NzM4NQ==)"/>
  <g clip-path="url(#cpNi45NzM4NXw3MTMuMDI2fDIwOS4yMjd8Ni45NzM4NQ==)">
    <text x="601.46" y="62.90" style="font-size: 9.96px; fill: #0073D7; font-family: Liberation Sans;" textLength="31.54px" lengthAdjust="spacingAndGlyphs">scanpy</text>
  </g>
  <polyline points="474.59,141.94 511.20,141.94 511.12,141.93 511.47,141.92 511.81,141.85 512.13,141.73 512.43,141.55 512.70,141.33 512.93,141.07 513.12,140.78 513.25,140.46 513.34,140.12 513.36,139.78 513.36,139.78 513.36,130.02 513.36,130.02 513.34,129.67 513.25,129.34 513.12,129.02 512.93,128.72 512.70,128.46 512.43,128.24 512.13,128.07 511.81,127.95 511.47,127.88 511.20,127.86 474.59,127.86 474.85,127.88 474.50,127.86 474.16,127.90 473.83,128.00 473.51,128.15 473.23,128.35 472.98,128.59 472.77,128.87 472.60,129.17 472.49,129.50 472.44,129.85 472.43,130.02 472.43,139.78 472.44,139.60 472.44,139.95 472.49,140.29 472.60,140.62 472.77,140.93 472.98,141.21 473.23,141.45 473.51,141.65 473.83,141.80 474.16,141.89 474.50,141.93 " style="stroke-width: 0.53; stroke: #AF0DC7; fill: #FFFFFF;" clip-path="url(#cpNi45NzM4NXw3MTMuMDI2fDIwOS4yMjd8Ni45NzM4NQ==)"/>
  <g clip-path="url(#cpNi45NzM4NXw3MTMuMDI2fDIwOS4yMjd8Ni45NzM4NQ==)">
    <text x="476.03" y="138.34" style="font-size: 9.96px; fill: #AF0DC7; font-family: Liberation Sans;" textLength="33.73px" lengthAdjust="spacingAndGlyphs">SCENT</text>
  </g>
  <polyline points="601.77,180.19 625.66,180.19 625.58,180.19 625.92,180.18 626.27,180.11 626.59,179.98 626.89,179.81 627.16,179.59 627.39,179.33 627.58,179.04 627.71,178.72 627.80,178.38 627.82,178.03 627.82,178.03 627.82,168.28 627.82,168.28 627.80,167.93 627.71,167.59 627.58,167.27 627.39,166.98 627.16,166.72 626.89,166.50 626.59,166.32 626.27,166.20 625.92,166.13 625.66,166.12 601.77,166.12 602.03,166.13 601.68,166.12 601.33,166.16 601.00,166.26 600.69,166.41 600.40,166.60 600.15,166.84 599.94,167.12 599.78,167.43 599.67,167.76 599.61,168.10 599.61,168.28 599.61,178.03 599.61,177.86 599.61,178.21 599.67,178.55 599.78,178.88 599.94,179.19 600.15,179.46 600.40,179.70 600.69,179.90 601.00,180.05 601.33,180.15 601.68,180.19 " style="stroke-width: 0.53; stroke: #0073D7; fill: #FFFFFF;" clip-path="url(#cpNi45NzM4NXw3MTMuMDI2fDIwOS4yMjd8Ni45NzM4NQ==)"/>
  <g clip-path="url(#cpNi45NzM4NXw3MTMuMDI2fDIwOS4yMjd8Ni45NzM4NQ==)">
    <text x="603.21" y="176.59" style="font-size: 9.96px; fill: #0073D7; font-family: Liberation Sans;" textLength="21.02px" lengthAdjust="spacingAndGlyphs">BGP</text>
  </g>
  <polyline points="564.30,103.53 608.65,103.53 608.57,103.53 608.91,103.51 609.25,103.44 609.58,103.32 609.88,103.15 610.15,102.93 610.38,102.67 610.57,102.37 610.70,102.05 610.79,101.72 610.81,101.37 610.81,101.37 610.81,91.61 610.81,91.61 610.79,91.27 610.70,90.93 610.57,90.61 610.38,90.32 610.15,90.06 609.88,89.84 609.58,89.66 609.25,89.54 608.91,89.47 608.65,89.45 564.30,89.45 564.56,89.47 564.21,89.46 563.87,89.50 563.53,89.59 563.22,89.74 562.93,89.94 562.68,90.18 562.47,90.46 562.31,90.77 562.20,91.10 562.15,91.44 562.14,91.61 562.14,101.37 562.15,101.20 562.15,101.54 562.20,101.89 562.31,102.22 562.47,102.52 562.68,102.80 562.93,103.04 563.22,103.24 563.53,103.39 563.87,103.49 564.21,103.53 " style="stroke-width: 0.53; stroke: #AF0DC7; fill: #FFFFFF;" clip-path="url(#cpNi45NzM4NXw3MTMuMDI2fDIwOS4yMjd8Ni45NzM4NQ==)"/>
  <g clip-path="url(#cpNi45NzM4NXw3MTMuMDI2fDIwOS4yMjd8Ni45NzM4NQ==)">
    <text x="565.74" y="99.93" style="font-size: 9.96px; fill: #AF0DC7; font-family: Liberation Sans;" textLength="41.47px" lengthAdjust="spacingAndGlyphs">UNCURL</text>
  </g>
  <polyline points="545.34,152.02 577.53,152.02 577.44,152.02 577.79,152.01 578.13,151.94 578.46,151.81 578.76,151.64 579.03,151.42 579.26,151.16 579.44,150.87 579.58,150.55 579.66,150.21 579.69,149.86 579.69,149.86 579.69,140.11 579.69,140.11 579.66,139.76 579.58,139.42 579.44,139.10 579.26,138.81 579.03,138.55 578.76,138.33 578.46,138.15 578.13,138.03 577.79,137.96 577.53,137.95 545.34,137.95 545.60,137.96 545.25,137.95 544.91,137.99 544.57,138.09 544.26,138.24 543.97,138.43 543.72,138.67 543.51,138.95 543.35,139.26 543.24,139.59 543.19,139.93 543.18,140.11 543.18,149.86 543.19,149.69 543.19,150.04 543.24,150.38 543.35,150.71 543.51,151.02 543.72,151.29 543.97,151.53 544.26,151.73 544.57,151.88 544.91,151.98 545.25,152.02 " style="stroke-width: 0.53; stroke: #5ECD2E; fill: #FFFFFF;" clip-path="url(#cpNi45NzM4NXw3MTMuMDI2fDIwOS4yMjd8Ni45NzM4NQ==)"/>
  <g clip-path="url(#cpNi45NzM4NXw3MTMuMDI2fDIwOS4yMjd8Ni45NzM4NQ==)">
    <text x="546.78" y="148.42" style="font-size: 9.96px; fill: #5ECD2E; font-family: Liberation Sans;" textLength="29.31px" lengthAdjust="spacingAndGlyphs">TASIC</text>
  </g>
  <polyline points="417.31,100.03 453.38,100.03 453.29,100.03 453.64,100.02 453.98,99.95 454.30,99.82 454.60,99.65 454.87,99.43 455.10,99.17 455.29,98.88 455.43,98.56 455.51,98.22 455.54,97.87 455.54,97.87 455.54,88.12 455.54,88.12 455.51,87.77 455.43,87.43 455.29,87.11 455.10,86.82 454.87,86.56 454.60,86.34 454.30,86.17 453.98,86.04 453.64,85.97 453.38,85.96 417.31,85.96 417.57,85.97 417.23,85.96 416.88,86.00 416.55,86.10 416.23,86.25 415.95,86.45 415.70,86.69 415.49,86.96 415.33,87.27 415.22,87.60 415.16,87.94 415.15,88.12 415.15,97.87 415.16,97.70 415.16,98.05 415.22,98.39 415.33,98.72 415.49,99.03 415.70,99.31 415.95,99.55 416.23,99.74 416.55,99.89 416.88,99.99 417.23,100.03 " style="stroke-width: 0.53; stroke: #5ECD2E; fill: #FFFFFF;" clip-path="url(#cpNi45NzM4NXw3MTMuMDI2fDIwOS4yMjd8Ni45NzM4NQ==)"/>
  <g clip-path="url(#cpNi45NzM4NXw3MTMuMDI2fDIwOS4yMjd8Ni45NzM4NQ==)">
    <text x="418.75" y="96.43" style="font-size: 9.96px; fill: #5ECD2E; font-family: Liberation Sans;" textLength="33.18px" lengthAdjust="spacingAndGlyphs">StemID</text>
  </g>
  <polyline points="520.60,168.74 558.33,168.74 558.25,168.74 558.59,168.72 558.93,168.65 559.26,168.53 559.56,168.36 559.83,168.14 560.06,167.88 560.25,167.58 560.38,167.26 560.46,166.92 560.49,166.58 560.49,166.58 560.49,156.82 560.49,156.82 560.46,156.48 560.38,156.14 560.25,155.82 560.06,155.53 559.83,155.27 559.56,155.05 559.26,154.87 558.93,154.75 558.59,154.68 558.33,154.66 520.60,154.66 520.86,154.68 520.52,154.67 520.17,154.71 519.84,154.80 519.52,154.95 519.24,155.15 518.99,155.39 518.78,155.67 518.62,155.98 518.51,156.31 518.45,156.65 518.44,156.82 518.44,166.58 518.45,166.40 518.45,166.75 518.51,167.10 518.62,167.43 518.78,167.73 518.99,168.01 519.24,168.25 519.52,168.45 519.84,168.60 520.17,168.69 520.52,168.74 " style="stroke-width: 0.53; stroke: #AF0DC7; fill: #FFFFFF;" clip-path="url(#cpNi45NzM4NXw3MTMuMDI2fDIwOS4yMjd8Ni45NzM4NQ==)"/>
  <g clip-path="url(#cpNi45NzM4NXw3MTMuMDI2fDIwOS4yMjd8Ni45NzM4NQ==)">
    <text x="522.04" y="165.14" style="font-size: 9.96px; fill: #AF0DC7; font-family: Liberation Sans;" textLength="34.85px" lengthAdjust="spacingAndGlyphs">topslam</text>
  </g>
  <polyline points="282.40,134.02 342.27,134.02 342.18,134.02 342.53,134.00 342.87,133.93 343.19,133.81 343.50,133.64 343.76,133.42 344.00,133.16 344.18,132.86 344.32,132.54 344.40,132.21 344.43,131.86 344.43,131.86 344.43,122.10 344.43,122.10 344.40,121.76 344.32,121.42 344.18,121.10 344.00,120.81 343.76,120.55 343.50,120.33 343.19,120.15 342.87,120.03 342.53,119.96 342.27,119.94 282.40,119.94 282.66,119.96 282.31,119.95 281.96,119.99 281.63,120.09 281.32,120.23 281.03,120.43 280.78,120.67 280.57,120.95 280.41,121.26 280.30,121.59 280.24,121.93 280.24,122.10 280.24,131.86 280.24,131.69 280.24,132.03 280.30,132.38 280.41,132.71 280.57,133.01 280.78,133.29 281.03,133.53 281.32,133.73 281.63,133.88 281.96,133.98 282.31,134.02 " style="stroke-width: 0.53; stroke: #AF0DC7; fill: #FFFFFF;" clip-path="url(#cpNi45NzM4NXw3MTMuMDI2fDIwOS4yMjd8Ni45NzM4NQ==)"/>
  <g clip-path="url(#cpNi45NzM4NXw3MTMuMDI2fDIwOS4yMjd8Ni45NzM4NQ==)">
    <text x="283.84" y="130.42" style="font-size: 9.96px; fill: #AF0DC7; font-family: Liberation Sans;" textLength="56.99px" lengthAdjust="spacingAndGlyphs">gpseudotime</text>
  </g>
  <polyline points="292.57,156.07 334.73,156.07 334.64,156.07 334.99,156.05 335.33,155.99 335.66,155.86 335.96,155.69 336.23,155.47 336.46,155.21 336.64,154.91 336.78,154.59 336.86,154.26 336.89,153.91 336.89,153.91 336.89,144.16 336.89,144.16 336.86,143.81 336.78,143.47 336.64,143.15 336.46,142.86 336.23,142.60 335.96,142.38 335.66,142.20 335.33,142.08 334.99,142.01 334.73,142.00 292.57,142.00 292.83,142.01 292.48,142.00 292.14,142.04 291.80,142.14 291.49,142.28 291.20,142.48 290.95,142.72 290.74,143.00 290.58,143.31 290.47,143.64 290.42,143.98 290.41,144.16 290.41,153.91 290.42,153.74 290.42,154.08 290.47,154.43 290.58,154.76 290.74,155.06 290.95,155.34 291.20,155.58 291.49,155.78 291.80,155.93 292.14,156.03 292.48,156.07 " style="stroke-width: 0.53; stroke: #AF0DC7; fill: #FFFFFF;" clip-path="url(#cpNi45NzM4NXw3MTMuMDI2fDIwOS4yMjd8Ni45NzM4NQ==)"/>
  <g clip-path="url(#cpNi45NzM4NXw3MTMuMDI2fDIwOS4yMjd8Ni45NzM4NQ==)">
    <text x="294.01" y="152.47" style="font-size: 9.96px; fill: #AF0DC7; font-family: Liberation Sans;" textLength="39.28px" lengthAdjust="spacingAndGlyphs">embeddr</text>
  </g>
  <polyline points="54.21,180.94 103.01,180.94 102.92,180.94 103.27,180.92 103.61,180.85 103.93,180.73 104.23,180.55 104.50,180.34 104.73,180.07 104.92,179.78 105.06,179.46 105.14,179.12 105.17,178.78 105.17,178.78 105.17,169.02 105.17,169.02 105.14,168.68 105.06,168.34 104.92,168.02 104.73,167.72 104.50,167.46 104.23,167.24 103.93,167.07 103.61,166.95 103.27,166.88 103.01,166.86 54.21,166.86 54.47,166.88 54.12,166.86 53.77,166.91 53.44,167.00 53.13,167.15 52.84,167.35 52.59,167.59 52.38,167.87 52.22,168.18 52.11,168.51 52.05,168.85 52.05,169.02 52.05,178.78 52.05,178.60 52.05,178.95 52.11,179.29 52.22,179.62 52.38,179.93 52.59,180.21 52.84,180.45 53.13,180.65 53.44,180.80 53.77,180.89 54.12,180.94 " style="stroke-width: 0.53; stroke: #5ECD2E; fill: #FFFFFF;" clip-path="url(#cpNi45NzM4NXw3MTMuMDI2fDIwOS4yMjd8Ni45NzM4NQ==)"/>
  <g clip-path="url(#cpNi45NzM4NXw3MTMuMDI2fDIwOS4yMjd8Ni45NzM4NQ==)">
    <text x="55.65" y="177.34" style="font-size: 9.96px; fill: #5ECD2E; font-family: Liberation Sans;" textLength="45.92px" lengthAdjust="spacingAndGlyphs">Monocle 1</text>
  </g>
  <polyline points="389.81,61.23 436.95,61.23 436.86,61.23 437.21,61.22 437.55,61.15 437.87,61.03 438.18,60.85 438.44,60.63 438.68,60.37 438.86,60.08 439.00,59.76 439.08,59.42 439.11,59.07 439.11,59.07 439.11,49.32 439.11,49.32 439.08,48.97 439.00,48.63 438.86,48.31 438.68,48.02 438.44,47.76 438.18,47.54 437.87,47.37 437.55,47.24 437.21,47.17 436.95,47.16 389.81,47.16 390.07,47.17 389.72,47.16 389.38,47.20 389.04,47.30 388.73,47.45 388.44,47.65 388.19,47.89 387.98,48.16 387.82,48.47 387.71,48.80 387.66,49.14 387.65,49.32 387.65,59.07 387.66,58.90 387.66,59.25 387.71,59.59 387.82,59.92 387.98,60.23 388.19,60.51 388.44,60.75 388.73,60.94 389.04,61.09 389.38,61.19 389.72,61.23 " style="stroke-width: 0.53; stroke: #0073D7; fill: #FFFFFF;" clip-path="url(#cpNi45NzM4NXw3MTMuMDI2fDIwOS4yMjd8Ni45NzM4NQ==)"/>
  <g clip-path="url(#cpNi45NzM4NXw3MTMuMDI2fDIwOS4yMjd8Ni45NzM4NQ==)">
    <text x="391.25" y="57.63" style="font-size: 9.96px; fill: #0073D7; font-family: Liberation Sans;" textLength="44.26px" lengthAdjust="spacingAndGlyphs">Wishbone</text>
  </g>
  <polyline points="345.20,177.50 384.03,177.50 383.94,177.50 384.29,177.48 384.63,177.41 384.96,177.29 385.26,177.12 385.53,176.90 385.76,176.64 385.94,176.34 386.08,176.02 386.16,175.69 386.19,175.34 386.19,175.34 386.19,165.58 386.19,165.58 386.16,165.24 386.08,164.90 385.94,164.58 385.76,164.29 385.53,164.03 385.26,163.81 384.96,163.63 384.63,163.51 384.29,163.44 384.03,163.42 345.20,163.42 345.46,163.44 345.11,163.43 344.76,163.47 344.43,163.56 344.12,163.71 343.83,163.91 343.58,164.15 343.37,164.43 343.21,164.74 343.10,165.07 343.04,165.41 343.04,165.58 343.04,175.34 343.04,175.17 343.04,175.51 343.10,175.86 343.21,176.19 343.37,176.49 343.58,176.77 343.83,177.01 344.12,177.21 344.43,177.36 344.76,177.46 345.11,177.50 " style="stroke-width: 0.53; stroke: #5ECD2E; fill: #FFFFFF;" clip-path="url(#cpNi45NzM4NXw3MTMuMDI2fDIwOS4yMjd8Ni45NzM4NQ==)"/>
  <g clip-path="url(#cpNi45NzM4NXw3MTMuMDI2fDIwOS4yMjd8Ni45NzM4NQ==)">
    <text x="346.64" y="173.90" style="font-size: 9.96px; fill: #5ECD2E; font-family: Liberation Sans;" textLength="35.95px" lengthAdjust="spacingAndGlyphs">ECLAIR</text>
  </g>
  <polyline points="527.96,184.90 566.79,184.90 566.71,184.90 567.06,184.89 567.40,184.82 567.72,184.69 568.02,184.52 568.29,184.30 568.52,184.04 568.71,183.75 568.84,183.43 568.93,183.09 568.95,182.74 568.95,182.74 568.95,172.99 568.95,172.99 568.93,172.64 568.84,172.30 568.71,171.98 568.52,171.69 568.29,171.43 568.02,171.21 567.72,171.04 567.40,170.91 567.06,170.84 566.79,170.83 527.96,170.83 528.22,170.84 527.87,170.83 527.52,170.87 527.19,170.97 526.88,171.12 526.59,171.31 526.34,171.56 526.13,171.83 525.97,172.14 525.86,172.47 525.80,172.81 525.80,172.99 525.80,182.74 525.80,182.57 525.80,182.92 525.86,183.26 525.97,183.59 526.13,183.90 526.34,184.18 526.59,184.42 526.88,184.61 527.19,184.76 527.52,184.86 527.87,184.90 " style="stroke-width: 0.53; stroke: #CFBF00; fill: #FFFFFF;" clip-path="url(#cpNi45NzM4NXw3MTMuMDI2fDIwOS4yMjd8Ni45NzM4NQ==)"/>
  <g clip-path="url(#cpNi45NzM4NXw3MTMuMDI2fDIwOS4yMjd8Ni45NzM4NQ==)">
    <text x="529.40" y="181.30" style="font-size: 9.96px; fill: #CFBF00; font-family: Liberation Sans;" textLength="35.96px" lengthAdjust="spacingAndGlyphs">GPfates</text>
  </g>
  <polyline points="434.34,120.76 486.44,120.76 486.35,120.76 486.70,120.75 487.04,120.68 487.36,120.55 487.67,120.38 487.93,120.16 488.17,119.90 488.35,119.61 488.49,119.29 488.57,118.95 488.60,118.60 488.60,118.60 488.60,108.85 488.60,108.85 488.57,108.50 488.49,108.16 488.35,107.84 488.17,107.55 487.93,107.29 487.67,107.07 487.36,106.90 487.04,106.77 486.70,106.70 486.44,106.69 434.34,106.69 434.60,106.70 434.25,106.69 433.90,106.73 433.57,106.83 433.26,106.98 432.97,107.17 432.72,107.41 432.51,107.69 432.35,108.00 432.24,108.33 432.18,108.67 432.18,108.85 432.18,118.60 432.18,118.43 432.18,118.78 432.24,119.12 432.35,119.45 432.51,119.76 432.72,120.03 432.97,120.27 433.26,120.47 433.57,120.62 433.90,120.72 434.25,120.76 " style="stroke-width: 0.53; stroke: #AF0DC7; fill: #FFFFFF;" clip-path="url(#cpNi45NzM4NXw3MTMuMDI2fDIwOS4yMjd8Ni45NzM4NQ==)"/>
  <g clip-path="url(#cpNi45NzM4NXw3MTMuMDI2fDIwOS4yMjd8Ni45NzM4NQ==)">
    <text x="435.78" y="117.16" style="font-size: 9.96px; fill: #AF0DC7; font-family: Liberation Sans;" textLength="49.22px" lengthAdjust="spacingAndGlyphs">WaveCrest</text>
  </g>
  <polyline points="499.04,203.58 530.69,203.58 530.60,203.58 530.95,203.56 531.29,203.49 531.61,203.37 531.91,203.20 532.18,202.98 532.41,202.72 532.60,202.42 532.74,202.10 532.82,201.77 532.85,201.42 532.85,201.42 532.85,191.66 532.85,191.66 532.82,191.32 532.74,190.98 532.60,190.66 532.41,190.37 532.18,190.11 531.91,189.89 531.61,189.71 531.29,189.59 530.95,189.52 530.69,189.50 499.04,189.50 499.30,189.52 498.96,189.51 498.61,189.55 498.28,189.64 497.96,189.79 497.68,189.99 497.43,190.23 497.22,190.51 497.05,190.82 496.94,191.15 496.89,191.49 496.88,191.66 496.88,201.42 496.89,201.25 496.89,201.59 496.94,201.94 497.05,202.27 497.22,202.57 497.43,202.85 497.68,203.09 497.96,203.29 498.28,203.44 498.61,203.54 498.96,203.58 " style="stroke-width: 0.53; stroke: #5ECD2E; fill: #FFFFFF;" clip-path="url(#cpNi45NzM4NXw3MTMuMDI2fDIwOS4yMjd8Ni45NzM4NQ==)"/>
  <g clip-path="url(#cpNi45NzM4NXw3MTMuMDI2fDIwOS4yMjd8Ni45NzM4NQ==)">
    <text x="500.48" y="199.98" style="font-size: 9.96px; fill: #5ECD2E; font-family: Liberation Sans;" textLength="28.77px" lengthAdjust="spacingAndGlyphs">SLICE</text>
  </g>
  <polyline points="455.36,163.46 510.23,163.46 510.14,163.46 510.49,163.44 510.83,163.37 511.15,163.25 511.45,163.08 511.72,162.86 511.95,162.60 512.14,162.30 512.28,161.98 512.36,161.65 512.39,161.30 512.39,161.30 512.39,151.55 512.39,151.55 512.36,151.20 512.28,150.86 512.14,150.54 511.95,150.25 511.72,149.99 511.45,149.77 511.15,149.59 510.83,149.47 510.49,149.40 510.23,149.39 455.36,149.39 455.62,149.40 455.27,149.39 454.93,149.43 454.59,149.53 454.28,149.67 453.99,149.87 453.74,150.11 453.53,150.39 453.37,150.70 453.26,151.03 453.21,151.37 453.20,151.55 453.20,161.30 453.21,161.13 453.21,161.47 453.26,161.82 453.37,162.15 453.53,162.45 453.74,162.73 453.99,162.97 454.28,163.17 454.59,163.32 454.93,163.42 455.27,163.46 " style="stroke-width: 0.53; stroke: #AF0DC7; fill: #FFFFFF;" clip-path="url(#cpNi45NzM4NXw3MTMuMDI2fDIwOS4yMjd8Ni45NzM4NQ==)"/>
  <g clip-path="url(#cpNi45NzM4NXw3MTMuMDI2fDIwOS4yMjd8Ni45NzM4NQ==)">
    <text x="456.80" y="159.86" style="font-size: 9.96px; fill: #AF0DC7; font-family: Liberation Sans;" textLength="51.99px" lengthAdjust="spacingAndGlyphs">SCORPIUS</text>
  </g>
  <polyline points="594.19,119.61 683.32,119.61 683.23,119.61 683.58,119.59 683.92,119.52 684.25,119.40 684.55,119.23 684.82,119.01 685.05,118.74 685.23,118.45 685.37,118.13 685.45,117.79 685.48,117.45 685.48,117.45 685.48,107.69 685.48,107.69 685.45,107.35 685.37,107.01 685.23,106.69 685.05,106.39 684.82,106.13 684.55,105.91 684.25,105.74 683.92,105.62 683.58,105.55 683.32,105.53 594.19,105.53 594.45,105.55 594.11,105.53 593.76,105.58 593.43,105.67 593.11,105.82 592.83,106.02 592.58,106.26 592.37,106.54 592.21,106.85 592.10,107.18 592.04,107.52 592.03,107.69 592.03,117.45 592.04,117.27 592.04,117.62 592.10,117.96 592.21,118.29 592.37,118.60 592.58,118.88 592.83,119.12 593.11,119.32 593.43,119.47 593.76,119.56 594.11,119.61 " style="stroke-width: 0.53; stroke: #FF8821; fill: #FFFFFF;" clip-path="url(#cpNi45NzM4NXw3MTMuMDI2fDIwOS4yMjd8Ni45NzM4NQ==)"/>
  <g clip-path="url(#cpNi45NzM4NXw3MTMuMDI2fDIwOS4yMjd8Ni45NzM4NQ==)">
    <text x="595.63" y="116.01" style="font-size: 9.96px; fill: #FF8821; font-family: Liberation Sans;" textLength="86.25px" lengthAdjust="spacingAndGlyphs">WADDINGTON-OT</text>
  </g>
  <polyline points="424.03,183.08 454.57,183.08 454.48,183.08 454.83,183.06 455.17,182.99 455.50,182.87 455.80,182.70 456.07,182.48 456.30,182.22 456.48,181.92 456.62,181.60 456.70,181.27 456.73,180.92 456.73,180.92 456.73,171.16 456.73,171.16 456.70,170.82 456.62,170.48 456.48,170.16 456.30,169.87 456.07,169.61 455.80,169.39 455.50,169.21 455.17,169.09 454.83,169.02 454.57,169.00 424.03,169.00 424.29,169.02 423.94,169.01 423.60,169.05 423.26,169.14 422.95,169.29 422.66,169.49 422.41,169.73 422.20,170.01 422.04,170.32 421.93,170.65 421.88,170.99 421.87,171.16 421.87,180.92 421.88,180.75 421.88,181.09 421.93,181.44 422.04,181.77 422.20,182.07 422.41,182.35 422.66,182.59 422.95,182.79 423.26,182.94 423.60,183.04 423.94,183.08 " style="stroke-width: 0.53; stroke: #5ECD2E; fill: #FFFFFF;" clip-path="url(#cpNi45NzM4NXw3MTMuMDI2fDIwOS4yMjd8Ni45NzM4NQ==)"/>
  <g clip-path="url(#cpNi45NzM4NXw3MTMuMDI2fDIwOS4yMjd8Ni45NzM4NQ==)">
    <text x="425.47" y="179.48" style="font-size: 9.96px; fill: #5ECD2E; font-family: Liberation Sans;" textLength="27.66px" lengthAdjust="spacingAndGlyphs">Mpath</text>
  </g>
  <polyline points="378.21,120.91 424.82,120.91 424.73,120.91 425.08,120.89 425.42,120.82 425.75,120.70 426.05,120.52 426.32,120.30 426.55,120.04 426.73,119.75 426.87,119.43 426.95,119.09 426.98,118.75 426.98,118.75 426.98,108.99 426.98,108.99 426.95,108.65 426.87,108.31 426.73,107.99 426.55,107.69 426.32,107.43 426.05,107.21 425.75,107.04 425.42,106.92 425.08,106.85 424.82,106.83 378.21,106.83 378.47,106.85 378.13,106.83 377.78,106.88 377.45,106.97 377.13,107.12 376.85,107.32 376.60,107.56 376.39,107.84 376.23,108.15 376.12,108.48 376.06,108.82 376.05,108.99 376.05,118.75 376.06,118.57 376.06,118.92 376.12,119.26 376.23,119.59 376.39,119.90 376.60,120.18 376.85,120.42 377.13,120.62 377.45,120.77 377.78,120.86 378.13,120.91 " style="stroke-width: 0.53; stroke: #AF0DC7; fill: #FFFFFF;" clip-path="url(#cpNi45NzM4NXw3MTMuMDI2fDIwOS4yMjd8Ni45NzM4NQ==)"/>
  <g clip-path="url(#cpNi45NzM4NXw3MTMuMDI2fDIwOS4yMjd8Ni45NzM4NQ==)">
    <text x="379.65" y="117.31" style="font-size: 9.96px; fill: #AF0DC7; font-family: Liberation Sans;" textLength="43.72px" lengthAdjust="spacingAndGlyphs">pseudogp</text>
  </g>
  <polyline points="62.10,202.85 115.32,202.85 115.23,202.85 115.58,202.84 115.92,202.77 116.25,202.64 116.55,202.47 116.82,202.25 117.05,201.99 117.23,201.69 117.37,201.38 117.45,201.04 117.48,200.69 117.48,200.69 117.48,190.94 117.48,190.94 117.45,190.59 117.37,190.25 117.23,189.93 117.05,189.64 116.82,189.38 116.55,189.16 116.25,188.98 115.92,188.86 115.58,188.79 115.32,188.78 62.10,188.78 62.36,188.79 62.02,188.78 61.67,188.82 61.34,188.92 61.02,189.07 60.74,189.26 60.49,189.50 60.28,189.78 60.12,190.09 60.00,190.42 59.95,190.76 59.94,190.94 59.94,200.69 59.95,200.52 59.95,200.86 60.00,201.21 60.12,201.54 60.28,201.85 60.49,202.12 60.74,202.36 61.02,202.56 61.34,202.71 61.67,202.81 62.02,202.85 " style="stroke-width: 0.53; stroke: #AF0DC7; fill: #FFFFFF;" clip-path="url(#cpNi45NzM4NXw3MTMuMDI2fDIwOS4yMjd8Ni45NzM4NQ==)"/>
  <g clip-path="url(#cpNi45NzM4NXw3MTMuMDI2fDIwOS4yMjd8Ni45NzM4NQ==)">
    <text x="63.54" y="199.25" style="font-size: 9.96px; fill: #AF0DC7; font-family: Liberation Sans;" textLength="50.34px" lengthAdjust="spacingAndGlyphs">Wanderlust</text>
  </g>
  <polyline points="399.91,162.34 436.52,162.34 436.43,162.33 436.78,162.32 437.12,162.25 437.44,162.13 437.75,161.95 438.01,161.73 438.24,161.47 438.43,161.18 438.57,160.86 438.65,160.52 438.68,160.18 438.68,160.18 438.68,150.42 438.68,150.42 438.65,150.07 438.57,149.74 438.43,149.42 438.24,149.12 438.01,148.86 437.75,148.64 437.44,148.47 437.12,148.35 436.78,148.28 436.52,148.26 399.91,148.26 400.17,148.28 399.82,148.26 399.47,148.30 399.14,148.40 398.83,148.55 398.54,148.75 398.29,148.99 398.08,149.27 397.92,149.57 397.81,149.90 397.75,150.25 397.75,150.42 397.75,160.18 397.75,160.00 397.75,160.35 397.81,160.69 397.92,161.02 398.08,161.33 398.29,161.61 398.54,161.85 398.83,162.05 399.14,162.19 399.47,162.29 399.82,162.33 " style="stroke-width: 0.53; stroke: #5ECD2E; fill: #FFFFFF;" clip-path="url(#cpNi45NzM4NXw3MTMuMDI2fDIwOS4yMjd8Ni45NzM4NQ==)"/>
  <g clip-path="url(#cpNi45NzM4NXw3MTMuMDI2fDIwOS4yMjd8Ni45NzM4NQ==)">
    <text x="401.35" y="158.74" style="font-size: 9.96px; fill: #5ECD2E; font-family: Liberation Sans;" textLength="33.73px" lengthAdjust="spacingAndGlyphs">TSCAN</text>
  </g>
  <polyline points="638.10,200.73 682.47,200.73 682.38,200.73 682.73,200.72 683.07,200.65 683.40,200.52 683.70,200.35 683.97,200.13 684.20,199.87 684.38,199.58 684.52,199.26 684.60,198.92 684.63,198.57 684.63,198.57 684.63,188.82 684.63,188.82 684.60,188.47 684.52,188.13 684.38,187.81 684.20,187.52 683.97,187.26 683.70,187.04 683.40,186.87 683.07,186.74 682.73,186.67 682.47,186.66 638.10,186.66 638.36,186.67 638.01,186.66 637.67,186.70 637.33,186.80 637.02,186.95 636.73,187.14 636.48,187.38 636.27,187.66 636.11,187.97 636.00,188.30 635.94,188.64 635.94,188.82 635.94,198.57 635.94,198.40 635.94,198.75 636.00,199.09 636.11,199.42 636.27,199.73 636.48,200.00 636.73,200.24 637.02,200.44 637.33,200.59 637.67,200.69 638.01,200.73 " style="stroke-width: 0.53; stroke: #5ECD2E; fill: #FFFFFF;" clip-path="url(#cpNi45NzM4NXw3MTMuMDI2fDIwOS4yMjd8Ni45NzM4NQ==)"/>
  <g clip-path="url(#cpNi45NzM4NXw3MTMuMDI2fDIwOS4yMjd8Ni45NzM4NQ==)">
    <text x="639.54" y="197.13" style="font-size: 9.96px; fill: #5ECD2E; font-family: Liberation Sans;" textLength="41.49px" lengthAdjust="spacingAndGlyphs">p-Creode</text>
  </g>
  <polyline points="195.58,205.13 226.12,205.13 226.03,205.13 226.38,205.11 226.72,205.04 227.04,204.92 227.34,204.74 227.61,204.52 227.84,204.26 228.03,203.97 228.16,203.65 228.25,203.31 228.28,202.97 228.28,202.97 228.28,193.21 228.28,193.21 228.25,192.87 228.16,192.53 228.03,192.21 227.84,191.91 227.61,191.65 227.34,191.43 227.04,191.26 226.72,191.14 226.38,191.07 226.12,191.05 195.58,191.05 195.84,191.07 195.49,191.05 195.15,191.10 194.81,191.19 194.50,191.34 194.21,191.54 193.96,191.78 193.75,192.06 193.59,192.37 193.48,192.70 193.42,193.04 193.42,193.21 193.42,202.97 193.42,202.79 193.42,203.14 193.48,203.48 193.59,203.81 193.75,204.12 193.96,204.40 194.21,204.64 194.50,204.84 194.81,204.99 195.15,205.08 195.49,205.13 " style="stroke-width: 0.53; stroke: #5ECD2E; fill: #FFFFFF;" clip-path="url(#cpNi45NzM4NXw3MTMuMDI2fDIwOS4yMjd8Ni45NzM4NQ==)"/>
  <g clip-path="url(#cpNi45NzM4NXw3MTMuMDI2fDIwOS4yMjd8Ni45NzM4NQ==)">
    <text x="197.02" y="201.53" style="font-size: 9.96px; fill: #5ECD2E; font-family: Liberation Sans;" textLength="27.66px" lengthAdjust="spacingAndGlyphs">sincell</text>
  </g>
  <polyline points="556.93,205.63 589.67,205.63 589.58,205.62 589.93,205.61 590.27,205.54 590.59,205.42 590.89,205.24 591.16,205.02 591.39,204.76 591.58,204.47 591.71,204.15 591.80,203.81 591.83,203.47 591.83,203.47 591.83,193.71 591.83,193.71 591.80,193.37 591.71,193.03 591.58,192.71 591.39,192.41 591.16,192.15 590.89,191.93 590.59,191.76 590.27,191.64 589.93,191.57 589.67,191.55 556.93,191.55 557.19,191.57 556.84,191.55 556.49,191.60 556.16,191.69 555.85,191.84 555.56,192.04 555.31,192.28 555.10,192.56 554.94,192.87 554.83,193.19 554.77,193.54 554.77,193.71 554.77,203.47 554.77,203.29 554.77,203.64 554.83,203.98 554.94,204.31 555.10,204.62 555.31,204.90 555.56,205.14 555.85,205.34 556.16,205.49 556.49,205.58 556.84,205.62 " style="stroke-width: 0.53; stroke: #AF0DC7; fill: #FFFFFF;" clip-path="url(#cpNi45NzM4NXw3MTMuMDI2fDIwOS4yMjd8Ni45NzM4NQ==)"/>
  <g clip-path="url(#cpNi45NzM4NXw3MTMuMDI2fDIwOS4yMjd8Ni45NzM4NQ==)">
    <text x="558.37" y="202.03" style="font-size: 9.96px; fill: #AF0DC7; font-family: Liberation Sans;" textLength="29.86px" lengthAdjust="spacingAndGlyphs">scTDA</text>
  </g>
  <polyline points="570.97,138.01 623.07,138.01 622.98,138.01 623.33,137.99 623.67,137.93 623.99,137.80 624.29,137.63 624.56,137.41 624.79,137.15 624.98,136.85 625.11,136.53 625.20,136.20 625.23,135.85 625.23,135.85 625.23,126.10 625.23,126.10 625.20,125.75 625.11,125.41 624.98,125.09 624.79,124.80 624.56,124.54 624.29,124.32 623.99,124.14 623.67,124.02 623.33,123.95 623.07,123.94 570.97,123.94 571.23,123.95 570.89,123.94 570.54,123.98 570.21,124.08 569.89,124.22 569.61,124.42 569.36,124.66 569.15,124.94 568.99,125.25 568.88,125.58 568.82,125.92 568.81,126.10 568.81,135.85 568.82,135.68 568.82,136.02 568.88,136.37 568.99,136.70 569.15,137.00 569.36,137.28 569.61,137.52 569.89,137.72 570.21,137.87 570.54,137.97 570.89,138.01 " style="stroke-width: 0.53; stroke: #AF0DC7; fill: #FFFFFF;" clip-path="url(#cpNi45NzM4NXw3MTMuMDI2fDIwOS4yMjd8Ni45NzM4NQ==)"/>
  <g clip-path="url(#cpNi45NzM4NXw3MTMuMDI2fDIwOS4yMjd8Ni45NzM4NQ==)">
    <text x="572.41" y="134.41" style="font-size: 9.96px; fill: #AF0DC7; font-family: Liberation Sans;" textLength="49.21px" lengthAdjust="spacingAndGlyphs">MATCHER</text>
  </g>
  <polyline points="383.86,204.82 422.69,204.82 422.60,204.82 422.95,204.81 423.29,204.74 423.62,204.61 423.92,204.44 424.19,204.22 424.42,203.96 424.60,203.67 424.74,203.35 424.82,203.01 424.85,202.66 424.85,202.66 424.85,192.91 424.85,192.91 424.82,192.56 424.74,192.22 424.60,191.90 424.42,191.61 424.19,191.35 423.92,191.13 423.62,190.96 423.29,190.83 422.95,190.76 422.69,190.75 383.86,190.75 384.12,190.76 383.77,190.75 383.43,190.79 383.09,190.89 382.78,191.04 382.49,191.23 382.24,191.48 382.03,191.75 381.87,192.06 381.76,192.39 381.70,192.73 381.70,192.91 381.70,202.66 381.70,202.49 381.70,202.84 381.76,203.18 381.87,203.51 382.03,203.82 382.24,204.09 382.49,204.34 382.78,204.53 383.09,204.68 383.43,204.78 383.77,204.82 " style="stroke-width: 0.53; stroke: #FF8821; fill: #FFFFFF;" clip-path="url(#cpNi45NzM4NXw3MTMuMDI2fDIwOS4yMjd8Ni45NzM4NQ==)"/>
  <g clip-path="url(#cpNi45NzM4NXw3MTMuMDI2fDIwOS4yMjd8Ni45NzM4NQ==)">
    <text x="385.30" y="201.22" style="font-size: 9.96px; fill: #FF8821; font-family: Liberation Sans;" textLength="35.95px" lengthAdjust="spacingAndGlyphs">SLICER</text>
  </g>
  <polyline points="601.44,202.13 624.23,202.13 624.15,202.12 624.49,202.11 624.84,202.04 625.16,201.92 625.46,201.74 625.73,201.52 625.96,201.26 626.15,200.97 626.28,200.65 626.37,200.31 626.39,199.97 626.39,199.97 626.39,190.21 626.39,190.21 626.37,189.86 626.28,189.53 626.15,189.21 625.96,188.91 625.73,188.65 625.46,188.43 625.16,188.26 624.84,188.14 624.49,188.07 624.23,188.05 601.44,188.05 601.70,188.07 601.35,188.05 601.01,188.09 600.67,188.19 600.36,188.34 600.07,188.54 599.82,188.78 599.61,189.06 599.45,189.36 599.34,189.69 599.29,190.04 599.28,190.21 599.28,199.97 599.29,199.79 599.29,200.14 599.34,200.48 599.45,200.81 599.61,201.12 599.82,201.40 600.07,201.64 600.36,201.84 600.67,201.99 601.01,202.08 601.35,202.12 " style="stroke-width: 0.53; stroke: #CFBF00; fill: #FFFFFF;" clip-path="url(#cpNi45NzM4NXw3MTMuMDI2fDIwOS4yMjd8Ni45NzM4NQ==)"/>
  <g clip-path="url(#cpNi45NzM4NXw3MTMuMDI2fDIwOS4yMjd8Ni45NzM4NQ==)">
    <text x="602.88" y="198.53" style="font-size: 9.96px; fill: #CFBF00; font-family: Liberation Sans;" textLength="19.92px" lengthAdjust="spacingAndGlyphs">PBA</text>
  </g>
  <polyline points="439.49,202.60 477.77,202.60 477.68,202.60 478.03,202.59 478.37,202.52 478.70,202.39 479.00,202.22 479.27,202.00 479.50,201.74 479.68,201.45 479.82,201.13 479.90,200.79 479.93,200.44 479.93,200.44 479.93,190.69 479.93,190.69 479.90,190.34 479.82,190.00 479.68,189.68 479.50,189.39 479.27,189.13 479.00,188.91 478.70,188.74 478.37,188.61 478.03,188.54 477.77,188.53 439.49,188.53 439.75,188.54 439.40,188.53 439.06,188.57 438.72,188.67 438.41,188.82 438.12,189.01 437.87,189.25 437.66,189.53 437.50,189.84 437.39,190.17 437.34,190.51 437.33,190.69 437.33,200.44 437.34,200.27 437.34,200.62 437.39,200.96 437.50,201.29 437.66,201.60 437.87,201.87 438.12,202.11 438.41,202.31 438.72,202.46 439.06,202.56 439.40,202.60 " style="stroke-width: 0.53; stroke: #5ECD2E; fill: #FFFFFF;" clip-path="url(#cpNi45NzM4NXw3MTMuMDI2fDIwOS4yMjd8Ni45NzM4NQ==)"/>
  <g clip-path="url(#cpNi45NzM4NXw3MTMuMDI2fDIwOS4yMjd8Ni45NzM4NQ==)">
    <text x="440.93" y="199.00" style="font-size: 9.96px; fill: #5ECD2E; font-family: Liberation Sans;" textLength="35.40px" lengthAdjust="spacingAndGlyphs">cellTree</text>
  </g>
  <defs>
    <clipPath id="cpMHw3MjB8MjUyfDA=">
      <rect x="0.00" y="0.00" width="720.00" height="252.00"/>
    </clipPath>
  </defs>
  <polyline points="6.97,209.23 713.03,209.23 " style="stroke-width: 1.07; stroke-linecap: square;" clip-path="url(#cpMHw3MjB8MjUyfDA=)"/>
  <polyline points="39.07,212.71 39.07,209.23 " style="stroke-width: 1.07; stroke-linecap: butt;" clip-path="url(#cpMHw3MjB8MjUyfDA=)"/>
  <polyline points="199.42,212.71 199.42,209.23 " style="stroke-width: 1.07; stroke-linecap: butt;" clip-path="url(#cpMHw3MjB8MjUyfDA=)"/>
  <polyline points="359.78,212.71 359.78,209.23 " style="stroke-width: 1.07; stroke-linecap: butt;" clip-path="url(#cpMHw3MjB8MjUyfDA=)"/>
  <polyline points="520.58,212.71 520.58,209.23 " style="stroke-width: 1.07; stroke-linecap: butt;" clip-path="url(#cpMHw3MjB8MjUyfDA=)"/>
  <polyline points="680.93,212.71 680.93,209.23 " style="stroke-width: 1.07; stroke-linecap: butt;" clip-path="url(#cpMHw3MjB8MjUyfDA=)"/>
  <g clip-path="url(#cpMHw3MjB8MjUyfDA=)">
    <text x="25.72" y="223.95" style="font-size: 12.00px; font-family: Liberation Sans;" textLength="26.70px" lengthAdjust="spacingAndGlyphs">2014</text>
  </g>
  <g clip-path="url(#cpMHw3MjB8MjUyfDA=)">
    <text x="186.08" y="223.95" style="font-size: 12.00px; font-family: Liberation Sans;" textLength="26.70px" lengthAdjust="spacingAndGlyphs">2015</text>
  </g>
  <g clip-path="url(#cpMHw3MjB8MjUyfDA=)">
    <text x="346.43" y="223.95" style="font-size: 12.00px; font-family: Liberation Sans;" textLength="26.70px" lengthAdjust="spacingAndGlyphs">2016</text>
  </g>
  <g clip-path="url(#cpMHw3MjB8MjUyfDA=)">
    <text x="507.23" y="223.95" style="font-size: 12.00px; font-family: Liberation Sans;" textLength="26.70px" lengthAdjust="spacingAndGlyphs">2017</text>
  </g>
  <g clip-path="url(#cpMHw3MjB8MjUyfDA=)">
    <text x="667.59" y="223.95" style="font-size: 12.00px; font-family: Liberation Sans;" textLength="26.70px" lengthAdjust="spacingAndGlyphs">2018</text>
  </g>
  <g clip-path="url(#cpMHw3MjB8MjUyfDA=)">
    <text x="312.13" y="240.80" style="font-size: 14.00px; font-family: Liberation Sans;" textLength="95.74px" lengthAdjust="spacingAndGlyphs">Publishing date</text>
  </g>
</svg>
