<?xml version="1.0" encoding="UTF-8"?>
<svg xmlns="http://www.w3.org/2000/svg" xmlns:xlink="http://www.w3.org/1999/xlink" viewBox="0 0 720.00 252.00">
  <defs>
    <style type="text/css"><![CDATA[
    line, polyline, path, rect, circle {
      fill: none;
      stroke: #000000;
      stroke-linecap: round;
      stroke-linejoin: round;
      stroke-miterlimit: 10.00;
    }
  ]]></style>
  </defs>
  <line x1="433.59" y1="121.77" x2="433.59" y2="209.23" style="stroke-width: 1.07; stroke: #AF0DC7;" clip-path="url(#cpNi45NzM4NXw3MTMuMDI2fDIwOS4yMjd8Ni45NzM4NQ==)"/>
  <line x1="439.30" y1="183.64" x2="439.30" y2="209.22" style="stroke-width: 1.07; stroke: #5ECD2E;" clip-path="url(#cpNi45NzM4NXw3MTMuMDI2fDIwOS4yMjd8Ni45NzM4NQ==)"/>
  <line x1="418.21" y1="169.21" x2="418.21" y2="209.22" style="stroke-width: 1.07; stroke: #5ECD2E;" clip-path="url(#cpNi45NzM4NXw3MTMuMDI2fDIwOS4yMjd8Ni45NzM4NQ==)"/>
  <line x1="568.02" y1="80.59" x2="568.02" y2="209.22" style="stroke-width: 1.07; stroke: #5ECD2E;" clip-path="url(#cpNi45NzM4NXw3MTMuMDI2fDIwOS4yMjd8Ni45NzM4NQ==)"/>
  <line x1="547.38" y1="162.15" x2="547.38" y2="209.22" style="stroke-width: 1.07; stroke: #CFBF00;" clip-path="url(#cpNi45NzM4NXw3MTMuMDI2fDIwOS4yMjd8Ni45NzM4NQ==)"/>
  <line x1="638.76" y1="172.35" x2="638.76" y2="209.22" style="stroke-width: 1.07; stroke: #FF8821;" clip-path="url(#cpNi45NzM4NXw3MTMuMDI2fDIwOS4yMjd8Ni45NzM4NQ==)"/>
  <line x1="586.48" y1="61.79" x2="586.48" y2="209.22" style="stroke-width: 1.07; stroke: #AF0DC7;" clip-path="url(#cpNi45NzM4NXw3MTMuMDI2fDIwOS4yMjd8Ni45NzM4NQ==)"/>
  <line x1="514.86" y1="204.39" x2="514.86" y2="209.22" style="stroke-width: 1.07; stroke: #5ECD2E;" clip-path="url(#cpNi45NzM4NXw3MTMuMDI2fDIwOS4yMjd8Ni45NzM4NQ==)"/>
  <line x1="604.93" y1="187.08" x2="604.93" y2="209.22" style="stroke-width: 1.07; stroke: #AF0DC7;" clip-path="url(#cpNi45NzM4NXw3MTMuMDI2fDIwOS4yMjd8Ni45NzM4NQ==)"/>
  <line x1="458.63" y1="203.04" x2="458.63" y2="209.22" style="stroke-width: 1.07; stroke: #5ECD2E;" clip-path="url(#cpNi45NzM4NXw3MTMuMDI2fDIwOS4yMjd8Ni45NzM4NQ==)"/>
  <line x1="307.06" y1="182.78" x2="307.06" y2="209.22" style="stroke-width: 1.07; stroke: #AF0DC7;" clip-path="url(#cpNi45NzM4NXw3MTMuMDI2fDIwOS4yMjd8Ni45NzM4NQ==)"/>
  <line x1="312.33" y1="155.84" x2="312.33" y2="209.22" style="stroke-width: 1.07; stroke: #AF0DC7;" clip-path="url(#cpNi45NzM4NXw3MTMuMDI2fDIwOS4yMjd8Ni45NzM4NQ==)"/>
  <line x1="597.02" y1="162.76" x2="597.02" y2="209.22" style="stroke-width: 1.07; stroke: #AF0DC7;" clip-path="url(#cpNi45NzM4NXw3MTMuMDI2fDIwOS4yMjd8Ni45NzM4NQ==)"/>
  <line x1="78.61" y1="202.85" x2="78.61" y2="209.22" style="stroke-width: 1.07; stroke: #5ECD2E;" clip-path="url(#cpNi45NzM4NXw3MTMuMDI2fDIwOS4yMjd8Ni45NzM4NQ==)"/>
  <line x1="513.11" y1="121.80" x2="513.11" y2="209.22" style="stroke-width: 1.07; stroke: #5ECD2E;" clip-path="url(#cpNi45NzM4NXw3MTMuMDI2fDIwOS4yMjd8Ni45NzM4NQ==)"/>
  <line x1="403.27" y1="199.59" x2="403.27" y2="209.22" style="stroke-width: 1.07; stroke: #FF8821;" clip-path="url(#cpNi45NzM4NXw3MTMuMDI2fDIwOS4yMjd8Ni45NzM4NQ==)"/>
  <line x1="460.39" y1="139.98" x2="460.39" y2="209.22" style="stroke-width: 1.07; stroke: #AF0DC7;" clip-path="url(#cpNi45NzM4NXw3MTMuMDI2fDIwOS4yMjd8Ni45NzM4NQ==)"/>
  <line x1="611.08" y1="143.40" x2="611.08" y2="209.22" style="stroke-width: 1.07; stroke: #AF0DC7;" clip-path="url(#cpNi45NzM4NXw3MTMuMDI2fDIwOS4yMjd8Ni45NzM4NQ==)"/>
  <line x1="88.71" y1="180.93" x2="88.71" y2="209.22" style="stroke-width: 1.07; stroke: #AF0DC7;" clip-path="url(#cpNi45NzM4NXw3MTMuMDI2fDIwOS4yMjd8Ni45NzM4NQ==)"/>
  <line x1="401.52" y1="101.49" x2="401.52" y2="209.22" style="stroke-width: 1.07; stroke: #AF0DC7;" clip-path="url(#cpNi45NzM4NXw3MTMuMDI2fDIwOS4yMjd8Ni45NzM4NQ==)"/>
  <line x1="602.29" y1="42.04" x2="602.29" y2="209.21" style="stroke-width: 1.07; stroke: #AF0DC7;" clip-path="url(#cpNi45NzM4NXw3MTMuMDI2fDIwOS4yMjd8Ni45NzM4NQ==)"/>
  <line x1="407.67" y1="24.65" x2="407.67" y2="209.21" style="stroke-width: 1.07; stroke: #AF0DC7;" clip-path="url(#cpNi45NzM4NXw3MTMuMDI2fDIwOS4yMjd8Ni45NzM4NQ==)"/>
  <line x1="552.65" y1="183.10" x2="552.65" y2="209.21" style="stroke-width: 1.07; stroke: #CFBF00;" clip-path="url(#cpNi45NzM4NXw3MTMuMDI2fDIwOS4yMjd8Ni45NzM4NQ==)"/>
  <line x1="364.61" y1="177.29" x2="364.61" y2="209.21" style="stroke-width: 1.07; stroke: #5ECD2E;" clip-path="url(#cpNi45NzM4NXw3MTMuMDI2fDIwOS4yMjd8Ni45NzM4NQ==)"/>
  <line x1="594.82" y1="121.68" x2="594.82" y2="209.21" style="stroke-width: 1.07; stroke: #39CCCC;" clip-path="url(#cpNi45NzM4NXw3MTMuMDI2fDIwOS4yMjd8Ni45NzM4NQ==)"/>
  <line x1="573.30" y1="202.66" x2="573.30" y2="209.21" style="stroke-width: 1.07; stroke: #AF0DC7;" clip-path="url(#cpNi45NzM4NXw3MTMuMDI2fDIwOS4yMjd8Ni45NzM4NQ==)"/>
  <line x1="561.43" y1="141.90" x2="561.43" y2="209.21" style="stroke-width: 1.07; stroke: #5ECD2E;" clip-path="url(#cpNi45NzM4NXw3MTMuMDI2fDIwOS4yMjd8Ni45NzM4NQ==)"/>
  <line x1="435.35" y1="79.94" x2="435.35" y2="209.21" style="stroke-width: 1.07; stroke: #5ECD2E;" clip-path="url(#cpNi45NzM4NXw3MTMuMDI2fDIwOS4yMjd8Ni45NzM4NQ==)"/>
  <line x1="668.19" y1="150.22" x2="668.19" y2="209.21" style="stroke-width: 1.07; stroke: #CFBF00;" clip-path="url(#cpNi45NzM4NXw3MTMuMDI2fDIwOS4yMjd8Ni45NzM4NQ==)"/>
  <line x1="436.22" y1="153.85" x2="436.22" y2="209.21" style="stroke-width: 1.07; stroke: #AF0DC7;" clip-path="url(#cpNi45NzM4NXw3MTMuMDI2fDIwOS4yMjd8Ni45NzM4NQ==)"/>
  <line x1="210.85" y1="205.12" x2="210.85" y2="209.21" style="stroke-width: 1.07; stroke: #5ECD2E;" clip-path="url(#cpNi45NzM4NXw3MTMuMDI2fDIwOS4yMjd8Ni45NzM4NQ==)"/>
  <line x1="268.84" y1="204.16" x2="268.84" y2="209.21" style="stroke-width: 1.07; stroke: #AF0DC7;" clip-path="url(#cpNi45NzM4NXw3MTMuMDI2fDIwOS4yMjd8Ni45NzM4NQ==)"/>
  <line x1="492.90" y1="176.47" x2="492.90" y2="209.21" style="stroke-width: 1.07; stroke: #AF0DC7;" clip-path="url(#cpNi45NzM4NXw3MTMuMDI2fDIwOS4yMjd8Ni45NzM4NQ==)"/>
  <line x1="481.48" y1="100.26" x2="481.48" y2="209.21" style="stroke-width: 1.07; stroke: #AF0DC7;" clip-path="url(#cpNi45NzM4NXw3MTMuMDI2fDIwOS4yMjd8Ni45NzM4NQ==)"/>
  <line x1="617.23" y1="101.75" x2="617.23" y2="209.21" style="stroke-width: 1.07; stroke: #0073D7;" clip-path="url(#cpNi45NzM4NXw3MTMuMDI2fDIwOS4yMjd8Ni45NzM4NQ==)"/>
  <line x1="660.28" y1="123.50" x2="660.28" y2="209.21" style="stroke-width: 1.07; stroke: #5ECD2E;" clip-path="url(#cpNi45NzM4NXw3MTMuMDI2fDIwOS4yMjd8Ni45NzM4NQ==)"/>
  <line x1="612.84" y1="24.65" x2="612.84" y2="209.21" style="stroke-width: 1.07; stroke: #CFBF00;" clip-path="url(#cpNi45NzM4NXw3MTMuMDI2fDIwOS4yMjd8Ni45NzM4NQ==)"/>
  <line x1="542.98" y1="101.93" x2="542.98" y2="209.21" style="stroke-width: 1.07; stroke: #5ECD2E;" clip-path="url(#cpNi45NzM4NXw3MTMuMDI2fDIwOS4yMjd8Ni45NzM4NQ==)"/>
  <line x1="413.38" y1="42.25" x2="413.38" y2="209.21" style="stroke-width: 1.07; stroke: #0073D7;" clip-path="url(#cpNi45NzM4NXw3MTMuMDI2fDIwOS4yMjd8Ni45NzM4NQ==)"/>
  <line x1="198.55" y1="183.46" x2="198.55" y2="209.21" style="stroke-width: 1.07; stroke: #5ECD2E;" clip-path="url(#cpNi45NzM4NXw3MTMuMDI2fDIwOS4yMjd8Ni45NzM4NQ==)"/>
  <line x1="539.47" y1="24.65" x2="539.47" y2="209.21" style="stroke-width: 1.07; stroke: #AF0DC7;" clip-path="url(#cpNi45NzM4NXw3MTMuMDI2fDIwOS4yMjd8Ni45NzM4NQ==)"/>
  <line x1="482.79" y1="79.18" x2="482.79" y2="209.21" style="stroke-width: 1.07; stroke: #AF0DC7;" clip-path="url(#cpNi45NzM4NXw3MTMuMDI2fDIwOS4yMjd8Ni45NzM4NQ==)"/>
  <line x1="429.63" y1="59.01" x2="429.63" y2="209.21" style="stroke-width: 1.07; stroke: #CFBF00;" clip-path="url(#cpNi45NzM4NXw3MTMuMDI2fDIwOS4yMjd8Ni45NzM4NQ==)"/>
  <line x1="313.65" y1="134.46" x2="313.65" y2="209.21" style="stroke-width: 1.07; stroke: #AF0DC7;" clip-path="url(#cpNi45NzM4NXw3MTMuMDI2fDIwOS4yMjd8Ni45NzM4NQ==)"/>
  <line x1="376.47" y1="155.15" x2="376.47" y2="209.21" style="stroke-width: 1.07; stroke: #0073D7;" clip-path="url(#cpNi45NzM4NXw3MTMuMDI2fDIwOS4yMjd8Ni45NzM4NQ==)"/>
  <line x1="613.71" y1="82.36" x2="613.71" y2="209.21" style="stroke-width: 1.07; stroke: #0073D7;" clip-path="url(#cpNi45NzM4NXw3MTMuMDI2fDIwOS4yMjd8Ni45NzM4NQ==)"/>
  <line x1="651.94" y1="204.31" x2="651.94" y2="209.21" style="stroke-width: 1.07; stroke: #FF4237;" clip-path="url(#cpNi45NzM4NXw3MTMuMDI2fDIwOS4yMjd8Ni45NzM4NQ==)"/>
  <line x1="543.42" y1="46.17" x2="543.42" y2="209.21" style="stroke-width: 1.07; stroke: #5ECD2E;" clip-path="url(#cpNi45NzM4NXw3MTMuMDI2fDIwOS4yMjd8Ni45NzM4NQ==)"/>
  <line x1="666.87" y1="102.03" x2="666.87" y2="209.21" style="stroke-width: 1.07; stroke: #AF0DC7;" clip-path="url(#cpNi45NzM4NXw3MTMuMDI2fDIwOS4yMjd8Ni45NzM4NQ==)"/>
  <defs>
    <clipPath id="cpNi45NzM4NXw3MTMuMDI2fDIwOS4yMjd8Ni45NzM4NQ==">
      <rect x="6.97" y="6.97" width="706.05" height="202.25"/>
    </clipPath>
  </defs>
  <polyline points="652.16,102.03 681.59,102.03 681.50,102.02 681.85,102.01 682.19,101.94 682.52,101.82 682.82,101.64 683.09,101.42 683.32,101.16 683.50,100.87 683.64,100.55 683.72,100.21 683.75,99.87 683.75,99.87 683.75,90.11 683.75,90.11 683.72,89.76 683.64,89.43 683.50,89.11 683.32,88.81 683.09,88.55 682.82,88.33 682.52,88.16 682.19,88.04 681.85,87.97 681.59,87.95 652.16,87.95 652.42,87.97 652.07,87.95 651.73,87.99 651.39,88.09 651.08,88.24 650.79,88.44 650.54,88.68 650.33,88.96 650.17,89.26 650.06,89.59 650.01,89.94 650.00,90.11 650.00,99.87 650.01,99.69 650.01,100.04 650.06,100.38 650.17,100.71 650.33,101.02 650.54,101.30 650.79,101.54 651.08,101.74 651.39,101.88 651.73,101.98 652.07,102.02 " style="stroke-width: 0.53; stroke: #AF0DC7; fill: #FFFFFF;" clip-path="url(#cpNi45NzM4NXw3MTMuMDI2fDIwOS4yMjd8Ni45NzM4NQ==)"/>
  <g clip-path="url(#cpNi45NzM4NXw3MTMuMDI2fDIwOS4yMjd8Ni45NzM4NQ==)">
    <text x="653.60" y="98.43" style="font-size: 9.96px; fill: #AF0DC7; font-family: Liberation Sans;" textLength="26.55px" lengthAdjust="spacingAndGlyphs">iCpSc</text>
  </g>
  <polyline points="519.85,46.17 566.99,46.17 566.90,46.17 567.25,46.15 567.59,46.08 567.91,45.96 568.22,45.79 568.49,45.57 568.72,45.31 568.90,45.01 569.04,44.69 569.12,44.36 569.15,44.01 569.15,44.01 569.15,34.25 569.15,34.25 569.12,33.91 569.04,33.57 568.90,33.25 568.72,32.96 568.49,32.70 568.22,32.48 567.91,32.30 567.59,32.18 567.25,32.11 566.99,32.09 519.85,32.09 520.11,32.11 519.77,32.10 519.42,32.14 519.09,32.23 518.77,32.38 518.49,32.58 518.24,32.82 518.03,33.10 517.87,33.41 517.76,33.74 517.70,34.08 517.69,34.25 517.69,44.01 517.70,43.83 517.70,44.18 517.76,44.53 517.87,44.86 518.03,45.16 518.24,45.44 518.49,45.68 518.77,45.88 519.09,46.03 519.42,46.12 519.77,46.17 " style="stroke-width: 0.53; stroke: #5ECD2E; fill: #FFFFFF;" clip-path="url(#cpNi45NzM4NXw3MTMuMDI2fDIwOS4yMjd8Ni45NzM4NQ==)"/>
  <g clip-path="url(#cpNi45NzM4NXw3MTMuMDI2fDIwOS4yMjd8Ni45NzM4NQ==)">
    <text x="521.29" y="42.57" style="font-size: 9.96px; fill: #5ECD2E; font-family: Liberation Sans;" textLength="44.25px" lengthAdjust="spacingAndGlyphs">Granatum</text>
  </g>
  <polyline points="639.99,204.31 663.89,204.31 663.80,204.30 664.15,204.29 664.49,204.22 664.81,204.10 665.11,203.92 665.38,203.70 665.61,203.44 665.80,203.15 665.94,202.83 666.02,202.49 666.05,202.15 666.05,202.15 666.05,192.39 666.05,192.39 666.02,192.04 665.94,191.71 665.80,191.39 665.61,191.09 665.38,190.83 665.11,190.61 664.81,190.44 664.49,190.32 664.15,190.25 663.89,190.23 639.99,190.23 640.25,190.25 639.90,190.23 639.56,190.27 639.22,190.37 638.91,190.52 638.62,190.72 638.37,190.96 638.16,191.24 638.00,191.54 637.89,191.87 637.83,192.22 637.83,192.39 637.83,202.15 637.83,201.97 637.83,202.32 637.89,202.66 638.00,202.99 638.16,203.30 638.37,203.58 638.62,203.82 638.91,204.02 639.22,204.16 639.56,204.26 639.90,204.30 " style="stroke-width: 0.53; stroke: #FF4237; fill: #FFFFFF;" clip-path="url(#cpNi45NzM4NXw3MTMuMDI2fDIwOS4yMjd8Ni45NzM4NQ==)"/>
  <g clip-path="url(#cpNi45NzM4NXw3MTMuMDI2fDIwOS4yMjd8Ni45NzM4NQ==)">
    <text x="641.43" y="200.71" style="font-size: 9.96px; fill: #FF4237; font-family: Liberation Sans;" textLength="21.02px" lengthAdjust="spacingAndGlyphs">AGA</text>
  </g>
  <polyline points="601.77,82.36 625.66,82.36 625.58,82.36 625.92,82.35 626.27,82.28 626.59,82.16 626.89,81.98 627.16,81.76 627.39,81.50 627.58,81.21 627.71,80.89 627.80,80.55 627.82,80.20 627.82,80.20 627.82,70.45 627.82,70.45 627.80,70.10 627.71,69.77 627.58,69.45 627.39,69.15 627.16,68.89 626.89,68.67 626.59,68.50 626.27,68.37 625.92,68.30 625.66,68.29 601.77,68.29 602.03,68.30 601.68,68.29 601.33,68.33 601.00,68.43 600.69,68.58 600.40,68.78 600.15,69.02 599.94,69.29 599.78,69.60 599.67,69.93 599.61,70.28 599.61,70.45 599.61,80.20 599.61,80.03 599.61,80.38 599.67,80.72 599.78,81.05 599.94,81.36 600.15,81.64 600.40,81.88 600.69,82.07 601.00,82.22 601.33,82.32 601.68,82.36 " style="stroke-width: 0.53; stroke: #0073D7; fill: #FFFFFF;" clip-path="url(#cpNi45NzM4NXw3MTMuMDI2fDIwOS4yMjd8Ni45NzM4NQ==)"/>
  <g clip-path="url(#cpNi45NzM4NXw3MTMuMDI2fDIwOS4yMjd8Ni45NzM4NQ==)">
    <text x="603.21" y="78.76" style="font-size: 9.96px; fill: #0073D7; font-family: Liberation Sans;" textLength="21.02px" lengthAdjust="spacingAndGlyphs">BGP</text>
  </g>
  <polyline points="365.08,155.15 387.87,155.15 387.78,155.15 388.13,155.14 388.47,155.07 388.79,154.94 389.10,154.77 389.36,154.55 389.59,154.29 389.78,154.00 389.92,153.68 390.00,153.34 390.03,152.99 390.03,152.99 390.03,143.24 390.03,143.24 390.00,142.89 389.92,142.55 389.78,142.23 389.59,141.94 389.36,141.68 389.10,141.46 388.79,141.29 388.47,141.16 388.13,141.09 387.87,141.08 365.08,141.08 365.34,141.09 364.99,141.08 364.65,141.12 364.32,141.22 364.00,141.37 363.72,141.57 363.47,141.81 363.26,142.08 363.09,142.39 362.98,142.72 362.93,143.06 362.92,143.24 362.92,152.99 362.93,152.82 362.93,153.17 362.98,153.51 363.09,153.84 363.26,154.15 363.47,154.43 363.72,154.67 364.00,154.86 364.32,155.01 364.65,155.11 364.99,155.15 " style="stroke-width: 0.53; stroke: #0073D7; fill: #FFFFFF;" clip-path="url(#cpNi45NzM4NXw3MTMuMDI2fDIwOS4yMjd8Ni45NzM4NQ==)"/>
  <g clip-path="url(#cpNi45NzM4NXw3MTMuMDI2fDIwOS4yMjd8Ni45NzM4NQ==)">
    <text x="366.52" y="151.55" style="font-size: 9.96px; fill: #0073D7; font-family: Liberation Sans;" textLength="19.91px" lengthAdjust="spacingAndGlyphs">DPT</text>
  </g>
  <polyline points="292.57,134.46 334.73,134.46 334.64,134.46 334.99,134.45 335.33,134.38 335.66,134.26 335.96,134.08 336.23,133.86 336.46,133.60 336.64,133.31 336.78,132.99 336.86,132.65 336.89,132.30 336.89,132.30 336.89,122.55 336.89,122.55 336.86,122.20 336.78,121.87 336.64,121.55 336.46,121.25 336.23,120.99 335.96,120.77 335.66,120.60 335.33,120.48 334.99,120.41 334.73,120.39 292.57,120.39 292.83,120.41 292.48,120.39 292.14,120.43 291.80,120.53 291.49,120.68 291.20,120.88 290.95,121.12 290.74,121.40 290.58,121.70 290.47,122.03 290.42,122.38 290.41,122.55 290.41,132.30 290.42,132.13 290.42,132.48 290.47,132.82 290.58,133.15 290.74,133.46 290.95,133.74 291.20,133.98 291.49,134.18 291.80,134.32 292.14,134.42 292.48,134.46 " style="stroke-width: 0.53; stroke: #AF0DC7; fill: #FFFFFF;" clip-path="url(#cpNi45NzM4NXw3MTMuMDI2fDIwOS4yMjd8Ni45NzM4NQ==)"/>
  <g clip-path="url(#cpNi45NzM4NXw3MTMuMDI2fDIwOS4yMjd8Ni45NzM4NQ==)">
    <text x="294.01" y="130.86" style="font-size: 9.96px; fill: #AF0DC7; font-family: Liberation Sans;" textLength="39.28px" lengthAdjust="spacingAndGlyphs">embeddr</text>
  </g>
  <polyline points="410.50,59.01 448.77,59.01 448.68,59.01 449.03,58.99 449.37,58.92 449.70,58.80 450.00,58.63 450.27,58.41 450.50,58.15 450.68,57.85 450.82,57.53 450.90,57.19 450.93,56.85 450.93,56.85 450.93,47.09 450.93,47.09 450.90,46.75 450.82,46.41 450.68,46.09 450.50,45.80 450.27,45.53 450.00,45.32 449.70,45.14 449.37,45.02 449.03,44.95 448.77,44.93 410.50,44.93 410.76,44.95 410.41,44.93 410.06,44.98 409.73,45.07 409.42,45.22 409.13,45.42 408.88,45.66 408.67,45.94 408.51,46.25 408.40,46.58 408.34,46.92 408.34,47.09 408.34,56.85 408.34,56.67 408.34,57.02 408.40,57.36 408.51,57.69 408.67,58.00 408.88,58.28 409.13,58.52 409.42,58.72 409.73,58.87 410.06,58.96 410.41,59.01 " style="stroke-width: 0.53; stroke: #CFBF00; fill: #FFFFFF;" clip-path="url(#cpNi45NzM4NXw3MTMuMDI2fDIwOS4yMjd8Ni45NzM4NQ==)"/>
  <g clip-path="url(#cpNi45NzM4NXw3MTMuMDI2fDIwOS4yMjd8Ni45NzM4NQ==)">
    <text x="411.94" y="55.41" style="font-size: 9.96px; fill: #CFBF00; font-family: Liberation Sans;" textLength="35.39px" lengthAdjust="spacingAndGlyphs">SCOUP</text>
  </g>
  <polyline points="455.36,79.18 510.23,79.18 510.14,79.18 510.49,79.17 510.83,79.10 511.15,78.98 511.45,78.80 511.72,78.58 511.95,78.32 512.14,78.03 512.28,77.71 512.36,77.37 512.39,77.02 512.39,77.02 512.39,67.27 512.39,67.27 512.36,66.92 512.28,66.58 512.14,66.26 511.95,65.97 511.72,65.71 511.45,65.49 511.15,65.32 510.83,65.19 510.49,65.12 510.23,65.11 455.36,65.11 455.62,65.12 455.27,65.11 454.93,65.15 454.59,65.25 454.28,65.40 453.99,65.60 453.74,65.84 453.53,66.11 453.37,66.42 453.26,66.75 453.21,67.09 453.20,67.27 453.20,77.02 453.21,76.85 453.21,77.20 453.26,77.54 453.37,77.87 453.53,78.18 453.74,78.46 453.99,78.70 454.28,78.89 454.59,79.04 454.93,79.14 455.27,79.18 " style="stroke-width: 0.53; stroke: #AF0DC7; fill: #FFFFFF;" clip-path="url(#cpNi45NzM4NXw3MTMuMDI2fDIwOS4yMjd8Ni45NzM4NQ==)"/>
  <g clip-path="url(#cpNi45NzM4NXw3MTMuMDI2fDIwOS4yMjd8Ni45NzM4NQ==)">
    <text x="456.80" y="75.58" style="font-size: 9.96px; fill: #AF0DC7; font-family: Liberation Sans;" textLength="51.99px" lengthAdjust="spacingAndGlyphs">SCORPIUS</text>
  </g>
  <polyline points="520.60,24.65 558.33,24.65 558.25,24.65 558.59,24.63 558.93,24.56 559.26,24.44 559.56,24.27 559.83,24.05 560.06,23.79 560.25,23.49 560.38,23.17 560.46,22.84 560.49,22.49 560.49,22.49 560.49,12.73 560.49,12.73 560.46,12.39 560.38,12.05 560.25,11.73 560.06,11.44 559.83,11.18 559.56,10.96 559.26,10.78 558.93,10.66 558.59,10.59 558.33,10.57 520.60,10.57 520.86,10.59 520.52,10.58 520.17,10.62 519.84,10.71 519.52,10.86 519.24,11.06 518.99,11.30 518.78,11.58 518.62,11.89 518.51,12.22 518.45,12.56 518.44,12.73 518.44,22.49 518.45,22.32 518.45,22.66 518.51,23.01 518.62,23.34 518.78,23.64 518.99,23.92 519.24,24.16 519.52,24.36 519.84,24.51 520.17,24.61 520.52,24.65 " style="stroke-width: 0.53; stroke: #AF0DC7; fill: #FFFFFF;" clip-path="url(#cpNi45NzM4NXw3MTMuMDI2fDIwOS4yMjd8Ni45NzM4NQ==)"/>
  <g clip-path="url(#cpNi45NzM4NXw3MTMuMDI2fDIwOS4yMjd8Ni45NzM4NQ==)">
    <text x="522.04" y="21.05" style="font-size: 9.96px; fill: #AF0DC7; font-family: Liberation Sans;" textLength="34.85px" lengthAdjust="spacingAndGlyphs">topslam</text>
  </g>
  <polyline points="179.96,183.46 217.13,183.46 217.04,183.46 217.39,183.45 217.73,183.38 218.06,183.25 218.36,183.08 218.63,182.86 218.86,182.60 219.04,182.31 219.18,181.99 219.26,181.65 219.29,181.30 219.29,181.30 219.29,171.55 219.29,171.55 219.26,171.20 219.18,170.86 219.04,170.54 218.86,170.25 218.63,169.99 218.36,169.77 218.06,169.60 217.73,169.47 217.39,169.40 217.13,169.39 179.96,169.39 180.22,169.40 179.87,169.39 179.53,169.43 179.19,169.53 178.88,169.68 178.59,169.87 178.34,170.11 178.13,170.39 177.97,170.70 177.86,171.03 177.81,171.37 177.80,171.55 177.80,181.30 177.81,181.13 177.81,181.48 177.86,181.82 177.97,182.15 178.13,182.46 178.34,182.73 178.59,182.98 178.88,183.17 179.19,183.32 179.53,183.42 179.87,183.46 " style="stroke-width: 0.53; stroke: #5ECD2E; fill: #FFFFFF;" clip-path="url(#cpNi45NzM4NXw3MTMuMDI2fDIwOS4yMjd8Ni45NzM4NQ==)"/>
  <g clip-path="url(#cpNi45NzM4NXw3MTMuMDI2fDIwOS4yMjd8Ni45NzM4NQ==)">
    <text x="181.40" y="179.86" style="font-size: 9.96px; fill: #5ECD2E; font-family: Liberation Sans;" textLength="34.29px" lengthAdjust="spacingAndGlyphs">SCUBA</text>
  </g>
  <polyline points="389.81,42.25 436.95,42.25 436.86,42.25 437.21,42.24 437.55,42.17 437.87,42.05 438.18,41.87 438.44,41.65 438.68,41.39 438.86,41.10 439.00,40.78 439.08,40.44 439.11,40.09 439.11,40.09 439.11,30.34 439.11,30.34 439.08,29.99 439.00,29.65 438.86,29.33 438.68,29.04 438.44,28.78 438.18,28.56 437.87,28.39 437.55,28.26 437.21,28.19 436.95,28.18 389.81,28.18 390.07,28.19 389.72,28.18 389.38,28.22 389.04,28.32 388.73,28.47 388.44,28.67 388.19,28.91 387.98,29.18 387.82,29.49 387.71,29.82 387.66,30.16 387.65,30.34 387.65,40.09 387.66,39.92 387.66,40.27 387.71,40.61 387.82,40.94 387.98,41.25 388.19,41.53 388.44,41.77 388.73,41.96 389.04,42.11 389.38,42.21 389.72,42.25 " style="stroke-width: 0.53; stroke: #0073D7; fill: #FFFFFF;" clip-path="url(#cpNi45NzM4NXw3MTMuMDI2fDIwOS4yMjd8Ni45NzM4NQ==)"/>
  <g clip-path="url(#cpNi45NzM4NXw3MTMuMDI2fDIwOS4yMjd8Ni45NzM4NQ==)">
    <text x="391.25" y="38.65" style="font-size: 9.96px; fill: #0073D7; font-family: Liberation Sans;" textLength="44.26px" lengthAdjust="spacingAndGlyphs">Wishbone</text>
  </g>
  <polyline points="518.58,101.93 567.38,101.93 567.30,101.93 567.64,101.92 567.98,101.85 568.31,101.72 568.61,101.55 568.88,101.33 569.11,101.07 569.30,100.78 569.43,100.46 569.52,100.12 569.54,99.77 569.54,99.77 569.54,90.02 569.54,90.02 569.52,89.67 569.43,89.33 569.30,89.01 569.11,88.72 568.88,88.46 568.61,88.24 568.31,88.07 567.98,87.94 567.64,87.87 567.38,87.86 518.58,87.86 518.84,87.87 518.49,87.86 518.15,87.90 517.82,88.00 517.50,88.15 517.22,88.34 516.96,88.58 516.76,88.86 516.59,89.17 516.48,89.50 516.43,89.84 516.42,90.02 516.42,99.77 516.43,99.60 516.43,99.95 516.48,100.29 516.59,100.62 516.76,100.93 516.96,101.20 517.22,101.45 517.50,101.64 517.82,101.79 518.15,101.89 518.49,101.93 " style="stroke-width: 0.53; stroke: #5ECD2E; fill: #FFFFFF;" clip-path="url(#cpNi45NzM4NXw3MTMuMDI2fDIwOS4yMjd8Ni45NzM4NQ==)"/>
  <g clip-path="url(#cpNi45NzM4NXw3MTMuMDI2fDIwOS4yMjd8Ni45NzM4NQ==)">
    <text x="520.02" y="98.33" style="font-size: 9.96px; fill: #5ECD2E; font-family: Liberation Sans;" textLength="45.92px" lengthAdjust="spacingAndGlyphs">Monocle 2</text>
  </g>
  <polyline points="601.44,24.65 624.23,24.65 624.15,24.65 624.49,24.63 624.84,24.56 625.16,24.44 625.46,24.27 625.73,24.05 625.96,23.79 626.15,23.49 626.28,23.17 626.37,22.84 626.39,22.49 626.39,22.49 626.39,12.73 626.39,12.73 626.37,12.39 626.28,12.05 626.15,11.73 625.96,11.44 625.73,11.18 625.46,10.96 625.16,10.78 624.84,10.66 624.49,10.59 624.23,10.57 601.44,10.57 601.70,10.59 601.35,10.58 601.01,10.62 600.67,10.71 600.36,10.86 600.07,11.06 599.82,11.30 599.61,11.58 599.45,11.89 599.34,12.22 599.29,12.56 599.28,12.73 599.28,22.49 599.29,22.32 599.29,22.66 599.34,23.01 599.45,23.34 599.61,23.64 599.82,23.92 600.07,24.16 600.36,24.36 600.67,24.51 601.01,24.61 601.35,24.65 " style="stroke-width: 0.53; stroke: #CFBF00; fill: #FFFFFF;" clip-path="url(#cpNi45NzM4NXw3MTMuMDI2fDIwOS4yMjd8Ni45NzM4NQ==)"/>
  <g clip-path="url(#cpNi45NzM4NXw3MTMuMDI2fDIwOS4yMjd8Ni45NzM4NQ==)">
    <text x="602.88" y="21.05" style="font-size: 9.96px; fill: #CFBF00; font-family: Liberation Sans;" textLength="19.92px" lengthAdjust="spacingAndGlyphs">PBA</text>
  </g>
  <polyline points="638.10,123.50 682.47,123.50 682.38,123.50 682.73,123.49 683.07,123.42 683.40,123.29 683.70,123.12 683.97,122.90 684.20,122.64 684.38,122.35 684.52,122.03 684.60,121.69 684.63,121.34 684.63,121.34 684.63,111.59 684.63,111.59 684.60,111.24 684.52,110.90 684.38,110.58 684.20,110.29 683.97,110.03 683.70,109.81 683.40,109.64 683.07,109.51 682.73,109.44 682.47,109.43 638.10,109.43 638.36,109.44 638.01,109.43 637.67,109.47 637.33,109.57 637.02,109.72 636.73,109.91 636.48,110.15 636.27,110.43 636.11,110.74 636.00,111.07 635.94,111.41 635.94,111.59 635.94,121.34 635.94,121.17 635.94,121.52 636.00,121.86 636.11,122.19 636.27,122.50 636.48,122.77 636.73,123.02 637.02,123.21 637.33,123.36 637.67,123.46 638.01,123.50 " style="stroke-width: 0.53; stroke: #5ECD2E; fill: #FFFFFF;" clip-path="url(#cpNi45NzM4NXw3MTMuMDI2fDIwOS4yMjd8Ni45NzM4NQ==)"/>
  <g clip-path="url(#cpNi45NzM4NXw3MTMuMDI2fDIwOS4yMjd8Ni45NzM4NQ==)">
    <text x="639.54" y="119.90" style="font-size: 9.96px; fill: #5ECD2E; font-family: Liberation Sans;" textLength="41.49px" lengthAdjust="spacingAndGlyphs">p-Creode</text>
  </g>
  <polyline points="600.02,101.75 634.44,101.75 634.35,101.74 634.70,101.73 635.04,101.66 635.36,101.54 635.66,101.36 635.93,101.14 636.16,100.88 636.35,100.59 636.49,100.27 636.57,99.93 636.60,99.59 636.60,99.59 636.60,89.83 636.60,89.83 636.57,89.48 636.49,89.15 636.35,88.83 636.16,88.53 635.93,88.27 635.66,88.05 635.36,87.88 635.04,87.76 634.70,87.69 634.44,87.67 600.02,87.67 600.28,87.69 599.93,87.67 599.59,87.71 599.26,87.81 598.94,87.96 598.66,88.16 598.40,88.40 598.20,88.68 598.03,88.98 597.92,89.31 597.87,89.66 597.86,89.83 597.86,99.59 597.87,99.41 597.87,99.76 597.92,100.10 598.03,100.43 598.20,100.74 598.40,101.02 598.66,101.26 598.94,101.46 599.26,101.61 599.59,101.70 599.93,101.74 " style="stroke-width: 0.53; stroke: #0073D7; fill: #FFFFFF;" clip-path="url(#cpNi45NzM4NXw3MTMuMDI2fDIwOS4yMjd8Ni45NzM4NQ==)"/>
  <g clip-path="url(#cpNi45NzM4NXw3MTMuMDI2fDIwOS4yMjd8Ni45NzM4NQ==)">
    <text x="601.46" y="98.15" style="font-size: 9.96px; fill: #0073D7; font-family: Liberation Sans;" textLength="31.54px" lengthAdjust="spacingAndGlyphs">scanpy</text>
  </g>
  <polyline points="456.26,100.26 506.69,100.26 506.61,100.26 506.95,100.24 507.29,100.17 507.62,100.05 507.92,99.88 508.19,99.66 508.42,99.40 508.61,99.10 508.74,98.78 508.82,98.44 508.85,98.10 508.85,98.10 508.85,88.34 508.85,88.34 508.82,88.00 508.74,87.66 508.61,87.34 508.42,87.04 508.19,86.78 507.92,86.56 507.62,86.39 507.29,86.27 506.95,86.20 506.69,86.18 456.26,86.18 456.52,86.20 456.17,86.18 455.83,86.23 455.49,86.32 455.18,86.47 454.89,86.67 454.64,86.91 454.43,87.19 454.27,87.50 454.16,87.83 454.11,88.17 454.10,88.34 454.10,98.10 454.11,97.92 454.11,98.27 454.16,98.61 454.27,98.94 454.43,99.25 454.64,99.53 454.89,99.77 455.18,99.97 455.49,100.12 455.83,100.21 456.17,100.26 " style="stroke-width: 0.53; stroke: #AF0DC7; fill: #FFFFFF;" clip-path="url(#cpNi45NzM4NXw3MTMuMDI2fDIwOS4yMjd8Ni45NzM4NQ==)"/>
  <g clip-path="url(#cpNi45NzM4NXw3MTMuMDI2fDIwOS4yMjd8Ni45NzM4NQ==)">
    <text x="457.70" y="96.66" style="font-size: 9.96px; fill: #AF0DC7; font-family: Liberation Sans;" textLength="47.55px" lengthAdjust="spacingAndGlyphs">SCIMITAR</text>
  </g>
  <polyline points="474.59,176.47 511.20,176.47 511.12,176.47 511.47,176.46 511.81,176.39 512.13,176.26 512.43,176.09 512.70,175.87 512.93,175.61 513.12,175.31 513.25,175.00 513.34,174.66 513.36,174.31 513.36,174.31 513.36,164.56 513.36,164.56 513.34,164.21 513.25,163.87 513.12,163.55 512.93,163.26 512.70,163.00 512.43,162.78 512.13,162.60 511.81,162.48 511.47,162.41 511.20,162.40 474.59,162.40 474.85,162.41 474.50,162.40 474.16,162.44 473.83,162.54 473.51,162.69 473.23,162.88 472.98,163.12 472.77,163.40 472.60,163.71 472.49,164.04 472.44,164.38 472.43,164.56 472.43,174.31 472.44,174.14 472.44,174.48 472.49,174.83 472.60,175.16 472.77,175.47 472.98,175.74 473.23,175.98 473.51,176.18 473.83,176.33 474.16,176.43 474.50,176.47 " style="stroke-width: 0.53; stroke: #AF0DC7; fill: #FFFFFF;" clip-path="url(#cpNi45NzM4NXw3MTMuMDI2fDIwOS4yMjd8Ni45NzM4NQ==)"/>
  <g clip-path="url(#cpNi45NzM4NXw3MTMuMDI2fDIwOS4yMjd8Ni45NzM4NQ==)">
    <text x="476.03" y="172.87" style="font-size: 9.96px; fill: #AF0DC7; font-family: Liberation Sans;" textLength="33.73px" lengthAdjust="spacingAndGlyphs">SCENT</text>
  </g>
  <polyline points="253.02,204.16 284.66,204.16 284.57,204.16 284.92,204.15 285.26,204.08 285.58,203.95 285.88,203.78 286.15,203.56 286.38,203.30 286.57,203.01 286.71,202.69 286.79,202.35 286.82,202.00 286.82,202.00 286.82,192.25 286.82,192.25 286.79,191.90 286.71,191.56 286.57,191.24 286.38,190.95 286.15,190.69 285.88,190.47 285.58,190.30 285.26,190.17 284.92,190.10 284.66,190.09 253.02,190.09 253.28,190.10 252.93,190.09 252.59,190.13 252.25,190.23 251.94,190.38 251.65,190.57 251.40,190.81 251.19,191.09 251.03,191.40 250.92,191.73 250.87,192.07 250.86,192.25 250.86,202.00 250.87,201.83 250.87,202.18 250.92,202.52 251.03,202.85 251.19,203.16 251.40,203.43 251.65,203.67 251.94,203.87 252.25,204.02 252.59,204.12 252.93,204.16 " style="stroke-width: 0.53; stroke: #AF0DC7; fill: #FFFFFF;" clip-path="url(#cpNi45NzM4NXw3MTMuMDI2fDIwOS4yMjd8Ni45NzM4NQ==)"/>
  <g clip-path="url(#cpNi45NzM4NXw3MTMuMDI2fDIwOS4yMjd8Ni45NzM4NQ==)">
    <text x="254.46" y="200.56" style="font-size: 9.96px; fill: #AF0DC7; font-family: Liberation Sans;" textLength="28.76px" lengthAdjust="spacingAndGlyphs">NBOR</text>
  </g>
  <polyline points="195.58,205.12 226.12,205.12 226.03,205.12 226.38,205.11 226.72,205.04 227.04,204.92 227.34,204.74 227.61,204.52 227.84,204.26 228.03,203.97 228.16,203.65 228.25,203.31 228.28,202.96 228.28,202.96 228.28,193.21 228.28,193.21 228.25,192.86 228.16,192.52 228.03,192.20 227.84,191.91 227.61,191.65 227.34,191.43 227.04,191.26 226.72,191.13 226.38,191.06 226.12,191.05 195.58,191.05 195.84,191.06 195.49,191.05 195.15,191.09 194.81,191.19 194.50,191.34 194.21,191.54 193.96,191.78 193.75,192.05 193.59,192.36 193.48,192.69 193.42,193.03 193.42,193.21 193.42,202.96 193.42,202.79 193.42,203.14 193.48,203.48 193.59,203.81 193.75,204.12 193.96,204.40 194.21,204.64 194.50,204.83 194.81,204.98 195.15,205.08 195.49,205.12 " style="stroke-width: 0.53; stroke: #5ECD2E; fill: #FFFFFF;" clip-path="url(#cpNi45NzM4NXw3MTMuMDI2fDIwOS4yMjd8Ni45NzM4NQ==)"/>
  <g clip-path="url(#cpNi45NzM4NXw3MTMuMDI2fDIwOS4yMjd8Ni45NzM4NQ==)">
    <text x="197.02" y="201.52" style="font-size: 9.96px; fill: #5ECD2E; font-family: Liberation Sans;" textLength="27.66px" lengthAdjust="spacingAndGlyphs">sincell</text>
  </g>
  <polyline points="423.17,153.85 449.28,153.85 449.19,153.85 449.54,153.83 449.88,153.76 450.21,153.64 450.51,153.47 450.78,153.25 451.01,152.99 451.19,152.69 451.33,152.37 451.41,152.03 451.44,151.69 451.44,151.69 451.44,141.93 451.44,141.93 451.41,141.59 451.33,141.25 451.19,140.93 451.01,140.63 450.78,140.37 450.51,140.15 450.21,139.98 449.88,139.86 449.54,139.79 449.28,139.77 423.17,139.77 423.43,139.79 423.08,139.77 422.73,139.82 422.40,139.91 422.09,140.06 421.80,140.26 421.55,140.50 421.34,140.78 421.18,141.09 421.07,141.42 421.01,141.76 421.01,141.93 421.01,151.69 421.01,151.51 421.01,151.86 421.07,152.20 421.18,152.53 421.34,152.84 421.55,153.12 421.80,153.36 422.09,153.56 422.40,153.71 422.73,153.80 423.08,153.85 " style="stroke-width: 0.53; stroke: #AF0DC7; fill: #FFFFFF;" clip-path="url(#cpNi45NzM4NXw3MTMuMDI2fDIwOS4yMjd8Ni45NzM4NQ==)"/>
  <g clip-path="url(#cpNi45NzM4NXw3MTMuMDI2fDIwOS4yMjd8Ni45NzM4NQ==)">
    <text x="424.61" y="150.25" style="font-size: 9.96px; fill: #AF0DC7; font-family: Liberation Sans;" textLength="23.24px" lengthAdjust="spacingAndGlyphs">Ouija</text>
  </g>
  <polyline points="644.35,150.22 692.03,150.22 691.95,150.22 692.29,150.20 692.63,150.13 692.96,150.01 693.26,149.84 693.53,149.62 693.76,149.36 693.95,149.06 694.08,148.74 694.17,148.40 694.19,148.06 694.19,148.06 694.19,138.30 694.19,138.30 694.17,137.96 694.08,137.62 693.95,137.30 693.76,137.01 693.53,136.75 693.26,136.53 692.96,136.35 692.63,136.23 692.29,136.16 692.03,136.14 644.35,136.14 644.61,136.16 644.26,136.14 643.92,136.19 643.58,136.28 643.27,136.43 642.98,136.63 642.73,136.87 642.52,137.15 642.36,137.46 642.25,137.79 642.20,138.13 642.19,138.30 642.19,148.06 642.20,147.88 642.20,148.23 642.25,148.57 642.36,148.90 642.52,149.21 642.73,149.49 642.98,149.73 643.27,149.93 643.58,150.08 643.92,150.17 644.26,150.22 " style="stroke-width: 0.53; stroke: #CFBF00; fill: #FFFFFF;" clip-path="url(#cpNi45NzM4NXw3MTMuMDI2fDIwOS4yMjd8Ni45NzM4NQ==)"/>
  <g clip-path="url(#cpNi45NzM4NXw3MTMuMDI2fDIwOS4yMjd8Ni45NzM4NQ==)">
    <text x="645.79" y="146.62" style="font-size: 9.96px; fill: #CFBF00; font-family: Liberation Sans;" textLength="44.80px" lengthAdjust="spacingAndGlyphs">GrandPrix</text>
  </g>
  <polyline points="417.31,79.94 453.38,79.94 453.29,79.94 453.64,79.93 453.98,79.86 454.30,79.73 454.60,79.56 454.87,79.34 455.10,79.08 455.29,78.79 455.43,78.47 455.51,78.13 455.54,77.78 455.54,77.78 455.54,68.03 455.54,68.03 455.51,67.68 455.43,67.34 455.29,67.02 455.10,66.73 454.87,66.47 454.60,66.25 454.30,66.08 453.98,65.95 453.64,65.88 453.38,65.87 417.31,65.87 417.57,65.88 417.23,65.87 416.88,65.91 416.55,66.01 416.23,66.16 415.95,66.35 415.70,66.59 415.49,66.87 415.33,67.18 415.22,67.51 415.16,67.85 415.15,68.03 415.15,77.78 415.16,77.61 415.16,77.96 415.22,78.30 415.33,78.63 415.49,78.94 415.70,79.21 415.95,79.45 416.23,79.65 416.55,79.80 416.88,79.90 417.23,79.94 " style="stroke-width: 0.53; stroke: #5ECD2E; fill: #FFFFFF;" clip-path="url(#cpNi45NzM4NXw3MTMuMDI2fDIwOS4yMjd8Ni45NzM4NQ==)"/>
  <g clip-path="url(#cpNi45NzM4NXw3MTMuMDI2fDIwOS4yMjd8Ni45NzM4NQ==)">
    <text x="418.75" y="76.34" style="font-size: 9.96px; fill: #5ECD2E; font-family: Liberation Sans;" textLength="33.18px" lengthAdjust="spacingAndGlyphs">StemID</text>
  </g>
  <polyline points="545.34,141.90 577.53,141.90 577.44,141.90 577.79,141.89 578.13,141.82 578.46,141.69 578.76,141.52 579.03,141.30 579.26,141.04 579.44,140.75 579.58,140.43 579.66,140.09 579.69,139.74 579.69,139.74 579.69,129.99 579.69,129.99 579.66,129.64 579.58,129.30 579.44,128.98 579.26,128.69 579.03,128.43 578.76,128.21 578.46,128.04 578.13,127.91 577.79,127.84 577.53,127.83 545.34,127.83 545.60,127.84 545.25,127.83 544.91,127.87 544.57,127.97 544.26,128.12 543.97,128.31 543.72,128.55 543.51,128.83 543.35,129.14 543.24,129.47 543.19,129.81 543.18,129.99 543.18,139.74 543.19,139.57 543.19,139.92 543.24,140.26 543.35,140.59 543.51,140.90 543.72,141.17 543.97,141.42 544.26,141.61 544.57,141.76 544.91,141.86 545.25,141.90 " style="stroke-width: 0.53; stroke: #5ECD2E; fill: #FFFFFF;" clip-path="url(#cpNi45NzM4NXw3MTMuMDI2fDIwOS4yMjd8Ni45NzM4NQ==)"/>
  <g clip-path="url(#cpNi45NzM4NXw3MTMuMDI2fDIwOS4yMjd8Ni45NzM4NQ==)">
    <text x="546.78" y="138.30" style="font-size: 9.96px; fill: #5ECD2E; font-family: Liberation Sans;" textLength="29.31px" lengthAdjust="spacingAndGlyphs">TASIC</text>
  </g>
  <polyline points="556.93,202.66 589.67,202.66 589.58,202.66 589.93,202.64 590.27,202.57 590.59,202.45 590.89,202.28 591.16,202.06 591.39,201.80 591.58,201.50 591.71,201.18 591.80,200.84 591.83,200.50 591.83,200.50 591.83,190.74 591.83,190.74 591.80,190.40 591.71,190.06 591.58,189.74 591.39,189.45 591.16,189.19 590.89,188.97 590.59,188.79 590.27,188.67 589.93,188.60 589.67,188.58 556.93,188.58 557.19,188.60 556.84,188.58 556.49,188.63 556.16,188.72 555.85,188.87 555.56,189.07 555.31,189.31 555.10,189.59 554.94,189.90 554.83,190.23 554.77,190.57 554.77,190.74 554.77,200.50 554.77,200.32 554.77,200.67 554.83,201.01 554.94,201.34 555.10,201.65 555.31,201.93 555.56,202.17 555.85,202.37 556.16,202.52 556.49,202.61 556.84,202.66 " style="stroke-width: 0.53; stroke: #AF0DC7; fill: #FFFFFF;" clip-path="url(#cpNi45NzM4NXw3MTMuMDI2fDIwOS4yMjd8Ni45NzM4NQ==)"/>
  <g clip-path="url(#cpNi45NzM4NXw3MTMuMDI2fDIwOS4yMjd8Ni45NzM4NQ==)">
    <text x="558.37" y="199.06" style="font-size: 9.96px; fill: #AF0DC7; font-family: Liberation Sans;" textLength="29.86px" lengthAdjust="spacingAndGlyphs">scTDA</text>
  </g>
  <polyline points="579.01,121.68 610.64,121.68 610.55,121.67 610.90,121.66 611.24,121.59 611.57,121.47 611.87,121.29 612.14,121.07 612.37,120.81 612.55,120.52 612.69,120.20 612.77,119.86 612.80,119.52 612.80,119.52 612.80,109.76 612.80,109.76 612.77,109.41 612.69,109.08 612.55,108.76 612.37,108.46 612.14,108.20 611.87,107.98 611.57,107.81 611.24,107.69 610.90,107.62 610.64,107.60 579.01,107.60 579.27,107.62 578.92,107.60 578.57,107.64 578.24,107.74 577.93,107.89 577.64,108.09 577.39,108.33 577.18,108.61 577.02,108.91 576.91,109.24 576.85,109.59 576.85,109.76 576.85,119.52 576.85,119.34 576.85,119.69 576.91,120.03 577.02,120.36 577.18,120.67 577.39,120.95 577.64,121.19 577.93,121.39 578.24,121.54 578.57,121.63 578.92,121.67 " style="stroke-width: 0.53; stroke: #39CCCC; fill: #FFFFFF;" clip-path="url(#cpNi45NzM4NXw3MTMuMDI2fDIwOS4yMjd8Ni45NzM4NQ==)"/>
  <g clip-path="url(#cpNi45NzM4NXw3MTMuMDI2fDIwOS4yMjd8Ni45NzM4NQ==)">
    <text x="580.45" y="118.08" style="font-size: 9.96px; fill: #39CCCC; font-family: Liberation Sans;" textLength="28.76px" lengthAdjust="spacingAndGlyphs">reCAT</text>
  </g>
  <polyline points="345.20,177.29 384.03,177.29 383.94,177.28 384.29,177.27 384.63,177.20 384.96,177.08 385.26,176.90 385.53,176.68 385.76,176.42 385.94,176.13 386.08,175.81 386.16,175.47 386.19,175.13 386.19,175.13 386.19,165.37 386.19,165.37 386.16,165.02 386.08,164.69 385.94,164.37 385.76,164.07 385.53,163.81 385.26,163.59 384.96,163.42 384.63,163.30 384.29,163.23 384.03,163.21 345.20,163.21 345.46,163.23 345.11,163.21 344.76,163.25 344.43,163.35 344.12,163.50 343.83,163.70 343.58,163.94 343.37,164.22 343.21,164.52 343.10,164.85 343.04,165.20 343.04,165.37 343.04,175.13 343.04,174.95 343.04,175.30 343.10,175.64 343.21,175.97 343.37,176.28 343.58,176.56 343.83,176.80 344.12,177.00 344.43,177.15 344.76,177.24 345.11,177.28 " style="stroke-width: 0.53; stroke: #5ECD2E; fill: #FFFFFF;" clip-path="url(#cpNi45NzM4NXw3MTMuMDI2fDIwOS4yMjd8Ni45NzM4NQ==)"/>
  <g clip-path="url(#cpNi45NzM4NXw3MTMuMDI2fDIwOS4yMjd8Ni45NzM4NQ==)">
    <text x="346.64" y="173.69" style="font-size: 9.96px; fill: #5ECD2E; font-family: Liberation Sans;" textLength="35.95px" lengthAdjust="spacingAndGlyphs">ECLAIR</text>
  </g>
  <polyline points="540.70,183.10 564.59,183.10 564.51,183.10 564.85,183.08 565.19,183.01 565.52,182.89 565.82,182.71 566.09,182.49 566.32,182.23 566.50,181.94 566.64,181.62 566.72,181.28 566.75,180.94 566.75,180.94 566.75,171.18 566.75,171.18 566.72,170.84 566.64,170.50 566.50,170.18 566.32,169.88 566.09,169.62 565.82,169.40 565.52,169.23 565.19,169.11 564.85,169.04 564.59,169.02 540.70,169.02 540.96,169.04 540.62,169.02 540.27,169.07 539.94,169.16 539.62,169.31 539.34,169.51 539.09,169.75 538.88,170.03 538.72,170.34 538.61,170.67 538.55,171.01 538.54,171.18 538.54,180.94 538.55,180.76 538.55,181.11 538.61,181.45 538.72,181.78 538.88,182.09 539.09,182.37 539.34,182.61 539.62,182.81 539.94,182.96 540.27,183.05 540.62,183.10 " style="stroke-width: 0.53; stroke: #CFBF00; fill: #FFFFFF;" clip-path="url(#cpNi45NzM4NXw3MTMuMDI2fDIwOS4yMjd8Ni45NzM4NQ==)"/>
  <g clip-path="url(#cpNi45NzM4NXw3MTMuMDI2fDIwOS4yMjd8Ni45NzM4NQ==)">
    <text x="542.14" y="179.50" style="font-size: 9.96px; fill: #CFBF00; font-family: Liberation Sans;" textLength="21.01px" lengthAdjust="spacingAndGlyphs">MFA</text>
  </g>
  <polyline points="394.34,24.65 421.00,24.65 420.91,24.65 421.26,24.63 421.60,24.56 421.93,24.44 422.23,24.27 422.50,24.05 422.73,23.79 422.91,23.49 423.05,23.17 423.13,22.84 423.16,22.49 423.16,22.49 423.16,12.73 423.16,12.73 423.13,12.39 423.05,12.05 422.91,11.73 422.73,11.44 422.50,11.18 422.23,10.96 421.93,10.78 421.60,10.66 421.26,10.59 421.00,10.57 394.34,10.57 394.60,10.59 394.25,10.58 393.90,10.62 393.57,10.71 393.26,10.86 392.97,11.06 392.72,11.30 392.51,11.58 392.35,11.89 392.24,12.22 392.18,12.56 392.18,12.73 392.18,22.49 392.18,22.32 392.18,22.66 392.24,23.01 392.35,23.34 392.51,23.64 392.72,23.92 392.97,24.16 393.26,24.36 393.57,24.51 393.90,24.61 394.25,24.65 " style="stroke-width: 0.53; stroke: #AF0DC7; fill: #FFFFFF;" clip-path="url(#cpNi45NzM4NXw3MTMuMDI2fDIwOS4yMjd8Ni45NzM4NQ==)"/>
  <g clip-path="url(#cpNi45NzM4NXw3MTMuMDI2fDIwOS4yMjd8Ni45NzM4NQ==)">
    <text x="395.78" y="21.05" style="font-size: 9.96px; fill: #AF0DC7; font-family: Liberation Sans;" textLength="23.78px" lengthAdjust="spacingAndGlyphs">SCell</text>
  </g>
  <polyline points="576.22,42.04 628.36,42.04 628.27,42.04 628.62,42.03 628.96,41.96 629.29,41.83 629.59,41.66 629.86,41.44 630.09,41.18 630.27,40.89 630.41,40.57 630.49,40.23 630.52,39.88 630.52,39.88 630.52,30.13 630.52,30.13 630.49,29.78 630.41,29.44 630.27,29.12 630.09,28.83 629.86,28.57 629.59,28.35 629.29,28.18 628.96,28.05 628.62,27.98 628.36,27.97 576.22,27.97 576.48,27.98 576.14,27.97 575.79,28.01 575.46,28.11 575.14,28.26 574.86,28.45 574.61,28.69 574.40,28.97 574.24,29.28 574.13,29.61 574.07,29.95 574.06,30.13 574.06,39.88 574.07,39.71 574.07,40.06 574.13,40.40 574.24,40.73 574.40,41.04 574.61,41.31 574.86,41.55 575.14,41.75 575.46,41.90 575.79,42.00 576.14,42.04 " style="stroke-width: 0.53; stroke: #AF0DC7; fill: #FFFFFF;" clip-path="url(#cpNi45NzM4NXw3MTMuMDI2fDIwOS4yMjd8Ni45NzM4NQ==)"/>
  <g clip-path="url(#cpNi45NzM4NXw3MTMuMDI2fDIwOS4yMjd8Ni45NzM4NQ==)">
    <text x="577.66" y="38.44" style="font-size: 9.96px; fill: #AF0DC7; font-family: Liberation Sans;" textLength="49.26px" lengthAdjust="spacingAndGlyphs">PhenoPath</text>
  </g>
  <polyline points="378.21,101.49 424.82,101.49 424.73,101.49 425.08,101.48 425.42,101.41 425.75,101.29 426.05,101.11 426.32,100.89 426.55,100.63 426.73,100.34 426.87,100.02 426.95,99.68 426.98,99.33 426.98,99.33 426.98,89.58 426.98,89.58 426.95,89.23 426.87,88.90 426.73,88.58 426.55,88.28 426.32,88.02 426.05,87.80 425.75,87.63 425.42,87.51 425.08,87.44 424.82,87.42 378.21,87.42 378.47,87.44 378.13,87.42 377.78,87.46 377.45,87.56 377.13,87.71 376.85,87.91 376.60,88.15 376.39,88.43 376.23,88.73 376.12,89.06 376.06,89.41 376.05,89.58 376.05,99.33 376.06,99.16 376.06,99.51 376.12,99.85 376.23,100.18 376.39,100.49 376.60,100.77 376.85,101.01 377.13,101.21 377.45,101.35 377.78,101.45 378.13,101.49 " style="stroke-width: 0.53; stroke: #AF0DC7; fill: #FFFFFF;" clip-path="url(#cpNi45NzM4NXw3MTMuMDI2fDIwOS4yMjd8Ni45NzM4NQ==)"/>
  <g clip-path="url(#cpNi45NzM4NXw3MTMuMDI2fDIwOS4yMjd8Ni45NzM4NQ==)">
    <text x="379.65" y="97.89" style="font-size: 9.96px; fill: #AF0DC7; font-family: Liberation Sans;" textLength="43.72px" lengthAdjust="spacingAndGlyphs">pseudogp</text>
  </g>
  <polyline points="62.10,180.93 115.32,180.93 115.23,180.93 115.58,180.91 115.92,180.84 116.25,180.72 116.55,180.54 116.82,180.32 117.05,180.06 117.23,179.77 117.37,179.45 117.45,179.11 117.48,178.77 117.48,178.77 117.48,169.01 117.48,169.01 117.45,168.67 117.37,168.33 117.23,168.01 117.05,167.71 116.82,167.45 116.55,167.23 116.25,167.06 115.92,166.94 115.58,166.87 115.32,166.85 62.10,166.85 62.36,166.87 62.02,166.85 61.67,166.90 61.34,166.99 61.02,167.14 60.74,167.34 60.49,167.58 60.28,167.86 60.12,168.17 60.00,168.50 59.95,168.84 59.94,169.01 59.94,178.77 59.95,178.59 59.95,178.94 60.00,179.28 60.12,179.61 60.28,179.92 60.49,180.20 60.74,180.44 61.02,180.64 61.34,180.79 61.67,180.88 62.02,180.93 " style="stroke-width: 0.53; stroke: #AF0DC7; fill: #FFFFFF;" clip-path="url(#cpNi45NzM4NXw3MTMuMDI2fDIwOS4yMjd8Ni45NzM4NQ==)"/>
  <g clip-path="url(#cpNi45NzM4NXw3MTMuMDI2fDIwOS4yMjd8Ni45NzM4NQ==)">
    <text x="63.54" y="177.33" style="font-size: 9.96px; fill: #AF0DC7; font-family: Liberation Sans;" textLength="50.34px" lengthAdjust="spacingAndGlyphs">Wanderlust</text>
  </g>
  <polyline points="592.49,143.40 629.67,143.40 629.58,143.39 629.93,143.38 630.27,143.31 630.60,143.19 630.90,143.01 631.17,142.79 631.40,142.53 631.58,142.24 631.72,141.92 631.80,141.58 631.83,141.24 631.83,141.24 631.83,131.48 631.83,131.48 631.80,131.14 631.72,130.80 631.58,130.48 631.40,130.18 631.17,129.92 630.90,129.70 630.60,129.53 630.27,129.41 629.93,129.34 629.67,129.32 592.49,129.32 592.75,129.34 592.40,129.32 592.06,129.37 591.72,129.46 591.41,129.61 591.12,129.81 590.87,130.05 590.66,130.33 590.50,130.63 590.39,130.96 590.34,131.31 590.33,131.48 590.33,141.24 590.34,141.06 590.34,141.41 590.39,141.75 590.50,142.08 590.66,142.39 590.87,142.67 591.12,142.91 591.41,143.11 591.72,143.26 592.06,143.35 592.40,143.39 " style="stroke-width: 0.53; stroke: #AF0DC7; fill: #FFFFFF;" clip-path="url(#cpNi45NzM4NXw3MTMuMDI2fDIwOS4yMjd8Ni45NzM4NQ==)"/>
  <g clip-path="url(#cpNi45NzM4NXw3MTMuMDI2fDIwOS4yMjd8Ni45NzM4NQ==)">
    <text x="593.93" y="139.80" style="font-size: 9.96px; fill: #AF0DC7; font-family: Liberation Sans;" textLength="34.30px" lengthAdjust="spacingAndGlyphs">SoptSC</text>
  </g>
  <polyline points="434.34,139.98 486.44,139.98 486.35,139.98 486.70,139.96 487.04,139.89 487.36,139.77 487.67,139.60 487.93,139.38 488.17,139.12 488.35,138.82 488.49,138.50 488.57,138.16 488.60,137.82 488.60,137.82 488.60,128.06 488.60,128.06 488.57,127.72 488.49,127.38 488.35,127.06 488.17,126.77 487.93,126.51 487.67,126.29 487.36,126.11 487.04,125.99 486.70,125.92 486.44,125.90 434.34,125.90 434.60,125.92 434.25,125.91 433.90,125.95 433.57,126.04 433.26,126.19 432.97,126.39 432.72,126.63 432.51,126.91 432.35,127.22 432.24,127.55 432.18,127.89 432.18,128.06 432.18,137.82 432.18,137.64 432.18,137.99 432.24,138.34 432.35,138.66 432.51,138.97 432.72,139.25 432.97,139.49 433.26,139.69 433.57,139.84 433.90,139.93 434.25,139.98 " style="stroke-width: 0.53; stroke: #AF0DC7; fill: #FFFFFF;" clip-path="url(#cpNi45NzM4NXw3MTMuMDI2fDIwOS4yMjd8Ni45NzM4NQ==)"/>
  <g clip-path="url(#cpNi45NzM4NXw3MTMuMDI2fDIwOS4yMjd8Ni45NzM4NQ==)">
    <text x="435.78" y="136.38" style="font-size: 9.96px; fill: #AF0DC7; font-family: Liberation Sans;" textLength="49.22px" lengthAdjust="spacingAndGlyphs">WaveCrest</text>
  </g>
  <polyline points="383.86,199.59 422.69,199.59 422.60,199.59 422.95,199.57 423.29,199.50 423.62,199.38 423.92,199.21 424.19,198.99 424.42,198.73 424.60,198.43 424.74,198.11 424.82,197.77 424.85,197.43 424.85,197.43 424.85,187.67 424.85,187.67 424.82,187.33 424.74,186.99 424.60,186.67 424.42,186.38 424.19,186.11 423.92,185.90 423.62,185.72 423.29,185.60 422.95,185.53 422.69,185.51 383.86,185.51 384.12,185.53 383.77,185.51 383.43,185.56 383.09,185.65 382.78,185.80 382.49,186.00 382.24,186.24 382.03,186.52 381.87,186.83 381.76,187.16 381.70,187.50 381.70,187.67 381.70,197.43 381.70,197.25 381.70,197.60 381.76,197.94 381.87,198.27 382.03,198.58 382.24,198.86 382.49,199.10 382.78,199.30 383.09,199.45 383.43,199.54 383.77,199.59 " style="stroke-width: 0.53; stroke: #FF8821; fill: #FFFFFF;" clip-path="url(#cpNi45NzM4NXw3MTMuMDI2fDIwOS4yMjd8Ni45NzM4NQ==)"/>
  <g clip-path="url(#cpNi45NzM4NXw3MTMuMDI2fDIwOS4yMjd8Ni45NzM4NQ==)">
    <text x="385.30" y="195.99" style="font-size: 9.96px; fill: #FF8821; font-family: Liberation Sans;" textLength="35.95px" lengthAdjust="spacingAndGlyphs">SLICER</text>
  </g>
  <polyline points="487.05,121.80 539.17,121.80 539.08,121.80 539.43,121.79 539.77,121.72 540.09,121.60 540.39,121.42 540.66,121.20 540.89,120.94 541.08,120.65 541.21,120.33 541.30,119.99 541.33,119.64 541.33,119.64 541.33,109.89 541.33,109.89 541.30,109.54 541.21,109.20 541.08,108.88 540.89,108.59 540.66,108.33 540.39,108.11 540.09,107.94 539.77,107.81 539.43,107.74 539.17,107.73 487.05,107.73 487.31,107.74 486.96,107.73 486.62,107.77 486.28,107.87 485.97,108.02 485.68,108.22 485.43,108.46 485.22,108.73 485.06,109.04 484.95,109.37 484.90,109.71 484.89,109.89 484.89,119.64 484.90,119.47 484.90,119.82 484.95,120.16 485.06,120.49 485.22,120.80 485.43,121.08 485.68,121.32 485.97,121.51 486.28,121.66 486.62,121.76 486.96,121.80 " style="stroke-width: 0.53; stroke: #5ECD2E; fill: #FFFFFF;" clip-path="url(#cpNi45NzM4NXw3MTMuMDI2fDIwOS4yMjd8Ni45NzM4NQ==)"/>
  <g clip-path="url(#cpNi45NzM4NXw3MTMuMDI2fDIwOS4yMjd8Ni45NzM4NQ==)">
    <text x="488.49" y="118.20" style="font-size: 9.96px; fill: #5ECD2E; font-family: Liberation Sans;" textLength="49.24px" lengthAdjust="spacingAndGlyphs">k-branches</text>
  </g>
  <polyline points="54.21,202.85 103.01,202.85 102.92,202.85 103.27,202.83 103.61,202.76 103.93,202.64 104.23,202.47 104.50,202.25 104.73,201.99 104.92,201.69 105.06,201.37 105.14,201.04 105.17,200.69 105.17,200.69 105.17,190.93 105.17,190.93 105.14,190.59 105.06,190.25 104.92,189.93 104.73,189.64 104.50,189.38 104.23,189.16 103.93,188.98 103.61,188.86 103.27,188.79 103.01,188.77 54.21,188.77 54.47,188.79 54.12,188.78 53.77,188.82 53.44,188.91 53.13,189.06 52.84,189.26 52.59,189.50 52.38,189.78 52.22,190.09 52.11,190.42 52.05,190.76 52.05,190.93 52.05,200.69 52.05,200.52 52.05,200.86 52.11,201.21 52.22,201.54 52.38,201.84 52.59,202.12 52.84,202.36 53.13,202.56 53.44,202.71 53.77,202.81 54.12,202.85 " style="stroke-width: 0.53; stroke: #5ECD2E; fill: #FFFFFF;" clip-path="url(#cpNi45NzM4NXw3MTMuMDI2fDIwOS4yMjd8Ni45NzM4NQ==)"/>
  <g clip-path="url(#cpNi45NzM4NXw3MTMuMDI2fDIwOS4yMjd8Ni45NzM4NQ==)">
    <text x="55.65" y="199.25" style="font-size: 9.96px; fill: #5ECD2E; font-family: Liberation Sans;" textLength="45.92px" lengthAdjust="spacingAndGlyphs">Monocle 1</text>
  </g>
  <polyline points="570.97,162.76 623.07,162.76 622.98,162.75 623.33,162.74 623.67,162.67 623.99,162.55 624.29,162.37 624.56,162.15 624.79,161.89 624.98,161.60 625.11,161.28 625.20,160.94 625.23,160.60 625.23,160.60 625.23,150.84 625.23,150.84 625.20,150.49 625.11,150.16 624.98,149.84 624.79,149.54 624.56,149.28 624.29,149.06 623.99,148.89 623.67,148.77 623.33,148.70 623.07,148.68 570.97,148.68 571.23,148.70 570.89,148.68 570.54,148.73 570.21,148.82 569.89,148.97 569.61,149.17 569.36,149.41 569.15,149.69 568.99,149.99 568.88,150.32 568.82,150.67 568.81,150.84 568.81,160.60 568.82,160.42 568.82,160.77 568.88,161.11 568.99,161.44 569.15,161.75 569.36,162.03 569.61,162.27 569.89,162.47 570.21,162.62 570.54,162.71 570.89,162.75 " style="stroke-width: 0.53; stroke: #AF0DC7; fill: #FFFFFF;" clip-path="url(#cpNi45NzM4NXw3MTMuMDI2fDIwOS4yMjd8Ni45NzM4NQ==)"/>
  <g clip-path="url(#cpNi45NzM4NXw3MTMuMDI2fDIwOS4yMjd8Ni45NzM4NQ==)">
    <text x="572.41" y="159.16" style="font-size: 9.96px; fill: #AF0DC7; font-family: Liberation Sans;" textLength="49.21px" lengthAdjust="spacingAndGlyphs">MATCHER</text>
  </g>
  <polyline points="282.40,155.84 342.27,155.84 342.18,155.84 342.53,155.83 342.87,155.76 343.19,155.63 343.50,155.46 343.76,155.24 344.00,154.98 344.18,154.69 344.32,154.37 344.40,154.03 344.43,153.68 344.43,153.68 344.43,143.93 344.43,143.93 344.40,143.58 344.32,143.24 344.18,142.92 344.00,142.63 343.76,142.37 343.50,142.15 343.19,141.98 342.87,141.85 342.53,141.78 342.27,141.77 282.40,141.77 282.66,141.78 282.31,141.77 281.96,141.81 281.63,141.91 281.32,142.06 281.03,142.25 280.78,142.49 280.57,142.77 280.41,143.08 280.30,143.41 280.24,143.75 280.24,143.93 280.24,153.68 280.24,153.51 280.24,153.86 280.30,154.20 280.41,154.53 280.57,154.84 280.78,155.11 281.03,155.36 281.32,155.55 281.63,155.70 281.96,155.80 282.31,155.84 " style="stroke-width: 0.53; stroke: #AF0DC7; fill: #FFFFFF;" clip-path="url(#cpNi45NzM4NXw3MTMuMDI2fDIwOS4yMjd8Ni45NzM4NQ==)"/>
  <g clip-path="url(#cpNi45NzM4NXw3MTMuMDI2fDIwOS4yMjd8Ni45NzM4NQ==)">
    <text x="283.84" y="152.24" style="font-size: 9.96px; fill: #AF0DC7; font-family: Liberation Sans;" textLength="56.99px" lengthAdjust="spacingAndGlyphs">gpseudotime</text>
  </g>
  <polyline points="285.99,182.78 328.13,182.78 328.05,182.78 328.39,182.77 328.74,182.70 329.06,182.57 329.36,182.40 329.63,182.18 329.86,181.92 330.05,181.63 330.18,181.31 330.27,180.97 330.29,180.62 330.29,180.62 330.29,170.87 330.29,170.87 330.27,170.52 330.18,170.18 330.05,169.86 329.86,169.57 329.63,169.31 329.36,169.09 329.06,168.92 328.74,168.79 328.39,168.72 328.13,168.71 285.99,168.71 286.25,168.72 285.90,168.71 285.55,168.75 285.22,168.85 284.91,169.00 284.62,169.19 284.37,169.44 284.16,169.71 284.00,170.02 283.89,170.35 283.83,170.69 283.83,170.87 283.83,180.62 283.83,180.45 283.83,180.80 283.89,181.14 284.00,181.47 284.16,181.78 284.37,182.06 284.62,182.30 284.91,182.49 285.22,182.64 285.55,182.74 285.90,182.78 " style="stroke-width: 0.53; stroke: #AF0DC7; fill: #FFFFFF;" clip-path="url(#cpNi45NzM4NXw3MTMuMDI2fDIwOS4yMjd8Ni45NzM4NQ==)"/>
  <g clip-path="url(#cpNi45NzM4NXw3MTMuMDI2fDIwOS4yMjd8Ni45NzM4NQ==)">
    <text x="287.43" y="179.18" style="font-size: 9.96px; fill: #AF0DC7; font-family: Liberation Sans;" textLength="39.27px" lengthAdjust="spacingAndGlyphs">Waterfall</text>
  </g>
  <polyline points="439.49,203.04 477.77,203.04 477.68,203.04 478.03,203.03 478.37,202.96 478.70,202.83 479.00,202.66 479.27,202.44 479.50,202.18 479.68,201.89 479.82,201.57 479.90,201.23 479.93,200.88 479.93,200.88 479.93,191.13 479.93,191.13 479.90,190.78 479.82,190.44 479.68,190.12 479.50,189.83 479.27,189.57 479.00,189.35 478.70,189.18 478.37,189.05 478.03,188.98 477.77,188.97 439.49,188.97 439.75,188.98 439.40,188.97 439.06,189.01 438.72,189.11 438.41,189.26 438.12,189.45 437.87,189.69 437.66,189.97 437.50,190.28 437.39,190.61 437.34,190.95 437.33,191.13 437.33,200.88 437.34,200.71 437.34,201.06 437.39,201.40 437.50,201.73 437.66,202.04 437.87,202.31 438.12,202.56 438.41,202.75 438.72,202.90 439.06,203.00 439.40,203.04 " style="stroke-width: 0.53; stroke: #5ECD2E; fill: #FFFFFF;" clip-path="url(#cpNi45NzM4NXw3MTMuMDI2fDIwOS4yMjd8Ni45NzM4NQ==)"/>
  <g clip-path="url(#cpNi45NzM4NXw3MTMuMDI2fDIwOS4yMjd8Ni45NzM4NQ==)">
    <text x="440.93" y="199.44" style="font-size: 9.96px; fill: #5ECD2E; font-family: Liberation Sans;" textLength="35.40px" lengthAdjust="spacingAndGlyphs">cellTree</text>
  </g>
  <polyline points="583.29,187.08 626.57,187.08 626.48,187.08 626.83,187.07 627.17,187.00 627.49,186.87 627.80,186.70 628.06,186.48 628.30,186.22 628.48,185.93 628.62,185.61 628.70,185.27 628.73,184.92 628.73,184.92 628.73,175.17 628.73,175.17 628.70,174.82 628.62,174.48 628.48,174.16 628.30,173.87 628.06,173.61 627.80,173.39 627.49,173.22 627.17,173.09 626.83,173.02 626.57,173.01 583.29,173.01 583.55,173.02 583.20,173.01 582.86,173.05 582.52,173.15 582.21,173.30 581.92,173.50 581.67,173.74 581.46,174.01 581.30,174.32 581.19,174.65 581.13,174.99 581.13,175.17 581.13,184.92 581.13,184.75 581.13,185.10 581.19,185.44 581.30,185.77 581.46,186.08 581.67,186.36 581.92,186.60 582.21,186.79 582.52,186.94 582.86,187.04 583.20,187.08 " style="stroke-width: 0.53; stroke: #AF0DC7; fill: #FFFFFF;" clip-path="url(#cpNi45NzM4NXw3MTMuMDI2fDIwOS4yMjd8Ni45NzM4NQ==)"/>
  <g clip-path="url(#cpNi45NzM4NXw3MTMuMDI2fDIwOS4yMjd8Ni45NzM4NQ==)">
    <text x="584.73" y="183.48" style="font-size: 9.96px; fill: #AF0DC7; font-family: Liberation Sans;" textLength="40.40px" lengthAdjust="spacingAndGlyphs">HopLand</text>
  </g>
  <polyline points="499.04,204.39 530.69,204.39 530.60,204.38 530.95,204.37 531.29,204.30 531.61,204.18 531.91,204.00 532.18,203.78 532.41,203.52 532.60,203.23 532.74,202.91 532.82,202.57 532.85,202.23 532.85,202.23 532.85,192.47 532.85,192.47 532.82,192.13 532.74,191.79 532.60,191.47 532.41,191.17 532.18,190.91 531.91,190.69 531.61,190.52 531.29,190.40 530.95,190.33 530.69,190.31 499.04,190.31 499.30,190.33 498.96,190.31 498.61,190.36 498.28,190.45 497.96,190.60 497.68,190.80 497.43,191.04 497.22,191.32 497.05,191.62 496.94,191.95 496.89,192.30 496.88,192.47 496.88,202.23 496.89,202.05 496.89,202.40 496.94,202.74 497.05,203.07 497.22,203.38 497.43,203.66 497.68,203.90 497.96,204.10 498.28,204.25 498.61,204.34 498.96,204.38 " style="stroke-width: 0.53; stroke: #5ECD2E; fill: #FFFFFF;" clip-path="url(#cpNi45NzM4NXw3MTMuMDI2fDIwOS4yMjd8Ni45NzM4NQ==)"/>
  <g clip-path="url(#cpNi45NzM4NXw3MTMuMDI2fDIwOS4yMjd8Ni45NzM4NQ==)">
    <text x="500.48" y="200.79" style="font-size: 9.96px; fill: #5ECD2E; font-family: Liberation Sans;" textLength="28.77px" lengthAdjust="spacingAndGlyphs">SLICE</text>
  </g>
  <polyline points="564.30,61.79 608.65,61.79 608.57,61.79 608.91,61.78 609.25,61.71 609.58,61.58 609.88,61.41 610.15,61.19 610.38,60.93 610.57,60.64 610.70,60.32 610.79,59.98 610.81,59.63 610.81,59.63 610.81,49.88 610.81,49.88 610.79,49.53 610.70,49.19 610.57,48.87 610.38,48.58 610.15,48.32 609.88,48.10 609.58,47.92 609.25,47.80 608.91,47.73 608.65,47.72 564.30,47.72 564.56,47.73 564.21,47.72 563.87,47.76 563.53,47.86 563.22,48.01 562.93,48.20 562.68,48.44 562.47,48.72 562.31,49.03 562.20,49.36 562.15,49.70 562.14,49.88 562.14,59.63 562.15,59.46 562.15,59.81 562.20,60.15 562.31,60.48 562.47,60.79 562.68,61.06 562.93,61.30 563.22,61.50 563.53,61.65 563.87,61.75 564.21,61.79 " style="stroke-width: 0.53; stroke: #AF0DC7; fill: #FFFFFF;" clip-path="url(#cpNi45NzM4NXw3MTMuMDI2fDIwOS4yMjd8Ni45NzM4NQ==)"/>
  <g clip-path="url(#cpNi45NzM4NXw3MTMuMDI2fDIwOS4yMjd8Ni45NzM4NQ==)">
    <text x="565.74" y="58.19" style="font-size: 9.96px; fill: #AF0DC7; font-family: Liberation Sans;" textLength="41.47px" lengthAdjust="spacingAndGlyphs">UNCURL</text>
  </g>
  <polyline points="594.19,172.35 683.32,172.35 683.23,172.35 683.58,172.33 683.92,172.26 684.25,172.14 684.55,171.97 684.82,171.75 685.05,171.49 685.23,171.19 685.37,170.87 685.45,170.54 685.48,170.19 685.48,170.19 685.48,160.43 685.48,160.43 685.45,160.09 685.37,159.75 685.23,159.43 685.05,159.14 684.82,158.88 684.55,158.66 684.25,158.48 683.92,158.36 683.58,158.29 683.32,158.27 594.19,158.27 594.45,158.29 594.11,158.28 593.76,158.32 593.43,158.42 593.11,158.56 592.83,158.76 592.58,159.00 592.37,159.28 592.21,159.59 592.10,159.92 592.04,160.26 592.03,160.43 592.03,170.19 592.04,170.02 592.04,170.36 592.10,170.71 592.21,171.04 592.37,171.34 592.58,171.62 592.83,171.86 593.11,172.06 593.43,172.21 593.76,172.31 594.11,172.35 " style="stroke-width: 0.53; stroke: #FF8821; fill: #FFFFFF;" clip-path="url(#cpNi45NzM4NXw3MTMuMDI2fDIwOS4yMjd8Ni45NzM4NQ==)"/>
  <g clip-path="url(#cpNi45NzM4NXw3MTMuMDI2fDIwOS4yMjd8Ni45NzM4NQ==)">
    <text x="595.63" y="168.75" style="font-size: 9.96px; fill: #FF8821; font-family: Liberation Sans;" textLength="86.25px" lengthAdjust="spacingAndGlyphs">WADDINGTON-OT</text>
  </g>
  <polyline points="527.96,162.15 566.79,162.15 566.71,162.15 567.06,162.13 567.40,162.06 567.72,161.94 568.02,161.76 568.29,161.54 568.52,161.28 568.71,160.99 568.84,160.67 568.93,160.33 568.95,159.99 568.95,159.99 568.95,150.23 568.95,150.23 568.93,149.89 568.84,149.55 568.71,149.23 568.52,148.93 568.29,148.67 568.02,148.45 567.72,148.28 567.40,148.16 567.06,148.09 566.79,148.07 527.96,148.07 528.22,148.09 527.87,148.07 527.52,148.12 527.19,148.21 526.88,148.36 526.59,148.56 526.34,148.80 526.13,149.08 525.97,149.39 525.86,149.72 525.80,150.06 525.80,150.23 525.80,159.99 525.80,159.81 525.80,160.16 525.86,160.50 525.97,160.83 526.13,161.14 526.34,161.42 526.59,161.66 526.88,161.86 527.19,162.01 527.52,162.10 527.87,162.15 " style="stroke-width: 0.53; stroke: #CFBF00; fill: #FFFFFF;" clip-path="url(#cpNi45NzM4NXw3MTMuMDI2fDIwOS4yMjd8Ni45NzM4NQ==)"/>
  <g clip-path="url(#cpNi45NzM4NXw3MTMuMDI2fDIwOS4yMjd8Ni45NzM4NQ==)">
    <text x="529.40" y="158.55" style="font-size: 9.96px; fill: #CFBF00; font-family: Liberation Sans;" textLength="35.96px" lengthAdjust="spacingAndGlyphs">GPfates</text>
  </g>
  <polyline points="546.94,80.59 589.11,80.59 589.02,80.59 589.37,80.57 589.71,80.50 590.03,80.38 590.33,80.21 590.60,79.99 590.83,79.73 591.02,79.43 591.15,79.11 591.24,78.78 591.27,78.43 591.27,78.43 591.27,68.67 591.27,68.67 591.24,68.33 591.15,67.99 591.02,67.67 590.83,67.38 590.60,67.12 590.33,66.90 590.03,66.72 589.71,66.60 589.37,66.53 589.11,66.51 546.94,66.51 547.20,66.53 546.86,66.52 546.51,66.56 546.18,66.65 545.86,66.80 545.58,67.00 545.33,67.24 545.12,67.52 544.96,67.83 544.85,68.16 544.79,68.50 544.78,68.67 544.78,78.43 544.79,78.25 544.79,78.60 544.85,78.95 544.96,79.28 545.12,79.58 545.33,79.86 545.58,80.10 545.86,80.30 546.18,80.45 546.51,80.55 546.86,80.59 " style="stroke-width: 0.53; stroke: #5ECD2E; fill: #FFFFFF;" clip-path="url(#cpNi45NzM4NXw3MTMuMDI2fDIwOS4yMjd8Ni45NzM4NQ==)"/>
  <g clip-path="url(#cpNi45NzM4NXw3MTMuMDI2fDIwOS4yMjd8Ni45NzM4NQ==)">
    <text x="548.38" y="76.99" style="font-size: 9.96px; fill: #5ECD2E; font-family: Liberation Sans;" textLength="39.28px" lengthAdjust="spacingAndGlyphs">slingshot</text>
  </g>
  <polyline points="399.91,169.21 436.52,169.21 436.43,169.21 436.78,169.19 437.12,169.12 437.44,169.00 437.75,168.83 438.01,168.61 438.24,168.35 438.43,168.05 438.57,167.73 438.65,167.40 438.68,167.05 438.68,167.05 438.68,157.29 438.68,157.29 438.65,156.95 438.57,156.61 438.43,156.29 438.24,156.00 438.01,155.74 437.75,155.52 437.44,155.34 437.12,155.22 436.78,155.15 436.52,155.13 399.91,155.13 400.17,155.15 399.82,155.14 399.47,155.18 399.14,155.27 398.83,155.42 398.54,155.62 398.29,155.86 398.08,156.14 397.92,156.45 397.81,156.78 397.75,157.12 397.75,157.29 397.75,167.05 397.75,166.88 397.75,167.22 397.81,167.57 397.92,167.90 398.08,168.20 398.29,168.48 398.54,168.72 398.83,168.92 399.14,169.07 399.47,169.17 399.82,169.21 " style="stroke-width: 0.53; stroke: #5ECD2E; fill: #FFFFFF;" clip-path="url(#cpNi45NzM4NXw3MTMuMDI2fDIwOS4yMjd8Ni45NzM4NQ==)"/>
  <g clip-path="url(#cpNi45NzM4NXw3MTMuMDI2fDIwOS4yMjd8Ni45NzM4NQ==)">
    <text x="401.35" y="165.61" style="font-size: 9.96px; fill: #5ECD2E; font-family: Liberation Sans;" textLength="33.73px" lengthAdjust="spacingAndGlyphs">TSCAN</text>
  </g>
  <polyline points="424.03,183.64 454.57,183.64 454.48,183.64 454.83,183.63 455.17,183.56 455.50,183.43 455.80,183.26 456.07,183.04 456.30,182.78 456.48,182.49 456.62,182.17 456.70,181.83 456.73,181.48 456.73,181.48 456.73,171.73 456.73,171.73 456.70,171.38 456.62,171.04 456.48,170.72 456.30,170.43 456.07,170.17 455.80,169.95 455.50,169.78 455.17,169.65 454.83,169.58 454.57,169.57 424.03,169.57 424.29,169.58 423.94,169.57 423.60,169.61 423.26,169.71 422.95,169.86 422.66,170.06 422.41,170.30 422.20,170.57 422.04,170.88 421.93,171.21 421.88,171.55 421.87,171.73 421.87,181.48 421.88,181.31 421.88,181.66 421.93,182.00 422.04,182.33 422.20,182.64 422.41,182.92 422.66,183.16 422.95,183.35 423.26,183.50 423.60,183.60 423.94,183.64 " style="stroke-width: 0.53; stroke: #5ECD2E; fill: #FFFFFF;" clip-path="url(#cpNi45NzM4NXw3MTMuMDI2fDIwOS4yMjd8Ni45NzM4NQ==)"/>
  <g clip-path="url(#cpNi45NzM4NXw3MTMuMDI2fDIwOS4yMjd8Ni45NzM4NQ==)">
    <text x="425.47" y="180.04" style="font-size: 9.96px; fill: #5ECD2E; font-family: Liberation Sans;" textLength="27.66px" lengthAdjust="spacingAndGlyphs">Mpath</text>
  </g>
  <polyline points="410.29,121.77 456.89,121.77 456.80,121.77 457.15,121.75 457.49,121.68 457.81,121.56 458.11,121.38 458.38,121.16 458.61,120.90 458.80,120.61 458.93,120.29 459.02,119.95 459.05,119.61 459.05,119.61 459.05,109.85 459.05,109.85 459.02,109.51 458.93,109.17 458.80,108.85 458.61,108.55 458.38,108.29 458.11,108.07 457.81,107.90 457.49,107.78 457.15,107.71 456.89,107.69 410.29,107.69 410.55,107.71 410.20,107.69 409.86,107.74 409.52,107.83 409.21,107.98 408.92,108.18 408.67,108.42 408.47,108.70 408.30,109.01 408.19,109.34 408.14,109.68 408.13,109.85 408.13,119.61 408.14,119.43 408.14,119.78 408.19,120.12 408.30,120.45 408.47,120.76 408.67,121.04 408.92,121.28 409.21,121.48 409.52,121.63 409.86,121.72 410.20,121.77 " style="stroke-width: 0.53; stroke: #AF0DC7; fill: #FFFFFF;" clip-path="url(#cpNi45NzM4NXw3MTMuMDI2fDIwOS4yMjd8Ni45NzM4NQ==)"/>
  <g clip-path="url(#cpNi45NzM4NXw3MTMuMDI2fDIwOS4yMjd8Ni45NzM4NQ==)">
    <text x="411.73" y="118.17" style="font-size: 9.96px; fill: #AF0DC7; font-family: Liberation Sans;" textLength="43.72px" lengthAdjust="spacingAndGlyphs">DeLorean</text>
  </g>
  <defs>
    <clipPath id="cpMHw3MjB8MjUyfDA=">
      <rect x="0.00" y="0.00" width="720.00" height="252.00"/>
    </clipPath>
  </defs>
  <polyline points="6.97,209.23 713.03,209.23 " style="stroke-width: 1.07; stroke-linecap: square;" clip-path="url(#cpMHw3MjB8MjUyfDA=)"/>
  <polyline points="39.07,212.71 39.07,209.23 " style="stroke-width: 1.07; stroke-linecap: butt;" clip-path="url(#cpMHw3MjB8MjUyfDA=)"/>
  <polyline points="199.42,212.71 199.42,209.23 " style="stroke-width: 1.07; stroke-linecap: butt;" clip-path="url(#cpMHw3MjB8MjUyfDA=)"/>
  <polyline points="359.78,212.71 359.78,209.23 " style="stroke-width: 1.07; stroke-linecap: butt;" clip-path="url(#cpMHw3MjB8MjUyfDA=)"/>
  <polyline points="520.58,212.71 520.58,209.23 " style="stroke-width: 1.07; stroke-linecap: butt;" clip-path="url(#cpMHw3MjB8MjUyfDA=)"/>
  <polyline points="680.93,212.71 680.93,209.23 " style="stroke-width: 1.07; stroke-linecap: butt;" clip-path="url(#cpMHw3MjB8MjUyfDA=)"/>
  <g clip-path="url(#cpMHw3MjB8MjUyfDA=)">
    <text x="25.72" y="223.95" style="font-size: 12.00px; font-family: Liberation Sans;" textLength="26.70px" lengthAdjust="spacingAndGlyphs">2014</text>
  </g>
  <g clip-path="url(#cpMHw3MjB8MjUyfDA=)">
    <text x="186.08" y="223.95" style="font-size: 12.00px; font-family: Liberation Sans;" textLength="26.70px" lengthAdjust="spacingAndGlyphs">2015</text>
  </g>
  <g clip-path="url(#cpMHw3MjB8MjUyfDA=)">
    <text x="346.43" y="223.95" style="font-size: 12.00px; font-family: Liberation Sans;" textLength="26.70px" lengthAdjust="spacingAndGlyphs">2016</text>
  </g>
  <g clip-path="url(#cpMHw3MjB8MjUyfDA=)">
    <text x="507.23" y="223.95" style="font-size: 12.00px; font-family: Liberation Sans;" textLength="26.70px" lengthAdjust="spacingAndGlyphs">2017</text>
  </g>
  <g clip-path="url(#cpMHw3MjB8MjUyfDA=)">
    <text x="667.59" y="223.95" style="font-size: 12.00px; font-family: Liberation Sans;" textLength="26.70px" lengthAdjust="spacingAndGlyphs">2018</text>
  </g>
  <g clip-path="url(#cpMHw3MjB8MjUyfDA=)">
    <text x="312.13" y="240.80" style="font-size: 14.00px; font-family: Liberation Sans;" textLength="95.74px" lengthAdjust="spacingAndGlyphs">Publishing date</text>
  </g>
</svg>
