<?xml version="1.0" encoding="UTF-8"?>
<svg xmlns="http://www.w3.org/2000/svg" xmlns:xlink="http://www.w3.org/1999/xlink" viewBox="0 0 720.00 252.00">
  <defs>
    <style type="text/css"><![CDATA[
    line, polyline, path, rect, circle {
      fill: none;
      stroke: #000000;
      stroke-linecap: round;
      stroke-linejoin: round;
      stroke-miterlimit: 10.00;
    }
  ]]></style>
  </defs>
  <line x1="612.84" y1="205.63" x2="612.84" y2="209.23" style="stroke-width: 1.07; stroke: #CFBF00;" clip-path="url(#cpNi45NzM4NXw3MTMuMDI2fDIwOS4yMjd8Ni45NzM4NQ==)"/>
  <line x1="198.55" y1="205.13" x2="198.55" y2="209.23" style="stroke-width: 1.07; stroke: #5ECD2E;" clip-path="url(#cpNi45NzM4NXw3MTMuMDI2fDIwOS4yMjd8Ni45NzM4NQ==)"/>
  <line x1="268.84" y1="204.95" x2="268.84" y2="209.22" style="stroke-width: 1.07; stroke: #AF0DC7;" clip-path="url(#cpNi45NzM4NXw3MTMuMDI2fDIwOS4yMjd8Ni45NzM4NQ==)"/>
  <line x1="433.59" y1="184.12" x2="433.59" y2="209.22" style="stroke-width: 1.07; stroke: #AF0DC7;" clip-path="url(#cpNi45NzM4NXw3MTMuMDI2fDIwOS4yMjd8Ni45NzM4NQ==)"/>
  <line x1="617.23" y1="166.64" x2="617.23" y2="209.22" style="stroke-width: 1.07; stroke: #0073D7;" clip-path="url(#cpNi45NzM4NXw3MTMuMDI2fDIwOS4yMjd8Ni45NzM4NQ==)"/>
  <line x1="492.90" y1="167.67" x2="492.90" y2="209.22" style="stroke-width: 1.07; stroke: #AF0DC7;" clip-path="url(#cpNi45NzM4NXw3MTMuMDI2fDIwOS4yMjd8Ni45NzM4NQ==)"/>
  <line x1="542.98" y1="183.10" x2="542.98" y2="209.22" style="stroke-width: 1.07; stroke: #5ECD2E;" clip-path="url(#cpNi45NzM4NXw3MTMuMDI2fDIwOS4yMjd8Ni45NzM4NQ==)"/>
  <line x1="458.63" y1="204.74" x2="458.63" y2="209.22" style="stroke-width: 1.07; stroke: #5ECD2E;" clip-path="url(#cpNi45NzM4NXw3MTMuMDI2fDIwOS4yMjd8Ni45NzM4NQ==)"/>
  <line x1="638.76" y1="148.26" x2="638.76" y2="209.22" style="stroke-width: 1.07; stroke: #FF8821;" clip-path="url(#cpNi45NzM4NXw3MTMuMDI2fDIwOS4yMjd8Ni45NzM4NQ==)"/>
  <line x1="307.06" y1="183.14" x2="307.06" y2="209.22" style="stroke-width: 1.07; stroke: #AF0DC7;" clip-path="url(#cpNi45NzM4NXw3MTMuMDI2fDIwOS4yMjd8Ni45NzM4NQ==)"/>
  <line x1="401.52" y1="121.47" x2="401.52" y2="209.22" style="stroke-width: 1.07; stroke: #AF0DC7;" clip-path="url(#cpNi45NzM4NXw3MTMuMDI2fDIwOS4yMjd8Ni45NzM4NQ==)"/>
  <line x1="513.11" y1="146.82" x2="513.11" y2="209.22" style="stroke-width: 1.07; stroke: #5ECD2E;" clip-path="url(#cpNi45NzM4NXw3MTMuMDI2fDIwOS4yMjd8Ni45NzM4NQ==)"/>
  <line x1="210.85" y1="183.47" x2="210.85" y2="209.22" style="stroke-width: 1.07; stroke: #5ECD2E;" clip-path="url(#cpNi45NzM4NXw3MTMuMDI2fDIwOS4yMjd8Ni45NzM4NQ==)"/>
  <line x1="539.47" y1="126.84" x2="539.47" y2="209.22" style="stroke-width: 1.07; stroke: #AF0DC7;" clip-path="url(#cpNi45NzM4NXw3MTMuMDI2fDIwOS4yMjd8Ni45NzM4NQ==)"/>
  <line x1="312.33" y1="155.22" x2="312.33" y2="209.22" style="stroke-width: 1.07; stroke: #AF0DC7;" clip-path="url(#cpNi45NzM4NXw3MTMuMDI2fDIwOS4yMjd8Ni45NzM4NQ==)"/>
  <line x1="543.42" y1="201.07" x2="543.42" y2="209.22" style="stroke-width: 1.07; stroke: #5ECD2E;" clip-path="url(#cpNi45NzM4NXw3MTMuMDI2fDIwOS4yMjd8Ni45NzM4NQ==)"/>
  <line x1="594.82" y1="185.24" x2="594.82" y2="209.22" style="stroke-width: 1.07; stroke: #39CCCC;" clip-path="url(#cpNi45NzM4NXw3MTMuMDI2fDIwOS4yMjd8Ni45NzM4NQ==)"/>
  <line x1="660.28" y1="205.22" x2="660.28" y2="209.22" style="stroke-width: 1.07; stroke: #5ECD2E;" clip-path="url(#cpNi45NzM4NXw3MTMuMDI2fDIwOS4yMjd8Ni45NzM4NQ==)"/>
  <line x1="597.02" y1="92.17" x2="597.02" y2="209.22" style="stroke-width: 1.07; stroke: #AF0DC7;" clip-path="url(#cpNi45NzM4NXw3MTMuMDI2fDIwOS4yMjd8Ni45NzM4NQ==)"/>
  <line x1="604.93" y1="132.72" x2="604.93" y2="209.22" style="stroke-width: 1.07; stroke: #AF0DC7;" clip-path="url(#cpNi45NzM4NXw3MTMuMDI2fDIwOS4yMjd8Ni45NzM4NQ==)"/>
  <line x1="418.21" y1="141.97" x2="418.21" y2="209.22" style="stroke-width: 1.07; stroke: #5ECD2E;" clip-path="url(#cpNi45NzM4NXw3MTMuMDI2fDIwOS4yMjd8Ni45NzM4NQ==)"/>
  <line x1="481.48" y1="126.09" x2="481.48" y2="209.22" style="stroke-width: 1.07; stroke: #AF0DC7;" clip-path="url(#cpNi45NzM4NXw3MTMuMDI2fDIwOS4yMjd8Ni45NzM4NQ==)"/>
  <line x1="78.61" y1="202.85" x2="78.61" y2="209.22" style="stroke-width: 1.07; stroke: #5ECD2E;" clip-path="url(#cpNi45NzM4NXw3MTMuMDI2fDIwOS4yMjd8Ni45NzM4NQ==)"/>
  <line x1="435.35" y1="162.64" x2="435.35" y2="209.22" style="stroke-width: 1.07; stroke: #5ECD2E;" clip-path="url(#cpNi45NzM4NXw3MTMuMDI2fDIwOS4yMjd8Ni45NzM4NQ==)"/>
  <line x1="482.79" y1="84.32" x2="482.79" y2="209.22" style="stroke-width: 1.07; stroke: #AF0DC7;" clip-path="url(#cpNi45NzM4NXw3MTMuMDI2fDIwOS4yMjd8Ni45NzM4NQ==)"/>
  <line x1="403.27" y1="204.72" x2="403.27" y2="209.21" style="stroke-width: 1.07; stroke: #FF8821;" clip-path="url(#cpNi45NzM4NXw3MTMuMDI2fDIwOS4yMjd8Ni45NzM4NQ==)"/>
  <line x1="439.30" y1="105.73" x2="439.30" y2="209.21" style="stroke-width: 1.07; stroke: #5ECD2E;" clip-path="url(#cpNi45NzM4NXw3MTMuMDI2fDIwOS4yMjd8Ni45NzM4NQ==)"/>
  <line x1="436.22" y1="42.71" x2="436.22" y2="209.21" style="stroke-width: 1.07; stroke: #AF0DC7;" clip-path="url(#cpNi45NzM4NXw3MTMuMDI2fDIwOS4yMjd8Ni45NzM4NQ==)"/>
  <line x1="561.43" y1="162.58" x2="561.43" y2="209.21" style="stroke-width: 1.07; stroke: #5ECD2E;" clip-path="url(#cpNi45NzM4NXw3MTMuMDI2fDIwOS4yMjd8Ni45NzM4NQ==)"/>
  <line x1="413.38" y1="85.56" x2="413.38" y2="209.21" style="stroke-width: 1.07; stroke: #0073D7;" clip-path="url(#cpNi45NzM4NXw3MTMuMDI2fDIwOS4yMjd8Ni45NzM4NQ==)"/>
  <line x1="552.65" y1="101.49" x2="552.65" y2="209.21" style="stroke-width: 1.07; stroke: #CFBF00;" clip-path="url(#cpNi45NzM4NXw3MTMuMDI2fDIwOS4yMjd8Ni45NzM4NQ==)"/>
  <line x1="429.63" y1="24.65" x2="429.63" y2="209.21" style="stroke-width: 1.07; stroke: #CFBF00;" clip-path="url(#cpNi45NzM4NXw3MTMuMDI2fDIwOS4yMjd8Ni45NzM4NQ==)"/>
  <line x1="668.19" y1="126.18" x2="668.19" y2="209.21" style="stroke-width: 1.07; stroke: #CFBF00;" clip-path="url(#cpNi45NzM4NXw3MTMuMDI2fDIwOS4yMjd8Ni45NzM4NQ==)"/>
  <line x1="313.65" y1="133.81" x2="313.65" y2="209.21" style="stroke-width: 1.07; stroke: #AF0DC7;" clip-path="url(#cpNi45NzM4NXw3MTMuMDI2fDIwOS4yMjd8Ni45NzM4NQ==)"/>
  <line x1="364.61" y1="176.81" x2="364.61" y2="209.21" style="stroke-width: 1.07; stroke: #5ECD2E;" clip-path="url(#cpNi45NzM4NXw3MTMuMDI2fDIwOS4yMjd8Ni45NzM4NQ==)"/>
  <line x1="547.38" y1="32.69" x2="547.38" y2="209.21" style="stroke-width: 1.07; stroke: #CFBF00;" clip-path="url(#cpNi45NzM4NXw3MTMuMDI2fDIwOS4yMjd8Ni45NzM4NQ==)"/>
  <line x1="376.47" y1="155.51" x2="376.47" y2="209.21" style="stroke-width: 1.07; stroke: #0073D7;" clip-path="url(#cpNi45NzM4NXw3MTMuMDI2fDIwOS4yMjd8Ni45NzM4NQ==)"/>
  <line x1="602.29" y1="54.48" x2="602.29" y2="209.21" style="stroke-width: 1.07; stroke: #AF0DC7;" clip-path="url(#cpNi45NzM4NXw3MTMuMDI2fDIwOS4yMjd8Ni45NzM4NQ==)"/>
  <line x1="666.87" y1="104.60" x2="666.87" y2="209.21" style="stroke-width: 1.07; stroke: #AF0DC7;" clip-path="url(#cpNi45NzM4NXw3MTMuMDI2fDIwOS4yMjd8Ni45NzM4NQ==)"/>
  <line x1="651.94" y1="83.05" x2="651.94" y2="209.21" style="stroke-width: 1.07; stroke: #FF4237;" clip-path="url(#cpNi45NzM4NXw3MTMuMDI2fDIwOS4yMjd8Ni45NzM4NQ==)"/>
  <line x1="611.08" y1="24.65" x2="611.08" y2="209.21" style="stroke-width: 1.07; stroke: #AF0DC7;" clip-path="url(#cpNi45NzM4NXw3MTMuMDI2fDIwOS4yMjd8Ni45NzM4NQ==)"/>
  <line x1="514.86" y1="59.79" x2="514.86" y2="209.21" style="stroke-width: 1.07; stroke: #5ECD2E;" clip-path="url(#cpNi45NzM4NXw3MTMuMDI2fDIwOS4yMjd8Ni45NzM4NQ==)"/>
  <line x1="460.39" y1="63.55" x2="460.39" y2="209.21" style="stroke-width: 1.07; stroke: #AF0DC7;" clip-path="url(#cpNi45NzM4NXw3MTMuMDI2fDIwOS4yMjd8Ni45NzM4NQ==)"/>
  <line x1="586.48" y1="113.37" x2="586.48" y2="209.21" style="stroke-width: 1.07; stroke: #AF0DC7;" clip-path="url(#cpNi45NzM4NXw3MTMuMDI2fDIwOS4yMjd8Ni45NzM4NQ==)"/>
  <line x1="88.71" y1="180.90" x2="88.71" y2="209.21" style="stroke-width: 1.07; stroke: #AF0DC7;" clip-path="url(#cpNi45NzM4NXw3MTMuMDI2fDIwOS4yMjd8Ni45NzM4NQ==)"/>
  <line x1="568.02" y1="79.85" x2="568.02" y2="209.21" style="stroke-width: 1.07; stroke: #5ECD2E;" clip-path="url(#cpNi45NzM4NXw3MTMuMDI2fDIwOS4yMjd8Ni45NzM4NQ==)"/>
  <line x1="407.67" y1="64.04" x2="407.67" y2="209.21" style="stroke-width: 1.07; stroke: #AF0DC7;" clip-path="url(#cpNi45NzM4NXw3MTMuMDI2fDIwOS4yMjd8Ni45NzM4NQ==)"/>
  <line x1="613.71" y1="39.80" x2="613.71" y2="209.21" style="stroke-width: 1.07; stroke: #0073D7;" clip-path="url(#cpNi45NzM4NXw3MTMuMDI2fDIwOS4yMjd8Ni45NzM4NQ==)"/>
  <line x1="573.30" y1="65.26" x2="573.30" y2="209.21" style="stroke-width: 1.07; stroke: #AF0DC7;" clip-path="url(#cpNi45NzM4NXw3MTMuMDI2fDIwOS4yMjd8Ni45NzM4NQ==)"/>
  <defs>
    <clipPath id="cpNi45NzM4NXw3MTMuMDI2fDIwOS4yMjd8Ni45NzM4NQ==">
      <rect x="6.97" y="6.97" width="706.05" height="202.25"/>
    </clipPath>
  </defs>
  <polyline points="556.93,65.26 589.67,65.26 589.58,65.26 589.93,65.25 590.27,65.18 590.59,65.05 590.89,64.88 591.16,64.66 591.39,64.40 591.58,64.11 591.71,63.79 591.80,63.45 591.83,63.10 591.83,63.10 591.83,53.35 591.83,53.35 591.80,53.00 591.71,52.66 591.58,52.34 591.39,52.05 591.16,51.79 590.89,51.57 590.59,51.39 590.27,51.27 589.93,51.20 589.67,51.19 556.93,51.19 557.19,51.20 556.84,51.19 556.49,51.23 556.16,51.33 555.85,51.48 555.56,51.67 555.31,51.91 555.10,52.19 554.94,52.50 554.83,52.83 554.77,53.17 554.77,53.35 554.77,63.10 554.77,62.93 554.77,63.28 554.83,63.62 554.94,63.95 555.10,64.26 555.31,64.53 555.56,64.77 555.85,64.97 556.16,65.12 556.49,65.22 556.84,65.26 " style="stroke-width: 0.53; stroke: #AF0DC7; fill: #FFFFFF;" clip-path="url(#cpNi45NzM4NXw3MTMuMDI2fDIwOS4yMjd8Ni45NzM4NQ==)"/>
  <g clip-path="url(#cpNi45NzM4NXw3MTMuMDI2fDIwOS4yMjd8Ni45NzM4NQ==)">
    <text x="558.37" y="61.66" style="font-size: 9.96px; fill: #AF0DC7; font-family: Liberation Sans;" textLength="29.86px" lengthAdjust="spacingAndGlyphs">scTDA</text>
  </g>
  <polyline points="601.77,39.80 625.66,39.80 625.58,39.80 625.92,39.79 626.27,39.72 626.59,39.59 626.89,39.42 627.16,39.20 627.39,38.94 627.58,38.64 627.71,38.33 627.80,37.99 627.82,37.64 627.82,37.64 627.82,27.89 627.82,27.89 627.80,27.54 627.71,27.20 627.58,26.88 627.39,26.59 627.16,26.33 626.89,26.11 626.59,25.93 626.27,25.81 625.92,25.74 625.66,25.73 601.77,25.73 602.03,25.74 601.68,25.73 601.33,25.77 601.00,25.87 600.69,26.02 600.40,26.21 600.15,26.45 599.94,26.73 599.78,27.04 599.67,27.37 599.61,27.71 599.61,27.89 599.61,37.64 599.61,37.47 599.61,37.81 599.67,38.16 599.78,38.49 599.94,38.80 600.15,39.07 600.40,39.31 600.69,39.51 601.00,39.66 601.33,39.76 601.68,39.80 " style="stroke-width: 0.53; stroke: #0073D7; fill: #FFFFFF;" clip-path="url(#cpNi45NzM4NXw3MTMuMDI2fDIwOS4yMjd8Ni45NzM4NQ==)"/>
  <g clip-path="url(#cpNi45NzM4NXw3MTMuMDI2fDIwOS4yMjd8Ni45NzM4NQ==)">
    <text x="603.21" y="36.20" style="font-size: 9.96px; fill: #0073D7; font-family: Liberation Sans;" textLength="21.02px" lengthAdjust="spacingAndGlyphs">BGP</text>
  </g>
  <polyline points="394.34,64.04 421.00,64.04 420.91,64.04 421.26,64.03 421.60,63.96 421.93,63.83 422.23,63.66 422.50,63.44 422.73,63.18 422.91,62.88 423.05,62.57 423.13,62.23 423.16,61.88 423.16,61.88 423.16,52.13 423.16,52.13 423.13,51.78 423.05,51.44 422.91,51.12 422.73,50.83 422.50,50.57 422.23,50.35 421.93,50.17 421.60,50.05 421.26,49.98 421.00,49.97 394.34,49.97 394.60,49.98 394.25,49.97 393.90,50.01 393.57,50.11 393.26,50.26 392.97,50.45 392.72,50.69 392.51,50.97 392.35,51.28 392.24,51.61 392.18,51.95 392.18,52.13 392.18,61.88 392.18,61.71 392.18,62.05 392.24,62.40 392.35,62.73 392.51,63.04 392.72,63.31 392.97,63.55 393.26,63.75 393.57,63.90 393.90,64.00 394.25,64.04 " style="stroke-width: 0.53; stroke: #AF0DC7; fill: #FFFFFF;" clip-path="url(#cpNi45NzM4NXw3MTMuMDI2fDIwOS4yMjd8Ni45NzM4NQ==)"/>
  <g clip-path="url(#cpNi45NzM4NXw3MTMuMDI2fDIwOS4yMjd8Ni45NzM4NQ==)">
    <text x="395.78" y="60.44" style="font-size: 9.96px; fill: #AF0DC7; font-family: Liberation Sans;" textLength="23.78px" lengthAdjust="spacingAndGlyphs">SCell</text>
  </g>
  <polyline points="546.94,79.85 589.11,79.85 589.02,79.85 589.37,79.84 589.71,79.77 590.03,79.64 590.33,79.47 590.60,79.25 590.83,78.99 591.02,78.70 591.15,78.38 591.24,78.04 591.27,77.69 591.27,77.69 591.27,67.94 591.27,67.94 591.24,67.59 591.15,67.25 591.02,66.93 590.83,66.64 590.60,66.38 590.33,66.16 590.03,65.99 589.71,65.86 589.37,65.79 589.11,65.78 546.94,65.78 547.20,65.79 546.86,65.78 546.51,65.82 546.18,65.92 545.86,66.07 545.58,66.26 545.33,66.50 545.12,66.78 544.96,67.09 544.85,67.42 544.79,67.76 544.78,67.94 544.78,77.69 544.79,77.52 544.79,77.87 544.85,78.21 544.96,78.54 545.12,78.85 545.33,79.12 545.58,79.36 545.86,79.56 546.18,79.71 546.51,79.81 546.86,79.85 " style="stroke-width: 0.53; stroke: #5ECD2E; fill: #FFFFFF;" clip-path="url(#cpNi45NzM4NXw3MTMuMDI2fDIwOS4yMjd8Ni45NzM4NQ==)"/>
  <g clip-path="url(#cpNi45NzM4NXw3MTMuMDI2fDIwOS4yMjd8Ni45NzM4NQ==)">
    <text x="548.38" y="76.25" style="font-size: 9.96px; fill: #5ECD2E; font-family: Liberation Sans;" textLength="39.28px" lengthAdjust="spacingAndGlyphs">slingshot</text>
  </g>
  <polyline points="62.10,180.90 115.32,180.90 115.23,180.90 115.58,180.89 115.92,180.82 116.25,180.69 116.55,180.52 116.82,180.30 117.05,180.04 117.23,179.75 117.37,179.43 117.45,179.09 117.48,178.74 117.48,178.74 117.48,168.99 117.48,168.99 117.45,168.64 117.37,168.30 117.23,167.98 117.05,167.69 116.82,167.43 116.55,167.21 116.25,167.04 115.92,166.91 115.58,166.84 115.32,166.83 62.10,166.83 62.36,166.84 62.02,166.83 61.67,166.87 61.34,166.97 61.02,167.12 60.74,167.31 60.49,167.55 60.28,167.83 60.12,168.14 60.00,168.47 59.95,168.81 59.94,168.99 59.94,178.74 59.95,178.57 59.95,178.92 60.00,179.26 60.12,179.59 60.28,179.90 60.49,180.17 60.74,180.41 61.02,180.61 61.34,180.76 61.67,180.86 62.02,180.90 " style="stroke-width: 0.53; stroke: #AF0DC7; fill: #FFFFFF;" clip-path="url(#cpNi45NzM4NXw3MTMuMDI2fDIwOS4yMjd8Ni45NzM4NQ==)"/>
  <g clip-path="url(#cpNi45NzM4NXw3MTMuMDI2fDIwOS4yMjd8Ni45NzM4NQ==)">
    <text x="63.54" y="177.30" style="font-size: 9.96px; fill: #AF0DC7; font-family: Liberation Sans;" textLength="50.34px" lengthAdjust="spacingAndGlyphs">Wanderlust</text>
  </g>
  <polyline points="564.30,113.37 608.65,113.37 608.57,113.37 608.91,113.36 609.25,113.29 609.58,113.17 609.88,112.99 610.15,112.77 610.38,112.51 610.57,112.22 610.70,111.90 610.79,111.56 610.81,111.21 610.81,111.21 610.81,101.46 610.81,101.46 610.79,101.11 610.70,100.78 610.57,100.46 610.38,100.16 610.15,99.90 609.88,99.68 609.58,99.51 609.25,99.38 608.91,99.32 608.65,99.30 564.30,99.30 564.56,99.32 564.21,99.30 563.87,99.34 563.53,99.44 563.22,99.59 562.93,99.79 562.68,100.03 562.47,100.31 562.31,100.61 562.20,100.94 562.15,101.29 562.14,101.46 562.14,111.21 562.15,111.04 562.15,111.39 562.20,111.73 562.31,112.06 562.47,112.37 562.68,112.65 562.93,112.89 563.22,113.09 563.53,113.23 563.87,113.33 564.21,113.37 " style="stroke-width: 0.53; stroke: #AF0DC7; fill: #FFFFFF;" clip-path="url(#cpNi45NzM4NXw3MTMuMDI2fDIwOS4yMjd8Ni45NzM4NQ==)"/>
  <g clip-path="url(#cpNi45NzM4NXw3MTMuMDI2fDIwOS4yMjd8Ni45NzM4NQ==)">
    <text x="565.74" y="109.77" style="font-size: 9.96px; fill: #AF0DC7; font-family: Liberation Sans;" textLength="41.47px" lengthAdjust="spacingAndGlyphs">UNCURL</text>
  </g>
  <polyline points="434.34,63.55 486.44,63.55 486.35,63.55 486.70,63.53 487.04,63.46 487.36,63.34 487.67,63.16 487.93,62.94 488.17,62.68 488.35,62.39 488.49,62.07 488.57,61.73 488.60,61.39 488.60,61.39 488.60,51.63 488.60,51.63 488.57,51.29 488.49,50.95 488.35,50.63 488.17,50.33 487.93,50.07 487.67,49.85 487.36,49.68 487.04,49.56 486.70,49.49 486.44,49.47 434.34,49.47 434.60,49.49 434.25,49.47 433.90,49.52 433.57,49.61 433.26,49.76 432.97,49.96 432.72,50.20 432.51,50.48 432.35,50.79 432.24,51.12 432.18,51.46 432.18,51.63 432.18,61.39 432.18,61.21 432.18,61.56 432.24,61.90 432.35,62.23 432.51,62.54 432.72,62.82 432.97,63.06 433.26,63.26 433.57,63.41 433.90,63.50 434.25,63.55 " style="stroke-width: 0.53; stroke: #AF0DC7; fill: #FFFFFF;" clip-path="url(#cpNi45NzM4NXw3MTMuMDI2fDIwOS4yMjd8Ni45NzM4NQ==)"/>
  <g clip-path="url(#cpNi45NzM4NXw3MTMuMDI2fDIwOS4yMjd8Ni45NzM4NQ==)">
    <text x="435.78" y="59.95" style="font-size: 9.96px; fill: #AF0DC7; font-family: Liberation Sans;" textLength="49.22px" lengthAdjust="spacingAndGlyphs">WaveCrest</text>
  </g>
  <polyline points="499.04,59.79 530.69,59.79 530.60,59.79 530.95,59.78 531.29,59.71 531.61,59.58 531.91,59.41 532.18,59.19 532.41,58.93 532.60,58.64 532.74,58.32 532.82,57.98 532.85,57.63 532.85,57.63 532.85,47.88 532.85,47.88 532.82,47.53 532.74,47.19 532.60,46.87 532.41,46.58 532.18,46.32 531.91,46.10 531.61,45.93 531.29,45.80 530.95,45.73 530.69,45.72 499.04,45.72 499.30,45.73 498.96,45.72 498.61,45.76 498.28,45.86 497.96,46.01 497.68,46.20 497.43,46.44 497.22,46.72 497.05,47.03 496.94,47.36 496.89,47.70 496.88,47.88 496.88,57.63 496.89,57.46 496.89,57.81 496.94,58.15 497.05,58.48 497.22,58.79 497.43,59.06 497.68,59.30 497.96,59.50 498.28,59.65 498.61,59.75 498.96,59.79 " style="stroke-width: 0.53; stroke: #5ECD2E; fill: #FFFFFF;" clip-path="url(#cpNi45NzM4NXw3MTMuMDI2fDIwOS4yMjd8Ni45NzM4NQ==)"/>
  <g clip-path="url(#cpNi45NzM4NXw3MTMuMDI2fDIwOS4yMjd8Ni45NzM4NQ==)">
    <text x="500.48" y="56.19" style="font-size: 9.96px; fill: #5ECD2E; font-family: Liberation Sans;" textLength="28.77px" lengthAdjust="spacingAndGlyphs">SLICE</text>
  </g>
  <polyline points="592.49,24.65 629.67,24.65 629.58,24.65 629.93,24.63 630.27,24.56 630.60,24.44 630.90,24.27 631.17,24.05 631.40,23.79 631.58,23.49 631.72,23.17 631.80,22.84 631.83,22.49 631.83,22.49 631.83,12.73 631.83,12.73 631.80,12.39 631.72,12.05 631.58,11.73 631.40,11.44 631.17,11.18 630.90,10.96 630.60,10.78 630.27,10.66 629.93,10.59 629.67,10.57 592.49,10.57 592.75,10.59 592.40,10.58 592.06,10.62 591.72,10.71 591.41,10.86 591.12,11.06 590.87,11.30 590.66,11.58 590.50,11.89 590.39,12.22 590.34,12.56 590.33,12.73 590.33,22.49 590.34,22.32 590.34,22.66 590.39,23.01 590.50,23.34 590.66,23.64 590.87,23.92 591.12,24.16 591.41,24.36 591.72,24.51 592.06,24.61 592.40,24.65 " style="stroke-width: 0.53; stroke: #AF0DC7; fill: #FFFFFF;" clip-path="url(#cpNi45NzM4NXw3MTMuMDI2fDIwOS4yMjd8Ni45NzM4NQ==)"/>
  <g clip-path="url(#cpNi45NzM4NXw3MTMuMDI2fDIwOS4yMjd8Ni45NzM4NQ==)">
    <text x="593.93" y="21.05" style="font-size: 9.96px; fill: #AF0DC7; font-family: Liberation Sans;" textLength="34.30px" lengthAdjust="spacingAndGlyphs">SoptSC</text>
  </g>
  <polyline points="639.99,83.05 663.89,83.05 663.80,83.05 664.15,83.04 664.49,82.97 664.81,82.84 665.11,82.67 665.38,82.45 665.61,82.19 665.80,81.89 665.94,81.58 666.02,81.24 666.05,80.89 666.05,80.89 666.05,71.14 666.05,71.14 666.02,70.79 665.94,70.45 665.80,70.13 665.61,69.84 665.38,69.58 665.11,69.36 664.81,69.18 664.49,69.06 664.15,68.99 663.89,68.98 639.99,68.98 640.25,68.99 639.90,68.98 639.56,69.02 639.22,69.12 638.91,69.27 638.62,69.46 638.37,69.70 638.16,69.98 638.00,70.29 637.89,70.62 637.83,70.96 637.83,71.14 637.83,80.89 637.83,80.72 637.83,81.06 637.89,81.41 638.00,81.74 638.16,82.05 638.37,82.32 638.62,82.56 638.91,82.76 639.22,82.91 639.56,83.01 639.90,83.05 " style="stroke-width: 0.53; stroke: #FF4237; fill: #FFFFFF;" clip-path="url(#cpNi45NzM4NXw3MTMuMDI2fDIwOS4yMjd8Ni45NzM4NQ==)"/>
  <g clip-path="url(#cpNi45NzM4NXw3MTMuMDI2fDIwOS4yMjd8Ni45NzM4NQ==)">
    <text x="641.43" y="79.45" style="font-size: 9.96px; fill: #FF4237; font-family: Liberation Sans;" textLength="21.02px" lengthAdjust="spacingAndGlyphs">AGA</text>
  </g>
  <polyline points="652.16,104.60 681.59,104.60 681.50,104.60 681.85,104.58 682.19,104.51 682.52,104.39 682.82,104.22 683.09,104.00 683.32,103.74 683.50,103.44 683.64,103.12 683.72,102.78 683.75,102.44 683.75,102.44 683.75,92.68 683.75,92.68 683.72,92.34 683.64,92.00 683.50,91.68 683.32,91.38 683.09,91.12 682.82,90.90 682.52,90.73 682.19,90.61 681.85,90.54 681.59,90.52 652.16,90.52 652.42,90.54 652.07,90.52 651.73,90.57 651.39,90.66 651.08,90.81 650.79,91.01 650.54,91.25 650.33,91.53 650.17,91.84 650.06,92.17 650.01,92.51 650.00,92.68 650.00,102.44 650.01,102.26 650.01,102.61 650.06,102.95 650.17,103.28 650.33,103.59 650.54,103.87 650.79,104.11 651.08,104.31 651.39,104.46 651.73,104.55 652.07,104.60 " style="stroke-width: 0.53; stroke: #AF0DC7; fill: #FFFFFF;" clip-path="url(#cpNi45NzM4NXw3MTMuMDI2fDIwOS4yMjd8Ni45NzM4NQ==)"/>
  <g clip-path="url(#cpNi45NzM4NXw3MTMuMDI2fDIwOS4yMjd8Ni45NzM4NQ==)">
    <text x="653.60" y="101.00" style="font-size: 9.96px; fill: #AF0DC7; font-family: Liberation Sans;" textLength="26.55px" lengthAdjust="spacingAndGlyphs">iCpSc</text>
  </g>
  <polyline points="576.22,54.48 628.36,54.48 628.27,54.48 628.62,54.46 628.96,54.39 629.29,54.27 629.59,54.09 629.86,53.87 630.09,53.61 630.27,53.32 630.41,53.00 630.49,52.66 630.52,52.32 630.52,52.32 630.52,42.56 630.52,42.56 630.49,42.22 630.41,41.88 630.27,41.56 630.09,41.26 629.86,41.00 629.59,40.78 629.29,40.61 628.96,40.49 628.62,40.42 628.36,40.40 576.22,40.40 576.48,40.42 576.14,40.40 575.79,40.45 575.46,40.54 575.14,40.69 574.86,40.89 574.61,41.13 574.40,41.41 574.24,41.72 574.13,42.04 574.07,42.39 574.06,42.56 574.06,52.32 574.07,52.14 574.07,52.49 574.13,52.83 574.24,53.16 574.40,53.47 574.61,53.75 574.86,53.99 575.14,54.19 575.46,54.34 575.79,54.43 576.14,54.48 " style="stroke-width: 0.53; stroke: #AF0DC7; fill: #FFFFFF;" clip-path="url(#cpNi45NzM4NXw3MTMuMDI2fDIwOS4yMjd8Ni45NzM4NQ==)"/>
  <g clip-path="url(#cpNi45NzM4NXw3MTMuMDI2fDIwOS4yMjd8Ni45NzM4NQ==)">
    <text x="577.66" y="50.88" style="font-size: 9.96px; fill: #AF0DC7; font-family: Liberation Sans;" textLength="49.26px" lengthAdjust="spacingAndGlyphs">PhenoPath</text>
  </g>
  <polyline points="365.08,155.51 387.87,155.51 387.78,155.51 388.13,155.49 388.47,155.43 388.79,155.30 389.10,155.13 389.36,154.91 389.59,154.65 389.78,154.35 389.92,154.03 390.00,153.70 390.03,153.35 390.03,153.35 390.03,143.60 390.03,143.60 390.00,143.25 389.92,142.91 389.78,142.59 389.59,142.30 389.36,142.04 389.10,141.82 388.79,141.64 388.47,141.52 388.13,141.45 387.87,141.44 365.08,141.44 365.34,141.45 364.99,141.44 364.65,141.48 364.32,141.58 364.00,141.72 363.72,141.92 363.47,142.16 363.26,142.44 363.09,142.75 362.98,143.08 362.93,143.42 362.92,143.60 362.92,153.35 362.93,153.18 362.93,153.52 362.98,153.87 363.09,154.20 363.26,154.50 363.47,154.78 363.72,155.02 364.00,155.22 364.32,155.37 364.65,155.47 364.99,155.51 " style="stroke-width: 0.53; stroke: #0073D7; fill: #FFFFFF;" clip-path="url(#cpNi45NzM4NXw3MTMuMDI2fDIwOS4yMjd8Ni45NzM4NQ==)"/>
  <g clip-path="url(#cpNi45NzM4NXw3MTMuMDI2fDIwOS4yMjd8Ni45NzM4NQ==)">
    <text x="366.52" y="151.91" style="font-size: 9.96px; fill: #0073D7; font-family: Liberation Sans;" textLength="19.91px" lengthAdjust="spacingAndGlyphs">DPT</text>
  </g>
  <polyline points="527.96,32.69 566.79,32.69 566.71,32.69 567.06,32.68 567.40,32.61 567.72,32.49 568.02,32.31 568.29,32.09 568.52,31.83 568.71,31.54 568.84,31.22 568.93,30.88 568.95,30.53 568.95,30.53 568.95,20.78 568.95,20.78 568.93,20.43 568.84,20.10 568.71,19.78 568.52,19.48 568.29,19.22 568.02,19.00 567.72,18.83 567.40,18.70 567.06,18.64 566.79,18.62 527.96,18.62 528.22,18.64 527.87,18.62 527.52,18.66 527.19,18.76 526.88,18.91 526.59,19.11 526.34,19.35 526.13,19.63 525.97,19.93 525.86,20.26 525.80,20.61 525.80,20.78 525.80,30.53 525.80,30.36 525.80,30.71 525.86,31.05 525.97,31.38 526.13,31.69 526.34,31.97 526.59,32.21 526.88,32.41 527.19,32.55 527.52,32.65 527.87,32.69 " style="stroke-width: 0.53; stroke: #CFBF00; fill: #FFFFFF;" clip-path="url(#cpNi45NzM4NXw3MTMuMDI2fDIwOS4yMjd8Ni45NzM4NQ==)"/>
  <g clip-path="url(#cpNi45NzM4NXw3MTMuMDI2fDIwOS4yMjd8Ni45NzM4NQ==)">
    <text x="529.40" y="29.09" style="font-size: 9.96px; fill: #CFBF00; font-family: Liberation Sans;" textLength="35.96px" lengthAdjust="spacingAndGlyphs">GPfates</text>
  </g>
  <polyline points="345.20,176.81 384.03,176.81 383.94,176.81 384.29,176.79 384.63,176.72 384.96,176.60 385.26,176.43 385.53,176.21 385.76,175.95 385.94,175.65 386.08,175.33 386.16,174.99 386.19,174.65 386.19,174.65 386.19,164.89 386.19,164.89 386.16,164.55 386.08,164.21 385.94,163.89 385.76,163.60 385.53,163.34 385.26,163.12 384.96,162.94 384.63,162.82 384.29,162.75 384.03,162.73 345.20,162.73 345.46,162.75 345.11,162.74 344.76,162.78 344.43,162.87 344.12,163.02 343.83,163.22 343.58,163.46 343.37,163.74 343.21,164.05 343.10,164.38 343.04,164.72 343.04,164.89 343.04,174.65 343.04,174.47 343.04,174.82 343.10,175.17 343.21,175.50 343.37,175.80 343.58,176.08 343.83,176.32 344.12,176.52 344.43,176.67 344.76,176.76 345.11,176.81 " style="stroke-width: 0.53; stroke: #5ECD2E; fill: #FFFFFF;" clip-path="url(#cpNi45NzM4NXw3MTMuMDI2fDIwOS4yMjd8Ni45NzM4NQ==)"/>
  <g clip-path="url(#cpNi45NzM4NXw3MTMuMDI2fDIwOS4yMjd8Ni45NzM4NQ==)">
    <text x="346.64" y="173.21" style="font-size: 9.96px; fill: #5ECD2E; font-family: Liberation Sans;" textLength="35.95px" lengthAdjust="spacingAndGlyphs">ECLAIR</text>
  </g>
  <polyline points="292.57,133.81 334.73,133.81 334.64,133.81 334.99,133.80 335.33,133.73 335.66,133.61 335.96,133.43 336.23,133.21 336.46,132.95 336.64,132.66 336.78,132.34 336.86,132.00 336.89,131.65 336.89,131.65 336.89,121.90 336.89,121.90 336.86,121.55 336.78,121.21 336.64,120.89 336.46,120.60 336.23,120.34 335.96,120.12 335.66,119.95 335.33,119.82 334.99,119.75 334.73,119.74 292.57,119.74 292.83,119.75 292.48,119.74 292.14,119.78 291.80,119.88 291.49,120.03 291.20,120.23 290.95,120.47 290.74,120.74 290.58,121.05 290.47,121.38 290.42,121.72 290.41,121.90 290.41,131.65 290.42,131.48 290.42,131.83 290.47,132.17 290.58,132.50 290.74,132.81 290.95,133.09 291.20,133.33 291.49,133.52 291.80,133.67 292.14,133.77 292.48,133.81 " style="stroke-width: 0.53; stroke: #AF0DC7; fill: #FFFFFF;" clip-path="url(#cpNi45NzM4NXw3MTMuMDI2fDIwOS4yMjd8Ni45NzM4NQ==)"/>
  <g clip-path="url(#cpNi45NzM4NXw3MTMuMDI2fDIwOS4yMjd8Ni45NzM4NQ==)">
    <text x="294.01" y="130.21" style="font-size: 9.96px; fill: #AF0DC7; font-family: Liberation Sans;" textLength="39.28px" lengthAdjust="spacingAndGlyphs">embeddr</text>
  </g>
  <polyline points="644.35,126.18 692.03,126.18 691.95,126.18 692.29,126.17 692.63,126.10 692.96,125.98 693.26,125.80 693.53,125.58 693.76,125.32 693.95,125.03 694.08,124.71 694.17,124.37 694.19,124.02 694.19,124.02 694.19,114.27 694.19,114.27 694.17,113.92 694.08,113.59 693.95,113.27 693.76,112.97 693.53,112.71 693.26,112.49 692.96,112.32 692.63,112.19 692.29,112.13 692.03,112.11 644.35,112.11 644.61,112.13 644.26,112.11 643.92,112.15 643.58,112.25 643.27,112.40 642.98,112.60 642.73,112.84 642.52,113.11 642.36,113.42 642.25,113.75 642.20,114.10 642.19,114.27 642.19,124.02 642.20,123.85 642.20,124.20 642.25,124.54 642.36,124.87 642.52,125.18 642.73,125.46 642.98,125.70 643.27,125.89 643.58,126.04 643.92,126.14 644.26,126.18 " style="stroke-width: 0.53; stroke: #CFBF00; fill: #FFFFFF;" clip-path="url(#cpNi45NzM4NXw3MTMuMDI2fDIwOS4yMjd8Ni45NzM4NQ==)"/>
  <g clip-path="url(#cpNi45NzM4NXw3MTMuMDI2fDIwOS4yMjd8Ni45NzM4NQ==)">
    <text x="645.79" y="122.58" style="font-size: 9.96px; fill: #CFBF00; font-family: Liberation Sans;" textLength="44.80px" lengthAdjust="spacingAndGlyphs">GrandPrix</text>
  </g>
  <polyline points="410.50,24.65 448.77,24.65 448.68,24.65 449.03,24.63 449.37,24.56 449.70,24.44 450.00,24.27 450.27,24.05 450.50,23.79 450.68,23.49 450.82,23.17 450.90,22.84 450.93,22.49 450.93,22.49 450.93,12.73 450.93,12.73 450.90,12.39 450.82,12.05 450.68,11.73 450.50,11.44 450.27,11.18 450.00,10.96 449.70,10.78 449.37,10.66 449.03,10.59 448.77,10.57 410.50,10.57 410.76,10.59 410.41,10.58 410.06,10.62 409.73,10.71 409.42,10.86 409.13,11.06 408.88,11.30 408.67,11.58 408.51,11.89 408.40,12.22 408.34,12.56 408.34,12.73 408.34,22.49 408.34,22.32 408.34,22.66 408.40,23.01 408.51,23.34 408.67,23.64 408.88,23.92 409.13,24.16 409.42,24.36 409.73,24.51 410.06,24.61 410.41,24.65 " style="stroke-width: 0.53; stroke: #CFBF00; fill: #FFFFFF;" clip-path="url(#cpNi45NzM4NXw3MTMuMDI2fDIwOS4yMjd8Ni45NzM4NQ==)"/>
  <g clip-path="url(#cpNi45NzM4NXw3MTMuMDI2fDIwOS4yMjd8Ni45NzM4NQ==)">
    <text x="411.94" y="21.05" style="font-size: 9.96px; fill: #CFBF00; font-family: Liberation Sans;" textLength="35.39px" lengthAdjust="spacingAndGlyphs">SCOUP</text>
  </g>
  <polyline points="540.70,101.49 564.59,101.49 564.51,101.49 564.85,101.47 565.19,101.40 565.52,101.28 565.82,101.11 566.09,100.89 566.32,100.63 566.50,100.33 566.64,100.01 566.72,99.67 566.75,99.33 566.75,99.33 566.75,89.57 566.75,89.57 566.72,89.23 566.64,88.89 566.50,88.57 566.32,88.28 566.09,88.02 565.82,87.80 565.52,87.62 565.19,87.50 564.85,87.43 564.59,87.41 540.70,87.41 540.96,87.43 540.62,87.42 540.27,87.46 539.94,87.55 539.62,87.70 539.34,87.90 539.09,88.14 538.88,88.42 538.72,88.73 538.61,89.06 538.55,89.40 538.54,89.57 538.54,99.33 538.55,99.15 538.55,99.50 538.61,99.85 538.72,100.17 538.88,100.48 539.09,100.76 539.34,101.00 539.62,101.20 539.94,101.35 540.27,101.44 540.62,101.49 " style="stroke-width: 0.53; stroke: #CFBF00; fill: #FFFFFF;" clip-path="url(#cpNi45NzM4NXw3MTMuMDI2fDIwOS4yMjd8Ni45NzM4NQ==)"/>
  <g clip-path="url(#cpNi45NzM4NXw3MTMuMDI2fDIwOS4yMjd8Ni45NzM4NQ==)">
    <text x="542.14" y="97.89" style="font-size: 9.96px; fill: #CFBF00; font-family: Liberation Sans;" textLength="21.01px" lengthAdjust="spacingAndGlyphs">MFA</text>
  </g>
  <polyline points="389.81,85.56 436.95,85.56 436.86,85.56 437.21,85.55 437.55,85.48 437.87,85.35 438.18,85.18 438.44,84.96 438.68,84.70 438.86,84.41 439.00,84.09 439.08,83.75 439.11,83.40 439.11,83.40 439.11,73.65 439.11,73.65 439.08,73.30 439.00,72.96 438.86,72.64 438.68,72.35 438.44,72.09 438.18,71.87 437.87,71.70 437.55,71.57 437.21,71.50 436.95,71.49 389.81,71.49 390.07,71.50 389.72,71.49 389.38,71.53 389.04,71.63 388.73,71.78 388.44,71.97 388.19,72.21 387.98,72.49 387.82,72.80 387.71,73.13 387.66,73.47 387.65,73.65 387.65,83.40 387.66,83.23 387.66,83.58 387.71,83.92 387.82,84.25 387.98,84.56 388.19,84.83 388.44,85.08 388.73,85.27 389.04,85.42 389.38,85.52 389.72,85.56 " style="stroke-width: 0.53; stroke: #0073D7; fill: #FFFFFF;" clip-path="url(#cpNi45NzM4NXw3MTMuMDI2fDIwOS4yMjd8Ni45NzM4NQ==)"/>
  <g clip-path="url(#cpNi45NzM4NXw3MTMuMDI2fDIwOS4yMjd8Ni45NzM4NQ==)">
    <text x="391.25" y="81.96" style="font-size: 9.96px; fill: #0073D7; font-family: Liberation Sans;" textLength="44.26px" lengthAdjust="spacingAndGlyphs">Wishbone</text>
  </g>
  <polyline points="545.34,162.58 577.53,162.58 577.44,162.58 577.79,162.57 578.13,162.50 578.46,162.38 578.76,162.20 579.03,161.98 579.26,161.72 579.44,161.43 579.58,161.11 579.66,160.77 579.69,160.42 579.69,160.42 579.69,150.67 579.69,150.67 579.66,150.32 579.58,149.99 579.44,149.67 579.26,149.37 579.03,149.11 578.76,148.89 578.46,148.72 578.13,148.59 577.79,148.53 577.53,148.51 545.34,148.51 545.60,148.53 545.25,148.51 544.91,148.55 544.57,148.65 544.26,148.80 543.97,149.00 543.72,149.24 543.51,149.52 543.35,149.82 543.24,150.15 543.19,150.50 543.18,150.67 543.18,160.42 543.19,160.25 543.19,160.60 543.24,160.94 543.35,161.27 543.51,161.58 543.72,161.86 543.97,162.10 544.26,162.30 544.57,162.44 544.91,162.54 545.25,162.58 " style="stroke-width: 0.53; stroke: #5ECD2E; fill: #FFFFFF;" clip-path="url(#cpNi45NzM4NXw3MTMuMDI2fDIwOS4yMjd8Ni45NzM4NQ==)"/>
  <g clip-path="url(#cpNi45NzM4NXw3MTMuMDI2fDIwOS4yMjd8Ni45NzM4NQ==)">
    <text x="546.78" y="158.98" style="font-size: 9.96px; fill: #5ECD2E; font-family: Liberation Sans;" textLength="29.31px" lengthAdjust="spacingAndGlyphs">TASIC</text>
  </g>
  <polyline points="423.17,42.71 449.28,42.71 449.19,42.71 449.54,42.69 449.88,42.62 450.21,42.50 450.51,42.33 450.78,42.11 451.01,41.85 451.19,41.55 451.33,41.23 451.41,40.90 451.44,40.55 451.44,40.55 451.44,30.79 451.44,30.79 451.41,30.45 451.33,30.11 451.19,29.79 451.01,29.50 450.78,29.24 450.51,29.02 450.21,28.84 449.88,28.72 449.54,28.65 449.28,28.63 423.17,28.63 423.43,28.65 423.08,28.64 422.73,28.68 422.40,28.77 422.09,28.92 421.80,29.12 421.55,29.36 421.34,29.64 421.18,29.95 421.07,30.28 421.01,30.62 421.01,30.79 421.01,40.55 421.01,40.38 421.01,40.72 421.07,41.07 421.18,41.40 421.34,41.70 421.55,41.98 421.80,42.22 422.09,42.42 422.40,42.57 422.73,42.67 423.08,42.71 " style="stroke-width: 0.53; stroke: #AF0DC7; fill: #FFFFFF;" clip-path="url(#cpNi45NzM4NXw3MTMuMDI2fDIwOS4yMjd8Ni45NzM4NQ==)"/>
  <g clip-path="url(#cpNi45NzM4NXw3MTMuMDI2fDIwOS4yMjd8Ni45NzM4NQ==)">
    <text x="424.61" y="39.11" style="font-size: 9.96px; fill: #AF0DC7; font-family: Liberation Sans;" textLength="23.24px" lengthAdjust="spacingAndGlyphs">Ouija</text>
  </g>
  <polyline points="424.03,105.73 454.57,105.73 454.48,105.73 454.83,105.71 455.17,105.64 455.50,105.52 455.80,105.35 456.07,105.13 456.30,104.87 456.48,104.57 456.62,104.25 456.70,103.92 456.73,103.57 456.73,103.57 456.73,93.81 456.73,93.81 456.70,93.47 456.62,93.13 456.48,92.81 456.30,92.52 456.07,92.26 455.80,92.04 455.50,91.86 455.17,91.74 454.83,91.67 454.57,91.65 424.03,91.65 424.29,91.67 423.94,91.66 423.60,91.70 423.26,91.79 422.95,91.94 422.66,92.14 422.41,92.38 422.20,92.66 422.04,92.97 421.93,93.30 421.88,93.64 421.87,93.81 421.87,103.57 421.88,103.40 421.88,103.74 421.93,104.09 422.04,104.42 422.20,104.72 422.41,105.00 422.66,105.24 422.95,105.44 423.26,105.59 423.60,105.69 423.94,105.73 " style="stroke-width: 0.53; stroke: #5ECD2E; fill: #FFFFFF;" clip-path="url(#cpNi45NzM4NXw3MTMuMDI2fDIwOS4yMjd8Ni45NzM4NQ==)"/>
  <g clip-path="url(#cpNi45NzM4NXw3MTMuMDI2fDIwOS4yMjd8Ni45NzM4NQ==)">
    <text x="425.47" y="102.13" style="font-size: 9.96px; fill: #5ECD2E; font-family: Liberation Sans;" textLength="27.66px" lengthAdjust="spacingAndGlyphs">Mpath</text>
  </g>
  <polyline points="383.86,204.72 422.69,204.72 422.60,204.72 422.95,204.71 423.29,204.64 423.62,204.51 423.92,204.34 424.19,204.12 424.42,203.86 424.60,203.56 424.74,203.24 424.82,202.91 424.85,202.56 424.85,202.56 424.85,192.81 424.85,192.81 424.82,192.46 424.74,192.12 424.60,191.80 424.42,191.51 424.19,191.25 423.92,191.03 423.62,190.85 423.29,190.73 422.95,190.66 422.69,190.65 383.86,190.65 384.12,190.66 383.77,190.65 383.43,190.69 383.09,190.79 382.78,190.94 382.49,191.13 382.24,191.37 382.03,191.65 381.87,191.96 381.76,192.29 381.70,192.63 381.70,192.81 381.70,202.56 381.70,202.39 381.70,202.73 381.76,203.08 381.87,203.41 382.03,203.72 382.24,203.99 382.49,204.23 382.78,204.43 383.09,204.58 383.43,204.68 383.77,204.72 " style="stroke-width: 0.53; stroke: #FF8821; fill: #FFFFFF;" clip-path="url(#cpNi45NzM4NXw3MTMuMDI2fDIwOS4yMjd8Ni45NzM4NQ==)"/>
  <g clip-path="url(#cpNi45NzM4NXw3MTMuMDI2fDIwOS4yMjd8Ni45NzM4NQ==)">
    <text x="385.30" y="201.12" style="font-size: 9.96px; fill: #FF8821; font-family: Liberation Sans;" textLength="35.95px" lengthAdjust="spacingAndGlyphs">SLICER</text>
  </g>
  <polyline points="455.36,84.32 510.23,84.32 510.14,84.32 510.49,84.31 510.83,84.24 511.15,84.12 511.45,83.94 511.72,83.72 511.95,83.46 512.14,83.17 512.28,82.85 512.36,82.51 512.39,82.16 512.39,82.16 512.39,72.41 512.39,72.41 512.36,72.06 512.28,71.73 512.14,71.41 511.95,71.11 511.72,70.85 511.45,70.63 511.15,70.46 510.83,70.33 510.49,70.26 510.23,70.25 455.36,70.25 455.62,70.26 455.27,70.25 454.93,70.29 454.59,70.39 454.28,70.54 453.99,70.74 453.74,70.98 453.53,71.25 453.37,71.56 453.26,71.89 453.21,72.24 453.20,72.41 453.20,82.16 453.21,81.99 453.21,82.34 453.26,82.68 453.37,83.01 453.53,83.32 453.74,83.60 453.99,83.84 454.28,84.03 454.59,84.18 454.93,84.28 455.27,84.32 " style="stroke-width: 0.53; stroke: #AF0DC7; fill: #FFFFFF;" clip-path="url(#cpNi45NzM4NXw3MTMuMDI2fDIwOS4yMjd8Ni45NzM4NQ==)"/>
  <g clip-path="url(#cpNi45NzM4NXw3MTMuMDI2fDIwOS4yMjd8Ni45NzM4NQ==)">
    <text x="456.80" y="80.72" style="font-size: 9.96px; fill: #AF0DC7; font-family: Liberation Sans;" textLength="51.99px" lengthAdjust="spacingAndGlyphs">SCORPIUS</text>
  </g>
  <polyline points="417.31,162.64 453.38,162.64 453.29,162.64 453.64,162.63 453.98,162.56 454.30,162.43 454.60,162.26 454.87,162.04 455.10,161.78 455.29,161.49 455.43,161.17 455.51,160.83 455.54,160.48 455.54,160.48 455.54,150.73 455.54,150.73 455.51,150.38 455.43,150.04 455.29,149.72 455.10,149.43 454.87,149.17 454.60,148.95 454.30,148.78 453.98,148.65 453.64,148.58 453.38,148.57 417.31,148.57 417.57,148.58 417.23,148.57 416.88,148.61 416.55,148.71 416.23,148.86 415.95,149.05 415.70,149.29 415.49,149.57 415.33,149.88 415.22,150.21 415.16,150.55 415.15,150.73 415.15,160.48 415.16,160.31 415.16,160.66 415.22,161.00 415.33,161.33 415.49,161.64 415.70,161.91 415.95,162.15 416.23,162.35 416.55,162.50 416.88,162.60 417.23,162.64 " style="stroke-width: 0.53; stroke: #5ECD2E; fill: #FFFFFF;" clip-path="url(#cpNi45NzM4NXw3MTMuMDI2fDIwOS4yMjd8Ni45NzM4NQ==)"/>
  <g clip-path="url(#cpNi45NzM4NXw3MTMuMDI2fDIwOS4yMjd8Ni45NzM4NQ==)">
    <text x="418.75" y="159.04" style="font-size: 9.96px; fill: #5ECD2E; font-family: Liberation Sans;" textLength="33.18px" lengthAdjust="spacingAndGlyphs">StemID</text>
  </g>
  <polyline points="54.21,202.85 103.01,202.85 102.92,202.84 103.27,202.83 103.61,202.76 103.93,202.64 104.23,202.46 104.50,202.24 104.73,201.98 104.92,201.69 105.06,201.37 105.14,201.03 105.17,200.69 105.17,200.69 105.17,190.93 105.17,190.93 105.14,190.58 105.06,190.25 104.92,189.93 104.73,189.63 104.50,189.37 104.23,189.15 103.93,188.98 103.61,188.86 103.27,188.79 103.01,188.77 54.21,188.77 54.47,188.79 54.12,188.77 53.77,188.82 53.44,188.91 53.13,189.06 52.84,189.26 52.59,189.50 52.38,189.78 52.22,190.08 52.11,190.41 52.05,190.76 52.05,190.93 52.05,200.69 52.05,200.51 52.05,200.86 52.11,201.20 52.22,201.53 52.38,201.84 52.59,202.12 52.84,202.36 53.13,202.56 53.44,202.71 53.77,202.80 54.12,202.84 " style="stroke-width: 0.53; stroke: #5ECD2E; fill: #FFFFFF;" clip-path="url(#cpNi45NzM4NXw3MTMuMDI2fDIwOS4yMjd8Ni45NzM4NQ==)"/>
  <g clip-path="url(#cpNi45NzM4NXw3MTMuMDI2fDIwOS4yMjd8Ni45NzM4NQ==)">
    <text x="55.65" y="199.25" style="font-size: 9.96px; fill: #5ECD2E; font-family: Liberation Sans;" textLength="45.92px" lengthAdjust="spacingAndGlyphs">Monocle 1</text>
  </g>
  <polyline points="456.26,126.09 506.69,126.09 506.61,126.09 506.95,126.08 507.29,126.01 507.62,125.89 507.92,125.71 508.19,125.49 508.42,125.23 508.61,124.94 508.74,124.62 508.82,124.28 508.85,123.93 508.85,123.93 508.85,114.18 508.85,114.18 508.82,113.83 508.74,113.50 508.61,113.18 508.42,112.88 508.19,112.62 507.92,112.40 507.62,112.23 507.29,112.11 506.95,112.04 506.69,112.02 456.26,112.02 456.52,112.04 456.17,112.02 455.83,112.06 455.49,112.16 455.18,112.31 454.89,112.51 454.64,112.75 454.43,113.03 454.27,113.33 454.16,113.66 454.11,114.01 454.10,114.18 454.10,123.93 454.11,123.76 454.11,124.11 454.16,124.45 454.27,124.78 454.43,125.09 454.64,125.37 454.89,125.61 455.18,125.81 455.49,125.95 455.83,126.05 456.17,126.09 " style="stroke-width: 0.53; stroke: #AF0DC7; fill: #FFFFFF;" clip-path="url(#cpNi45NzM4NXw3MTMuMDI2fDIwOS4yMjd8Ni45NzM4NQ==)"/>
  <g clip-path="url(#cpNi45NzM4NXw3MTMuMDI2fDIwOS4yMjd8Ni45NzM4NQ==)">
    <text x="457.70" y="122.49" style="font-size: 9.96px; fill: #AF0DC7; font-family: Liberation Sans;" textLength="47.55px" lengthAdjust="spacingAndGlyphs">SCIMITAR</text>
  </g>
  <polyline points="399.91,141.97 436.52,141.97 436.43,141.96 436.78,141.95 437.12,141.88 437.44,141.76 437.75,141.58 438.01,141.36 438.24,141.10 438.43,140.81 438.57,140.49 438.65,140.15 438.68,139.81 438.68,139.81 438.68,130.05 438.68,130.05 438.65,129.70 438.57,129.37 438.43,129.05 438.24,128.75 438.01,128.49 437.75,128.27 437.44,128.10 437.12,127.98 436.78,127.91 436.52,127.89 399.91,127.89 400.17,127.91 399.82,127.89 399.47,127.93 399.14,128.03 398.83,128.18 398.54,128.38 398.29,128.62 398.08,128.90 397.92,129.20 397.81,129.53 397.75,129.88 397.75,130.05 397.75,139.81 397.75,139.63 397.75,139.98 397.81,140.32 397.92,140.65 398.08,140.96 398.29,141.24 398.54,141.48 398.83,141.68 399.14,141.82 399.47,141.92 399.82,141.96 " style="stroke-width: 0.53; stroke: #5ECD2E; fill: #FFFFFF;" clip-path="url(#cpNi45NzM4NXw3MTMuMDI2fDIwOS4yMjd8Ni45NzM4NQ==)"/>
  <g clip-path="url(#cpNi45NzM4NXw3MTMuMDI2fDIwOS4yMjd8Ni45NzM4NQ==)">
    <text x="401.35" y="138.37" style="font-size: 9.96px; fill: #5ECD2E; font-family: Liberation Sans;" textLength="33.73px" lengthAdjust="spacingAndGlyphs">TSCAN</text>
  </g>
  <polyline points="583.29,132.72 626.57,132.72 626.48,132.72 626.83,132.70 627.17,132.63 627.49,132.51 627.80,132.34 628.06,132.12 628.30,131.86 628.48,131.56 628.62,131.24 628.70,130.90 628.73,130.56 628.73,130.56 628.73,120.80 628.73,120.80 628.70,120.46 628.62,120.12 628.48,119.80 628.30,119.51 628.06,119.25 627.80,119.03 627.49,118.85 627.17,118.73 626.83,118.66 626.57,118.64 583.29,118.64 583.55,118.66 583.20,118.64 582.86,118.69 582.52,118.78 582.21,118.93 581.92,119.13 581.67,119.37 581.46,119.65 581.30,119.96 581.19,120.29 581.13,120.63 581.13,120.80 581.13,130.56 581.13,130.38 581.13,130.73 581.19,131.08 581.30,131.40 581.46,131.71 581.67,131.99 581.92,132.23 582.21,132.43 582.52,132.58 582.86,132.67 583.20,132.72 " style="stroke-width: 0.53; stroke: #AF0DC7; fill: #FFFFFF;" clip-path="url(#cpNi45NzM4NXw3MTMuMDI2fDIwOS4yMjd8Ni45NzM4NQ==)"/>
  <g clip-path="url(#cpNi45NzM4NXw3MTMuMDI2fDIwOS4yMjd8Ni45NzM4NQ==)">
    <text x="584.73" y="129.12" style="font-size: 9.96px; fill: #AF0DC7; font-family: Liberation Sans;" textLength="40.40px" lengthAdjust="spacingAndGlyphs">HopLand</text>
  </g>
  <polyline points="570.97,92.17 623.07,92.17 622.98,92.17 623.33,92.16 623.67,92.09 623.99,91.97 624.29,91.79 624.56,91.57 624.79,91.31 624.98,91.02 625.11,90.70 625.20,90.36 625.23,90.01 625.23,90.01 625.23,80.26 625.23,80.26 625.20,79.91 625.11,79.57 624.98,79.26 624.79,78.96 624.56,78.70 624.29,78.48 623.99,78.31 623.67,78.18 623.33,78.11 623.07,78.10 570.97,78.10 571.23,78.11 570.89,78.10 570.54,78.14 570.21,78.24 569.89,78.39 569.61,78.59 569.36,78.83 569.15,79.10 568.99,79.41 568.88,79.74 568.82,80.09 568.81,80.26 568.81,90.01 568.82,89.84 568.82,90.19 568.88,90.53 568.99,90.86 569.15,91.17 569.36,91.45 569.61,91.69 569.89,91.88 570.21,92.03 570.54,92.13 570.89,92.17 " style="stroke-width: 0.53; stroke: #AF0DC7; fill: #FFFFFF;" clip-path="url(#cpNi45NzM4NXw3MTMuMDI2fDIwOS4yMjd8Ni45NzM4NQ==)"/>
  <g clip-path="url(#cpNi45NzM4NXw3MTMuMDI2fDIwOS4yMjd8Ni45NzM4NQ==)">
    <text x="572.41" y="88.57" style="font-size: 9.96px; fill: #AF0DC7; font-family: Liberation Sans;" textLength="49.21px" lengthAdjust="spacingAndGlyphs">MATCHER</text>
  </g>
  <polyline points="638.10,205.22 682.47,205.22 682.38,205.22 682.73,205.21 683.07,205.14 683.40,205.01 683.70,204.84 683.97,204.62 684.20,204.36 684.38,204.06 684.52,203.74 684.60,203.41 684.63,203.06 684.63,203.06 684.63,193.31 684.63,193.31 684.60,192.96 684.52,192.62 684.38,192.30 684.20,192.01 683.97,191.75 683.70,191.53 683.40,191.35 683.07,191.23 682.73,191.16 682.47,191.15 638.10,191.15 638.36,191.16 638.01,191.15 637.67,191.19 637.33,191.29 637.02,191.44 636.73,191.63 636.48,191.87 636.27,192.15 636.11,192.46 636.00,192.79 635.94,193.13 635.94,193.31 635.94,203.06 635.94,202.89 635.94,203.23 636.00,203.58 636.11,203.91 636.27,204.22 636.48,204.49 636.73,204.73 637.02,204.93 637.33,205.08 637.67,205.18 638.01,205.22 " style="stroke-width: 0.53; stroke: #5ECD2E; fill: #FFFFFF;" clip-path="url(#cpNi45NzM4NXw3MTMuMDI2fDIwOS4yMjd8Ni45NzM4NQ==)"/>
  <g clip-path="url(#cpNi45NzM4NXw3MTMuMDI2fDIwOS4yMjd8Ni45NzM4NQ==)">
    <text x="639.54" y="201.62" style="font-size: 9.96px; fill: #5ECD2E; font-family: Liberation Sans;" textLength="41.49px" lengthAdjust="spacingAndGlyphs">p-Creode</text>
  </g>
  <polyline points="579.01,185.24 610.64,185.24 610.55,185.24 610.90,185.22 611.24,185.15 611.57,185.03 611.87,184.86 612.14,184.64 612.37,184.38 612.55,184.08 612.69,183.76 612.77,183.43 612.80,183.08 612.80,183.08 612.80,173.32 612.80,173.32 612.77,172.98 612.69,172.64 612.55,172.32 612.37,172.03 612.14,171.77 611.87,171.55 611.57,171.37 611.24,171.25 610.90,171.18 610.64,171.16 579.01,171.16 579.27,171.18 578.92,171.17 578.57,171.21 578.24,171.30 577.93,171.45 577.64,171.65 577.39,171.89 577.18,172.17 577.02,172.48 576.91,172.81 576.85,173.15 576.85,173.32 576.85,183.08 576.85,182.90 576.85,183.25 576.91,183.60 577.02,183.93 577.18,184.23 577.39,184.51 577.64,184.75 577.93,184.95 578.24,185.10 578.57,185.19 578.92,185.24 " style="stroke-width: 0.53; stroke: #39CCCC; fill: #FFFFFF;" clip-path="url(#cpNi45NzM4NXw3MTMuMDI2fDIwOS4yMjd8Ni45NzM4NQ==)"/>
  <g clip-path="url(#cpNi45NzM4NXw3MTMuMDI2fDIwOS4yMjd8Ni45NzM4NQ==)">
    <text x="580.45" y="181.64" style="font-size: 9.96px; fill: #39CCCC; font-family: Liberation Sans;" textLength="28.76px" lengthAdjust="spacingAndGlyphs">reCAT</text>
  </g>
  <polyline points="519.85,201.07 566.99,201.07 566.90,201.07 567.25,201.05 567.59,200.98 567.91,200.86 568.22,200.69 568.49,200.47 568.72,200.21 568.90,199.91 569.04,199.59 569.12,199.26 569.15,198.91 569.15,198.91 569.15,189.15 569.15,189.15 569.12,188.81 569.04,188.47 568.90,188.15 568.72,187.86 568.49,187.60 568.22,187.38 567.91,187.20 567.59,187.08 567.25,187.01 566.99,186.99 519.85,186.99 520.11,187.01 519.77,187.00 519.42,187.04 519.09,187.13 518.77,187.28 518.49,187.48 518.24,187.72 518.03,188.00 517.87,188.31 517.76,188.64 517.70,188.98 517.69,189.15 517.69,198.91 517.70,198.73 517.70,199.08 517.76,199.43 517.87,199.76 518.03,200.06 518.24,200.34 518.49,200.58 518.77,200.78 519.09,200.93 519.42,201.03 519.77,201.07 " style="stroke-width: 0.53; stroke: #5ECD2E; fill: #FFFFFF;" clip-path="url(#cpNi45NzM4NXw3MTMuMDI2fDIwOS4yMjd8Ni45NzM4NQ==)"/>
  <g clip-path="url(#cpNi45NzM4NXw3MTMuMDI2fDIwOS4yMjd8Ni45NzM4NQ==)">
    <text x="521.29" y="197.47" style="font-size: 9.96px; fill: #5ECD2E; font-family: Liberation Sans;" textLength="44.25px" lengthAdjust="spacingAndGlyphs">Granatum</text>
  </g>
  <polyline points="282.40,155.22 342.27,155.22 342.18,155.21 342.53,155.20 342.87,155.13 343.19,155.01 343.50,154.83 343.76,154.61 344.00,154.35 344.18,154.06 344.32,153.74 344.40,153.40 344.43,153.06 344.43,153.06 344.43,143.30 344.43,143.30 344.40,142.95 344.32,142.62 344.18,142.30 344.00,142.00 343.76,141.74 343.50,141.52 343.19,141.35 342.87,141.23 342.53,141.16 342.27,141.14 282.40,141.14 282.66,141.16 282.31,141.14 281.96,141.18 281.63,141.28 281.32,141.43 281.03,141.63 280.78,141.87 280.57,142.15 280.41,142.45 280.30,142.78 280.24,143.13 280.24,143.30 280.24,153.06 280.24,152.88 280.24,153.23 280.30,153.57 280.41,153.90 280.57,154.21 280.78,154.49 281.03,154.73 281.32,154.93 281.63,155.08 281.96,155.17 282.31,155.21 " style="stroke-width: 0.53; stroke: #AF0DC7; fill: #FFFFFF;" clip-path="url(#cpNi45NzM4NXw3MTMuMDI2fDIwOS4yMjd8Ni45NzM4NQ==)"/>
  <g clip-path="url(#cpNi45NzM4NXw3MTMuMDI2fDIwOS4yMjd8Ni45NzM4NQ==)">
    <text x="283.84" y="151.62" style="font-size: 9.96px; fill: #AF0DC7; font-family: Liberation Sans;" textLength="56.99px" lengthAdjust="spacingAndGlyphs">gpseudotime</text>
  </g>
  <polyline points="520.60,126.84 558.33,126.84 558.25,126.84 558.59,126.82 558.93,126.76 559.26,126.63 559.56,126.46 559.83,126.24 560.06,125.98 560.25,125.68 560.38,125.36 560.46,125.03 560.49,124.68 560.49,124.68 560.49,114.93 560.49,114.93 560.46,114.58 560.38,114.24 560.25,113.92 560.06,113.63 559.83,113.37 559.56,113.15 559.26,112.97 558.93,112.85 558.59,112.78 558.33,112.77 520.60,112.77 520.86,112.78 520.52,112.77 520.17,112.81 519.84,112.91 519.52,113.05 519.24,113.25 518.99,113.49 518.78,113.77 518.62,114.08 518.51,114.41 518.45,114.75 518.44,114.93 518.44,124.68 518.45,124.51 518.45,124.85 518.51,125.20 518.62,125.53 518.78,125.83 518.99,126.11 519.24,126.35 519.52,126.55 519.84,126.70 520.17,126.80 520.52,126.84 " style="stroke-width: 0.53; stroke: #AF0DC7; fill: #FFFFFF;" clip-path="url(#cpNi45NzM4NXw3MTMuMDI2fDIwOS4yMjd8Ni45NzM4NQ==)"/>
  <g clip-path="url(#cpNi45NzM4NXw3MTMuMDI2fDIwOS4yMjd8Ni45NzM4NQ==)">
    <text x="522.04" y="123.24" style="font-size: 9.96px; fill: #AF0DC7; font-family: Liberation Sans;" textLength="34.85px" lengthAdjust="spacingAndGlyphs">topslam</text>
  </g>
  <polyline points="195.58,183.47 226.12,183.47 226.03,183.46 226.38,183.45 226.72,183.38 227.04,183.26 227.34,183.08 227.61,182.86 227.84,182.60 228.03,182.31 228.16,181.99 228.25,181.65 228.28,181.31 228.28,181.31 228.28,171.55 228.28,171.55 228.25,171.20 228.16,170.87 228.03,170.55 227.84,170.25 227.61,169.99 227.34,169.77 227.04,169.60 226.72,169.48 226.38,169.41 226.12,169.39 195.58,169.39 195.84,169.41 195.49,169.39 195.15,169.43 194.81,169.53 194.50,169.68 194.21,169.88 193.96,170.12 193.75,170.40 193.59,170.70 193.48,171.03 193.42,171.38 193.42,171.55 193.42,181.31 193.42,181.13 193.42,181.48 193.48,181.82 193.59,182.15 193.75,182.46 193.96,182.74 194.21,182.98 194.50,183.18 194.81,183.32 195.15,183.42 195.49,183.46 " style="stroke-width: 0.53; stroke: #5ECD2E; fill: #FFFFFF;" clip-path="url(#cpNi45NzM4NXw3MTMuMDI2fDIwOS4yMjd8Ni45NzM4NQ==)"/>
  <g clip-path="url(#cpNi45NzM4NXw3MTMuMDI2fDIwOS4yMjd8Ni45NzM4NQ==)">
    <text x="197.02" y="179.87" style="font-size: 9.96px; fill: #5ECD2E; font-family: Liberation Sans;" textLength="27.66px" lengthAdjust="spacingAndGlyphs">sincell</text>
  </g>
  <polyline points="487.05,146.82 539.17,146.82 539.08,146.82 539.43,146.80 539.77,146.73 540.09,146.61 540.39,146.43 540.66,146.21 540.89,145.95 541.08,145.66 541.21,145.34 541.30,145.00 541.33,144.66 541.33,144.66 541.33,134.90 541.33,134.90 541.30,134.56 541.21,134.22 541.08,133.90 540.89,133.60 540.66,133.34 540.39,133.12 540.09,132.95 539.77,132.83 539.43,132.76 539.17,132.74 487.05,132.74 487.31,132.76 486.96,132.74 486.62,132.79 486.28,132.88 485.97,133.03 485.68,133.23 485.43,133.47 485.22,133.75 485.06,134.06 484.95,134.39 484.90,134.73 484.89,134.90 484.89,144.66 484.90,144.48 484.90,144.83 484.95,145.17 485.06,145.50 485.22,145.81 485.43,146.09 485.68,146.33 485.97,146.53 486.28,146.68 486.62,146.77 486.96,146.82 " style="stroke-width: 0.53; stroke: #5ECD2E; fill: #FFFFFF;" clip-path="url(#cpNi45NzM4NXw3MTMuMDI2fDIwOS4yMjd8Ni45NzM4NQ==)"/>
  <g clip-path="url(#cpNi45NzM4NXw3MTMuMDI2fDIwOS4yMjd8Ni45NzM4NQ==)">
    <text x="488.49" y="143.22" style="font-size: 9.96px; fill: #5ECD2E; font-family: Liberation Sans;" textLength="49.24px" lengthAdjust="spacingAndGlyphs">k-branches</text>
  </g>
  <polyline points="378.21,121.47 424.82,121.47 424.73,121.47 425.08,121.46 425.42,121.39 425.75,121.26 426.05,121.09 426.32,120.87 426.55,120.61 426.73,120.32 426.87,120.00 426.95,119.66 426.98,119.31 426.98,119.31 426.98,109.56 426.98,109.56 426.95,109.21 426.87,108.87 426.73,108.55 426.55,108.26 426.32,108.00 426.05,107.78 425.75,107.61 425.42,107.48 425.08,107.41 424.82,107.40 378.21,107.40 378.47,107.41 378.13,107.40 377.78,107.44 377.45,107.54 377.13,107.69 376.85,107.88 376.60,108.13 376.39,108.40 376.23,108.71 376.12,109.04 376.06,109.38 376.05,109.56 376.05,119.31 376.06,119.14 376.06,119.49 376.12,119.83 376.23,120.16 376.39,120.47 376.60,120.75 376.85,120.99 377.13,121.18 377.45,121.33 377.78,121.43 378.13,121.47 " style="stroke-width: 0.53; stroke: #AF0DC7; fill: #FFFFFF;" clip-path="url(#cpNi45NzM4NXw3MTMuMDI2fDIwOS4yMjd8Ni45NzM4NQ==)"/>
  <g clip-path="url(#cpNi45NzM4NXw3MTMuMDI2fDIwOS4yMjd8Ni45NzM4NQ==)">
    <text x="379.65" y="117.87" style="font-size: 9.96px; fill: #AF0DC7; font-family: Liberation Sans;" textLength="43.72px" lengthAdjust="spacingAndGlyphs">pseudogp</text>
  </g>
  <polyline points="285.99,183.14 328.13,183.14 328.05,183.14 328.39,183.13 328.74,183.06 329.06,182.93 329.36,182.76 329.63,182.54 329.86,182.28 330.05,181.99 330.18,181.67 330.27,181.33 330.29,180.98 330.29,180.98 330.29,171.23 330.29,171.23 330.27,170.88 330.18,170.54 330.05,170.22 329.86,169.93 329.63,169.67 329.36,169.45 329.06,169.28 328.74,169.15 328.39,169.08 328.13,169.07 285.99,169.07 286.25,169.08 285.90,169.07 285.55,169.11 285.22,169.21 284.91,169.36 284.62,169.55 284.37,169.79 284.16,170.07 284.00,170.38 283.89,170.71 283.83,171.05 283.83,171.23 283.83,180.98 283.83,180.81 283.83,181.16 283.89,181.50 284.00,181.83 284.16,182.14 284.37,182.41 284.62,182.66 284.91,182.85 285.22,183.00 285.55,183.10 285.90,183.14 " style="stroke-width: 0.53; stroke: #AF0DC7; fill: #FFFFFF;" clip-path="url(#cpNi45NzM4NXw3MTMuMDI2fDIwOS4yMjd8Ni45NzM4NQ==)"/>
  <g clip-path="url(#cpNi45NzM4NXw3MTMuMDI2fDIwOS4yMjd8Ni45NzM4NQ==)">
    <text x="287.43" y="179.54" style="font-size: 9.96px; fill: #AF0DC7; font-family: Liberation Sans;" textLength="39.27px" lengthAdjust="spacingAndGlyphs">Waterfall</text>
  </g>
  <polyline points="594.19,148.26 683.32,148.26 683.23,148.26 683.58,148.25 683.92,148.18 684.25,148.06 684.55,147.88 684.82,147.66 685.05,147.40 685.23,147.11 685.37,146.79 685.45,146.45 685.48,146.10 685.48,146.10 685.48,136.35 685.48,136.35 685.45,136.00 685.37,135.67 685.23,135.35 685.05,135.05 684.82,134.79 684.55,134.57 684.25,134.40 683.92,134.27 683.58,134.21 683.32,134.19 594.19,134.19 594.45,134.21 594.11,134.19 593.76,134.23 593.43,134.33 593.11,134.48 592.83,134.68 592.58,134.92 592.37,135.20 592.21,135.50 592.10,135.83 592.04,136.18 592.03,136.35 592.03,146.10 592.04,145.93 592.04,146.28 592.10,146.62 592.21,146.95 592.37,147.26 592.58,147.54 592.83,147.78 593.11,147.98 593.43,148.12 593.76,148.22 594.11,148.26 " style="stroke-width: 0.53; stroke: #FF8821; fill: #FFFFFF;" clip-path="url(#cpNi45NzM4NXw3MTMuMDI2fDIwOS4yMjd8Ni45NzM4NQ==)"/>
  <g clip-path="url(#cpNi45NzM4NXw3MTMuMDI2fDIwOS4yMjd8Ni45NzM4NQ==)">
    <text x="595.63" y="144.66" style="font-size: 9.96px; fill: #FF8821; font-family: Liberation Sans;" textLength="86.25px" lengthAdjust="spacingAndGlyphs">WADDINGTON-OT</text>
  </g>
  <polyline points="439.49,204.74 477.77,204.74 477.68,204.74 478.03,204.73 478.37,204.66 478.70,204.54 479.00,204.36 479.27,204.14 479.50,203.88 479.68,203.59 479.82,203.27 479.90,202.93 479.93,202.58 479.93,202.58 479.93,192.83 479.93,192.83 479.90,192.48 479.82,192.14 479.68,191.82 479.50,191.53 479.27,191.27 479.00,191.05 478.70,190.88 478.37,190.75 478.03,190.68 477.77,190.67 439.49,190.67 439.75,190.68 439.40,190.67 439.06,190.71 438.72,190.81 438.41,190.96 438.12,191.16 437.87,191.40 437.66,191.67 437.50,191.98 437.39,192.31 437.34,192.65 437.33,192.83 437.33,202.58 437.34,202.41 437.34,202.76 437.39,203.10 437.50,203.43 437.66,203.74 437.87,204.02 438.12,204.26 438.41,204.45 438.72,204.60 439.06,204.70 439.40,204.74 " style="stroke-width: 0.53; stroke: #5ECD2E; fill: #FFFFFF;" clip-path="url(#cpNi45NzM4NXw3MTMuMDI2fDIwOS4yMjd8Ni45NzM4NQ==)"/>
  <g clip-path="url(#cpNi45NzM4NXw3MTMuMDI2fDIwOS4yMjd8Ni45NzM4NQ==)">
    <text x="440.93" y="201.14" style="font-size: 9.96px; fill: #5ECD2E; font-family: Liberation Sans;" textLength="35.40px" lengthAdjust="spacingAndGlyphs">cellTree</text>
  </g>
  <polyline points="518.58,183.10 567.38,183.10 567.30,183.10 567.64,183.09 567.98,183.02 568.31,182.89 568.61,182.72 568.88,182.50 569.11,182.24 569.30,181.94 569.43,181.63 569.52,181.29 569.54,180.94 569.54,180.94 569.54,171.19 569.54,171.19 569.52,170.84 569.43,170.50 569.30,170.18 569.11,169.89 568.88,169.63 568.61,169.41 568.31,169.23 567.98,169.11 567.64,169.04 567.38,169.03 518.58,169.03 518.84,169.04 518.49,169.03 518.15,169.07 517.82,169.17 517.50,169.32 517.22,169.51 516.96,169.75 516.76,170.03 516.59,170.34 516.48,170.67 516.43,171.01 516.42,171.19 516.42,180.94 516.43,180.77 516.43,181.11 516.48,181.46 516.59,181.79 516.76,182.10 516.96,182.37 517.22,182.61 517.50,182.81 517.82,182.96 518.15,183.06 518.49,183.10 " style="stroke-width: 0.53; stroke: #5ECD2E; fill: #FFFFFF;" clip-path="url(#cpNi45NzM4NXw3MTMuMDI2fDIwOS4yMjd8Ni45NzM4NQ==)"/>
  <g clip-path="url(#cpNi45NzM4NXw3MTMuMDI2fDIwOS4yMjd8Ni45NzM4NQ==)">
    <text x="520.02" y="179.50" style="font-size: 9.96px; fill: #5ECD2E; font-family: Liberation Sans;" textLength="45.92px" lengthAdjust="spacingAndGlyphs">Monocle 2</text>
  </g>
  <polyline points="474.59,167.67 511.20,167.67 511.12,167.67 511.47,167.66 511.81,167.59 512.13,167.47 512.43,167.29 512.70,167.07 512.93,166.81 513.12,166.52 513.25,166.20 513.34,165.86 513.36,165.51 513.36,165.51 513.36,155.76 513.36,155.76 513.34,155.41 513.25,155.08 513.12,154.76 512.93,154.46 512.70,154.20 512.43,153.98 512.13,153.81 511.81,153.68 511.47,153.62 511.20,153.60 474.59,153.60 474.85,153.62 474.50,153.60 474.16,153.64 473.83,153.74 473.51,153.89 473.23,154.09 472.98,154.33 472.77,154.60 472.60,154.91 472.49,155.24 472.44,155.59 472.43,155.76 472.43,165.51 472.44,165.34 472.44,165.69 472.49,166.03 472.60,166.36 472.77,166.67 472.98,166.95 473.23,167.19 473.51,167.38 473.83,167.53 474.16,167.63 474.50,167.67 " style="stroke-width: 0.53; stroke: #AF0DC7; fill: #FFFFFF;" clip-path="url(#cpNi45NzM4NXw3MTMuMDI2fDIwOS4yMjd8Ni45NzM4NQ==)"/>
  <g clip-path="url(#cpNi45NzM4NXw3MTMuMDI2fDIwOS4yMjd8Ni45NzM4NQ==)">
    <text x="476.03" y="164.07" style="font-size: 9.96px; fill: #AF0DC7; font-family: Liberation Sans;" textLength="33.73px" lengthAdjust="spacingAndGlyphs">SCENT</text>
  </g>
  <polyline points="600.02,166.64 634.44,166.64 634.35,166.64 634.70,166.63 635.04,166.56 635.36,166.44 635.66,166.26 635.93,166.04 636.16,165.78 636.35,165.49 636.49,165.17 636.57,164.83 636.60,164.48 636.60,164.48 636.60,154.73 636.60,154.73 636.57,154.38 636.49,154.04 636.35,153.72 636.16,153.43 635.93,153.17 635.66,152.95 635.36,152.78 635.04,152.65 634.70,152.58 634.44,152.57 600.02,152.57 600.28,152.58 599.93,152.57 599.59,152.61 599.26,152.71 598.94,152.86 598.66,153.06 598.40,153.30 598.20,153.57 598.03,153.88 597.92,154.21 597.87,154.55 597.86,154.73 597.86,164.48 597.87,164.31 597.87,164.66 597.92,165.00 598.03,165.33 598.20,165.64 598.40,165.92 598.66,166.16 598.94,166.35 599.26,166.50 599.59,166.60 599.93,166.64 " style="stroke-width: 0.53; stroke: #0073D7; fill: #FFFFFF;" clip-path="url(#cpNi45NzM4NXw3MTMuMDI2fDIwOS4yMjd8Ni45NzM4NQ==)"/>
  <g clip-path="url(#cpNi45NzM4NXw3MTMuMDI2fDIwOS4yMjd8Ni45NzM4NQ==)">
    <text x="601.46" y="163.04" style="font-size: 9.96px; fill: #0073D7; font-family: Liberation Sans;" textLength="31.54px" lengthAdjust="spacingAndGlyphs">scanpy</text>
  </g>
  <polyline points="410.29,184.12 456.89,184.12 456.80,184.11 457.15,184.10 457.49,184.03 457.81,183.91 458.11,183.73 458.38,183.51 458.61,183.25 458.80,182.96 458.93,182.64 459.02,182.30 459.05,181.96 459.05,181.96 459.05,172.20 459.05,172.20 459.02,171.85 458.93,171.52 458.80,171.20 458.61,170.90 458.38,170.64 458.11,170.42 457.81,170.25 457.49,170.13 457.15,170.06 456.89,170.04 410.29,170.04 410.55,170.06 410.20,170.04 409.86,170.09 409.52,170.18 409.21,170.33 408.92,170.53 408.67,170.77 408.47,171.05 408.30,171.35 408.19,171.68 408.14,172.03 408.13,172.20 408.13,181.96 408.14,181.78 408.14,182.13 408.19,182.47 408.30,182.80 408.47,183.11 408.67,183.39 408.92,183.63 409.21,183.83 409.52,183.98 409.86,184.07 410.20,184.11 " style="stroke-width: 0.53; stroke: #AF0DC7; fill: #FFFFFF;" clip-path="url(#cpNi45NzM4NXw3MTMuMDI2fDIwOS4yMjd8Ni45NzM4NQ==)"/>
  <g clip-path="url(#cpNi45NzM4NXw3MTMuMDI2fDIwOS4yMjd8Ni45NzM4NQ==)">
    <text x="411.73" y="180.52" style="font-size: 9.96px; fill: #AF0DC7; font-family: Liberation Sans;" textLength="43.72px" lengthAdjust="spacingAndGlyphs">DeLorean</text>
  </g>
  <polyline points="253.02,204.95 284.66,204.95 284.57,204.95 284.92,204.93 285.26,204.86 285.58,204.74 285.88,204.57 286.15,204.35 286.38,204.09 286.57,203.79 286.71,203.47 286.79,203.13 286.82,202.79 286.82,202.79 286.82,193.03 286.82,193.03 286.79,192.69 286.71,192.35 286.57,192.03 286.38,191.74 286.15,191.48 285.88,191.26 285.58,191.08 285.26,190.96 284.92,190.89 284.66,190.87 253.02,190.87 253.28,190.89 252.93,190.87 252.59,190.92 252.25,191.01 251.94,191.16 251.65,191.36 251.40,191.60 251.19,191.88 251.03,192.19 250.92,192.52 250.87,192.86 250.86,193.03 250.86,202.79 250.87,202.61 250.87,202.96 250.92,203.31 251.03,203.63 251.19,203.94 251.40,204.22 251.65,204.46 251.94,204.66 252.25,204.81 252.59,204.90 252.93,204.95 " style="stroke-width: 0.53; stroke: #AF0DC7; fill: #FFFFFF;" clip-path="url(#cpNi45NzM4NXw3MTMuMDI2fDIwOS4yMjd8Ni45NzM4NQ==)"/>
  <g clip-path="url(#cpNi45NzM4NXw3MTMuMDI2fDIwOS4yMjd8Ni45NzM4NQ==)">
    <text x="254.46" y="201.35" style="font-size: 9.96px; fill: #AF0DC7; font-family: Liberation Sans;" textLength="28.76px" lengthAdjust="spacingAndGlyphs">NBOR</text>
  </g>
  <polyline points="179.96,205.13 217.13,205.13 217.04,205.13 217.39,205.11 217.73,205.04 218.06,204.92 218.36,204.75 218.63,204.53 218.86,204.27 219.04,203.97 219.18,203.65 219.26,203.32 219.29,202.97 219.29,202.97 219.29,193.21 219.29,193.21 219.26,192.87 219.18,192.53 219.04,192.21 218.86,191.92 218.63,191.66 218.36,191.44 218.06,191.26 217.73,191.14 217.39,191.07 217.13,191.05 179.96,191.05 180.22,191.07 179.87,191.06 179.53,191.10 179.19,191.19 178.88,191.34 178.59,191.54 178.34,191.78 178.13,192.06 177.97,192.37 177.86,192.70 177.81,193.04 177.80,193.21 177.80,202.97 177.81,202.80 177.81,203.14 177.86,203.49 177.97,203.82 178.13,204.12 178.34,204.40 178.59,204.64 178.88,204.84 179.19,204.99 179.53,205.09 179.87,205.13 " style="stroke-width: 0.53; stroke: #5ECD2E; fill: #FFFFFF;" clip-path="url(#cpNi45NzM4NXw3MTMuMDI2fDIwOS4yMjd8Ni45NzM4NQ==)"/>
  <g clip-path="url(#cpNi45NzM4NXw3MTMuMDI2fDIwOS4yMjd8Ni45NzM4NQ==)">
    <text x="181.40" y="201.53" style="font-size: 9.96px; fill: #5ECD2E; font-family: Liberation Sans;" textLength="34.29px" lengthAdjust="spacingAndGlyphs">SCUBA</text>
  </g>
  <polyline points="601.44,205.63 624.23,205.63 624.15,205.62 624.49,205.61 624.84,205.54 625.16,205.42 625.46,205.24 625.73,205.02 625.96,204.76 626.15,204.47 626.28,204.15 626.37,203.81 626.39,203.47 626.39,203.47 626.39,193.71 626.39,193.71 626.37,193.37 626.28,193.03 626.15,192.71 625.96,192.41 625.73,192.15 625.46,191.93 625.16,191.76 624.84,191.64 624.49,191.57 624.23,191.55 601.44,191.55 601.70,191.57 601.35,191.55 601.01,191.60 600.67,191.69 600.36,191.84 600.07,192.04 599.82,192.28 599.61,192.56 599.45,192.87 599.34,193.19 599.29,193.54 599.28,193.71 599.28,203.47 599.29,203.29 599.29,203.64 599.34,203.98 599.45,204.31 599.61,204.62 599.82,204.90 600.07,205.14 600.36,205.34 600.67,205.49 601.01,205.58 601.35,205.62 " style="stroke-width: 0.53; stroke: #CFBF00; fill: #FFFFFF;" clip-path="url(#cpNi45NzM4NXw3MTMuMDI2fDIwOS4yMjd8Ni45NzM4NQ==)"/>
  <g clip-path="url(#cpNi45NzM4NXw3MTMuMDI2fDIwOS4yMjd8Ni45NzM4NQ==)">
    <text x="602.88" y="202.03" style="font-size: 9.96px; fill: #CFBF00; font-family: Liberation Sans;" textLength="19.92px" lengthAdjust="spacingAndGlyphs">PBA</text>
  </g>
  <defs>
    <clipPath id="cpMHw3MjB8MjUyfDA=">
      <rect x="0.00" y="0.00" width="720.00" height="252.00"/>
    </clipPath>
  </defs>
  <polyline points="6.97,209.23 713.03,209.23 " style="stroke-width: 1.07; stroke-linecap: square;" clip-path="url(#cpMHw3MjB8MjUyfDA=)"/>
  <polyline points="39.07,212.71 39.07,209.23 " style="stroke-width: 1.07; stroke-linecap: butt;" clip-path="url(#cpMHw3MjB8MjUyfDA=)"/>
  <polyline points="199.42,212.71 199.42,209.23 " style="stroke-width: 1.07; stroke-linecap: butt;" clip-path="url(#cpMHw3MjB8MjUyfDA=)"/>
  <polyline points="359.78,212.71 359.78,209.23 " style="stroke-width: 1.07; stroke-linecap: butt;" clip-path="url(#cpMHw3MjB8MjUyfDA=)"/>
  <polyline points="520.58,212.71 520.58,209.23 " style="stroke-width: 1.07; stroke-linecap: butt;" clip-path="url(#cpMHw3MjB8MjUyfDA=)"/>
  <polyline points="680.93,212.71 680.93,209.23 " style="stroke-width: 1.07; stroke-linecap: butt;" clip-path="url(#cpMHw3MjB8MjUyfDA=)"/>
  <g clip-path="url(#cpMHw3MjB8MjUyfDA=)">
    <text x="25.72" y="223.95" style="font-size: 12.00px; font-family: Liberation Sans;" textLength="26.70px" lengthAdjust="spacingAndGlyphs">2014</text>
  </g>
  <g clip-path="url(#cpMHw3MjB8MjUyfDA=)">
    <text x="186.08" y="223.95" style="font-size: 12.00px; font-family: Liberation Sans;" textLength="26.70px" lengthAdjust="spacingAndGlyphs">2015</text>
  </g>
  <g clip-path="url(#cpMHw3MjB8MjUyfDA=)">
    <text x="346.43" y="223.95" style="font-size: 12.00px; font-family: Liberation Sans;" textLength="26.70px" lengthAdjust="spacingAndGlyphs">2016</text>
  </g>
  <g clip-path="url(#cpMHw3MjB8MjUyfDA=)">
    <text x="507.23" y="223.95" style="font-size: 12.00px; font-family: Liberation Sans;" textLength="26.70px" lengthAdjust="spacingAndGlyphs">2017</text>
  </g>
  <g clip-path="url(#cpMHw3MjB8MjUyfDA=)">
    <text x="667.59" y="223.95" style="font-size: 12.00px; font-family: Liberation Sans;" textLength="26.70px" lengthAdjust="spacingAndGlyphs">2018</text>
  </g>
  <g clip-path="url(#cpMHw3MjB8MjUyfDA=)">
    <text x="312.13" y="240.80" style="font-size: 14.00px; font-family: Liberation Sans;" textLength="95.74px" lengthAdjust="spacingAndGlyphs">Publishing date</text>
  </g>
</svg>
