<?xml version="1.0" encoding="UTF-8"?>
<svg xmlns="http://www.w3.org/2000/svg" xmlns:xlink="http://www.w3.org/1999/xlink" viewBox="0 0 720.00 252.00">
  <defs>
    <style type="text/css"><![CDATA[
    line, polyline, path, rect, circle {
      fill: none;
      stroke: #000000;
      stroke-linecap: round;
      stroke-linejoin: round;
      stroke-miterlimit: 10.00;
    }
  ]]></style>
  </defs>
  <line x1="510.43" y1="184.20" x2="510.43" y2="209.23" style="stroke-width: 1.07; stroke: #AF0DC7;" clip-path="url(#cpNi45NzM4NXw3MTMuMDI2fDIwOS4yMjd8Ni45NzM4NQ==)"/>
  <line x1="487.26" y1="205.63" x2="487.26" y2="209.23" style="stroke-width: 1.07; stroke: #5ECD2E;" clip-path="url(#cpNi45NzM4NXw3MTMuMDI2fDIwOS4yMjd8Ni45NzM4NQ==)"/>
  <line x1="517.88" y1="166.85" x2="517.88" y2="209.23" style="stroke-width: 1.07; stroke: #CFBF00;" clip-path="url(#cpNi45NzM4NXw3MTMuMDI2fDIwOS4yMjd8Ni45NzM4NQ==)"/>
  <line x1="537.33" y1="150.83" x2="537.33" y2="209.23" style="stroke-width: 1.07; stroke: #5ECD2E;" clip-path="url(#cpNi45NzM4NXw3MTMuMDI2fDIwOS4yMjd8Ni45NzM4NQ==)"/>
  <line x1="624.24" y1="157.66" x2="624.24" y2="209.22" style="stroke-width: 1.07; stroke: #5ECD2E;" clip-path="url(#cpNi45NzM4NXw3MTMuMDI2fDIwOS4yMjd8Ni45NzM4NQ==)"/>
  <line x1="531.12" y1="118.01" x2="531.12" y2="209.22" style="stroke-width: 1.07; stroke: #5ECD2E;" clip-path="url(#cpNi45NzM4NXw3MTMuMDI2fDIwOS4yMjd8Ni45NzM4NQ==)"/>
  <line x1="255.51" y1="204.17" x2="255.51" y2="209.22" style="stroke-width: 1.07; stroke: #AF0DC7;" clip-path="url(#cpNi45NzM4NXw3MTMuMDI2fDIwOS4yMjd8Ni45NzM4NQ==)"/>
  <line x1="85.83" y1="202.84" x2="85.83" y2="209.22" style="stroke-width: 1.07; stroke: #AF0DC7;" clip-path="url(#cpNi45NzM4NXw3MTMuMDI2fDIwOS4yMjd8Ni45NzM4NQ==)"/>
  <line x1="466.56" y1="161.51" x2="466.56" y2="209.22" style="stroke-width: 1.07; stroke: #AF0DC7;" clip-path="url(#cpNi45NzM4NXw3MTMuMDI2fDIwOS4yMjd8Ni45NzM4NQ==)"/>
  <line x1="296.48" y1="181.52" x2="296.48" y2="209.22" style="stroke-width: 1.07; stroke: #AF0DC7;" clip-path="url(#cpNi45NzM4NXw3MTMuMDI2fDIwOS4yMjd8Ni45NzM4NQ==)"/>
  <line x1="513.74" y1="97.00" x2="513.74" y2="209.22" style="stroke-width: 1.07; stroke: #5ECD2E;" clip-path="url(#cpNi45NzM4NXw3MTMuMDI2fDIwOS4yMjd8Ni45NzM4NQ==)"/>
  <line x1="656.10" y1="179.61" x2="656.10" y2="209.22" style="stroke-width: 1.07; stroke: #FF8821;" clip-path="url(#cpNi45NzM4NXw3MTMuMDI2fDIwOS4yMjd8Ni45NzM4NQ==)"/>
  <line x1="410.70" y1="163.46" x2="410.70" y2="209.22" style="stroke-width: 1.07; stroke: #AF0DC7;" clip-path="url(#cpNi45NzM4NXw3MTMuMDI2fDIwOS4yMjd8Ni45NzM4NQ==)"/>
  <line x1="76.31" y1="180.82" x2="76.31" y2="209.22" style="stroke-width: 1.07; stroke: #5ECD2E;" clip-path="url(#cpNi45NzM4NXw3MTMuMDI2fDIwOS4yMjd8Ni45NzM4NQ==)"/>
  <line x1="485.60" y1="139.89" x2="485.60" y2="209.22" style="stroke-width: 1.07; stroke: #5ECD2E;" clip-path="url(#cpNi45NzM4NXw3MTMuMDI2fDIwOS4yMjd8Ni45NzM4NQ==)"/>
  <line x1="542.30" y1="205.63" x2="542.30" y2="209.22" style="stroke-width: 1.07; stroke: #AF0DC7;" clip-path="url(#cpNi45NzM4NXw3MTMuMDI2fDIwOS4yMjd8Ni45NzM4NQ==)"/>
  <line x1="577.89" y1="185.22" x2="577.89" y2="209.22" style="stroke-width: 1.07; stroke: #AF0DC7;" clip-path="url(#cpNi45NzM4NXw3MTMuMDI2fDIwOS4yMjd8Ni45NzM4NQ==)"/>
  <line x1="603.96" y1="117.10" x2="603.96" y2="209.22" style="stroke-width: 1.07; stroke: #FF8821;" clip-path="url(#cpNi45NzM4NXw3MTMuMDI2fDIwOS4yMjd8Ni45NzM4NQ==)"/>
  <line x1="380.49" y1="183.98" x2="380.49" y2="209.22" style="stroke-width: 1.07; stroke: #AF0DC7;" clip-path="url(#cpNi45NzM4NXw3MTMuMDI2fDIwOS4yMjd8Ni45NzM4NQ==)"/>
  <line x1="382.14" y1="145.63" x2="382.14" y2="209.22" style="stroke-width: 1.07; stroke: #FF8821;" clip-path="url(#cpNi45NzM4NXw3MTMuMDI2fDIwOS4yMjd8Ni45NzM4NQ==)"/>
  <line x1="579.54" y1="169.11" x2="579.54" y2="209.22" style="stroke-width: 1.07; stroke: #CFBF00;" clip-path="url(#cpNi45NzM4NXw3MTMuMDI2fDIwOS4yMjd8Ni45NzM4NQ==)"/>
  <line x1="564.64" y1="136.44" x2="564.64" y2="209.22" style="stroke-width: 1.07; stroke: #AF0DC7;" clip-path="url(#cpNi45NzM4NXw3MTMuMDI2fDIwOS4yMjd8Ni45NzM4NQ==)"/>
  <line x1="396.21" y1="127.09" x2="396.21" y2="209.22" style="stroke-width: 1.07; stroke: #5ECD2E;" clip-path="url(#cpNi45NzM4NXw3MTMuMDI2fDIwOS4yMjd8Ni45NzM4NQ==)"/>
  <line x1="412.35" y1="106.39" x2="412.35" y2="209.22" style="stroke-width: 1.07; stroke: #5ECD2E;" clip-path="url(#cpNi45NzM4NXw3MTMuMDI2fDIwOS4yMjd8Ni45NzM4NQ==)"/>
  <line x1="345.72" y1="205.51" x2="345.72" y2="209.22" style="stroke-width: 1.07; stroke: #5ECD2E;" clip-path="url(#cpNi45NzM4NXw3MTMuMDI2fDIwOS4yMjd8Ni45NzM4NQ==)"/>
  <line x1="406.97" y1="49.31" x2="406.97" y2="209.21" style="stroke-width: 1.07; stroke: #CFBF00;" clip-path="url(#cpNi45NzM4NXw3MTMuMDI2fDIwOS4yMjd8Ni45NzM4NQ==)"/>
  <line x1="457.05" y1="119.94" x2="457.05" y2="209.21" style="stroke-width: 1.07; stroke: #AF0DC7;" clip-path="url(#cpNi45NzM4NXw3MTMuMDI2fDIwOS4yMjd8Ni45NzM4NQ==)"/>
  <line x1="455.80" y1="70.63" x2="455.80" y2="209.21" style="stroke-width: 1.07; stroke: #AF0DC7;" clip-path="url(#cpNi45NzM4NXw3MTMuMDI2fDIwOS4yMjd8Ni45NzM4NQ==)"/>
  <line x1="356.90" y1="105.46" x2="356.90" y2="209.21" style="stroke-width: 1.07; stroke: #0073D7;" clip-path="url(#cpNi45NzM4NXw3MTMuMDI2fDIwOS4yMjd8Ni45NzM4NQ==)"/>
  <line x1="291.51" y1="159.28" x2="291.51" y2="209.21" style="stroke-width: 1.07; stroke: #AF0DC7;" clip-path="url(#cpNi45NzM4NXw3MTMuMDI2fDIwOS4yMjd8Ni45NzM4NQ==)"/>
  <line x1="580.37" y1="99.10" x2="580.37" y2="209.21" style="stroke-width: 1.07; stroke: #0073D7;" clip-path="url(#cpNi45NzM4NXw3MTMuMDI2fDIwOS4yMjd8Ni45NzM4NQ==)"/>
  <line x1="630.44" y1="95.57" x2="630.44" y2="209.21" style="stroke-width: 1.07; stroke: #AF0DC7;" clip-path="url(#cpNi45NzM4NXw3MTMuMDI2fDIwOS4yMjd8Ni45NzM4NQ==)"/>
  <line x1="189.29" y1="205.33" x2="189.29" y2="209.21" style="stroke-width: 1.07; stroke: #5ECD2E;" clip-path="url(#cpNi45NzM4NXw3MTMuMDI2fDIwOS4yMjd8Ni45NzM4NQ==)"/>
  <line x1="435.94" y1="183.44" x2="435.94" y2="209.21" style="stroke-width: 1.07; stroke: #AF0DC7;" clip-path="url(#cpNi45NzM4NXw3MTMuMDI2fDIwOS4yMjd8Ni45NzM4NQ==)"/>
  <line x1="522.85" y1="24.65" x2="522.85" y2="209.21" style="stroke-width: 1.07; stroke: #CFBF00;" clip-path="url(#cpNi45NzM4NXw3MTMuMDI2fDIwOS4yMjd8Ni45NzM4NQ==)"/>
  <line x1="200.88" y1="183.34" x2="200.88" y2="209.21" style="stroke-width: 1.07; stroke: #5ECD2E;" clip-path="url(#cpNi45NzM4NXw3MTMuMDI2fDIwOS4yMjd8Ni45NzM4NQ==)"/>
  <line x1="569.61" y1="68.02" x2="569.61" y2="209.21" style="stroke-width: 1.07; stroke: #AF0DC7;" clip-path="url(#cpNi45NzM4NXw3MTMuMDI2fDIwOS4yMjd8Ni45NzM4NQ==)"/>
  <line x1="386.28" y1="84.42" x2="386.28" y2="209.21" style="stroke-width: 1.07; stroke: #AF0DC7;" clip-path="url(#cpNi45NzM4NXw3MTMuMDI2fDIwOS4yMjd8Ni45NzM4NQ==)"/>
  <line x1="391.66" y1="35.94" x2="391.66" y2="209.21" style="stroke-width: 1.07; stroke: #0073D7;" clip-path="url(#cpNi45NzM4NXw3MTMuMDI2fDIwOS4yMjd8Ni45NzM4NQ==)"/>
  <line x1="554.71" y1="81.39" x2="554.71" y2="209.21" style="stroke-width: 1.07; stroke: #AF0DC7;" clip-path="url(#cpNi45NzM4NXw3MTMuMDI2fDIwOS4yMjd8Ni45NzM4NQ==)"/>
  <line x1="514.16" y1="47.61" x2="514.16" y2="209.21" style="stroke-width: 1.07; stroke: #5ECD2E;" clip-path="url(#cpNi45NzM4NXw3MTMuMDI2fDIwOS4yMjd8Ni45NzM4NQ==)"/>
  <line x1="562.57" y1="24.65" x2="562.57" y2="209.21" style="stroke-width: 1.07; stroke: #39CCCC;" clip-path="url(#cpNi45NzM4NXw3MTMuMDI2fDIwOS4yMjd8Ni45NzM4NQ==)"/>
  <line x1="297.72" y1="137.60" x2="297.72" y2="209.21" style="stroke-width: 1.07; stroke: #AF0DC7;" clip-path="url(#cpNi45NzM4NXw3MTMuMDI2fDIwOS4yMjd8Ni45NzM4NQ==)"/>
  <line x1="583.68" y1="53.28" x2="583.68" y2="209.21" style="stroke-width: 1.07; stroke: #0073D7;" clip-path="url(#cpNi45NzM4NXw3MTMuMDI2fDIwOS4yMjd8Ni45NzM4NQ==)"/>
  <line x1="616.37" y1="205.57" x2="616.37" y2="209.21" style="stroke-width: 1.07; stroke: #FF4237;" clip-path="url(#cpNi45NzM4NXw3MTMuMDI2fDIwOS4yMjd8Ni45NzM4NQ==)"/>
  <line x1="651.96" y1="136.65" x2="651.96" y2="209.21" style="stroke-width: 1.07; stroke: #5ECD2E;" clip-path="url(#cpNi45NzM4NXw3MTMuMDI2fDIwOS4yMjd8Ni45NzM4NQ==)"/>
  <line x1="434.28" y1="87.89" x2="434.28" y2="209.21" style="stroke-width: 1.07; stroke: #5ECD2E;" clip-path="url(#cpNi45NzM4NXw3MTMuMDI2fDIwOS4yMjd8Ni45NzM4NQ==)"/>
  <line x1="416.08" y1="24.65" x2="416.08" y2="209.21" style="stroke-width: 1.07; stroke: #5ECD2E;" clip-path="url(#cpNi45NzM4NXw3MTMuMDI2fDIwOS4yMjd8Ni45NzM4NQ==)"/>
  <line x1="631.69" y1="74.98" x2="631.69" y2="209.21" style="stroke-width: 1.07; stroke: #CFBF00;" clip-path="url(#cpNi45NzM4NXw3MTMuMDI2fDIwOS4yMjd8Ni45NzM4NQ==)"/>
  <line x1="413.18" y1="63.94" x2="413.18" y2="209.21" style="stroke-width: 1.07; stroke: #AF0DC7;" clip-path="url(#cpNi45NzM4NXw3MTMuMDI2fDIwOS4yMjd8Ni45NzM4NQ==)"/>
  <line x1="572.09" y1="38.98" x2="572.09" y2="209.21" style="stroke-width: 1.07; stroke: #AF0DC7;" clip-path="url(#cpNi45NzM4NXw3MTMuMDI2fDIwOS4yMjd8Ni45NzM4NQ==)"/>
  <defs>
    <clipPath id="cpNi45NzM4NXw3MTMuMDI2fDIwOS4yMjd8Ni45NzM4NQ==">
      <rect x="6.97" y="6.97" width="706.05" height="202.25"/>
    </clipPath>
  </defs>
  <polyline points="550.45,38.98 593.73,38.98 593.65,38.98 593.99,38.97 594.33,38.90 594.66,38.77 594.96,38.60 595.23,38.38 595.46,38.12 595.65,37.83 595.78,37.51 595.87,37.17 595.89,36.82 595.89,36.82 595.89,27.07 595.89,27.07 595.87,26.72 595.78,26.38 595.65,26.06 595.46,25.77 595.23,25.51 594.96,25.29 594.66,25.12 594.33,24.99 593.99,24.92 593.73,24.91 550.45,24.91 550.71,24.92 550.37,24.91 550.02,24.95 549.69,25.05 549.37,25.20 549.09,25.39 548.84,25.64 548.63,25.91 548.47,26.22 548.36,26.55 548.30,26.89 548.29,27.07 548.29,36.82 548.30,36.65 548.30,37.00 548.36,37.34 548.47,37.67 548.63,37.98 548.84,38.25 549.09,38.50 549.37,38.69 549.69,38.84 550.02,38.94 550.37,38.98 " style="stroke-width: 0.53; stroke: #AF0DC7; fill: #FFFFFF;" clip-path="url(#cpNi45NzM4NXw3MTMuMDI2fDIwOS4yMjd8Ni45NzM4NQ==)"/>
  <g clip-path="url(#cpNi45NzM4NXw3MTMuMDI2fDIwOS4yMjd8Ni45NzM4NQ==)">
    <text x="551.89" y="35.38" style="font-size: 9.96px; fill: #AF0DC7; font-family: Liberation Sans;" textLength="40.40px" lengthAdjust="spacingAndGlyphs">HopLand</text>
  </g>
  <polyline points="400.12,63.94 426.24,63.94 426.15,63.94 426.50,63.92 426.84,63.85 427.16,63.73 427.46,63.56 427.73,63.34 427.96,63.08 428.15,62.78 428.28,62.46 428.37,62.13 428.40,61.78 428.40,61.78 428.40,52.02 428.40,52.02 428.37,51.68 428.28,51.34 428.15,51.02 427.96,50.73 427.73,50.47 427.46,50.25 427.16,50.07 426.84,49.95 426.50,49.88 426.24,49.86 400.12,49.86 400.38,49.88 400.03,49.87 399.69,49.91 399.35,50.00 399.04,50.15 398.75,50.35 398.50,50.59 398.30,50.87 398.13,51.18 398.02,51.51 397.97,51.85 397.96,52.02 397.96,61.78 397.97,61.61 397.97,61.95 398.02,62.30 398.13,62.63 398.30,62.93 398.50,63.21 398.75,63.45 399.04,63.65 399.35,63.80 399.69,63.90 400.03,63.94 " style="stroke-width: 0.53; stroke: #AF0DC7; fill: #FFFFFF;" clip-path="url(#cpNi45NzM4NXw3MTMuMDI2fDIwOS4yMjd8Ni45NzM4NQ==)"/>
  <g clip-path="url(#cpNi45NzM4NXw3MTMuMDI2fDIwOS4yMjd8Ni45NzM4NQ==)">
    <text x="401.56" y="60.34" style="font-size: 9.96px; fill: #AF0DC7; font-family: Liberation Sans;" textLength="23.24px" lengthAdjust="spacingAndGlyphs">Ouija</text>
  </g>
  <polyline points="607.84,74.98 655.53,74.98 655.44,74.98 655.79,74.97 656.13,74.90 656.45,74.77 656.75,74.60 657.02,74.38 657.25,74.12 657.44,73.83 657.58,73.51 657.66,73.17 657.69,72.82 657.69,72.82 657.69,63.07 657.69,63.07 657.66,62.72 657.58,62.38 657.44,62.06 657.25,61.77 657.02,61.51 656.75,61.29 656.45,61.12 656.13,60.99 655.79,60.92 655.53,60.91 607.84,60.91 608.10,60.92 607.76,60.91 607.41,60.95 607.08,61.05 606.76,61.20 606.48,61.39 606.23,61.64 606.02,61.91 605.86,62.22 605.75,62.55 605.69,62.89 605.68,63.07 605.68,72.82 605.69,72.65 605.69,73.00 605.75,73.34 605.86,73.67 606.02,73.98 606.23,74.26 606.48,74.50 606.76,74.69 607.08,74.84 607.41,74.94 607.76,74.98 " style="stroke-width: 0.53; stroke: #CFBF00; fill: #FFFFFF;" clip-path="url(#cpNi45NzM4NXw3MTMuMDI2fDIwOS4yMjd8Ni45NzM4NQ==)"/>
  <g clip-path="url(#cpNi45NzM4NXw3MTMuMDI2fDIwOS4yMjd8Ni45NzM4NQ==)">
    <text x="609.28" y="71.38" style="font-size: 9.96px; fill: #CFBF00; font-family: Liberation Sans;" textLength="44.80px" lengthAdjust="spacingAndGlyphs">GrandPrix</text>
  </g>
  <polyline points="400.80,24.65 431.35,24.65 431.26,24.65 431.61,24.63 431.95,24.56 432.27,24.44 432.57,24.27 432.84,24.05 433.07,23.79 433.26,23.49 433.40,23.17 433.48,22.84 433.51,22.49 433.51,22.49 433.51,12.73 433.51,12.73 433.48,12.39 433.40,12.05 433.26,11.73 433.07,11.44 432.84,11.18 432.57,10.96 432.27,10.78 431.95,10.66 431.61,10.59 431.35,10.57 400.80,10.57 401.06,10.59 400.72,10.58 400.37,10.62 400.04,10.71 399.72,10.86 399.44,11.06 399.19,11.30 398.98,11.58 398.82,11.89 398.71,12.22 398.65,12.56 398.64,12.73 398.64,22.49 398.65,22.32 398.65,22.66 398.71,23.01 398.82,23.34 398.98,23.64 399.19,23.92 399.44,24.16 399.72,24.36 400.04,24.51 400.37,24.61 400.72,24.65 " style="stroke-width: 0.53; stroke: #5ECD2E; fill: #FFFFFF;" clip-path="url(#cpNi45NzM4NXw3MTMuMDI2fDIwOS4yMjd8Ni45NzM4NQ==)"/>
  <g clip-path="url(#cpNi45NzM4NXw3MTMuMDI2fDIwOS4yMjd8Ni45NzM4NQ==)">
    <text x="402.24" y="21.05" style="font-size: 9.96px; fill: #5ECD2E; font-family: Liberation Sans;" textLength="27.66px" lengthAdjust="spacingAndGlyphs">Mpath</text>
  </g>
  <polyline points="415.14,87.89 453.42,87.89 453.34,87.89 453.68,87.87 454.03,87.80 454.35,87.68 454.65,87.51 454.92,87.29 455.15,87.03 455.34,86.73 455.47,86.41 455.56,86.08 455.58,85.73 455.58,85.73 455.58,75.98 455.58,75.98 455.56,75.63 455.47,75.29 455.34,74.97 455.15,74.68 454.92,74.42 454.65,74.20 454.35,74.02 454.03,73.90 453.68,73.83 453.42,73.82 415.14,73.82 415.40,73.83 415.06,73.82 414.71,73.86 414.38,73.96 414.06,74.10 413.78,74.30 413.53,74.54 413.32,74.82 413.16,75.13 413.05,75.46 412.99,75.80 412.98,75.98 412.98,85.73 412.99,85.56 412.99,85.90 413.05,86.25 413.16,86.58 413.32,86.88 413.53,87.16 413.78,87.40 414.06,87.60 414.38,87.75 414.71,87.85 415.06,87.89 " style="stroke-width: 0.53; stroke: #5ECD2E; fill: #FFFFFF;" clip-path="url(#cpNi45NzM4NXw3MTMuMDI2fDIwOS4yMjd8Ni45NzM4NQ==)"/>
  <g clip-path="url(#cpNi45NzM4NXw3MTMuMDI2fDIwOS4yMjd8Ni45NzM4NQ==)">
    <text x="416.58" y="84.29" style="font-size: 9.96px; fill: #5ECD2E; font-family: Liberation Sans;" textLength="35.40px" lengthAdjust="spacingAndGlyphs">cellTree</text>
  </g>
  <polyline points="622.03,136.65 681.90,136.65 681.81,136.65 682.16,136.63 682.50,136.56 682.83,136.44 683.13,136.27 683.40,136.05 683.63,135.79 683.81,135.49 683.95,135.17 684.03,134.84 684.06,134.49 684.06,134.49 684.06,124.73 684.06,124.73 684.03,124.39 683.95,124.05 683.81,123.73 683.63,123.44 683.40,123.18 683.13,122.96 682.83,122.78 682.50,122.66 682.16,122.59 681.90,122.57 622.03,122.57 622.29,122.59 621.94,122.58 621.60,122.62 621.26,122.72 620.95,122.86 620.66,123.06 620.41,123.30 620.20,123.58 620.04,123.89 619.93,124.22 619.87,124.56 619.87,124.73 619.87,134.49 619.87,134.32 619.87,134.66 619.93,135.01 620.04,135.34 620.20,135.64 620.41,135.92 620.66,136.16 620.95,136.36 621.26,136.51 621.60,136.61 621.94,136.65 " style="stroke-width: 0.53; stroke: #5ECD2E; fill: #FFFFFF;" clip-path="url(#cpNi45NzM4NXw3MTMuMDI2fDIwOS4yMjd8Ni45NzM4NQ==)"/>
  <g clip-path="url(#cpNi45NzM4NXw3MTMuMDI2fDIwOS4yMjd8Ni45NzM4NQ==)">
    <text x="623.47" y="133.05" style="font-size: 9.96px; fill: #5ECD2E; font-family: Liberation Sans;" textLength="56.99px" lengthAdjust="spacingAndGlyphs">Topographer</text>
  </g>
  <polyline points="604.42,205.57 628.32,205.57 628.24,205.57 628.58,205.56 628.92,205.49 629.25,205.37 629.55,205.19 629.82,204.97 630.05,204.71 630.24,204.42 630.37,204.10 630.46,203.76 630.48,203.41 630.48,203.41 630.48,193.66 630.48,193.66 630.46,193.31 630.37,192.97 630.24,192.66 630.05,192.36 629.82,192.10 629.55,191.88 629.25,191.71 628.92,191.58 628.58,191.51 628.32,191.50 604.42,191.50 604.68,191.51 604.34,191.50 603.99,191.54 603.66,191.64 603.34,191.79 603.06,191.99 602.81,192.23 602.60,192.50 602.44,192.81 602.33,193.14 602.27,193.49 602.26,193.66 602.26,203.41 602.27,203.24 602.27,203.59 602.33,203.93 602.44,204.26 602.60,204.57 602.81,204.85 603.06,205.09 603.34,205.28 603.66,205.43 603.99,205.53 604.34,205.57 " style="stroke-width: 0.53; stroke: #FF4237; fill: #FFFFFF;" clip-path="url(#cpNi45NzM4NXw3MTMuMDI2fDIwOS4yMjd8Ni45NzM4NQ==)"/>
  <g clip-path="url(#cpNi45NzM4NXw3MTMuMDI2fDIwOS4yMjd8Ni45NzM4NQ==)">
    <text x="605.86" y="201.97" style="font-size: 9.96px; fill: #FF4237; font-family: Liberation Sans;" textLength="21.02px" lengthAdjust="spacingAndGlyphs">AGA</text>
  </g>
  <polyline points="566.47,53.28 600.89,53.28 600.80,53.28 601.15,53.27 601.49,53.20 601.81,53.07 602.12,52.90 602.38,52.68 602.62,52.42 602.80,52.13 602.94,51.81 603.02,51.47 603.05,51.12 603.05,51.12 603.05,41.37 603.05,41.37 603.02,41.02 602.94,40.68 602.80,40.36 602.62,40.07 602.38,39.81 602.12,39.59 601.81,39.42 601.49,39.29 601.15,39.22 600.89,39.21 566.47,39.21 566.73,39.22 566.39,39.21 566.04,39.25 565.71,39.35 565.39,39.50 565.11,39.69 564.86,39.94 564.65,40.21 564.49,40.52 564.38,40.85 564.32,41.19 564.31,41.37 564.31,51.12 564.32,50.95 564.32,51.30 564.38,51.64 564.49,51.97 564.65,52.28 564.86,52.55 565.11,52.80 565.39,52.99 565.71,53.14 566.04,53.24 566.39,53.28 " style="stroke-width: 0.53; stroke: #0073D7; fill: #FFFFFF;" clip-path="url(#cpNi45NzM4NXw3MTMuMDI2fDIwOS4yMjd8Ni45NzM4NQ==)"/>
  <g clip-path="url(#cpNi45NzM4NXw3MTMuMDI2fDIwOS4yMjd8Ni45NzM4NQ==)">
    <text x="567.91" y="49.68" style="font-size: 9.96px; fill: #0073D7; font-family: Liberation Sans;" textLength="31.54px" lengthAdjust="spacingAndGlyphs">scanpy</text>
  </g>
  <polyline points="276.64,137.60 318.80,137.60 318.71,137.60 319.06,137.59 319.40,137.52 319.72,137.40 320.03,137.22 320.29,137.00 320.53,136.74 320.71,136.45 320.85,136.13 320.93,135.79 320.96,135.44 320.96,135.44 320.96,125.69 320.96,125.69 320.93,125.34 320.85,125.01 320.71,124.69 320.53,124.39 320.29,124.13 320.03,123.91 319.72,123.74 319.40,123.62 319.06,123.55 318.80,123.53 276.64,123.53 276.90,123.55 276.55,123.53 276.20,123.57 275.87,123.67 275.56,123.82 275.27,124.02 275.02,124.26 274.81,124.54 274.65,124.84 274.54,125.17 274.48,125.52 274.48,125.69 274.48,135.44 274.48,135.27 274.48,135.62 274.54,135.96 274.65,136.29 274.81,136.60 275.02,136.88 275.27,137.12 275.56,137.32 275.87,137.46 276.20,137.56 276.55,137.60 " style="stroke-width: 0.53; stroke: #AF0DC7; fill: #FFFFFF;" clip-path="url(#cpNi45NzM4NXw3MTMuMDI2fDIwOS4yMjd8Ni45NzM4NQ==)"/>
  <g clip-path="url(#cpNi45NzM4NXw3MTMuMDI2fDIwOS4yMjd8Ni45NzM4NQ==)">
    <text x="278.08" y="134.00" style="font-size: 9.96px; fill: #AF0DC7; font-family: Liberation Sans;" textLength="39.28px" lengthAdjust="spacingAndGlyphs">embeddr</text>
  </g>
  <polyline points="546.76,24.65 578.39,24.65 578.31,24.65 578.65,24.63 578.99,24.56 579.32,24.44 579.62,24.27 579.89,24.05 580.12,23.79 580.31,23.49 580.44,23.17 580.52,22.84 580.55,22.49 580.55,22.49 580.55,12.73 580.55,12.73 580.52,12.39 580.44,12.05 580.31,11.73 580.12,11.44 579.89,11.18 579.62,10.96 579.32,10.78 578.99,10.66 578.65,10.59 578.39,10.57 546.76,10.57 547.02,10.59 546.67,10.58 546.32,10.62 545.99,10.71 545.68,10.86 545.39,11.06 545.14,11.30 544.93,11.58 544.77,11.89 544.66,12.22 544.60,12.56 544.60,12.73 544.60,22.49 544.60,22.32 544.60,22.66 544.66,23.01 544.77,23.34 544.93,23.64 545.14,23.92 545.39,24.16 545.68,24.36 545.99,24.51 546.32,24.61 546.67,24.65 " style="stroke-width: 0.53; stroke: #39CCCC; fill: #FFFFFF;" clip-path="url(#cpNi45NzM4NXw3MTMuMDI2fDIwOS4yMjd8Ni45NzM4NQ==)"/>
  <g clip-path="url(#cpNi45NzM4NXw3MTMuMDI2fDIwOS4yMjd8Ni45NzM4NQ==)">
    <text x="548.20" y="21.05" style="font-size: 9.96px; fill: #39CCCC; font-family: Liberation Sans;" textLength="28.76px" lengthAdjust="spacingAndGlyphs">reCAT</text>
  </g>
  <polyline points="490.59,47.61 537.72,47.61 537.64,47.61 537.98,47.60 538.32,47.53 538.65,47.40 538.95,47.23 539.22,47.01 539.45,46.75 539.64,46.46 539.77,46.14 539.85,45.80 539.88,45.45 539.88,45.45 539.88,35.70 539.88,35.70 539.85,35.35 539.77,35.01 539.64,34.69 539.45,34.40 539.22,34.14 538.95,33.92 538.65,33.75 538.32,33.62 537.98,33.55 537.72,33.54 490.59,33.54 490.85,33.55 490.50,33.54 490.16,33.58 489.82,33.68 489.51,33.83 489.22,34.03 488.97,34.27 488.76,34.54 488.60,34.85 488.49,35.18 488.44,35.52 488.43,35.70 488.43,45.45 488.44,45.28 488.44,45.63 488.49,45.97 488.60,46.30 488.76,46.61 488.97,46.89 489.22,47.13 489.51,47.32 489.82,47.47 490.16,47.57 490.50,47.61 " style="stroke-width: 0.53; stroke: #5ECD2E; fill: #FFFFFF;" clip-path="url(#cpNi45NzM4NXw3MTMuMDI2fDIwOS4yMjd8Ni45NzM4NQ==)"/>
  <g clip-path="url(#cpNi45NzM4NXw3MTMuMDI2fDIwOS4yMjd8Ni45NzM4NQ==)">
    <text x="492.03" y="44.01" style="font-size: 9.96px; fill: #5ECD2E; font-family: Liberation Sans;" textLength="44.25px" lengthAdjust="spacingAndGlyphs">Granatum</text>
  </g>
  <polyline points="532.53,81.39 576.89,81.39 576.80,81.39 577.15,81.37 577.49,81.30 577.81,81.18 578.12,81.01 578.39,80.79 578.62,80.53 578.80,80.23 578.94,79.91 579.02,79.57 579.05,79.23 579.05,79.23 579.05,69.47 579.05,69.47 579.02,69.13 578.94,68.79 578.80,68.47 578.62,68.18 578.39,67.92 578.12,67.70 577.81,67.52 577.49,67.40 577.15,67.33 576.89,67.31 532.53,67.31 532.79,67.33 532.45,67.31 532.10,67.36 531.77,67.45 531.45,67.60 531.17,67.80 530.92,68.04 530.71,68.32 530.55,68.63 530.44,68.96 530.38,69.30 530.37,69.47 530.37,79.23 530.38,79.05 530.38,79.40 530.44,79.74 530.55,80.07 530.71,80.38 530.92,80.66 531.17,80.90 531.45,81.10 531.77,81.25 532.10,81.34 532.45,81.39 " style="stroke-width: 0.53; stroke: #AF0DC7; fill: #FFFFFF;" clip-path="url(#cpNi45NzM4NXw3MTMuMDI2fDIwOS4yMjd8Ni45NzM4NQ==)"/>
  <g clip-path="url(#cpNi45NzM4NXw3MTMuMDI2fDIwOS4yMjd8Ni45NzM4NQ==)">
    <text x="533.97" y="77.79" style="font-size: 9.96px; fill: #AF0DC7; font-family: Liberation Sans;" textLength="41.47px" lengthAdjust="spacingAndGlyphs">UNCURL</text>
  </g>
  <polyline points="368.09,35.94 415.23,35.94 415.14,35.93 415.49,35.92 415.83,35.85 416.15,35.73 416.46,35.55 416.72,35.33 416.96,35.07 417.14,34.78 417.28,34.46 417.36,34.12 417.39,33.78 417.39,33.78 417.39,24.02 417.39,24.02 417.36,23.67 417.28,23.34 417.14,23.02 416.96,22.72 416.72,22.46 416.46,22.24 416.15,22.07 415.83,21.95 415.49,21.88 415.23,21.86 368.09,21.86 368.35,21.88 368.00,21.86 367.66,21.91 367.32,22.00 367.01,22.15 366.72,22.35 366.47,22.59 366.26,22.87 366.10,23.17 365.99,23.50 365.94,23.85 365.93,24.02 365.93,33.78 365.94,33.60 365.94,33.95 365.99,34.29 366.10,34.62 366.26,34.93 366.47,35.21 366.72,35.45 367.01,35.65 367.32,35.80 367.66,35.89 368.00,35.93 " style="stroke-width: 0.53; stroke: #0073D7; fill: #FFFFFF;" clip-path="url(#cpNi45NzM4NXw3MTMuMDI2fDIwOS4yMjd8Ni45NzM4NQ==)"/>
  <g clip-path="url(#cpNi45NzM4NXw3MTMuMDI2fDIwOS4yMjd8Ni45NzM4NQ==)">
    <text x="369.53" y="32.34" style="font-size: 9.96px; fill: #0073D7; font-family: Liberation Sans;" textLength="44.26px" lengthAdjust="spacingAndGlyphs">Wishbone</text>
  </g>
  <polyline points="372.95,84.42 399.61,84.42 399.52,84.42 399.87,84.41 400.21,84.34 400.54,84.21 400.84,84.04 401.11,83.82 401.34,83.56 401.52,83.27 401.66,82.95 401.74,82.61 401.77,82.26 401.77,82.26 401.77,72.51 401.77,72.51 401.74,72.16 401.66,71.82 401.52,71.50 401.34,71.21 401.11,70.95 400.84,70.73 400.54,70.56 400.21,70.43 399.87,70.36 399.61,70.35 372.95,70.35 373.21,70.36 372.86,70.35 372.51,70.39 372.18,70.49 371.87,70.64 371.58,70.83 371.33,71.08 371.12,71.35 370.96,71.66 370.85,71.99 370.79,72.33 370.79,72.51 370.79,82.26 370.79,82.09 370.79,82.44 370.85,82.78 370.96,83.11 371.12,83.42 371.33,83.70 371.58,83.94 371.87,84.13 372.18,84.28 372.51,84.38 372.86,84.42 " style="stroke-width: 0.53; stroke: #AF0DC7; fill: #FFFFFF;" clip-path="url(#cpNi45NzM4NXw3MTMuMDI2fDIwOS4yMjd8Ni45NzM4NQ==)"/>
  <g clip-path="url(#cpNi45NzM4NXw3MTMuMDI2fDIwOS4yMjd8Ni45NzM4NQ==)">
    <text x="374.39" y="80.82" style="font-size: 9.96px; fill: #AF0DC7; font-family: Liberation Sans;" textLength="23.78px" lengthAdjust="spacingAndGlyphs">SCell</text>
  </g>
  <polyline points="543.54,68.02 595.68,68.02 595.59,68.02 595.94,68.01 596.28,67.94 596.60,67.82 596.90,67.64 597.17,67.42 597.40,67.16 597.59,66.87 597.73,66.55 597.81,66.21 597.84,65.86 597.84,65.86 597.84,56.11 597.84,56.11 597.81,55.76 597.73,55.43 597.59,55.11 597.40,54.81 597.17,54.55 596.90,54.33 596.60,54.16 596.28,54.03 595.94,53.97 595.68,53.95 543.54,53.95 543.80,53.97 543.46,53.95 543.11,53.99 542.78,54.09 542.46,54.24 542.18,54.44 541.93,54.68 541.72,54.95 541.56,55.26 541.44,55.59 541.39,55.94 541.38,56.11 541.38,65.86 541.39,65.69 541.39,66.04 541.44,66.38 541.56,66.71 541.72,67.02 541.93,67.30 542.18,67.54 542.46,67.74 542.78,67.88 543.11,67.98 543.46,68.02 " style="stroke-width: 0.53; stroke: #AF0DC7; fill: #FFFFFF;" clip-path="url(#cpNi45NzM4NXw3MTMuMDI2fDIwOS4yMjd8Ni45NzM4NQ==)"/>
  <g clip-path="url(#cpNi45NzM4NXw3MTMuMDI2fDIwOS4yMjd8Ni45NzM4NQ==)">
    <text x="544.98" y="64.42" style="font-size: 9.96px; fill: #AF0DC7; font-family: Liberation Sans;" textLength="49.26px" lengthAdjust="spacingAndGlyphs">PhenoPath</text>
  </g>
  <polyline points="185.61,183.34 216.15,183.34 216.06,183.33 216.41,183.32 216.75,183.25 217.07,183.13 217.37,182.95 217.64,182.73 217.87,182.47 218.06,182.18 218.20,181.86 218.28,181.52 218.31,181.18 218.31,181.18 218.31,171.42 218.31,171.42 218.28,171.07 218.20,170.74 218.06,170.42 217.87,170.12 217.64,169.86 217.37,169.64 217.07,169.47 216.75,169.35 216.41,169.28 216.15,169.26 185.61,169.26 185.87,169.28 185.52,169.26 185.18,169.30 184.84,169.40 184.53,169.55 184.24,169.75 183.99,169.99 183.78,170.27 183.62,170.57 183.51,170.90 183.46,171.25 183.45,171.42 183.45,181.18 183.46,181.00 183.46,181.35 183.51,181.69 183.62,182.02 183.78,182.33 183.99,182.61 184.24,182.85 184.53,183.05 184.84,183.19 185.18,183.29 185.52,183.33 " style="stroke-width: 0.53; stroke: #5ECD2E; fill: #FFFFFF;" clip-path="url(#cpNi45NzM4NXw3MTMuMDI2fDIwOS4yMjd8Ni45NzM4NQ==)"/>
  <g clip-path="url(#cpNi45NzM4NXw3MTMuMDI2fDIwOS4yMjd8Ni45NzM4NQ==)">
    <text x="187.05" y="179.74" style="font-size: 9.96px; fill: #5ECD2E; font-family: Liberation Sans;" textLength="27.66px" lengthAdjust="spacingAndGlyphs">sincell</text>
  </g>
  <polyline points="510.90,24.65 534.79,24.65 534.70,24.65 535.05,24.63 535.39,24.56 535.72,24.44 536.02,24.27 536.29,24.05 536.52,23.79 536.70,23.49 536.84,23.17 536.92,22.84 536.95,22.49 536.95,22.49 536.95,12.73 536.95,12.73 536.92,12.39 536.84,12.05 536.70,11.73 536.52,11.44 536.29,11.18 536.02,10.96 535.72,10.78 535.39,10.66 535.05,10.59 534.79,10.57 510.90,10.57 511.16,10.59 510.81,10.58 510.47,10.62 510.14,10.71 509.82,10.86 509.54,11.06 509.28,11.30 509.08,11.58 508.91,11.89 508.80,12.22 508.75,12.56 508.74,12.73 508.74,22.49 508.75,22.32 508.75,22.66 508.80,23.01 508.91,23.34 509.08,23.64 509.28,23.92 509.54,24.16 509.82,24.36 510.14,24.51 510.47,24.61 510.81,24.65 " style="stroke-width: 0.53; stroke: #CFBF00; fill: #FFFFFF;" clip-path="url(#cpNi45NzM4NXw3MTMuMDI2fDIwOS4yMjd8Ni45NzM4NQ==)"/>
  <g clip-path="url(#cpNi45NzM4NXw3MTMuMDI2fDIwOS4yMjd8Ni45NzM4NQ==)">
    <text x="512.34" y="21.05" style="font-size: 9.96px; fill: #CFBF00; font-family: Liberation Sans;" textLength="21.01px" lengthAdjust="spacingAndGlyphs">MFA</text>
  </g>
  <polyline points="409.89,183.44 461.99,183.44 461.90,183.44 462.25,183.42 462.59,183.36 462.92,183.23 463.22,183.06 463.49,182.84 463.72,182.58 463.90,182.28 464.04,181.96 464.12,181.63 464.15,181.28 464.15,181.28 464.15,171.53 464.15,171.53 464.12,171.18 464.04,170.84 463.90,170.52 463.72,170.23 463.49,169.97 463.22,169.75 462.92,169.57 462.59,169.45 462.25,169.38 461.99,169.37 409.89,169.37 410.15,169.38 409.80,169.37 409.46,169.41 409.12,169.51 408.81,169.66 408.52,169.85 408.27,170.09 408.06,170.37 407.90,170.68 407.79,171.01 407.74,171.35 407.73,171.53 407.73,181.28 407.74,181.11 407.74,181.45 407.79,181.80 407.90,182.13 408.06,182.44 408.27,182.71 408.52,182.95 408.81,183.15 409.12,183.30 409.46,183.40 409.80,183.44 " style="stroke-width: 0.53; stroke: #AF0DC7; fill: #FFFFFF;" clip-path="url(#cpNi45NzM4NXw3MTMuMDI2fDIwOS4yMjd8Ni45NzM4NQ==)"/>
  <g clip-path="url(#cpNi45NzM4NXw3MTMuMDI2fDIwOS4yMjd8Ni45NzM4NQ==)">
    <text x="411.33" y="179.84" style="font-size: 9.96px; fill: #AF0DC7; font-family: Liberation Sans;" textLength="49.22px" lengthAdjust="spacingAndGlyphs">WaveCrest</text>
  </g>
  <polyline points="170.71,205.33 207.88,205.33 207.79,205.33 208.14,205.32 208.48,205.25 208.80,205.12 209.10,204.95 209.37,204.73 209.60,204.47 209.79,204.18 209.93,203.86 210.01,203.52 210.04,203.17 210.04,203.17 210.04,193.42 210.04,193.42 210.01,193.07 209.93,192.73 209.79,192.41 209.60,192.12 209.37,191.86 209.10,191.64 208.80,191.47 208.48,191.34 208.14,191.27 207.88,191.26 170.71,191.26 170.97,191.27 170.62,191.26 170.27,191.30 169.94,191.40 169.63,191.55 169.34,191.74 169.09,191.98 168.88,192.26 168.72,192.57 168.61,192.90 168.55,193.24 168.55,193.42 168.55,203.17 168.55,203.00 168.55,203.35 168.61,203.69 168.72,204.02 168.88,204.33 169.09,204.60 169.34,204.84 169.63,205.04 169.94,205.19 170.27,205.29 170.62,205.33 " style="stroke-width: 0.53; stroke: #5ECD2E; fill: #FFFFFF;" clip-path="url(#cpNi45NzM4NXw3MTMuMDI2fDIwOS4yMjd8Ni45NzM4NQ==)"/>
  <g clip-path="url(#cpNi45NzM4NXw3MTMuMDI2fDIwOS4yMjd8Ni45NzM4NQ==)">
    <text x="172.15" y="201.73" style="font-size: 9.96px; fill: #5ECD2E; font-family: Liberation Sans;" textLength="34.29px" lengthAdjust="spacingAndGlyphs">SCUBA</text>
  </g>
  <polyline points="615.73,95.57 645.16,95.57 645.07,95.56 645.42,95.55 645.76,95.48 646.09,95.36 646.39,95.18 646.66,94.96 646.89,94.70 647.07,94.41 647.21,94.09 647.29,93.75 647.32,93.41 647.32,93.41 647.32,83.65 647.32,83.65 647.29,83.30 647.21,82.97 647.07,82.65 646.89,82.35 646.66,82.09 646.39,81.87 646.09,81.70 645.76,81.58 645.42,81.51 645.16,81.49 615.73,81.49 615.99,81.51 615.64,81.49 615.30,81.53 614.96,81.63 614.65,81.78 614.36,81.98 614.11,82.22 613.90,82.50 613.74,82.80 613.63,83.13 613.58,83.48 613.57,83.65 613.57,93.41 613.58,93.23 613.58,93.58 613.63,93.92 613.74,94.25 613.90,94.56 614.11,94.84 614.36,95.08 614.65,95.28 614.96,95.42 615.30,95.52 615.64,95.56 " style="stroke-width: 0.53; stroke: #AF0DC7; fill: #FFFFFF;" clip-path="url(#cpNi45NzM4NXw3MTMuMDI2fDIwOS4yMjd8Ni45NzM4NQ==)"/>
  <g clip-path="url(#cpNi45NzM4NXw3MTMuMDI2fDIwOS4yMjd8Ni45NzM4NQ==)">
    <text x="617.17" y="91.97" style="font-size: 9.96px; fill: #AF0DC7; font-family: Liberation Sans;" textLength="26.55px" lengthAdjust="spacingAndGlyphs">iCpSc</text>
  </g>
  <polyline points="568.42,99.10 592.32,99.10 592.23,99.09 592.58,99.08 592.92,99.01 593.25,98.89 593.55,98.71 593.82,98.49 594.05,98.23 594.23,97.94 594.37,97.62 594.45,97.28 594.48,96.94 594.48,96.94 594.48,87.18 594.48,87.18 594.45,86.84 594.37,86.50 594.23,86.18 594.05,85.88 593.82,85.62 593.55,85.40 593.25,85.23 592.92,85.11 592.58,85.04 592.32,85.02 568.42,85.02 568.68,85.04 568.33,85.02 567.99,85.07 567.65,85.16 567.34,85.31 567.05,85.51 566.80,85.75 566.59,86.03 566.43,86.34 566.32,86.66 566.27,87.01 566.26,87.18 566.26,96.94 566.27,96.76 566.27,97.11 566.32,97.45 566.43,97.78 566.59,98.09 566.80,98.37 567.05,98.61 567.34,98.81 567.65,98.96 567.99,99.05 568.33,99.09 " style="stroke-width: 0.53; stroke: #0073D7; fill: #FFFFFF;" clip-path="url(#cpNi45NzM4NXw3MTMuMDI2fDIwOS4yMjd8Ni45NzM4NQ==)"/>
  <g clip-path="url(#cpNi45NzM4NXw3MTMuMDI2fDIwOS4yMjd8Ni45NzM4NQ==)">
    <text x="569.86" y="95.50" style="font-size: 9.96px; fill: #0073D7; font-family: Liberation Sans;" textLength="21.02px" lengthAdjust="spacingAndGlyphs">BGP</text>
  </g>
  <polyline points="270.44,159.28 312.58,159.28 312.50,159.28 312.84,159.27 313.18,159.20 313.51,159.07 313.81,158.90 314.08,158.68 314.31,158.42 314.50,158.12 314.63,157.81 314.72,157.47 314.74,157.12 314.74,157.12 314.74,147.37 314.74,147.37 314.72,147.02 314.63,146.68 314.50,146.36 314.31,146.07 314.08,145.81 313.81,145.59 313.51,145.41 313.18,145.29 312.84,145.22 312.58,145.21 270.44,145.21 270.70,145.22 270.35,145.21 270.00,145.25 269.67,145.35 269.36,145.50 269.07,145.69 268.82,145.93 268.61,146.21 268.45,146.52 268.34,146.85 268.28,147.19 268.28,147.37 268.28,157.12 268.28,156.95 268.28,157.29 268.34,157.64 268.45,157.97 268.61,158.28 268.82,158.55 269.07,158.79 269.36,158.99 269.67,159.14 270.00,159.24 270.35,159.28 " style="stroke-width: 0.53; stroke: #AF0DC7; fill: #FFFFFF;" clip-path="url(#cpNi45NzM4NXw3MTMuMDI2fDIwOS4yMjd8Ni45NzM4NQ==)"/>
  <g clip-path="url(#cpNi45NzM4NXw3MTMuMDI2fDIwOS4yMjd8Ni45NzM4NQ==)">
    <text x="271.88" y="155.68" style="font-size: 9.96px; fill: #AF0DC7; font-family: Liberation Sans;" textLength="39.27px" lengthAdjust="spacingAndGlyphs">Waterfall</text>
  </g>
  <polyline points="345.50,105.46 368.29,105.46 368.20,105.46 368.55,105.45 368.89,105.38 369.22,105.25 369.52,105.08 369.79,104.86 370.02,104.60 370.20,104.31 370.34,103.99 370.42,103.65 370.45,103.30 370.45,103.30 370.45,93.55 370.45,93.55 370.42,93.20 370.34,92.86 370.20,92.54 370.02,92.25 369.79,91.99 369.52,91.77 369.22,91.60 368.89,91.47 368.55,91.40 368.29,91.39 345.50,91.39 345.76,91.40 345.42,91.39 345.07,91.43 344.74,91.53 344.42,91.68 344.14,91.87 343.89,92.11 343.68,92.39 343.52,92.70 343.41,93.03 343.35,93.37 343.34,93.55 343.34,103.30 343.35,103.13 343.35,103.48 343.41,103.82 343.52,104.15 343.68,104.46 343.89,104.73 344.14,104.97 344.42,105.17 344.74,105.32 345.07,105.42 345.42,105.46 " style="stroke-width: 0.53; stroke: #0073D7; fill: #FFFFFF;" clip-path="url(#cpNi45NzM4NXw3MTMuMDI2fDIwOS4yMjd8Ni45NzM4NQ==)"/>
  <g clip-path="url(#cpNi45NzM4NXw3MTMuMDI2fDIwOS4yMjd8Ni45NzM4NQ==)">
    <text x="346.94" y="101.86" style="font-size: 9.96px; fill: #0073D7; font-family: Liberation Sans;" textLength="19.91px" lengthAdjust="spacingAndGlyphs">DPT</text>
  </g>
  <polyline points="430.59,70.63 481.02,70.63 480.93,70.63 481.28,70.62 481.62,70.55 481.95,70.42 482.25,70.25 482.52,70.03 482.75,69.77 482.93,69.48 483.07,69.16 483.15,68.82 483.18,68.47 483.18,68.47 483.18,58.72 483.18,58.72 483.15,58.37 483.07,58.03 482.93,57.71 482.75,57.42 482.52,57.16 482.25,56.94 481.95,56.76 481.62,56.64 481.28,56.57 481.02,56.56 430.59,56.56 430.85,56.57 430.50,56.56 430.15,56.60 429.82,56.70 429.51,56.85 429.22,57.04 428.97,57.28 428.76,57.56 428.60,57.87 428.49,58.20 428.43,58.54 428.43,58.72 428.43,68.47 428.43,68.30 428.43,68.65 428.49,68.99 428.60,69.32 428.76,69.63 428.97,69.90 429.22,70.14 429.51,70.34 429.82,70.49 430.15,70.59 430.50,70.63 " style="stroke-width: 0.53; stroke: #AF0DC7; fill: #FFFFFF;" clip-path="url(#cpNi45NzM4NXw3MTMuMDI2fDIwOS4yMjd8Ni45NzM4NQ==)"/>
  <g clip-path="url(#cpNi45NzM4NXw3MTMuMDI2fDIwOS4yMjd8Ni45NzM4NQ==)">
    <text x="432.03" y="67.03" style="font-size: 9.96px; fill: #AF0DC7; font-family: Liberation Sans;" textLength="47.55px" lengthAdjust="spacingAndGlyphs">SCIMITAR</text>
  </g>
  <polyline points="429.61,119.94 484.48,119.94 484.39,119.93 484.74,119.92 485.08,119.85 485.40,119.73 485.71,119.55 485.98,119.33 486.21,119.07 486.39,118.78 486.53,118.46 486.61,118.12 486.64,117.78 486.64,117.78 486.64,108.02 486.64,108.02 486.61,107.67 486.53,107.34 486.39,107.02 486.21,106.72 485.98,106.46 485.71,106.24 485.40,106.07 485.08,105.95 484.74,105.88 484.48,105.86 429.61,105.86 429.87,105.88 429.53,105.86 429.18,105.90 428.85,106.00 428.53,106.15 428.25,106.35 428.00,106.59 427.79,106.87 427.62,107.17 427.51,107.50 427.46,107.85 427.45,108.02 427.45,117.78 427.46,117.60 427.46,117.95 427.51,118.29 427.62,118.62 427.79,118.93 428.00,119.21 428.25,119.45 428.53,119.65 428.85,119.80 429.18,119.89 429.53,119.93 " style="stroke-width: 0.53; stroke: #AF0DC7; fill: #FFFFFF;" clip-path="url(#cpNi45NzM4NXw3MTMuMDI2fDIwOS4yMjd8Ni45NzM4NQ==)"/>
  <g clip-path="url(#cpNi45NzM4NXw3MTMuMDI2fDIwOS4yMjd8Ni45NzM4NQ==)">
    <text x="431.05" y="116.34" style="font-size: 9.96px; fill: #AF0DC7; font-family: Liberation Sans;" textLength="51.99px" lengthAdjust="spacingAndGlyphs">SCORPIUS</text>
  </g>
  <polyline points="387.83,49.31 426.11,49.31 426.02,49.31 426.37,49.29 426.71,49.22 427.03,49.10 427.34,48.92 427.60,48.70 427.84,48.44 428.02,48.15 428.16,47.83 428.24,47.49 428.27,47.15 428.27,47.15 428.27,37.39 428.27,37.39 428.24,37.05 428.16,36.71 428.02,36.39 427.84,36.09 427.60,35.83 427.34,35.61 427.03,35.44 426.71,35.32 426.37,35.25 426.11,35.23 387.83,35.23 388.09,35.25 387.75,35.23 387.40,35.28 387.07,35.37 386.75,35.52 386.47,35.72 386.22,35.96 386.01,36.24 385.85,36.55 385.74,36.87 385.68,37.22 385.67,37.39 385.67,47.15 385.68,46.97 385.68,47.32 385.74,47.66 385.85,47.99 386.01,48.30 386.22,48.58 386.47,48.82 386.75,49.02 387.07,49.17 387.40,49.26 387.75,49.31 " style="stroke-width: 0.53; stroke: #CFBF00; fill: #FFFFFF;" clip-path="url(#cpNi45NzM4NXw3MTMuMDI2fDIwOS4yMjd8Ni45NzM4NQ==)"/>
  <g clip-path="url(#cpNi45NzM4NXw3MTMuMDI2fDIwOS4yMjd8Ni45NzM4NQ==)">
    <text x="389.27" y="45.71" style="font-size: 9.96px; fill: #CFBF00; font-family: Liberation Sans;" textLength="35.39px" lengthAdjust="spacingAndGlyphs">SCOUP</text>
  </g>
  <polyline points="326.31,205.51 365.14,205.51 365.05,205.50 365.40,205.49 365.74,205.42 366.07,205.30 366.37,205.12 366.64,204.90 366.87,204.64 367.05,204.35 367.19,204.03 367.27,203.69 367.30,203.35 367.30,203.35 367.30,193.59 367.30,193.59 367.27,193.24 367.19,192.91 367.05,192.59 366.87,192.29 366.64,192.03 366.37,191.81 366.07,191.64 365.74,191.52 365.40,191.45 365.14,191.43 326.31,191.43 326.57,191.45 326.22,191.43 325.87,191.47 325.54,191.57 325.23,191.72 324.94,191.92 324.69,192.16 324.48,192.44 324.32,192.74 324.21,193.07 324.15,193.42 324.15,193.59 324.15,203.35 324.15,203.17 324.15,203.52 324.21,203.86 324.32,204.19 324.48,204.50 324.69,204.78 324.94,205.02 325.23,205.22 325.54,205.37 325.87,205.46 326.22,205.50 " style="stroke-width: 0.53; stroke: #5ECD2E; fill: #FFFFFF;" clip-path="url(#cpNi45NzM4NXw3MTMuMDI2fDIwOS4yMjd8Ni45NzM4NQ==)"/>
  <g clip-path="url(#cpNi45NzM4NXw3MTMuMDI2fDIwOS4yMjd8Ni45NzM4NQ==)">
    <text x="327.75" y="201.91" style="font-size: 9.96px; fill: #5ECD2E; font-family: Liberation Sans;" textLength="35.95px" lengthAdjust="spacingAndGlyphs">ECLAIR</text>
  </g>
  <polyline points="394.32,106.39 430.38,106.39 430.30,106.39 430.64,106.37 430.98,106.30 431.31,106.18 431.61,106.01 431.88,105.79 432.11,105.53 432.30,105.23 432.43,104.91 432.51,104.57 432.54,104.23 432.54,104.23 432.54,94.47 432.54,94.47 432.51,94.13 432.43,93.79 432.30,93.47 432.11,93.17 431.88,92.91 431.61,92.69 431.31,92.52 430.98,92.40 430.64,92.33 430.38,92.31 394.32,92.31 394.58,92.33 394.23,92.31 393.89,92.36 393.55,92.45 393.24,92.60 392.95,92.80 392.70,93.04 392.49,93.32 392.33,93.63 392.22,93.96 392.17,94.30 392.16,94.47 392.16,104.23 392.17,104.05 392.17,104.40 392.22,104.74 392.33,105.07 392.49,105.38 392.70,105.66 392.95,105.90 393.24,106.10 393.55,106.25 393.89,106.34 394.23,106.39 " style="stroke-width: 0.53; stroke: #5ECD2E; fill: #FFFFFF;" clip-path="url(#cpNi45NzM4NXw3MTMuMDI2fDIwOS4yMjd8Ni45NzM4NQ==)"/>
  <g clip-path="url(#cpNi45NzM4NXw3MTMuMDI2fDIwOS4yMjd8Ni45NzM4NQ==)">
    <text x="395.76" y="102.79" style="font-size: 9.96px; fill: #5ECD2E; font-family: Liberation Sans;" textLength="33.18px" lengthAdjust="spacingAndGlyphs">StemID</text>
  </g>
  <polyline points="377.90,127.09 414.52,127.09 414.43,127.09 414.78,127.07 415.12,127.00 415.44,126.88 415.74,126.71 416.01,126.49 416.24,126.23 416.43,125.93 416.57,125.61 416.65,125.27 416.68,124.93 416.68,124.93 416.68,115.17 416.68,115.17 416.65,114.83 416.57,114.49 416.43,114.17 416.24,113.87 416.01,113.61 415.74,113.39 415.44,113.22 415.12,113.10 414.78,113.03 414.52,113.01 377.90,113.01 378.16,113.03 377.82,113.01 377.47,113.06 377.14,113.15 376.82,113.30 376.54,113.50 376.29,113.74 376.08,114.02 375.92,114.33 375.81,114.66 375.75,115.00 375.74,115.17 375.74,124.93 375.75,124.75 375.75,125.10 375.81,125.44 375.92,125.77 376.08,126.08 376.29,126.36 376.54,126.60 376.82,126.80 377.14,126.95 377.47,127.04 377.82,127.09 " style="stroke-width: 0.53; stroke: #5ECD2E; fill: #FFFFFF;" clip-path="url(#cpNi45NzM4NXw3MTMuMDI2fDIwOS4yMjd8Ni45NzM4NQ==)"/>
  <g clip-path="url(#cpNi45NzM4NXw3MTMuMDI2fDIwOS4yMjd8Ni45NzM4NQ==)">
    <text x="379.34" y="123.49" style="font-size: 9.96px; fill: #5ECD2E; font-family: Liberation Sans;" textLength="33.73px" lengthAdjust="spacingAndGlyphs">TSCAN</text>
  </g>
  <polyline points="538.60,136.44 590.69,136.44 590.60,136.44 590.95,136.42 591.29,136.35 591.62,136.23 591.92,136.06 592.19,135.84 592.42,135.58 592.60,135.28 592.74,134.96 592.82,134.63 592.85,134.28 592.85,134.28 592.85,124.52 592.85,124.52 592.82,124.18 592.74,123.84 592.60,123.52 592.42,123.23 592.19,122.97 591.92,122.75 591.62,122.57 591.29,122.45 590.95,122.38 590.69,122.36 538.60,122.36 538.86,122.38 538.51,122.37 538.17,122.41 537.83,122.50 537.52,122.65 537.23,122.85 536.98,123.09 536.77,123.37 536.61,123.68 536.50,124.01 536.45,124.35 536.44,124.52 536.44,134.28 536.45,134.11 536.45,134.45 536.50,134.80 536.61,135.13 536.77,135.43 536.98,135.71 537.23,135.95 537.52,136.15 537.83,136.30 538.17,136.40 538.51,136.44 " style="stroke-width: 0.53; stroke: #AF0DC7; fill: #FFFFFF;" clip-path="url(#cpNi45NzM4NXw3MTMuMDI2fDIwOS4yMjd8Ni45NzM4NQ==)"/>
  <g clip-path="url(#cpNi45NzM4NXw3MTMuMDI2fDIwOS4yMjd8Ni45NzM4NQ==)">
    <text x="540.04" y="132.84" style="font-size: 9.96px; fill: #AF0DC7; font-family: Liberation Sans;" textLength="49.21px" lengthAdjust="spacingAndGlyphs">MATCHER</text>
  </g>
  <polyline points="568.14,169.11 590.94,169.11 590.85,169.10 591.20,169.09 591.54,169.02 591.87,168.90 592.17,168.72 592.44,168.50 592.67,168.24 592.85,167.95 592.99,167.63 593.07,167.29 593.10,166.95 593.10,166.95 593.10,157.19 593.10,157.19 593.07,156.84 592.99,156.51 592.85,156.19 592.67,155.89 592.44,155.63 592.17,155.41 591.87,155.24 591.54,155.12 591.20,155.05 590.94,155.03 568.14,155.03 568.40,155.05 568.06,155.03 567.71,155.07 567.38,155.17 567.06,155.32 566.78,155.52 566.53,155.76 566.32,156.04 566.16,156.34 566.05,156.67 565.99,157.02 565.98,157.19 565.98,166.95 565.99,166.77 565.99,167.12 566.05,167.46 566.16,167.79 566.32,168.10 566.53,168.38 566.78,168.62 567.06,168.82 567.38,168.97 567.71,169.06 568.06,169.10 " style="stroke-width: 0.53; stroke: #CFBF00; fill: #FFFFFF;" clip-path="url(#cpNi45NzM4NXw3MTMuMDI2fDIwOS4yMjd8Ni45NzM4NQ==)"/>
  <g clip-path="url(#cpNi45NzM4NXw3MTMuMDI2fDIwOS4yMjd8Ni45NzM4NQ==)">
    <text x="569.58" y="165.51" style="font-size: 9.96px; fill: #CFBF00; font-family: Liberation Sans;" textLength="19.92px" lengthAdjust="spacingAndGlyphs">PBA</text>
  </g>
  <polyline points="362.72,145.63 401.56,145.63 401.47,145.63 401.82,145.61 402.16,145.54 402.48,145.42 402.78,145.25 403.05,145.03 403.28,144.77 403.47,144.47 403.61,144.15 403.69,143.81 403.72,143.47 403.72,143.47 403.72,133.71 403.72,133.71 403.69,133.37 403.61,133.03 403.47,132.71 403.28,132.42 403.05,132.16 402.78,131.94 402.48,131.76 402.16,131.64 401.82,131.57 401.56,131.55 362.72,131.55 362.98,131.57 362.64,131.55 362.29,131.60 361.96,131.69 361.64,131.84 361.36,132.04 361.11,132.28 360.90,132.56 360.74,132.87 360.63,133.20 360.57,133.54 360.56,133.71 360.56,143.47 360.57,143.29 360.57,143.64 360.63,143.98 360.74,144.31 360.90,144.62 361.11,144.90 361.36,145.14 361.64,145.34 361.96,145.49 362.29,145.58 362.64,145.63 " style="stroke-width: 0.53; stroke: #FF8821; fill: #FFFFFF;" clip-path="url(#cpNi45NzM4NXw3MTMuMDI2fDIwOS4yMjd8Ni45NzM4NQ==)"/>
  <g clip-path="url(#cpNi45NzM4NXw3MTMuMDI2fDIwOS4yMjd8Ni45NzM4NQ==)">
    <text x="364.16" y="142.03" style="font-size: 9.96px; fill: #FF8821; font-family: Liberation Sans;" textLength="35.95px" lengthAdjust="spacingAndGlyphs">SLICER</text>
  </g>
  <polyline points="357.18,183.98 403.79,183.98 403.70,183.97 404.05,183.96 404.39,183.89 404.71,183.77 405.01,183.59 405.28,183.37 405.51,183.11 405.70,182.82 405.84,182.50 405.92,182.16 405.95,181.82 405.95,181.82 405.95,172.06 405.95,172.06 405.92,171.71 405.84,171.38 405.70,171.06 405.51,170.76 405.28,170.50 405.01,170.28 404.71,170.11 404.39,169.99 404.05,169.92 403.79,169.90 357.18,169.90 357.44,169.92 357.10,169.90 356.75,169.95 356.42,170.04 356.10,170.19 355.82,170.39 355.57,170.63 355.36,170.91 355.20,171.21 355.09,171.54 355.03,171.89 355.02,172.06 355.02,181.82 355.03,181.64 355.03,181.99 355.09,182.33 355.20,182.66 355.36,182.97 355.57,183.25 355.82,183.49 356.10,183.69 356.42,183.84 356.75,183.93 357.10,183.97 " style="stroke-width: 0.53; stroke: #AF0DC7; fill: #FFFFFF;" clip-path="url(#cpNi45NzM4NXw3MTMuMDI2fDIwOS4yMjd8Ni45NzM4NQ==)"/>
  <g clip-path="url(#cpNi45NzM4NXw3MTMuMDI2fDIwOS4yMjd8Ni45NzM4NQ==)">
    <text x="358.62" y="180.38" style="font-size: 9.96px; fill: #AF0DC7; font-family: Liberation Sans;" textLength="43.72px" lengthAdjust="spacingAndGlyphs">pseudogp</text>
  </g>
  <polyline points="559.39,117.10 648.52,117.10 648.44,117.10 648.78,117.08 649.12,117.01 649.45,116.89 649.75,116.72 650.02,116.50 650.25,116.24 650.44,115.94 650.57,115.62 650.66,115.29 650.68,114.94 650.68,114.94 650.68,105.18 650.68,105.18 650.66,104.84 650.57,104.50 650.44,104.18 650.25,103.89 650.02,103.63 649.75,103.41 649.45,103.23 649.12,103.11 648.78,103.04 648.52,103.02 559.39,103.02 559.65,103.04 559.31,103.03 558.96,103.07 558.63,103.16 558.31,103.31 558.03,103.51 557.78,103.75 557.57,104.03 557.41,104.34 557.30,104.67 557.24,105.01 557.23,105.18 557.23,114.94 557.24,114.77 557.24,115.11 557.30,115.46 557.41,115.79 557.57,116.09 557.78,116.37 558.03,116.61 558.31,116.81 558.63,116.96 558.96,117.06 559.31,117.10 " style="stroke-width: 0.53; stroke: #FF8821; fill: #FFFFFF;" clip-path="url(#cpNi45NzM4NXw3MTMuMDI2fDIwOS4yMjd8Ni45NzM4NQ==)"/>
  <g clip-path="url(#cpNi45NzM4NXw3MTMuMDI2fDIwOS4yMjd8Ni45NzM4NQ==)">
    <text x="560.83" y="113.50" style="font-size: 9.96px; fill: #FF8821; font-family: Liberation Sans;" textLength="86.25px" lengthAdjust="spacingAndGlyphs">WADDINGTON-OT</text>
  </g>
  <polyline points="559.30,185.22 596.48,185.22 596.39,185.22 596.74,185.20 597.08,185.13 597.40,185.01 597.70,184.84 597.97,184.62 598.20,184.36 598.39,184.06 598.53,183.74 598.61,183.40 598.64,183.06 598.64,183.06 598.64,173.30 598.64,173.30 598.61,172.96 598.53,172.62 598.39,172.30 598.20,172.00 597.97,171.74 597.70,171.52 597.40,171.35 597.08,171.23 596.74,171.16 596.48,171.14 559.30,171.14 559.56,171.16 559.21,171.14 558.86,171.19 558.53,171.28 558.22,171.43 557.93,171.63 557.68,171.87 557.47,172.15 557.31,172.46 557.20,172.79 557.14,173.13 557.14,173.30 557.14,183.06 557.14,182.88 557.14,183.23 557.20,183.57 557.31,183.90 557.47,184.21 557.68,184.49 557.93,184.73 558.22,184.93 558.53,185.08 558.86,185.17 559.21,185.22 " style="stroke-width: 0.53; stroke: #AF0DC7; fill: #FFFFFF;" clip-path="url(#cpNi45NzM4NXw3MTMuMDI2fDIwOS4yMjd8Ni45NzM4NQ==)"/>
  <g clip-path="url(#cpNi45NzM4NXw3MTMuMDI2fDIwOS4yMjd8Ni45NzM4NQ==)">
    <text x="560.74" y="181.62" style="font-size: 9.96px; fill: #AF0DC7; font-family: Liberation Sans;" textLength="34.30px" lengthAdjust="spacingAndGlyphs">SoptSC</text>
  </g>
  <polyline points="525.93,205.63 558.67,205.63 558.58,205.62 558.93,205.61 559.27,205.54 559.59,205.42 559.89,205.24 560.16,205.02 560.39,204.76 560.58,204.47 560.72,204.15 560.80,203.81 560.83,203.47 560.83,203.47 560.83,193.71 560.83,193.71 560.80,193.37 560.72,193.03 560.58,192.71 560.39,192.41 560.16,192.15 559.89,191.93 559.59,191.76 559.27,191.64 558.93,191.57 558.67,191.55 525.93,191.55 526.19,191.57 525.84,191.55 525.49,191.60 525.16,191.69 524.85,191.84 524.56,192.04 524.31,192.28 524.10,192.56 523.94,192.87 523.83,193.19 523.77,193.54 523.77,193.71 523.77,203.47 523.77,203.29 523.77,203.64 523.83,203.98 523.94,204.31 524.10,204.62 524.31,204.90 524.56,205.14 524.85,205.34 525.16,205.49 525.49,205.58 525.84,205.62 " style="stroke-width: 0.53; stroke: #AF0DC7; fill: #FFFFFF;" clip-path="url(#cpNi45NzM4NXw3MTMuMDI2fDIwOS4yMjd8Ni45NzM4NQ==)"/>
  <g clip-path="url(#cpNi45NzM4NXw3MTMuMDI2fDIwOS4yMjd8Ni45NzM4NQ==)">
    <text x="527.37" y="202.03" style="font-size: 9.96px; fill: #AF0DC7; font-family: Liberation Sans;" textLength="29.86px" lengthAdjust="spacingAndGlyphs">scTDA</text>
  </g>
  <polyline points="459.54,139.89 511.66,139.89 511.57,139.89 511.92,139.87 512.26,139.80 512.58,139.68 512.89,139.51 513.15,139.29 513.39,139.03 513.57,138.73 513.71,138.41 513.79,138.08 513.82,137.73 513.82,137.73 513.82,127.97 513.82,127.97 513.79,127.63 513.71,127.29 513.57,126.97 513.39,126.68 513.15,126.42 512.89,126.20 512.58,126.02 512.26,125.90 511.92,125.83 511.66,125.81 459.54,125.81 459.80,125.83 459.46,125.82 459.11,125.86 458.78,125.96 458.46,126.10 458.18,126.30 457.93,126.54 457.72,126.82 457.56,127.13 457.45,127.46 457.39,127.80 457.38,127.97 457.38,137.73 457.39,137.56 457.39,137.90 457.45,138.25 457.56,138.58 457.72,138.88 457.93,139.16 458.18,139.40 458.46,139.60 458.78,139.75 459.11,139.85 459.46,139.89 " style="stroke-width: 0.53; stroke: #5ECD2E; fill: #FFFFFF;" clip-path="url(#cpNi45NzM4NXw3MTMuMDI2fDIwOS4yMjd8Ni45NzM4NQ==)"/>
  <g clip-path="url(#cpNi45NzM4NXw3MTMuMDI2fDIwOS4yMjd8Ni45NzM4NQ==)">
    <text x="460.98" y="136.29" style="font-size: 9.96px; fill: #5ECD2E; font-family: Liberation Sans;" textLength="49.24px" lengthAdjust="spacingAndGlyphs">k-branches</text>
  </g>
  <polyline points="51.91,180.82 100.71,180.82 100.63,180.81 100.97,180.80 101.31,180.73 101.64,180.61 101.94,180.43 102.21,180.21 102.44,179.95 102.63,179.66 102.76,179.34 102.85,179.00 102.87,178.66 102.87,178.66 102.87,168.90 102.87,168.90 102.85,168.55 102.76,168.22 102.63,167.90 102.44,167.60 102.21,167.34 101.94,167.12 101.64,166.95 101.31,166.83 100.97,166.76 100.71,166.74 51.91,166.74 52.17,166.76 51.83,166.74 51.48,166.78 51.15,166.88 50.83,167.03 50.55,167.23 50.30,167.47 50.09,167.75 49.92,168.05 49.81,168.38 49.76,168.73 49.75,168.90 49.75,178.66 49.76,178.48 49.76,178.83 49.81,179.17 49.92,179.50 50.09,179.81 50.30,180.09 50.55,180.33 50.83,180.53 51.15,180.68 51.48,180.77 51.83,180.81 " style="stroke-width: 0.53; stroke: #5ECD2E; fill: #FFFFFF;" clip-path="url(#cpNi45NzM4NXw3MTMuMDI2fDIwOS4yMjd8Ni45NzM4NQ==)"/>
  <g clip-path="url(#cpNi45NzM4NXw3MTMuMDI2fDIwOS4yMjd8Ni45NzM4NQ==)">
    <text x="53.35" y="177.22" style="font-size: 9.96px; fill: #5ECD2E; font-family: Liberation Sans;" textLength="45.92px" lengthAdjust="spacingAndGlyphs">Monocle 1</text>
  </g>
  <polyline points="387.40,163.46 433.99,163.46 433.91,163.45 434.25,163.44 434.59,163.37 434.92,163.25 435.22,163.07 435.49,162.85 435.72,162.59 435.91,162.30 436.04,161.98 436.12,161.64 436.15,161.30 436.15,161.30 436.15,151.54 436.15,151.54 436.12,151.19 436.04,150.86 435.91,150.54 435.72,150.24 435.49,149.98 435.22,149.76 434.92,149.59 434.59,149.47 434.25,149.40 433.99,149.38 387.40,149.38 387.66,149.40 387.31,149.38 386.97,149.42 386.63,149.52 386.32,149.67 386.03,149.87 385.78,150.11 385.57,150.39 385.41,150.69 385.30,151.02 385.24,151.37 385.24,151.54 385.24,161.30 385.24,161.12 385.24,161.47 385.30,161.81 385.41,162.14 385.57,162.45 385.78,162.73 386.03,162.97 386.32,163.17 386.63,163.32 386.97,163.41 387.31,163.45 " style="stroke-width: 0.53; stroke: #AF0DC7; fill: #FFFFFF;" clip-path="url(#cpNi45NzM4NXw3MTMuMDI2fDIwOS4yMjd8Ni45NzM4NQ==)"/>
  <g clip-path="url(#cpNi45NzM4NXw3MTMuMDI2fDIwOS4yMjd8Ni45NzM4NQ==)">
    <text x="388.84" y="159.86" style="font-size: 9.96px; fill: #AF0DC7; font-family: Liberation Sans;" textLength="43.72px" lengthAdjust="spacingAndGlyphs">DeLorean</text>
  </g>
  <polyline points="633.92,179.61 678.28,179.61 678.20,179.61 678.55,179.60 678.89,179.53 679.21,179.40 679.51,179.23 679.78,179.01 680.01,178.75 680.20,178.46 680.33,178.14 680.42,177.80 680.44,177.45 680.44,177.45 680.44,167.70 680.44,167.70 680.42,167.35 680.33,167.01 680.20,166.69 680.01,166.40 679.78,166.14 679.51,165.92 679.21,165.75 678.89,165.62 678.55,165.55 678.28,165.54 633.92,165.54 634.18,165.55 633.83,165.54 633.49,165.58 633.15,165.68 632.84,165.83 632.55,166.02 632.30,166.27 632.09,166.54 631.93,166.85 631.82,167.18 631.77,167.52 631.76,167.70 631.76,177.45 631.77,177.28 631.77,177.63 631.82,177.97 631.93,178.30 632.09,178.61 632.30,178.89 632.55,179.13 632.84,179.32 633.15,179.47 633.49,179.57 633.83,179.61 " style="stroke-width: 0.53; stroke: #FF8821; fill: #FFFFFF;" clip-path="url(#cpNi45NzM4NXw3MTMuMDI2fDIwOS4yMjd8Ni45NzM4NQ==)"/>
  <g clip-path="url(#cpNi45NzM4NXw3MTMuMDI2fDIwOS4yMjd8Ni45NzM4NQ==)">
    <text x="635.36" y="176.01" style="font-size: 9.96px; fill: #FF8821; font-family: Liberation Sans;" textLength="41.48px" lengthAdjust="spacingAndGlyphs">CALISTA</text>
  </g>
  <polyline points="489.34,97.00 538.14,97.00 538.06,97.00 538.40,96.99 538.74,96.92 539.07,96.80 539.37,96.62 539.64,96.40 539.87,96.14 540.05,95.85 540.19,95.53 540.27,95.19 540.30,94.84 540.30,94.84 540.30,85.09 540.30,85.09 540.27,84.74 540.19,84.41 540.05,84.09 539.87,83.79 539.64,83.53 539.37,83.31 539.07,83.14 538.74,83.01 538.40,82.95 538.14,82.93 489.34,82.93 489.60,82.95 489.25,82.93 488.91,82.97 488.57,83.07 488.26,83.22 487.97,83.42 487.72,83.66 487.52,83.94 487.35,84.24 487.24,84.57 487.19,84.92 487.18,85.09 487.18,94.84 487.19,94.67 487.19,95.02 487.24,95.36 487.35,95.69 487.52,96.00 487.72,96.28 487.97,96.52 488.26,96.72 488.57,96.86 488.91,96.96 489.25,97.00 " style="stroke-width: 0.53; stroke: #5ECD2E; fill: #FFFFFF;" clip-path="url(#cpNi45NzM4NXw3MTMuMDI2fDIwOS4yMjd8Ni45NzM4NQ==)"/>
  <g clip-path="url(#cpNi45NzM4NXw3MTMuMDI2fDIwOS4yMjd8Ni45NzM4NQ==)">
    <text x="490.78" y="93.40" style="font-size: 9.96px; fill: #5ECD2E; font-family: Liberation Sans;" textLength="45.92px" lengthAdjust="spacingAndGlyphs">Monocle 2</text>
  </g>
  <polyline points="266.54,181.52 326.41,181.52 326.32,181.52 326.67,181.50 327.01,181.43 327.34,181.31 327.64,181.14 327.91,180.92 328.14,180.66 328.32,180.36 328.46,180.04 328.54,179.70 328.57,179.36 328.57,179.36 328.57,169.60 328.57,169.60 328.54,169.26 328.46,168.92 328.32,168.60 328.14,168.31 327.91,168.05 327.64,167.83 327.34,167.65 327.01,167.53 326.67,167.46 326.41,167.44 266.54,167.44 266.80,167.46 266.45,167.45 266.11,167.49 265.77,167.58 265.46,167.73 265.17,167.93 264.92,168.17 264.71,168.45 264.55,168.76 264.44,169.09 264.39,169.43 264.38,169.60 264.38,179.36 264.39,179.18 264.39,179.53 264.44,179.88 264.55,180.20 264.71,180.51 264.92,180.79 265.17,181.03 265.46,181.23 265.77,181.38 266.11,181.47 266.45,181.52 " style="stroke-width: 0.53; stroke: #AF0DC7; fill: #FFFFFF;" clip-path="url(#cpNi45NzM4NXw3MTMuMDI2fDIwOS4yMjd8Ni45NzM4NQ==)"/>
  <g clip-path="url(#cpNi45NzM4NXw3MTMuMDI2fDIwOS4yMjd8Ni45NzM4NQ==)">
    <text x="267.98" y="177.92" style="font-size: 9.96px; fill: #AF0DC7; font-family: Liberation Sans;" textLength="56.99px" lengthAdjust="spacingAndGlyphs">gpseudotime</text>
  </g>
  <polyline points="448.26,161.51 484.87,161.51 484.78,161.51 485.13,161.50 485.47,161.43 485.80,161.31 486.10,161.13 486.37,160.91 486.60,160.65 486.78,160.36 486.92,160.04 487.00,159.70 487.03,159.35 487.03,159.35 487.03,149.60 487.03,149.60 487.00,149.25 486.92,148.92 486.78,148.60 486.60,148.30 486.37,148.04 486.10,147.82 485.80,147.65 485.47,147.52 485.13,147.45 484.87,147.44 448.26,147.44 448.52,147.45 448.17,147.44 447.83,147.48 447.49,147.58 447.18,147.73 446.89,147.93 446.64,148.17 446.43,148.44 446.27,148.75 446.16,149.08 446.10,149.43 446.10,149.60 446.10,159.35 446.10,159.18 446.10,159.53 446.16,159.87 446.27,160.20 446.43,160.51 446.64,160.79 446.89,161.03 447.18,161.22 447.49,161.37 447.83,161.47 448.17,161.51 " style="stroke-width: 0.53; stroke: #AF0DC7; fill: #FFFFFF;" clip-path="url(#cpNi45NzM4NXw3MTMuMDI2fDIwOS4yMjd8Ni45NzM4NQ==)"/>
  <g clip-path="url(#cpNi45NzM4NXw3MTMuMDI2fDIwOS4yMjd8Ni45NzM4NQ==)">
    <text x="449.70" y="157.91" style="font-size: 9.96px; fill: #AF0DC7; font-family: Liberation Sans;" textLength="33.73px" lengthAdjust="spacingAndGlyphs">SCENT</text>
  </g>
  <polyline points="59.22,202.84 112.44,202.84 112.35,202.83 112.70,202.82 113.04,202.75 113.37,202.63 113.67,202.45 113.94,202.23 114.17,201.97 114.35,201.68 114.49,201.36 114.57,201.02 114.60,200.68 114.60,200.68 114.60,190.92 114.60,190.92 114.57,190.57 114.49,190.24 114.35,189.92 114.17,189.62 113.94,189.36 113.67,189.14 113.37,188.97 113.04,188.85 112.70,188.78 112.44,188.76 59.22,188.76 59.48,188.78 59.13,188.76 58.79,188.80 58.46,188.90 58.14,189.05 57.86,189.25 57.60,189.49 57.40,189.77 57.23,190.07 57.12,190.40 57.07,190.75 57.06,190.92 57.06,200.68 57.07,200.50 57.07,200.85 57.12,201.19 57.23,201.52 57.40,201.83 57.60,202.11 57.86,202.35 58.14,202.55 58.46,202.70 58.79,202.79 59.13,202.83 " style="stroke-width: 0.53; stroke: #AF0DC7; fill: #FFFFFF;" clip-path="url(#cpNi45NzM4NXw3MTMuMDI2fDIwOS4yMjd8Ni45NzM4NQ==)"/>
  <g clip-path="url(#cpNi45NzM4NXw3MTMuMDI2fDIwOS4yMjd8Ni45NzM4NQ==)">
    <text x="60.66" y="199.24" style="font-size: 9.96px; fill: #AF0DC7; font-family: Liberation Sans;" textLength="50.34px" lengthAdjust="spacingAndGlyphs">Wanderlust</text>
  </g>
  <polyline points="239.69,204.17 271.32,204.17 271.24,204.16 271.58,204.15 271.92,204.08 272.25,203.96 272.55,203.78 272.82,203.56 273.05,203.30 273.24,203.01 273.37,202.69 273.46,202.35 273.48,202.01 273.48,202.01 273.48,192.25 273.48,192.25 273.46,191.90 273.37,191.57 273.24,191.25 273.05,190.95 272.82,190.69 272.55,190.47 272.25,190.30 271.92,190.18 271.58,190.11 271.32,190.09 239.69,190.09 239.95,190.11 239.60,190.09 239.26,190.13 238.92,190.23 238.61,190.38 238.32,190.58 238.07,190.82 237.86,191.10 237.70,191.40 237.59,191.73 237.53,192.08 237.53,192.25 237.53,202.01 237.53,201.83 237.53,202.18 237.59,202.52 237.70,202.85 237.86,203.16 238.07,203.44 238.32,203.68 238.61,203.88 238.92,204.02 239.26,204.12 239.60,204.16 " style="stroke-width: 0.53; stroke: #AF0DC7; fill: #FFFFFF;" clip-path="url(#cpNi45NzM4NXw3MTMuMDI2fDIwOS4yMjd8Ni45NzM4NQ==)"/>
  <g clip-path="url(#cpNi45NzM4NXw3MTMuMDI2fDIwOS4yMjd8Ni45NzM4NQ==)">
    <text x="241.13" y="200.57" style="font-size: 9.96px; fill: #AF0DC7; font-family: Liberation Sans;" textLength="28.76px" lengthAdjust="spacingAndGlyphs">NBOR</text>
  </g>
  <polyline points="515.03,118.01 547.22,118.01 547.13,118.01 547.48,117.99 547.82,117.92 548.14,117.80 548.44,117.63 548.71,117.41 548.94,117.15 549.13,116.85 549.27,116.53 549.35,116.20 549.38,115.85 549.38,115.85 549.38,106.09 549.38,106.09 549.35,105.75 549.27,105.41 549.13,105.09 548.94,104.80 548.71,104.54 548.44,104.32 548.14,104.14 547.82,104.02 547.48,103.95 547.22,103.93 515.03,103.93 515.29,103.95 514.94,103.94 514.60,103.98 514.26,104.07 513.95,104.22 513.66,104.42 513.41,104.66 513.20,104.94 513.04,105.25 512.93,105.58 512.87,105.92 512.87,106.09 512.87,115.85 512.87,115.68 512.87,116.02 512.93,116.37 513.04,116.70 513.20,117.00 513.41,117.28 513.66,117.52 513.95,117.72 514.26,117.87 514.60,117.97 514.94,118.01 " style="stroke-width: 0.53; stroke: #5ECD2E; fill: #FFFFFF;" clip-path="url(#cpNi45NzM4NXw3MTMuMDI2fDIwOS4yMjd8Ni45NzM4NQ==)"/>
  <g clip-path="url(#cpNi45NzM4NXw3MTMuMDI2fDIwOS4yMjd8Ni45NzM4NQ==)">
    <text x="516.47" y="114.41" style="font-size: 9.96px; fill: #5ECD2E; font-family: Liberation Sans;" textLength="29.31px" lengthAdjust="spacingAndGlyphs">TASIC</text>
  </g>
  <polyline points="602.05,157.66 646.42,157.66 646.34,157.66 646.68,157.65 647.02,157.58 647.35,157.45 647.65,157.28 647.92,157.06 648.15,156.80 648.34,156.51 648.47,156.19 648.56,155.85 648.58,155.50 648.58,155.50 648.58,145.75 648.58,145.75 648.56,145.40 648.47,145.06 648.34,144.74 648.15,144.45 647.92,144.19 647.65,143.97 647.35,143.80 647.02,143.67 646.68,143.60 646.42,143.59 602.05,143.59 602.31,143.60 601.96,143.59 601.62,143.63 601.28,143.73 600.97,143.88 600.68,144.07 600.43,144.32 600.22,144.59 600.06,144.90 599.95,145.23 599.90,145.57 599.89,145.75 599.89,155.50 599.90,155.33 599.90,155.68 599.95,156.02 600.06,156.35 600.22,156.66 600.43,156.94 600.68,157.18 600.97,157.37 601.28,157.52 601.62,157.62 601.96,157.66 " style="stroke-width: 0.53; stroke: #5ECD2E; fill: #FFFFFF;" clip-path="url(#cpNi45NzM4NXw3MTMuMDI2fDIwOS4yMjd8Ni45NzM4NQ==)"/>
  <g clip-path="url(#cpNi45NzM4NXw3MTMuMDI2fDIwOS4yMjd8Ni45NzM4NQ==)">
    <text x="603.49" y="154.06" style="font-size: 9.96px; fill: #5ECD2E; font-family: Liberation Sans;" textLength="41.49px" lengthAdjust="spacingAndGlyphs">p-Creode</text>
  </g>
  <polyline points="516.25,150.83 558.41,150.83 558.32,150.83 558.67,150.82 559.01,150.75 559.34,150.62 559.64,150.45 559.91,150.23 560.14,149.97 560.32,149.68 560.46,149.36 560.54,149.02 560.57,148.67 560.57,148.67 560.57,138.92 560.57,138.92 560.54,138.57 560.46,138.23 560.32,137.91 560.14,137.62 559.91,137.36 559.64,137.14 559.34,136.97 559.01,136.84 558.67,136.77 558.41,136.76 516.25,136.76 516.51,136.77 516.16,136.76 515.82,136.80 515.48,136.90 515.17,137.05 514.88,137.24 514.63,137.48 514.42,137.76 514.26,138.07 514.15,138.40 514.10,138.74 514.09,138.92 514.09,148.67 514.10,148.50 514.10,148.85 514.15,149.19 514.26,149.52 514.42,149.83 514.63,150.10 514.88,150.34 515.17,150.54 515.48,150.69 515.82,150.79 516.16,150.83 " style="stroke-width: 0.53; stroke: #5ECD2E; fill: #FFFFFF;" clip-path="url(#cpNi45NzM4NXw3MTMuMDI2fDIwOS4yMjd8Ni45NzM4NQ==)"/>
  <g clip-path="url(#cpNi45NzM4NXw3MTMuMDI2fDIwOS4yMjd8Ni45NzM4NQ==)">
    <text x="517.69" y="147.23" style="font-size: 9.96px; fill: #5ECD2E; font-family: Liberation Sans;" textLength="39.28px" lengthAdjust="spacingAndGlyphs">slingshot</text>
  </g>
  <polyline points="498.46,166.85 537.30,166.85 537.21,166.84 537.56,166.83 537.90,166.76 538.23,166.64 538.53,166.46 538.80,166.24 539.03,165.98 539.21,165.69 539.35,165.37 539.43,165.03 539.46,164.69 539.46,164.69 539.46,154.93 539.46,154.93 539.43,154.58 539.35,154.25 539.21,153.93 539.03,153.63 538.80,153.37 538.53,153.15 538.23,152.98 537.90,152.86 537.56,152.79 537.30,152.77 498.46,152.77 498.72,152.79 498.37,152.77 498.03,152.81 497.69,152.91 497.38,153.06 497.09,153.26 496.84,153.50 496.64,153.78 496.47,154.08 496.36,154.41 496.31,154.76 496.30,154.93 496.30,164.69 496.31,164.51 496.31,164.86 496.36,165.20 496.47,165.53 496.64,165.84 496.84,166.12 497.09,166.36 497.38,166.56 497.69,166.71 498.03,166.80 498.37,166.84 " style="stroke-width: 0.53; stroke: #CFBF00; fill: #FFFFFF;" clip-path="url(#cpNi45NzM4NXw3MTMuMDI2fDIwOS4yMjd8Ni45NzM4NQ==)"/>
  <g clip-path="url(#cpNi45NzM4NXw3MTMuMDI2fDIwOS4yMjd8Ni45NzM4NQ==)">
    <text x="499.90" y="163.25" style="font-size: 9.96px; fill: #CFBF00; font-family: Liberation Sans;" textLength="35.96px" lengthAdjust="spacingAndGlyphs">GPfates</text>
  </g>
  <polyline points="471.43,205.63 503.08,205.63 502.99,205.62 503.34,205.61 503.68,205.54 504.00,205.42 504.31,205.24 504.58,205.02 504.81,204.76 504.99,204.47 505.13,204.15 505.21,203.81 505.24,203.47 505.24,203.47 505.24,193.71 505.24,193.71 505.21,193.37 505.13,193.03 504.99,192.71 504.81,192.41 504.58,192.15 504.31,191.93 504.00,191.76 503.68,191.64 503.34,191.57 503.08,191.55 471.43,191.55 471.69,191.57 471.35,191.55 471.00,191.60 470.67,191.69 470.35,191.84 470.07,192.04 469.82,192.28 469.61,192.56 469.45,192.87 469.34,193.19 469.28,193.54 469.27,193.71 469.27,203.47 469.28,203.29 469.28,203.64 469.34,203.98 469.45,204.31 469.61,204.62 469.82,204.90 470.07,205.14 470.35,205.34 470.67,205.49 471.00,205.58 471.35,205.62 " style="stroke-width: 0.53; stroke: #5ECD2E; fill: #FFFFFF;" clip-path="url(#cpNi45NzM4NXw3MTMuMDI2fDIwOS4yMjd8Ni45NzM4NQ==)"/>
  <g clip-path="url(#cpNi45NzM4NXw3MTMuMDI2fDIwOS4yMjd8Ni45NzM4NQ==)">
    <text x="472.87" y="202.03" style="font-size: 9.96px; fill: #5ECD2E; font-family: Liberation Sans;" textLength="28.77px" lengthAdjust="spacingAndGlyphs">SLICE</text>
  </g>
  <polyline points="491.57,184.20 529.30,184.20 529.21,184.19 529.56,184.18 529.90,184.11 530.22,183.99 530.52,183.81 530.79,183.59 531.02,183.33 531.21,183.04 531.34,182.72 531.43,182.38 531.46,182.04 531.46,182.04 531.46,172.28 531.46,172.28 531.43,171.93 531.34,171.60 531.21,171.28 531.02,170.98 530.79,170.72 530.52,170.50 530.22,170.33 529.90,170.21 529.56,170.14 529.30,170.12 491.57,170.12 491.83,170.14 491.48,170.12 491.13,170.16 490.80,170.26 490.49,170.41 490.20,170.61 489.95,170.85 489.74,171.13 489.58,171.43 489.47,171.76 489.41,172.11 489.41,172.28 489.41,182.04 489.41,181.86 489.41,182.21 489.47,182.55 489.58,182.88 489.74,183.19 489.95,183.47 490.20,183.71 490.49,183.91 490.80,184.06 491.13,184.15 491.48,184.19 " style="stroke-width: 0.53; stroke: #AF0DC7; fill: #FFFFFF;" clip-path="url(#cpNi45NzM4NXw3MTMuMDI2fDIwOS4yMjd8Ni45NzM4NQ==)"/>
  <g clip-path="url(#cpNi45NzM4NXw3MTMuMDI2fDIwOS4yMjd8Ni45NzM4NQ==)">
    <text x="493.01" y="180.60" style="font-size: 9.96px; fill: #AF0DC7; font-family: Liberation Sans;" textLength="34.85px" lengthAdjust="spacingAndGlyphs">topslam</text>
  </g>
  <defs>
    <clipPath id="cpMHw3MjB8MjUyfDA=">
      <rect x="0.00" y="0.00" width="720.00" height="252.00"/>
    </clipPath>
  </defs>
  <polyline points="6.97,209.23 713.03,209.23 " style="stroke-width: 1.07; stroke-linecap: square;" clip-path="url(#cpMHw3MjB8MjUyfDA=)"/>
  <polyline points="39.07,212.71 39.07,209.23 " style="stroke-width: 1.07; stroke-linecap: butt;" clip-path="url(#cpMHw3MjB8MjUyfDA=)"/>
  <polyline points="190.12,212.71 190.12,209.23 " style="stroke-width: 1.07; stroke-linecap: butt;" clip-path="url(#cpMHw3MjB8MjUyfDA=)"/>
  <polyline points="341.17,212.71 341.17,209.23 " style="stroke-width: 1.07; stroke-linecap: butt;" clip-path="url(#cpMHw3MjB8MjUyfDA=)"/>
  <polyline points="492.64,212.71 492.64,209.23 " style="stroke-width: 1.07; stroke-linecap: butt;" clip-path="url(#cpMHw3MjB8MjUyfDA=)"/>
  <polyline points="643.69,212.71 643.69,209.23 " style="stroke-width: 1.07; stroke-linecap: butt;" clip-path="url(#cpMHw3MjB8MjUyfDA=)"/>
  <g clip-path="url(#cpMHw3MjB8MjUyfDA=)">
    <text x="25.72" y="223.95" style="font-size: 12.00px; font-family: Liberation Sans;" textLength="26.70px" lengthAdjust="spacingAndGlyphs">2014</text>
  </g>
  <g clip-path="url(#cpMHw3MjB8MjUyfDA=)">
    <text x="176.77" y="223.95" style="font-size: 12.00px; font-family: Liberation Sans;" textLength="26.70px" lengthAdjust="spacingAndGlyphs">2015</text>
  </g>
  <g clip-path="url(#cpMHw3MjB8MjUyfDA=)">
    <text x="327.82" y="223.95" style="font-size: 12.00px; font-family: Liberation Sans;" textLength="26.70px" lengthAdjust="spacingAndGlyphs">2016</text>
  </g>
  <g clip-path="url(#cpMHw3MjB8MjUyfDA=)">
    <text x="479.29" y="223.95" style="font-size: 12.00px; font-family: Liberation Sans;" textLength="26.70px" lengthAdjust="spacingAndGlyphs">2017</text>
  </g>
  <g clip-path="url(#cpMHw3MjB8MjUyfDA=)">
    <text x="630.34" y="223.95" style="font-size: 12.00px; font-family: Liberation Sans;" textLength="26.70px" lengthAdjust="spacingAndGlyphs">2018</text>
  </g>
  <g clip-path="url(#cpMHw3MjB8MjUyfDA=)">
    <text x="312.13" y="240.80" style="font-size: 14.00px; font-family: Liberation Sans;" textLength="95.74px" lengthAdjust="spacingAndGlyphs">Publishing date</text>
  </g>
</svg>
