<?xml version="1.0" encoding="UTF-8"?>
<svg xmlns="http://www.w3.org/2000/svg" xmlns:xlink="http://www.w3.org/1999/xlink" viewBox="0 0 720.00 252.00">
  <defs>
    <style type="text/css"><![CDATA[
    line, polyline, path, rect, circle {
      fill: none;
      stroke: #000000;
      stroke-linecap: round;
      stroke-linejoin: round;
      stroke-miterlimit: 10.00;
    }
  ]]></style>
  </defs>
  <line x1="612.84" y1="203.23" x2="612.84" y2="209.23" style="stroke-width: 1.07; stroke: #CFBF00;" clip-path="url(#cpNi45NzM4NXw3MTMuMDI2fDIwOS4yMjd8Ni45NzM4NQ==)"/>
  <line x1="552.65" y1="182.89" x2="552.65" y2="209.23" style="stroke-width: 1.07; stroke: #CFBF00;" clip-path="url(#cpNi45NzM4NXw3MTMuMDI2fDIwOS4yMjd8Ni45NzM4NQ==)"/>
  <line x1="481.48" y1="184.02" x2="481.48" y2="209.23" style="stroke-width: 1.07; stroke: #AF0DC7;" clip-path="url(#cpNi45NzM4NXw3MTMuMDI2fDIwOS4yMjd8Ni45NzM4NQ==)"/>
  <line x1="78.61" y1="202.85" x2="78.61" y2="209.23" style="stroke-width: 1.07; stroke: #5ECD2E;" clip-path="url(#cpNi45NzM4NXw3MTMuMDI2fDIwOS4yMjd8Ni45NzM4NQ==)"/>
  <line x1="604.93" y1="181.69" x2="604.93" y2="209.22" style="stroke-width: 1.07; stroke: #AF0DC7;" clip-path="url(#cpNi45NzM4NXw3MTMuMDI2fDIwOS4yMjd8Ni45NzM4NQ==)"/>
  <line x1="418.21" y1="184.68" x2="418.21" y2="209.22" style="stroke-width: 1.07; stroke: #5ECD2E;" clip-path="url(#cpNi45NzM4NXw3MTMuMDI2fDIwOS4yMjd8Ni45NzM4NQ==)"/>
  <line x1="492.90" y1="161.05" x2="492.90" y2="209.22" style="stroke-width: 1.07; stroke: #AF0DC7;" clip-path="url(#cpNi45NzM4NXw3MTMuMDI2fDIwOS4yMjd8Ni45NzM4NQ==)"/>
  <line x1="568.02" y1="122.97" x2="568.02" y2="209.22" style="stroke-width: 1.07; stroke: #5ECD2E;" clip-path="url(#cpNi45NzM4NXw3MTMuMDI2fDIwOS4yMjd8Ni45NzM4NQ==)"/>
  <line x1="561.43" y1="161.47" x2="561.43" y2="209.22" style="stroke-width: 1.07; stroke: #5ECD2E;" clip-path="url(#cpNi45NzM4NXw3MTMuMDI2fDIwOS4yMjd8Ni45NzM4NQ==)"/>
  <line x1="210.85" y1="205.13" x2="210.85" y2="209.22" style="stroke-width: 1.07; stroke: #5ECD2E;" clip-path="url(#cpNi45NzM4NXw3MTMuMDI2fDIwOS4yMjd8Ni45NzM4NQ==)"/>
  <line x1="403.27" y1="205.63" x2="403.27" y2="209.22" style="stroke-width: 1.07; stroke: #FF8821;" clip-path="url(#cpNi45NzM4NXw3MTMuMDI2fDIwOS4yMjd8Ni45NzM4NQ==)"/>
  <line x1="666.87" y1="183.70" x2="666.87" y2="209.22" style="stroke-width: 1.07; stroke: #AF0DC7;" clip-path="url(#cpNi45NzM4NXw3MTMuMDI2fDIwOS4yMjd8Ni45NzM4NQ==)"/>
  <line x1="611.08" y1="107.07" x2="611.08" y2="209.22" style="stroke-width: 1.07; stroke: #AF0DC7;" clip-path="url(#cpNi45NzM4NXw3MTMuMDI2fDIwOS4yMjd8Ni45NzM4NQ==)"/>
  <line x1="307.06" y1="183.49" x2="307.06" y2="209.22" style="stroke-width: 1.07; stroke: #AF0DC7;" clip-path="url(#cpNi45NzM4NXw3MTMuMDI2fDIwOS4yMjd8Ni45NzM4NQ==)"/>
  <line x1="376.47" y1="177.30" x2="376.47" y2="209.22" style="stroke-width: 1.07; stroke: #0073D7;" clip-path="url(#cpNi45NzM4NXw3MTMuMDI2fDIwOS4yMjd8Ni45NzM4NQ==)"/>
  <line x1="198.55" y1="183.46" x2="198.55" y2="209.22" style="stroke-width: 1.07; stroke: #5ECD2E;" clip-path="url(#cpNi45NzM4NXw3MTMuMDI2fDIwOS4yMjd8Ni45NzM4NQ==)"/>
  <line x1="435.35" y1="163.93" x2="435.35" y2="209.22" style="stroke-width: 1.07; stroke: #5ECD2E;" clip-path="url(#cpNi45NzM4NXw3MTMuMDI2fDIwOS4yMjd8Ni45NzM4NQ==)"/>
  <line x1="660.28" y1="135.90" x2="660.28" y2="209.22" style="stroke-width: 1.07; stroke: #5ECD2E;" clip-path="url(#cpNi45NzM4NXw3MTMuMDI2fDIwOS4yMjd8Ni45NzM4NQ==)"/>
  <line x1="547.38" y1="142.49" x2="547.38" y2="209.22" style="stroke-width: 1.07; stroke: #CFBF00;" clip-path="url(#cpNi45NzM4NXw3MTMuMDI2fDIwOS4yMjd8Ni45NzM4NQ==)"/>
  <line x1="407.67" y1="125.96" x2="407.67" y2="209.22" style="stroke-width: 1.07; stroke: #AF0DC7;" clip-path="url(#cpNi45NzM4NXw3MTMuMDI2fDIwOS4yMjd8Ni45NzM4NQ==)"/>
  <line x1="638.76" y1="161.19" x2="638.76" y2="209.22" style="stroke-width: 1.07; stroke: #FF8821;" clip-path="url(#cpNi45NzM4NXw3MTMuMDI2fDIwOS4yMjd8Ni45NzM4NQ==)"/>
  <line x1="88.71" y1="180.93" x2="88.71" y2="209.22" style="stroke-width: 1.07; stroke: #AF0DC7;" clip-path="url(#cpNi45NzM4NXw3MTMuMDI2fDIwOS4yMjd8Ni45NzM4NQ==)"/>
  <line x1="573.30" y1="204.52" x2="573.30" y2="209.22" style="stroke-width: 1.07; stroke: #AF0DC7;" clip-path="url(#cpNi45NzM4NXw3MTMuMDI2fDIwOS4yMjd8Ni45NzM4NQ==)"/>
  <line x1="413.38" y1="84.12" x2="413.38" y2="209.22" style="stroke-width: 1.07; stroke: #0073D7;" clip-path="url(#cpNi45NzM4NXw3MTMuMDI2fDIwOS4yMjd8Ni45NzM4NQ==)"/>
  <line x1="594.82" y1="140.90" x2="594.82" y2="209.21" style="stroke-width: 1.07; stroke: #39CCCC;" clip-path="url(#cpNi45NzM4NXw3MTMuMDI2fDIwOS4yMjd8Ni45NzM4NQ==)"/>
  <line x1="542.98" y1="105.78" x2="542.98" y2="209.21" style="stroke-width: 1.07; stroke: #5ECD2E;" clip-path="url(#cpNi45NzM4NXw3MTMuMDI2fDIwOS4yMjd8Ni45NzM4NQ==)"/>
  <line x1="651.94" y1="205.24" x2="651.94" y2="209.21" style="stroke-width: 1.07; stroke: #FF4237;" clip-path="url(#cpNi45NzM4NXw3MTMuMDI2fDIwOS4yMjd8Ni45NzM4NQ==)"/>
  <line x1="514.86" y1="202.70" x2="514.86" y2="209.21" style="stroke-width: 1.07; stroke: #5ECD2E;" clip-path="url(#cpNi45NzM4NXw3MTMuMDI2fDIwOS4yMjd8Ni45NzM4NQ==)"/>
  <line x1="439.30" y1="147.58" x2="439.30" y2="209.21" style="stroke-width: 1.07; stroke: #5ECD2E;" clip-path="url(#cpNi45NzM4NXw3MTMuMDI2fDIwOS4yMjd8Ni45NzM4NQ==)"/>
  <line x1="543.42" y1="24.65" x2="543.42" y2="209.21" style="stroke-width: 1.07; stroke: #5ECD2E;" clip-path="url(#cpNi45NzM4NXw3MTMuMDI2fDIwOS4yMjd8Ni45NzM4NQ==)"/>
  <line x1="602.29" y1="56.00" x2="602.29" y2="209.21" style="stroke-width: 1.07; stroke: #AF0DC7;" clip-path="url(#cpNi45NzM4NXw3MTMuMDI2fDIwOS4yMjd8Ni45NzM4NQ==)"/>
  <line x1="513.11" y1="65.76" x2="513.11" y2="209.21" style="stroke-width: 1.07; stroke: #5ECD2E;" clip-path="url(#cpNi45NzM4NXw3MTMuMDI2fDIwOS4yMjd8Ni45NzM4NQ==)"/>
  <line x1="597.02" y1="24.65" x2="597.02" y2="209.21" style="stroke-width: 1.07; stroke: #AF0DC7;" clip-path="url(#cpNi45NzM4NXw3MTMuMDI2fDIwOS4yMjd8Ni45NzM4NQ==)"/>
  <line x1="433.59" y1="104.94" x2="433.59" y2="209.21" style="stroke-width: 1.07; stroke: #AF0DC7;" clip-path="url(#cpNi45NzM4NXw3MTMuMDI2fDIwOS4yMjd8Ni45NzM4NQ==)"/>
  <line x1="460.39" y1="126.52" x2="460.39" y2="209.21" style="stroke-width: 1.07; stroke: #AF0DC7;" clip-path="url(#cpNi45NzM4NXw3MTMuMDI2fDIwOS4yMjd8Ni45NzM4NQ==)"/>
  <line x1="668.19" y1="114.27" x2="668.19" y2="209.21" style="stroke-width: 1.07; stroke: #CFBF00;" clip-path="url(#cpNi45NzM4NXw3MTMuMDI2fDIwOS4yMjd8Ni45NzM4NQ==)"/>
  <line x1="436.22" y1="45.67" x2="436.22" y2="209.21" style="stroke-width: 1.07; stroke: #AF0DC7;" clip-path="url(#cpNi45NzM4NXw3MTMuMDI2fDIwOS4yMjd8Ni45NzM4NQ==)"/>
  <line x1="364.61" y1="155.99" x2="364.61" y2="209.21" style="stroke-width: 1.07; stroke: #5ECD2E;" clip-path="url(#cpNi45NzM4NXw3MTMuMDI2fDIwOS4yMjd8Ni45NzM4NQ==)"/>
  <line x1="401.52" y1="24.65" x2="401.52" y2="209.21" style="stroke-width: 1.07; stroke: #AF0DC7;" clip-path="url(#cpNi45NzM4NXw3MTMuMDI2fDIwOS4yMjd8Ni45NzM4NQ==)"/>
  <line x1="312.33" y1="134.14" x2="312.33" y2="209.21" style="stroke-width: 1.07; stroke: #AF0DC7;" clip-path="url(#cpNi45NzM4NXw3MTMuMDI2fDIwOS4yMjd8Ni45NzM4NQ==)"/>
  <line x1="268.84" y1="204.96" x2="268.84" y2="209.21" style="stroke-width: 1.07; stroke: #AF0DC7;" clip-path="url(#cpNi45NzM4NXw3MTMuMDI2fDIwOS4yMjd8Ni45NzM4NQ==)"/>
  <line x1="613.71" y1="72.42" x2="613.71" y2="209.21" style="stroke-width: 1.07; stroke: #0073D7;" clip-path="url(#cpNi45NzM4NXw3MTMuMDI2fDIwOS4yMjd8Ni45NzM4NQ==)"/>
  <line x1="313.65" y1="112.26" x2="313.65" y2="209.21" style="stroke-width: 1.07; stroke: #AF0DC7;" clip-path="url(#cpNi45NzM4NXw3MTMuMDI2fDIwOS4yMjd8Ni45NzM4NQ==)"/>
  <line x1="482.79" y1="85.44" x2="482.79" y2="209.21" style="stroke-width: 1.07; stroke: #AF0DC7;" clip-path="url(#cpNi45NzM4NXw3MTMuMDI2fDIwOS4yMjd8Ni45NzM4NQ==)"/>
  <line x1="458.63" y1="24.65" x2="458.63" y2="209.21" style="stroke-width: 1.07; stroke: #5ECD2E;" clip-path="url(#cpNi45NzM4NXw3MTMuMDI2fDIwOS4yMjd8Ni45NzM4NQ==)"/>
  <line x1="617.23" y1="39.94" x2="617.23" y2="209.21" style="stroke-width: 1.07; stroke: #0073D7;" clip-path="url(#cpNi45NzM4NXw3MTMuMDI2fDIwOS4yMjd8Ni45NzM4NQ==)"/>
  <line x1="429.63" y1="63.44" x2="429.63" y2="209.21" style="stroke-width: 1.07; stroke: #CFBF00;" clip-path="url(#cpNi45NzM4NXw3MTMuMDI2fDIwOS4yMjd8Ni45NzM4NQ==)"/>
  <line x1="586.48" y1="86.12" x2="586.48" y2="209.21" style="stroke-width: 1.07; stroke: #AF0DC7;" clip-path="url(#cpNi45NzM4NXw3MTMuMDI2fDIwOS4yMjd8Ni45NzM4NQ==)"/>
  <line x1="539.47" y1="45.56" x2="539.47" y2="209.21" style="stroke-width: 1.07; stroke: #AF0DC7;" clip-path="url(#cpNi45NzM4NXw3MTMuMDI2fDIwOS4yMjd8Ni45NzM4NQ==)"/>
  <defs>
    <clipPath id="cpNi45NzM4NXw3MTMuMDI2fDIwOS4yMjd8Ni45NzM4NQ==">
      <rect x="6.97" y="6.97" width="706.05" height="202.25"/>
    </clipPath>
  </defs>
  <polyline points="520.60,45.56 558.33,45.56 558.25,45.56 558.59,45.54 558.93,45.47 559.26,45.35 559.56,45.18 559.83,44.96 560.06,44.70 560.25,44.40 560.38,44.08 560.46,43.75 560.49,43.40 560.49,43.40 560.49,33.65 560.49,33.65 560.46,33.30 560.38,32.96 560.25,32.64 560.06,32.35 559.83,32.09 559.56,31.87 559.26,31.69 558.93,31.57 558.59,31.50 558.33,31.49 520.60,31.49 520.86,31.50 520.52,31.49 520.17,31.53 519.84,31.63 519.52,31.77 519.24,31.97 518.99,32.21 518.78,32.49 518.62,32.80 518.51,33.13 518.45,33.47 518.44,33.65 518.44,43.40 518.45,43.23 518.45,43.57 518.51,43.92 518.62,44.25 518.78,44.55 518.99,44.83 519.24,45.07 519.52,45.27 519.84,45.42 520.17,45.52 520.52,45.56 " style="stroke-width: 0.53; stroke: #AF0DC7; fill: #FFFFFF;" clip-path="url(#cpNi45NzM4NXw3MTMuMDI2fDIwOS4yMjd8Ni45NzM4NQ==)"/>
  <g clip-path="url(#cpNi45NzM4NXw3MTMuMDI2fDIwOS4yMjd8Ni45NzM4NQ==)">
    <text x="522.04" y="41.96" style="font-size: 9.96px; fill: #AF0DC7; font-family: Liberation Sans;" textLength="34.85px" lengthAdjust="spacingAndGlyphs">topslam</text>
  </g>
  <polyline points="564.30,86.12 608.65,86.12 608.57,86.12 608.91,86.10 609.25,86.04 609.58,85.91 609.88,85.74 610.15,85.52 610.38,85.26 610.57,84.96 610.70,84.64 610.79,84.31 610.81,83.96 610.81,83.96 610.81,74.21 610.81,74.21 610.79,73.86 610.70,73.52 610.57,73.20 610.38,72.91 610.15,72.65 609.88,72.43 609.58,72.25 609.25,72.13 608.91,72.06 608.65,72.05 564.30,72.05 564.56,72.06 564.21,72.05 563.87,72.09 563.53,72.19 563.22,72.33 562.93,72.53 562.68,72.77 562.47,73.05 562.31,73.36 562.20,73.69 562.15,74.03 562.14,74.21 562.14,83.96 562.15,83.79 562.15,84.13 562.20,84.48 562.31,84.81 562.47,85.11 562.68,85.39 562.93,85.63 563.22,85.83 563.53,85.98 563.87,86.08 564.21,86.12 " style="stroke-width: 0.53; stroke: #AF0DC7; fill: #FFFFFF;" clip-path="url(#cpNi45NzM4NXw3MTMuMDI2fDIwOS4yMjd8Ni45NzM4NQ==)"/>
  <g clip-path="url(#cpNi45NzM4NXw3MTMuMDI2fDIwOS4yMjd8Ni45NzM4NQ==)">
    <text x="565.74" y="82.52" style="font-size: 9.96px; fill: #AF0DC7; font-family: Liberation Sans;" textLength="41.47px" lengthAdjust="spacingAndGlyphs">UNCURL</text>
  </g>
  <polyline points="410.50,63.44 448.77,63.44 448.68,63.44 449.03,63.42 449.37,63.35 449.70,63.23 450.00,63.06 450.27,62.84 450.50,62.58 450.68,62.28 450.82,61.96 450.90,61.63 450.93,61.28 450.93,61.28 450.93,51.52 450.93,51.52 450.90,51.18 450.82,50.84 450.68,50.52 450.50,50.23 450.27,49.97 450.00,49.75 449.70,49.57 449.37,49.45 449.03,49.38 448.77,49.36 410.50,49.36 410.76,49.38 410.41,49.37 410.06,49.41 409.73,49.51 409.42,49.65 409.13,49.85 408.88,50.09 408.67,50.37 408.51,50.68 408.40,51.01 408.34,51.35 408.34,51.52 408.34,61.28 408.34,61.11 408.34,61.45 408.40,61.80 408.51,62.13 408.67,62.43 408.88,62.71 409.13,62.95 409.42,63.15 409.73,63.30 410.06,63.40 410.41,63.44 " style="stroke-width: 0.53; stroke: #CFBF00; fill: #FFFFFF;" clip-path="url(#cpNi45NzM4NXw3MTMuMDI2fDIwOS4yMjd8Ni45NzM4NQ==)"/>
  <g clip-path="url(#cpNi45NzM4NXw3MTMuMDI2fDIwOS4yMjd8Ni45NzM4NQ==)">
    <text x="411.94" y="59.84" style="font-size: 9.96px; fill: #CFBF00; font-family: Liberation Sans;" textLength="35.39px" lengthAdjust="spacingAndGlyphs">SCOUP</text>
  </g>
  <polyline points="600.02,39.94 634.44,39.94 634.35,39.94 634.70,39.92 635.04,39.85 635.36,39.73 635.66,39.56 635.93,39.34 636.16,39.08 636.35,38.78 636.49,38.46 636.57,38.13 636.60,37.78 636.60,37.78 636.60,28.02 636.60,28.02 636.57,27.68 636.49,27.34 636.35,27.02 636.16,26.73 635.93,26.47 635.66,26.25 635.36,26.07 635.04,25.95 634.70,25.88 634.44,25.86 600.02,25.86 600.28,25.88 599.93,25.87 599.59,25.91 599.26,26.00 598.94,26.15 598.66,26.35 598.40,26.59 598.20,26.87 598.03,27.18 597.92,27.51 597.87,27.85 597.86,28.02 597.86,37.78 597.87,37.61 597.87,37.95 597.92,38.30 598.03,38.63 598.20,38.93 598.40,39.21 598.66,39.45 598.94,39.65 599.26,39.80 599.59,39.90 599.93,39.94 " style="stroke-width: 0.53; stroke: #0073D7; fill: #FFFFFF;" clip-path="url(#cpNi45NzM4NXw3MTMuMDI2fDIwOS4yMjd8Ni45NzM4NQ==)"/>
  <g clip-path="url(#cpNi45NzM4NXw3MTMuMDI2fDIwOS4yMjd8Ni45NzM4NQ==)">
    <text x="601.46" y="36.34" style="font-size: 9.96px; fill: #0073D7; font-family: Liberation Sans;" textLength="31.54px" lengthAdjust="spacingAndGlyphs">scanpy</text>
  </g>
  <polyline points="439.49,24.65 477.77,24.65 477.68,24.65 478.03,24.63 478.37,24.56 478.70,24.44 479.00,24.27 479.27,24.05 479.50,23.79 479.68,23.49 479.82,23.17 479.90,22.84 479.93,22.49 479.93,22.49 479.93,12.73 479.93,12.73 479.90,12.39 479.82,12.05 479.68,11.73 479.50,11.44 479.27,11.18 479.00,10.96 478.70,10.78 478.37,10.66 478.03,10.59 477.77,10.57 439.49,10.57 439.75,10.59 439.40,10.58 439.06,10.62 438.72,10.71 438.41,10.86 438.12,11.06 437.87,11.30 437.66,11.58 437.50,11.89 437.39,12.22 437.34,12.56 437.33,12.73 437.33,22.49 437.34,22.32 437.34,22.66 437.39,23.01 437.50,23.34 437.66,23.64 437.87,23.92 438.12,24.16 438.41,24.36 438.72,24.51 439.06,24.61 439.40,24.65 " style="stroke-width: 0.53; stroke: #5ECD2E; fill: #FFFFFF;" clip-path="url(#cpNi45NzM4NXw3MTMuMDI2fDIwOS4yMjd8Ni45NzM4NQ==)"/>
  <g clip-path="url(#cpNi45NzM4NXw3MTMuMDI2fDIwOS4yMjd8Ni45NzM4NQ==)">
    <text x="440.93" y="21.05" style="font-size: 9.96px; fill: #5ECD2E; font-family: Liberation Sans;" textLength="35.40px" lengthAdjust="spacingAndGlyphs">cellTree</text>
  </g>
  <polyline points="455.36,85.44 510.23,85.44 510.14,85.44 510.49,85.42 510.83,85.35 511.15,85.23 511.45,85.06 511.72,84.84 511.95,84.58 512.14,84.28 512.28,83.96 512.36,83.63 512.39,83.28 512.39,83.28 512.39,73.53 512.39,73.53 512.36,73.18 512.28,72.84 512.14,72.52 511.95,72.23 511.72,71.97 511.45,71.75 511.15,71.57 510.83,71.45 510.49,71.38 510.23,71.37 455.36,71.37 455.62,71.38 455.27,71.37 454.93,71.41 454.59,71.51 454.28,71.65 453.99,71.85 453.74,72.09 453.53,72.37 453.37,72.68 453.26,73.01 453.21,73.35 453.20,73.53 453.20,83.28 453.21,83.11 453.21,83.45 453.26,83.80 453.37,84.13 453.53,84.43 453.74,84.71 453.99,84.95 454.28,85.15 454.59,85.30 454.93,85.40 455.27,85.44 " style="stroke-width: 0.53; stroke: #AF0DC7; fill: #FFFFFF;" clip-path="url(#cpNi45NzM4NXw3MTMuMDI2fDIwOS4yMjd8Ni45NzM4NQ==)"/>
  <g clip-path="url(#cpNi45NzM4NXw3MTMuMDI2fDIwOS4yMjd8Ni45NzM4NQ==)">
    <text x="456.80" y="81.84" style="font-size: 9.96px; fill: #AF0DC7; font-family: Liberation Sans;" textLength="51.99px" lengthAdjust="spacingAndGlyphs">SCORPIUS</text>
  </g>
  <polyline points="292.57,112.26 334.73,112.26 334.64,112.26 334.99,112.25 335.33,112.18 335.66,112.06 335.96,111.88 336.23,111.66 336.46,111.40 336.64,111.11 336.78,110.79 336.86,110.45 336.89,110.10 336.89,110.10 336.89,100.35 336.89,100.35 336.86,100.00 336.78,99.67 336.64,99.35 336.46,99.05 336.23,98.79 335.96,98.57 335.66,98.40 335.33,98.27 334.99,98.21 334.73,98.19 292.57,98.19 292.83,98.21 292.48,98.19 292.14,98.23 291.80,98.33 291.49,98.48 291.20,98.68 290.95,98.92 290.74,99.19 290.58,99.50 290.47,99.83 290.42,100.18 290.41,100.35 290.41,110.10 290.42,109.93 290.42,110.28 290.47,110.62 290.58,110.95 290.74,111.26 290.95,111.54 291.20,111.78 291.49,111.97 291.80,112.12 292.14,112.22 292.48,112.26 " style="stroke-width: 0.53; stroke: #AF0DC7; fill: #FFFFFF;" clip-path="url(#cpNi45NzM4NXw3MTMuMDI2fDIwOS4yMjd8Ni45NzM4NQ==)"/>
  <g clip-path="url(#cpNi45NzM4NXw3MTMuMDI2fDIwOS4yMjd8Ni45NzM4NQ==)">
    <text x="294.01" y="108.66" style="font-size: 9.96px; fill: #AF0DC7; font-family: Liberation Sans;" textLength="39.28px" lengthAdjust="spacingAndGlyphs">embeddr</text>
  </g>
  <polyline points="601.77,72.42 625.66,72.42 625.58,72.42 625.92,72.41 626.27,72.34 626.59,72.22 626.89,72.04 627.16,71.82 627.39,71.56 627.58,71.27 627.71,70.95 627.80,70.61 627.82,70.26 627.82,70.26 627.82,60.51 627.82,60.51 627.80,60.16 627.71,59.83 627.58,59.51 627.39,59.21 627.16,58.95 626.89,58.73 626.59,58.56 626.27,58.43 625.92,58.36 625.66,58.35 601.77,58.35 602.03,58.36 601.68,58.35 601.33,58.39 601.00,58.49 600.69,58.64 600.40,58.84 600.15,59.08 599.94,59.35 599.78,59.66 599.67,59.99 599.61,60.34 599.61,60.51 599.61,70.26 599.61,70.09 599.61,70.44 599.67,70.78 599.78,71.11 599.94,71.42 600.15,71.70 600.40,71.94 600.69,72.13 601.00,72.28 601.33,72.38 601.68,72.42 " style="stroke-width: 0.53; stroke: #0073D7; fill: #FFFFFF;" clip-path="url(#cpNi45NzM4NXw3MTMuMDI2fDIwOS4yMjd8Ni45NzM4NQ==)"/>
  <g clip-path="url(#cpNi45NzM4NXw3MTMuMDI2fDIwOS4yMjd8Ni45NzM4NQ==)">
    <text x="603.21" y="68.82" style="font-size: 9.96px; fill: #0073D7; font-family: Liberation Sans;" textLength="21.02px" lengthAdjust="spacingAndGlyphs">BGP</text>
  </g>
  <polyline points="253.02,204.96 284.66,204.96 284.57,204.96 284.92,204.95 285.26,204.88 285.58,204.75 285.88,204.58 286.15,204.36 286.38,204.10 286.57,203.81 286.71,203.49 286.79,203.15 286.82,202.80 286.82,202.80 286.82,193.05 286.82,193.05 286.79,192.70 286.71,192.36 286.57,192.04 286.38,191.75 286.15,191.49 285.88,191.27 285.58,191.10 285.26,190.97 284.92,190.90 284.66,190.89 253.02,190.89 253.28,190.90 252.93,190.89 252.59,190.93 252.25,191.03 251.94,191.18 251.65,191.37 251.40,191.61 251.19,191.89 251.03,192.20 250.92,192.53 250.87,192.87 250.86,193.05 250.86,202.80 250.87,202.63 250.87,202.98 250.92,203.32 251.03,203.65 251.19,203.96 251.40,204.23 251.65,204.48 251.94,204.67 252.25,204.82 252.59,204.92 252.93,204.96 " style="stroke-width: 0.53; stroke: #AF0DC7; fill: #FFFFFF;" clip-path="url(#cpNi45NzM4NXw3MTMuMDI2fDIwOS4yMjd8Ni45NzM4NQ==)"/>
  <g clip-path="url(#cpNi45NzM4NXw3MTMuMDI2fDIwOS4yMjd8Ni45NzM4NQ==)">
    <text x="254.46" y="201.36" style="font-size: 9.96px; fill: #AF0DC7; font-family: Liberation Sans;" textLength="28.76px" lengthAdjust="spacingAndGlyphs">NBOR</text>
  </g>
  <polyline points="282.40,134.14 342.27,134.14 342.18,134.13 342.53,134.12 342.87,134.05 343.19,133.93 343.50,133.75 343.76,133.53 344.00,133.27 344.18,132.98 344.32,132.66 344.40,132.32 344.43,131.98 344.43,131.98 344.43,122.22 344.43,122.22 344.40,121.87 344.32,121.54 344.18,121.22 344.00,120.92 343.76,120.66 343.50,120.44 343.19,120.27 342.87,120.15 342.53,120.08 342.27,120.06 282.40,120.06 282.66,120.08 282.31,120.06 281.96,120.10 281.63,120.20 281.32,120.35 281.03,120.55 280.78,120.79 280.57,121.07 280.41,121.37 280.30,121.70 280.24,122.05 280.24,122.22 280.24,131.98 280.24,131.80 280.24,132.15 280.30,132.49 280.41,132.82 280.57,133.13 280.78,133.41 281.03,133.65 281.32,133.85 281.63,134.00 281.96,134.09 282.31,134.13 " style="stroke-width: 0.53; stroke: #AF0DC7; fill: #FFFFFF;" clip-path="url(#cpNi45NzM4NXw3MTMuMDI2fDIwOS4yMjd8Ni45NzM4NQ==)"/>
  <g clip-path="url(#cpNi45NzM4NXw3MTMuMDI2fDIwOS4yMjd8Ni45NzM4NQ==)">
    <text x="283.84" y="130.54" style="font-size: 9.96px; fill: #AF0DC7; font-family: Liberation Sans;" textLength="56.99px" lengthAdjust="spacingAndGlyphs">gpseudotime</text>
  </g>
  <polyline points="378.21,24.65 424.82,24.65 424.73,24.65 425.08,24.63 425.42,24.56 425.75,24.44 426.05,24.27 426.32,24.05 426.55,23.79 426.73,23.49 426.87,23.17 426.95,22.84 426.98,22.49 426.98,22.49 426.98,12.73 426.98,12.73 426.95,12.39 426.87,12.05 426.73,11.73 426.55,11.44 426.32,11.18 426.05,10.96 425.75,10.78 425.42,10.66 425.08,10.59 424.82,10.57 378.21,10.57 378.47,10.59 378.13,10.58 377.78,10.62 377.45,10.71 377.13,10.86 376.85,11.06 376.60,11.30 376.39,11.58 376.23,11.89 376.12,12.22 376.06,12.56 376.05,12.73 376.05,22.49 376.06,22.32 376.06,22.66 376.12,23.01 376.23,23.34 376.39,23.64 376.60,23.92 376.85,24.16 377.13,24.36 377.45,24.51 377.78,24.61 378.13,24.65 " style="stroke-width: 0.53; stroke: #AF0DC7; fill: #FFFFFF;" clip-path="url(#cpNi45NzM4NXw3MTMuMDI2fDIwOS4yMjd8Ni45NzM4NQ==)"/>
  <g clip-path="url(#cpNi45NzM4NXw3MTMuMDI2fDIwOS4yMjd8Ni45NzM4NQ==)">
    <text x="379.65" y="21.05" style="font-size: 9.96px; fill: #AF0DC7; font-family: Liberation Sans;" textLength="43.72px" lengthAdjust="spacingAndGlyphs">pseudogp</text>
  </g>
  <polyline points="345.20,155.99 384.03,155.99 383.94,155.99 384.29,155.97 384.63,155.90 384.96,155.78 385.26,155.61 385.53,155.39 385.76,155.13 385.94,154.83 386.08,154.51 386.16,154.17 386.19,153.83 386.19,153.83 386.19,144.07 386.19,144.07 386.16,143.73 386.08,143.39 385.94,143.07 385.76,142.78 385.53,142.52 385.26,142.30 384.96,142.12 384.63,142.00 384.29,141.93 384.03,141.91 345.20,141.91 345.46,141.93 345.11,141.92 344.76,141.96 344.43,142.05 344.12,142.20 343.83,142.40 343.58,142.64 343.37,142.92 343.21,143.23 343.10,143.56 343.04,143.90 343.04,144.07 343.04,153.83 343.04,153.65 343.04,154.00 343.10,154.35 343.21,154.67 343.37,154.98 343.58,155.26 343.83,155.50 344.12,155.70 344.43,155.85 344.76,155.94 345.11,155.99 " style="stroke-width: 0.53; stroke: #5ECD2E; fill: #FFFFFF;" clip-path="url(#cpNi45NzM4NXw3MTMuMDI2fDIwOS4yMjd8Ni45NzM4NQ==)"/>
  <g clip-path="url(#cpNi45NzM4NXw3MTMuMDI2fDIwOS4yMjd8Ni45NzM4NQ==)">
    <text x="346.64" y="152.39" style="font-size: 9.96px; fill: #5ECD2E; font-family: Liberation Sans;" textLength="35.95px" lengthAdjust="spacingAndGlyphs">ECLAIR</text>
  </g>
  <polyline points="423.17,45.67 449.28,45.67 449.19,45.67 449.54,45.66 449.88,45.59 450.21,45.46 450.51,45.29 450.78,45.07 451.01,44.81 451.19,44.52 451.33,44.20 451.41,43.86 451.44,43.51 451.44,43.51 451.44,33.76 451.44,33.76 451.41,33.41 451.33,33.07 451.19,32.75 451.01,32.46 450.78,32.20 450.51,31.98 450.21,31.81 449.88,31.68 449.54,31.61 449.28,31.60 423.17,31.60 423.43,31.61 423.08,31.60 422.73,31.64 422.40,31.74 422.09,31.89 421.80,32.08 421.55,32.33 421.34,32.60 421.18,32.91 421.07,33.24 421.01,33.58 421.01,33.76 421.01,43.51 421.01,43.34 421.01,43.69 421.07,44.03 421.18,44.36 421.34,44.67 421.55,44.95 421.80,45.19 422.09,45.38 422.40,45.53 422.73,45.63 423.08,45.67 " style="stroke-width: 0.53; stroke: #AF0DC7; fill: #FFFFFF;" clip-path="url(#cpNi45NzM4NXw3MTMuMDI2fDIwOS4yMjd8Ni45NzM4NQ==)"/>
  <g clip-path="url(#cpNi45NzM4NXw3MTMuMDI2fDIwOS4yMjd8Ni45NzM4NQ==)">
    <text x="424.61" y="42.07" style="font-size: 9.96px; fill: #AF0DC7; font-family: Liberation Sans;" textLength="23.24px" lengthAdjust="spacingAndGlyphs">Ouija</text>
  </g>
  <polyline points="644.35,114.27 692.03,114.27 691.95,114.27 692.29,114.25 692.63,114.18 692.96,114.06 693.26,113.89 693.53,113.67 693.76,113.41 693.95,113.11 694.08,112.79 694.17,112.46 694.19,112.11 694.19,112.11 694.19,102.35 694.19,102.35 694.17,102.01 694.08,101.67 693.95,101.35 693.76,101.06 693.53,100.80 693.26,100.58 692.96,100.40 692.63,100.28 692.29,100.21 692.03,100.19 644.35,100.19 644.61,100.21 644.26,100.20 643.92,100.24 643.58,100.33 643.27,100.48 642.98,100.68 642.73,100.92 642.52,101.20 642.36,101.51 642.25,101.84 642.20,102.18 642.19,102.35 642.19,112.11 642.20,111.94 642.20,112.28 642.25,112.63 642.36,112.96 642.52,113.26 642.73,113.54 642.98,113.78 643.27,113.98 643.58,114.13 643.92,114.23 644.26,114.27 " style="stroke-width: 0.53; stroke: #CFBF00; fill: #FFFFFF;" clip-path="url(#cpNi45NzM4NXw3MTMuMDI2fDIwOS4yMjd8Ni45NzM4NQ==)"/>
  <g clip-path="url(#cpNi45NzM4NXw3MTMuMDI2fDIwOS4yMjd8Ni45NzM4NQ==)">
    <text x="645.79" y="110.67" style="font-size: 9.96px; fill: #CFBF00; font-family: Liberation Sans;" textLength="44.80px" lengthAdjust="spacingAndGlyphs">GrandPrix</text>
  </g>
  <polyline points="434.34,126.52 486.44,126.52 486.35,126.52 486.70,126.50 487.04,126.43 487.36,126.31 487.67,126.14 487.93,125.92 488.17,125.66 488.35,125.36 488.49,125.04 488.57,124.70 488.60,124.36 488.60,124.36 488.60,114.60 488.60,114.60 488.57,114.26 488.49,113.92 488.35,113.60 488.17,113.30 487.93,113.04 487.67,112.82 487.36,112.65 487.04,112.53 486.70,112.46 486.44,112.44 434.34,112.44 434.60,112.46 434.25,112.44 433.90,112.49 433.57,112.58 433.26,112.73 432.97,112.93 432.72,113.17 432.51,113.45 432.35,113.76 432.24,114.09 432.18,114.43 432.18,114.60 432.18,124.36 432.18,124.18 432.18,124.53 432.24,124.87 432.35,125.20 432.51,125.51 432.72,125.79 432.97,126.03 433.26,126.23 433.57,126.38 433.90,126.47 434.25,126.52 " style="stroke-width: 0.53; stroke: #AF0DC7; fill: #FFFFFF;" clip-path="url(#cpNi45NzM4NXw3MTMuMDI2fDIwOS4yMjd8Ni45NzM4NQ==)"/>
  <g clip-path="url(#cpNi45NzM4NXw3MTMuMDI2fDIwOS4yMjd8Ni45NzM4NQ==)">
    <text x="435.78" y="122.92" style="font-size: 9.96px; fill: #AF0DC7; font-family: Liberation Sans;" textLength="49.22px" lengthAdjust="spacingAndGlyphs">WaveCrest</text>
  </g>
  <polyline points="410.29,104.94 456.89,104.94 456.80,104.93 457.15,104.92 457.49,104.85 457.81,104.73 458.11,104.55 458.38,104.33 458.61,104.07 458.80,103.78 458.93,103.46 459.02,103.12 459.05,102.78 459.05,102.78 459.05,93.02 459.05,93.02 459.02,92.67 458.93,92.34 458.80,92.02 458.61,91.72 458.38,91.46 458.11,91.24 457.81,91.07 457.49,90.95 457.15,90.88 456.89,90.86 410.29,90.86 410.55,90.88 410.20,90.86 409.86,90.90 409.52,91.00 409.21,91.15 408.92,91.35 408.67,91.59 408.47,91.87 408.30,92.17 408.19,92.50 408.14,92.85 408.13,93.02 408.13,102.78 408.14,102.60 408.14,102.95 408.19,103.29 408.30,103.62 408.47,103.93 408.67,104.21 408.92,104.45 409.21,104.65 409.52,104.80 409.86,104.89 410.20,104.93 " style="stroke-width: 0.53; stroke: #AF0DC7; fill: #FFFFFF;" clip-path="url(#cpNi45NzM4NXw3MTMuMDI2fDIwOS4yMjd8Ni45NzM4NQ==)"/>
  <g clip-path="url(#cpNi45NzM4NXw3MTMuMDI2fDIwOS4yMjd8Ni45NzM4NQ==)">
    <text x="411.73" y="101.34" style="font-size: 9.96px; fill: #AF0DC7; font-family: Liberation Sans;" textLength="43.72px" lengthAdjust="spacingAndGlyphs">DeLorean</text>
  </g>
  <polyline points="570.97,24.65 623.07,24.65 622.98,24.65 623.33,24.63 623.67,24.56 623.99,24.44 624.29,24.27 624.56,24.05 624.79,23.79 624.98,23.49 625.11,23.17 625.20,22.84 625.23,22.49 625.23,22.49 625.23,12.73 625.23,12.73 625.20,12.39 625.11,12.05 624.98,11.73 624.79,11.44 624.56,11.18 624.29,10.96 623.99,10.78 623.67,10.66 623.33,10.59 623.07,10.57 570.97,10.57 571.23,10.59 570.89,10.58 570.54,10.62 570.21,10.71 569.89,10.86 569.61,11.06 569.36,11.30 569.15,11.58 568.99,11.89 568.88,12.22 568.82,12.56 568.81,12.73 568.81,22.49 568.82,22.32 568.82,22.66 568.88,23.01 568.99,23.34 569.15,23.64 569.36,23.92 569.61,24.16 569.89,24.36 570.21,24.51 570.54,24.61 570.89,24.65 " style="stroke-width: 0.53; stroke: #AF0DC7; fill: #FFFFFF;" clip-path="url(#cpNi45NzM4NXw3MTMuMDI2fDIwOS4yMjd8Ni45NzM4NQ==)"/>
  <g clip-path="url(#cpNi45NzM4NXw3MTMuMDI2fDIwOS4yMjd8Ni45NzM4NQ==)">
    <text x="572.41" y="21.05" style="font-size: 9.96px; fill: #AF0DC7; font-family: Liberation Sans;" textLength="49.21px" lengthAdjust="spacingAndGlyphs">MATCHER</text>
  </g>
  <polyline points="487.05,65.76 539.17,65.76 539.08,65.76 539.43,65.75 539.77,65.68 540.09,65.56 540.39,65.38 540.66,65.16 540.89,64.90 541.08,64.61 541.21,64.29 541.30,63.95 541.33,63.60 541.33,63.60 541.33,53.85 541.33,53.85 541.30,53.50 541.21,53.16 541.08,52.85 540.89,52.55 540.66,52.29 540.39,52.07 540.09,51.90 539.77,51.77 539.43,51.70 539.17,51.69 487.05,51.69 487.31,51.70 486.96,51.69 486.62,51.73 486.28,51.83 485.97,51.98 485.68,52.18 485.43,52.42 485.22,52.69 485.06,53.00 484.95,53.33 484.90,53.68 484.89,53.85 484.89,63.60 484.90,63.43 484.90,63.78 484.95,64.12 485.06,64.45 485.22,64.76 485.43,65.04 485.68,65.28 485.97,65.47 486.28,65.62 486.62,65.72 486.96,65.76 " style="stroke-width: 0.53; stroke: #5ECD2E; fill: #FFFFFF;" clip-path="url(#cpNi45NzM4NXw3MTMuMDI2fDIwOS4yMjd8Ni45NzM4NQ==)"/>
  <g clip-path="url(#cpNi45NzM4NXw3MTMuMDI2fDIwOS4yMjd8Ni45NzM4NQ==)">
    <text x="488.49" y="62.16" style="font-size: 9.96px; fill: #5ECD2E; font-family: Liberation Sans;" textLength="49.24px" lengthAdjust="spacingAndGlyphs">k-branches</text>
  </g>
  <polyline points="576.22,56.00 628.36,56.00 628.27,56.00 628.62,55.98 628.96,55.92 629.29,55.79 629.59,55.62 629.86,55.40 630.09,55.14 630.27,54.84 630.41,54.52 630.49,54.19 630.52,53.84 630.52,53.84 630.52,44.09 630.52,44.09 630.49,43.74 630.41,43.40 630.27,43.08 630.09,42.79 629.86,42.53 629.59,42.31 629.29,42.13 628.96,42.01 628.62,41.94 628.36,41.93 576.22,41.93 576.48,41.94 576.14,41.93 575.79,41.97 575.46,42.07 575.14,42.21 574.86,42.41 574.61,42.65 574.40,42.93 574.24,43.24 574.13,43.57 574.07,43.91 574.06,44.09 574.06,53.84 574.07,53.67 574.07,54.01 574.13,54.36 574.24,54.69 574.40,54.99 574.61,55.27 574.86,55.51 575.14,55.71 575.46,55.86 575.79,55.96 576.14,56.00 " style="stroke-width: 0.53; stroke: #AF0DC7; fill: #FFFFFF;" clip-path="url(#cpNi45NzM4NXw3MTMuMDI2fDIwOS4yMjd8Ni45NzM4NQ==)"/>
  <g clip-path="url(#cpNi45NzM4NXw3MTMuMDI2fDIwOS4yMjd8Ni45NzM4NQ==)">
    <text x="577.66" y="52.40" style="font-size: 9.96px; fill: #AF0DC7; font-family: Liberation Sans;" textLength="49.26px" lengthAdjust="spacingAndGlyphs">PhenoPath</text>
  </g>
  <polyline points="519.85,24.65 566.99,24.65 566.90,24.65 567.25,24.63 567.59,24.56 567.91,24.44 568.22,24.27 568.49,24.05 568.72,23.79 568.90,23.49 569.04,23.17 569.12,22.84 569.15,22.49 569.15,22.49 569.15,12.73 569.15,12.73 569.12,12.39 569.04,12.05 568.90,11.73 568.72,11.44 568.49,11.18 568.22,10.96 567.91,10.78 567.59,10.66 567.25,10.59 566.99,10.57 519.85,10.57 520.11,10.59 519.77,10.58 519.42,10.62 519.09,10.71 518.77,10.86 518.49,11.06 518.24,11.30 518.03,11.58 517.87,11.89 517.76,12.22 517.70,12.56 517.69,12.73 517.69,22.49 517.70,22.32 517.70,22.66 517.76,23.01 517.87,23.34 518.03,23.64 518.24,23.92 518.49,24.16 518.77,24.36 519.09,24.51 519.42,24.61 519.77,24.65 " style="stroke-width: 0.53; stroke: #5ECD2E; fill: #FFFFFF;" clip-path="url(#cpNi45NzM4NXw3MTMuMDI2fDIwOS4yMjd8Ni45NzM4NQ==)"/>
  <g clip-path="url(#cpNi45NzM4NXw3MTMuMDI2fDIwOS4yMjd8Ni45NzM4NQ==)">
    <text x="521.29" y="21.05" style="font-size: 9.96px; fill: #5ECD2E; font-family: Liberation Sans;" textLength="44.25px" lengthAdjust="spacingAndGlyphs">Granatum</text>
  </g>
  <polyline points="424.03,147.58 454.57,147.58 454.48,147.58 454.83,147.57 455.17,147.50 455.50,147.37 455.80,147.20 456.07,146.98 456.30,146.72 456.48,146.43 456.62,146.11 456.70,145.77 456.73,145.42 456.73,145.42 456.73,135.67 456.73,135.67 456.70,135.32 456.62,134.98 456.48,134.66 456.30,134.37 456.07,134.11 455.80,133.89 455.50,133.72 455.17,133.59 454.83,133.52 454.57,133.51 424.03,133.51 424.29,133.52 423.94,133.51 423.60,133.55 423.26,133.65 422.95,133.80 422.66,134.00 422.41,134.24 422.20,134.51 422.04,134.82 421.93,135.15 421.88,135.49 421.87,135.67 421.87,145.42 421.88,145.25 421.88,145.60 421.93,145.94 422.04,146.27 422.20,146.58 422.41,146.86 422.66,147.10 422.95,147.29 423.26,147.44 423.60,147.54 423.94,147.58 " style="stroke-width: 0.53; stroke: #5ECD2E; fill: #FFFFFF;" clip-path="url(#cpNi45NzM4NXw3MTMuMDI2fDIwOS4yMjd8Ni45NzM4NQ==)"/>
  <g clip-path="url(#cpNi45NzM4NXw3MTMuMDI2fDIwOS4yMjd8Ni45NzM4NQ==)">
    <text x="425.47" y="143.98" style="font-size: 9.96px; fill: #5ECD2E; font-family: Liberation Sans;" textLength="27.66px" lengthAdjust="spacingAndGlyphs">Mpath</text>
  </g>
  <polyline points="499.04,202.70 530.69,202.70 530.60,202.70 530.95,202.69 531.29,202.62 531.61,202.49 531.91,202.32 532.18,202.10 532.41,201.84 532.60,201.55 532.74,201.23 532.82,200.89 532.85,200.54 532.85,200.54 532.85,190.79 532.85,190.79 532.82,190.44 532.74,190.10 532.60,189.78 532.41,189.49 532.18,189.23 531.91,189.01 531.61,188.84 531.29,188.71 530.95,188.64 530.69,188.63 499.04,188.63 499.30,188.64 498.96,188.63 498.61,188.67 498.28,188.77 497.96,188.92 497.68,189.11 497.43,189.36 497.22,189.63 497.05,189.94 496.94,190.27 496.89,190.61 496.88,190.79 496.88,200.54 496.89,200.37 496.89,200.72 496.94,201.06 497.05,201.39 497.22,201.70 497.43,201.98 497.68,202.22 497.96,202.41 498.28,202.56 498.61,202.66 498.96,202.70 " style="stroke-width: 0.53; stroke: #5ECD2E; fill: #FFFFFF;" clip-path="url(#cpNi45NzM4NXw3MTMuMDI2fDIwOS4yMjd8Ni45NzM4NQ==)"/>
  <g clip-path="url(#cpNi45NzM4NXw3MTMuMDI2fDIwOS4yMjd8Ni45NzM4NQ==)">
    <text x="500.48" y="199.10" style="font-size: 9.96px; fill: #5ECD2E; font-family: Liberation Sans;" textLength="28.77px" lengthAdjust="spacingAndGlyphs">SLICE</text>
  </g>
  <polyline points="639.99,205.24 663.89,205.24 663.80,205.24 664.15,205.23 664.49,205.16 664.81,205.03 665.11,204.86 665.38,204.64 665.61,204.38 665.80,204.09 665.94,203.77 666.02,203.43 666.05,203.08 666.05,203.08 666.05,193.33 666.05,193.33 666.02,192.98 665.94,192.64 665.80,192.32 665.61,192.03 665.38,191.77 665.11,191.55 664.81,191.38 664.49,191.25 664.15,191.18 663.89,191.17 639.99,191.17 640.25,191.18 639.90,191.17 639.56,191.21 639.22,191.31 638.91,191.46 638.62,191.66 638.37,191.90 638.16,192.17 638.00,192.48 637.89,192.81 637.83,193.15 637.83,193.33 637.83,203.08 637.83,202.91 637.83,203.26 637.89,203.60 638.00,203.93 638.16,204.24 638.37,204.52 638.62,204.76 638.91,204.95 639.22,205.10 639.56,205.20 639.90,205.24 " style="stroke-width: 0.53; stroke: #FF4237; fill: #FFFFFF;" clip-path="url(#cpNi45NzM4NXw3MTMuMDI2fDIwOS4yMjd8Ni45NzM4NQ==)"/>
  <g clip-path="url(#cpNi45NzM4NXw3MTMuMDI2fDIwOS4yMjd8Ni45NzM4NQ==)">
    <text x="641.43" y="201.64" style="font-size: 9.96px; fill: #FF4237; font-family: Liberation Sans;" textLength="21.02px" lengthAdjust="spacingAndGlyphs">AGA</text>
  </g>
  <polyline points="518.58,105.78 567.38,105.78 567.30,105.77 567.64,105.76 567.98,105.69 568.31,105.57 568.61,105.39 568.88,105.17 569.11,104.91 569.30,104.62 569.43,104.30 569.52,103.96 569.54,103.62 569.54,103.62 569.54,93.86 569.54,93.86 569.52,93.51 569.43,93.18 569.30,92.86 569.11,92.56 568.88,92.30 568.61,92.08 568.31,91.91 567.98,91.79 567.64,91.72 567.38,91.70 518.58,91.70 518.84,91.72 518.49,91.70 518.15,91.74 517.82,91.84 517.50,91.99 517.22,92.19 516.96,92.43 516.76,92.71 516.59,93.01 516.48,93.34 516.43,93.69 516.42,93.86 516.42,103.62 516.43,103.44 516.43,103.79 516.48,104.13 516.59,104.46 516.76,104.77 516.96,105.05 517.22,105.29 517.50,105.49 517.82,105.64 518.15,105.73 518.49,105.77 " style="stroke-width: 0.53; stroke: #5ECD2E; fill: #FFFFFF;" clip-path="url(#cpNi45NzM4NXw3MTMuMDI2fDIwOS4yMjd8Ni45NzM4NQ==)"/>
  <g clip-path="url(#cpNi45NzM4NXw3MTMuMDI2fDIwOS4yMjd8Ni45NzM4NQ==)">
    <text x="520.02" y="102.18" style="font-size: 9.96px; fill: #5ECD2E; font-family: Liberation Sans;" textLength="45.92px" lengthAdjust="spacingAndGlyphs">Monocle 2</text>
  </g>
  <polyline points="579.01,140.90 610.64,140.90 610.55,140.90 610.90,140.88 611.24,140.81 611.57,140.69 611.87,140.52 612.14,140.30 612.37,140.04 612.55,139.74 612.69,139.42 612.77,139.08 612.80,138.74 612.80,138.74 612.80,128.98 612.80,128.98 612.77,128.64 612.69,128.30 612.55,127.98 612.37,127.69 612.14,127.43 611.87,127.21 611.57,127.03 611.24,126.91 610.90,126.84 610.64,126.82 579.01,126.82 579.27,126.84 578.92,126.82 578.57,126.87 578.24,126.96 577.93,127.11 577.64,127.31 577.39,127.55 577.18,127.83 577.02,128.14 576.91,128.47 576.85,128.81 576.85,128.98 576.85,138.74 576.85,138.56 576.85,138.91 576.91,139.26 577.02,139.58 577.18,139.89 577.39,140.17 577.64,140.41 577.93,140.61 578.24,140.76 578.57,140.85 578.92,140.90 " style="stroke-width: 0.53; stroke: #39CCCC; fill: #FFFFFF;" clip-path="url(#cpNi45NzM4NXw3MTMuMDI2fDIwOS4yMjd8Ni45NzM4NQ==)"/>
  <g clip-path="url(#cpNi45NzM4NXw3MTMuMDI2fDIwOS4yMjd8Ni45NzM4NQ==)">
    <text x="580.45" y="137.30" style="font-size: 9.96px; fill: #39CCCC; font-family: Liberation Sans;" textLength="28.76px" lengthAdjust="spacingAndGlyphs">reCAT</text>
  </g>
  <polyline points="389.81,84.12 436.95,84.12 436.86,84.12 437.21,84.11 437.55,84.04 437.87,83.91 438.18,83.74 438.44,83.52 438.68,83.26 438.86,82.97 439.00,82.65 439.08,82.31 439.11,81.96 439.11,81.96 439.11,72.21 439.11,72.21 439.08,71.86 439.00,71.52 438.86,71.20 438.68,70.91 438.44,70.65 438.18,70.43 437.87,70.26 437.55,70.13 437.21,70.06 436.95,70.05 389.81,70.05 390.07,70.06 389.72,70.05 389.38,70.09 389.04,70.19 388.73,70.34 388.44,70.53 388.19,70.78 387.98,71.05 387.82,71.36 387.71,71.69 387.66,72.03 387.65,72.21 387.65,81.96 387.66,81.79 387.66,82.14 387.71,82.48 387.82,82.81 387.98,83.12 388.19,83.39 388.44,83.64 388.73,83.83 389.04,83.98 389.38,84.08 389.72,84.12 " style="stroke-width: 0.53; stroke: #0073D7; fill: #FFFFFF;" clip-path="url(#cpNi45NzM4NXw3MTMuMDI2fDIwOS4yMjd8Ni45NzM4NQ==)"/>
  <g clip-path="url(#cpNi45NzM4NXw3MTMuMDI2fDIwOS4yMjd8Ni45NzM4NQ==)">
    <text x="391.25" y="80.52" style="font-size: 9.96px; fill: #0073D7; font-family: Liberation Sans;" textLength="44.26px" lengthAdjust="spacingAndGlyphs">Wishbone</text>
  </g>
  <polyline points="556.93,204.52 589.67,204.52 589.58,204.52 589.93,204.50 590.27,204.43 590.59,204.31 590.89,204.14 591.16,203.92 591.39,203.66 591.58,203.36 591.71,203.04 591.80,202.71 591.83,202.36 591.83,202.36 591.83,192.60 591.83,192.60 591.80,192.26 591.71,191.92 591.58,191.60 591.39,191.31 591.16,191.05 590.89,190.83 590.59,190.65 590.27,190.53 589.93,190.46 589.67,190.44 556.93,190.44 557.19,190.46 556.84,190.45 556.49,190.49 556.16,190.59 555.85,190.73 555.56,190.93 555.31,191.17 555.10,191.45 554.94,191.76 554.83,192.09 554.77,192.43 554.77,192.60 554.77,202.36 554.77,202.19 554.77,202.53 554.83,202.88 554.94,203.21 555.10,203.51 555.31,203.79 555.56,204.03 555.85,204.23 556.16,204.38 556.49,204.48 556.84,204.52 " style="stroke-width: 0.53; stroke: #AF0DC7; fill: #FFFFFF;" clip-path="url(#cpNi45NzM4NXw3MTMuMDI2fDIwOS4yMjd8Ni45NzM4NQ==)"/>
  <g clip-path="url(#cpNi45NzM4NXw3MTMuMDI2fDIwOS4yMjd8Ni45NzM4NQ==)">
    <text x="558.37" y="200.92" style="font-size: 9.96px; fill: #AF0DC7; font-family: Liberation Sans;" textLength="29.86px" lengthAdjust="spacingAndGlyphs">scTDA</text>
  </g>
  <polyline points="62.10,180.93 115.32,180.93 115.23,180.93 115.58,180.92 115.92,180.85 116.25,180.72 116.55,180.55 116.82,180.33 117.05,180.07 117.23,179.78 117.37,179.46 117.45,179.12 117.48,178.77 117.48,178.77 117.48,169.02 117.48,169.02 117.45,168.67 117.37,168.33 117.23,168.01 117.05,167.72 116.82,167.46 116.55,167.24 116.25,167.07 115.92,166.94 115.58,166.87 115.32,166.86 62.10,166.86 62.36,166.87 62.02,166.86 61.67,166.90 61.34,167.00 61.02,167.15 60.74,167.35 60.49,167.59 60.28,167.86 60.12,168.17 60.00,168.50 59.95,168.84 59.94,169.02 59.94,178.77 59.95,178.60 59.95,178.95 60.00,179.29 60.12,179.62 60.28,179.93 60.49,180.21 60.74,180.45 61.02,180.64 61.34,180.79 61.67,180.89 62.02,180.93 " style="stroke-width: 0.53; stroke: #AF0DC7; fill: #FFFFFF;" clip-path="url(#cpNi45NzM4NXw3MTMuMDI2fDIwOS4yMjd8Ni45NzM4NQ==)"/>
  <g clip-path="url(#cpNi45NzM4NXw3MTMuMDI2fDIwOS4yMjd8Ni45NzM4NQ==)">
    <text x="63.54" y="177.33" style="font-size: 9.96px; fill: #AF0DC7; font-family: Liberation Sans;" textLength="50.34px" lengthAdjust="spacingAndGlyphs">Wanderlust</text>
  </g>
  <polyline points="594.19,161.19 683.32,161.19 683.23,161.19 683.58,161.18 683.92,161.11 684.25,160.98 684.55,160.81 684.82,160.59 685.05,160.33 685.23,160.03 685.37,159.71 685.45,159.38 685.48,159.03 685.48,159.03 685.48,149.28 685.48,149.28 685.45,148.93 685.37,148.59 685.23,148.27 685.05,147.98 684.82,147.72 684.55,147.50 684.25,147.32 683.92,147.20 683.58,147.13 683.32,147.12 594.19,147.12 594.45,147.13 594.11,147.12 593.76,147.16 593.43,147.26 593.11,147.41 592.83,147.60 592.58,147.84 592.37,148.12 592.21,148.43 592.10,148.76 592.04,149.10 592.03,149.28 592.03,159.03 592.04,158.86 592.04,159.20 592.10,159.55 592.21,159.88 592.37,160.19 592.58,160.46 592.83,160.70 593.11,160.90 593.43,161.05 593.76,161.15 594.11,161.19 " style="stroke-width: 0.53; stroke: #FF8821; fill: #FFFFFF;" clip-path="url(#cpNi45NzM4NXw3MTMuMDI2fDIwOS4yMjd8Ni45NzM4NQ==)"/>
  <g clip-path="url(#cpNi45NzM4NXw3MTMuMDI2fDIwOS4yMjd8Ni45NzM4NQ==)">
    <text x="595.63" y="157.59" style="font-size: 9.96px; fill: #FF8821; font-family: Liberation Sans;" textLength="86.25px" lengthAdjust="spacingAndGlyphs">WADDINGTON-OT</text>
  </g>
  <polyline points="394.34,125.96 421.00,125.96 420.91,125.96 421.26,125.94 421.60,125.87 421.93,125.75 422.23,125.58 422.50,125.36 422.73,125.10 422.91,124.80 423.05,124.48 423.13,124.14 423.16,123.80 423.16,123.80 423.16,114.04 423.16,114.04 423.13,113.70 423.05,113.36 422.91,113.04 422.73,112.74 422.50,112.48 422.23,112.26 421.93,112.09 421.60,111.97 421.26,111.90 421.00,111.88 394.34,111.88 394.60,111.90 394.25,111.88 393.90,111.93 393.57,112.02 393.26,112.17 392.97,112.37 392.72,112.61 392.51,112.89 392.35,113.20 392.24,113.53 392.18,113.87 392.18,114.04 392.18,123.80 392.18,123.62 392.18,123.97 392.24,124.31 392.35,124.64 392.51,124.95 392.72,125.23 392.97,125.47 393.26,125.67 393.57,125.82 393.90,125.91 394.25,125.96 " style="stroke-width: 0.53; stroke: #AF0DC7; fill: #FFFFFF;" clip-path="url(#cpNi45NzM4NXw3MTMuMDI2fDIwOS4yMjd8Ni45NzM4NQ==)"/>
  <g clip-path="url(#cpNi45NzM4NXw3MTMuMDI2fDIwOS4yMjd8Ni45NzM4NQ==)">
    <text x="395.78" y="122.36" style="font-size: 9.96px; fill: #AF0DC7; font-family: Liberation Sans;" textLength="23.78px" lengthAdjust="spacingAndGlyphs">SCell</text>
  </g>
  <polyline points="527.96,142.49 566.79,142.49 566.71,142.49 567.06,142.47 567.40,142.40 567.72,142.28 568.02,142.11 568.29,141.89 568.52,141.63 568.71,141.33 568.84,141.01 568.93,140.68 568.95,140.33 568.95,140.33 568.95,130.57 568.95,130.57 568.93,130.23 568.84,129.89 568.71,129.57 568.52,129.28 568.29,129.02 568.02,128.80 567.72,128.62 567.40,128.50 567.06,128.43 566.79,128.41 527.96,128.41 528.22,128.43 527.87,128.42 527.52,128.46 527.19,128.55 526.88,128.70 526.59,128.90 526.34,129.14 526.13,129.42 525.97,129.73 525.86,130.06 525.80,130.40 525.80,130.57 525.80,140.33 525.80,140.16 525.80,140.50 525.86,140.85 525.97,141.18 526.13,141.48 526.34,141.76 526.59,142.00 526.88,142.20 527.19,142.35 527.52,142.45 527.87,142.49 " style="stroke-width: 0.53; stroke: #CFBF00; fill: #FFFFFF;" clip-path="url(#cpNi45NzM4NXw3MTMuMDI2fDIwOS4yMjd8Ni45NzM4NQ==)"/>
  <g clip-path="url(#cpNi45NzM4NXw3MTMuMDI2fDIwOS4yMjd8Ni45NzM4NQ==)">
    <text x="529.40" y="138.89" style="font-size: 9.96px; fill: #CFBF00; font-family: Liberation Sans;" textLength="35.96px" lengthAdjust="spacingAndGlyphs">GPfates</text>
  </g>
  <polyline points="638.10,135.90 682.47,135.90 682.38,135.90 682.73,135.88 683.07,135.81 683.40,135.69 683.70,135.51 683.97,135.29 684.20,135.03 684.38,134.74 684.52,134.42 684.60,134.08 684.63,133.74 684.63,133.74 684.63,123.98 684.63,123.98 684.60,123.64 684.52,123.30 684.38,122.98 684.20,122.68 683.97,122.42 683.70,122.20 683.40,122.03 683.07,121.91 682.73,121.84 682.47,121.82 638.10,121.82 638.36,121.84 638.01,121.82 637.67,121.87 637.33,121.96 637.02,122.11 636.73,122.31 636.48,122.55 636.27,122.83 636.11,123.14 636.00,123.47 635.94,123.81 635.94,123.98 635.94,133.74 635.94,133.56 635.94,133.91 636.00,134.25 636.11,134.58 636.27,134.89 636.48,135.17 636.73,135.41 637.02,135.61 637.33,135.76 637.67,135.85 638.01,135.90 " style="stroke-width: 0.53; stroke: #5ECD2E; fill: #FFFFFF;" clip-path="url(#cpNi45NzM4NXw3MTMuMDI2fDIwOS4yMjd8Ni45NzM4NQ==)"/>
  <g clip-path="url(#cpNi45NzM4NXw3MTMuMDI2fDIwOS4yMjd8Ni45NzM4NQ==)">
    <text x="639.54" y="132.30" style="font-size: 9.96px; fill: #5ECD2E; font-family: Liberation Sans;" textLength="41.49px" lengthAdjust="spacingAndGlyphs">p-Creode</text>
  </g>
  <polyline points="417.31,163.93 453.38,163.93 453.29,163.93 453.64,163.92 453.98,163.85 454.30,163.72 454.60,163.55 454.87,163.33 455.10,163.07 455.29,162.78 455.43,162.46 455.51,162.12 455.54,161.77 455.54,161.77 455.54,152.02 455.54,152.02 455.51,151.67 455.43,151.33 455.29,151.01 455.10,150.72 454.87,150.46 454.60,150.24 454.30,150.07 453.98,149.94 453.64,149.87 453.38,149.86 417.31,149.86 417.57,149.87 417.23,149.86 416.88,149.90 416.55,150.00 416.23,150.15 415.95,150.35 415.70,150.59 415.49,150.86 415.33,151.17 415.22,151.50 415.16,151.84 415.15,152.02 415.15,161.77 415.16,161.60 415.16,161.95 415.22,162.29 415.33,162.62 415.49,162.93 415.70,163.21 415.95,163.45 416.23,163.64 416.55,163.79 416.88,163.89 417.23,163.93 " style="stroke-width: 0.53; stroke: #5ECD2E; fill: #FFFFFF;" clip-path="url(#cpNi45NzM4NXw3MTMuMDI2fDIwOS4yMjd8Ni45NzM4NQ==)"/>
  <g clip-path="url(#cpNi45NzM4NXw3MTMuMDI2fDIwOS4yMjd8Ni45NzM4NQ==)">
    <text x="418.75" y="160.33" style="font-size: 9.96px; fill: #5ECD2E; font-family: Liberation Sans;" textLength="33.18px" lengthAdjust="spacingAndGlyphs">StemID</text>
  </g>
  <polyline points="179.96,183.46 217.13,183.46 217.04,183.46 217.39,183.45 217.73,183.38 218.06,183.26 218.36,183.08 218.63,182.86 218.86,182.60 219.04,182.31 219.18,181.99 219.26,181.65 219.29,181.30 219.29,181.30 219.29,171.55 219.29,171.55 219.26,171.20 219.18,170.87 219.04,170.55 218.86,170.25 218.63,169.99 218.36,169.77 218.06,169.60 217.73,169.48 217.39,169.41 217.13,169.39 179.96,169.39 180.22,169.41 179.87,169.39 179.53,169.43 179.19,169.53 178.88,169.68 178.59,169.88 178.34,170.12 178.13,170.40 177.97,170.70 177.86,171.03 177.81,171.38 177.80,171.55 177.80,181.30 177.81,181.13 177.81,181.48 177.86,181.82 177.97,182.15 178.13,182.46 178.34,182.74 178.59,182.98 178.88,183.18 179.19,183.32 179.53,183.42 179.87,183.46 " style="stroke-width: 0.53; stroke: #5ECD2E; fill: #FFFFFF;" clip-path="url(#cpNi45NzM4NXw3MTMuMDI2fDIwOS4yMjd8Ni45NzM4NQ==)"/>
  <g clip-path="url(#cpNi45NzM4NXw3MTMuMDI2fDIwOS4yMjd8Ni45NzM4NQ==)">
    <text x="181.40" y="179.86" style="font-size: 9.96px; fill: #5ECD2E; font-family: Liberation Sans;" textLength="34.29px" lengthAdjust="spacingAndGlyphs">SCUBA</text>
  </g>
  <polyline points="365.08,177.30 387.87,177.30 387.78,177.30 388.13,177.29 388.47,177.22 388.79,177.10 389.10,176.92 389.36,176.70 389.59,176.44 389.78,176.15 389.92,175.83 390.00,175.49 390.03,175.14 390.03,175.14 390.03,165.39 390.03,165.39 390.00,165.04 389.92,164.71 389.78,164.39 389.59,164.09 389.36,163.83 389.10,163.61 388.79,163.44 388.47,163.31 388.13,163.25 387.87,163.23 365.08,163.23 365.34,163.25 364.99,163.23 364.65,163.27 364.32,163.37 364.00,163.52 363.72,163.72 363.47,163.96 363.26,164.23 363.09,164.54 362.98,164.87 362.93,165.22 362.92,165.39 362.92,175.14 362.93,174.97 362.93,175.32 362.98,175.66 363.09,175.99 363.26,176.30 363.47,176.58 363.72,176.82 364.00,177.01 364.32,177.16 364.65,177.26 364.99,177.30 " style="stroke-width: 0.53; stroke: #0073D7; fill: #FFFFFF;" clip-path="url(#cpNi45NzM4NXw3MTMuMDI2fDIwOS4yMjd8Ni45NzM4NQ==)"/>
  <g clip-path="url(#cpNi45NzM4NXw3MTMuMDI2fDIwOS4yMjd8Ni45NzM4NQ==)">
    <text x="366.52" y="173.70" style="font-size: 9.96px; fill: #0073D7; font-family: Liberation Sans;" textLength="19.91px" lengthAdjust="spacingAndGlyphs">DPT</text>
  </g>
  <polyline points="285.99,183.49 328.13,183.49 328.05,183.49 328.39,183.48 328.74,183.41 329.06,183.29 329.36,183.11 329.63,182.89 329.86,182.63 330.05,182.34 330.18,182.02 330.27,181.68 330.29,181.33 330.29,181.33 330.29,171.58 330.29,171.58 330.27,171.23 330.18,170.90 330.05,170.58 329.86,170.28 329.63,170.02 329.36,169.80 329.06,169.63 328.74,169.50 328.39,169.44 328.13,169.42 285.99,169.42 286.25,169.44 285.90,169.42 285.55,169.46 285.22,169.56 284.91,169.71 284.62,169.91 284.37,170.15 284.16,170.42 284.00,170.73 283.89,171.06 283.83,171.41 283.83,171.58 283.83,181.33 283.83,181.16 283.83,181.51 283.89,181.85 284.00,182.18 284.16,182.49 284.37,182.77 284.62,183.01 284.91,183.21 285.22,183.35 285.55,183.45 285.90,183.49 " style="stroke-width: 0.53; stroke: #AF0DC7; fill: #FFFFFF;" clip-path="url(#cpNi45NzM4NXw3MTMuMDI2fDIwOS4yMjd8Ni45NzM4NQ==)"/>
  <g clip-path="url(#cpNi45NzM4NXw3MTMuMDI2fDIwOS4yMjd8Ni45NzM4NQ==)">
    <text x="287.43" y="179.89" style="font-size: 9.96px; fill: #AF0DC7; font-family: Liberation Sans;" textLength="39.27px" lengthAdjust="spacingAndGlyphs">Waterfall</text>
  </g>
  <polyline points="592.49,107.07 629.67,107.07 629.58,107.07 629.93,107.06 630.27,106.99 630.60,106.86 630.90,106.69 631.17,106.47 631.40,106.21 631.58,105.91 631.72,105.59 631.80,105.26 631.83,104.91 631.83,104.91 631.83,95.16 631.83,95.16 631.80,94.81 631.72,94.47 631.58,94.15 631.40,93.86 631.17,93.60 630.90,93.38 630.60,93.20 630.27,93.08 629.93,93.01 629.67,93.00 592.49,93.00 592.75,93.01 592.40,93.00 592.06,93.04 591.72,93.14 591.41,93.29 591.12,93.48 590.87,93.72 590.66,94.00 590.50,94.31 590.39,94.64 590.34,94.98 590.33,95.16 590.33,104.91 590.34,104.74 590.34,105.08 590.39,105.43 590.50,105.76 590.66,106.07 590.87,106.34 591.12,106.58 591.41,106.78 591.72,106.93 592.06,107.03 592.40,107.07 " style="stroke-width: 0.53; stroke: #AF0DC7; fill: #FFFFFF;" clip-path="url(#cpNi45NzM4NXw3MTMuMDI2fDIwOS4yMjd8Ni45NzM4NQ==)"/>
  <g clip-path="url(#cpNi45NzM4NXw3MTMuMDI2fDIwOS4yMjd8Ni45NzM4NQ==)">
    <text x="593.93" y="103.47" style="font-size: 9.96px; fill: #AF0DC7; font-family: Liberation Sans;" textLength="34.30px" lengthAdjust="spacingAndGlyphs">SoptSC</text>
  </g>
  <polyline points="652.16,183.70 681.59,183.70 681.50,183.70 681.85,183.68 682.19,183.62 682.52,183.49 682.82,183.32 683.09,183.10 683.32,182.84 683.50,182.54 683.64,182.22 683.72,181.89 683.75,181.54 683.75,181.54 683.75,171.79 683.75,171.79 683.72,171.44 683.64,171.10 683.50,170.78 683.32,170.49 683.09,170.23 682.82,170.01 682.52,169.83 682.19,169.71 681.85,169.64 681.59,169.63 652.16,169.63 652.42,169.64 652.07,169.63 651.73,169.67 651.39,169.77 651.08,169.92 650.79,170.11 650.54,170.35 650.33,170.63 650.17,170.94 650.06,171.27 650.01,171.61 650.00,171.79 650.00,181.54 650.01,181.37 650.01,181.71 650.06,182.06 650.17,182.39 650.33,182.70 650.54,182.97 650.79,183.21 651.08,183.41 651.39,183.56 651.73,183.66 652.07,183.70 " style="stroke-width: 0.53; stroke: #AF0DC7; fill: #FFFFFF;" clip-path="url(#cpNi45NzM4NXw3MTMuMDI2fDIwOS4yMjd8Ni45NzM4NQ==)"/>
  <g clip-path="url(#cpNi45NzM4NXw3MTMuMDI2fDIwOS4yMjd8Ni45NzM4NQ==)">
    <text x="653.60" y="180.10" style="font-size: 9.96px; fill: #AF0DC7; font-family: Liberation Sans;" textLength="26.55px" lengthAdjust="spacingAndGlyphs">iCpSc</text>
  </g>
  <polyline points="383.86,205.63 422.69,205.63 422.60,205.62 422.95,205.61 423.29,205.54 423.62,205.42 423.92,205.24 424.19,205.02 424.42,204.76 424.60,204.47 424.74,204.15 424.82,203.81 424.85,203.47 424.85,203.47 424.85,193.71 424.85,193.71 424.82,193.37 424.74,193.03 424.60,192.71 424.42,192.41 424.19,192.15 423.92,191.93 423.62,191.76 423.29,191.64 422.95,191.57 422.69,191.55 383.86,191.55 384.12,191.57 383.77,191.55 383.43,191.60 383.09,191.69 382.78,191.84 382.49,192.04 382.24,192.28 382.03,192.56 381.87,192.87 381.76,193.19 381.70,193.54 381.70,193.71 381.70,203.47 381.70,203.29 381.70,203.64 381.76,203.98 381.87,204.31 382.03,204.62 382.24,204.90 382.49,205.14 382.78,205.34 383.09,205.49 383.43,205.58 383.77,205.62 " style="stroke-width: 0.53; stroke: #FF8821; fill: #FFFFFF;" clip-path="url(#cpNi45NzM4NXw3MTMuMDI2fDIwOS4yMjd8Ni45NzM4NQ==)"/>
  <g clip-path="url(#cpNi45NzM4NXw3MTMuMDI2fDIwOS4yMjd8Ni45NzM4NQ==)">
    <text x="385.30" y="202.03" style="font-size: 9.96px; fill: #FF8821; font-family: Liberation Sans;" textLength="35.95px" lengthAdjust="spacingAndGlyphs">SLICER</text>
  </g>
  <polyline points="195.58,205.13 226.12,205.13 226.03,205.13 226.38,205.11 226.72,205.04 227.04,204.92 227.34,204.75 227.61,204.53 227.84,204.27 228.03,203.97 228.16,203.65 228.25,203.32 228.28,202.97 228.28,202.97 228.28,193.21 228.28,193.21 228.25,192.87 228.16,192.53 228.03,192.21 227.84,191.92 227.61,191.66 227.34,191.44 227.04,191.26 226.72,191.14 226.38,191.07 226.12,191.05 195.58,191.05 195.84,191.07 195.49,191.06 195.15,191.10 194.81,191.19 194.50,191.34 194.21,191.54 193.96,191.78 193.75,192.06 193.59,192.37 193.48,192.70 193.42,193.04 193.42,193.21 193.42,202.97 193.42,202.80 193.42,203.14 193.48,203.49 193.59,203.82 193.75,204.12 193.96,204.40 194.21,204.64 194.50,204.84 194.81,204.99 195.15,205.09 195.49,205.13 " style="stroke-width: 0.53; stroke: #5ECD2E; fill: #FFFFFF;" clip-path="url(#cpNi45NzM4NXw3MTMuMDI2fDIwOS4yMjd8Ni45NzM4NQ==)"/>
  <g clip-path="url(#cpNi45NzM4NXw3MTMuMDI2fDIwOS4yMjd8Ni45NzM4NQ==)">
    <text x="197.02" y="201.53" style="font-size: 9.96px; fill: #5ECD2E; font-family: Liberation Sans;" textLength="27.66px" lengthAdjust="spacingAndGlyphs">sincell</text>
  </g>
  <polyline points="545.34,161.47 577.53,161.47 577.44,161.47 577.79,161.45 578.13,161.38 578.46,161.26 578.76,161.09 579.03,160.87 579.26,160.61 579.44,160.31 579.58,159.99 579.66,159.66 579.69,159.31 579.69,159.31 579.69,149.55 579.69,149.55 579.66,149.21 579.58,148.87 579.44,148.55 579.26,148.26 579.03,148.00 578.76,147.78 578.46,147.60 578.13,147.48 577.79,147.41 577.53,147.39 545.34,147.39 545.60,147.41 545.25,147.40 544.91,147.44 544.57,147.53 544.26,147.68 543.97,147.88 543.72,148.12 543.51,148.40 543.35,148.71 543.24,149.04 543.19,149.38 543.18,149.55 543.18,159.31 543.19,159.14 543.19,159.48 543.24,159.83 543.35,160.16 543.51,160.46 543.72,160.74 543.97,160.98 544.26,161.18 544.57,161.33 544.91,161.43 545.25,161.47 " style="stroke-width: 0.53; stroke: #5ECD2E; fill: #FFFFFF;" clip-path="url(#cpNi45NzM4NXw3MTMuMDI2fDIwOS4yMjd8Ni45NzM4NQ==)"/>
  <g clip-path="url(#cpNi45NzM4NXw3MTMuMDI2fDIwOS4yMjd8Ni45NzM4NQ==)">
    <text x="546.78" y="157.87" style="font-size: 9.96px; fill: #5ECD2E; font-family: Liberation Sans;" textLength="29.31px" lengthAdjust="spacingAndGlyphs">TASIC</text>
  </g>
  <polyline points="546.94,122.97 589.11,122.97 589.02,122.97 589.37,122.95 589.71,122.88 590.03,122.76 590.33,122.59 590.60,122.37 590.83,122.11 591.02,121.81 591.15,121.49 591.24,121.16 591.27,120.81 591.27,120.81 591.27,111.05 591.27,111.05 591.24,110.71 591.15,110.37 591.02,110.05 590.83,109.76 590.60,109.50 590.33,109.28 590.03,109.10 589.71,108.98 589.37,108.91 589.11,108.89 546.94,108.89 547.20,108.91 546.86,108.90 546.51,108.94 546.18,109.03 545.86,109.18 545.58,109.38 545.33,109.62 545.12,109.90 544.96,110.21 544.85,110.54 544.79,110.88 544.78,111.05 544.78,120.81 544.79,120.64 544.79,120.98 544.85,121.33 544.96,121.66 545.12,121.96 545.33,122.24 545.58,122.48 545.86,122.68 546.18,122.83 546.51,122.93 546.86,122.97 " style="stroke-width: 0.53; stroke: #5ECD2E; fill: #FFFFFF;" clip-path="url(#cpNi45NzM4NXw3MTMuMDI2fDIwOS4yMjd8Ni45NzM4NQ==)"/>
  <g clip-path="url(#cpNi45NzM4NXw3MTMuMDI2fDIwOS4yMjd8Ni45NzM4NQ==)">
    <text x="548.38" y="119.37" style="font-size: 9.96px; fill: #5ECD2E; font-family: Liberation Sans;" textLength="39.28px" lengthAdjust="spacingAndGlyphs">slingshot</text>
  </g>
  <polyline points="474.59,161.05 511.20,161.05 511.12,161.05 511.47,161.03 511.81,160.96 512.13,160.84 512.43,160.66 512.70,160.45 512.93,160.18 513.12,159.89 513.25,159.57 513.34,159.23 513.36,158.89 513.36,158.89 513.36,149.13 513.36,149.13 513.34,148.79 513.25,148.45 513.12,148.13 512.93,147.83 512.70,147.57 512.43,147.35 512.13,147.18 511.81,147.06 511.47,146.99 511.20,146.97 474.59,146.97 474.85,146.99 474.50,146.97 474.16,147.02 473.83,147.11 473.51,147.26 473.23,147.46 472.98,147.70 472.77,147.98 472.60,148.29 472.49,148.62 472.44,148.96 472.43,149.13 472.43,158.89 472.44,158.71 472.44,159.06 472.49,159.40 472.60,159.73 472.77,160.04 472.98,160.32 473.23,160.56 473.51,160.76 473.83,160.91 474.16,161.00 474.50,161.05 " style="stroke-width: 0.53; stroke: #AF0DC7; fill: #FFFFFF;" clip-path="url(#cpNi45NzM4NXw3MTMuMDI2fDIwOS4yMjd8Ni45NzM4NQ==)"/>
  <g clip-path="url(#cpNi45NzM4NXw3MTMuMDI2fDIwOS4yMjd8Ni45NzM4NQ==)">
    <text x="476.03" y="157.45" style="font-size: 9.96px; fill: #AF0DC7; font-family: Liberation Sans;" textLength="33.73px" lengthAdjust="spacingAndGlyphs">SCENT</text>
  </g>
  <polyline points="399.91,184.68 436.52,184.68 436.43,184.68 436.78,184.67 437.12,184.60 437.44,184.47 437.75,184.30 438.01,184.08 438.24,183.82 438.43,183.53 438.57,183.21 438.65,182.87 438.68,182.52 438.68,182.52 438.68,172.77 438.68,172.77 438.65,172.42 438.57,172.08 438.43,171.76 438.24,171.47 438.01,171.21 437.75,170.99 437.44,170.82 437.12,170.69 436.78,170.62 436.52,170.61 399.91,170.61 400.17,170.62 399.82,170.61 399.47,170.65 399.14,170.75 398.83,170.90 398.54,171.09 398.29,171.33 398.08,171.61 397.92,171.92 397.81,172.25 397.75,172.59 397.75,172.77 397.75,182.52 397.75,182.35 397.75,182.70 397.81,183.04 397.92,183.37 398.08,183.68 398.29,183.95 398.54,184.19 398.83,184.39 399.14,184.54 399.47,184.64 399.82,184.68 " style="stroke-width: 0.53; stroke: #5ECD2E; fill: #FFFFFF;" clip-path="url(#cpNi45NzM4NXw3MTMuMDI2fDIwOS4yMjd8Ni45NzM4NQ==)"/>
  <g clip-path="url(#cpNi45NzM4NXw3MTMuMDI2fDIwOS4yMjd8Ni45NzM4NQ==)">
    <text x="401.35" y="181.08" style="font-size: 9.96px; fill: #5ECD2E; font-family: Liberation Sans;" textLength="33.73px" lengthAdjust="spacingAndGlyphs">TSCAN</text>
  </g>
  <polyline points="583.29,181.69 626.57,181.69 626.48,181.69 626.83,181.67 627.17,181.60 627.49,181.48 627.80,181.30 628.06,181.08 628.30,180.82 628.48,180.53 628.62,180.21 628.70,179.87 628.73,179.53 628.73,179.53 628.73,169.77 628.73,169.77 628.70,169.43 628.62,169.09 628.48,168.77 628.30,168.47 628.06,168.21 627.80,167.99 627.49,167.82 627.17,167.70 626.83,167.63 626.57,167.61 583.29,167.61 583.55,167.63 583.20,167.61 582.86,167.66 582.52,167.75 582.21,167.90 581.92,168.10 581.67,168.34 581.46,168.62 581.30,168.93 581.19,169.26 581.13,169.60 581.13,169.77 581.13,179.53 581.13,179.35 581.13,179.70 581.19,180.04 581.30,180.37 581.46,180.68 581.67,180.96 581.92,181.20 582.21,181.40 582.52,181.55 582.86,181.64 583.20,181.69 " style="stroke-width: 0.53; stroke: #AF0DC7; fill: #FFFFFF;" clip-path="url(#cpNi45NzM4NXw3MTMuMDI2fDIwOS4yMjd8Ni45NzM4NQ==)"/>
  <g clip-path="url(#cpNi45NzM4NXw3MTMuMDI2fDIwOS4yMjd8Ni45NzM4NQ==)">
    <text x="584.73" y="178.09" style="font-size: 9.96px; fill: #AF0DC7; font-family: Liberation Sans;" textLength="40.40px" lengthAdjust="spacingAndGlyphs">HopLand</text>
  </g>
  <polyline points="54.21,202.85 103.01,202.85 102.92,202.85 103.27,202.83 103.61,202.77 103.93,202.64 104.23,202.47 104.50,202.25 104.73,201.99 104.92,201.69 105.06,201.37 105.14,201.04 105.17,200.69 105.17,200.69 105.17,190.94 105.17,190.94 105.14,190.59 105.06,190.25 104.92,189.93 104.73,189.64 104.50,189.38 104.23,189.16 103.93,188.98 103.61,188.86 103.27,188.79 103.01,188.78 54.21,188.78 54.47,188.79 54.12,188.78 53.77,188.82 53.44,188.92 53.13,189.06 52.84,189.26 52.59,189.50 52.38,189.78 52.22,190.09 52.11,190.42 52.05,190.76 52.05,190.94 52.05,200.69 52.05,200.52 52.05,200.86 52.11,201.21 52.22,201.54 52.38,201.85 52.59,202.12 52.84,202.36 53.13,202.56 53.44,202.71 53.77,202.81 54.12,202.85 " style="stroke-width: 0.53; stroke: #5ECD2E; fill: #FFFFFF;" clip-path="url(#cpNi45NzM4NXw3MTMuMDI2fDIwOS4yMjd8Ni45NzM4NQ==)"/>
  <g clip-path="url(#cpNi45NzM4NXw3MTMuMDI2fDIwOS4yMjd8Ni45NzM4NQ==)">
    <text x="55.65" y="199.25" style="font-size: 9.96px; fill: #5ECD2E; font-family: Liberation Sans;" textLength="45.92px" lengthAdjust="spacingAndGlyphs">Monocle 1</text>
  </g>
  <polyline points="456.26,184.02 506.69,184.02 506.61,184.02 506.95,184.01 507.29,183.94 507.62,183.82 507.92,183.64 508.19,183.42 508.42,183.16 508.61,182.87 508.74,182.55 508.82,182.21 508.85,181.86 508.85,181.86 508.85,172.11 508.85,172.11 508.82,171.76 508.74,171.43 508.61,171.11 508.42,170.81 508.19,170.55 507.92,170.33 507.62,170.16 507.29,170.03 506.95,169.97 506.69,169.95 456.26,169.95 456.52,169.97 456.17,169.95 455.83,169.99 455.49,170.09 455.18,170.24 454.89,170.44 454.64,170.68 454.43,170.96 454.27,171.26 454.16,171.59 454.11,171.94 454.10,172.11 454.10,181.86 454.11,181.69 454.11,182.04 454.16,182.38 454.27,182.71 454.43,183.02 454.64,183.30 454.89,183.54 455.18,183.74 455.49,183.88 455.83,183.98 456.17,184.02 " style="stroke-width: 0.53; stroke: #AF0DC7; fill: #FFFFFF;" clip-path="url(#cpNi45NzM4NXw3MTMuMDI2fDIwOS4yMjd8Ni45NzM4NQ==)"/>
  <g clip-path="url(#cpNi45NzM4NXw3MTMuMDI2fDIwOS4yMjd8Ni45NzM4NQ==)">
    <text x="457.70" y="180.42" style="font-size: 9.96px; fill: #AF0DC7; font-family: Liberation Sans;" textLength="47.55px" lengthAdjust="spacingAndGlyphs">SCIMITAR</text>
  </g>
  <polyline points="540.70,182.89 564.59,182.89 564.51,182.89 564.85,182.87 565.19,182.80 565.52,182.68 565.82,182.51 566.09,182.29 566.32,182.03 566.50,181.73 566.64,181.41 566.72,181.07 566.75,180.73 566.75,180.73 566.75,170.97 566.75,170.97 566.72,170.63 566.64,170.29 566.50,169.97 566.32,169.68 566.09,169.42 565.82,169.20 565.52,169.02 565.19,168.90 564.85,168.83 564.59,168.81 540.70,168.81 540.96,168.83 540.62,168.81 540.27,168.86 539.94,168.95 539.62,169.10 539.34,169.30 539.09,169.54 538.88,169.82 538.72,170.13 538.61,170.46 538.55,170.80 538.54,170.97 538.54,180.73 538.55,180.55 538.55,180.90 538.61,181.25 538.72,181.57 538.88,181.88 539.09,182.16 539.34,182.40 539.62,182.60 539.94,182.75 540.27,182.84 540.62,182.89 " style="stroke-width: 0.53; stroke: #CFBF00; fill: #FFFFFF;" clip-path="url(#cpNi45NzM4NXw3MTMuMDI2fDIwOS4yMjd8Ni45NzM4NQ==)"/>
  <g clip-path="url(#cpNi45NzM4NXw3MTMuMDI2fDIwOS4yMjd8Ni45NzM4NQ==)">
    <text x="542.14" y="179.29" style="font-size: 9.96px; fill: #CFBF00; font-family: Liberation Sans;" textLength="21.01px" lengthAdjust="spacingAndGlyphs">MFA</text>
  </g>
  <polyline points="601.44,203.23 624.23,203.23 624.15,203.23 624.49,203.22 624.84,203.15 625.16,203.02 625.46,202.85 625.73,202.63 625.96,202.37 626.15,202.08 626.28,201.76 626.37,201.42 626.39,201.07 626.39,201.07 626.39,191.32 626.39,191.32 626.37,190.97 626.28,190.63 626.15,190.31 625.96,190.02 625.73,189.76 625.46,189.54 625.16,189.37 624.84,189.24 624.49,189.17 624.23,189.16 601.44,189.16 601.70,189.17 601.35,189.16 601.01,189.20 600.67,189.30 600.36,189.45 600.07,189.64 599.82,189.88 599.61,190.16 599.45,190.47 599.34,190.80 599.29,191.14 599.28,191.32 599.28,201.07 599.29,200.90 599.29,201.25 599.34,201.59 599.45,201.92 599.61,202.23 599.82,202.50 600.07,202.75 600.36,202.94 600.67,203.09 601.01,203.19 601.35,203.23 " style="stroke-width: 0.53; stroke: #CFBF00; fill: #FFFFFF;" clip-path="url(#cpNi45NzM4NXw3MTMuMDI2fDIwOS4yMjd8Ni45NzM4NQ==)"/>
  <g clip-path="url(#cpNi45NzM4NXw3MTMuMDI2fDIwOS4yMjd8Ni45NzM4NQ==)">
    <text x="602.88" y="199.63" style="font-size: 9.96px; fill: #CFBF00; font-family: Liberation Sans;" textLength="19.92px" lengthAdjust="spacingAndGlyphs">PBA</text>
  </g>
  <defs>
    <clipPath id="cpMHw3MjB8MjUyfDA=">
      <rect x="0.00" y="0.00" width="720.00" height="252.00"/>
    </clipPath>
  </defs>
  <polyline points="6.97,209.23 713.03,209.23 " style="stroke-width: 1.07; stroke-linecap: square;" clip-path="url(#cpMHw3MjB8MjUyfDA=)"/>
  <polyline points="39.07,212.71 39.07,209.23 " style="stroke-width: 1.07; stroke-linecap: butt;" clip-path="url(#cpMHw3MjB8MjUyfDA=)"/>
  <polyline points="199.42,212.71 199.42,209.23 " style="stroke-width: 1.07; stroke-linecap: butt;" clip-path="url(#cpMHw3MjB8MjUyfDA=)"/>
  <polyline points="359.78,212.71 359.78,209.23 " style="stroke-width: 1.07; stroke-linecap: butt;" clip-path="url(#cpMHw3MjB8MjUyfDA=)"/>
  <polyline points="520.58,212.71 520.58,209.23 " style="stroke-width: 1.07; stroke-linecap: butt;" clip-path="url(#cpMHw3MjB8MjUyfDA=)"/>
  <polyline points="680.93,212.71 680.93,209.23 " style="stroke-width: 1.07; stroke-linecap: butt;" clip-path="url(#cpMHw3MjB8MjUyfDA=)"/>
  <g clip-path="url(#cpMHw3MjB8MjUyfDA=)">
    <text x="25.72" y="223.95" style="font-size: 12.00px; font-family: Liberation Sans;" textLength="26.70px" lengthAdjust="spacingAndGlyphs">2014</text>
  </g>
  <g clip-path="url(#cpMHw3MjB8MjUyfDA=)">
    <text x="186.08" y="223.95" style="font-size: 12.00px; font-family: Liberation Sans;" textLength="26.70px" lengthAdjust="spacingAndGlyphs">2015</text>
  </g>
  <g clip-path="url(#cpMHw3MjB8MjUyfDA=)">
    <text x="346.43" y="223.95" style="font-size: 12.00px; font-family: Liberation Sans;" textLength="26.70px" lengthAdjust="spacingAndGlyphs">2016</text>
  </g>
  <g clip-path="url(#cpMHw3MjB8MjUyfDA=)">
    <text x="507.23" y="223.95" style="font-size: 12.00px; font-family: Liberation Sans;" textLength="26.70px" lengthAdjust="spacingAndGlyphs">2017</text>
  </g>
  <g clip-path="url(#cpMHw3MjB8MjUyfDA=)">
    <text x="667.59" y="223.95" style="font-size: 12.00px; font-family: Liberation Sans;" textLength="26.70px" lengthAdjust="spacingAndGlyphs">2018</text>
  </g>
  <g clip-path="url(#cpMHw3MjB8MjUyfDA=)">
    <text x="312.13" y="240.80" style="font-size: 14.00px; font-family: Liberation Sans;" textLength="95.74px" lengthAdjust="spacingAndGlyphs">Publishing date</text>
  </g>
</svg>
