<?xml version="1.0" encoding="UTF-8"?>
<svg xmlns="http://www.w3.org/2000/svg" xmlns:xlink="http://www.w3.org/1999/xlink" viewBox="0 0 720.00 252.00">
  <defs>
    <style type="text/css"><![CDATA[
    line, polyline, path, rect, circle {
      fill: none;
      stroke: #000000;
      stroke-linecap: round;
      stroke-linejoin: round;
      stroke-miterlimit: 10.00;
    }
  ]]></style>
  </defs>
  <line x1="602.29" y1="183.58" x2="602.29" y2="209.22" style="stroke-width: 1.07; stroke: #AF0DC7;" clip-path="url(#cpNi45NzM4NXw3MTMuMDI2fDIwOS4yMjd8Ni45NzM4NQ==)"/>
  <line x1="307.06" y1="183.22" x2="307.06" y2="209.22" style="stroke-width: 1.07; stroke: #AF0DC7;" clip-path="url(#cpNi45NzM4NXw3MTMuMDI2fDIwOS4yMjd8Ni45NzM4NQ==)"/>
  <line x1="651.94" y1="178.07" x2="651.94" y2="209.22" style="stroke-width: 1.07; stroke: #FF4237;" clip-path="url(#cpNi45NzM4NXw3MTMuMDI2fDIwOS4yMjd8Ni45NzM4NQ==)"/>
  <line x1="435.35" y1="182.62" x2="435.35" y2="209.22" style="stroke-width: 1.07; stroke: #5ECD2E;" clip-path="url(#cpNi45NzM4NXw3MTMuMDI2fDIwOS4yMjd8Ni45NzM4NQ==)"/>
  <line x1="539.47" y1="183.79" x2="539.47" y2="209.22" style="stroke-width: 1.07; stroke: #AF0DC7;" clip-path="url(#cpNi45NzM4NXw3MTMuMDI2fDIwOS4yMjd8Ni45NzM4NQ==)"/>
  <line x1="604.93" y1="141.39" x2="604.93" y2="209.22" style="stroke-width: 1.07; stroke: #AF0DC7;" clip-path="url(#cpNi45NzM4NXw3MTMuMDI2fDIwOS4yMjd8Ni45NzM4NQ==)"/>
  <line x1="401.52" y1="164.46" x2="401.52" y2="209.22" style="stroke-width: 1.07; stroke: #AF0DC7;" clip-path="url(#cpNi45NzM4NXw3MTMuMDI2fDIwOS4yMjd8Ni45NzM4NQ==)"/>
  <line x1="403.27" y1="101.29" x2="403.27" y2="209.22" style="stroke-width: 1.07; stroke: #FF8821;" clip-path="url(#cpNi45NzM4NXw3MTMuMDI2fDIwOS4yMjd8Ni45NzM4NQ==)"/>
  <line x1="552.65" y1="103.22" x2="552.65" y2="209.22" style="stroke-width: 1.07; stroke: #CFBF00;" clip-path="url(#cpNi45NzM4NXw3MTMuMDI2fDIwOS4yMjd8Ni45NzM4NQ==)"/>
  <line x1="481.48" y1="184.35" x2="481.48" y2="209.22" style="stroke-width: 1.07; stroke: #AF0DC7;" clip-path="url(#cpNi45NzM4NXw3MTMuMDI2fDIwOS4yMjd8Ni45NzM4NQ==)"/>
  <line x1="429.63" y1="122.18" x2="429.63" y2="209.22" style="stroke-width: 1.07; stroke: #CFBF00;" clip-path="url(#cpNi45NzM4NXw3MTMuMDI2fDIwOS4yMjd8Ni45NzM4NQ==)"/>
  <line x1="376.47" y1="122.57" x2="376.47" y2="209.22" style="stroke-width: 1.07; stroke: #0073D7;" clip-path="url(#cpNi45NzM4NXw3MTMuMDI2fDIwOS4yMjd8Ni45NzM4NQ==)"/>
  <line x1="660.28" y1="156.39" x2="660.28" y2="209.22" style="stroke-width: 1.07; stroke: #5ECD2E;" clip-path="url(#cpNi45NzM4NXw3MTMuMDI2fDIwOS4yMjd8Ni45NzM4NQ==)"/>
  <line x1="542.98" y1="29.73" x2="542.98" y2="209.22" style="stroke-width: 1.07; stroke: #5ECD2E;" clip-path="url(#cpNi45NzM4NXw3MTMuMDI2fDIwOS4yMjd8Ni45NzM4NQ==)"/>
  <line x1="313.65" y1="160.95" x2="313.65" y2="209.22" style="stroke-width: 1.07; stroke: #AF0DC7;" clip-path="url(#cpNi45NzM4NXw3MTMuMDI2fDIwOS4yMjd8Ni45NzM4NQ==)"/>
  <line x1="413.38" y1="82.16" x2="413.38" y2="209.22" style="stroke-width: 1.07; stroke: #0073D7;" clip-path="url(#cpNi45NzM4NXw3MTMuMDI2fDIwOS4yMjd8Ni45NzM4NQ==)"/>
  <line x1="513.11" y1="124.58" x2="513.11" y2="209.21" style="stroke-width: 1.07; stroke: #5ECD2E;" clip-path="url(#cpNi45NzM4NXw3MTMuMDI2fDIwOS4yMjd8Ni45NzM4NQ==)"/>
  <line x1="460.39" y1="162.60" x2="460.39" y2="209.21" style="stroke-width: 1.07; stroke: #AF0DC7;" clip-path="url(#cpNi45NzM4NXw3MTMuMDI2fDIwOS4yMjd8Ni45NzM4NQ==)"/>
  <line x1="458.63" y1="143.15" x2="458.63" y2="209.21" style="stroke-width: 1.07; stroke: #5ECD2E;" clip-path="url(#cpNi45NzM4NXw3MTMuMDI2fDIwOS4yMjd8Ni45NzM4NQ==)"/>
  <line x1="568.02" y1="161.85" x2="568.02" y2="209.21" style="stroke-width: 1.07; stroke: #5ECD2E;" clip-path="url(#cpNi45NzM4NXw3MTMuMDI2fDIwOS4yMjd8Ni45NzM4NQ==)"/>
  <line x1="88.71" y1="180.92" x2="88.71" y2="209.21" style="stroke-width: 1.07; stroke: #AF0DC7;" clip-path="url(#cpNi45NzM4NXw3MTMuMDI2fDIwOS4yMjd8Ni45NzM4NQ==)"/>
  <line x1="407.67" y1="143.64" x2="407.67" y2="209.21" style="stroke-width: 1.07; stroke: #AF0DC7;" clip-path="url(#cpNi45NzM4NXw3MTMuMDI2fDIwOS4yMjd8Ni45NzM4NQ==)"/>
  <line x1="439.30" y1="64.36" x2="439.30" y2="209.21" style="stroke-width: 1.07; stroke: #5ECD2E;" clip-path="url(#cpNi45NzM4NXw3MTMuMDI2fDIwOS4yMjd8Ni45NzM4NQ==)"/>
  <line x1="482.79" y1="101.55" x2="482.79" y2="209.21" style="stroke-width: 1.07; stroke: #AF0DC7;" clip-path="url(#cpNi45NzM4NXw3MTMuMDI2fDIwOS4yMjd8Ni45NzM4NQ==)"/>
  <line x1="543.42" y1="51.64" x2="543.42" y2="209.21" style="stroke-width: 1.07; stroke: #5ECD2E;" clip-path="url(#cpNi45NzM4NXw3MTMuMDI2fDIwOS4yMjd8Ni45NzM4NQ==)"/>
  <line x1="666.87" y1="134.63" x2="666.87" y2="209.21" style="stroke-width: 1.07; stroke: #AF0DC7;" clip-path="url(#cpNi45NzM4NXw3MTMuMDI2fDIwOS4yMjd8Ni45NzM4NQ==)"/>
  <line x1="433.59" y1="24.65" x2="433.59" y2="209.21" style="stroke-width: 1.07; stroke: #AF0DC7;" clip-path="url(#cpNi45NzM4NXw3MTMuMDI2fDIwOS4yMjd8Ni45NzM4NQ==)"/>
  <line x1="436.22" y1="44.44" x2="436.22" y2="209.21" style="stroke-width: 1.07; stroke: #AF0DC7;" clip-path="url(#cpNi45NzM4NXw3MTMuMDI2fDIwOS4yMjd8Ni45NzM4NQ==)"/>
  <line x1="547.38" y1="80.98" x2="547.38" y2="209.21" style="stroke-width: 1.07; stroke: #CFBF00;" clip-path="url(#cpNi45NzM4NXw3MTMuMDI2fDIwOS4yMjd8Ni45NzM4NQ==)"/>
  <line x1="492.90" y1="80.29" x2="492.90" y2="209.21" style="stroke-width: 1.07; stroke: #AF0DC7;" clip-path="url(#cpNi45NzM4NXw3MTMuMDI2fDIwOS4yMjd8Ni45NzM4NQ==)"/>
  <line x1="611.08" y1="120.00" x2="611.08" y2="209.21" style="stroke-width: 1.07; stroke: #5ECD2E;" clip-path="url(#cpNi45NzM4NXw3MTMuMDI2fDIwOS4yMjd8Ni45NzM4NQ==)"/>
  <defs>
    <clipPath id="cpNi45NzM4NXw3MTMuMDI2fDIwOS4yMjd8Ni45NzM4NQ==">
      <rect x="6.97" y="6.97" width="706.05" height="202.25"/>
    </clipPath>
  </defs>
  <polyline points="592.49,120.00 629.67,120.00 629.58,120.00 629.93,119.99 630.27,119.92 630.60,119.79 630.90,119.62 631.17,119.40 631.40,119.14 631.58,118.85 631.72,118.53 631.80,118.19 631.83,117.84 631.83,117.84 631.83,108.09 631.83,108.09 631.80,107.74 631.72,107.40 631.58,107.08 631.40,106.79 631.17,106.53 630.90,106.31 630.60,106.14 630.27,106.01 629.93,105.94 629.67,105.93 592.49,105.93 592.75,105.94 592.40,105.93 592.06,105.97 591.72,106.07 591.41,106.22 591.12,106.42 590.87,106.66 590.66,106.93 590.50,107.24 590.39,107.57 590.34,107.91 590.33,108.09 590.33,117.84 590.34,117.67 590.34,118.02 590.39,118.36 590.50,118.69 590.66,119.00 590.87,119.28 591.12,119.52 591.41,119.71 591.72,119.86 592.06,119.96 592.40,120.00 " style="stroke-width: 0.53; stroke: #5ECD2E; fill: #FFFFFF;" clip-path="url(#cpNi45NzM4NXw3MTMuMDI2fDIwOS4yMjd8Ni45NzM4NQ==)"/>
  <g clip-path="url(#cpNi45NzM4NXw3MTMuMDI2fDIwOS4yMjd8Ni45NzM4NQ==)">
    <text x="593.93" y="116.40" style="font-size: 9.96px; fill: #5ECD2E; font-family: Liberation Sans;" textLength="34.30px" lengthAdjust="spacingAndGlyphs">SoptSC</text>
  </g>
  <polyline points="474.59,80.29 511.20,80.29 511.12,80.29 511.47,80.27 511.81,80.20 512.13,80.08 512.43,79.91 512.70,79.69 512.93,79.43 513.12,79.13 513.25,78.81 513.34,78.47 513.36,78.13 513.36,78.13 513.36,68.37 513.36,68.37 513.34,68.03 513.25,67.69 513.12,67.37 512.93,67.07 512.70,66.81 512.43,66.59 512.13,66.42 511.81,66.30 511.47,66.23 511.20,66.21 474.59,66.21 474.85,66.23 474.50,66.21 474.16,66.26 473.83,66.35 473.51,66.50 473.23,66.70 472.98,66.94 472.77,67.22 472.60,67.53 472.49,67.86 472.44,68.20 472.43,68.37 472.43,78.13 472.44,77.95 472.44,78.30 472.49,78.64 472.60,78.97 472.77,79.28 472.98,79.56 473.23,79.80 473.51,80.00 473.83,80.15 474.16,80.24 474.50,80.29 " style="stroke-width: 0.53; stroke: #AF0DC7; fill: #FFFFFF;" clip-path="url(#cpNi45NzM4NXw3MTMuMDI2fDIwOS4yMjd8Ni45NzM4NQ==)"/>
  <g clip-path="url(#cpNi45NzM4NXw3MTMuMDI2fDIwOS4yMjd8Ni45NzM4NQ==)">
    <text x="476.03" y="76.69" style="font-size: 9.96px; fill: #AF0DC7; font-family: Liberation Sans;" textLength="33.73px" lengthAdjust="spacingAndGlyphs">SCENT</text>
  </g>
  <polyline points="527.96,80.98 566.79,80.98 566.71,80.98 567.06,80.96 567.40,80.89 567.72,80.77 568.02,80.60 568.29,80.38 568.52,80.12 568.71,79.82 568.84,79.50 568.93,79.17 568.95,78.82 568.95,78.82 568.95,69.06 568.95,69.06 568.93,68.72 568.84,68.38 568.71,68.06 568.52,67.77 568.29,67.51 568.02,67.29 567.72,67.11 567.40,66.99 567.06,66.92 566.79,66.90 527.96,66.90 528.22,66.92 527.87,66.91 527.52,66.95 527.19,67.04 526.88,67.19 526.59,67.39 526.34,67.63 526.13,67.91 525.97,68.22 525.86,68.55 525.80,68.89 525.80,69.06 525.80,78.82 525.80,78.65 525.80,78.99 525.86,79.34 525.97,79.67 526.13,79.97 526.34,80.25 526.59,80.49 526.88,80.69 527.19,80.84 527.52,80.94 527.87,80.98 " style="stroke-width: 0.53; stroke: #CFBF00; fill: #FFFFFF;" clip-path="url(#cpNi45NzM4NXw3MTMuMDI2fDIwOS4yMjd8Ni45NzM4NQ==)"/>
  <g clip-path="url(#cpNi45NzM4NXw3MTMuMDI2fDIwOS4yMjd8Ni45NzM4NQ==)">
    <text x="529.40" y="77.38" style="font-size: 9.96px; fill: #CFBF00; font-family: Liberation Sans;" textLength="35.96px" lengthAdjust="spacingAndGlyphs">GPfates</text>
  </g>
  <polyline points="423.17,44.44 449.28,44.44 449.19,44.44 449.54,44.43 449.88,44.36 450.21,44.23 450.51,44.06 450.78,43.84 451.01,43.58 451.19,43.28 451.33,42.97 451.41,42.63 451.44,42.28 451.44,42.28 451.44,32.53 451.44,32.53 451.41,32.18 451.33,31.84 451.19,31.52 451.01,31.23 450.78,30.97 450.51,30.75 450.21,30.57 449.88,30.45 449.54,30.38 449.28,30.37 423.17,30.37 423.43,30.38 423.08,30.37 422.73,30.41 422.40,30.51 422.09,30.66 421.80,30.85 421.55,31.09 421.34,31.37 421.18,31.68 421.07,32.01 421.01,32.35 421.01,32.53 421.01,42.28 421.01,42.11 421.01,42.45 421.07,42.80 421.18,43.13 421.34,43.44 421.55,43.71 421.80,43.95 422.09,44.15 422.40,44.30 422.73,44.40 423.08,44.44 " style="stroke-width: 0.53; stroke: #AF0DC7; fill: #FFFFFF;" clip-path="url(#cpNi45NzM4NXw3MTMuMDI2fDIwOS4yMjd8Ni45NzM4NQ==)"/>
  <g clip-path="url(#cpNi45NzM4NXw3MTMuMDI2fDIwOS4yMjd8Ni45NzM4NQ==)">
    <text x="424.61" y="40.84" style="font-size: 9.96px; fill: #AF0DC7; font-family: Liberation Sans;" textLength="23.24px" lengthAdjust="spacingAndGlyphs">Ouija</text>
  </g>
  <polyline points="410.29,24.65 456.89,24.65 456.80,24.65 457.15,24.63 457.49,24.56 457.81,24.44 458.11,24.27 458.38,24.05 458.61,23.79 458.80,23.49 458.93,23.17 459.02,22.84 459.05,22.49 459.05,22.49 459.05,12.73 459.05,12.73 459.02,12.39 458.93,12.05 458.80,11.73 458.61,11.44 458.38,11.18 458.11,10.96 457.81,10.78 457.49,10.66 457.15,10.59 456.89,10.57 410.29,10.57 410.55,10.59 410.20,10.58 409.86,10.62 409.52,10.71 409.21,10.86 408.92,11.06 408.67,11.30 408.47,11.58 408.30,11.89 408.19,12.22 408.14,12.56 408.13,12.73 408.13,22.49 408.14,22.32 408.14,22.66 408.19,23.01 408.30,23.34 408.47,23.64 408.67,23.92 408.92,24.16 409.21,24.36 409.52,24.51 409.86,24.61 410.20,24.65 " style="stroke-width: 0.53; stroke: #AF0DC7; fill: #FFFFFF;" clip-path="url(#cpNi45NzM4NXw3MTMuMDI2fDIwOS4yMjd8Ni45NzM4NQ==)"/>
  <g clip-path="url(#cpNi45NzM4NXw3MTMuMDI2fDIwOS4yMjd8Ni45NzM4NQ==)">
    <text x="411.73" y="21.05" style="font-size: 9.96px; fill: #AF0DC7; font-family: Liberation Sans;" textLength="43.72px" lengthAdjust="spacingAndGlyphs">DeLorean</text>
  </g>
  <polyline points="652.16,134.63 681.59,134.63 681.50,134.62 681.85,134.61 682.19,134.54 682.52,134.42 682.82,134.24 683.09,134.02 683.32,133.76 683.50,133.47 683.64,133.15 683.72,132.81 683.75,132.47 683.75,132.47 683.75,122.71 683.75,122.71 683.72,122.37 683.64,122.03 683.50,121.71 683.32,121.41 683.09,121.15 682.82,120.93 682.52,120.76 682.19,120.64 681.85,120.57 681.59,120.55 652.16,120.55 652.42,120.57 652.07,120.55 651.73,120.60 651.39,120.69 651.08,120.84 650.79,121.04 650.54,121.28 650.33,121.56 650.17,121.86 650.06,122.19 650.01,122.54 650.00,122.71 650.00,132.47 650.01,132.29 650.01,132.64 650.06,132.98 650.17,133.31 650.33,133.62 650.54,133.90 650.79,134.14 651.08,134.34 651.39,134.49 651.73,134.58 652.07,134.62 " style="stroke-width: 0.53; stroke: #AF0DC7; fill: #FFFFFF;" clip-path="url(#cpNi45NzM4NXw3MTMuMDI2fDIwOS4yMjd8Ni45NzM4NQ==)"/>
  <g clip-path="url(#cpNi45NzM4NXw3MTMuMDI2fDIwOS4yMjd8Ni45NzM4NQ==)">
    <text x="653.60" y="131.03" style="font-size: 9.96px; fill: #AF0DC7; font-family: Liberation Sans;" textLength="26.55px" lengthAdjust="spacingAndGlyphs">iCpSc</text>
  </g>
  <polyline points="519.85,51.64 566.99,51.64 566.90,51.64 567.25,51.63 567.59,51.56 567.91,51.43 568.22,51.26 568.49,51.04 568.72,50.78 568.90,50.49 569.04,50.17 569.12,49.83 569.15,49.48 569.15,49.48 569.15,39.73 569.15,39.73 569.12,39.38 569.04,39.04 568.90,38.72 568.72,38.43 568.49,38.17 568.22,37.95 567.91,37.78 567.59,37.65 567.25,37.58 566.99,37.57 519.85,37.57 520.11,37.58 519.77,37.57 519.42,37.61 519.09,37.71 518.77,37.86 518.49,38.06 518.24,38.30 518.03,38.57 517.87,38.88 517.76,39.21 517.70,39.55 517.69,39.73 517.69,49.48 517.70,49.31 517.70,49.66 517.76,50.00 517.87,50.33 518.03,50.64 518.24,50.92 518.49,51.16 518.77,51.35 519.09,51.50 519.42,51.60 519.77,51.64 " style="stroke-width: 0.53; stroke: #5ECD2E; fill: #FFFFFF;" clip-path="url(#cpNi45NzM4NXw3MTMuMDI2fDIwOS4yMjd8Ni45NzM4NQ==)"/>
  <g clip-path="url(#cpNi45NzM4NXw3MTMuMDI2fDIwOS4yMjd8Ni45NzM4NQ==)">
    <text x="521.29" y="48.04" style="font-size: 9.96px; fill: #5ECD2E; font-family: Liberation Sans;" textLength="44.25px" lengthAdjust="spacingAndGlyphs">Granatum</text>
  </g>
  <polyline points="455.36,101.55 510.23,101.55 510.14,101.55 510.49,101.53 510.83,101.47 511.15,101.34 511.45,101.17 511.72,100.95 511.95,100.69 512.14,100.39 512.28,100.07 512.36,99.74 512.39,99.39 512.39,99.39 512.39,89.64 512.39,89.64 512.36,89.29 512.28,88.95 512.14,88.63 511.95,88.34 511.72,88.08 511.45,87.86 511.15,87.68 510.83,87.56 510.49,87.49 510.23,87.48 455.36,87.48 455.62,87.49 455.27,87.48 454.93,87.52 454.59,87.62 454.28,87.77 453.99,87.96 453.74,88.20 453.53,88.48 453.37,88.79 453.26,89.12 453.21,89.46 453.20,89.64 453.20,99.39 453.21,99.22 453.21,99.56 453.26,99.91 453.37,100.24 453.53,100.55 453.74,100.82 453.99,101.06 454.28,101.26 454.59,101.41 454.93,101.51 455.27,101.55 " style="stroke-width: 0.53; stroke: #AF0DC7; fill: #FFFFFF;" clip-path="url(#cpNi45NzM4NXw3MTMuMDI2fDIwOS4yMjd8Ni45NzM4NQ==)"/>
  <g clip-path="url(#cpNi45NzM4NXw3MTMuMDI2fDIwOS4yMjd8Ni45NzM4NQ==)">
    <text x="456.80" y="97.95" style="font-size: 9.96px; fill: #AF0DC7; font-family: Liberation Sans;" textLength="51.99px" lengthAdjust="spacingAndGlyphs">SCORPIUS</text>
  </g>
  <polyline points="424.03,64.36 454.57,64.36 454.48,64.36 454.83,64.34 455.17,64.28 455.50,64.15 455.80,63.98 456.07,63.76 456.30,63.50 456.48,63.20 456.62,62.88 456.70,62.55 456.73,62.20 456.73,62.20 456.73,52.45 456.73,52.45 456.70,52.10 456.62,51.76 456.48,51.44 456.30,51.15 456.07,50.89 455.80,50.67 455.50,50.49 455.17,50.37 454.83,50.30 454.57,50.29 424.03,50.29 424.29,50.30 423.94,50.29 423.60,50.33 423.26,50.43 422.95,50.58 422.66,50.77 422.41,51.01 422.20,51.29 422.04,51.60 421.93,51.93 421.88,52.27 421.87,52.45 421.87,62.20 421.88,62.03 421.88,62.37 421.93,62.72 422.04,63.05 422.20,63.36 422.41,63.63 422.66,63.87 422.95,64.07 423.26,64.22 423.60,64.32 423.94,64.36 " style="stroke-width: 0.53; stroke: #5ECD2E; fill: #FFFFFF;" clip-path="url(#cpNi45NzM4NXw3MTMuMDI2fDIwOS4yMjd8Ni45NzM4NQ==)"/>
  <g clip-path="url(#cpNi45NzM4NXw3MTMuMDI2fDIwOS4yMjd8Ni45NzM4NQ==)">
    <text x="425.47" y="60.76" style="font-size: 9.96px; fill: #5ECD2E; font-family: Liberation Sans;" textLength="27.66px" lengthAdjust="spacingAndGlyphs">Mpath</text>
  </g>
  <polyline points="394.34,143.64 421.00,143.64 420.91,143.64 421.26,143.62 421.60,143.55 421.93,143.43 422.23,143.25 422.50,143.03 422.73,142.77 422.91,142.48 423.05,142.16 423.13,141.82 423.16,141.48 423.16,141.48 423.16,131.72 423.16,131.72 423.13,131.38 423.05,131.04 422.91,130.72 422.73,130.42 422.50,130.16 422.23,129.94 421.93,129.77 421.60,129.65 421.26,129.58 421.00,129.56 394.34,129.56 394.60,129.58 394.25,129.56 393.90,129.61 393.57,129.70 393.26,129.85 392.97,130.05 392.72,130.29 392.51,130.57 392.35,130.88 392.24,131.21 392.18,131.55 392.18,131.72 392.18,141.48 392.18,141.30 392.18,141.65 392.24,141.99 392.35,142.32 392.51,142.63 392.72,142.91 392.97,143.15 393.26,143.35 393.57,143.50 393.90,143.59 394.25,143.64 " style="stroke-width: 0.53; stroke: #AF0DC7; fill: #FFFFFF;" clip-path="url(#cpNi45NzM4NXw3MTMuMDI2fDIwOS4yMjd8Ni45NzM4NQ==)"/>
  <g clip-path="url(#cpNi45NzM4NXw3MTMuMDI2fDIwOS4yMjd8Ni45NzM4NQ==)">
    <text x="395.78" y="140.04" style="font-size: 9.96px; fill: #AF0DC7; font-family: Liberation Sans;" textLength="23.78px" lengthAdjust="spacingAndGlyphs">SCell</text>
  </g>
  <polyline points="62.10,180.92 115.32,180.92 115.23,180.91 115.58,180.90 115.92,180.83 116.25,180.71 116.55,180.53 116.82,180.31 117.05,180.05 117.23,179.76 117.37,179.44 117.45,179.10 117.48,178.76 117.48,178.76 117.48,169.00 117.48,169.00 117.45,168.66 117.37,168.32 117.23,168.00 117.05,167.70 116.82,167.44 116.55,167.22 116.25,167.05 115.92,166.93 115.58,166.86 115.32,166.84 62.10,166.84 62.36,166.86 62.02,166.84 61.67,166.89 61.34,166.98 61.02,167.13 60.74,167.33 60.49,167.57 60.28,167.85 60.12,168.16 60.00,168.48 59.95,168.83 59.94,169.00 59.94,178.76 59.95,178.58 59.95,178.93 60.00,179.27 60.12,179.60 60.28,179.91 60.49,180.19 60.74,180.43 61.02,180.63 61.34,180.78 61.67,180.87 62.02,180.91 " style="stroke-width: 0.53; stroke: #AF0DC7; fill: #FFFFFF;" clip-path="url(#cpNi45NzM4NXw3MTMuMDI2fDIwOS4yMjd8Ni45NzM4NQ==)"/>
  <g clip-path="url(#cpNi45NzM4NXw3MTMuMDI2fDIwOS4yMjd8Ni45NzM4NQ==)">
    <text x="63.54" y="177.32" style="font-size: 9.96px; fill: #AF0DC7; font-family: Liberation Sans;" textLength="50.34px" lengthAdjust="spacingAndGlyphs">Wanderlust</text>
  </g>
  <polyline points="546.94,161.85 589.11,161.85 589.02,161.85 589.37,161.83 589.71,161.76 590.03,161.64 590.33,161.47 590.60,161.25 590.83,160.99 591.02,160.69 591.15,160.37 591.24,160.04 591.27,159.69 591.27,159.69 591.27,149.93 591.27,149.93 591.24,149.59 591.15,149.25 591.02,148.93 590.83,148.64 590.60,148.38 590.33,148.16 590.03,147.98 589.71,147.86 589.37,147.79 589.11,147.77 546.94,147.77 547.20,147.79 546.86,147.78 546.51,147.82 546.18,147.92 545.86,148.06 545.58,148.26 545.33,148.50 545.12,148.78 544.96,149.09 544.85,149.42 544.79,149.76 544.78,149.93 544.78,159.69 544.79,159.52 544.79,159.86 544.85,160.21 544.96,160.54 545.12,160.84 545.33,161.12 545.58,161.36 545.86,161.56 546.18,161.71 546.51,161.81 546.86,161.85 " style="stroke-width: 0.53; stroke: #5ECD2E; fill: #FFFFFF;" clip-path="url(#cpNi45NzM4NXw3MTMuMDI2fDIwOS4yMjd8Ni45NzM4NQ==)"/>
  <g clip-path="url(#cpNi45NzM4NXw3MTMuMDI2fDIwOS4yMjd8Ni45NzM4NQ==)">
    <text x="548.38" y="158.25" style="font-size: 9.96px; fill: #5ECD2E; font-family: Liberation Sans;" textLength="39.28px" lengthAdjust="spacingAndGlyphs">slingshot</text>
  </g>
  <polyline points="439.49,143.15 477.77,143.15 477.68,143.15 478.03,143.14 478.37,143.07 478.70,142.94 479.00,142.77 479.27,142.55 479.50,142.29 479.68,142.00 479.82,141.68 479.90,141.34 479.93,140.99 479.93,140.99 479.93,131.24 479.93,131.24 479.90,130.89 479.82,130.55 479.68,130.23 479.50,129.94 479.27,129.68 479.00,129.46 478.70,129.29 478.37,129.16 478.03,129.09 477.77,129.08 439.49,129.08 439.75,129.09 439.40,129.08 439.06,129.12 438.72,129.22 438.41,129.37 438.12,129.56 437.87,129.80 437.66,130.08 437.50,130.39 437.39,130.72 437.34,131.06 437.33,131.24 437.33,140.99 437.34,140.82 437.34,141.17 437.39,141.51 437.50,141.84 437.66,142.15 437.87,142.42 438.12,142.66 438.41,142.86 438.72,143.01 439.06,143.11 439.40,143.15 " style="stroke-width: 0.53; stroke: #5ECD2E; fill: #FFFFFF;" clip-path="url(#cpNi45NzM4NXw3MTMuMDI2fDIwOS4yMjd8Ni45NzM4NQ==)"/>
  <g clip-path="url(#cpNi45NzM4NXw3MTMuMDI2fDIwOS4yMjd8Ni45NzM4NQ==)">
    <text x="440.93" y="139.55" style="font-size: 9.96px; fill: #5ECD2E; font-family: Liberation Sans;" textLength="35.40px" lengthAdjust="spacingAndGlyphs">cellTree</text>
  </g>
  <polyline points="434.34,162.60 486.44,162.60 486.35,162.60 486.70,162.58 487.04,162.51 487.36,162.39 487.67,162.21 487.93,161.99 488.17,161.73 488.35,161.44 488.49,161.12 488.57,160.78 488.60,160.44 488.60,160.44 488.60,150.68 488.60,150.68 488.57,150.34 488.49,150.00 488.35,149.68 488.17,149.38 487.93,149.12 487.67,148.90 487.36,148.73 487.04,148.61 486.70,148.54 486.44,148.52 434.34,148.52 434.60,148.54 434.25,148.52 433.90,148.57 433.57,148.66 433.26,148.81 432.97,149.01 432.72,149.25 432.51,149.53 432.35,149.84 432.24,150.17 432.18,150.51 432.18,150.68 432.18,160.44 432.18,160.26 432.18,160.61 432.24,160.95 432.35,161.28 432.51,161.59 432.72,161.87 432.97,162.11 433.26,162.31 433.57,162.46 433.90,162.55 434.25,162.60 " style="stroke-width: 0.53; stroke: #AF0DC7; fill: #FFFFFF;" clip-path="url(#cpNi45NzM4NXw3MTMuMDI2fDIwOS4yMjd8Ni45NzM4NQ==)"/>
  <g clip-path="url(#cpNi45NzM4NXw3MTMuMDI2fDIwOS4yMjd8Ni45NzM4NQ==)">
    <text x="435.78" y="159.00" style="font-size: 9.96px; fill: #AF0DC7; font-family: Liberation Sans;" textLength="49.22px" lengthAdjust="spacingAndGlyphs">WaveCrest</text>
  </g>
  <polyline points="487.05,124.58 539.17,124.58 539.08,124.58 539.43,124.56 539.77,124.50 540.09,124.37 540.39,124.20 540.66,123.98 540.89,123.72 541.08,123.42 541.21,123.10 541.30,122.77 541.33,122.42 541.33,122.42 541.33,112.67 541.33,112.67 541.30,112.32 541.21,111.98 541.08,111.66 540.89,111.37 540.66,111.11 540.39,110.89 540.09,110.71 539.77,110.59 539.43,110.52 539.17,110.51 487.05,110.51 487.31,110.52 486.96,110.51 486.62,110.55 486.28,110.65 485.97,110.80 485.68,110.99 485.43,111.23 485.22,111.51 485.06,111.82 484.95,112.15 484.90,112.49 484.89,112.67 484.89,122.42 484.90,122.25 484.90,122.59 484.95,122.94 485.06,123.27 485.22,123.58 485.43,123.85 485.68,124.09 485.97,124.29 486.28,124.44 486.62,124.54 486.96,124.58 " style="stroke-width: 0.53; stroke: #5ECD2E; fill: #FFFFFF;" clip-path="url(#cpNi45NzM4NXw3MTMuMDI2fDIwOS4yMjd8Ni45NzM4NQ==)"/>
  <g clip-path="url(#cpNi45NzM4NXw3MTMuMDI2fDIwOS4yMjd8Ni45NzM4NQ==)">
    <text x="488.49" y="120.98" style="font-size: 9.96px; fill: #5ECD2E; font-family: Liberation Sans;" textLength="49.24px" lengthAdjust="spacingAndGlyphs">k-branches</text>
  </g>
  <polyline points="179.96,204.16 217.13,204.16 217.04,204.16 217.39,204.15 217.73,204.08 218.06,203.95 218.36,203.78 218.63,203.56 218.86,203.30 219.04,203.01 219.18,202.69 219.26,202.35 219.29,202.00 219.29,202.00 219.29,192.25 219.29,192.25 219.26,191.90 219.18,191.56 219.04,191.24 218.86,190.95 218.63,190.69 218.36,190.47 218.06,190.30 217.73,190.17 217.39,190.10 217.13,190.09 179.96,190.09 180.22,190.10 179.87,190.09 179.53,190.13 179.19,190.23 178.88,190.38 178.59,190.57 178.34,190.82 178.13,191.09 177.97,191.40 177.86,191.73 177.81,192.07 177.80,192.25 177.80,202.00 177.81,201.83 177.81,202.18 177.86,202.52 177.97,202.85 178.13,203.16 178.34,203.43 178.59,203.68 178.88,203.87 179.19,204.02 179.53,204.12 179.87,204.16 " style="stroke-width: 0.53; stroke: #5ECD2E; fill: #FFFFFF;" clip-path="url(#cpNi45NzM4NXw3MTMuMDI2fDIwOS4yMjd8Ni45NzM4NQ==)"/>
  <g clip-path="url(#cpNi45NzM4NXw3MTMuMDI2fDIwOS4yMjd8Ni45NzM4NQ==)">
    <text x="181.40" y="200.56" style="font-size: 9.96px; fill: #5ECD2E; font-family: Liberation Sans;" textLength="34.29px" lengthAdjust="spacingAndGlyphs">SCUBA</text>
  </g>
  <polyline points="389.81,82.16 436.95,82.16 436.86,82.16 437.21,82.14 437.55,82.07 437.87,81.95 438.18,81.78 438.44,81.56 438.68,81.30 438.86,81.00 439.00,80.68 439.08,80.35 439.11,80.00 439.11,80.00 439.11,70.25 439.11,70.25 439.08,69.90 439.00,69.56 438.86,69.24 438.68,68.95 438.44,68.69 438.18,68.47 437.87,68.29 437.55,68.17 437.21,68.10 436.95,68.09 389.81,68.09 390.07,68.10 389.72,68.09 389.38,68.13 389.04,68.23 388.73,68.37 388.44,68.57 388.19,68.81 387.98,69.09 387.82,69.40 387.71,69.73 387.66,70.07 387.65,70.25 387.65,80.00 387.66,79.83 387.66,80.17 387.71,80.52 387.82,80.85 387.98,81.15 388.19,81.43 388.44,81.67 388.73,81.87 389.04,82.02 389.38,82.12 389.72,82.16 " style="stroke-width: 0.53; stroke: #0073D7; fill: #FFFFFF;" clip-path="url(#cpNi45NzM4NXw3MTMuMDI2fDIwOS4yMjd8Ni45NzM4NQ==)"/>
  <g clip-path="url(#cpNi45NzM4NXw3MTMuMDI2fDIwOS4yMjd8Ni45NzM4NQ==)">
    <text x="391.25" y="78.56" style="font-size: 9.96px; fill: #0073D7; font-family: Liberation Sans;" textLength="44.26px" lengthAdjust="spacingAndGlyphs">Wishbone</text>
  </g>
  <polyline points="292.57,160.95 334.73,160.95 334.64,160.95 334.99,160.93 335.33,160.86 335.66,160.74 335.96,160.57 336.23,160.35 336.46,160.09 336.64,159.79 336.78,159.47 336.86,159.14 336.89,158.79 336.89,158.79 336.89,149.04 336.89,149.04 336.86,148.69 336.78,148.35 336.64,148.03 336.46,147.74 336.23,147.48 335.96,147.26 335.66,147.08 335.33,146.96 334.99,146.89 334.73,146.88 292.57,146.88 292.83,146.89 292.48,146.88 292.14,146.92 291.80,147.02 291.49,147.16 291.20,147.36 290.95,147.60 290.74,147.88 290.58,148.19 290.47,148.52 290.42,148.86 290.41,149.04 290.41,158.79 290.42,158.62 290.42,158.96 290.47,159.31 290.58,159.64 290.74,159.94 290.95,160.22 291.20,160.46 291.49,160.66 291.80,160.81 292.14,160.91 292.48,160.95 " style="stroke-width: 0.53; stroke: #AF0DC7; fill: #FFFFFF;" clip-path="url(#cpNi45NzM4NXw3MTMuMDI2fDIwOS4yMjd8Ni45NzM4NQ==)"/>
  <g clip-path="url(#cpNi45NzM4NXw3MTMuMDI2fDIwOS4yMjd8Ni45NzM4NQ==)">
    <text x="294.01" y="157.35" style="font-size: 9.96px; fill: #AF0DC7; font-family: Liberation Sans;" textLength="39.28px" lengthAdjust="spacingAndGlyphs">embeddr</text>
  </g>
  <polyline points="518.58,29.73 567.38,29.73 567.30,29.73 567.64,29.72 567.98,29.65 568.31,29.52 568.61,29.35 568.88,29.13 569.11,28.87 569.30,28.57 569.43,28.26 569.52,27.92 569.54,27.57 569.54,27.57 569.54,17.82 569.54,17.82 569.52,17.47 569.43,17.13 569.30,16.81 569.11,16.52 568.88,16.26 568.61,16.04 568.31,15.86 567.98,15.74 567.64,15.67 567.38,15.66 518.58,15.66 518.84,15.67 518.49,15.66 518.15,15.70 517.82,15.80 517.50,15.95 517.22,16.14 516.96,16.38 516.76,16.66 516.59,16.97 516.48,17.30 516.43,17.64 516.42,17.82 516.42,27.57 516.43,27.40 516.43,27.74 516.48,28.09 516.59,28.42 516.76,28.73 516.96,29.00 517.22,29.24 517.50,29.44 517.82,29.59 518.15,29.69 518.49,29.73 " style="stroke-width: 0.53; stroke: #5ECD2E; fill: #FFFFFF;" clip-path="url(#cpNi45NzM4NXw3MTMuMDI2fDIwOS4yMjd8Ni45NzM4NQ==)"/>
  <g clip-path="url(#cpNi45NzM4NXw3MTMuMDI2fDIwOS4yMjd8Ni45NzM4NQ==)">
    <text x="520.02" y="26.13" style="font-size: 9.96px; fill: #5ECD2E; font-family: Liberation Sans;" textLength="45.92px" lengthAdjust="spacingAndGlyphs">Monocle 2</text>
  </g>
  <polyline points="638.10,156.39 682.47,156.39 682.38,156.39 682.73,156.38 683.07,156.31 683.40,156.18 683.70,156.01 683.97,155.79 684.20,155.53 684.38,155.24 684.52,154.92 684.60,154.58 684.63,154.23 684.63,154.23 684.63,144.48 684.63,144.48 684.60,144.13 684.52,143.79 684.38,143.47 684.20,143.18 683.97,142.92 683.70,142.70 683.40,142.53 683.07,142.40 682.73,142.33 682.47,142.32 638.10,142.32 638.36,142.33 638.01,142.32 637.67,142.36 637.33,142.46 637.02,142.61 636.73,142.81 636.48,143.05 636.27,143.32 636.11,143.63 636.00,143.96 635.94,144.30 635.94,144.48 635.94,154.23 635.94,154.06 635.94,154.41 636.00,154.75 636.11,155.08 636.27,155.39 636.48,155.67 636.73,155.91 637.02,156.10 637.33,156.25 637.67,156.35 638.01,156.39 " style="stroke-width: 0.53; stroke: #5ECD2E; fill: #FFFFFF;" clip-path="url(#cpNi45NzM4NXw3MTMuMDI2fDIwOS4yMjd8Ni45NzM4NQ==)"/>
  <g clip-path="url(#cpNi45NzM4NXw3MTMuMDI2fDIwOS4yMjd8Ni45NzM4NQ==)">
    <text x="639.54" y="152.79" style="font-size: 9.96px; fill: #5ECD2E; font-family: Liberation Sans;" textLength="41.49px" lengthAdjust="spacingAndGlyphs">p-Creode</text>
  </g>
  <polyline points="365.08,122.57 387.87,122.57 387.78,122.57 388.13,122.56 388.47,122.49 388.79,122.37 389.10,122.19 389.36,121.97 389.59,121.71 389.78,121.42 389.92,121.10 390.00,120.76 390.03,120.41 390.03,120.41 390.03,110.66 390.03,110.66 390.00,110.31 389.92,109.97 389.78,109.66 389.59,109.36 389.36,109.10 389.10,108.88 388.79,108.71 388.47,108.58 388.13,108.51 387.87,108.50 365.08,108.50 365.34,108.51 364.99,108.50 364.65,108.54 364.32,108.64 364.00,108.79 363.72,108.99 363.47,109.23 363.26,109.50 363.09,109.81 362.98,110.14 362.93,110.49 362.92,110.66 362.92,120.41 362.93,120.24 362.93,120.59 362.98,120.93 363.09,121.26 363.26,121.57 363.47,121.85 363.72,122.09 364.00,122.28 364.32,122.43 364.65,122.53 364.99,122.57 " style="stroke-width: 0.53; stroke: #0073D7; fill: #FFFFFF;" clip-path="url(#cpNi45NzM4NXw3MTMuMDI2fDIwOS4yMjd8Ni45NzM4NQ==)"/>
  <g clip-path="url(#cpNi45NzM4NXw3MTMuMDI2fDIwOS4yMjd8Ni45NzM4NQ==)">
    <text x="366.52" y="118.97" style="font-size: 9.96px; fill: #0073D7; font-family: Liberation Sans;" textLength="19.91px" lengthAdjust="spacingAndGlyphs">DPT</text>
  </g>
  <polyline points="410.50,122.18 448.77,122.18 448.68,122.18 449.03,122.16 449.37,122.09 449.70,121.97 450.00,121.80 450.27,121.58 450.50,121.32 450.68,121.02 450.82,120.70 450.90,120.36 450.93,120.02 450.93,120.02 450.93,110.26 450.93,110.26 450.90,109.92 450.82,109.58 450.68,109.26 450.50,108.97 450.27,108.71 450.00,108.49 449.70,108.31 449.37,108.19 449.03,108.12 448.77,108.10 410.50,108.10 410.76,108.12 410.41,108.11 410.06,108.15 409.73,108.24 409.42,108.39 409.13,108.59 408.88,108.83 408.67,109.11 408.51,109.42 408.40,109.75 408.34,110.09 408.34,110.26 408.34,120.02 408.34,119.84 408.34,120.19 408.40,120.54 408.51,120.87 408.67,121.17 408.88,121.45 409.13,121.69 409.42,121.89 409.73,122.04 410.06,122.13 410.41,122.18 " style="stroke-width: 0.53; stroke: #CFBF00; fill: #FFFFFF;" clip-path="url(#cpNi45NzM4NXw3MTMuMDI2fDIwOS4yMjd8Ni45NzM4NQ==)"/>
  <g clip-path="url(#cpNi45NzM4NXw3MTMuMDI2fDIwOS4yMjd8Ni45NzM4NQ==)">
    <text x="411.94" y="118.58" style="font-size: 9.96px; fill: #CFBF00; font-family: Liberation Sans;" textLength="35.39px" lengthAdjust="spacingAndGlyphs">SCOUP</text>
  </g>
  <polyline points="556.93,204.97 589.67,204.97 589.58,204.97 589.93,204.95 590.27,204.89 590.59,204.76 590.89,204.59 591.16,204.37 591.39,204.11 591.58,203.81 591.71,203.49 591.80,203.16 591.83,202.81 591.83,202.81 591.83,193.06 591.83,193.06 591.80,192.71 591.71,192.37 591.58,192.05 591.39,191.76 591.16,191.50 590.89,191.28 590.59,191.10 590.27,190.98 589.93,190.91 589.67,190.90 556.93,190.90 557.19,190.91 556.84,190.90 556.49,190.94 556.16,191.04 555.85,191.18 555.56,191.38 555.31,191.62 555.10,191.90 554.94,192.21 554.83,192.54 554.77,192.88 554.77,193.06 554.77,202.81 554.77,202.64 554.77,202.98 554.83,203.33 554.94,203.66 555.10,203.96 555.31,204.24 555.56,204.48 555.85,204.68 556.16,204.83 556.49,204.93 556.84,204.97 " style="stroke-width: 0.53; stroke: #AF0DC7; fill: #FFFFFF;" clip-path="url(#cpNi45NzM4NXw3MTMuMDI2fDIwOS4yMjd8Ni45NzM4NQ==)"/>
  <g clip-path="url(#cpNi45NzM4NXw3MTMuMDI2fDIwOS4yMjd8Ni45NzM4NQ==)">
    <text x="558.37" y="201.37" style="font-size: 9.96px; fill: #AF0DC7; font-family: Liberation Sans;" textLength="29.86px" lengthAdjust="spacingAndGlyphs">scTDA</text>
  </g>
  <polyline points="456.26,184.35 506.69,184.35 506.61,184.35 506.95,184.33 507.29,184.26 507.62,184.14 507.92,183.97 508.19,183.75 508.42,183.49 508.61,183.19 508.74,182.87 508.82,182.53 508.85,182.19 508.85,182.19 508.85,172.43 508.85,172.43 508.82,172.09 508.74,171.75 508.61,171.43 508.42,171.14 508.19,170.87 507.92,170.65 507.62,170.48 507.29,170.36 506.95,170.29 506.69,170.27 456.26,170.27 456.52,170.29 456.17,170.27 455.83,170.32 455.49,170.41 455.18,170.56 454.89,170.76 454.64,171.00 454.43,171.28 454.27,171.59 454.16,171.92 454.11,172.26 454.10,172.43 454.10,182.19 454.11,182.01 454.11,182.36 454.16,182.70 454.27,183.03 454.43,183.34 454.64,183.62 454.89,183.86 455.18,184.06 455.49,184.21 455.83,184.30 456.17,184.35 " style="stroke-width: 0.53; stroke: #AF0DC7; fill: #FFFFFF;" clip-path="url(#cpNi45NzM4NXw3MTMuMDI2fDIwOS4yMjd8Ni45NzM4NQ==)"/>
  <g clip-path="url(#cpNi45NzM4NXw3MTMuMDI2fDIwOS4yMjd8Ni45NzM4NQ==)">
    <text x="457.70" y="180.75" style="font-size: 9.96px; fill: #AF0DC7; font-family: Liberation Sans;" textLength="47.55px" lengthAdjust="spacingAndGlyphs">SCIMITAR</text>
  </g>
  <polyline points="54.21,202.85 103.01,202.85 102.92,202.85 103.27,202.83 103.61,202.76 103.93,202.64 104.23,202.47 104.50,202.25 104.73,201.99 104.92,201.69 105.06,201.37 105.14,201.03 105.17,200.69 105.17,200.69 105.17,190.93 105.17,190.93 105.14,190.59 105.06,190.25 104.92,189.93 104.73,189.64 104.50,189.38 104.23,189.16 103.93,188.98 103.61,188.86 103.27,188.79 103.01,188.77 54.21,188.77 54.47,188.79 54.12,188.77 53.77,188.82 53.44,188.91 53.13,189.06 52.84,189.26 52.59,189.50 52.38,189.78 52.22,190.09 52.11,190.42 52.05,190.76 52.05,190.93 52.05,200.69 52.05,200.51 52.05,200.86 52.11,201.21 52.22,201.53 52.38,201.84 52.59,202.12 52.84,202.36 53.13,202.56 53.44,202.71 53.77,202.80 54.12,202.85 " style="stroke-width: 0.53; stroke: #5ECD2E; fill: #FFFFFF;" clip-path="url(#cpNi45NzM4NXw3MTMuMDI2fDIwOS4yMjd8Ni45NzM4NQ==)"/>
  <g clip-path="url(#cpNi45NzM4NXw3MTMuMDI2fDIwOS4yMjd8Ni45NzM4NQ==)">
    <text x="55.65" y="199.25" style="font-size: 9.96px; fill: #5ECD2E; font-family: Liberation Sans;" textLength="45.92px" lengthAdjust="spacingAndGlyphs">Monocle 1</text>
  </g>
  <polyline points="540.70,103.22 564.59,103.22 564.51,103.22 564.85,103.20 565.19,103.13 565.52,103.01 565.82,102.84 566.09,102.62 566.32,102.36 566.50,102.06 566.64,101.74 566.72,101.40 566.75,101.06 566.75,101.06 566.75,91.30 566.75,91.30 566.72,90.96 566.64,90.62 566.50,90.30 566.32,90.01 566.09,89.74 565.82,89.53 565.52,89.35 565.19,89.23 564.85,89.16 564.59,89.14 540.70,89.14 540.96,89.16 540.62,89.14 540.27,89.19 539.94,89.28 539.62,89.43 539.34,89.63 539.09,89.87 538.88,90.15 538.72,90.46 538.61,90.79 538.55,91.13 538.54,91.30 538.54,101.06 538.55,100.88 538.55,101.23 538.61,101.57 538.72,101.90 538.88,102.21 539.09,102.49 539.34,102.73 539.62,102.93 539.94,103.08 540.27,103.17 540.62,103.22 " style="stroke-width: 0.53; stroke: #CFBF00; fill: #FFFFFF;" clip-path="url(#cpNi45NzM4NXw3MTMuMDI2fDIwOS4yMjd8Ni45NzM4NQ==)"/>
  <g clip-path="url(#cpNi45NzM4NXw3MTMuMDI2fDIwOS4yMjd8Ni45NzM4NQ==)">
    <text x="542.14" y="99.62" style="font-size: 9.96px; fill: #CFBF00; font-family: Liberation Sans;" textLength="21.01px" lengthAdjust="spacingAndGlyphs">MFA</text>
  </g>
  <polyline points="383.86,101.29 422.69,101.29 422.60,101.29 422.95,101.27 423.29,101.21 423.62,101.08 423.92,100.91 424.19,100.69 424.42,100.43 424.60,100.13 424.74,99.81 424.82,99.48 424.85,99.13 424.85,99.13 424.85,89.38 424.85,89.38 424.82,89.03 424.74,88.69 424.60,88.37 424.42,88.08 424.19,87.82 423.92,87.60 423.62,87.42 423.29,87.30 422.95,87.23 422.69,87.22 383.86,87.22 384.12,87.23 383.77,87.22 383.43,87.26 383.09,87.36 382.78,87.50 382.49,87.70 382.24,87.94 382.03,88.22 381.87,88.53 381.76,88.86 381.70,89.20 381.70,89.38 381.70,99.13 381.70,98.96 381.70,99.30 381.76,99.65 381.87,99.98 382.03,100.28 382.24,100.56 382.49,100.80 382.78,101.00 383.09,101.15 383.43,101.25 383.77,101.29 " style="stroke-width: 0.53; stroke: #FF8821; fill: #FFFFFF;" clip-path="url(#cpNi45NzM4NXw3MTMuMDI2fDIwOS4yMjd8Ni45NzM4NQ==)"/>
  <g clip-path="url(#cpNi45NzM4NXw3MTMuMDI2fDIwOS4yMjd8Ni45NzM4NQ==)">
    <text x="385.30" y="97.69" style="font-size: 9.96px; fill: #FF8821; font-family: Liberation Sans;" textLength="35.95px" lengthAdjust="spacingAndGlyphs">SLICER</text>
  </g>
  <polyline points="378.21,164.46 424.82,164.46 424.73,164.46 425.08,164.44 425.42,164.38 425.75,164.25 426.05,164.08 426.32,163.86 426.55,163.60 426.73,163.30 426.87,162.98 426.95,162.65 426.98,162.30 426.98,162.30 426.98,152.55 426.98,152.55 426.95,152.20 426.87,151.86 426.73,151.54 426.55,151.25 426.32,150.99 426.05,150.77 425.75,150.59 425.42,150.47 425.08,150.40 424.82,150.39 378.21,150.39 378.47,150.40 378.13,150.39 377.78,150.43 377.45,150.53 377.13,150.68 376.85,150.87 376.60,151.11 376.39,151.39 376.23,151.70 376.12,152.03 376.06,152.37 376.05,152.55 376.05,162.30 376.06,162.13 376.06,162.47 376.12,162.82 376.23,163.15 376.39,163.46 376.60,163.73 376.85,163.97 377.13,164.17 377.45,164.32 377.78,164.42 378.13,164.46 " style="stroke-width: 0.53; stroke: #AF0DC7; fill: #FFFFFF;" clip-path="url(#cpNi45NzM4NXw3MTMuMDI2fDIwOS4yMjd8Ni45NzM4NQ==)"/>
  <g clip-path="url(#cpNi45NzM4NXw3MTMuMDI2fDIwOS4yMjd8Ni45NzM4NQ==)">
    <text x="379.65" y="160.86" style="font-size: 9.96px; fill: #AF0DC7; font-family: Liberation Sans;" textLength="43.72px" lengthAdjust="spacingAndGlyphs">pseudogp</text>
  </g>
  <polyline points="583.29,141.39 626.57,141.39 626.48,141.39 626.83,141.38 627.17,141.31 627.49,141.19 627.80,141.01 628.06,140.79 628.30,140.53 628.48,140.24 628.62,139.92 628.70,139.58 628.73,139.23 628.73,139.23 628.73,129.48 628.73,129.48 628.70,129.13 628.62,128.79 628.48,128.48 628.30,128.18 628.06,127.92 627.80,127.70 627.49,127.53 627.17,127.40 626.83,127.33 626.57,127.32 583.29,127.32 583.55,127.33 583.20,127.32 582.86,127.36 582.52,127.46 582.21,127.61 581.92,127.81 581.67,128.05 581.46,128.32 581.30,128.63 581.19,128.96 581.13,129.31 581.13,129.48 581.13,139.23 581.13,139.06 581.13,139.41 581.19,139.75 581.30,140.08 581.46,140.39 581.67,140.67 581.92,140.91 582.21,141.10 582.52,141.25 582.86,141.35 583.20,141.39 " style="stroke-width: 0.53; stroke: #AF0DC7; fill: #FFFFFF;" clip-path="url(#cpNi45NzM4NXw3MTMuMDI2fDIwOS4yMjd8Ni45NzM4NQ==)"/>
  <g clip-path="url(#cpNi45NzM4NXw3MTMuMDI2fDIwOS4yMjd8Ni45NzM4NQ==)">
    <text x="584.73" y="137.79" style="font-size: 9.96px; fill: #AF0DC7; font-family: Liberation Sans;" textLength="40.40px" lengthAdjust="spacingAndGlyphs">HopLand</text>
  </g>
  <polyline points="520.60,183.79 558.33,183.79 558.25,183.78 558.59,183.77 558.93,183.70 559.26,183.58 559.56,183.40 559.83,183.18 560.06,182.92 560.25,182.63 560.38,182.31 560.46,181.97 560.49,181.63 560.49,181.63 560.49,171.87 560.49,171.87 560.46,171.52 560.38,171.19 560.25,170.87 560.06,170.57 559.83,170.31 559.56,170.09 559.26,169.92 558.93,169.80 558.59,169.73 558.33,169.71 520.60,169.71 520.86,169.73 520.52,169.71 520.17,169.75 519.84,169.85 519.52,170.00 519.24,170.20 518.99,170.44 518.78,170.72 518.62,171.02 518.51,171.35 518.45,171.70 518.44,171.87 518.44,181.63 518.45,181.45 518.45,181.80 518.51,182.14 518.62,182.47 518.78,182.78 518.99,183.06 519.24,183.30 519.52,183.50 519.84,183.65 520.17,183.74 520.52,183.78 " style="stroke-width: 0.53; stroke: #AF0DC7; fill: #FFFFFF;" clip-path="url(#cpNi45NzM4NXw3MTMuMDI2fDIwOS4yMjd8Ni45NzM4NQ==)"/>
  <g clip-path="url(#cpNi45NzM4NXw3MTMuMDI2fDIwOS4yMjd8Ni45NzM4NQ==)">
    <text x="522.04" y="180.19" style="font-size: 9.96px; fill: #AF0DC7; font-family: Liberation Sans;" textLength="34.85px" lengthAdjust="spacingAndGlyphs">topslam</text>
  </g>
  <polyline points="417.31,182.62 453.38,182.62 453.29,182.62 453.64,182.61 453.98,182.54 454.30,182.41 454.60,182.24 454.87,182.02 455.10,181.76 455.29,181.46 455.43,181.15 455.51,180.81 455.54,180.46 455.54,180.46 455.54,170.71 455.54,170.71 455.51,170.36 455.43,170.02 455.29,169.70 455.10,169.41 454.87,169.15 454.60,168.93 454.30,168.75 453.98,168.63 453.64,168.56 453.38,168.55 417.31,168.55 417.57,168.56 417.23,168.55 416.88,168.59 416.55,168.69 416.23,168.84 415.95,169.03 415.70,169.27 415.49,169.55 415.33,169.86 415.22,170.19 415.16,170.53 415.15,170.71 415.15,180.46 415.16,180.29 415.16,180.63 415.22,180.98 415.33,181.31 415.49,181.62 415.70,181.89 415.95,182.13 416.23,182.33 416.55,182.48 416.88,182.58 417.23,182.62 " style="stroke-width: 0.53; stroke: #5ECD2E; fill: #FFFFFF;" clip-path="url(#cpNi45NzM4NXw3MTMuMDI2fDIwOS4yMjd8Ni45NzM4NQ==)"/>
  <g clip-path="url(#cpNi45NzM4NXw3MTMuMDI2fDIwOS4yMjd8Ni45NzM4NQ==)">
    <text x="418.75" y="179.02" style="font-size: 9.96px; fill: #5ECD2E; font-family: Liberation Sans;" textLength="33.18px" lengthAdjust="spacingAndGlyphs">StemID</text>
  </g>
  <polyline points="399.91,202.05 436.52,202.05 436.43,202.05 436.78,202.04 437.12,201.97 437.44,201.84 437.75,201.67 438.01,201.45 438.24,201.19 438.43,200.90 438.57,200.58 438.65,200.24 438.68,199.89 438.68,199.89 438.68,190.14 438.68,190.14 438.65,189.79 438.57,189.45 438.43,189.13 438.24,188.84 438.01,188.58 437.75,188.36 437.44,188.19 437.12,188.06 436.78,187.99 436.52,187.98 399.91,187.98 400.17,187.99 399.82,187.98 399.47,188.02 399.14,188.12 398.83,188.27 398.54,188.46 398.29,188.71 398.08,188.98 397.92,189.29 397.81,189.62 397.75,189.96 397.75,190.14 397.75,199.89 397.75,199.72 397.75,200.07 397.81,200.41 397.92,200.74 398.08,201.05 398.29,201.32 398.54,201.57 398.83,201.76 399.14,201.91 399.47,202.01 399.82,202.05 " style="stroke-width: 0.53; stroke: #5ECD2E; fill: #FFFFFF;" clip-path="url(#cpNi45NzM4NXw3MTMuMDI2fDIwOS4yMjd8Ni45NzM4NQ==)"/>
  <g clip-path="url(#cpNi45NzM4NXw3MTMuMDI2fDIwOS4yMjd8Ni45NzM4NQ==)">
    <text x="401.35" y="198.45" style="font-size: 9.96px; fill: #5ECD2E; font-family: Liberation Sans;" textLength="33.73px" lengthAdjust="spacingAndGlyphs">TSCAN</text>
  </g>
  <polyline points="253.02,204.95 284.66,204.95 284.57,204.95 284.92,204.94 285.26,204.87 285.58,204.74 285.88,204.57 286.15,204.35 286.38,204.09 286.57,203.80 286.71,203.48 286.79,203.14 286.82,202.79 286.82,202.79 286.82,193.04 286.82,193.04 286.79,192.69 286.71,192.35 286.57,192.03 286.38,191.74 286.15,191.48 285.88,191.26 285.58,191.08 285.26,190.96 284.92,190.89 284.66,190.88 253.02,190.88 253.28,190.89 252.93,190.88 252.59,190.92 252.25,191.02 251.94,191.17 251.65,191.36 251.40,191.60 251.19,191.88 251.03,192.19 250.92,192.52 250.87,192.86 250.86,193.04 250.86,202.79 250.87,202.62 250.87,202.97 250.92,203.31 251.03,203.64 251.19,203.95 251.40,204.22 251.65,204.46 251.94,204.66 252.25,204.81 252.59,204.91 252.93,204.95 " style="stroke-width: 0.53; stroke: #AF0DC7; fill: #FFFFFF;" clip-path="url(#cpNi45NzM4NXw3MTMuMDI2fDIwOS4yMjd8Ni45NzM4NQ==)"/>
  <g clip-path="url(#cpNi45NzM4NXw3MTMuMDI2fDIwOS4yMjd8Ni45NzM4NQ==)">
    <text x="254.46" y="201.35" style="font-size: 9.96px; fill: #AF0DC7; font-family: Liberation Sans;" textLength="28.76px" lengthAdjust="spacingAndGlyphs">NBOR</text>
  </g>
  <polyline points="639.99,178.07 663.89,178.07 663.80,178.07 664.15,178.05 664.49,177.98 664.81,177.86 665.11,177.69 665.38,177.47 665.61,177.21 665.80,176.91 665.94,176.59 666.02,176.26 666.05,175.91 666.05,175.91 666.05,166.15 666.05,166.15 666.02,165.81 665.94,165.47 665.80,165.15 665.61,164.86 665.38,164.60 665.11,164.38 664.81,164.20 664.49,164.08 664.15,164.01 663.89,163.99 639.99,163.99 640.25,164.01 639.90,164.00 639.56,164.04 639.22,164.13 638.91,164.28 638.62,164.48 638.37,164.72 638.16,165.00 638.00,165.31 637.89,165.64 637.83,165.98 637.83,166.15 637.83,175.91 637.83,175.74 637.83,176.08 637.89,176.43 638.00,176.76 638.16,177.06 638.37,177.34 638.62,177.58 638.91,177.78 639.22,177.93 639.56,178.03 639.90,178.07 " style="stroke-width: 0.53; stroke: #FF4237; fill: #FFFFFF;" clip-path="url(#cpNi45NzM4NXw3MTMuMDI2fDIwOS4yMjd8Ni45NzM4NQ==)"/>
  <g clip-path="url(#cpNi45NzM4NXw3MTMuMDI2fDIwOS4yMjd8Ni45NzM4NQ==)">
    <text x="641.43" y="174.47" style="font-size: 9.96px; fill: #FF4237; font-family: Liberation Sans;" textLength="21.02px" lengthAdjust="spacingAndGlyphs">AGA</text>
  </g>
  <polyline points="594.19,204.24 683.32,204.24 683.23,204.24 683.58,204.22 683.92,204.15 684.25,204.03 684.55,203.86 684.82,203.64 685.05,203.38 685.23,203.08 685.37,202.76 685.45,202.43 685.48,202.08 685.48,202.08 685.48,192.32 685.48,192.32 685.45,191.98 685.37,191.64 685.23,191.32 685.05,191.03 684.82,190.77 684.55,190.55 684.25,190.37 683.92,190.25 683.58,190.18 683.32,190.16 594.19,190.16 594.45,190.18 594.11,190.17 593.76,190.21 593.43,190.30 593.11,190.45 592.83,190.65 592.58,190.89 592.37,191.17 592.21,191.48 592.10,191.81 592.04,192.15 592.03,192.32 592.03,202.08 592.04,201.91 592.04,202.25 592.10,202.60 592.21,202.93 592.37,203.23 592.58,203.51 592.83,203.75 593.11,203.95 593.43,204.10 593.76,204.20 594.11,204.24 " style="stroke-width: 0.53; stroke: #FF8821; fill: #FFFFFF;" clip-path="url(#cpNi45NzM4NXw3MTMuMDI2fDIwOS4yMjd8Ni45NzM4NQ==)"/>
  <g clip-path="url(#cpNi45NzM4NXw3MTMuMDI2fDIwOS4yMjd8Ni45NzM4NQ==)">
    <text x="595.63" y="200.64" style="font-size: 9.96px; fill: #FF8821; font-family: Liberation Sans;" textLength="86.25px" lengthAdjust="spacingAndGlyphs">WADDINGTON-OT</text>
  </g>
  <polyline points="345.20,205.37 384.03,205.37 383.94,205.37 384.29,205.36 384.63,205.29 384.96,205.17 385.26,204.99 385.53,204.77 385.76,204.51 385.94,204.22 386.08,203.90 386.16,203.56 386.19,203.21 386.19,203.21 386.19,193.46 386.19,193.46 386.16,193.11 386.08,192.78 385.94,192.46 385.76,192.16 385.53,191.90 385.26,191.68 384.96,191.51 384.63,191.38 384.29,191.31 384.03,191.30 345.20,191.30 345.46,191.31 345.11,191.30 344.76,191.34 344.43,191.44 344.12,191.59 343.83,191.79 343.58,192.03 343.37,192.30 343.21,192.61 343.10,192.94 343.04,193.29 343.04,193.46 343.04,203.21 343.04,203.04 343.04,203.39 343.10,203.73 343.21,204.06 343.37,204.37 343.58,204.65 343.83,204.89 344.12,205.08 344.43,205.23 344.76,205.33 345.11,205.37 " style="stroke-width: 0.53; stroke: #5ECD2E; fill: #FFFFFF;" clip-path="url(#cpNi45NzM4NXw3MTMuMDI2fDIwOS4yMjd8Ni45NzM4NQ==)"/>
  <g clip-path="url(#cpNi45NzM4NXw3MTMuMDI2fDIwOS4yMjd8Ni45NzM4NQ==)">
    <text x="346.64" y="201.77" style="font-size: 9.96px; fill: #5ECD2E; font-family: Liberation Sans;" textLength="35.95px" lengthAdjust="spacingAndGlyphs">ECLAIR</text>
  </g>
  <polyline points="285.99,183.22 328.13,183.22 328.05,183.22 328.39,183.21 328.74,183.14 329.06,183.01 329.36,182.84 329.63,182.62 329.86,182.36 330.05,182.07 330.18,181.75 330.27,181.41 330.29,181.06 330.29,181.06 330.29,171.31 330.29,171.31 330.27,170.96 330.18,170.62 330.05,170.30 329.86,170.01 329.63,169.75 329.36,169.53 329.06,169.36 328.74,169.23 328.39,169.16 328.13,169.15 285.99,169.15 286.25,169.16 285.90,169.15 285.55,169.19 285.22,169.29 284.91,169.44 284.62,169.63 284.37,169.88 284.16,170.15 284.00,170.46 283.89,170.79 283.83,171.13 283.83,171.31 283.83,181.06 283.83,180.89 283.83,181.24 283.89,181.58 284.00,181.91 284.16,182.22 284.37,182.50 284.62,182.74 284.91,182.93 285.22,183.08 285.55,183.18 285.90,183.22 " style="stroke-width: 0.53; stroke: #AF0DC7; fill: #FFFFFF;" clip-path="url(#cpNi45NzM4NXw3MTMuMDI2fDIwOS4yMjd8Ni45NzM4NQ==)"/>
  <g clip-path="url(#cpNi45NzM4NXw3MTMuMDI2fDIwOS4yMjd8Ni45NzM4NQ==)">
    <text x="287.43" y="179.62" style="font-size: 9.96px; fill: #AF0DC7; font-family: Liberation Sans;" textLength="39.27px" lengthAdjust="spacingAndGlyphs">Waterfall</text>
  </g>
  <polyline points="499.04,205.63 530.69,205.63 530.60,205.62 530.95,205.61 531.29,205.54 531.61,205.42 531.91,205.24 532.18,205.02 532.41,204.76 532.60,204.47 532.74,204.15 532.82,203.81 532.85,203.47 532.85,203.47 532.85,193.71 532.85,193.71 532.82,193.37 532.74,193.03 532.60,192.71 532.41,192.41 532.18,192.15 531.91,191.93 531.61,191.76 531.29,191.64 530.95,191.57 530.69,191.55 499.04,191.55 499.30,191.57 498.96,191.55 498.61,191.60 498.28,191.69 497.96,191.84 497.68,192.04 497.43,192.28 497.22,192.56 497.05,192.87 496.94,193.19 496.89,193.54 496.88,193.71 496.88,203.47 496.89,203.29 496.89,203.64 496.94,203.98 497.05,204.31 497.22,204.62 497.43,204.90 497.68,205.14 497.96,205.34 498.28,205.49 498.61,205.58 498.96,205.62 " style="stroke-width: 0.53; stroke: #5ECD2E; fill: #FFFFFF;" clip-path="url(#cpNi45NzM4NXw3MTMuMDI2fDIwOS4yMjd8Ni45NzM4NQ==)"/>
  <g clip-path="url(#cpNi45NzM4NXw3MTMuMDI2fDIwOS4yMjd8Ni45NzM4NQ==)">
    <text x="500.48" y="202.03" style="font-size: 9.96px; fill: #5ECD2E; font-family: Liberation Sans;" textLength="28.77px" lengthAdjust="spacingAndGlyphs">SLICE</text>
  </g>
  <polyline points="576.22,183.58 628.36,183.58 628.27,183.58 628.62,183.56 628.96,183.49 629.29,183.37 629.59,183.19 629.86,182.97 630.09,182.71 630.27,182.42 630.41,182.10 630.49,181.76 630.52,181.42 630.52,181.42 630.52,171.66 630.52,171.66 630.49,171.32 630.41,170.98 630.27,170.66 630.09,170.36 629.86,170.10 629.59,169.88 629.29,169.71 628.96,169.59 628.62,169.52 628.36,169.50 576.22,169.50 576.48,169.52 576.14,169.50 575.79,169.55 575.46,169.64 575.14,169.79 574.86,169.99 574.61,170.23 574.40,170.51 574.24,170.82 574.13,171.15 574.07,171.49 574.06,171.66 574.06,181.42 574.07,181.24 574.07,181.59 574.13,181.93 574.24,182.26 574.40,182.57 574.61,182.85 574.86,183.09 575.14,183.29 575.46,183.44 575.79,183.53 576.14,183.58 " style="stroke-width: 0.53; stroke: #AF0DC7; fill: #FFFFFF;" clip-path="url(#cpNi45NzM4NXw3MTMuMDI2fDIwOS4yMjd8Ni45NzM4NQ==)"/>
  <g clip-path="url(#cpNi45NzM4NXw3MTMuMDI2fDIwOS4yMjd8Ni45NzM4NQ==)">
    <text x="577.66" y="179.98" style="font-size: 9.96px; fill: #AF0DC7; font-family: Liberation Sans;" textLength="49.26px" lengthAdjust="spacingAndGlyphs">PhenoPath</text>
  </g>
  <defs>
    <clipPath id="cpMHw3MjB8MjUyfDA=">
      <rect x="0.00" y="0.00" width="720.00" height="252.00"/>
    </clipPath>
  </defs>
  <polyline points="6.97,209.23 713.03,209.23 " style="stroke-width: 1.07; stroke-linecap: square;" clip-path="url(#cpMHw3MjB8MjUyfDA=)"/>
  <polyline points="39.07,212.71 39.07,209.23 " style="stroke-width: 1.07; stroke-linecap: butt;" clip-path="url(#cpMHw3MjB8MjUyfDA=)"/>
  <polyline points="199.42,212.71 199.42,209.23 " style="stroke-width: 1.07; stroke-linecap: butt;" clip-path="url(#cpMHw3MjB8MjUyfDA=)"/>
  <polyline points="359.78,212.71 359.78,209.23 " style="stroke-width: 1.07; stroke-linecap: butt;" clip-path="url(#cpMHw3MjB8MjUyfDA=)"/>
  <polyline points="520.58,212.71 520.58,209.23 " style="stroke-width: 1.07; stroke-linecap: butt;" clip-path="url(#cpMHw3MjB8MjUyfDA=)"/>
  <polyline points="680.93,212.71 680.93,209.23 " style="stroke-width: 1.07; stroke-linecap: butt;" clip-path="url(#cpMHw3MjB8MjUyfDA=)"/>
  <g clip-path="url(#cpMHw3MjB8MjUyfDA=)">
    <text x="25.72" y="223.95" style="font-size: 12.00px; font-family: Liberation Sans;" textLength="26.70px" lengthAdjust="spacingAndGlyphs">2014</text>
  </g>
  <g clip-path="url(#cpMHw3MjB8MjUyfDA=)">
    <text x="186.08" y="223.95" style="font-size: 12.00px; font-family: Liberation Sans;" textLength="26.70px" lengthAdjust="spacingAndGlyphs">2015</text>
  </g>
  <g clip-path="url(#cpMHw3MjB8MjUyfDA=)">
    <text x="346.43" y="223.95" style="font-size: 12.00px; font-family: Liberation Sans;" textLength="26.70px" lengthAdjust="spacingAndGlyphs">2016</text>
  </g>
  <g clip-path="url(#cpMHw3MjB8MjUyfDA=)">
    <text x="507.23" y="223.95" style="font-size: 12.00px; font-family: Liberation Sans;" textLength="26.70px" lengthAdjust="spacingAndGlyphs">2017</text>
  </g>
  <g clip-path="url(#cpMHw3MjB8MjUyfDA=)">
    <text x="667.59" y="223.95" style="font-size: 12.00px; font-family: Liberation Sans;" textLength="26.70px" lengthAdjust="spacingAndGlyphs">2018</text>
  </g>
  <g clip-path="url(#cpMHw3MjB8MjUyfDA=)">
    <text x="312.13" y="240.80" style="font-size: 14.00px; font-family: Liberation Sans;" textLength="95.74px" lengthAdjust="spacingAndGlyphs">Publishing date</text>
  </g>
</svg>
